<?xml version="1.0" encoding="UTF-8" standalone="no" ?>
<!DOCTYPE svg PUBLIC "-//W3C//DTD SVG 1.1//EN" "http://www.w3.org/Graphics/SVG/1.1/DTD/svg11.dtd">
<svg xmlns="http://www.w3.org/2000/svg" xmlns:xlink="http://www.w3.org/1999/xlink" version="1.1" width="1080" height="1080" viewBox="0 0 1080 1080" xml:space="preserve">
<desc>Created with Fabric.js 5.2.4</desc>
<defs>
</defs>
<g transform="matrix(1 0 0 1 540 540)" id="09bbfd37-c942-409f-b39d-d698e43ceb60"  >
</g>
<g transform="matrix(1 0 0 1 540 540)" id="281e88a2-d19b-4cd0-8d0e-3bf54d443b55"  >
<rect style="stroke: none; stroke-width: 1; stroke-dasharray: none; stroke-linecap: butt; stroke-dashoffset: 0; stroke-linejoin: miter; stroke-miterlimit: 4; fill: rgb(255,255,255); fill-rule: nonzero; opacity: 1; visibility: hidden;" vector-effect="non-scaling-stroke"  x="-540" y="-540" rx="0" ry="0" width="1080" height="1080" />
</g>
<g transform="matrix(0 0 0 0 0 0)"  >
<g style=""   >
</g>
</g>
<g transform="matrix(2.17 0 0 2.17 606.2 359.71)" id="Layer_1"  >
<rect style="stroke: none; stroke-width: 1; stroke-dasharray: none; stroke-linecap: butt; stroke-dashoffset: 0; stroke-linejoin: miter; stroke-miterlimit: 4; fill: rgb(253,75,45); fill-rule: nonzero; opacity: 1;" vector-effect="non-scaling-stroke"  x="-8.325" y="-23.79" rx="0" ry="0" width="16.65" height="47.58" />
</g>
<g transform="matrix(2.17 0 0 2.17 700.11 344.13)" id="Layer_1"  >
<rect style="stroke: none; stroke-width: 1; stroke-dasharray: none; stroke-linecap: butt; stroke-dashoffset: 0; stroke-linejoin: miter; stroke-miterlimit: 4; fill: rgb(253,75,45); fill-rule: nonzero; opacity: 1;" vector-effect="non-scaling-stroke"  x="-8.325" y="-18.605" rx="0" ry="0" width="16.65" height="37.21" />
</g>
<g transform="matrix(2.17 0 0 2.17 150.54 456.14)"  >
<path style="stroke: none; stroke-width: 1; stroke-dasharray: none; stroke-linecap: butt; stroke-dashoffset: 0; stroke-linejoin: miter; stroke-miterlimit: 4; fill: rgb(253,75,45); fill-rule: nonzero; opacity: 1;" vector-effect="non-scaling-stroke"  transform=" translate(-264.7, -147)" d="M 267.09 131.08 C 244.81019974410486 131.09499044924752 224.32859118550374 143.3125616715165 213.72999999999996 162.91000000000003 L 242 162.91000000000003 C 254.5 152.13000000000002 272.66 148.98000000000002 285.79 162.91000000000003 L 315.68 162.91000000000003 C 304 147.14 286.47 131.08 267.09 131.08 Z" stroke-linecap="round" />
</g>
<g transform="matrix(2.17 0 0 2.17 158.59 587.71)"  >
<path style="stroke: none; stroke-width: 1; stroke-dasharray: none; stroke-linecap: butt; stroke-dashoffset: 0; stroke-linejoin: miter; stroke-miterlimit: 4; fill: rgb(253,75,45); fill-rule: nonzero; opacity: 1;" vector-effect="non-scaling-stroke"  transform=" translate(-268.41, -207.66)" d="M 307.42 191.62 C 268.48 273.06 200.21000000000004 203.62 241.95000000000002 162.91 L 213.73 162.91 C 191.57 201.51999999999998 222.19 253.57999999999998 267.09 252.39999999999998 C 301.80999999999995 252.39999999999998 330.47999999999996 200.85999999999999 330.47999999999996 191.73999999999998 C 330.47999999999996 187.73999999999998 324.87999999999994 175.39999999999998 315.62999999999994 162.90999999999997 L 285.74 162.90999999999997 C 295.65 171.9 304.29 185 307.42 191.62 Z M 308.42 189.25 Z" stroke-linecap="round" />
</g>
<g transform="matrix(2.17 0 0 2.17 660.79 540.02)"  >
<path style="stroke: none; stroke-width: 1; stroke-dasharray: none; stroke-linecap: butt; stroke-dashoffset: 0; stroke-linejoin: miter; stroke-miterlimit: 4; fill: rgb(253,75,45); fill-rule: nonzero; opacity: 1;" vector-effect="non-scaling-stroke"  transform=" translate(-500, -185.67)" d="M 682.22 78.16 L 682.22 293.15999999999997 C 682.170397704187 334.4211022545934 648.7311085215239 367.85591795375393 607.47 367.9 L 575.75 367.9 L 575.75 294.7 L 424.25 294.7 L 424.25 367.9 L 392.53 367.9 C 351.2688914784762 367.85591795375393 317.82960229581295 334.4211022545934 317.78 293.15999999999997 L 317.78 225.55 L 558 225.55 L 558 96.24 L 442 96.24 L 442 168.89 L 317.78 168.89 L 317.78 78.16 C 317.77776360738534 75.29235981437178 317.9480713307195 72.42718282180932 318.28999999999996 69.58000000000006 C 318.66983164445793 66.18483760270941 319.2846396081112 62.82010054075908 320.12999999999994 59.51000000000002 C 320.4099999999999 58.449999999999996 320.7199999999999 57.39 321.0299999999999 56.36 C 321.0952712889209 56.09128791695932 321.17879854800015 55.827341778268924 321.2799999999999 55.57 C 321.44999999999993 55.04 321.6099999999999 54.57 321.7799999999999 54.04 C 321.94999999999993 53.51 322.1499999999999 53.04 322.3399999999999 52.5 C 322.5299999999999 51.96 322.75999999999993 51.35 322.9799999999999 50.79 C 323.1999999999999 50.23 323.4599999999999 49.68 323.6799999999999 49.12 C 325.5450849744374 44.71409254164165 327.8183258693177 40.49235945114966 330.4699999999999 36.510000000000005 L 330.5599999999999 36.4 C 331.2299999999999 35.4 331.9299999999999 34.4 332.64999999999986 33.46 C 333.26999999999987 32.65 333.8799999999999 31.87 334.4999999999999 31.09 C 335.1199999999999 30.31 335.9799999999999 29.33 336.7399999999999 28.49 C 337.4999999999999 27.65 338.2199999999999 26.84 338.9999999999999 26.06 L 339.07999999999987 25.97 C 339.46999999999986 25.529999999999998 339.8899999999999 25.13 340.33999999999986 24.709999999999997 C 343.10927898382783 22.009980757638935 346.0813056294219 19.52604847678812 349.2299999999998 17.280000000000026 C 350.0699999999998 16.659999999999997 350.95999999999987 16.08 351.85999999999984 15.489999999999998 C 352.7599999999998 14.899999999999999 353.85999999999984 14.229999999999999 354.85999999999984 13.619999999999997 C 356.85999999999984 12.469999999999997 358.85999999999984 11.409999999999997 360.85999999999984 10.459999999999997 C 361.5099999999998 10.149999999999997 362.17999999999984 9.839999999999998 362.85999999999984 9.569999999999997 C 365.702893199247 8.32261508923635 368.62609392000286 7.2669220289405025 371.60999999999984 6.409999999999986 C 372.7599999999998 6.069999999999997 373.89999999999986 5.759999999999996 375.07999999999987 5.479999999999997 C 375.6299999999999 5.339999999999997 376.1899999999999 5.199999999999997 376.77999999999986 5.089999999999997 C 380.1165998037656 4.371791338781776 383.4974652901094 3.87735646528486 386.8999999999998 3.6100000000000074 L 388.3799999999999 3.529999999999997 C 388.6299999999999 3.529999999999997 388.8599999999999 3.529999999999997 389.1099999999999 3.529999999999997 C 390.2199999999999 3.469999999999997 391.3699999999999 3.449999999999997 392.5199999999999 3.449999999999997 L 607.47 3.449999999999997 C 608.62 3.449999999999997 609.77 3.449999999999997 610.88 3.529999999999997 C 611.13 3.529999999999997 611.36 3.529999999999997 611.61 3.529999999999997 L 613.09 3.609999999999997 C 616.4925347098904 3.8773564652848456 619.8734001962342 4.3717913387817555 623.21 5.089999999999973 C 623.8000000000001 5.1999999999999975 624.36 5.339999999999997 624.9100000000001 5.479999999999997 C 626.09 5.759999999999997 627.2300000000001 6.069999999999997 628.3800000000001 6.409999999999997 C 631.363906079997 7.266922028940513 634.2871068007529 8.322615089236328 637.1300000000001 9.569999999999972 C 637.7700000000001 9.839999999999996 638.44 10.149999999999997 639.1300000000001 10.459999999999997 C 641.19 11.409999999999997 643.1300000000001 12.459999999999997 645.1300000000001 13.619999999999997 C 646.1300000000001 14.229999999999997 647.1300000000001 14.849999999999998 648.1300000000001 15.489999999999998 C 649.1300000000001 16.13 649.9200000000001 16.659999999999997 650.7600000000001 17.279999999999998 C 654.4310592902909 19.891957223766894 657.8583541234144 22.830594785761484 661 26.060000000000006 C 661.78 26.84 662.54 27.65 663.26 28.49 C 663.98 29.33 664.77 30.22 665.5 31.09 C 666.23 31.96 666.73 32.65 667.35 33.46 C 668.07 34.46 668.77 35.46 669.44 36.4 L 669.5300000000001 36.51 C 672.1816741306823 40.49235945114965 674.4549150255625 44.71409254164161 676.32 49.11999999999996 C 676.5400000000001 49.68 676.7900000000001 50.23 677.0200000000001 50.79 C 677.2500000000001 51.35 677.44 51.91 677.6600000000001 52.5 C 677.8800000000001 53.09 678.0500000000001 53.5 678.22 54.04 C 678.39 54.58 678.5500000000001 55.04 678.72 55.57 C 678.8212014519997 55.827341778268924 678.904728711079 56.09128791695931 678.97 56.36 C 679.28 57.36 679.59 58.45 679.87 59.51 C 680.7153603918887 62.82010054075906 681.330168355542 66.1848376027094 681.71 69.57999999999998 C 682.0519286692805 72.4271828218093 682.2222363926146 75.29235981437174 682.22 78.15999999999997 Z" stroke-linecap="round" />
</g>
<g transform="matrix(2.17 0 0 2.17 660.84 180.68)"  >
<path style="stroke: none; stroke-width: 1; stroke-dasharray: none; stroke-linecap: butt; stroke-dashoffset: 0; stroke-linejoin: miter; stroke-miterlimit: 4; fill: rgb(253,75,45); fill-rule: nonzero; opacity: 1;" vector-effect="non-scaling-stroke"  transform=" translate(-500.02, -19.97)" d="M 669.52 36.51 L 330.52 36.51 C 344.38964529339097 15.847993170338668 367.63455565940086 3.4457087363450256 392.52 3.4299999999999997 L 607.52 3.4299999999999997 C 632.4054443405992 3.445708736345013 655.6503547066089 15.847993170338672 669.52 36.51 Z" stroke-linecap="round" />
</g>
<g transform="matrix(2.17 0 0 2.17 660.79 252.42)"  >
<path style="stroke: none; stroke-width: 1; stroke-dasharray: none; stroke-linecap: butt; stroke-dashoffset: 0; stroke-linejoin: miter; stroke-miterlimit: 4; fill: rgb(253,75,45); fill-rule: nonzero; opacity: 1;" vector-effect="non-scaling-stroke"  transform=" translate(-500, -53.05)" d="M 681.74 69.59 L 318.26 69.59 C 319.60492485078146 57.73895260645837 323.79756069921467 46.38932954048699 330.48 36.50999999999999 L 669.48 36.510000000000005 C 676.1766105544839 46.38557068215242 680.3830672995921 57.73545560288476 681.74 69.59000000000005 Z" stroke-linecap="round" />
</g>
<g transform="matrix(2.17 0 0 2.17 660.79 324.14)"  >
<path style="stroke: none; stroke-width: 1; stroke-dasharray: none; stroke-linecap: butt; stroke-dashoffset: 0; stroke-linejoin: miter; stroke-miterlimit: 4; fill: rgb(253,75,45); fill-rule: nonzero; opacity: 1;" vector-effect="non-scaling-stroke"  transform=" translate(-500, -86.13)" d="M 682.24 78.16 L 682.24 102.67 L 558 102.67 L 558 96.24 L 442 96.24 L 442 102.66999999999999 L 317.76 102.66999999999999 L 317.76 78.16 C 317.7544692481094 75.29256138875851 317.9214374784752 72.4273865556812 318.26 69.58000000000004 L 681.74 69.58 C 682.0785625215249 72.42738655568115 682.2455307518907 75.29256138875849 682.24 78.15999999999998 Z" stroke-linecap="round" />
</g>
<g transform="matrix(2.17 0 0 2.17 400.34 395.9)" id="Layer_1"  >
<rect style="stroke: none; stroke-width: 1; stroke-dasharray: none; stroke-linecap: butt; stroke-dashoffset: 0; stroke-linejoin: miter; stroke-miterlimit: 4; fill: rgb(253,75,45); fill-rule: nonzero; opacity: 1;" vector-effect="non-scaling-stroke"  x="-62.135" y="-16.545" rx="0" ry="0" width="124.27" height="33.09" />
</g>
<g transform="matrix(2.17 0 0 2.17 921.26 395.9)" id="Layer_1"  >
<rect style="stroke: none; stroke-width: 1; stroke-dasharray: none; stroke-linecap: butt; stroke-dashoffset: 0; stroke-linejoin: miter; stroke-miterlimit: 4; fill: rgb(253,75,45); fill-rule: nonzero; opacity: 1;" vector-effect="non-scaling-stroke"  x="-62.135" y="-16.545" rx="0" ry="0" width="124.27" height="33.09" />
</g>
<g transform="matrix(2.17 0 0 2.17 400.34 467.66)" id="Layer_1"  >
<rect style="stroke: none; stroke-width: 1; stroke-dasharray: none; stroke-linecap: butt; stroke-dashoffset: 0; stroke-linejoin: miter; stroke-miterlimit: 4; fill: rgb(253,75,45); fill-rule: nonzero; opacity: 1;" vector-effect="non-scaling-stroke"  x="-62.135" y="-16.535" rx="0" ry="0" width="124.27" height="33.07" />
</g>
<g transform="matrix(2.17 0 0 2.17 921.26 467.66)" id="Layer_1"  >
<rect style="stroke: none; stroke-width: 1; stroke-dasharray: none; stroke-linecap: butt; stroke-dashoffset: 0; stroke-linejoin: miter; stroke-miterlimit: 4; fill: rgb(253,75,45); fill-rule: nonzero; opacity: 1;" vector-effect="non-scaling-stroke"  x="-62.135" y="-16.535" rx="0" ry="0" width="124.27" height="33.07" />
</g>
</svg>