<svg xmlns="http://www.w3.org/2000/svg" width="161.03" height="161.03" version="1.1" viewBox="0 0 42.607 42.607"><path fill="#1b1817" fill-rule="evenodd" stroke-width=".035" d="m21.303 0.526c-11.764 0-21.304 9.5377-21.304 21.304 0 9.4125 6.1041 17.398 14.569 20.215 1.0647 0.1972 1.4556-0.46214 1.4556-1.0248 0-0.508-0.01976-2.1862-0.02893-3.9663-5.9267 1.2887-7.1773-2.5135-7.1773-2.5135-0.96908-2.4624-2.3654-3.1171-2.3654-3.1171-1.9329-1.3222 0.1457-1.295 0.1457-1.295 2.1392 0.14993 3.2657 2.1957 3.2657 2.1957 1.9001 3.2565 4.9837 2.3149 6.1994 1.7706 0.1912-1.3769 0.7433-2.317 1.3526-2.8487-4.7318-0.53869-9.706-2.3654-9.706-10.528 0-2.3259 0.8322-4.2263 2.195-5.7182-0.22119-0.53693-0.95038-2.7033 0.20637-5.6377 0 0 1.7889-0.57256 5.86 2.1837 1.6993-0.47202 3.5218-0.70873 5.3322-0.71684 1.8105 0.0081 3.6343 0.24483 5.3368 0.71684 4.0661-2.7563 5.8526-2.1837 5.8526-2.1837 1.1596 2.9344 0.43004 5.1008 0.20884 5.6377 1.366 1.4919 2.1925 3.3923 2.1925 5.7182 0 8.1823-4.9837 9.984-9.7275 10.511 0.76412 0.6611 1.445 1.9576 1.445 3.9451 0 2.8504-0.02469 5.1446-0.02469 5.8462 0 0.56692 0.38347 1.2312 1.4633 1.022 8.46-2.8201 14.556-10.803 14.556-20.212-1.1e-5 -11.766-9.5381-21.304-21.303-21.304"/></svg>