<?xml version="1.0" encoding="utf-8"?>
<svg width="800px" height="800px" viewBox="0 0 1024 1024" xmlns="http://www.w3.org/2000/svg">
    <circle cx="512" cy="512" r="512" style="fill:#008aaa"/>
    <path d="M786.2 395.5h-80.6c-1.5 0-3-.8-3.7-2.1l-64.7-112.2c-.8-1.3-2.2-2.1-3.8-2.1h-264c-1.5 0-3 .8-3.7 2.1l-67.3 116.4-64.8 112.2c-.7 1.3-.7 2.9 0 4.3l64.8 112.2 67.2 116.5c.7 1.3 2.2 2.2 3.7 2.1h264.1c1.5 0 3-.8 3.8-2.1L702 630.6c.7-1.3 2.2-2.2 3.7-2.1h80.6c2.7 0 4.8-2.2 4.8-4.8V400.4c-.1-2.7-2.3-4.9-4.9-4.9zM477.5 630.6l-20.3 35c-.3.5-.8 1-1.3 1.3-.6.3-1.2.5-1.9.5h-40.3c-1.4 0-2.7-.7-3.3-2l-60.1-104.3-5.9-10.3-21.6-36.9c-.3-.5-.5-1.1-.4-1.8 0-.6.2-1.3.5-1.8l21.7-37.6 65.9-114c.7-1.2 2-2 3.3-2H454c.7 0 1.4.2 2.1.5.5.3 1 .7 1.3 1.3l20.3 35.2c.6 1.2.5 2.7-.2 3.8l-65.1 112.8c-.3.5-.4 1.1-.4 1.6 0 .6.2 1.1.4 1.6l65.1 112.7c.9 1.5.8 3.1 0 4.4zm202.1-116.7L658 550.8l-5.9 10.3L592 665.4c-.7 1.2-1.9 2-3.3 2h-40.3c-.7 0-1.3-.2-1.9-.5-.5-.3-1-.7-1.3-1.3l-20.3-35c-.9-1.3-.9-2.9-.1-4.2l65.1-112.7c.3-.5.4-1.1.4-1.6 0-.6-.2-1.1-.4-1.6l-65.1-112.8c-.7-1.2-.8-2.6-.2-3.8l20.3-35.2c.3-.5.8-1 1.3-1.3.6-.4 1.3-.5 2.1-.5h40.4c1.4 0 2.7.7 3.3 2l65.9 114 21.7 37.6c.3.6.5 1.2.5 1.8 0 .4-.2 1-.5 1.6z" style="fill:#fff"/>
</svg>
