<svg xmlns="http://www.w3.org/2000/svg" xmlns:xlink="http://www.w3.org/1999/xlink" id="Capa_1" width="485.211" height="485.211" x="0" y="0" version="1.1" viewBox="0 0 485.211 485.211" style="enable-background:new 0 0 485.211 485.211" xml:space="preserve"><g><g><path d="M423.47,197.947c0.732-5.271,1.092-10.631,1.092-15.992c0-66.87-54.404-121.304-121.307-121.304 c-38.793,0-74.421,18.332-96.989,48.393c-7.964-1.925-16.081-2.903-24.311-2.903c-58.518,0-106.139,47.623-106.139,106.141 c0,1.479,0.028,2.931,0.089,4.385C32.044,229.698,0,270.383,0,318.416c0,58.53,47.62,106.144,106.139,106.144h257.77 c66.902,0,121.303-54.399,121.303-121.302C485.211,259.047,460.899,219.092,423.47,197.947z M363.908,394.237h-257.77 c-41.873,0-75.812-33.938-75.812-75.821c0-41.868,33.939-75.81,75.812-75.81c2.312,0,4.504,0.474,6.753,0.682 c-4.263-9.477-6.753-19.928-6.753-31.006c0-41.877,33.941-75.814,75.816-75.814c13.682,0,26.357,3.909,37.435,10.247 c13.74-32.754,46.104-55.737,83.865-55.737c50.26,0,90.98,40.723,90.98,90.978c0,11.964-2.46,23.338-6.665,33.82 c38.709,10.484,67.318,45.488,67.318,87.482C454.889,353.513,414.168,394.237,363.908,394.237z"/><polygon points="265.349 212.282 144.049 212.282 144.049 242.606 265.349 242.606 265.349 272.931 341.161 227.446 265.349 181.956"/><polygon points="219.861 272.931 144.049 318.416 219.861 363.906 219.861 333.585 341.161 333.585 341.161 303.258 219.861 303.258"/></g></g></svg>