<svg xmlns="http://www.w3.org/2000/svg" xmlns:xlink="http://www.w3.org/1999/xlink" width="60" height="60" version="1.1" viewBox="0 0 60 60"><title>Cycle</title><desc>Created with Sketch.</desc><defs><polygon id="path-1" points="0 2241 953.752 2241 953.752 0 0 0"/><path id="path-3" d="M0.752,10 C0.752,15.523 5.228,20 10.752,20 C16.274,20 20.752,15.523 20.752,10 C20.752,4.477 16.274,0 10.752,0 C5.228,0 0.752,4.477 0.752,10 L0.752,10 Z"/><path id="path-5" d="M0.752,10 C0.752,15.523 5.228,20 10.752,20 C16.274,20 20.752,15.523 20.752,10 C20.752,4.477 16.274,0 10.752,0 C5.228,0 0.752,4.477 0.752,10 L0.752,10 Z"/><polygon id="path-7" points="0 2241 953.752 2241 953.752 0 0 0"/><polygon id="path-9" points="0 2241 953.752 2241 953.752 0 0 0"/><polygon id="path-11" points="0 2241 953.752 2241 953.752 0 0 0"/><polygon id="path-13" points="0 2241 953.752 2241 953.752 0 0 0"/><polygon id="path-15" points="0 2241 953.752 2241 953.752 0 0 0"/><polygon id="path-17" points="0 2241 953.752 2241 953.752 0 0 0"/><polygon id="path-19" points="0 2241 953.752 2241 953.752 0 0 0"/><polygon id="path-21" points="0 2241 953.752 2241 953.752 0 0 0"/><polygon id="path-23" points="0 2241 953.752 2241 953.752 0 0 0"/><polygon id="path-25" points="0 2241 953.752 2241 953.752 0 0 0"/><polygon id="path-27" points="0 2241 953.752 2241 953.752 0 0 0"/><polygon id="path-29" points="0 2241 953.752 2241 953.752 0 0 0"/><polygon id="path-31" points="0 2241 953.752 2241 953.752 0 0 0"/><polygon id="path-33" points="0 2241 953.752 2241 953.752 0 0 0"/><polygon id="path-35" points="0 2241 953.752 2241 953.752 0 0 0"/><polygon id="path-37" points="0 2241 953.752 2241 953.752 0 0 0"/><polygon id="path-39" points="0 2241 953.752 2241 953.752 0 0 0"/><polygon id="path-41" points="0 2241 953.752 2241 953.752 0 0 0"/><polygon id="path-43" points="0 2241 953.752 2241 953.752 0 0 0"/><polygon id="path-45" points="0 2241 953.752 2241 953.752 0 0 0"/><polygon id="path-47" points="0 2241 953.752 2241 953.752 0 0 0"/><polygon id="path-49" points="0 2241 953.752 2241 953.752 0 0 0"/><polygon id="path-51" points="0 2241 953.752 2241 953.752 0 0 0"/><polygon id="path-53" points="0 2241 953.752 2241 953.752 0 0 0"/><polygon id="path-55" points="0 2241 953.752 2241 953.752 0 0 0"/><polygon id="path-57" points="0 2241 953.752 2241 953.752 0 0 0"/><polygon id="path-59" points="0 2241 953.752 2241 953.752 0 0 0"/><polygon id="path-61" points="0 2241 953.752 2241 953.752 0 0 0"/><polygon id="path-63" points="0 2241 953.752 2241 953.752 0 0 0"/><polygon id="path-65" points="0 2241 953.752 2241 953.752 0 0 0"/><polygon id="path-67" points="0 2241 953.752 2241 953.752 0 0 0"/><polygon id="path-69" points="0 2241 953.752 2241 953.752 0 0 0"/><polygon id="path-71" points="0 2241 953.752 2241 953.752 0 0 0"/><polygon id="path-73" points="0 2241 953.752 2241 953.752 0 0 0"/><polygon id="path-75" points="0 2241 953.752 2241 953.752 0 0 0"/><polygon id="path-77" points="0 2241 953.752 2241 953.752 0 0 0"/><polygon id="path-79" points="0 2241 953.752 2241 953.752 0 0 0"/><polygon id="path-81" points="0 2241 953.752 2241 953.752 0 0 0"/><polygon id="path-83" points="0 2241 953.752 2241 953.752 0 0 0"/><polygon id="path-85" points="0 2241 953.752 2241 953.752 0 0 0"/><polygon id="path-87" points="0 2241 953.752 2241 953.752 0 0 0"/><polygon id="path-89" points="0 2241 953.752 2241 953.752 0 0 0"/><polygon id="path-91" points="0 2241 953.752 2241 953.752 0 0 0"/><polygon id="path-93" points="0 2241 953.752 2241 953.752 0 0 0"/><polygon id="path-95" points="0 2241 953.752 2241 953.752 0 0 0"/></defs><g id="colored" fill="none" fill-rule="evenodd" stroke="none" stroke-width="1"><g id="Page-1" transform="translate(-273.730970, -16.986717)"><g id="Group-64"><mask id="mask-2" fill="#fff"><use xlink:href="#path-1"/></mask></g><g id="Group-72" transform="translate(276.000000, 51.000000)"><mask id="mask-4" fill="#fff"><use xlink:href="#path-3"/></mask><polygon id="Fill-70" fill="#DBCF56" points="-4.248 25 25.752 25 25.752 -5 -4.248 -5" mask="url(#mask-4)"/></g><path id="Fill-73" fill="#314E55" d="M286.7515,52 C281.7895,52 277.7515,56.038 277.7515,61 C277.7515,65.962 281.7895,70 286.7515,70 C291.7135,70 295.7515,65.962 295.7515,61 C295.7515,56.038 291.7135,52 286.7515,52 M286.7515,72 C280.6865,72 275.7515,67.065 275.7515,61 C275.7515,54.935 280.6865,50 286.7515,50 C292.8165,50 297.7515,54.935 297.7515,61 C297.7515,67.065 292.8165,72 286.7515,72"/><g id="Group-77" transform="translate(311.000000, 51.000000)"><mask id="mask-6" fill="#fff"><use xlink:href="#path-5"/></mask><polygon id="Fill-75" fill="#DBCF56" points="-4.248 25 25.752 25 25.752 -5 -4.248 -5" mask="url(#mask-6)"/></g><g id="Group-86" transform="translate(286.000000, 40.000000)"><path id="Fill-78" fill="#314E55" d="M35.7515,12 C30.7895,12 26.7515,16.038 26.7515,21 C26.7515,25.962 30.7895,30 35.7515,30 C40.7135,30 44.7515,25.962 44.7515,21 C44.7515,16.038 40.7135,12 35.7515,12 M35.7515,32 C29.6865,32 24.7515,27.065 24.7515,21 C24.7515,14.935 29.6865,10 35.7515,10 C41.8165,10 46.7515,14.935 46.7515,21 C46.7515,27.065 41.8165,32 35.7515,32"/><path id="Fill-80" fill="#535353" d="M24.8267,10.9395 C24.5707,10.9395 24.3147,10.8415 24.1197,10.6465 C21.7807,8.3075 21.7807,4.5005 24.1197,2.1615 C26.4587,-0.1775 30.2647,-0.1775 32.6047,2.1615 C32.9957,2.5515 32.9957,3.1845 32.6047,3.5755 C32.2147,3.9655 31.5817,3.9655 31.1907,3.5755 C29.6317,2.0165 27.0937,2.0165 25.5337,3.5755 C23.9737,5.1345 23.9737,7.6725 25.5337,9.2325 C25.9247,9.6235 25.9247,10.2555 25.5337,10.6465 C25.3387,10.8415 25.0827,10.9395 24.8267,10.9395"/><polygon id="Fill-82" fill="#535353" points="36.163 22.689 23.413 9.938 24.827 8.524 37.577 21.274"/><path id="Fill-84" fill="#314E55" d="M15.8506,22.0718 L1.8776,22.0718 C1.5566,22.0718 1.2546,21.9178 1.0666,21.6568 C0.8786,21.3958 0.8276,21.0608 0.9296,20.7568 L5.6166,6.6568 L1.1606,2.0728 C0.7756,1.6768 0.7846,1.0438 1.1806,0.6588 C1.5776,0.2758 2.2096,0.2828 2.5956,0.6788 L7.4746,5.6978 C7.7346,5.9668 7.8246,6.3568 7.7056,6.7108 L3.2646,20.0718 L15.3036,20.0718 L21.7276,10.0328 L9.7636,10.0328 C9.2106,10.0328 8.7636,9.5848 8.7636,9.0328 C8.7636,8.4808 9.2106,8.0328 9.7636,8.0328 L23.5556,8.0328 C23.9206,8.0328 24.2566,8.2318 24.4326,8.5528 C24.6076,8.8728 24.5946,9.2638 24.3976,9.5718 L16.6926,21.6108 C16.5096,21.8978 16.1916,22.0718 15.8506,22.0718"/></g><g id="Group-111"><mask id="mask-8" fill="#fff"><use xlink:href="#path-7"/></mask></g><g id="Group-133"><mask id="mask-10" fill="#fff"><use xlink:href="#path-9"/></mask></g><g id="Group-254"><mask id="mask-12" fill="#fff"><use xlink:href="#path-11"/></mask></g><g id="Group-397"><mask id="mask-14" fill="#fff"><use xlink:href="#path-13"/></mask></g><g id="Group-513"><mask id="mask-16" fill="#fff"><use xlink:href="#path-15"/></mask></g><g id="Group-707"><mask id="mask-18" fill="#fff"><use xlink:href="#path-17"/></mask></g><g id="Group-738"><mask id="mask-20" fill="#fff"><use xlink:href="#path-19"/></mask></g><g id="Group-928"><mask id="mask-22" fill="#fff"><use xlink:href="#path-21"/></mask></g><g id="Group-1199"><mask id="mask-24" fill="#fff"><use xlink:href="#path-23"/></mask></g><g id="Group-1213"><mask id="mask-26" fill="#fff"><use xlink:href="#path-25"/></mask></g><g id="Group-1270"><mask id="mask-28" fill="#fff"><use xlink:href="#path-27"/></mask></g><g id="Group-1306"><mask id="mask-30" fill="#fff"><use xlink:href="#path-29"/></mask></g><g id="Group-1588"><mask id="mask-32" fill="#fff"><use xlink:href="#path-31"/></mask></g><g id="Group-1602"><mask id="mask-34" fill="#fff"><use xlink:href="#path-33"/></mask></g><g id="Group-1620"><mask id="mask-36" fill="#fff"><use xlink:href="#path-35"/></mask></g><g id="Group-1710"><mask id="mask-38" fill="#fff"><use xlink:href="#path-37"/></mask></g><g id="Group-1732"><mask id="mask-40" fill="#fff"><use xlink:href="#path-39"/></mask></g><g id="Group-1809"><mask id="mask-42" fill="#fff"><use xlink:href="#path-41"/></mask></g><g id="Group-1860"><mask id="mask-44" fill="#fff"><use xlink:href="#path-43"/></mask></g><g id="Group-1896"><mask id="mask-46" fill="#fff"><use xlink:href="#path-45"/></mask></g><g id="Group-1982"><mask id="mask-48" fill="#fff"><use xlink:href="#path-47"/></mask></g><g id="Group-2005"><mask id="mask-50" fill="#fff"><use xlink:href="#path-49"/></mask></g><g id="Group-2232"><mask id="mask-52" fill="#fff"><use xlink:href="#path-51"/></mask></g><g id="Group-2311"><mask id="mask-54" fill="#fff"><use xlink:href="#path-53"/></mask></g><g id="Group-2356"><mask id="mask-56" fill="#fff"><use xlink:href="#path-55"/></mask></g><g id="Group-2410"><mask id="mask-58" fill="#fff"><use xlink:href="#path-57"/></mask></g><g id="Group-2471"><mask id="mask-60" fill="#fff"><use xlink:href="#path-59"/></mask></g><g id="Group-2490"><mask id="mask-62" fill="#fff"><use xlink:href="#path-61"/></mask></g><g id="Group-2575"><mask id="mask-64" fill="#fff"><use xlink:href="#path-63"/></mask></g><g id="Group-2654"><mask id="mask-66" fill="#fff"><use xlink:href="#path-65"/></mask></g><g id="Group-2867"><mask id="mask-68" fill="#fff"><use xlink:href="#path-67"/></mask></g><g id="Group-3028"><mask id="mask-70" fill="#fff"><use xlink:href="#path-69"/></mask></g><g id="Group-3202"><mask id="mask-72" fill="#fff"><use xlink:href="#path-71"/></mask></g><g id="Group-3349"><mask id="mask-74" fill="#fff"><use xlink:href="#path-73"/></mask></g><g id="Group-3445"><mask id="mask-76" fill="#fff"><use xlink:href="#path-75"/></mask></g><g id="Group-3527"><mask id="mask-78" fill="#fff"><use xlink:href="#path-77"/></mask></g><g id="Group-3661"><mask id="mask-80" fill="#fff"><use xlink:href="#path-79"/></mask></g><g id="Group-3846"><mask id="mask-82" fill="#fff"><use xlink:href="#path-81"/></mask></g><g id="Group-3891"><mask id="mask-84" fill="#fff"><use xlink:href="#path-83"/></mask></g><g id="Group-3932"><mask id="mask-86" fill="#fff"><use xlink:href="#path-85"/></mask></g><g id="Group-3979"><mask id="mask-88" fill="#fff"><use xlink:href="#path-87"/></mask></g><g id="Group-4060"><mask id="mask-90" fill="#fff"><use xlink:href="#path-89"/></mask></g><g id="Group-4079"><mask id="mask-92" fill="#fff"><use xlink:href="#path-91"/></mask></g><g id="Group-4092"><mask id="mask-94" fill="#fff"><use xlink:href="#path-93"/></mask></g><g id="Group-4117"><mask id="mask-96" fill="#fff"><use xlink:href="#path-95"/></mask></g></g></g></svg>