<?xml version="1.0" encoding="UTF-8"?>
<svg width="203px" height="135px" viewBox="0 0 203 135" version="1.1" xmlns="http://www.w3.org/2000/svg" xmlns:xlink="http://www.w3.org/1999/xlink">
    <!-- Generator: Sketch 41.2 (35397) - http://www.bohemiancoding.com/sketch -->
    <title>blank</title>
    <desc>Created with Sketch.</desc>
    <defs>
        <rect id="path-1" x="0" y="0" width="140" height="51" rx="3"></rect>
        <mask id="mask-2" maskContentUnits="userSpaceOnUse" maskUnits="objectBoundingBox" x="0" y="0" width="140" height="51" fill="white">
            <use xlink:href="#path-1"></use>
        </mask>
        <polygon id="path-3" points="6.10169492 0.68627451 0.338983051 3.08823529 6.10169492 4.11764706 12.8813559 4.46078431 12.8813559 0"></polygon>
        <path d="M18.9830508,0 L11.8644068,0 C9.49152542,0 4.74576271,10.2941176 4.74576271,10.2941176 L4.74576271,10.2941176 C4.74576271,10.2941176 0,10.2941176 0,15.0980392 L0,15.0980392 C0,19.9019608 9.15254237,28.8235294 18.9830508,28.8235294 L18.9830508,28.8235294 C28.8135593,28.8235294 37.9661017,19.9019608 37.9661017,15.0980392 L37.9661017,15.0980392 C37.9661017,10.2941176 33.220339,10.2941176 33.220339,10.2941176 L33.220339,10.2941176 C33.220339,10.2941176 28.4745763,0 26.1016949,0 L26.1016949,0 L18.9830508,0 Z" id="path-5"></path>
        <path d="M2.03389831,0 L0,4.11764706 C0,4.11764706 4.74576271,7.54901961 7.11864407,7.54901961 L7.11864407,7.54901961 C9.49152542,7.54901961 11.8644068,6.17647059 14.2372881,6.17647059 L14.2372881,6.17647059 C16.6101695,6.17647059 18.9830508,7.54901961 21.3559322,7.54901961 L21.3559322,7.54901961 C23.7288136,7.54901961 28.4745763,4.11764706 28.4745763,4.11764706 L28.4745763,4.11764706 L26.440678,0 L2.03389831,0 Z" id="path-7"></path>
        <path d="M0.496271186,1.71568627 C1.08271186,2.74098039 2.17762712,3.43137255 3.43322034,3.43137255 L3.43322034,3.43137255 C4.68745763,3.43137255 5.78372881,2.74098039 6.36881356,1.71568627 L6.36881356,1.71568627 C5.78372881,0.689705882 4.68745763,0 3.43322034,0 L3.43322034,0 C2.17762712,0 1.08271186,0.689705882 0.496271186,1.71568627 L0.496271186,1.71568627 Z" id="path-9"></path>
        <path d="M0.496271186,1.71568627 C1.08271186,2.74098039 2.17830508,3.43137255 3.43322034,3.43137255 L3.43322034,3.43137255 C4.68745763,3.43137255 5.78305085,2.74098039 6.36949153,1.71568627 L6.36949153,1.71568627 C5.78305085,0.689705882 4.68745763,0 3.43322034,0 L3.43322034,0 C2.17830508,0 1.08271186,0.689705882 0.496271186,1.71568627 L0.496271186,1.71568627 Z" id="path-11"></path>
        <polygon id="path-13" points="0.267118644 6.8627451 1.96271186 9.60784314 7.72474576 3.08823529 4.33559322 0"></polygon>
        <rect id="path-15" x="0" y="0" width="140" height="51" rx="3"></rect>
        <mask id="mask-16" maskContentUnits="userSpaceOnUse" maskUnits="objectBoundingBox" x="0" y="0" width="140" height="51" fill="white">
            <use xlink:href="#path-15"></use>
        </mask>
        <path d="M4.96928571,3.62844948 C4.47621429,7.23111498 3.49007143,14.4358014 3.49007143,14.4358014 L3.49007143,14.4358014 C1.36028571,15.8429617 0,17.9894774 0,20.3938328 L0,20.3938328 C0,24.6327178 4.22742857,28.0690767 9.44164286,28.0690767 L9.44164286,28.0690767 C12.0156429,28.0690767 14.3492143,27.2317422 16.0521429,25.874216 L16.0521429,25.874216 C17.3777143,27.2124042 19.4136429,28.0690767 21.6964286,28.0690767 L21.6964286,28.0690767 C25.6905,28.0690767 28.9285714,25.4468467 28.9285714,22.2116028 L28.9285714,22.2116028 C28.9285714,20.2700697 27.7617857,18.5489895 25.9656429,17.4834669 L25.9656429,17.4834669 C25.8634286,16.6506446 25.758,15.7849477 25.6583571,14.9650174 L25.6583571,14.9650174 C25.6924286,15.2731359 25.7123571,15.4542683 25.7142857,15.4690941 L25.7142857,15.4690941 L25.7142857,15.4703833 L25.7142857,15.4690941 L25.7142857,15.4690941 L25.6377857,14.7974216 C25.6268571,14.7110453 25.6165714,14.6253136 25.6062857,14.5395819 L25.6062857,14.5395819 L25.5792857,14.2888328 L24.4285714,4.18989547 C24.6927857,6.35381533 25.2398571,11.2231185 25.5278571,13.7995819 L25.5278571,13.7995819 L24.1071429,0.322299652 L4.96928571,3.62844948 Z M25.5792857,14.2888328 L25.6377857,14.7974216 C25.6442143,14.8535017 25.6512857,14.9089373 25.6583571,14.9650174 L25.6583571,14.9650174 C25.6262143,14.6768815 25.5812143,14.2778746 25.5278571,13.7995819 L25.5278571,13.7995819 L25.5792857,14.2888328 Z" id="path-17"></path>
        <path d="M0,0.966898955 L0,1.93379791 L1.92857143,2.57839721 L1.92857143,0.967543554 C1.92857143,0.437682927 1.49657143,0 0.964285714,0 L0.964285714,0 C0.428142857,0 0,0.433170732 0,0.966898955" id="path-19"></path>
        <path d="M0.539357143,1.36590592 L0.721928571,3.00060976 C0.824142857,3.92367596 1.45992857,5.22834495 2.14135714,5.91226481 L2.14135714,5.91226481 L3.04971429,6.82308362 C3.321,7.09510453 3.89378571,7.22273519 4.32257143,7.10219512 L4.32257143,7.10219512 L5.45657143,6.78376307 C5.88278571,6.6638676 6.29485714,6.26099303 6.37007143,5.88648084 L6.37007143,5.88648084 L6.55007143,4.98468641 C6.73714286,4.04937282 6.63685714,2.57968641 6.32507143,1.70367596 L6.32507143,1.70367596 L5.7735,0.154059233 L0.539357143,1.36590592 Z" id="path-21"></path>
        <path d="M16.4295,0.241080139 C14.5999286,0.643954704 8.235,3.81473868 8.235,3.81473868 L8.235,3.81473868 C7.47257143,4.18473868 6.84578571,4.94536585 6.52242857,5.79172474 L6.52242857,5.79172474 L2.23007143,5.33728223 C0.862714286,5.19289199 0.262285714,6.07019164 0.881357143,7.29686411 L0.881357143,7.29686411 L2.403,10.3135889 L27,10.3135889 L23.1987857,7.71134146 L23.3363571,4.74102787 C23.4514286,2.25867596 21.5389286,0.161149826 19.0658571,0.0618815331 L19.0658571,0.0618815331 C19.0658571,0.0618815331 18.8421429,0 18.3645,0 L18.3645,0 C17.9344286,0 17.2967143,0.0502787456 16.4295,0.241080139 L16.4295,0.241080139 Z" id="path-23"></path>
        <rect id="path-25" x="0" y="0" width="140" height="51" rx="3"></rect>
        <mask id="mask-26" maskContentUnits="userSpaceOnUse" maskUnits="objectBoundingBox" x="0" y="0" width="140" height="51" fill="white">
            <use xlink:href="#path-25"></use>
        </mask>
    </defs>
    <g id="Page-1" stroke="none" stroke-width="1" fill="none" fill-rule="evenodd">
        <g id="blank">
            <g id="Group" transform="translate(10.000000, 15.000000)">
                <use id="Rectangle-5" stroke="#D3D3D3" mask="url(#mask-2)" stroke-width="2" fill="#FFFFFF" xlink:href="#path-1"></use>
                <rect id="Rectangle-2" fill="#C7C7C7" x="54" y="22" width="71" height="4.37202613" rx="2.18601307"></rect>
                <rect id="Rectangle-2" fill="#C7C7C7" x="54" y="30" width="53.5" height="4.37202613" rx="2.18601307"></rect>
                <g id="Michelangelo" transform="translate(7.000000, 7.000000)">
                    <g id="colored">
                        <g>
                            <g id="Page-1">
                                <g id="Group-1444" transform="translate(26.440678, 8.235294)">
                                    <g id="Fill-1442-Clipped">
                                        <mask id="mask-4" fill="white">
                                            <use xlink:href="#path-3"></use>
                                        </mask>
                                        <g id="path-77"></g>
                                        <polygon id="Fill-1442" fill="#F1854C" mask="url(#mask-4)" points="16.2711864 -3.43137255 -3.05084746 -3.43137255 -3.05084746 7.89215686 16.2711864 7.89215686"></polygon>
                                    </g>
                                </g>
                                <path d="M39.3220339,13.3823529 C39.3105085,13.3823529 39.299661,13.3823529 39.2881356,13.3816667 L32.5084746,13.0385294 C32.48,13.0371569 32.4522034,13.0337255 32.4244068,13.0289216 L26.6616949,11.9995098 C26.2928814,11.9336275 26.0467797,11.577451 26.1125424,11.2041176 C26.1762712,10.8314706 26.5301695,10.5816667 26.8976271,10.647549 L32.6183051,11.6694118 L38.6440678,11.9748039 L38.6440678,8.99362745 L32.6101695,9.60441176 C32.2332203,9.64627451 31.9057627,9.36696078 31.8677966,8.99019608 C31.8305085,8.6127451 32.1023729,8.27647059 32.4745763,8.23872549 L39.2542373,7.55245098 C39.4447458,7.53392157 39.6352542,7.59637255 39.7769492,7.72676471 C39.919322,7.85647059 40,8.04107843 40,8.23529412 L40,12.6960784 C40,12.8841176 39.9240678,13.0639216 39.7891525,13.1936275 C39.6630508,13.315098 39.4955932,13.3823529 39.3220339,13.3823529" id="Fill-1445" fill="#334F55"></path>
                                <g id="Group-1449" transform="translate(0.677966, 5.490196)">
                                    <g id="Fill-1447-Clipped">
                                        <mask id="mask-6" fill="white">
                                            <use xlink:href="#path-5"></use>
                                        </mask>
                                        <g id="path-79"></g>
                                        <polygon id="Fill-1447" fill="#C5D35E" mask="url(#mask-6)" points="-3.38983051 -3.43137255 41.3559322 -3.43137255 41.3559322 32.254902 -3.38983051 32.254902"></polygon>
                                    </g>
                                </g>
                                <path d="M12.5423729,6.17647059 C11.3810169,6.17647059 8.24135593,11.2947059 6.0379661,16.0746078 C5.92677966,16.3161765 5.68745763,16.4705882 5.42372881,16.4705882 C5.00949153,16.4733333 1.3559322,16.6112745 1.3559322,20.5882353 C1.3559322,24.7710784 10.0162712,33.627451 19.6610169,33.627451 C29.3057627,33.627451 37.9661017,24.7710784 37.9661017,20.5882353 C37.9661017,16.6112745 34.3125424,16.4733333 33.8962712,16.4705882 C33.6338983,16.4692157 33.3945763,16.3148039 33.2840678,16.0746078 C31.08,11.2947059 27.940339,6.17647059 26.779661,6.17647059 L12.5423729,6.17647059 Z M19.6610169,35 C15.1315254,35 10.1749153,33.1010784 6.06101695,29.7898039 C2.37898305,26.8257843 0,23.2139216 0,20.5882353 C0,16.5652941 3.04474576,15.2840196 4.98508475,15.1172549 C6.32474576,12.2582353 10.0583051,4.80392157 12.5423729,4.80392157 L26.779661,4.80392157 C29.2637288,4.80392157 32.9972881,12.2582353 34.3369492,15.1172549 C36.2772881,15.2840196 39.3220339,16.5652941 39.3220339,20.5882353 C39.3220339,23.2139216 36.9430508,26.8257843 33.2610169,29.7898039 C29.1471186,33.1010784 24.1905085,35 19.6610169,35 L19.6610169,35 Z" id="Fill-1450" fill="#334F55"></path>
                                <g id="Group-1454" transform="translate(5.423729, 11.666667)">
                                    <g id="Fill-1452-Clipped">
                                        <mask id="mask-8" fill="white">
                                            <use xlink:href="#path-7"></use>
                                        </mask>
                                        <g id="path-81"></g>
                                        <polygon id="Fill-1452" fill="#F1854C" mask="url(#mask-8)" points="-3.38983051 -3.43137255 31.8644068 -3.43137255 31.8644068 10.9803922 -3.38983051 10.9803922"></polygon>
                                    </g>
                                </g>
                                <path d="M19.6610169,17.1568627 C20.9423729,17.1568627 22.1952542,17.5192157 23.4061017,17.869902 C24.580339,18.2089216 25.6881356,18.5294118 26.779661,18.5294118 C28.3627119,18.5294118 31.480678,16.6188235 33.0291525,15.5592157 L31.4454237,12.3529412 L7.87661017,12.3529412 L6.29288136,15.5592157 C7.8420339,16.6188235 10.9613559,18.5294118 12.5423729,18.5294118 C13.6338983,18.5294118 14.7416949,18.2089216 15.9159322,17.869902 C17.1267797,17.5192157 18.379661,17.1568627 19.6610169,17.1568627 M26.779661,19.9019608 C25.4983051,19.9019608 24.2454237,19.5396078 23.0345763,19.1889216 C21.860339,18.849902 20.7525424,18.5294118 19.6610169,18.5294118 C18.5694915,18.5294118 17.4616949,18.849902 16.2874576,19.1889216 C15.0766102,19.5396078 13.8237288,19.9019608 12.5423729,19.9019608 C10.0250847,19.9019608 5.53355932,16.7073529 5.02983051,16.3429412 C4.75864407,16.1466667 4.66847458,15.7795098 4.81694915,15.477549 L6.85084746,11.359902 C6.96610169,11.1272549 7.20067797,10.9803922 7.45762712,10.9803922 L31.8644068,10.9803922 C32.1213559,10.9803922 32.3559322,11.1272549 32.4711864,11.359902 L34.5050847,15.477549 C34.6535593,15.7795098 34.5633898,16.1466667 34.2922034,16.3429412 C33.7884746,16.7073529 29.2969492,19.9019608 26.779661,19.9019608" id="Fill-1455" fill="#334F55"></path>
                                <g id="Group-1459" transform="translate(23.050847, 13.725490)">
                                    <g id="Fill-1457-Clipped">
                                        <mask id="mask-10" fill="white">
                                            <use xlink:href="#path-9"></use>
                                        </mask>
                                        <g id="path-83"></g>
                                        <polygon id="Fill-1457" fill="#EBE8D2" mask="url(#mask-10)" points="-2.89355932 -3.43137255 9.75864407 -3.43137255 9.75864407 6.8627451 -2.89355932 6.8627451"></polygon>
                                    </g>
                                </g>
                                <path d="M24.3670508,15.4411765 C24.8775593,16.0842157 25.6565424,16.4705882 26.483661,16.4705882 C27.3107797,16.4705882 28.0897627,16.0842157 28.6002712,15.4411765 C28.0897627,14.7981373 27.3107797,14.4117647 26.483661,14.4117647 C25.6565424,14.4117647 24.8775593,14.7981373 24.3670508,15.4411765 M26.483661,17.8431373 C25.0355254,17.8431373 23.6856949,17.0546078 22.9609492,15.7843137 C22.8389153,15.5722549 22.8389153,15.310098 22.9609492,15.0980392 C23.6856949,13.8277451 25.0355254,13.0392157 26.483661,13.0392157 C27.9317966,13.0392157 29.2816271,13.8277451 30.0063729,15.0980392 C30.1284068,15.310098 30.1284068,15.5722549 30.0063729,15.7843137 C29.2816271,17.0546078 27.9317966,17.8431373 26.483661,17.8431373" id="Fill-1460" fill="#334F55"></path>
                                <g id="Group-1464" transform="translate(9.491525, 13.725490)">
                                    <g id="Fill-1462-Clipped">
                                        <mask id="mask-12" fill="white">
                                            <use xlink:href="#path-11"></use>
                                        </mask>
                                        <g id="path-85"></g>
                                        <polygon id="Fill-1462" fill="#EBE8D2" mask="url(#mask-12)" points="-2.89355932 -3.43137255 9.75864407 -3.43137255 9.75864407 6.8627451 -2.89355932 6.8627451"></polygon>
                                    </g>
                                </g>
                                <g id="Group-1469" transform="translate(8.135593, 13.039216)" fill="#334F55">
                                    <path d="M2.67213559,2.40196078 C3.18264407,3.045 3.96162712,3.43137255 4.78874576,3.43137255 C5.61586441,3.43137255 6.39484746,3.045 6.90535593,2.40196078 C6.39484746,1.75892157 5.61586441,1.37254902 4.78874576,1.37254902 C3.96162712,1.37254902 3.18264407,1.75892157 2.67213559,2.40196078 M4.78874576,4.80392157 C3.34061017,4.80392157 1.99077966,4.01539216 1.2660339,2.74509804 C1.144,2.53303922 1.144,2.27088235 1.2660339,2.05882353 C1.99077966,0.788529412 3.34061017,0 4.78874576,0 C6.23688136,0 7.58671186,0.788529412 8.31145763,2.05882353 C8.43349153,2.27088235 8.43349153,2.53303922 8.31145763,2.74509804 C7.58671186,4.01539216 6.23688136,4.80392157 4.78874576,4.80392157" id="Fill-1465"></path>
                                    <path d="M19.043322,14.1785686 C17.9985763,14.1785686 16.8114576,14.0742549 15.5524746,13.964451 C14.2107797,13.847098 12.8229831,13.7256275 11.5253559,13.7256275 C10.2277288,13.7256275 8.8399322,13.847098 7.49891525,13.964451 C4.49484746,14.2272941 1.89891525,14.454451 0.677220339,13.3200392 C0.227728814,12.9027843 -6.779661e-05,12.3462157 -6.779661e-05,11.6668039 L-6.779661e-05,10.9805294 L1.35586441,10.9805294 L1.35586441,11.6668039 C1.35586441,12.039451 1.48332203,12.2055294 1.59450847,12.3084706 C2.37552542,13.0352353 4.9219661,12.8128824 7.38162712,12.5967059 C8.75179661,12.4772941 10.1694237,12.3530784 11.5253559,12.3530784 C12.8812881,12.3530784 14.2989153,12.4772941 15.6690847,12.5967059 C18.1301017,12.8121961 20.6745085,13.0352353 21.4568814,12.3084706 C21.5680678,12.2055294 21.6948475,12.039451 21.6948475,11.6668039 L21.6948475,10.9805294 L23.0507797,10.9805294 L23.0507797,11.6668039 C23.0507797,12.3462157 22.8229831,12.9027843 22.3734915,13.3200392 C21.663661,13.9788627 20.4907797,14.1785686 19.043322,14.1785686" id="Fill-1467"></path>
                                </g>
                                <g id="Group-1472" transform="translate(29.152542, 0.686275)">
                                    <g id="Fill-1470-Clipped">
                                        <mask id="mask-14" fill="white">
                                            <use xlink:href="#path-13"></use>
                                        </mask>
                                        <g id="path-87"></g>
                                        <polygon id="Fill-1470" fill="#F1854C" mask="url(#mask-14)" points="-3.1220339 -3.43137255 11.1152542 -3.43137255 11.1152542 13.0392157 -3.1220339 13.0392157"></polygon>
                                    </g>
                                </g>
                                <path d="M31.1149153,10.9803922 C30.9542373,10.9803922 30.7922034,10.9227451 30.6627119,10.8053922 C30.3840678,10.5528431 30.360339,10.1191176 30.6098305,9.83637255 L35.9216949,3.82666667 L33.6457627,1.75343137 L30.0010169,7.90245098 C29.8084746,8.22705882 29.3928814,8.3327451 29.0708475,8.13715686 C28.7501695,7.9422549 28.6457627,7.52088235 28.8389831,7.19558824 L32.9067797,0.332843137 C33.0105085,0.157156863 33.1874576,0.037745098 33.3874576,0.00754901961 C33.5894915,-0.0233333333 33.7915254,0.0391176471 33.9413559,0.176372549 L37.3311864,3.26460784 C37.6091525,3.51715686 37.6315254,3.95019608 37.3827119,4.2322549 L31.62,10.7518627 C31.4864407,10.9035294 31.300678,10.9803922 31.1149153,10.9803922" id="Fill-1473" fill="#334F55"></path>
                            </g>
                        </g>
                    </g>
                </g>
            </g>
            <g id="Group" transform="translate(31.000000, 41.000000)">
                <use id="Rectangle-5" stroke="#D3D3D3" mask="url(#mask-16)" stroke-width="2" fill="#FFFFFF" xlink:href="#path-15"></use>
                <rect id="Rectangle-2" fill="#C7C7C7" x="54" y="22" width="71" height="4.37202613" rx="2.18601307"></rect>
                <rect id="Rectangle-2" fill="#C7C7C7" x="54" y="30" width="53.5" height="4.37202613" rx="2.18601307"></rect>
                <g id="Popeye" transform="translate(10.000000, 6.000000)">
                    <g id="colored">
                        <g>
                            <g id="Page-1">
                                <g id="Group-989" transform="translate(0.000000, 19.337979)" fill="#334F55">
                                    <path d="M29.5306071,8.0867561 C29.2683214,8.0867561 29.0221071,7.92496167 28.9269643,7.66389895 C28.8048214,7.32935192 28.9758214,6.95870732 29.3094643,6.83687805 C29.92725,6.60933449 30.3418929,5.97118118 30.3418929,5.24729617 C30.3418929,4.32487456 29.6668929,3.57456098 28.8376071,3.57456098 C28.3728214,3.57456098 27.9408214,3.80855052 27.6528214,4.21787108 C27.44775,4.50858537 27.04725,4.57755749 26.7573214,4.37257491 C26.46675,4.16694774 26.3979643,3.76471777 26.6023929,3.47400348 C27.1269643,2.72949129 27.9626786,2.28536237 28.8376071,2.28536237 C30.3759643,2.28536237 31.6276071,3.61388153 31.6276071,5.24729617 C31.6276071,6.5094216 30.8735357,7.63424739 29.75175,8.04679094 C29.6784643,8.07386411 29.6038929,8.0867561 29.5306071,8.0867561" id="Fill-985"></path>
                                    <path d="M1.82404286,6.02390941 L1.28918571,5.66615679 C0.481757143,5.12662718 0.000257142857,4.22418815 0.000257142857,3.2521324 C0.000257142857,1.65223693 1.29754286,0.35143554 2.89311429,0.35143554 C3.74297143,0.35143554 4.54654286,0.724013937 5.09747143,1.37441463 L5.51404286,1.8655993 L4.53432857,2.7003554 L4.1184,2.20917073 C3.81175714,1.84755052 3.36497143,1.64063415 2.89311429,1.64063415 C2.00661429,1.64063415 1.28597143,2.36322997 1.28597143,3.2521324 C1.28597143,3.79230662 1.5534,4.29380488 2.00211429,4.59354355 L2.53697143,4.95129617 L1.82404286,6.02390941 Z" id="Fill-987"></path>
                                </g>
                                <g id="Group-992" transform="translate(1.285714, 7.090592)">
                                    <g id="Fill-990-Clipped">
                                        <mask id="mask-18" fill="white">
                                            <use xlink:href="#path-17"></use>
                                        </mask>
                                        <g id="path-65"></g>
                                        <polygon id="Fill-990" fill="#EBE8D2" mask="url(#mask-18)" points="-3.21428571 -2.90069686 32.1428571 -2.90069686 32.1428571 31.2920732 -3.21428571 31.2920732"></polygon>
                                    </g>
                                </g>
                                <g id="Group-1001" transform="translate(0.642857, 6.445993)" fill="#334F55">
                                    <path d="M22.3392857,29.3582108 C20.1728571,29.3582108 18.1324286,28.6349704 16.6506429,27.3573746 C14.8242857,28.6510854 12.5151429,29.3582108 10.0851429,29.3582108 C4.52442857,29.3582108 0,25.6259808 0,21.0383676 C0,18.584378 1.28442857,16.2921829 3.53507143,14.7084024 L4.97571429,4.18531882 C5.02328571,3.8320784 5.34792857,3.58584146 5.70021429,3.63418641 C6.05185714,3.68253136 6.29742857,4.00805401 6.24921429,4.36064983 L4.76935714,15.1680017 C4.74428571,15.3517125 4.64142857,15.5160854 4.4865,15.6185767 C2.4525,16.9632108 1.28571429,18.9382631 1.28571429,21.0383676 C1.28571429,24.9149878 5.23285714,28.0690122 10.0851429,28.0690122 C12.4270714,28.0690122 14.6327143,27.3393258 16.2951429,26.0146742 C16.5522857,25.8103362 16.9206429,25.831608 17.1514286,26.064953 C18.4133571,27.3386812 20.304,28.0690122 22.3392857,28.0690122 C25.9727143,28.0690122 28.9285714,25.7310505 28.9285714,22.8567822 C28.9285714,21.2020958 27.9636429,19.6808415 26.2806429,18.6823571 C26.109,18.5805105 25.9945714,18.4045348 25.9701429,18.2059983 L25.7342143,16.2754233 C25.7271429,16.2464164 25.7213571,16.2167648 25.7181429,16.1864686 C25.7168571,16.1742213 25.6975714,15.9982456 25.6635,15.6959286 L25.533,14.5246916 C25.245,11.9482282 24.696,7.0634547 24.4330714,4.91307143 C24.4182857,4.79253136 24.4382143,4.67585889 24.4838571,4.572723 L24.1103571,1.03451742 C24.0730714,0.680632404 24.3295714,0.363489547 24.6825,0.325458188 C25.0347857,0.294517422 25.3517143,0.545266551 25.3896429,0.899151568 L26.8097143,14.371277 C26.8643571,14.8585941 26.9093571,15.264047 26.9415,15.5534721 L27.2089286,17.7425314 C29.097,18.9698484 30.2142857,20.8604582 30.2142857,22.8567822 C30.2142857,26.441399 26.6817857,29.3582108 22.3392857,29.3582108" id="Fill-993"></path>
                                    <path d="M17.6785714,23.8501742 C15.0197143,23.8501742 12.8571429,21.6817422 12.8571429,19.0156794 C12.8571429,18.6598606 13.1451429,18.3710801 13.5,18.3710801 C13.8548571,18.3710801 14.1428571,18.6598606 14.1428571,19.0156794 C14.1428571,20.9707491 15.7287857,22.5609756 17.6785714,22.5609756 C19.6283571,22.5609756 21.2142857,20.9707491 21.2142857,19.0156794 C21.2142857,17.0606098 19.6283571,15.4703833 17.6785714,15.4703833 C17.3237143,15.4703833 17.0357143,15.1816028 17.0357143,14.825784 C17.0357143,14.4699652 17.3237143,14.1811847 17.6785714,14.1811847 C20.3374286,14.1811847 22.5,16.3496167 22.5,19.0156794 C22.5,21.6817422 20.3374286,23.8501742 17.6785714,23.8501742" id="Fill-995"></path>
                                    <path d="M14.1435,15.4703833 C14.0914286,15.4703833 14.0393571,15.4645819 13.9866429,15.4510453 L11.4152143,14.806446 C11.0712857,14.7200697 10.8617143,14.3700523 10.9478571,14.024547 C11.0346429,13.6796864 11.3837143,13.4701916 11.7276429,13.5559233 L14.2990714,14.2005226 C14.643,14.286899 14.8525714,14.6369164 14.7664286,14.9824216 C14.6931429,15.2750697 14.4315,15.4703833 14.1435,15.4703833" id="Fill-997"></path>
                                    <path d="M5.78667857,22.5609756 C5.76096429,22.5609756 5.73460714,22.5596864 5.70889286,22.5564634 C5.35660714,22.5139199 5.10460714,22.1929094 5.14767857,21.8390244 C5.15796429,21.7532927 5.42153571,19.7157143 7.19582143,18.9595993 C8.94053571,18.2170209 11.4078214,19.0375958 14.5301786,21.4019861 C14.8136786,21.6166376 14.8696071,22.0208014 14.6555357,22.3050697 C14.4421071,22.5880488 14.0383929,22.6454181 13.7555357,22.4307666 C10.3573929,19.8575261 8.58696429,19.7685714 7.69917857,20.145662 C6.61917857,20.6065505 6.42567857,21.979547 6.42375,21.9937282 C6.38453571,22.3205401 6.10746429,22.5609756 5.78667857,22.5609756" id="Fill-999"></path>
                                </g>
                                <g id="Group-1004" transform="translate(19.285714, 19.337979)">
                                    <g id="Fill-1002-Clipped">
                                        <mask id="mask-20" fill="white">
                                            <use xlink:href="#path-19"></use>
                                        </mask>
                                        <g id="path-67"></g>
                                        <path d="M1.92857143,3.86759582 C1.79228571,3.86759582 1.65471429,3.84567944 1.52228571,3.80120209 L-0.406285714,3.15660279 C-0.9315,2.98127178 -1.28571429,2.48879791 -1.28571429,1.93379791 L-1.28571429,0.966898955 C-1.28571429,-0.2771777 -0.276428571,-1.28919861 0.964285714,-1.28919861 C2.205,-1.28919861 3.21428571,-0.2771777 3.21428571,0.967543554 L3.21428571,2.57839721 C3.21428571,2.99287456 3.01564286,3.38221254 2.68007143,3.62458188 C2.45892857,3.78444251 2.19535714,3.86759582 1.92857143,3.86759582" id="Fill-1002" fill="#334F55" mask="url(#mask-20)"></path>
                                    </g>
                                </g>
                                <g id="Group-1009" transform="translate(10.928571, 14.181185)" fill="#334F55">
                                    <path d="M10.9285714,5.80139373 C10.5737143,5.80139373 10.2857143,5.51261324 10.2857143,5.15679443 C10.2857143,4.45804878 9.84407143,3.86759582 9.32142857,3.86759582 C8.79878571,3.86759582 8.35714286,4.45804878 8.35714286,5.15679443 C8.35714286,5.51261324 8.06914286,5.80139373 7.71428571,5.80139373 C7.35942857,5.80139373 7.07142857,5.51261324 7.07142857,5.15679443 C7.07142857,3.73480836 8.08071429,2.57839721 9.32142857,2.57839721 C10.5621429,2.57839721 11.5714286,3.73480836 11.5714286,5.15679443 C11.5714286,5.51261324 11.2834286,5.80139373 10.9285714,5.80139373" id="Fill-1005"></path>
                                    <path d="M3.85714286,7.09059233 C3.50228571,7.09059233 3.21428571,6.80181185 3.21428571,6.44599303 L3.21428571,2.19163763 C3.21428571,1.69400697 2.78164286,1.28919861 2.25,1.28919861 C1.71835714,1.28919861 1.28571429,1.69400697 1.28571429,2.19163763 C1.28571429,2.54745645 0.997714286,2.83623693 0.642857143,2.83623693 C0.288,2.83623693 0,2.54745645 0,2.19163763 C0,0.983013937 1.00928571,0 2.25,0 C3.49071429,0 4.5,0.983013937 4.5,2.19163763 L4.5,6.44599303 C4.5,6.80181185 4.212,7.09059233 3.85714286,7.09059233" id="Fill-1007"></path>
                                </g>
                                <g id="Group-1012" transform="translate(28.285714, 14.825784)">
                                    <g id="Fill-1010-Clipped">
                                        <mask id="mask-22" fill="white">
                                            <use xlink:href="#path-21"></use>
                                        </mask>
                                        <g id="path-69"></g>
                                        <polygon id="Fill-1010" fill="#C59A83" mask="url(#mask-22)" points="11.2843286 8.80006969 -0.627814286 11.5570209 -3.51938571 -1.00235192 8.39275714 -3.75994774"></polygon>
                                    </g>
                                </g>
                                <g id="Group-1017" transform="translate(27.642857, 12.247387)" fill="#334F55">
                                    <path d="M4.61706429,10.3699268 C4.09635,10.3699268 3.56085,10.1817038 3.23749286,9.85682578 L2.32977857,8.94600697 C1.54870714,8.16217422 0.844135714,6.71440418 0.72585,5.65017073 L0.472564286,3.37473519 L1.75056429,3.23163415 L2.00320714,5.50706969 C2.08935,6.27929965 2.66663571,7.46020557 3.23877857,8.03454355 L4.14713571,8.94600697 C4.23777857,9.03689547 4.56306429,9.12391638 4.79192143,9.05945645 L5.92592143,8.74102439 C6.15606429,8.67656446 6.36242143,8.43741812 6.38235,8.33750523 L6.56235,7.4363554 C6.72756429,6.61191289 6.63563571,5.26663415 6.36177857,4.49827178 L5.59485,2.34144251 L6.80599286,1.90891638 L7.57292143,4.06510105 C7.92327857,5.04875958 8.03256429,6.64091986 7.82299286,7.68968293 L7.64299286,8.59083275 C7.52149286,9.1986899 6.93263571,9.79687805 6.27306429,9.98252265 L5.13906429,10.3009547 C4.97320714,10.3480105 4.79577857,10.3699268 4.61706429,10.3699268" id="Fill-1013"></path>
                                    <path d="M1.59679286,2.85505923 C1.73050714,2.87955401 1.91372143,2.89824739 2.15543571,2.89824739 C2.60479286,2.89824739 3.12229286,2.83314286 3.65200714,2.71066899 C4.59186429,2.49343902 5.24307857,2.16985017 5.56322143,1.93843902 C5.42950714,1.91458885 5.24629286,1.89525087 5.00457857,1.89525087 C4.55522143,1.89525087 4.03772143,1.9603554 3.50800714,2.08282927 C2.56815,2.30005923 1.91757857,2.62364808 1.59679286,2.85505923 M2.15543571,4.18744599 L2.15543571,4.18744599 C0.674292857,4.18744599 0.239078571,3.64727178 0.134935714,3.19411847 C-0.131207143,2.03577352 1.62957857,1.19457143 3.21807857,0.827149826 C3.84165,0.682114983 4.45943571,0.606052265 5.00457857,0.606052265 C6.48507857,0.606052265 6.92093571,1.14622648 7.02507857,1.59937979 C7.29122143,2.75836934 5.53043571,3.59892683 3.94129286,3.96699303 C3.31836429,4.11138328 2.70057857,4.18744599 2.15543571,4.18744599" id="Fill-1015"></path>
                                </g>
                                <g id="Group-1020" transform="translate(3.857143, 0.644599)">
                                    <g id="Fill-1018-Clipped">
                                        <mask id="mask-24" fill="white">
                                            <use xlink:href="#path-23"></use>
                                        </mask>
                                        <g id="path-71"></g>
                                        <polygon id="Fill-1018" fill="#F1854C" mask="url(#mask-24)" points="-2.57657143 -3.22299652 30.2142857 -3.22299652 30.2142857 13.5365854 -2.57657143 13.5365854"></polygon>
                                    </g>
                                </g>
                                <g id="Group-1027" transform="translate(3.214286, 0.000000)" fill="#334F55">
                                    <path d="M3.44121429,10.3135889 L25.5612857,10.3135889 L23.4790714,8.88837979 C23.2945714,8.76203833 23.1891429,8.54932056 23.1994286,8.3262892 L23.337,5.35597561 C23.3845714,4.32526132 23.0290714,3.34095819 22.3367143,2.58355401 C21.6462857,1.82937282 20.7045,1.3916899 19.683,1.35043554 C19.6335,1.34850174 19.5846429,1.34141115 19.5377143,1.32787456 C19.5345,1.32787456 18.9122143,1.14094077 17.2099286,1.51545296 C15.7731429,1.83195122 10.9144286,4.1647561 9.16392857,5.03689895 C8.57378571,5.32245645 8.04085714,5.94642857 7.76571429,6.66709059 C7.66092857,6.9397561 7.38385714,7.10541812 7.09714286,7.07770035 L2.80478571,6.62325784 C2.39657143,6.57878049 2.07707143,6.6580662 1.97485714,6.82501742 C1.87392857,6.99003484 1.91957143,7.29879791 2.09764286,7.65074913 L3.44121429,10.3135889 Z M27.6557143,11.6027875 C27.6512143,11.6027875 27.6467143,11.6021429 27.6428571,11.6027875 L3.04585714,11.6027875 C2.8035,11.6027875 2.58171429,11.4661324 2.47242857,11.249547 L0.950142857,8.2328223 C0.558,7.45543554 0.532928571,6.71543554 0.880071429,6.15012195 C1.25485714,5.53839721 1.9755,5.24059233 2.93978571,5.34114983 L6.76928571,5.74660279 C7.19292857,4.92022648 7.8525,4.24081882 8.59821429,3.87919861 C8.85471429,3.75156794 15.0492857,0.671672474 16.9347857,0.255905923 C17.7062143,0.0863763066 18.4030714,0 19.0067143,0 C19.4065714,0 19.6656429,0.0393205575 19.7935714,0.0651045296 C21.1365,0.134076655 22.3746429,0.717439024 23.2842857,1.71205575 C24.21,2.72407666 24.6850714,4.03970383 24.6214286,5.41527875 L24.5005714,8.02655052 L27.9340714,10.3767596 C28.1494286,10.4805401 28.2985714,10.7022822 28.2985714,10.9581882 C28.2985714,11.314007 28.0105714,11.6027875 27.6557143,11.6027875 L27.6557143,11.6027875 Z" id="Fill-1021"></path>
                                    <path d="M7.07142857,8.37979094 C6.71657143,8.37979094 6.42857143,8.09101045 6.42857143,7.73519164 L6.42857143,6.44599303 C6.42857143,6.09017422 6.71657143,5.80139373 7.07142857,5.80139373 C7.42628571,5.80139373 7.71428571,6.09017422 7.71428571,6.44599303 L7.71428571,7.73519164 C7.71428571,8.09101045 7.42628571,8.37979094 7.07142857,8.37979094" id="Fill-1023"></path>
                                    <polygon id="Fill-1025" points="18.3864214 24.0802317 17.7705643 22.9483153 25.97085 18.4631934 26.5867071 19.5951098"></polygon>
                                </g>
                            </g>
                        </g>
                    </g>
                </g>
            </g>
            <g id="Group" transform="translate(51.000000, 71.000000)">
                <use id="Rectangle-5" stroke="#D3D3D3" mask="url(#mask-26)" stroke-width="2" fill="#FFFFFF" xlink:href="#path-25"></use>
                <rect id="Rectangle-2" fill="#C7C7C7" x="54" y="22" width="71" height="4.37202613" rx="2.18601307"></rect>
                <rect id="Rectangle-2" fill="#C7C7C7" x="54" y="30" width="53.5" height="4.37202613" rx="2.18601307"></rect>
            </g>
            <g id="Trooper" transform="translate(62.000000, 77.000000)" stroke="#334F55" stroke-width="2" stroke-linejoin="round">
                <path d="M8.75,36.1111111 L3.64583333,36.1111111 C3.64583333,36.1111111 0,27.2037743 0,24.1944444 L0,24.1944444 C0,21.1852558 3.64583333,21.0648501 3.64583333,18.0555556 L3.64583333,11.556749 C3.64583333,5.17413275 8.8738375,0 15.3163544,0 L19.6836456,0 C26.1290964,0 31.3541667,5.16945771 31.3541667,11.5618163 L31.3541667,18.0555556 C31.3541667,21.0648148 35,20.462963 35,23.4722222 C35,26.4814815 31.3541667,36.1111111 31.3541667,36.1111111 L26.25,36.1111111" id="Rectangle-63" stroke-linecap="square" fill="#D8D8D8"></path>
                <path d="M3.64583333,14.4444444 L5.66360475,18.4415535 C6.16005089,19.4249897 7.30852008,19.7296121 8.22890384,19.1218667 L15.3125,14.4444444 L14.21875,13 L3.64583333,12.2777778 L3.64583333,16.9722222" id="Path-198" stroke-linecap="round" fill="#E6D764"></path>
                <path d="M19.6875,14.4444444 L21.7052714,18.4415535 C22.2017176,19.4249897 23.3501867,19.7296121 24.2705705,19.1218667 L31.3541667,14.4444444 L30.2604167,13 L19.6875,12.2777778 L19.6875,16.9722222" id="Path-198-Copy" stroke-linecap="round" fill="#E6D764" transform="translate(25.520833, 15.856250) scale(-1, 1) translate(-25.520833, -15.856250) "></path>
                <path d="M8.75,33.2222222 L13.125,33.2222222 C14.5833333,33.2222222 16.0416667,29.6111111 17.5,29.6111111 C18.9583333,29.6111111 20.4166667,33.2222222 21.875,33.2222222 L26.25,33.2222222 L26.25,37.5555556 C26.25,37.5555556 20.4166667,39 17.5,39 C14.5833333,39 8.75,37.5555556 8.75,37.5555556 L8.75,33.2222222 Z" id="Rectangle-62" stroke-linecap="square" fill="#EAEAEA"></path>
                <path d="M3.7903518,11.6870378 C7.48196466,13.4065425 12.2691814,14.4444444 17.5,14.4444444 C22.8074017,14.4444444 27.6581171,13.3759287 31.3710855,11.6110761" id="Oval-45" stroke-linecap="round" fill="#D8D8D8"></path>
                <polyline id="Rectangle-63" stroke-linecap="round" fill="#C59A83" transform="translate(17.136465, 27.368382) rotate(-315.000000) translate(-17.136465, -27.368382) " points="12.7721975 31.6910855 14.3189935 24.5777438 14.3189935 24.5777438 21.5007328 23.0456791"></polyline>
                <path d="M32.0833333,20.2222222 L28.4375,28.8888889 C28.4375,28.8888889 22.3611111,26.7222222 17.5,26.7222222 C12.6388889,26.7222222 6.5625,28.8888889 6.5625,28.8888889 L2.91666667,20.2222222 L2.91666667,20.2222222" id="Rectangle-63" stroke-linecap="round"></path>
            </g>
        </g>
    </g>
</svg>