<svg xmlns="http://www.w3.org/2000/svg" width="206" height="172" fill="none" viewBox="0 0 206 172"><path fill="#4285F4" d="M205.613 56.5872H186.606V79.733H204.224C204.27 79.9718 204.313 80.2106 204.365 80.4474H186.606V99.1094L186.695 99.0803C187.197 98.9031 187.695 98.7148 188.19 98.5154L188.508 98.3846C189.016 98.1755 189.514 97.9519 190.003 97.7138C190.179 97.6328 190.352 97.5477 190.524 97.4604C193.257 96.1086 195.777 94.3591 198.002 92.2685C198.066 92.2124 198.126 92.1542 198.183 92.0982C198.487 91.8033 198.785 91.5063 199.074 91.201L199.393 90.8604C199.734 90.4887 200.063 90.1045 200.383 89.7161L200.524 89.5458C201.812 87.9591 202.894 86.2145 203.745 84.3538C203.771 84.2977 203.794 84.2396 203.819 84.1835C204.077 83.5979 204.311 83.0039 204.514 82.3996C204.6 82.1441 204.683 81.8887 204.756 81.6332C204.78 81.5564 204.803 81.4816 204.824 81.4069C205.878 77.6998 206 73.8473 206 70.0157C206 69.5692 206 69.1206 206 68.6761C206 67.1289 205.977 65.561 205.948 64.0138C205.948 63.6109 205.93 63.21 205.919 62.8051C205.895 61.7764 205.857 60.749 205.808 59.7231C205.795 59.4365 205.783 59.152 205.764 58.8696C205.764 58.7055 205.748 58.5414 205.737 58.3774C205.696 57.7689 205.659 57.179 205.613 56.5872Z" opacity=".1"/><path fill="#4285F4" d="M186.607 30.8205H197.032C195.323 28.4348 193.469 26.1571 191.481 24.0003C189.931 22.3015 188.304 20.6442 186.6 19.0492L186.607 30.8205Z" opacity=".1"/><path fill="#4285F4" d="M186.606 31.5349V55.8727H205.553C205.553 55.8021 205.541 55.7294 205.535 55.6651C205.518 55.474 205.502 55.2829 205.483 55.0898C205.465 54.8966 205.44 54.6412 205.415 54.4148C205.39 54.1885 205.365 53.9268 205.336 53.6859C205.307 53.445 205.283 53.1978 205.252 52.9549C205.221 52.7119 205.192 52.4689 205.159 52.228C205.126 51.9871 205.095 51.742 205.057 51.5011C205.028 51.2934 205.002 51.1024 204.971 50.9009C204.927 50.6185 204.882 50.3339 204.834 50.0536C204.829 50.0117 204.821 49.9701 204.811 49.929C204.469 47.8654 204.004 45.8244 203.418 43.817C202.798 41.6902 202.012 39.616 201.067 37.6136C200.048 35.4956 198.866 33.461 197.53 31.5286L186.606 31.5349Z" opacity=".1"/><path fill="#4285F4" d="M141.468 56.5872V79.733H182.067V56.5872H141.468ZM141.468 80.4474V96.1209C146.194 94.6028 151.598 95.2154 156.498 96.4615C160.291 97.4293 163.988 98.746 167.775 99.693C169.467 100.127 171.184 100.453 172.917 100.669L173.342 100.715C173.549 100.736 173.756 100.756 173.963 100.773L174.583 100.817H174.647H174.924C174.956 100.819 174.987 100.819 175.019 100.817L175.354 100.829H175.364C175.523 100.829 175.685 100.829 175.846 100.841H176.053C176.212 100.841 176.373 100.841 176.534 100.841H176.888H177.173C177.295 100.841 177.415 100.841 177.535 100.829C177.729 100.829 177.924 100.812 178.12 100.798L178.482 100.775L178.928 100.74C179.245 100.715 179.549 100.682 179.869 100.644C179.993 100.63 180.119 100.615 180.243 100.596L180.427 100.574C180.739 100.532 181.047 100.482 181.359 100.43C181.589 100.395 181.818 100.351 182.05 100.31V80.4474H141.468ZM171.664 30.8122V31.5266H141.468V55.8728H182.067V31.5349H180.03V30.8205H182.067V15.0909C174.169 8.70059 164.939 3.69553 154.658 1.38406C150.328 0.421254 145.903 -0.0420969 141.468 0.0030008V30.8205L171.664 30.8122ZM78.8408 30.6751L78.9834 30.8122H136.926V0.21691C126.61 1.07878 116.551 4.55947 108.441 10.3267C104.544 13.0951 101.044 16.3764 96.6715 18.501C94.377 19.6447 91.8705 20.2954 89.3118 20.4116L78.8408 30.6751ZM78.4418 18.123V25.0491L84.0401 19.5601C81.9583 18.8374 80.3168 18.3431 78.4335 18.1313L78.4418 18.123ZM78.2557 105.257H78.4418V120.438C80.5546 120.28 82.6591 120.063 84.7554 119.786C94.1292 118.573 103.314 116.182 112.096 112.671V112.671C113.038 112.291 113.974 111.9 114.903 111.495C115.522 111.225 116.137 110.948 116.749 110.665C117.667 110.241 118.578 109.806 119.482 109.358C123.483 107.383 127.343 105.13 131.032 102.617C131.262 102.461 131.493 102.304 131.721 102.144C132.178 101.825 132.633 101.504 133.083 101.18C133.309 101.016 133.534 100.852 133.757 100.686L134.216 100.333C134.679 99.9858 135.14 99.6369 135.607 99.2943C136.04 98.9827 136.476 98.6712 136.918 98.3805V80.437H90.3723C90.4054 80.3311 90.4364 80.2293 90.4715 80.1172C90.4343 80.2252 90.4012 80.3249 90.3702 80.437H78.4335V105.253L78.2557 105.257ZM78.4418 31.5307V55.8728H136.926V31.5349L78.4418 31.5307ZM78.4418 56.583V79.733H136.926V56.5872L78.4418 56.583ZM66.749 18.8353L73.8936 25.8403V18.0918C71.4997 18.2414 69.1181 18.4892 66.749 18.8353ZM16.9987 56.5872V79.733H73.8936V56.5872H16.9987ZM30.7506 113.751C39.3742 117.049 48.3907 119.198 57.57 120.143H57.6093C59.3445 120.327 61.0845 120.47 62.8293 120.571H62.8934C66.5505 120.779 70.2221 120.826 73.8874 120.689V80.4474H16.9987L17.2055 107.097L30.7506 113.751ZM1.2395 79.733H12.461V56.5872H8.0224C7.56139 57.4013 7.11485 58.2195 6.69104 59.0502C6.46364 59.4919 6.24243 59.9384 6.02743 60.3898C3.1063 66.481 1.24984 73.1766 1.2395 79.733ZM1.2395 80.4474C1.33046 85.1492 2.3848 89.7639 4.69814 94.0275C6.62075 97.5684 9.29174 100.673 12.4527 103.373V80.4474H1.2395ZM8.42967 55.8728H12.4527V49.8501C11.0027 51.7801 9.66229 53.7909 8.43793 55.8728H8.42967ZM33.6366 30.8205H72.5519L72.6925 30.6834L72.4858 30.4757L61.5434 19.7533C58.2956 20.4343 55.0883 21.2975 51.9366 22.3389C51.6389 22.4365 51.3412 22.5465 51.0455 22.64C44.96 24.7136 39.1215 27.4571 33.6366 30.8205V30.8205ZM16.9987 44.3964V55.8728H66.8957H66.9061H73.8998V32.1974L73.1019 31.5453H32.4913C26.7978 35.1409 21.5905 39.4604 16.9987 44.3964V44.3964Z" opacity=".1"/><path fill="#4285F4" d="M186.606 43.8108V55.8728H205.553C205.553 55.8022 205.541 55.7295 205.535 55.6651C205.518 55.474 205.502 55.283 205.483 55.0898C205.465 54.8967 205.44 54.6412 205.415 54.4149C205.39 54.1885 205.365 53.9268 205.336 53.6859C205.307 53.445 205.283 53.1979 205.252 52.9549C205.221 52.7119 205.192 52.4689 205.159 52.228C205.126 51.9871 205.095 51.742 205.057 51.5011C205.028 51.2935 205.002 51.1024 204.971 50.9009C204.927 50.6185 204.882 50.334 204.834 50.0536C204.829 50.0117 204.821 49.9701 204.811 49.929C204.469 47.8655 204.004 45.8244 203.418 43.817L186.606 43.8108Z" opacity=".1"/><path fill="#4285F4" d="M205.613 56.5872H186.606V79.733H204.224C204.27 79.9718 204.313 80.2106 204.365 80.4474H186.606V99.1094L186.695 99.0803C187.197 98.9031 187.695 98.7148 188.19 98.5154L188.508 98.3846C189.016 98.1755 189.514 97.9519 190.003 97.7138C190.179 97.6328 190.352 97.5477 190.524 97.4604C193.257 96.1086 195.777 94.3591 198.002 92.2685C198.066 92.2124 198.126 92.1542 198.183 92.0982C198.487 91.8033 198.785 91.5063 199.074 91.201L199.393 90.8604C199.734 90.4887 200.063 90.1045 200.383 89.7161L200.524 89.5458C201.812 87.9591 202.894 86.2145 203.745 84.3538C203.771 84.2977 203.794 84.2396 203.819 84.1835C204.077 83.5979 204.311 83.0039 204.514 82.3996C204.6 82.1441 204.683 81.8887 204.756 81.6332C204.78 81.5564 204.803 81.4816 204.824 81.4069C205.878 77.6998 206 73.8473 206 70.0157C206 69.5692 206 69.1206 206 68.6761C206 67.1289 205.977 65.561 205.948 64.0138C205.948 63.6109 205.93 63.21 205.919 62.8051C205.895 61.7764 205.857 60.749 205.808 59.7231C205.795 59.4365 205.783 59.152 205.764 58.8696C205.764 58.7055 205.748 58.5414 205.737 58.3774C205.696 57.7689 205.659 57.179 205.613 56.5872Z" opacity=".1"/><path fill="#4285F4" d="M167.775 35.0197V55.8728H182.067V35.0197H180.03V27.9586H171.664V35.0197H167.775Z" opacity=".1"/><path fill="#4285F4" d="M182.067 56.5872H167.775V79.7309H182.067V56.5872Z" opacity=".1"/><path fill="#4285F4" d="M182.066 80.4474H167.777V99.693C169.468 100.126 171.185 100.452 172.916 100.669L173.342 100.715C173.549 100.738 173.756 100.756 173.963 100.773L174.583 100.817C174.603 100.817 174.626 100.817 174.647 100.817C174.738 100.817 174.831 100.817 174.924 100.829H175.019C175.131 100.829 175.242 100.829 175.356 100.841C175.515 100.841 175.676 100.841 175.838 100.854H176.044C176.206 100.854 176.365 100.854 176.526 100.854H176.88H177.165L177.529 100.841C177.721 100.841 177.917 100.825 178.112 100.81L178.471 100.787L178.92 100.752C179.234 100.725 179.54 100.694 179.859 100.657L180.233 100.609L180.417 100.586C180.729 100.542 181.037 100.497 181.349 100.443C181.581 100.407 181.808 100.364 182.04 100.322L182.066 80.4474Z" opacity=".1"/><path fill="#4285F4" d="M90.2194 32.5567H78.4336V55.8707H90.2194V32.5567Z" opacity=".1"/><path fill="#4285F4" d="M78.4336 56.5872V79.733H136.927V69.7499H105.77V75.6396H90.2174V56.5872H78.4336Z" opacity=".1"/><path fill="#4285F4" d="M78.2476 105.265H78.4336V120.448C80.5464 120.288 82.651 120.07 84.7472 119.796C94.124 118.578 103.312 116.184 112.096 112.671C114.61 111.657 117.072 110.554 119.482 109.36C123.483 107.384 127.343 105.131 131.033 102.617C131.955 101.989 132.862 101.345 133.755 100.688C134.375 100.229 134.996 99.7615 135.616 99.3067C136.048 98.9952 136.484 98.6837 136.927 98.3909V80.4474H90.3745C90.4076 80.3415 90.4386 80.2397 90.4717 80.1297C90.4365 80.2356 90.4014 80.3373 90.3704 80.4474H78.4336V105.255L78.2476 105.265Z" opacity=".1"/><path fill="#4285F4" d="M47.6985 30.8205H55.3765V28.6835H51.9365V22.3389C51.6388 22.4365 51.3411 22.5465 51.0455 22.64V28.6835H47.6985V30.8205Z" opacity=".1"/><path fill="#4285F4" d="M29.196 55.8728H66.8958H66.8834H66.902H73.8937V32.5567H71.9132V49.794H62.8583V39.5928H55.3767V31.5349H47.6986V39.5928H40.219V49.7919H29.196V55.8728Z" opacity=".1"/><path fill="#4285F4" d="M29.196 56.5872V79.733H73.8937V56.5872H29.196ZM30.7568 113.751C39.3805 117.049 48.397 119.198 57.5763 120.143H57.6156C59.3507 120.327 61.0907 120.47 62.8356 120.571H62.8996C66.5567 120.779 70.2283 120.826 73.8937 120.689V80.4474H29.196V88.6528H16.9988L17.0629 106.972" opacity=".1"/><path fill="#4285F4" d="M11.6733 80.4474H1.2478C1.33877 85.1492 2.39517 89.7639 4.70644 94.0275C6.62906 97.5705 9.30211 100.673 12.461 103.373V88.6528H11.6733V80.4474Z" opacity=".1"/><path fill="#4285F4" d="M1.2395 79.733H11.6733V60.3898H6.02743C3.1063 66.481 1.24984 73.1766 1.2395 79.733Z" opacity=".1"/><path fill="#4285F4" d="M84.7472 39.0383H78.4336V46.3486H84.7472V39.0383Z" opacity=".1"/><path fill="#4285F4" d="M84.7472 54.1906H78.4336V55.8728H84.7472V54.1906Z" opacity=".1"/><path fill="#4285F4" d="M84.7472 56.5872H78.4336V61.4988H84.7472V56.5872Z" opacity=".1"/><path fill="#4285F4" d="M84.7472 69.3408H78.4336V76.6511H84.7472V69.3408Z" opacity=".1"/><path fill="#4285F4" d="M84.7472 84.493H78.4336V91.8033H84.7472V84.493Z" opacity=".1"/><path fill="#4285F4" d="M78.4336 105.255H78.2476H78.4336V106.951H84.7472V99.6411H78.4336V105.255Z" opacity=".1"/><path fill="#4285F4" d="M78.4336 114.793V120.44C80.5464 120.28 82.6509 120.062 84.7472 119.788V114.804L78.4336 114.793Z" opacity=".1"/><path fill="#4285F4" d="M136.927 79.1951H109.869V79.7309H136.927V79.1951Z" opacity=".1"/><path fill="#4285F4" d="M136.927 80.4474H109.869V82.5055H136.927V80.4474Z" opacity=".1"/><path fill="#4285F4" d="M136.927 89.2509H109.869V92.5613H136.927V89.2509Z" opacity=".1"/><path fill="#4285F4" d="M109.869 99.3067V102.617H131.035C131.954 101.99 132.862 101.346 133.757 100.686C134.378 100.229 134.998 99.7615 135.618 99.3088L109.869 99.3067Z" opacity=".1"/><path fill="#4285F4" d="M109.869 109.36V112.671H112.096C114.608 111.66 117.07 110.557 119.48 109.36H109.869Z" opacity=".1"/><path fill="#4285F4" d="M57.5742 63.5901H62.8997V58.8322H57.5742V63.5901Z" opacity=".1"/><path fill="#4285F4" d="M172.902 41.4183H178.228V36.6604H172.902V41.4183Z" opacity=".1"/><path fill="#4285F4" d="M172.902 52.471H178.228V47.7131H172.902V52.471Z" opacity=".1"/><path fill="#4285F4" d="M172.902 63.5216H178.228V58.7637H172.902V63.5216Z" opacity=".1"/><path fill="#4285F4" d="M172.902 74.5742H178.228V69.8163H172.902V74.5742Z" opacity=".1"/><path fill="#4285F4" d="M172.902 85.629H178.228V80.8711H172.902V85.629Z" opacity=".1"/><path fill="#4285F4" d="M172.902 96.6796H178.228V91.9216H172.902V96.6796Z" opacity=".1"/><path fill="#4285F4" d="M37.24 63.5901H42.5654V58.8322H37.24V63.5901Z" opacity=".1"/><path fill="#4285F4" d="M57.5742 75.324H62.8997V70.5661H57.5742V75.324Z" opacity=".1"/><path fill="#4285F4" d="M37.24 75.324H42.5654V70.5661H37.24V75.324Z" opacity=".1"/><path fill="#4285F4" d="M57.5742 87.0599H62.8997V82.302H57.5742V87.0599Z" opacity=".1"/><path fill="#4285F4" d="M37.24 87.0599H42.5654V82.302H37.24V87.0599Z" opacity=".1"/><path fill="#4285F4" d="M57.5742 98.7958H62.8997V94.0379H57.5742V98.7958Z" opacity=".1"/><path fill="#4285F4" d="M37.24 98.7958H42.5654V94.0379H37.24V98.7958Z" opacity=".1"/><path fill="#4285F4" d="M57.5742 110.534H62.8997V105.776H57.5742V110.534Z" opacity=".1"/><path fill="#4285F4" d="M37.24 110.534H42.5654V105.776H37.24V110.534Z" opacity=".1"/><path fill="#4285F4" d="M62.8976 120.579V117.512H57.5742V120.143L62.8976 120.579Z" opacity=".1"/><path fill="#4285F4" d="M186.606 49.9207V52.6434H204.834V49.9207H186.606ZM203.019 50.0931H204.505V52.4731H203.011L203.019 50.0931ZM201.204 50.0931H202.699V52.4731H201.198L201.204 50.0931ZM199.393 50.0931H200.888V52.4731H199.393V50.0931ZM197.578 50.0931H199.072V52.4731H197.578V50.0931ZM195.765 50.0931H197.27V52.4731H195.775L195.765 50.0931ZM193.95 50.0931H195.444V52.4731H193.95V50.0931ZM192.134 50.0931H193.629V52.4731H192.134V50.0931ZM190.321 50.0931H191.816V52.4731H190.321V50.0931ZM188.508 50.0931H190.003V52.4731H188.508V50.0931ZM186.695 50.0931H188.19V52.4731H186.695V50.0931Z" opacity=".1"/><path fill="#4285F4" d="M186.606 57.8457V60.5684H204.834V57.8457H186.606ZM203.019 58.0181H204.505V60.396H203.011L203.019 58.0181ZM201.204 58.0181H202.699V60.396H201.198L201.204 58.0181ZM199.393 58.0181H200.888V60.396H199.393V58.0181ZM197.578 58.0181H199.072V60.396H197.578V58.0181ZM195.765 58.0181H197.27V60.396H195.775L195.765 58.0181ZM193.95 58.0181H195.444V60.396H193.95V58.0181ZM192.134 58.0181H193.629V60.396H192.134V58.0181ZM190.321 58.0181H191.816V60.396H190.321V58.0181ZM188.508 58.0181H190.003V60.396H188.508V58.0181ZM186.695 58.0181H188.19V60.396H186.695V58.0181Z" opacity=".1"/><path fill="#4285F4" d="M186.606 65.7687V68.4893H204.834V65.7687H186.606ZM203.019 65.939H204.505V68.319H203.011L203.019 65.939ZM201.204 65.939H202.699V68.319H201.198L201.204 65.939ZM199.393 65.939H200.888V68.319H199.393V65.939ZM197.578 65.939H199.072V68.319H197.578V65.939ZM195.765 65.939H197.27V68.319H195.775L195.765 65.939ZM193.95 65.939H195.444V68.319H193.95V65.939ZM192.134 65.939H193.629V68.319H192.134V65.939ZM190.321 65.939H191.816V68.319H190.321V65.939ZM188.508 65.939H190.003V68.319H188.508V65.939ZM186.695 65.939H188.19V68.319H186.695V65.939Z" opacity=".1"/><path fill="#4285F4" d="M186.606 73.6916V76.4122H204.834V73.6916H186.606ZM203.019 73.8619H204.505V76.2419H203.011L203.019 73.8619ZM201.204 73.8619H202.699V76.2419H201.198L201.204 73.8619ZM199.393 73.8619H200.888V76.2419H199.393V73.8619ZM197.578 73.8619H199.072V76.2419H197.578V73.8619ZM195.765 73.8619H197.27V76.2419H195.775L195.765 73.8619ZM193.95 73.8619H195.444V76.2419H193.95V73.8619ZM192.134 73.8619H193.629V76.2419H192.134V73.8619ZM190.321 73.8619H191.816V76.2419H190.321V73.8619ZM188.508 73.8619H190.003V76.2419H188.508V73.8619ZM186.695 73.8619H188.19V76.2419H186.695V73.8619Z" opacity=".1"/><path fill="#4285F4" d="M186.606 81.6146V84.3414H203.745C203.769 84.2853 203.794 84.2272 203.817 84.1711H203.019V81.7869H204.505V82.3788C204.592 82.1255 204.675 81.8721 204.747 81.6146H186.606ZM201.204 81.7869H202.699V84.1649H201.198L201.204 81.7869ZM199.393 81.7869H200.888V84.1649H199.393V81.7869ZM197.578 81.7869H199.072V84.1649H197.578V81.7869ZM195.765 81.7869H197.27V84.1649H195.775L195.765 81.7869ZM193.95 81.7869H195.444V84.1649H193.95V81.7869ZM192.134 81.7869H193.629V84.1649H192.134V81.7869ZM190.321 81.7869H191.816V84.1649H190.321V81.7869ZM188.508 81.7869H190.003V84.1649H188.508V81.7869ZM186.695 81.7869H188.19V84.1649H186.695V81.7869Z" opacity=".1"/><path fill="#4285F4" d="M186.606 89.5334V92.2539H197.999C198.066 92.1979 198.124 92.1376 198.183 92.0837H197.578V89.7099H199.072V91.1948L199.393 90.8521V89.7099H200.383C200.431 89.6517 200.476 89.5936 200.524 89.5396L186.606 89.5334ZM195.765 89.7037H197.27V92.0837H195.775L195.765 89.7037ZM193.95 89.7037H195.444V92.0837H193.95V89.7037ZM192.134 89.7037H193.629V92.0837H192.134V89.7037ZM190.321 89.7037H191.816V92.0837H190.321V89.7037ZM188.508 89.7037H190.003V92.0837H188.508V89.7037ZM186.695 89.7037H188.19V92.0837H186.695V89.7037Z" opacity=".1"/><path fill="#4285F4" d="M186.606 97.4625V99.1094C186.637 99.1012 186.667 99.0908 186.695 99.0783V97.6245H188.19V98.5092L188.508 98.3784V97.6328H190.003V97.7159C190.179 97.6349 190.352 97.5498 190.524 97.4646L186.606 97.4625Z" opacity=".1"/><path fill="#4285F4" d="M66.8896 55.8769H66.9H66.8896ZM78.2475 105.265H78.4336H78.2475ZM90.3703 80.4474C90.4034 80.3415 90.4344 80.2397 90.4696 80.1276C90.4344 80.2356 90.4014 80.3415 90.3703 80.4474ZM66.8896 55.8769H66.9H66.8896ZM171.664 30.8205V31.5349H180.03V30.8205H171.664ZM78.2475 105.265H78.4336H78.2475ZM90.3703 80.4474C90.4034 80.3415 90.4344 80.2397 90.4696 80.1276C90.4344 80.2356 90.4014 80.3415 90.3703 80.4474ZM66.8896 55.8769H66.9H66.8896ZM78.2475 105.265H78.4336H78.2475ZM90.3703 80.4474C90.4034 80.3415 90.4344 80.2397 90.4696 80.1276C90.4344 80.2356 90.4014 80.3415 90.3703 80.4474Z" opacity=".1"/><path fill="#4285F4" d="M186.668 171.22C190.617 171.22 193.817 170.864 193.817 170.424C193.817 169.985 190.617 169.629 186.668 169.629C182.72 169.629 179.52 169.985 179.52 170.424C179.52 170.864 182.72 171.22 186.668 171.22Z" opacity=".1"/><path fill="#D48A9B" d="M138.163 111.165L134.59 110.968L134.349 100.661L134.293 98.206L138.061 97.5082L138.086 100.673L138.163 111.165Z"/><path fill="#D48A9B" d="M135.382 109.371L117.024 120.837L116.628 124.326L118.612 124.425V121.933L130.619 115.155L116.131 133.198V135.989H118.513L118.314 132.899L135.085 113.759L137.168 113.958L154.834 134.095L155.231 137.486L157.612 137.586L157.215 134.095L143.224 116.55L152.551 123.03L152.75 125.821L154.635 125.921L154.437 122.531L136.672 108.773L135.382 109.371Z"/><path fill="#4285F4" d="M112.319 89.7597C114.053 87.5928 115.506 85.214 116.644 82.68C117.907 79.8721 119.292 76.6303 119.398 75.6708C119.604 73.8765 124.657 70.2878 130.214 70.0884C133.838 69.9575 139.484 67.1165 142.978 65.1539C146.264 63.2768 149.919 62.1428 153.686 61.8311C157.773 61.5216 161.617 62.3274 159.682 67.0916L133.695 98.7045C133.695 98.7045 111.534 102.628 110.167 96.3203C110.091 96.0023 109.985 95.6922 109.851 95.3941C109.592 94.798 109.524 93.2425 112.319 89.7597Z"/><path fill="#DDA2A6" d="M114.271 90.3869C116.016 88.1965 117.483 85.7967 118.639 83.2428C119.817 80.6177 121.068 77.6749 121.167 76.784C121.357 75.0706 126.199 71.6418 131.516 71.4508C134.983 71.3262 140.385 68.6139 143.726 66.7385C146.873 64.948 150.371 63.868 153.976 63.5735C157.885 63.2786 161.563 64.0491 159.719 68.5993L139.105 98.9205C139.105 98.9205 113.677 102.544 112.332 96.5488C112.252 96.2305 112.146 95.9193 112.015 95.6184C111.78 95.0244 111.746 93.5686 114.271 90.3869Z" opacity=".2"/><path fill="#000" d="M138.086 100.673C136.891 100.673 135.632 100.673 134.349 100.661L134.293 98.206L138.061 97.5103L138.086 100.673Z" opacity=".1"/><g opacity=".1"><path fill="#000" d="M152.551 122.432L143.223 115.952L144.292 117.292L152.551 123.03L152.75 125.821L154.635 125.921L154.6 125.321L152.75 125.223L152.551 122.432Z" opacity=".1"/><path fill="#000" d="M118.612 121.335V121.933L129.74 115.651L130.619 114.557L118.612 121.335Z" opacity=".1"/><path fill="#000" d="M116.131 135.391V135.989H118.513L118.473 135.391H116.131Z" opacity=".1"/><path fill="#000" d="M118.612 123.827L116.694 123.732L116.627 124.326L118.612 124.425V123.827Z" opacity=".1"/><path fill="#000" d="M155.23 136.888L154.834 133.497L137.168 113.36L135.084 113.161L118.314 132.301L118.349 132.859L135.084 113.759L137.168 113.958L154.834 134.095L155.23 137.486L157.612 137.586L157.544 136.984L155.23 136.888Z" opacity=".1"/></g><path fill="#000" d="M135.978 81.031C135.978 81.031 140.625 84.4452 138.591 84.4847C136.556 84.5242 135.978 81.031 135.978 81.031Z" opacity=".1"/><path fill="#4285F4" d="M116.479 99.7096C116.479 99.7096 124.169 99.1115 127.047 93.5291C127.047 93.5291 132.901 81.8638 137.667 80.5678C142.432 79.2719 151.261 76.381 154.933 71.8952C158.604 67.4093 160.145 63.9702 160.145 63.9702C160.145 63.9702 161.091 67.6004 158.108 71.8806C155.125 76.1609 154.04 82.7526 151.956 89.741C149.872 96.7294 149.078 99.5019 145.307 99.9173C142.465 100.218 127.435 100.067 120.249 99.9173C117.899 99.8529 116.479 99.7096 116.479 99.7096Z"/><path fill="#DDA2A6" d="M116.479 99.7096C116.479 99.7096 124.169 99.1115 127.047 93.5291C127.047 93.5291 132.901 81.8638 137.667 80.5678C142.432 79.2719 151.261 76.381 154.933 71.8952C158.604 67.4093 160.145 63.9702 160.145 63.9702C160.145 63.9702 161.091 67.6004 158.108 71.8806C155.125 76.1609 154.04 82.7526 151.956 89.741C149.872 96.7294 149.078 99.5019 145.307 99.9173C142.465 100.218 127.435 100.067 120.249 99.9173C117.899 99.8529 116.479 99.7096 116.479 99.7096Z" opacity=".2"/><path fill="#4285F4" d="M118.414 99.7096C118.414 99.7096 125.765 99.1302 128.515 93.7243C128.515 93.7243 134.113 82.4307 138.665 81.1764C143.217 79.922 151.66 77.1204 155.171 72.7778C158.681 68.4353 160.151 65.1041 160.151 65.1041C160.151 65.1041 161.05 68.6346 158.205 72.7778C155.361 76.921 154.317 83.2988 152.324 90.0567C150.331 96.8146 149.574 99.5165 145.969 99.9028C143.253 100.194 128.887 100.046 122.017 99.9028C119.772 99.8591 118.414 99.7096 118.414 99.7096Z"/><path fill="#000" d="M112.46 96.8021C112.46 96.8021 116.479 98.3472 118.761 97.4999C121.043 96.6526 126.699 94.1604 126.699 94.1604C126.699 94.1604 117.173 94.7669 112.46 96.8021Z" opacity=".1"/><path fill="#E1DEE5" d="M139.331 169.355C139.331 169.355 127.779 168.732 124.963 167.07C122.147 165.409 118.161 165.409 118.141 165.409L72.1427 155.336L53.02 150.767L49.6089 150.317L60.8758 137.366L61.219 137.216L77.8279 130C77.8279 130 85.2703 130.415 86.7401 135.287C86.8407 135.63 86.9099 135.982 86.9469 136.338C87.1011 137.857 86.6821 139.38 85.7726 140.604C85.1855 141.409 84.464 142.554 84.2366 143.561C84.1084 144.13 84.1374 144.655 84.4433 145.056C85.0635 145.675 85.7483 146.224 86.4859 146.695C90.5358 149.395 100.773 153.843 118.658 147.029C118.658 147.029 126.307 139.449 132.095 142.668C137.884 145.887 139.331 169.355 139.331 169.355Z"/><path fill="#000" d="M84.2447 143.561C84.1165 144.13 84.1455 144.655 84.4514 145.056C85.0715 145.675 85.7564 146.224 86.4939 146.695L51.676 149.314L61.2188 137.216L77.8277 130C77.8277 130 85.2701 130.415 86.74 135.287C86.8405 135.63 86.9097 135.982 86.9467 136.338C87.1009 137.857 86.6819 139.38 85.7724 140.604C85.1936 141.409 84.4721 142.554 84.2447 143.561Z" opacity=".1"/><path fill="#A36468" d="M50.229 95.9402L78.7581 96.5633V130.87L51.6761 149.314L45.1641 143.291L46.5078 123.354L45.1641 104.767L50.229 95.9402Z"/><path fill="#D9D6DF" d="M34.0005 90.3329L67.3093 80.0217C67.9079 79.8378 68.5353 79.7673 69.1595 79.814L148.731 85.6477C155.537 86.1169 162.087 88.4379 167.68 92.3619C172.83 96.0109 177.93 101.612 180.291 110.094C181.999 116.352 181.88 122.972 179.95 129.165L172.921 152.009C172.921 152.009 178.192 102.374 125.579 99.882L34.0005 90.3329Z"/><path fill="#B8797D" d="M51.676 95.2134V150.317C51.676 150.317 42.5487 149.027 40.9259 147.237C39.5945 145.769 31.8813 141.63 28.5343 137.366C27.8004 136.431 27.2753 135.497 27.0748 134.568C25.9543 129.443 21.3896 117.331 21.3896 117.331L22.63 105.493L27.7984 97.8094L37.8249 93.2404H45.5774L51.676 95.2134Z"/><path fill="#D9D6DF" d="M37.2047 95.9402C37.2047 95.9402 22.3695 105.286 25.6152 120.324C25.8799 121.549 26.1093 122.781 26.2602 124.027C26.8536 128.891 30.4135 142.867 51.676 149.314V150.767L42.6562 148.24L36.5328 144.849L31.8586 140.637L26.1445 133.634L23.4921 127.923L22.5205 120.401L21.9602 111.813L23.3267 104.447L26.5497 99.6535L30.4776 96.5861L37.2047 95.9402Z"/><path fill="#000" d="M51.6761 95.2134V103.979C45.2054 104.686 25.1709 108.756 28.7288 132.016L28.5324 137.358C27.7985 136.423 27.2734 135.489 27.0728 134.56C25.9524 129.435 21.3877 117.323 21.3877 117.323L22.6281 105.485L27.7964 97.8011L37.8229 93.2321H45.5754L51.6761 95.2134Z" opacity=".1"/><path fill="#fff" d="M85.7808 140.604C85.1937 141.409 84.4722 142.554 84.2448 143.561C83.3434 142.523 83.1491 141.328 84.4515 140.384C86.0826 139.191 86.6263 137.123 86.7483 135.287C86.8489 135.63 86.9181 135.982 86.9551 136.338C87.1093 137.857 86.6902 139.38 85.7808 140.604V140.604Z" opacity=".1"/><path fill="#B8797D" d="M169.307 146.199L165.379 159.594L156.49 168.316L145.326 170.601L127.96 167.486V105.493C127.96 105.493 130.958 103.521 131.268 103.521C131.578 103.521 139.951 104.87 139.951 104.87L158.908 118.529L159.694 119.096L168.17 131.765L169.307 146.199Z"/><path fill="#A36468" d="M127.96 102.897V167.486L129.635 167.787V102.897H127.96Z"/><path fill="#000" d="M159.28 122.835C146.876 112.596 133.087 111.09 127.96 110.904V105.504C127.96 105.504 130.958 103.531 131.268 103.531C131.578 103.531 139.951 104.881 139.951 104.881L158.908 118.54L159.28 122.835Z" opacity=".1"/><path fill="#E1DEE5" d="M125.341 98.7439L47.6448 90.2291L38.9124 89.7639C36.1911 89.6058 33.4698 90.0726 30.9548 91.1287C28.4399 92.1849 26.1974 93.8026 24.3977 95.8593C19.8496 101.114 16.4117 110.382 21.4332 126.297C21.4332 126.297 26.6697 146.925 52.0296 151.357L125.717 168.132C127.351 168.503 128.963 168.962 130.555 169.483C137.245 171.691 159.911 177.411 170.589 157.968C174.248 151.301 175.344 143.528 173.934 136.045C171.364 122.359 161.662 99.1344 125.341 98.7439ZM163.407 157.079C153.442 173.386 132.91 168.532 126.737 166.618C125.225 166.148 123.696 165.739 122.147 165.407L54.0783 150.778C30.6266 146.909 25.7829 128.897 25.7829 128.897C21.8239 117.059 23.5543 109.421 26.7545 104.586C30.1056 99.5248 35.9396 96.6941 41.9845 97.0015L50.0305 97.4169L119.526 106.744C120.932 106.933 122.348 107.057 123.766 107.105C154.67 108.158 164.285 125.229 166.729 136.994C168.164 143.87 167.072 151.085 163.407 157.079Z"/><path fill="url(#paint0_linear)" d="M0.873628 133.449C3.41851 135.16 7.28234 134.346 7.28234 134.346C7.28234 134.346 13.1101 131.574 14.8322 131.574C16.5543 131.574 20.7427 129.86 20.7427 129.86L20.6001 128.706L20.1742 125.227C22.8266 127.304 25.7746 126.587 27.2258 126.436C28.7846 126.274 37.1139 121.3 37.916 120.972C38.1331 120.885 38.3873 120.6 38.6458 120.232C39.1823 119.408 39.6537 118.543 40.0557 117.645V117.645C40.5766 117.184 40.957 116.814 40.9302 116.733C40.9033 116.652 41.1369 116.046 41.4408 115.362C42.6233 115.155 43.6425 114.714 43.9671 114.449C44.2338 114.234 44.4473 113.961 44.5908 113.649C44.7343 113.338 44.8039 112.997 44.794 112.654C44.794 112.654 52.9206 104.42 51.8518 100.995C50.783 97.5705 54.4794 97.4874 54.4794 97.4874C54.4794 97.4874 60.1418 95.041 60.9295 93.5748C61.4153 92.6714 65.6636 90.688 68.8597 89.2966L69.2525 89.1263C70.4929 91.8573 76.7941 89.7493 78.0345 88.6009C79.3473 87.3776 83.2028 86.8065 83.2028 86.8065C83.2028 86.8065 83.3682 70.8153 84.5983 68.7842C85.1833 67.8184 85.3239 64.6617 85.3095 61.613C85.3095 61.505 85.3095 61.4053 85.3095 61.289C87.0336 60.9505 91.1352 60.1676 93.0392 59.9786C94.2465 59.8581 95.5055 59.1022 96.471 58.367L96.5847 58.5103C96.9164 58.6471 97.2749 58.7061 97.6328 58.6827C97.9497 58.7183 98.27 58.6583 98.5527 58.5103C99.2929 58.0949 102.001 57.287 102.985 56.88C103.969 56.4729 102.822 53.5364 102.084 52.9653C101.346 52.3941 100.843 51.661 101.257 51.335C101.67 51.0089 100.273 50.1927 99.452 50.0287C98.6313 49.8646 96.1691 48.7245 96.1691 48.7245C96.1691 48.7245 95.2657 46.8553 93.7896 46.8553C92.3136 46.8553 90.3413 45.3871 90.3413 45.3871C90.2607 44.7349 88.6999 44.6539 88.6999 44.6539C88.6999 44.6539 82.7915 40.085 81.8053 40.6582C80.8192 41.2314 78.1131 39.761 78.1131 39.761C78.1131 39.761 74.7909 40.1349 74.0094 39.5201C74.0023 39.3183 73.9297 39.1243 73.8027 38.9677C73.627 38.4153 72.7691 37.6593 71.9421 37.0301C72.0053 36.6401 72.0371 36.2456 72.0372 35.8504C72.0372 35.6801 72.0372 35.5098 72.0186 35.3416C72.0186 35.3126 72.0186 35.2856 72.0186 35.2565L72.1364 34.108C72.1446 33.7304 72.2424 33.3601 72.4217 33.0281C72.5603 32.8204 72.7649 32.6439 72.92 32.4383C72.9561 32.3899 72.9893 32.3392 73.0192 32.2867L73.044 32.2431C73.0667 32.2033 73.0874 32.1624 73.106 32.1205L73.1246 32.079C73.1703 31.9662 73.2056 31.8494 73.2301 31.7301V31.7031C73.2404 31.6491 73.2487 31.5951 73.2549 31.539C73.2539 31.5314 73.2539 31.5238 73.2549 31.5162C73.2888 31.0417 73.2254 30.5653 73.0688 30.1164C72.8228 29.3459 72.4383 28.6025 72.3969 27.7987C72.3763 27.4 72.4424 26.9929 72.3556 26.6025C72.1489 25.7116 71.2454 25.1487 70.3668 24.7749C69.1533 24.264 68.5414 23.7054 67.5677 22.9453C66.7407 22.3015 65.3722 22.6255 64.3302 22.6919C61.9487 22.8456 59.5981 23.5662 57.3571 24.3097C56.4868 24.6005 55.5999 24.9328 54.9218 25.5246C54.4653 25.9147 54.1517 26.4469 54.0308 27.0366V27.0366C54.0073 27.1737 53.9983 27.3129 54.0039 27.4519C54.0039 27.4644 54.0039 27.4768 54.0039 27.4872C54.0039 27.5412 54.0039 27.5931 54.0225 27.6451C54.0214 27.6623 54.0214 27.6797 54.0225 27.697C54.0328 27.7604 54.048 27.8229 54.068 27.8839C54.1631 28.185 54.3388 28.4571 54.4401 28.7561C54.4631 28.8241 54.4817 28.8935 54.496 28.9638C54.496 28.9638 54.496 28.9783 54.496 28.9846C54.5104 29.051 54.5208 29.1154 54.529 29.1923C54.62 29.9337 54.3471 30.7083 54.2272 31.4643C54.2107 31.5702 54.1983 31.6719 54.19 31.7882C54.1541 32.2256 54.1926 32.666 54.3037 33.0904C54.3028 33.0952 54.3028 33.1001 54.3037 33.1049C54.3161 33.1568 54.3347 33.2088 54.3512 33.2586C54.3569 33.2811 54.3638 33.3033 54.3719 33.3251C54.3864 33.3687 54.405 33.4123 54.4215 33.4538L54.4567 33.5411C54.4732 33.5784 54.4918 33.6158 54.5104 33.6532C54.529 33.6906 54.5414 33.7155 54.558 33.7446C54.5749 33.7787 54.5935 33.812 54.6138 33.8443C54.6324 33.8775 54.6531 33.9086 54.6737 33.9398C54.6944 33.9709 54.713 34 54.7358 34.0291C54.7585 34.0582 54.7833 34.0935 54.8081 34.1246L54.8722 34.2035L54.959 34.2949L55.0273 34.3635L55.1286 34.4507C55.1534 34.4694 55.174 34.4901 55.1988 34.5068C55.2236 34.5234 55.2836 34.567 55.327 34.594L55.387 34.6355C55.4531 34.675 55.5234 34.7103 55.5937 34.7435C56.0651 34.9512 56.6604 35.0363 56.9437 35.4538C57.0112 35.5512 57.0583 35.6615 57.0822 35.7778C57.0822 35.8048 57.0822 35.8338 57.0822 35.8608V35.9335C57.0822 36.1744 57.0987 36.4133 57.1235 36.6479C57.1217 36.7771 57.1293 36.9062 57.1463 37.0342C57.16 37.1307 57.1865 37.225 57.2248 37.3146C57.5557 38.9557 58.4301 40.4359 59.7056 41.5138C59.7304 41.6405 59.7594 41.788 59.7904 41.9541C59.0681 42.4986 58.2613 42.9196 57.4026 43.2002C55.4325 43.7796 52.6478 46.4524 52.6478 46.4524C52.6478 46.4524 51.2627 56.4813 50.9298 57.7045C50.597 58.9277 50.351 63.6586 50.351 63.6586C50.351 63.6586 50.0223 65.615 49.524 66.5931C49.1746 67.2826 49.2387 70.2462 50.2104 72.0468C50.052 72.4008 49.8491 72.733 49.6067 73.0353C47.6366 75.3198 41.7261 75.2367 39.7559 75.2367C37.9429 75.2367 37.3826 76.3416 37.3061 76.516C33.6986 77.5544 22.0182 80.8939 20.6331 81.5003C18.9917 82.221 18.0883 89.3423 18.0883 89.3423C18.0883 89.3423 14.6586 101.163 14.8219 102.713C14.9852 104.262 13.6724 108.578 13.6724 108.578C13.6724 108.578 13.6724 113.456 13.1163 113.786C13.1115 113.791 13.1059 113.794 13.0998 113.796C12.5251 114.042 12.6057 116.407 12.6057 116.407C12.6057 116.407 13.0295 116.53 13.689 116.698C13.5133 117.892 12.8621 119.564 12.3597 120.752C12.1033 120.426 11.8532 120.291 11.7044 120.669C11.2909 121.707 5.13852 129.046 3.57769 129.046C2.83552 129.046 1.60753 129.657 0.799205 130.481C-0.0856113 131.389 -0.461865 132.554 0.873628 133.449ZM29.103 90.9643C36.0802 91.6164 43.5495 90.4679 43.5495 90.4679C43.5495 90.4679 42.9747 92.5135 42.4827 93.3297C41.9907 94.1459 40.5932 98.7938 40.5932 99.7678C40.5932 100.742 38.377 109.144 37.7217 109.552C37.4467 109.724 37.2007 110.152 37.0064 110.59C36.8338 110.995 36.6887 111.411 36.5722 111.836C36.5819 112.048 36.6005 112.249 36.628 112.44C36.1381 112.891 35.6192 113.364 35.1582 113.784C35.1582 113.784 32.2226 115.425 31.2303 116.322C30.2379 117.219 25.6485 118.32 25.6485 118.32C24.5105 118.811 23.4056 119.377 22.3407 120.012C20.9164 120.874 19.492 121.971 19.1199 123.053C19.2811 121.229 19.5437 119.034 19.7194 117.639L19.9799 117.628C22.2808 117.485 21.9376 115.279 21.8156 114.733C21.7991 114.654 21.7867 114.611 21.7867 114.611C23.4282 112.816 27.1204 99.45 26.6284 97.9755C26.1364 96.501 27.0419 95.203 27.2341 95.203C27.4264 95.203 27.6951 93.5727 27.2858 92.6755C26.8765 91.7784 29.103 90.9643 29.103 90.9643ZM85.5203 54.9901L85.0841 55.0981V55.0047C85.0841 55.0047 85.2433 55.0047 85.5203 54.9901V54.9901ZM61.6716 42.6852C61.6055 42.7682 61.5393 42.8471 61.4649 42.924L61.3801 43.0112C61.3801 42.8596 61.3801 42.7059 61.3801 42.5585C61.4794 42.5979 61.5745 42.6457 61.6716 42.6852ZM53.4499 58.5061L53.4788 58.9651C53.4788 58.9651 53.4354 59.2455 53.3527 59.7252L53.4499 58.5061ZM91.1683 53.9497L89.7356 54.1968C89.9423 54.12 90.1387 54.0369 90.3331 53.9434C90.477 53.8757 90.6316 53.8335 90.7899 53.8188C90.9712 53.8382 91.15 53.8765 91.3233 53.933C91.2713 53.9345 91.2194 53.94 91.1683 53.9497V53.9497Z"/><path fill="#EFB7B9" d="M42.7327 112.822C42.7327 112.822 41.0789 116.251 41.1636 116.494C41.2484 116.737 37.6182 119.647 37.6182 119.647L33.6716 116.816L34.0851 114.872C34.0851 114.872 38.5154 110.862 38.8399 110.399C39.1645 109.936 42.7327 112.822 42.7327 112.822Z"/><path fill="#67647E" d="M20.2197 124.423C22.9589 127.094 26.1798 126.293 27.7117 126.124C29.2436 125.956 37.4157 121.026 38.2013 120.702C38.408 120.615 38.6665 120.332 38.9187 119.967C39.4457 119.148 39.9082 118.289 40.3017 117.398C40.248 117.412 37.5687 118.183 36.8927 117.398C36.8927 117.398 35.7639 116.008 35.5221 116.008C35.2802 116.008 35.5034 113.57 35.5034 113.57C35.5034 113.57 32.6216 115.198 31.6562 116.089C30.6907 116.98 26.1777 118.07 26.1777 118.07C25.0616 118.558 23.9788 119.12 22.9362 119.751C20.8027 121.059 18.6527 122.905 20.2197 124.423Z"/><path fill="#000" d="M20.2198 124.423C22.959 127.094 26.1799 126.293 27.7118 126.124C29.2436 125.956 37.4158 121.026 38.2014 120.702C38.4081 120.615 38.6665 120.332 38.9187 119.967C37.9657 119.396 31.7389 123.373 29.9961 124.102C28.2534 124.83 23.8438 124.423 21.3402 123.373C20.0999 122.847 21.3568 121.233 22.9321 119.751C20.8027 121.059 18.6527 122.905 20.2198 124.423Z" opacity=".1"/><path fill="#EFB7B9" d="M20.5422 116.008C20.5422 116.008 19.3948 124.666 19.6863 125.8C19.9778 126.934 12.4858 121.917 12.4858 121.917C12.4858 121.917 15.1072 116.49 14.3464 115.244C13.5857 113.998 20.5422 116.008 20.5422 116.008Z"/><path fill="#444053" d="M13.3729 116.17C13.3729 116.17 18.045 117.545 20.6209 117.383C22.8784 117.242 22.5414 115.053 22.4236 114.511C22.4071 114.434 22.3947 114.39 22.3947 114.39C24.0051 112.609 27.6312 99.3378 27.1495 97.882C26.6678 96.4262 27.5423 95.1407 27.749 95.1407C27.9558 95.1407 28.2018 93.5208 27.7987 92.6319C27.3955 91.743 29.5724 90.9331 29.5724 90.9331C36.4194 91.579 43.7502 90.4388 43.7502 90.4388C43.7502 90.4388 43.1858 92.4699 42.702 93.2799C42.2183 94.0898 40.8414 98.7003 40.8414 99.6722C40.8414 100.644 38.6666 108.978 38.0216 109.383C37.7528 109.554 37.511 109.977 37.3208 110.422C37.1509 110.827 37.0086 111.243 36.8949 111.668C37.1368 117.09 43.2581 114.991 44.145 114.257C44.2712 114.152 44.3862 114.034 44.4882 113.904C44.7993 113.495 44.9619 112.991 44.9492 112.476C44.9492 112.476 52.925 104.303 51.8768 100.904C50.8287 97.504 54.4548 97.4251 54.4548 97.4251C54.4548 97.4251 60.0138 94.9974 60.787 93.5394C61.2645 92.6444 65.4323 90.6776 68.5705 89.2945C70.5365 88.4285 72.0973 87.7951 72.0973 87.7951L70.7908 83.089L69.7571 79.3778L67.818 78.6468L61.616 76.3042L50.4896 74.7362L49.4705 74.8691L38.6604 76.2751C38.6604 76.2751 22.8784 80.8108 21.2659 81.5211C19.6534 82.2313 18.7686 89.3028 18.7686 89.3028C18.7686 89.3028 15.3864 101.037 15.5518 102.582C15.7172 104.127 14.4231 108.397 14.4231 108.397C14.4231 108.397 14.4231 113.238 13.8752 113.566C13.8698 113.568 13.8641 113.568 13.8587 113.566C13.2922 113.832 13.3729 116.17 13.3729 116.17Z"/><path fill="#000" d="M29.564 90.9227C36.411 91.5686 43.7417 90.4285 43.7417 90.4285C44.2254 88.8979 50.9959 84.6903 50.9959 84.6903C45.441 83.3155 29.564 90.9227 29.564 90.9227Z" opacity=".1"/><path fill="#444053" d="M36.8945 111.639C37.1364 117.061 43.2578 114.962 44.1446 114.228C44.2709 114.123 44.3859 114.005 44.4878 113.875C42.3481 114.667 38.5546 115.279 37.3204 110.401C37.1509 110.803 37.0086 111.217 36.8945 111.639V111.639Z"/><path fill="#444053" d="M13.3727 116.17C13.3727 116.17 18.0448 117.545 20.6207 117.383C22.8782 117.242 22.5413 115.053 22.4234 114.511C20.0584 114.436 15.9858 114.214 13.8709 113.57C13.8655 113.572 13.8597 113.572 13.8543 113.57C13.292 113.832 13.3727 116.17 13.3727 116.17Z"/><path fill="#000" d="M36.8945 111.639C37.1364 117.061 43.2578 114.962 44.1446 114.228C44.2709 114.123 44.3859 114.005 44.4878 113.875C42.3481 114.667 38.5546 115.279 37.3204 110.401C37.1509 110.803 37.0086 111.217 36.8945 111.639V111.639Z" opacity=".1"/><path fill="#000" d="M13.3727 116.17C13.3727 116.17 18.0448 117.545 20.6207 117.383C22.8782 117.242 22.5413 115.053 22.4234 114.511C20.0584 114.436 15.9858 114.214 13.8709 113.57C13.8655 113.572 13.8597 113.572 13.8543 113.57C13.292 113.832 13.3727 116.17 13.3727 116.17Z" opacity=".1"/><path fill="#67647E" d="M1.85149 133.084C4.34882 134.782 8.13617 133.972 8.13617 133.972C8.13617 133.972 13.8544 131.223 15.5475 131.223C17.2407 131.223 21.3402 129.522 21.3402 129.522L21.2017 128.378L20.536 122.887C20.536 122.887 14.2617 122.725 14.0094 122.158C14.0094 122.158 12.8827 119.371 12.4796 120.401C12.0765 121.431 6.03576 128.708 4.50387 128.708C3.77411 128.708 2.56886 129.314 1.77707 130.133C0.914994 131.04 0.544943 132.195 1.85149 133.084Z"/><path fill="#000" d="M23.521 85.2572C23.521 85.2572 28.7575 88.5801 27.3083 89.3028C25.8591 90.0255 23.521 85.2572 23.521 85.2572Z" opacity=".1"/><path fill="#000" d="M21.3403 91.6496C21.3403 91.6496 25.8512 95.9527 24.1602 96.0669C22.4691 96.1811 21.3403 91.6496 21.3403 91.6496Z" opacity=".1"/><path fill="#000" d="M16.5129 105.317C16.5129 105.317 18.8035 109.643 17.9415 110.393C17.0794 111.142 16.5129 105.317 16.5129 105.317Z" opacity=".1"/><path fill="#000" d="M41.7282 109.697C40.922 110.505 49.3773 107.026 47.4464 106.864C45.5156 106.702 41.7282 109.697 41.7282 109.697Z" opacity=".1"/><path fill="#EFB7B9" d="M58.6431 49.0027L58.9139 48.9633C59.9145 48.8096 63.5468 48.2364 66.8049 47.5261C67.5987 47.3517 68.3678 47.171 69.0789 46.9841C71.5742 46.3278 73.2487 45.6197 72.1799 45.0382C70.7659 44.2677 70.0216 42.8679 69.6288 41.6634C69.5916 41.545 69.5565 41.4308 69.5234 41.3165C69.3499 40.7067 69.2411 40.0802 69.1988 39.4474C69.1988 39.4474 60.1026 36.2097 61.8681 39.4474C62.7384 41.0362 62.1534 42.3321 61.3327 43.2397C60.7684 43.8396 60.1045 44.3365 59.3708 44.7079L58.6431 49.0027Z"/><path fill="#000" d="M68.3905 46.494C68.3905 46.494 65.1344 48.8408 61.8081 46.899C58.4818 44.9572 54.1321 64.0553 54.1321 64.0553L49.6212 75.2222C49.6212 75.2222 46.7001 77.65 50.3365 78.7029C53.9729 79.7558 62.0396 77.65 64.0884 80.7257C66.1371 83.8014 70.0154 84.2853 70.4123 84.2853C70.8092 84.2853 72.3432 72.7114 72.3432 72.7114L72.7422 55.96L68.3905 46.494Z" opacity=".1"/><path fill="#F3F5F9" d="M50.4893 78.0549C54.1257 79.1058 62.1945 77.002 64.2432 80.0777C65.1064 81.3309 66.3118 82.3067 67.7142 82.8876C68.6196 83.296 69.5854 83.5527 70.5734 83.6477C70.625 83.6477 70.7015 83.44 70.7904 83.0683C71.3569 80.7257 72.5042 72.0738 72.5042 72.0738L72.9012 55.3224L69.0745 46.9841L68.5515 45.846C68.0388 46.1896 67.4825 46.4627 66.8976 46.658C65.6386 47.0858 63.8173 47.3268 61.9733 46.2427C60.9975 45.6736 59.9328 46.9155 58.9178 48.955C56.47 53.8645 54.2973 63.399 54.2973 63.399L49.7822 74.5804C49.6749 74.673 49.5728 74.7715 49.4763 74.8754C48.8354 75.5482 47.6343 77.2284 50.4893 78.0549Z"/><path fill="#000" d="M67.822 78.6177C67.6439 80.031 67.6079 81.4587 67.7145 82.8793C67.8448 84.9004 68.0975 86.9117 68.4711 88.902C68.4943 89.027 68.5275 89.1499 68.5703 89.2696C70.5364 88.4036 72.0972 87.7701 72.0972 87.7701L70.7907 83.0641C71.3571 80.7215 72.5045 72.0696 72.5045 72.0696L72.9014 55.3182L69.0748 46.9841C71.57 46.3278 73.2446 45.6196 72.1758 45.0381C70.6253 44.1929 69.879 42.5896 69.5192 41.3165C68.8638 42.2344 68.0963 43.0661 67.2348 43.7921L67.1852 43.8336L66.8958 46.658L66.8069 47.5261L66.6208 49.3267C66.6208 49.3267 67.5077 70.6096 68.1507 71.8246C68.7936 73.0395 68.4732 75.3842 67.9109 78.1359C67.8757 78.2917 67.855 78.4516 67.822 78.6177Z" opacity=".1"/><path fill="#67647E" d="M68.2291 77.812C67.6668 80.5637 68.1485 85.0953 68.7935 88.5739C69.4385 92.0525 76.2855 89.7888 77.5755 88.5739C78.8655 87.359 82.6487 86.7941 82.6487 86.7941C82.6487 86.7941 82.81 70.9336 84.0194 68.9109C84.592 67.9514 84.7305 64.8196 84.716 61.7937C84.7057 59.0773 84.5713 56.446 84.5217 55.5633C84.5093 55.3557 84.5031 55.2414 84.5031 55.2414C84.5031 55.2414 89.7376 46.3403 89.657 45.6882C89.5763 45.0361 88.0465 44.9613 88.0465 44.9613C88.0465 44.9613 82.258 40.4298 81.2801 40.9947C80.3023 41.5595 77.6541 40.1058 77.6541 40.1058C77.6541 40.1058 74.2864 40.49 73.5897 39.8358C73.5473 39.7995 73.514 39.7537 73.4925 39.7022C73.4709 39.6506 73.4617 39.5946 73.4657 39.5388C73.5442 38.5004 70.0339 36.2907 69.9243 36.216C72.8847 38.8909 68.0989 43.0133 67.5552 43.466L67.5055 43.5076L66.9412 49.0007C66.9412 49.0007 67.8281 70.2836 68.471 71.4985C69.1139 72.7135 68.7935 75.0602 68.2291 77.812Z"/><path fill="#444053" d="M68.5413 55.0981C68.764 55.0981 68.9444 54.9168 68.9444 54.6931C68.9444 54.4695 68.764 54.2882 68.5413 54.2882C68.3187 54.2882 68.1382 54.4695 68.1382 54.6931C68.1382 54.9168 68.3187 55.0981 68.5413 55.0981Z"/><path fill="#000" d="M67.7163 43.7921L70.164 46.17L73.7508 40.1473C73.7085 40.111 73.6752 40.0652 73.6536 40.0137C73.6321 39.9621 73.6229 39.9061 73.6268 39.8503C73.7054 38.8119 70.193 36.6022 70.0855 36.5275C73.0459 39.2169 68.2683 43.3393 67.7163 43.7921Z" opacity=".1"/><path fill="#000" d="M69.3475 68.0448C69.5701 68.0448 69.7506 67.8635 69.7506 67.6399C69.7506 67.4162 69.5701 67.2349 69.3475 67.2349C69.1248 67.2349 68.9443 67.4162 68.9443 67.6399C68.9443 67.8635 69.1248 68.0448 69.3475 68.0448Z" opacity=".1"/><path fill="#444053" d="M69.3475 67.8828C69.5701 67.8828 69.7506 67.7015 69.7506 67.4779C69.7506 67.2542 69.5701 67.0729 69.3475 67.0729C69.1248 67.0729 68.9443 67.2542 68.9443 67.4779C68.9443 67.7015 69.1248 67.8828 69.3475 67.8828Z"/><path fill="#67647E" d="M67.5552 43.4681L70.0029 45.846L73.5897 39.8233C73.5473 39.787 73.514 39.7413 73.4925 39.6897C73.4709 39.6381 73.4618 39.5822 73.4657 39.5264C73.5442 38.488 70.0339 36.2783 69.9243 36.2035C72.8847 38.8929 68.0989 43.0133 67.5552 43.4681Z"/><path fill="#D1D9EC" d="M65.3685 66.1291L70.271 66.2417C70.465 66.2462 70.6259 66.0918 70.6303 65.8968L70.8851 54.7059C70.8895 54.5109 70.7358 54.3493 70.5418 54.3448L65.6394 54.2322C65.4453 54.2278 65.2844 54.3822 65.28 54.5771L65.0252 65.7681C65.0208 65.963 65.1745 66.1246 65.3685 66.1291Z"/><path fill="#DFE6F5" d="M65.3973 66.3922L70.2998 66.5048C70.4938 66.5093 70.6547 66.3548 70.6592 66.1599L70.9139 54.969C70.9183 54.774 70.7646 54.6124 70.5706 54.6079L65.6682 54.4953C65.4741 54.4908 65.3132 54.6453 65.3088 54.8402L65.054 66.0312C65.0496 66.2261 65.2033 66.3877 65.3973 66.3922Z"/><path fill="#fff" d="M68.13 58.9215C68.6163 58.9215 69.0106 58.5254 69.0106 58.0368C69.0106 57.5482 68.6163 57.1521 68.13 57.1521C67.6436 57.1521 67.2493 57.5482 67.2493 58.0368C67.2493 58.5254 67.6436 58.9215 68.13 58.9215Z"/><path fill="#000" d="M37.7795 77.083C39.7931 77.9739 53.0054 75.6293 54.9384 75.0602C56.8713 74.4912 59.6932 70.1237 58.3226 66.9607C56.9519 63.7978 58.8043 60.7304 58.8043 60.7304C58.8043 60.7304 61.6985 54.5 62.3497 53.2851C63.0009 52.0702 64.3385 48.5375 64.5246 47.9457C64.5321 47.8792 64.5259 47.8118 64.5063 47.7479C64.4868 47.6839 64.4543 47.6247 64.4108 47.5739C63.8857 46.7785 61.8598 45.3621 61.8598 45.3621C61.2913 45.5698 61.221 43.9312 61.2396 42.7288C61.252 42.0559 61.2913 41.5201 61.2913 41.5201C61.2913 41.5201 61.0246 41.7921 60.5884 42.1639C60.4292 42.2989 60.2473 42.4484 60.0447 42.6021C59.2892 43.21 58.4344 43.6816 57.5184 43.9956C55.5854 44.5709 52.8462 47.2229 52.8462 47.2229L53.6525 59.6504C53.6525 59.6504 51.7919 71.3386 49.8651 73.6044C47.9384 75.8702 42.1313 75.7892 40.1983 75.7892C38.2654 75.7892 37.7795 77.083 37.7795 77.083Z" opacity=".1"/><path fill="#67647E" d="M37.6184 76.5991C39.632 77.488 52.8443 75.1454 54.7772 74.5742C56.7102 74.0031 59.5321 69.6377 58.1614 66.4748C56.7908 63.3118 58.6431 60.2444 58.6431 60.2444C58.6431 60.2444 61.5374 54.014 62.1886 52.7991C62.8398 51.5842 64.1774 48.0516 64.3634 47.4597C64.3708 47.3932 64.3646 47.3259 64.345 47.262C64.3255 47.198 64.293 47.1388 64.2497 47.088C63.7205 46.2946 61.7048 44.8824 61.7048 44.8824C61.1363 45.0901 61.066 43.4536 61.0846 42.2511C61.097 41.5762 61.1363 41.0403 61.1363 41.0403C61.1363 41.0403 60.8696 41.3124 60.4334 41.6862C60.2742 41.8191 60.0923 41.9687 59.8897 42.1224C59.1306 42.7316 58.2715 43.2031 57.351 43.5159C55.4181 44.0911 52.6789 46.7432 52.6789 46.7432L53.4851 59.1707C53.4851 59.1707 51.6246 70.8589 49.6978 73.1246C47.7711 75.3904 41.966 75.3094 40.031 75.3094C38.096 75.3094 37.6184 76.5991 37.6184 76.5991Z"/><path fill="#000" d="M59.53 41.3519C59.53 41.3519 59.6065 41.7776 59.7368 42.4339C60.1709 44.656 61.2046 49.5074 61.9509 49.3205C62.4863 49.1855 63.398 48.2343 64.0926 47.4119C63.5696 46.6103 61.5477 45.1939 61.5477 45.1939C60.9792 45.4016 60.9089 43.7651 60.9275 42.5626L60.2763 41.9977L59.53 41.3519Z" opacity=".1"/><path fill="#67647E" d="M59.6912 41.0341C59.6912 41.0341 59.7677 41.4599 59.8979 42.1161C60.332 44.3383 61.3657 49.1897 62.112 49.0028C62.6474 48.8678 63.5591 47.9166 64.2537 47.0942C63.7204 46.2946 61.7047 44.8824 61.7047 44.8824C61.1362 45.0901 61.0659 43.4536 61.0845 42.2511L60.4333 41.6862L59.6912 41.0341Z"/><path fill="#EFB7B9" d="M54.5351 64.8632C54.5351 64.8632 58.5643 64.0553 59.691 62.2755C60.8177 60.4957 68.4916 58.9526 67.5469 60.8217C66.6021 62.6909 59.691 68.7738 59.691 68.7738L56.6913 73.0873L52.6849 72.0655L50.9958 68.7655L54.5351 64.8632Z"/><path fill="#000" d="M64.0655 69.4819C64.0655 69.4819 60.1644 70.9357 59.5773 72.8796C58.9902 74.8234 64.0655 69.4819 64.0655 69.4819Z" opacity=".1"/><path fill="#000" d="M66.4575 71.7436C66.4575 71.7436 66.8131 73.7643 61.9238 73.6127L66.4575 71.7436Z" opacity=".1"/><path fill="#000" d="M87.5629 45.846L89.3366 45.6841C89.3366 45.6841 91.2696 47.1378 92.7188 47.1378C94.168 47.1378 95.0548 49.0069 95.0548 49.0069C95.0548 49.0069 97.4715 50.1408 98.2778 50.3028C99.0841 50.4648 100.453 51.2727 100.05 51.5967C99.6464 51.9206 100.13 52.6496 100.856 53.2145C101.581 53.7794 102.716 56.6952 101.741 57.1002C100.765 57.5051 98.1166 58.313 97.3992 58.718C96.6818 59.1229 95.7887 58.718 95.7887 58.718C95.7887 58.718 91.5218 53.1335 89.3449 54.1864C87.168 55.2394 84.1869 55.2331 84.1869 55.2331L81.8508 50.2987L87.5629 45.846Z" opacity=".1"/><path fill="#67647E" d="M50.4894 72.4746C50.8698 73.0436 51.3618 73.4424 51.9923 73.5234C53.5691 73.7086 55.167 73.56 56.6831 73.0873C56.6831 73.0873 48.5689 70.4975 56.3813 64.2007H54.2933L53.5904 63.9349L53.9088 62.2589L54.3677 47.1419L52.6766 46.737C52.6766 46.737 51.3143 56.691 50.9897 57.9039C50.6651 59.1167 50.4212 63.8123 50.4212 63.8123C50.4212 63.8123 50.0987 65.7541 49.6149 66.7198C49.249 67.455 49.3503 70.7467 50.4894 72.4746Z"/><path fill="#000" d="M50.8181 72.4746C51.1964 73.0436 51.6905 73.4424 52.3211 73.5234C53.8978 73.7086 55.4957 73.56 57.0118 73.0873C57.0118 73.0873 48.8976 70.4975 56.71 64.1965H54.6241L53.9274 63.9307C52.7635 65.9763 50.9649 69.6086 50.8181 72.4746Z" opacity=".1"/><path fill="#67647E" d="M50.4893 72.4746C50.8696 73.0436 51.3617 73.4424 51.9922 73.5234C53.569 73.7086 55.1668 73.56 56.683 73.0873C56.683 73.0873 48.5687 70.4975 56.3811 64.2007H54.2931L53.5902 63.9348C52.4491 65.9763 50.6422 69.6086 50.4893 72.4746Z"/><path fill="#000" d="M61.3306 43.2459C62.7071 43.8733 64.2431 44.058 65.7282 43.7747C67.2133 43.4914 68.5749 42.754 69.6268 41.6634C69.5895 41.545 69.5544 41.4308 69.5213 41.3165C69.3478 40.7067 69.239 40.0802 69.1967 39.4474C69.1967 39.4474 60.1005 36.2097 61.866 39.4474C62.7363 41.0424 62.1513 42.3383 61.3306 43.2459Z" opacity=".1"/><path fill="#EFB7B9" d="M57.0327 36.216V36.2886C57.0327 36.5275 57.0493 36.7642 57.0741 36.9968C57.0989 37.2294 57.1319 37.4413 57.1733 37.6593C57.4894 39.2461 58.3169 40.6841 59.5278 41.7512C60.7388 42.8184 62.2658 43.4553 63.873 43.5635C65.4803 43.6717 67.0782 43.2453 68.4201 42.3501C69.762 41.4549 70.7731 40.1407 71.2973 38.6105C71.3469 38.4672 71.3903 38.3239 71.4296 38.1785C71.6064 37.5395 71.6954 36.8792 71.6942 36.216C71.6942 36.0477 71.6942 35.8774 71.6756 35.7113C71.5406 33.8101 70.677 32.0355 69.2665 30.7606C67.856 29.4858 66.0083 28.81 64.1121 28.8753C62.2158 28.9407 60.4186 29.7421 59.0984 31.1111C57.7781 32.48 57.0377 34.3099 57.0327 36.216V36.216Z"/><path fill="#000" d="M57.0327 36.2886C57.0728 36.5224 57.0867 36.76 57.0741 36.9968C57.0716 37.1252 57.0785 37.2536 57.0947 37.381C57.1085 37.4769 57.1349 37.5705 57.1733 37.6593C57.4689 38.3571 58.4364 38.8099 59.0752 38.3592C59.3212 38.1567 59.5166 37.8993 59.6458 37.6074C60.3239 36.3426 61.2645 34.8889 62.7468 34.864C63.3794 34.8515 63.9727 35.1194 64.5847 35.2793C65.1966 35.4392 65.9202 35.4538 66.375 35.0363C66.7264 34.7144 66.8918 34.1662 67.3611 34.054C67.8304 33.9419 68.2645 34.3738 68.4795 34.7975C68.6945 35.2212 68.8661 35.7196 69.3064 35.9397C69.5008 36.0353 69.7199 36.0644 69.9266 36.1682C70.8032 36.65 70.4001 38.3384 71.3097 38.6126C71.3381 38.6215 71.3671 38.6284 71.3965 38.6333C71.411 38.4838 71.4275 38.3301 71.442 38.1806C71.5247 37.3582 71.6067 36.5358 71.688 35.7134C71.553 33.8121 70.6894 32.0375 69.2789 30.7627C67.8684 29.4878 66.0208 28.8121 64.1245 28.8774C62.2282 28.9428 60.431 29.7442 59.1108 31.1131C57.7906 32.4821 57.0501 34.312 57.0451 36.218L57.0327 36.2886Z" opacity=".1"/><path fill="#585268" d="M70.0547 25.2235C70.9168 25.5911 71.814 26.156 72.0062 27.0386C72.091 27.427 72.0269 27.8299 72.0476 28.2245C72.0889 29.022 72.461 29.7613 72.7071 30.5256C72.9531 31.2898 73.0358 32.187 72.552 32.8308C72.4011 33.0385 72.2006 33.2026 72.0641 33.4144C71.8862 33.7482 71.7898 34.1198 71.783 34.4985L71.384 38.4817C70.3627 38.2886 70.8175 36.5088 69.912 36.0145C69.7239 35.9107 69.4986 35.8816 69.3022 35.784C68.866 35.5763 68.6964 35.0675 68.4752 34.6438C68.254 34.2202 67.8344 33.7861 67.3568 33.9004C66.8793 34.0146 66.7221 34.5628 66.3728 34.8827C65.9159 35.298 65.1903 35.2814 64.5804 35.1257C63.9705 34.9699 63.3751 34.7103 62.7446 34.7103C61.2603 34.7352 60.3176 36.189 59.6436 37.4537C59.5139 37.7465 59.3178 38.0046 59.071 38.2076C58.3515 38.7143 57.2104 38.0747 57.0925 37.2274C57.0223 36.7518 57.1711 36.2222 56.8982 35.8193C56.6253 35.4164 56.0341 35.3313 55.5731 35.1153C54.3947 34.5712 54.0308 33.0946 54.2252 31.8568C54.3678 30.9638 54.7213 30.0458 54.4319 29.186C54.3306 28.8891 54.159 28.6191 54.066 28.3221C53.8076 27.4914 54.2293 26.5693 54.8929 25.9774C55.5565 25.3855 56.4269 25.0595 57.2827 24.7729C59.4803 24.0315 61.7874 23.3191 64.1256 23.1654C65.1489 23.099 66.4906 22.7771 67.3031 23.4188C68.2685 24.1623 68.8639 24.7168 70.0547 25.2235Z"/><path fill="#000" d="M68.1382 48.7037C68.3609 48.7037 68.5414 48.5224 68.5414 48.2987C68.5414 48.0751 68.3609 47.8937 68.1382 47.8937C67.9156 47.8937 67.7351 48.0751 67.7351 48.2987C67.7351 48.5224 67.9156 48.7037 68.1382 48.7037Z" opacity=".1"/><path fill="#444053" d="M68.1382 48.5417C68.3609 48.5417 68.5414 48.3604 68.5414 48.1367C68.5414 47.9131 68.3609 47.7318 68.1382 47.7318C67.9156 47.7318 67.7351 47.9131 67.7351 48.1367C67.7351 48.3604 67.9156 48.5417 68.1382 48.5417Z"/><path fill="#000" d="M70.7161 74.1153C70.9388 74.1153 71.1192 73.934 71.1192 73.7103C71.1192 73.4866 70.9388 73.3053 70.7161 73.3053C70.4935 73.3053 70.313 73.4866 70.313 73.7103C70.313 73.934 70.4935 74.1153 70.7161 74.1153Z" opacity=".1"/><path fill="#444053" d="M70.7161 73.9533C70.9388 73.9533 71.1192 73.7719 71.1192 73.5483C71.1192 73.3246 70.9388 73.1433 70.7161 73.1433C70.4935 73.1433 70.313 73.3246 70.313 73.5483C70.313 73.7719 70.4935 73.9533 70.7161 73.9533Z"/><path fill="#000" d="M69.3475 80.8316C69.5701 80.8316 69.7506 80.6503 69.7506 80.4266C69.7506 80.203 69.5701 80.0217 69.3475 80.0217C69.1248 80.0217 68.9443 80.203 68.9443 80.4266C68.9443 80.6503 69.1248 80.8316 69.3475 80.8316Z" opacity=".1"/><path fill="#444053" d="M69.3475 80.6696C69.5701 80.6696 69.7506 80.4883 69.7506 80.2647C69.7506 80.041 69.5701 79.8597 69.3475 79.8597C69.1248 79.8597 68.9443 80.041 68.9443 80.2647C68.9443 80.4883 69.1248 80.6696 69.3475 80.6696Z"/><path fill="#000" d="M55.5026 54.6931C55.5026 54.6931 54.6157 60.7366 55.5026 61.7895C56.3895 62.8425 55.5026 54.6931 55.5026 54.6931Z" opacity=".1"/><path fill="#000" d="M81.8448 65.9161C81.8448 65.9161 83.5358 69.5775 81.8448 73.0873C80.1537 76.597 79.1055 78.0238 79.6699 80.2646C80.2343 82.5055 81.8448 65.9161 81.8448 65.9161Z" opacity=".1"/><path fill="#000" d="M1.85149 133.084C4.34882 134.782 8.13617 133.972 8.13617 133.972C8.13617 133.972 13.8544 131.223 15.5475 131.223C17.2407 131.223 21.3402 129.522 21.3402 129.522L21.2017 128.378C19.5333 128.7 15.7377 129.47 15.2995 129.846C14.7351 130.332 7.80746 132.679 7.80746 132.679C7.80746 132.679 3.08982 132.087 1.77707 130.139C0.914994 131.04 0.544943 132.195 1.85149 133.084Z" opacity=".1"/><g opacity=".1"><path fill="#000" d="M72.0476 27.5765C72.0476 27.4893 72.0476 27.4021 72.0476 27.3128C72.0476 27.4145 72.0476 27.5205 72.0476 27.616C72.0517 27.6035 72.0476 27.5911 72.0476 27.5765Z" opacity=".1"/><path fill="#000" d="M55.5753 34.4611C56.0363 34.6688 56.6089 34.7518 56.9004 35.163C57.1919 35.5742 57.0245 36.0955 57.0948 36.5711C57.2167 37.4184 58.3538 38.0602 59.0732 37.5513C59.32 37.3484 59.5161 37.0902 59.6458 36.7975C60.3219 35.5327 61.2646 34.079 62.7468 34.054C63.3794 34.0436 63.9728 34.3116 64.5847 34.4694C65.1966 34.6272 65.9202 34.6438 66.3771 34.2264C66.7264 33.9066 66.8918 33.3562 67.3611 33.2441C67.8304 33.1319 68.2625 33.5639 68.4795 33.9876C68.6966 34.4112 68.8661 34.9097 69.3065 35.1298C69.5008 35.2253 69.7199 35.2544 69.9163 35.3583C70.8218 35.8546 70.367 37.6427 71.3883 37.8255C71.5261 36.4963 71.6591 35.1686 71.7873 33.8422C71.7957 33.4677 71.8921 33.1006 72.0684 32.7706C72.2049 32.5629 72.4054 32.3884 72.5563 32.1849C72.739 31.9336 72.853 31.6386 72.8871 31.3293C72.9727 31.8545 72.8543 32.3928 72.5563 32.8329C72.4054 33.0406 72.2049 33.2046 72.0684 33.4165C71.8893 33.7493 71.7916 34.1202 71.7831 34.4985C71.6453 35.8262 71.5123 37.154 71.3841 38.4817C70.3629 38.2886 70.8177 36.5088 69.9122 36.0145C69.7241 35.9107 69.4987 35.8816 69.3023 35.784C68.8661 35.5763 68.6966 35.0675 68.4754 34.6438C68.2542 34.2202 67.8345 33.7861 67.357 33.9003C66.8794 34.0146 66.7223 34.5628 66.3729 34.8827C65.916 35.298 65.1904 35.2814 64.5806 35.1257C63.9707 34.9699 63.3753 34.7103 62.7427 34.7103C61.2604 34.7352 60.3177 36.189 59.6417 37.4537C59.512 37.7465 59.3159 38.0046 59.0691 38.2076C58.3496 38.7143 57.2085 38.0747 57.0906 37.2274C57.0203 36.7518 57.1692 36.2222 56.8963 35.8193C56.6234 35.4164 56.0322 35.3313 55.5711 35.1153C54.4941 34.6168 54.0971 33.3396 54.1881 32.1787C54.2708 33.1278 54.6967 34.054 55.5753 34.4611Z" opacity=".1"/><path fill="#000" d="M54.0679 27.6658C54.1609 27.9628 54.3325 28.2349 54.4338 28.5298C54.5405 28.8741 54.5715 29.2376 54.5248 29.5952C54.5087 29.454 54.4782 29.3148 54.4338 29.1798C54.3325 28.8828 54.1609 28.6128 54.0679 28.3159C53.9862 28.0418 53.9699 27.7522 54.0203 27.4706C54.0323 27.5366 54.0482 27.6018 54.0679 27.6658Z" opacity=".1"/></g><path fill="#746D83" d="M99.5139 94.3204L82.9091 92.2332C82.7921 92.2186 82.6814 92.1716 82.5895 92.0973C82.4976 92.0231 82.4281 91.9246 82.3888 91.8129C82.3495 91.7011 82.342 91.5806 82.3671 91.4649C82.3921 91.3491 82.4488 91.2426 82.5308 91.1574L89.4956 83.8887C89.5632 83.818 89.6461 83.764 89.738 83.7308C89.8298 83.6977 89.928 83.6863 90.0249 83.6976L102.72 85.1264C102.817 85.1373 102.91 85.1703 102.991 85.2229C103.073 85.2755 103.142 85.3462 103.192 85.4297C103.243 85.5131 103.273 85.6071 103.282 85.7043C103.29 85.8015 103.276 85.8994 103.241 85.9904L100.186 93.9216C100.134 94.0536 100.039 94.1643 99.9178 94.2365C99.7961 94.3087 99.6541 94.3382 99.5139 94.3204Z"/><path fill="#000" d="M99.5139 94.3204L82.9091 92.2332C82.7921 92.2186 82.6814 92.1716 82.5895 92.0973C82.4976 92.0231 82.4281 91.9246 82.3888 91.8129C82.3495 91.7011 82.342 91.5806 82.3671 91.4649C82.3921 91.3491 82.4488 91.2426 82.5308 91.1574L89.4956 83.8887C89.5632 83.818 89.6461 83.764 89.738 83.7308C89.8298 83.6977 89.928 83.6863 90.0249 83.6976L102.72 85.1264C102.817 85.1373 102.91 85.1703 102.991 85.2229C103.073 85.2755 103.142 85.3462 103.192 85.4297C103.243 85.5131 103.273 85.6071 103.282 85.7043C103.29 85.8015 103.276 85.8994 103.241 85.9904L100.186 93.9216C100.134 94.0536 100.039 94.1643 99.9178 94.2365C99.7961 94.3087 99.6541 94.3382 99.5139 94.3204Z" opacity=".1"/><path fill="#746D83" d="M99.3258 94.1334L82.7231 92.038C82.606 92.0229 82.4954 91.9756 82.4036 91.9011C82.3119 91.8266 82.2425 91.728 82.2032 91.6162C82.164 91.5044 82.1564 91.3838 82.1814 91.268C82.2064 91.1521 82.263 91.0455 82.3448 90.9601L89.3096 83.6913C89.3773 83.6208 89.4602 83.5667 89.5519 83.5333C89.6437 83.4998 89.7418 83.4878 89.8388 83.4982L102.532 84.927C102.629 84.9379 102.722 84.971 102.804 85.0237C102.886 85.0764 102.955 85.1473 103.006 85.2309C103.056 85.3146 103.087 85.4087 103.095 85.5062C103.104 85.6036 103.09 85.7018 103.055 85.7931L99.9977 93.7243C99.947 93.858 99.8535 93.9708 99.7317 94.0449C99.61 94.119 99.4671 94.1502 99.3258 94.1334V94.1334Z"/><path fill="#D1D9EC" d="M89.4315 86.5386L94.4179 86.9415L101.53 86.4763H101.408L94.819 85.8367C93.3098 85.2801 94.3559 82.0029 94.3559 82.0029L89.3096 82.2605L88.9064 82.2812C87.1223 86.4763 89.4315 86.5386 89.4315 86.5386Z"/><path fill="#000" d="M89.4315 86.5386L94.4179 86.9415L101.53 86.4763H101.408L94.2174 86.7338L89.4005 86.2084C88.032 85.847 88.8155 83.4629 89.3096 82.2625L88.9064 82.2833C87.1223 86.4763 89.4315 86.5386 89.4315 86.5386Z" opacity=".1"/><path fill="#4C4C56" d="M80.6974 56.7513L82.2231 78.7341L82.4298 81.6187C82.4504 81.9371 82.5919 82.2355 82.8249 82.4522C83.058 82.669 83.365 82.7877 83.6826 82.7838H84.1457L107.114 82.6446C107.203 82.6436 107.292 82.6239 107.373 82.5868C107.455 82.5497 107.528 82.4959 107.588 82.429C107.648 82.362 107.693 82.2833 107.721 82.1978C107.749 82.1123 107.759 82.0219 107.75 81.9323L107.544 79.0456L105.927 59.7148C105.902 59.4628 105.805 59.2232 105.649 59.0245C105.492 58.8257 105.283 58.6761 105.044 58.5934L83.1534 55.2954C82.4091 55.0358 81.6504 55.1272 81.177 55.5239C81.0026 55.6729 80.8675 55.8629 80.7838 56.0771C80.7001 56.2912 80.6704 56.5228 80.6974 56.7513V56.7513Z"/><path fill="#DFE6F5" d="M82.2229 78.734L82.4296 81.6187C82.4503 81.9371 82.5917 82.2354 82.8248 82.4522C83.0578 82.669 83.3648 82.7876 83.6824 82.7838H84.1455L107.114 82.6446C107.203 82.6436 107.291 82.6239 107.373 82.5868C107.455 82.5497 107.528 82.4959 107.588 82.4289C107.647 82.362 107.693 82.2833 107.721 82.1978C107.749 82.1123 107.759 82.0219 107.75 81.9323L107.544 79.0456L82.2229 78.734Z"/><path fill="#fff" d="M97.6203 81.7454C97.7904 81.7454 97.9283 81.4683 97.9283 81.1265C97.9283 80.7847 97.7904 80.5076 97.6203 80.5076C97.4502 80.5076 97.3123 80.7847 97.3123 81.1265C97.3123 81.4683 97.4502 81.7454 97.6203 81.7454Z"/><path fill="#D1D9EC" d="M96.7275 89.3527C96.7275 89.3527 90.4469 86.9706 88.7538 88.7026C88.7538 88.7026 88.4768 89.2301 89.6159 89.3527L94.2177 89.7244C94.2177 89.7244 96.1114 89.9093 96.7275 89.3527Z"/><path fill="#DFE6F5" d="M96.5599 88.7338C95.3195 88.227 91.6128 86.9166 89.2354 88.3662C89.2354 88.3662 91.865 88.0734 93.3101 88.9124C94.7551 89.7514 96.7273 89.3527 96.7273 89.3527L96.7563 89.3007C96.7839 89.2512 96.8008 89.1964 96.8058 89.1399C96.8108 89.0834 96.8037 89.0264 96.7852 88.9728C96.7666 88.9192 96.7369 88.8702 96.6981 88.829C96.6593 88.7878 96.6121 88.7553 96.5599 88.7338V88.7338Z"/><path fill="#DFE6F5" d="M80.6972 56.7512L82.4213 81.6229C82.442 81.9413 82.5834 82.2396 82.8165 82.4564C83.0496 82.6731 83.3565 82.7918 83.6741 82.7879H84.1372C83.82 82.4838 83.5496 82.1338 83.3351 81.7495C83.3351 81.7495 81.642 56.7575 81.5179 56.1386C81.4636 55.9069 81.3454 55.6953 81.1768 55.528C81.003 55.6766 80.8683 55.866 80.7846 56.0793C80.701 56.2927 80.671 56.5235 80.6972 56.7512V56.7512Z"/><path fill="#000" d="M80.6972 56.7512L82.4213 81.6229C82.442 81.9413 82.5834 82.2396 82.8165 82.4564C83.0496 82.6731 83.3565 82.7918 83.6741 82.7879H84.1372C83.82 82.4838 83.5496 82.1338 83.3351 81.7495C83.3351 81.7495 81.642 56.7575 81.5179 56.1386C81.4636 55.9069 81.3454 55.6953 81.1768 55.528C81.003 55.6766 80.8683 55.866 80.7846 56.0793C80.701 56.2927 80.671 56.5235 80.6972 56.7512V56.7512Z" opacity=".1"/><path fill="#000" d="M77.7347 63.6462C79.5953 63.2308 83.9367 61.9515 83.9367 61.9515L84.714 61.7937C84.7037 59.0773 84.5693 56.446 84.5197 55.5633H84.5011C84.5011 55.5633 80.7944 56.7782 79.9096 57.4324C79.0247 58.0866 76.2835 57.9163 76.2835 57.9163C76.2835 57.9163 72.0165 58.1469 68.4752 62.1197C64.9338 66.0926 75.8824 64.0553 77.7347 63.6462Z" opacity=".1"/><path fill="#EFB7B9" d="M95.8425 56.4252C96.0081 56.5012 96.1518 56.6182 96.2602 56.7652C96.3686 56.9122 96.4381 57.0844 96.4622 57.2657C96.4864 57.447 96.4644 57.6314 96.3983 57.8019C96.3323 57.9723 96.2242 58.1232 96.0844 58.2403C95.1024 59.0565 93.6698 60.0326 92.3012 60.1696C90.0271 60.4002 84.528 61.5071 83.9823 61.6234C83.9529 61.6283 83.9239 61.6353 83.8954 61.6442C83.4427 61.7771 79.4817 62.9421 77.7348 63.3264C75.8742 63.7417 64.9174 65.7583 68.4711 61.7937C71.7334 58.1427 75.6096 57.6401 76.207 57.5923C76.2545 57.5882 76.3022 57.5882 76.3497 57.5923C76.7632 57.611 79.1034 57.692 79.9117 57.1043C80.3327 56.8389 80.7787 56.6157 81.2431 56.4376C82.9947 55.7095 84.8218 55.1801 86.6905 54.8593L90.4799 54.1947C90.6956 54.1574 90.9175 54.1863 91.1166 54.2778L95.8425 56.4252Z"/><path fill="#67647E" d="M87.8852 45.846L89.6569 45.6841C89.6569 45.6841 91.5919 47.1378 93.0411 47.1378C94.4903 47.1378 95.3772 49.0069 95.3772 49.0069C95.3772 49.0069 97.7939 50.1408 98.6002 50.3028C99.4064 50.4648 100.775 51.2727 100.372 51.5967C99.9687 51.9206 100.452 52.6496 101.178 53.2145C101.904 53.7794 103.039 56.6952 102.063 57.1002C101.087 57.5051 98.4389 58.313 97.7216 58.718C97.0042 59.1229 96.1111 58.718 96.1111 58.718C96.1111 58.718 91.8359 53.1293 89.659 54.1823C87.4821 55.2352 84.5031 55.2331 84.5031 55.2331L82.167 50.2987L87.8852 45.846Z"/><path fill="#4285F4" d="M193.962 147.609C193.763 147.881 193.605 148.181 193.493 148.5C193.462 148.576 193.435 148.666 193.406 148.751C193.353 148.727 193.298 148.707 193.242 148.693C193.001 148.632 192.752 148.611 192.504 148.63C192.504 148.533 192.504 148.433 192.519 148.325C192.548 147.231 192.42 145.706 191.382 146.352C190.383 146.975 191.094 148.014 191.737 148.678L191.903 148.842C191.318 149.258 191.206 150.24 191.107 151.26C191.008 152.279 190.148 153.395 189.577 154.028C189.519 154.094 189.465 154.151 189.416 154.205C189.186 154.02 188.919 153.887 188.634 153.813C188.349 153.739 188.052 153.726 187.762 153.775L187.685 153.494C187.222 151.814 186.261 148.905 185.035 148.267C185.087 148.203 185.141 148.136 185.196 148.059C185.717 147.376 186.302 146.358 185.436 146.099C184.57 145.839 184.493 146.981 184.541 147.835C184.541 147.943 184.549 148.045 184.566 148.14C184.392 148.148 184.222 148.192 184.066 148.268C183.91 148.345 183.771 148.452 183.658 148.585L183.526 148.425C182.823 147.594 181.533 146.271 181.144 147.27C180.781 148.201 181.916 149.409 182.714 150.109L182.763 150.153C182.226 152.335 184.566 154.115 185.825 154.894L185.986 154.994C184.25 157.05 183.179 160.904 183.179 160.904L188.041 161.777C188.041 161.777 191.264 158.981 190.853 156.356H190.886C194.107 155.708 194.84 152.257 194.338 150.209L194.396 150.184C194.982 149.942 195.496 149.551 195.887 149.05C196.778 147.794 194.886 146.373 193.962 147.609Z"/><path fill="#000" d="M193.962 147.609C193.763 147.881 193.605 148.181 193.493 148.5C193.462 148.576 193.435 148.666 193.406 148.751C193.353 148.727 193.298 148.707 193.242 148.693C193.001 148.632 192.752 148.611 192.504 148.63C192.504 148.533 192.504 148.433 192.519 148.325C192.548 147.231 192.42 145.706 191.382 146.352C190.383 146.975 191.094 148.014 191.737 148.678L191.903 148.842C191.318 149.258 191.206 150.24 191.107 151.26C191.008 152.279 190.148 153.395 189.577 154.028C189.519 154.094 189.465 154.151 189.416 154.205C189.186 154.02 188.919 153.887 188.634 153.813C188.349 153.739 188.052 153.726 187.762 153.775L187.685 153.494C187.222 151.814 186.261 148.905 185.035 148.267C185.087 148.203 185.141 148.136 185.196 148.059C185.717 147.376 186.302 146.358 185.436 146.099C184.57 145.839 184.493 146.981 184.541 147.835C184.541 147.943 184.549 148.045 184.566 148.14C184.392 148.148 184.222 148.192 184.066 148.268C183.91 148.345 183.771 148.452 183.658 148.585L183.526 148.425C182.823 147.594 181.533 146.271 181.144 147.27C180.781 148.201 181.916 149.409 182.714 150.109L182.763 150.153C182.226 152.335 184.566 154.115 185.825 154.894L185.986 154.994C184.25 157.05 183.179 160.904 183.179 160.904L188.041 161.777C188.041 161.777 191.264 158.981 190.853 156.356H190.886C194.107 155.708 194.84 152.257 194.338 150.209L194.396 150.184C194.982 149.942 195.496 149.551 195.887 149.05C196.778 147.794 194.886 146.373 193.962 147.609Z" opacity=".1"/><path fill="#4285F4" d="M184.281 149.017L183.712 150.689C183.712 150.689 183.398 150.464 182.999 150.111C182.201 149.411 181.066 148.203 181.43 147.272C181.818 146.273 183.108 147.592 183.811 148.427C184.095 148.759 184.281 149.017 184.281 149.017Z"/><path fill="#4285F4" d="M185.486 148.061C185.312 148.292 185.126 148.512 184.928 148.722C184.878 148.43 184.844 148.136 184.826 147.841C184.779 146.988 184.868 145.85 185.722 146.105C186.575 146.361 186.003 147.378 185.486 148.061Z"/><path fill="#4285F4" d="M192.815 148.325C192.796 148.876 192.742 149.316 192.742 149.316C192.492 149.119 192.255 148.906 192.033 148.678C191.39 148.009 190.679 146.973 191.678 146.352C192.722 145.706 192.844 147.231 192.815 148.325Z"/><path fill="#4285F4" d="M196.172 149.046C195.781 149.547 195.268 149.938 194.681 150.18C194.519 150.252 194.352 150.313 194.181 150.363L193.511 149.418C193.582 149.105 193.674 148.799 193.788 148.5C193.901 148.181 194.059 147.881 194.258 147.609C195.184 146.373 197.075 147.794 196.172 149.046Z"/><path fill="#000" d="M183.811 148.427C184.095 148.759 184.281 149.017 184.281 149.017L183.712 150.689C183.712 150.689 183.398 150.464 182.999 150.111C183.087 149.576 183.306 149.071 183.638 148.643C183.696 148.564 183.756 148.493 183.811 148.427Z" opacity=".1"/><path fill="#000" d="M185.486 148.061C185.312 148.292 185.126 148.512 184.928 148.722C184.878 148.43 184.844 148.136 184.826 147.841C185.064 147.844 185.294 147.921 185.486 148.061V148.061Z" opacity=".1"/><path fill="#4285F4" d="M188.277 154.699L186.863 155.322C186.605 155.192 186.354 155.049 186.11 154.894C184.624 153.976 181.635 151.665 183.629 148.94C185.624 146.215 187.303 151.102 187.971 153.492C188.173 154.209 188.277 154.699 188.277 154.699Z"/><path fill="#000" d="M192.033 148.678C192.24 148.466 192.519 148.34 192.815 148.325C192.796 148.876 192.742 149.316 192.742 149.316C192.492 149.119 192.255 148.906 192.033 148.678Z" opacity=".1"/><path fill="#000" d="M194.681 150.176C194.519 150.248 194.352 150.309 194.181 150.358L193.511 149.413C193.582 149.101 193.674 148.794 193.788 148.495C194.22 148.753 194.539 149.384 194.681 150.176Z" opacity=".1"/><path fill="#4285F4" d="M191.171 156.352C191.093 156.369 191.014 156.383 190.933 156.396C186.193 157.118 189.371 154.549 189.371 154.549C189.371 154.549 189.577 154.352 189.873 154.028C190.443 153.405 191.306 152.286 191.403 151.26C191.552 149.717 191.725 148.269 193.538 148.693C195.318 149.112 195.657 155.451 191.171 156.352Z"/><path fill="#D4DFEC" d="M191.082 168.208H182.025V170.601H191.082V168.208Z"/><path fill="#D4DFEC" d="M192.42 160.433H180.586V168.782H192.42V160.433Z"/><path fill="#000" d="M191.082 168.208H182.025V170.601H191.082V168.208Z" opacity=".1"/><path fill="#000" d="M192.42 160.433H180.586V168.782H192.42V160.433Z" opacity=".1"/><path fill="#D4DFEC" d="M191.678 168.208H182.621V170.601H191.678V168.208Z"/><path fill="#000" d="M187.967 153.498C188.173 154.213 188.273 154.703 188.273 154.703L186.858 155.326C186.601 155.196 186.349 155.053 186.106 154.898C186.664 154.19 187.288 153.658 187.967 153.498Z" opacity=".1"/><path fill="#000" d="M191.171 156.352C191.093 156.369 191.014 156.383 190.933 156.396C186.193 157.118 189.371 154.549 189.371 154.549C189.371 154.549 189.577 154.352 189.873 154.028C190.758 154.745 191.124 155.542 191.171 156.352Z" opacity=".1"/><path fill="#4285F4" d="M183.464 160.906C183.464 160.906 186.118 151.353 189.84 154.302C193.561 157.251 188.326 161.779 188.326 161.779L183.464 160.906Z"/><path fill="#000" d="M184.804 150.736C184.968 150.736 185.101 150.602 185.101 150.437C185.101 150.272 184.968 150.138 184.804 150.138C184.639 150.138 184.506 150.272 184.506 150.437C184.506 150.602 184.639 150.736 184.804 150.736Z" opacity=".1"/><path fill="#000" d="M184.779 152.132C184.943 152.132 185.077 151.998 185.077 151.833C185.077 151.668 184.943 151.534 184.779 151.534C184.614 151.534 184.481 151.668 184.481 151.833C184.481 151.998 184.614 152.132 184.779 152.132Z" opacity=".1"/><path fill="#000" d="M193.412 151.01C193.576 151.01 193.71 150.877 193.71 150.711C193.71 150.546 193.576 150.412 193.412 150.412C193.248 150.412 193.114 150.546 193.114 150.711C193.114 150.877 193.248 151.01 193.412 151.01Z" opacity=".1"/><path fill="#000" d="M186.466 158.165C186.63 158.165 186.764 158.031 186.764 157.866C186.764 157.701 186.63 157.567 186.466 157.567C186.301 157.567 186.168 157.701 186.168 157.866C186.168 158.031 186.301 158.165 186.466 158.165Z" opacity=".1"/><path fill="#000" d="M192.792 153.328C192.956 153.328 193.09 153.194 193.09 153.029C193.09 152.864 192.956 152.73 192.792 152.73C192.627 152.73 192.494 152.864 192.494 153.029C192.494 153.194 192.627 153.328 192.792 153.328Z" opacity=".1"/><path fill="#000" d="M189.716 156.42C189.88 156.42 190.013 156.287 190.013 156.121C190.013 155.956 189.88 155.822 189.716 155.822C189.551 155.822 189.418 155.956 189.418 156.121C189.418 156.287 189.551 156.42 189.716 156.42Z" opacity=".1"/><path fill="#000" d="M185.821 151.334C185.985 151.334 186.119 151.201 186.119 151.035C186.119 150.87 185.985 150.736 185.821 150.736C185.656 150.736 185.523 150.87 185.523 151.035C185.523 151.201 185.656 151.334 185.821 151.334Z" opacity=".1"/><path fill="#000" d="M192.593 151.908C192.758 151.908 192.891 151.774 192.891 151.609C192.891 151.443 192.758 151.31 192.593 151.31C192.429 151.31 192.296 151.443 192.296 151.609C192.296 151.774 192.429 151.908 192.593 151.908Z" opacity=".1"/><path fill="#000" d="M191.576 154.225C191.741 154.225 191.874 154.091 191.874 153.926C191.874 153.761 191.741 153.627 191.576 153.627C191.412 153.627 191.279 153.761 191.279 153.926C191.279 154.091 191.412 154.225 191.576 154.225Z" opacity=".1"/><path fill="#000" d="M188.451 157.941C188.615 157.941 188.748 157.807 188.748 157.642C188.748 157.476 188.615 157.343 188.451 157.343C188.286 157.343 188.153 157.476 188.153 157.642C188.153 157.807 188.286 157.941 188.451 157.941Z" opacity=".1"/><path fill="#000" d="M187.806 156.47C187.97 156.47 188.103 156.336 188.103 156.171C188.103 156.006 187.97 155.872 187.806 155.872C187.641 155.872 187.508 156.006 187.508 156.171C187.508 156.336 187.641 156.47 187.806 156.47Z" opacity=".1"/><path fill="#000" d="M186.267 153.154C186.432 153.154 186.565 153.02 186.565 152.855C186.565 152.689 186.432 152.556 186.267 152.556C186.103 152.556 185.97 152.689 185.97 152.855C185.97 153.02 186.103 153.154 186.267 153.154Z" opacity=".1"/><path fill="#000" d="M191.678 168.208H182.621V169.083H191.678V168.208Z" opacity=".1"/><path fill="#D4DFEC" d="M193.015 160.433H181.182V168.782H193.015V160.433Z"/><path fill="#000" d="M188.847 159.286C189.012 159.286 189.145 159.153 189.145 158.987C189.145 158.822 189.012 158.688 188.847 158.688C188.683 158.688 188.55 158.822 188.55 158.987C188.55 159.153 188.683 159.286 188.847 159.286Z" opacity=".1"/><path fill="#000" d="M187.061 159.66C187.226 159.66 187.359 159.526 187.359 159.361C187.359 159.196 187.226 159.062 187.061 159.062C186.897 159.062 186.763 159.196 186.763 159.361C186.763 159.526 186.897 159.66 187.061 159.66Z" opacity=".1"/><defs><linearGradient id="paint0_linear" x1="51.676" x2="51.676" y1="134.539" y2="22.54" gradientUnits="userSpaceOnUse"><stop stop-color="gray" stop-opacity=".25"/><stop offset=".54" stop-color="gray" stop-opacity=".12"/><stop offset="1" stop-color="gray" stop-opacity=".1"/></linearGradient></defs></svg>