<svg xmlns="http://www.w3.org/2000/svg" width="60" height="60" viewBox="0 0 60 60" xmlns:xlink="http://www.w3.org/1999/xlink">
  <defs>
    <polygon id="a" points="0 2345 908.713 2345 908.713 0 0 0"/>
    <polygon id="b" points="0 2345 908.713 2345 908.713 0 0 0"/>
    <polygon id="c" points="0 2345 908.713 2345 908.713 0 0 0"/>
    <polygon id="d" points="0 2345 908.713 2345 908.713 0 0 0"/>
    <polygon id="e" points="0 2345 908.713 2345 908.713 0 0 0"/>
    <polygon id="f" points="0 2345 908.713 2345 908.713 0 0 0"/>
    <polygon id="g" points="0 2345 908.713 2345 908.713 0 0 0"/>
    <polygon id="h" points="0 2345 908.713 2345 908.713 0 0 0"/>
    <polygon id="i" points="0 2345 908.713 2345 908.713 0 0 0"/>
    <polygon id="j" points="0 2345 908.713 2345 908.713 0 0 0"/>
    <polygon id="k" points="0 2345 908.713 2345 908.713 0 0 0"/>
    <polygon id="l" points="0 2345 908.713 2345 908.713 0 0 0"/>
    <polygon id="m" points="0 2345 908.713 2345 908.713 0 0 0"/>
    <polygon id="n" points="0 2345 908.713 2345 908.713 0 0 0"/>
    <polygon id="o" points="0 2345 908.713 2345 908.713 0 0 0"/>
    <polygon id="p" points="0 2345 908.713 2345 908.713 0 0 0"/>
    <polygon id="q" points="0 2345 908.713 2345 908.713 0 0 0"/>
    <polygon id="r" points="0 2345 908.713 2345 908.713 0 0 0"/>
    <polygon id="s" points=".713 17 22.713 17 22.713 .001 .713 .001"/>
    <polygon id="u" points=".714 17 29.714 17 29.714 .001 .714 .001"/>
    <polygon id="w" points="14.714 0 .713 12 31.714 12 44.713 0"/>
    <polygon id="y" points=".714 12 10.714 12 10.714 0 .714 0"/>
    <polygon id="A" points=".713 6 8.713 6 8.713 0 .713 0"/>
    <polygon id="C" points=".714 6 8.713 6 8.713 0 .714 0"/>
    <polygon id="E" points=".714 12 28.714 12 14.713 0"/>
    <polygon id="G" points="0 2345 908.713 2345 908.713 0 0 0"/>
    <polygon id="H" points="0 2345 908.713 2345 908.713 0 0 0"/>
    <polygon id="I" points="0 2345 908.713 2345 908.713 0 0 0"/>
  </defs>
  <g fill="none" fill-rule="evenodd">
    <g transform="translate(-365.68 -243.082)">
      <g transform="translate(399 279)">
        <mask id="t" fill="white">
          <use xlink:href="#s"/>
        </mask>
        <polygon fill="#D8D8D8" points="-4.287 22 27.713 22 27.713 -5 -4.287 -5" mask="url(#t)"/>
      </g>
      <path fill="#314E55" d="M400.713,295 L420.713,295 L420.713,280 L400.713,280 L400.713,295 Z M421.713,297 L399.713,297 C399.161,297 398.713,296.552 398.713,296 L398.713,279 C398.713,278.448 399.161,278 399.713,278 L421.713,278 C422.266,278 422.713,278.448 422.713,279 L422.713,296 C422.713,296.552 422.266,297 421.713,297 L421.713,297 Z"/>
      <g transform="translate(370 279)">
        <mask id="v" fill="white">
          <use xlink:href="#u"/>
        </mask>
        <polygon fill="#EBEBEB" points="-4.287 22 34.713 22 34.713 -5 -4.287 -5" mask="url(#v)"/>
      </g>
      <path fill="#314E55" d="M371.713,295 L398.713,295 L398.713,280 L371.713,280 L371.713,295 Z M399.713,297 L370.713,297 C370.161,297 369.713,296.552 369.713,296 L369.713,279 C369.713,278.448 370.161,278 370.713,278 L399.713,278 C400.266,278 400.713,278.448 400.713,279 L400.713,296 C400.713,296.552 400.266,297 399.713,297 L399.713,297 Z"/>
      <g transform="translate(366 267)">
        <mask id="x" fill="white">
          <use xlink:href="#w"/>
        </mask>
        <polygon fill="#C59981" points="-4.287 17 49.713 17 49.713 -5 -4.287 -5" mask="url(#x)"/>
      </g>
      <path fill="#314E55" d="M397.7133,280 L366.7133,280 C366.2953,280 365.9213,279.739 365.7753,279.347 C365.6303,278.955 365.7443,278.513 366.0623,278.241 L380.0623,266.241 C380.2433,266.085 380.4743,266 380.7133,266 L410.7133,266 C411.2653,266 411.7133,266.448 411.7133,267 C411.7133,267.552 411.2653,268 410.7133,268 L381.0833,268 L369.4163,278 L397.7133,278 C398.2653,278 398.7133,278.448 398.7133,279 C398.7133,279.552 398.2653,280 397.7133,280"/>
      <g transform="translate(405 284)">
        <mask id="z" fill="white">
          <use xlink:href="#y"/>
        </mask>
        <polygon fill="#C59981" points="-4.287 17 15.713 17 15.713 -5 -4.287 -5" mask="url(#z)"/>
      </g>
      <path fill="#314E55" d="M406.713,295 L414.713,295 L414.713,285 L406.713,285 L406.713,295 Z M415.713,297 L405.713,297 C405.161,297 404.713,296.552 404.713,296 L404.713,284 C404.713,283.448 405.161,283 405.713,283 L415.713,283 C416.266,283 416.713,283.448 416.713,284 L416.713,296 C416.713,296.552 416.266,297 415.713,297 L415.713,297 Z"/>
      <g transform="translate(374 283)">
        <mask id="B" fill="white">
          <use xlink:href="#A"/>
        </mask>
        <polygon fill="#73C9C9" points="-4.287 11 13.713 11 13.713 -5 -4.287 -5" mask="url(#B)"/>
      </g>
      <path fill="#314E55" d="M375.713,288 L381.713,288 L381.713,284 L375.713,284 L375.713,288 Z M382.713,290 L374.713,290 C374.161,290 373.713,289.552 373.713,289 L373.713,283 C373.713,282.448 374.161,282 374.713,282 L382.713,282 C383.266,282 383.713,282.448 383.713,283 L383.713,289 C383.713,289.552 383.266,290 382.713,290 L382.713,290 Z"/>
      <g transform="translate(387 283)">
        <mask id="D" fill="white">
          <use xlink:href="#C"/>
        </mask>
        <polygon fill="#73C9C9" points="-4.287 11 13.713 11 13.713 -5 -4.287 -5" mask="url(#D)"/>
      </g>
      <g fill="#314E55" transform="translate(386 282)">
        <path d="M2.713 6L8.713 6 8.713 2 2.713 2 2.713 6zM9.713 8L1.713 8C1.161 8 .713 7.552.713 7L.713 1C.713.448 1.161 0 1.713 0L9.713 0C10.266 0 10.713.448 10.713 1L10.713 7C10.713 7.552 10.266 8 9.713 8L9.713 8zM26.7133 9L25.7133 9C25.1613 9 24.7133 8.552 24.7133 8 24.7133 7.448 25.1613 7 25.7133 7L26.7133 7C27.2653 7 27.7133 7.448 27.7133 8 27.7133 8.552 27.2653 9 26.7133 9"/>
      </g>
      <g transform="translate(396 267)">
        <mask id="F" fill="white">
          <use xlink:href="#E"/>
        </mask>
        <polygon fill="#C59981" points="-4.287 17 33.713 17 33.713 -5 -4.287 -5" mask="url(#F)"/>
      </g>
      <path fill="#314E55" d="M399.4164,278 L422.0104,278 L410.7134,268.317 L399.4164,278 Z M424.7134,280 L396.7134,280 C396.2944,280 395.9204,279.739 395.7754,279.347 C395.6304,278.955 395.7444,278.513 396.0624,278.241 L410.0624,266.241 C410.4374,265.919 410.9894,265.919 411.3644,266.241 L425.3644,278.241 C425.6824,278.513 425.7964,278.955 425.6514,279.347 C425.5054,279.739 425.1314,280 424.7134,280 L424.7134,280 Z"/>
      <g/>
      <g/>
      <g/>
    </g>
  </g>
</svg>
