<?xml version="1.0" encoding="UTF-8" standalone="no"?>
<svg width="60px" height="60px" viewBox="0 0 60 60" version="1.1" xmlns="http://www.w3.org/2000/svg" xmlns:xlink="http://www.w3.org/1999/xlink" xmlns:sketch="http://www.bohemiancoding.com/sketch/ns">
    <!-- Generator: Sketch 3.3.3 (12081) - http://www.bohemiancoding.com/sketch -->
    <title>Giftbox</title>
    <desc>Created with Sketch.</desc>
    <defs>
        <path id="path-1" d="M0,0 L40,0 L40,25.772 C40,27.555 38.553,29 36.777,29 L3.223,29 C1.443,29 0,27.562 0,25.772 L0,0 L0,0 Z"></path>
    </defs>
    <g id="colored" stroke="none" stroke-width="1" fill="none" fill-rule="evenodd" sketch:type="MSPage">
        <g id="Holidays_sliced" sketch:type="MSLayerGroup" transform="translate(-600.000000, -360.000000)"></g>
        <g id="Imported-Layers" sketch:type="MSLayerGroup" transform="translate(-600.000000, -359.000000)">
            <path d="M607,375 L653,375 L653,387 L607,387 L607,375 Z" id="Fill-501" fill="#D8D8D8" sketch:type="MSShapeGroup"></path>
            <path d="M653,388 L607,388 C606.447,388 606,387.552 606,387 L606,375 C606,374.448 606.447,374 607,374 L653,374 C653.553,374 654,374.448 654,375 L654,387 C654,387.552 653.553,388 653,388 L653,388 Z M608,386 L652,386 L652,376 L608,376 L608,386 Z" id="Fill-503" fill="#314E55" sketch:type="MSShapeGroup"></path>
            <path d="M624,375 L636,375 L636,387 L624,387 L624,375 Z" id="Fill-504" fill="#EB86A5" sketch:type="MSShapeGroup"></path>
            <path d="M636,388 L624,388 C623.447,388 623,387.552 623,387 L623,375 C623,374.448 623.447,374 624,374 L636,374 C636.553,374 637,374.448 637,375 L637,387 C637,387.552 636.553,388 636,388 L636,388 Z M625,386 L635,386 L635,376 L625,376 L625,386 Z" id="Fill-506" fill="#314E55" sketch:type="MSShapeGroup"></path>
            <g id="Group-509" transform="translate(610.000000, 387.000000)">
                <mask id="mask-2" sketch:name="Clip 508" fill="white">
                    <use xlink:href="#path-1"></use>
                </mask>
                <g id="Clip-508"></g>
                <path d="M0,0 L40,0 L40,29 L0,29 L0,0 Z" id="Fill-507" fill="#D8D8D8" sketch:type="MSShapeGroup" mask="url(#mask-2)"></path>
            </g>
            <path d="M646.777,417 L613.223,417 C610.894,417 609,415.104 609,412.772 L609,387 C609,386.448 609.447,386 610,386 L650,386 C650.553,386 651,386.448 651,387 L651,412.772 C651,415.104 649.106,417 646.777,417 L646.777,417 Z M611,388 L611,412.772 C611,414 611.997,415 613.223,415 L646.777,415 C648.003,415 649,414 649,412.772 L649,388 L611,388 L611,388 Z" id="Fill-510" fill="#314E55" sketch:type="MSShapeGroup"></path>
            <path d="M626,387 L634,387 L634,416 L626,416 L626,387 Z" id="Fill-511" fill="#EB86A5" sketch:type="MSShapeGroup"></path>
            <path d="M634,417 L626,417 C625.447,417 625,416.552 625,416 L625,387 C625,386.448 625.447,386 626,386 L634,386 C634.553,386 635,386.448 635,387 L635,416 C635,416.552 634.553,417 634,417 L634,417 Z M627,415 L633,415 L633,388 L627,388 L627,415 Z" id="Fill-513" fill="#314E55" sketch:type="MSShapeGroup"></path>
            <path d="M632.085,375.105 L632.085,375.105 C630.231,375.105 628.829,374.446 628.139,373.25 C627.411,371.99 627.591,370.364 628.644,368.673 C629.579,367.174 631.126,365.752 633,364.67 C634.982,363.525 637.083,362.895 638.915,362.895 C640.77,362.895 642.171,363.554 642.861,364.75 C644.263,367.178 642.128,370.947 638,373.331 C636.018,374.475 633.917,375.105 632.085,375.105 L632.085,375.105 Z M638.915,364.895 C637.45,364.895 635.659,365.444 634,366.402 C632.405,367.323 631.106,368.505 630.342,369.731 C629.707,370.75 629.535,371.669 629.871,372.25 C630.185,372.794 630.991,373.105 632.085,373.105 C633.55,373.105 635.341,372.556 637,371.598 C640.317,369.683 641.839,366.979 641.129,365.75 C640.815,365.207 640.009,364.895 638.915,364.895 L638.915,364.895 Z" id="Fill-514" fill="#314E55" sketch:type="MSShapeGroup"></path>
            <path d="M628.915,375.105 C627.083,375.105 624.982,374.475 623,373.331 C618.872,370.947 616.737,367.178 618.139,364.75 C618.829,363.554 620.231,362.895 622.085,362.895 C623.917,362.895 626.018,363.525 628,364.67 C629.874,365.752 631.421,367.174 632.356,368.673 C633.409,370.364 633.589,371.99 632.861,373.25 C632.171,374.446 630.769,375.105 628.915,375.105 L628.915,375.105 Z M622.085,364.895 C620.991,364.895 620.185,365.207 619.871,365.75 C619.161,366.979 620.683,369.683 624,371.598 C625.659,372.556 627.45,373.105 628.915,373.105 C630.009,373.105 630.815,372.794 631.129,372.25 C631.465,371.669 631.293,370.75 630.658,369.731 C629.895,368.505 628.595,367.323 627,366.402 C625.341,365.444 623.55,364.895 622.085,364.895 L622.085,364.895 Z" id="Fill-515" fill="#314E55" sketch:type="MSShapeGroup"></path>
        </g>
    </g>
</svg>