<?xml version="1.0" encoding="UTF-8" standalone="no"?>
<svg width="133px" height="115px" viewBox="0 0 133 115" version="1.1" xmlns="http://www.w3.org/2000/svg" xmlns:xlink="http://www.w3.org/1999/xlink">
    <!-- Generator: Sketch 43 (38999) - http://www.bohemiancoding.com/sketch -->
    <title>Group</title>
    <desc>Created with Sketch.</desc>
    <defs></defs>
    <g id="App" stroke="none" stroke-width="1" fill="none" fill-rule="evenodd">
        <g id="Desktop-HD-Copy" transform="translate(-555.000000, -444.000000)">
            <g id="Group" transform="translate(555.000000, 444.000000)">
                <g id="folder" transform="translate(7.000000, 0.000000)" fill-rule="nonzero">
                    <path d="M102.074074,11.6 L45.3269556,11.6 L38.1950111,0.860913333 C37.8376556,0.322866667 37.2367667,0 36.5925926,0 L1.92592593,0 C0.862333333,0 0,0.864731667 0,1.93333333 L0,13.5333333 L0,21.2666667 L0,77.3389883 C0,82.6670133 4.31450741,87 9.61836296,87 L94.3816852,87 C99.6854926,87 104,82.6670133 104,77.3389883 L104,21.2666667 L104,13.5333333 C104,12.4647317 103.137667,11.6 102.074074,11.6 Z" id="Shape" fill="#314E55"></path>
                    <polygon id="Shape" fill="#EAEAEA" points="100.148148 19.3333333 3.85185185 19.3333333 3.85185185 15.4666667 44.2962963 15.4666667 100.148148 15.4666667"></polygon>
                    <polygon id="Shape" fill="#DBCF56" points="3.85185185 3.86666667 35.5619333 3.86666667 40.6974148 11.6 3.85185185 11.6"></polygon>
                    <path d="M100.148148,77.3389883 C100.148148,80.5335317 97.5611481,83.1333333 94.381637,83.1333333 L9.61836296,83.1333333 C6.43885185,83.1333333 3.85185185,80.5335317 3.85185185,77.3389883 L3.85185185,23.2 L100.148148,23.2 L100.148148,77.3389883 Z" id="Shape" fill="#DBCF56"></path>
                </g>
                <path d="M113.248959,95.5063184 C118.072895,90.0413895 121,82.8625257 121,75 C121,57.8791728 107.120827,44 90,44 C72.8791728,44 59,57.8791728 59,75 C59,92.1208272 72.8791728,106 90,106 C97.0965357,106 103.636129,103.615448 108.861241,99.6038822 L122.884245,113.626885 C124.065719,114.80836 125.960155,114.803301 127.131728,113.631728 C128.300917,112.462539 128.301133,110.558492 127.126885,109.384245 L113.248959,95.5063184 Z" id="Combined-Shape" stroke="#314E55" fill="#F6EDEE"></path>
                <circle id="Oval" stroke="#314E55" fill="#FFFFFF" cx="90" cy="75" r="26"></circle>
                <circle id="Oval-3" stroke="#314E55" stroke-width="2" fill="#FFFFFF" cx="77" cy="68" r="3"></circle>
                <circle id="Oval-3" stroke="#314E55" stroke-width="2" fill="#FFFFFF" cx="103" cy="68" r="3"></circle>
                <polyline id="Line" stroke="#314E55" stroke-width="2" stroke-linecap="square" points="83.5 87.5 90.7827148 86.9838867 97.5 87.5"></polyline>
                <path d="M0.5,95.5 L16.5,95.5" id="Line" stroke="#314E55" stroke-linecap="square"></path>
                <path d="M21.5,95.5 L35.5,95.5" id="Line" stroke="#314E55" stroke-linecap="square"></path>
                <path d="M26.5,98.5 L41.5,98.5" id="Line" stroke="#314E55" stroke-linecap="square"></path>
                <path d="M123.5,97.5 L132.5,97.5" id="Line" stroke="#314E55" stroke-linecap="square"></path>
                <path d="M118.5,94.5 L128.5,94.5" id="Line" stroke="#314E55" stroke-linecap="square"></path>
            </g>
        </g>
    </g>
</svg>