<svg xmlns="http://www.w3.org/2000/svg" xmlns:xlink="http://www.w3.org/1999/xlink" width="133" height="115" version="1.1" viewBox="0 0 133 115"><title>Group</title><desc>Created with Sketch.</desc><g id="App" fill="none" fill-rule="evenodd" stroke="none" stroke-width="1"><g id="Desktop-HD-Copy" transform="translate(-555.000000, -444.000000)"><g id="Group" transform="translate(555.000000, 444.000000)"><g id="folder" fill-rule="nonzero" transform="translate(7.000000, 0.000000)"><path id="Shape" fill="#314E55" d="M102.074074,11.6 L45.3269556,11.6 L38.1950111,0.860913333 C37.8376556,0.322866667 37.2367667,0 36.5925926,0 L1.92592593,0 C0.862333333,0 0,0.864731667 0,1.93333333 L0,13.5333333 L0,21.2666667 L0,77.3389883 C0,82.6670133 4.31450741,87 9.61836296,87 L94.3816852,87 C99.6854926,87 104,82.6670133 104,77.3389883 L104,21.2666667 L104,13.5333333 C104,12.4647317 103.137667,11.6 102.074074,11.6 Z"/><polygon id="Shape" fill="#EAEAEA" points="100.148 19.333 3.852 19.333 3.852 15.467 44.296 15.467 100.148 15.467"/><polygon id="Shape" fill="#DBCF56" points="3.852 3.867 35.562 3.867 40.697 11.6 3.852 11.6"/><path id="Shape" fill="#DBCF56" d="M100.148148,77.3389883 C100.148148,80.5335317 97.5611481,83.1333333 94.381637,83.1333333 L9.61836296,83.1333333 C6.43885185,83.1333333 3.85185185,80.5335317 3.85185185,77.3389883 L3.85185185,23.2 L100.148148,23.2 L100.148148,77.3389883 Z"/></g><path id="Combined-Shape" fill="#F6EDEE" stroke="#314E55" d="M113.248959,95.5063184 C118.072895,90.0413895 121,82.8625257 121,75 C121,57.8791728 107.120827,44 90,44 C72.8791728,44 59,57.8791728 59,75 C59,92.1208272 72.8791728,106 90,106 C97.0965357,106 103.636129,103.615448 108.861241,99.6038822 L122.884245,113.626885 C124.065719,114.80836 125.960155,114.803301 127.131728,113.631728 C128.300917,112.462539 128.301133,110.558492 127.126885,109.384245 L113.248959,95.5063184 Z"/><circle id="Oval" cx="90" cy="75" r="26" fill="#FFF" stroke="#314E55"/><circle id="Oval-3" cx="77" cy="68" r="3" fill="#FFF" stroke="#314E55" stroke-width="2"/><circle id="Oval-3" cx="103" cy="68" r="3" fill="#FFF" stroke="#314E55" stroke-width="2"/><polyline id="Line" stroke="#314E55" stroke-linecap="square" stroke-width="2" points="83.5 87.5 90.783 86.984 97.5 87.5"/><path id="Line" stroke="#314E55" stroke-linecap="square" d="M0.5,95.5 L16.5,95.5"/><path id="Line" stroke="#314E55" stroke-linecap="square" d="M21.5,95.5 L35.5,95.5"/><path id="Line" stroke="#314E55" stroke-linecap="square" d="M26.5,98.5 L41.5,98.5"/><path id="Line" stroke="#314E55" stroke-linecap="square" d="M123.5,97.5 L132.5,97.5"/><path id="Line" stroke="#314E55" stroke-linecap="square" d="M118.5,94.5 L128.5,94.5"/></g></g></g></svg>