<svg xmlns="http://www.w3.org/2000/svg" xmlns:xlink="http://www.w3.org/1999/xlink" width="60" height="60" version="1.1" viewBox="0 0 60 60"><title>Filetext</title><desc>Created with Sketch.</desc><defs><path id="path-1" d="M37,21.196 L37,51 L0,51 L0,0 L27.206,0 L37,9.783 L37,21.196 L37,21.196 Z"/></defs><g id="colored" fill="none" fill-rule="evenodd" stroke="none" stroke-width="1"><g id="Formats_sliced" transform="translate(-480.000000, -720.000000)"><g id="Imported-Layers" transform="translate(3.000000, 5.000000)"><g id="Group-796" transform="translate(489.000000, 720.000000)"><mask id="mask-2" fill="#fff"><use xlink:href="#path-1"/></mask><path id="Fill-794" fill="#73C9C9" d="M0,0 L37,0 L37,51 L0,51 L0,0 Z" mask="url(#mask-2)"/></g><path id="Fill-797" fill="#314E55" d="M526,772 L489,772 C488.447,772 488,771.552 488,771 L488,720 C488,719.448 488.447,719 489,719 L516.206,719 C516.471,719 516.726,719.105 516.913,719.292 L526.707,729.075 C526.894,729.263 527,729.517 527,729.783 L527,771 C527,771.552 526.553,772 526,772 L526,772 Z M490,770 L525,770 L525,730.197 L515.792,721 L490,721 L490,770 L490,770 Z"/><path id="Fill-798" fill="#314E55" d="M526,731 L516,731 C515.447,731 515,730.552 515,730 L515,720 C515,719.596 515.243,719.231 515.617,719.076 C515.991,718.922 516.421,719.007 516.707,719.293 L526.707,729.293 C526.993,729.579 527.079,730.009 526.924,730.383 C526.77,730.756 526.404,731 526,731 L526,731 Z M517,729 L523.586,729 L517,722.414 L517,729 L517,729 Z"/><path id="Fill-799" fill="#E9E7D1" d="M495,737 L520,737 L520,765 L495,765 L495,737 Z"/><path id="Fill-801" fill="#314E55" d="M520,766 L495,766 C494.447,766 494,765.552 494,765 L494,737 C494,736.448 494.447,736 495,736 L520,736 C520.553,736 521,736.448 521,737 L521,765 C521,765.552 520.553,766 520,766 L520,766 Z M496,764 L519,764 L519,738 L496,738 L496,764 Z"/><path id="Fill-802" fill="#314E55" d="M501,741 L514.018,741 L514.018,743 L501,743 L501,741 Z"/><path id="Fill-803" fill="#314E55" d="M501,747 L514.018,747 L514.018,749 L501,749 L501,747 Z"/><path id="Fill-804" fill="#314E55" d="M501,753 L514.018,753 L514.018,755 L501,755 L501,753 Z"/><path id="Fill-805" fill="#314E55" d="M501,759 L514.018,759 L514.018,761 L501,761 L501,759 Z"/></g></g></g></svg>