<svg xmlns="http://www.w3.org/2000/svg" xmlns:xlink="http://www.w3.org/1999/xlink" width="60" height="60" version="1.1" viewBox="0 0 60 60"><title>Alarmclock</title><desc>Created with Sketch.</desc><defs><path id="path-1" d="M20,40 C31.046,40 40,31.046 40,20 C40,8.954 31.046,0 20,0 C8.954,0 0,8.954 0,20 C0,31.046 8.954,40 20,40 L20,40 Z"/><path id="path-3" d="M17.044,4.897 C14.559,0.592 9.055,-0.882 4.75,1.603 C0.445,4.088 -1.03,9.592 1.456,13.897 L17.044,4.897"/><path id="path-5" d="M0.956,4.897 C3.441,0.592 8.945,-0.882 13.25,1.603 C17.555,4.088 19.03,9.592 16.544,13.897 L0.956,4.897"/></defs><g id="outlined" fill="none" fill-rule="evenodd" stroke="none" stroke-width="1"><g id="Imported-Layers" transform="translate(-358.000000, -1311.000000)"><g id="Group-2044" transform="translate(369.000000, 1325.000000)"><mask id="mask-2" fill="#fff"><use xlink:href="#path-1"/></mask><path id="Fill-2042" fill="#D8D8D8" d="M0,0 L40,0 L40,40 L0,40 L0,0 Z" mask="url(#mask-2)"/></g><path id="Fill-2045" fill="#314E55" d="M389,1366 C377.42,1366 368,1356.579 368,1345 C368,1333.421 377.42,1324 389,1324 C400.58,1324 410,1333.421 410,1345 C410,1356.579 400.58,1366 389,1366 L389,1366 Z M389,1326 C378.523,1326 370,1334.523 370,1345 C370,1355.477 378.523,1364 389,1364 C399.477,1364 408,1355.477 408,1345 C408,1334.523 399.477,1326 389,1326 L389,1326 Z"/><path id="Fill-2046" fill="#314E55" d="M375,1368 C374.744,1368 374.488,1367.902 374.293,1367.707 C373.902,1367.316 373.902,1366.684 374.293,1366.293 L378.293,1362.293 C378.684,1361.902 379.316,1361.902 379.707,1362.293 C380.098,1362.684 380.098,1363.316 379.707,1363.707 L375.707,1367.707 C375.512,1367.902 375.256,1368 375,1368"/><path id="Fill-2047" fill="#314E55" d="M402,1368 C401.744,1368 401.488,1367.902 401.293,1367.707 L397.293,1363.707 C396.902,1363.316 396.902,1362.684 397.293,1362.293 C397.684,1361.902 398.316,1361.902 398.707,1362.293 L402.707,1366.293 C403.098,1366.684 403.098,1367.316 402.707,1367.707 C402.512,1367.902 402.256,1368 402,1368"/><path id="Fill-2048" fill="#314E55" d="M389.143,1348.064 C389.096,1348.064 389.049,1348.06 389.002,1348.054 L374.854,1346.054 C374.308,1345.977 373.927,1345.471 374.004,1344.924 C374.082,1344.376 374.59,1343.993 375.135,1344.073 L388.688,1345.989 L397.787,1333.476 C398.111,1333.028 398.738,1332.931 399.183,1333.255 C399.63,1333.579 399.729,1334.205 399.404,1334.651 L389.951,1347.651 C389.762,1347.912 389.46,1348.064 389.143,1348.064"/><g id="Group-2051" transform="translate(365.000000, 1317.000000)"><mask id="mask-4" fill="#fff"><use xlink:href="#path-3"/></mask><path id="Fill-2049" fill="#5ECB66" d="M-9.874,4.273 L14.374,-9.727 L23.874,6.727 L-0.374,20.727 L-9.874,4.273" mask="url(#mask-4)"/></g><path id="Fill-2052" fill="#314E55" d="M366.457,1331.897 C366.111,1331.897 365.775,1331.719 365.59,1331.397 C364.254,1329.084 363.899,1326.39 364.591,1323.809 C365.282,1321.228 366.937,1319.072 369.25,1317.736 C370.77,1316.859 372.496,1316.395 374.241,1316.395 C377.807,1316.395 381.129,1318.313 382.911,1321.397 C383.043,1321.627 383.079,1321.9 383.01,1322.156 C382.942,1322.412 382.774,1322.631 382.544,1322.764 L366.956,1331.764 C366.799,1331.854 366.626,1331.897 366.457,1331.897 L366.457,1331.897 Z M374.241,1318.395 C372.846,1318.395 371.466,1318.767 370.25,1319.469 C368.399,1320.537 367.076,1322.263 366.522,1324.326 C366.057,1326.065 366.185,1327.869 366.875,1329.501 L380.624,1321.563 C379.123,1319.588 376.758,1318.395 374.241,1318.395 L374.241,1318.395 Z"/><g id="Group-2055" transform="translate(395.000000, 1317.000000)"><mask id="mask-6" fill="#fff"><use xlink:href="#path-5"/></mask><path id="Fill-2053" fill="#5ECB66" d="M27.874,4.273 L3.626,-9.727 L-5.874,6.727 L18.374,20.727 L27.874,4.273" mask="url(#mask-6)"/></g><path id="Fill-2056" fill="#314E55" d="M411.543,1331.897 C411.374,1331.897 411.202,1331.854 411.044,1331.764 L395.456,1322.764 C395.226,1322.631 395.058,1322.412 394.99,1322.156 C394.921,1321.9 394.957,1321.627 395.089,1321.397 C396.871,1318.313 400.193,1316.395 403.759,1316.395 C405.504,1316.395 407.23,1316.859 408.75,1317.736 C411.064,1319.072 412.718,1321.228 413.409,1323.809 C414.101,1326.39 413.746,1329.084 412.41,1331.397 C412.225,1331.719 411.889,1331.897 411.543,1331.897 L411.543,1331.897 Z M397.376,1321.563 L411.125,1329.501 C411.815,1327.869 411.943,1326.065 411.478,1324.326 C410.924,1322.263 409.601,1320.537 407.75,1319.469 C406.534,1318.767 405.154,1318.395 403.759,1318.395 C401.242,1318.395 398.877,1319.588 397.376,1321.563 L397.376,1321.563 Z"/><path id="Fill-2057" fill="#314E55" d="M388,1328 L390,1328 L390,1332 L388,1332 L388,1328 Z"/><path id="Fill-2058" fill="#314E55" d="M388,1358 L390,1358 L390,1362 L388,1362 L388,1358 Z"/></g></g></svg>