<svg xmlns="http://www.w3.org/2000/svg" xmlns:xlink="http://www.w3.org/1999/xlink" width="60" height="60" version="1.1" viewBox="0 0 60 60"><title>Squarelist</title><desc>Created with Sketch.</desc><g id="outlined" fill="none" fill-rule="evenodd" stroke="none" stroke-width="1"><g id="Interface_sliced" transform="translate(-480.000000, 0.000000)"><g id="Imported-Layers" transform="translate(2.000000, 4.000000)"><path id="Fill-58" fill="#5ECB66" d="M486,7 L494,7 L494,13 L486,13 L486,7 Z"/><path id="Fill-60" fill="#314E55" d="M494,14 L486,14 C485.447,14 485,13.552 485,13 L485,7 C485,6.448 485.447,6 486,6 L494,6 C494.553,6 495,6.448 495,7 L495,13 C495,13.552 494.553,14 494,14 L494,14 Z M487,12 L493,12 L493,8 L487,8 L487,12 Z"/><path id="Fill-61" fill="#5ECB66" d="M486,25 L494,25 L494,31 L486,31 L486,25 Z"/><path id="Fill-63" fill="#314E55" d="M494,32 L486,32 C485.447,32 485,31.552 485,31 L485,25 C485,24.448 485.447,24 486,24 L494,24 C494.553,24 495,24.448 495,25 L495,31 C495,31.552 494.553,32 494,32 L494,32 Z M487,30 L493,30 L493,26 L487,26 L487,30 Z"/><path id="Fill-64" fill="#5ECB66" d="M486,43 L494,43 L494,49 L486,49 L486,43 Z"/><path id="Fill-66" fill="#314E55" d="M494,50 L486,50 C485.447,50 485,49.552 485,49 L485,43 C485,42.448 485.447,42 486,42 L494,42 C494.553,42 495,42.448 495,43 L495,49 C495,49.552 494.553,50 494,50 L494,50 Z M487,48 L493,48 L493,44 L487,44 L487,48 Z"/><path id="Fill-67" fill="#314E55" d="M498,9 L532.016,9 L532.016,11 L498,11 L498,9 Z"/><path id="Fill-68" fill="#314E55" d="M498,27 L532.016,27 L532.016,29 L498,29 L498,27 Z"/><path id="Fill-69" fill="#314E55" d="M498,45 L532.016,45 L532.016,47 L498,47 L498,45 Z"/></g></g></g></svg>