<?xml version="1.0" encoding="UTF-8"?>
<svg width="68px" height="68px" viewBox="0 0 68 68" version="1.1" xmlns="http://www.w3.org/2000/svg" xmlns:xlink="http://www.w3.org/1999/xlink">
    <!-- Generator: Sketch 41.2 (35397) - http://www.bohemiancoding.com/sketch -->
    <title>Group 2</title>
    <desc>Created with Sketch.</desc>
    <defs>
        <polygon id="path-1" points="0.38 8.35185185 9.88 8.35185185 4.94 0"></polygon>
        <path d="M0,5.31481481 C1.67884,5.31481481 3.04,4.12505556 3.04,2.65740741 L3.04,2.65740741 C3.04,1.18975926 1.67884,0 0,0 L0,0 L0,5.31481481 Z" id="path-3"></path>
        <path d="M0,2.65740741 C0,4.12505556 1.36116,5.31481481 3.04,5.31481481 L3.04,5.31481481 L3.04,0 C1.36116,0 0,1.18975926 0,2.65740741 L0,2.65740741 Z" id="path-5"></path>
        <polygon id="path-7" points="0 3.7962963 7.6 3.7962963 7.6 0 0 0"></polygon>
        <polygon id="path-9" points="0 8.35185185 9.5 8.35185185 4.94 0"></polygon>
        <path d="M0,0 L0,7.97222222 C0,12.3759259 3.57276,15.9444444 7.98076,15.9444444 L7.98076,15.9444444 L11.78,15.9444444 C16.18192,15.9444444 19.76,12.3751667 19.76,7.97222222 L19.76,7.97222222 L19.76,0 L0,0 Z" id="path-11"></path>
        <path d="M3.0476,0 C1.36344,0 0,1.35983333 0,3.03703704 L0,3.03703704 L0,6.07407407 L36.48,6.07407407 L36.48,3.03703704 C36.48,1.36362963 35.1158,0 33.4324,0 L33.4324,0 L3.0476,0 Z" id="path-13"></path>
        <polygon id="path-15" points="0 0 8.36 6.07407407 16.72 0"></polygon>
        <path d="M3.79848,0 C1.7024,0 0,1.69618519 0,3.7887037 L0,3.7887037 L0,13.6666667 L19.76,13.6666667 L19.76,3.7887037 C19.76,1.70301852 18.05912,0 15.96228,0 L15.96228,0 L3.79848,0 Z" id="path-17"></path>
        <polygon id="path-19" points="2.28 0 2.28 2.27777778 0 2.27777778 0 5.31481481 2.28 5.31481481 2.28 7.59259259 5.32 7.59259259 5.32 5.31481481 7.6 5.31481481 7.6 2.27777778 5.32 2.27777778 5.32 0"></polygon>
    </defs>
    <g id="Marketing" stroke="none" stroke-width="1" fill="none" fill-rule="evenodd">
        <g id="Desktop" transform="translate(-478.000000, -49.000000)">
            <g id="Group-2" transform="translate(479.000000, 50.000000)">
                <circle id="Oval" stroke="#D9D9D9" fill="#384148" cx="33" cy="33" r="33"></circle>
                <g id="monica-logo" transform="translate(14.000000, 12.000000)">
                    <g id="Nurse">
                        <g id="colored">
                            <g id="Page-1">
                                <g id="Group-2820" transform="translate(3.800000, 21.259259)">
                                    <g id="Fill-2818-Clipped">
                                        <mask id="mask-2" fill="white">
                                            <use xlink:href="#path-1"></use>
                                        </mask>
                                        <g id="path-139"></g>
                                        <polygon id="Fill-2818" fill="#E4AD4B" mask="url(#mask-2)" points="-3.42 -3.7962963 13.68 -3.7962963 13.68 12.1481481 -3.42 12.1481481"></polygon>
                                    </g>
                                </g>
                                <path d="M13.68,30.3703704 L4.18,30.3703704 C3.91172,30.3703704 3.6632,30.2283889 3.5264,29.9990926 C3.3896,29.7682778 3.38428,29.4827963 3.51272,29.2474259 L8.07272,20.8955741 C8.27412,20.5280926 8.73468,20.3914259 9.10404,20.5926296 C9.47264,20.7938333 9.60868,21.2547037 9.40728,21.6229444 L5.4606,28.8518519 L13.68,28.8518519 C14.09952,28.8518519 14.44,29.1912407 14.44,29.6111111 C14.44,30.0309815 14.09952,30.3703704 13.68,30.3703704" id="Fill-2821" fill="#334F55"></path>
                                <g id="Group-2825" transform="translate(28.880000, 15.185185)">
                                    <g id="Fill-2823-Clipped">
                                        <mask id="mask-4" fill="white">
                                            <use xlink:href="#path-3"></use>
                                        </mask>
                                        <g id="path-141"></g>
                                        <polygon id="Fill-2823" fill="#EBE8D2" mask="url(#mask-4)" points="-3.8 -3.7962963 6.84 -3.7962963 6.84 9.11111111 -3.8 9.11111111"></polygon>
                                    </g>
                                </g>
                                <path d="M28.88,21.2592593 L28.12,21.2592593 L28.12,19.7407407 L28.88,19.7407407 C30.13704,19.7407407 31.16,18.8896111 31.16,17.8425926 C31.16,16.7955741 30.13704,15.9444444 28.88,15.9444444 L28.12,15.9444444 L28.12,14.4259259 L28.88,14.4259259 C30.97532,14.4259259 32.68,15.9588704 32.68,17.8425926 C32.68,19.7263148 30.97532,21.2592593 28.88,21.2592593" id="Fill-2826" fill="#334F55"></path>
                                <g id="Group-2830" transform="translate(6.080000, 15.185185)">
                                    <g id="Fill-2828-Clipped">
                                        <mask id="mask-6" fill="white">
                                            <use xlink:href="#path-5"></use>
                                        </mask>
                                        <g id="path-143"></g>
                                        <polygon id="Fill-2828" fill="#EBE8D2" mask="url(#mask-6)" points="6.84 -3.7962963 -3.8 -3.7962963 -3.8 9.11111111 6.84 9.11111111"></polygon>
                                    </g>
                                </g>
                                <path d="M9.88,21.2592593 L9.12,21.2592593 C7.02468,21.2592593 5.32,19.7263148 5.32,17.8425926 C5.32,15.9588704 7.02468,14.4259259 9.12,14.4259259 L9.88,14.4259259 L9.88,15.9444444 L9.12,15.9444444 C7.86296,15.9444444 6.84,16.7955741 6.84,17.8425926 C6.84,18.8896111 7.86296,19.7407407 9.12,19.7407407 L9.88,19.7407407 L9.88,21.2592593 Z" id="Fill-2831" fill="#334F55"></path>
                                <g id="Group-2835" transform="translate(15.200000, 30.370370)">
                                    <g id="Fill-2833-Clipped">
                                        <mask id="mask-8" fill="white">
                                            <use xlink:href="#path-7"></use>
                                        </mask>
                                        <g id="path-145"></g>
                                        <polygon id="Fill-2833" fill="#EBE8D2" mask="url(#mask-8)" points="-3.8 -3.7962963 11.4 -3.7962963 11.4 7.59259259 -3.8 7.59259259"></polygon>
                                    </g>
                                </g>
                                <path d="M22.8,34.9259259 L15.2,34.9259259 C14.78048,34.9259259 14.44,34.586537 14.44,34.1666667 L14.44,29.6111111 L15.96,29.6111111 L15.96,33.4074074 L22.04,33.4074074 L22.04,29.6111111 L23.56,29.6111111 L23.56,34.1666667 C23.56,34.586537 23.21952,34.9259259 22.8,34.9259259" id="Fill-2836" fill="#334F55"></path>
                                <g id="Group-2840" transform="translate(24.320000, 21.259259)">
                                    <g id="Fill-2838-Clipped">
                                        <mask id="mask-10" fill="white">
                                            <use xlink:href="#path-9"></use>
                                        </mask>
                                        <g id="path-147"></g>
                                        <polygon id="Fill-2838" fill="#E4AD4B" mask="url(#mask-10)" points="13.3 -3.7962963 -3.8 -3.7962963 -3.8 12.1481481 13.3 12.1481481"></polygon>
                                    </g>
                                </g>
                                <path d="M33.82,30.3703704 L24.32,30.3703704 C23.90048,30.3703704 23.56,30.0309815 23.56,29.6111111 C23.56,29.1912407 23.90048,28.8518519 24.32,28.8518519 L32.5394,28.8518519 L28.59272,21.6229444 C28.39132,21.2547037 28.52736,20.7938333 28.89596,20.5926296 C29.26608,20.3914259 29.72588,20.5280926 29.92728,20.8955741 L34.48728,29.2474259 C34.61572,29.4827963 34.6104,29.7682778 34.4736,29.9990926 C34.3368,30.2283889 34.08828,30.3703704 33.82,30.3703704" id="Fill-2841" fill="#334F55"></path>
                                <g id="Group-2845" transform="translate(9.120000, 14.425926)">
                                    <g id="Fill-2843-Clipped">
                                        <mask id="mask-12" fill="white">
                                            <use xlink:href="#path-11"></use>
                                        </mask>
                                        <g id="path-149"></g>
                                        <polygon id="Fill-2843" fill="#EBE8D2" mask="url(#mask-12)" points="-3.8 -3.7962963 23.56 -3.7962963 23.56 19.7407407 -3.8 19.7407407"></polygon>
                                    </g>
                                </g>
                                <g id="Group-2852" transform="translate(8.360000, 13.666667)" fill="#334F55">
                                    <path d="M1.52,1.51851852 L1.52,8.73148148 C1.52,12.7084815 4.75912,15.9444444 8.74,15.9444444 L12.54,15.9444444 C16.52088,15.9444444 19.76,12.7084815 19.76,8.73148148 L19.76,1.51851852 L1.52,1.51851852 Z M12.54,17.462963 L8.74,17.462963 C3.92084,17.462963 0,13.5459444 0,8.73148148 L0,0.759259259 C0,0.339388889 0.34048,0 0.76,0 L20.52,0 C20.93952,0 21.28,0.339388889 21.28,0.759259259 L21.28,8.73148148 C21.28,13.5459444 17.35916,17.462963 12.54,17.462963 L12.54,17.462963 Z" id="Fill-2846"></path>
                                    <path d="M10.64,13.6666667 C8.96344,13.6666667 7.6,12.3045556 7.6,10.6296296 L7.6,9.87037037 L9.12,9.87037037 L9.12,10.6296296 C9.12,11.4670926 9.80172,12.1481481 10.64,12.1481481 C11.47828,12.1481481 12.16,11.4670926 12.16,10.6296296 L12.16,9.87037037 L13.68,9.87037037 L13.68,10.6296296 C13.68,12.3045556 12.31656,13.6666667 10.64,13.6666667" id="Fill-2848"></path>
                                    <path d="M5.32,5.31481481 C4.48172,5.31481481 3.8,4.63375926 3.8,3.7962963 C3.8,2.95883333 4.48172,2.27777778 5.32,2.27777778 C6.15828,2.27777778 6.84,2.95883333 6.84,3.7962963 C6.84,4.63375926 6.15828,5.31481481 5.32,5.31481481" id="Fill-2850"></path>
                                </g>
                                <g id="Group-2855" transform="translate(0.760000, 34.166667)">
                                    <g id="Fill-2853-Clipped">
                                        <mask id="mask-14" fill="white">
                                            <use xlink:href="#path-13"></use>
                                        </mask>
                                        <g id="path-151"></g>
                                        <polygon id="Fill-2853" fill="#EBEBEB" mask="url(#mask-14)" points="-3.8 -3.7962963 40.28 -3.7962963 40.28 9.87037037 -3.8 9.87037037"></polygon>
                                    </g>
                                </g>
                                <path d="M1.52,39.4814815 L36.48,39.4814815 L36.48,37.2037037 C36.48,35.9478889 35.454,34.9259259 34.1924,34.9259259 L3.8076,34.9259259 C2.546,34.9259259 1.52,35.9478889 1.52,37.2037037 L1.52,39.4814815 Z M37.24,41 L0.76,41 C0.34048,41 0,40.6606111 0,40.2407407 L0,37.2037037 C0,35.1104259 1.70848,33.4074074 3.8076,33.4074074 L34.1924,33.4074074 C36.29152,33.4074074 38,35.1104259 38,37.2037037 L38,40.2407407 C38,40.6606111 37.65952,41 37.24,41 L37.24,41 Z" id="Fill-2856" fill="#334F55"></path>
                                <g id="Group-2860" transform="translate(10.640000, 34.166667)">
                                    <g id="Fill-2858-Clipped">
                                        <mask id="mask-16" fill="white">
                                            <use xlink:href="#path-15"></use>
                                        </mask>
                                        <g id="path-153"></g>
                                        <polygon id="Fill-2858" fill="#EBE8D2" mask="url(#mask-16)" points="-3.8 9.87037037 20.52 9.87037037 20.52 -3.7962963 -3.8 -3.7962963"></polygon>
                                    </g>
                                </g>
                                <g id="Group-2865" transform="translate(9.880000, 15.944444)" fill="#334F55">
                                    <path d="M3.097152,18.9814815 L9.120152,23.3578519 L15.143152,18.9814815 L3.097152,18.9814815 Z M9.120152,25.0555556 C8.962832,25.0555556 8.806272,25.0077222 8.672512,24.910537 L0.312512,18.836463 C0.046512,18.6428519 -0.064448,18.3004259 0.037392,17.9868519 C0.139232,17.6747963 0.431072,17.462963 0.760152,17.462963 L17.480152,17.462963 C17.809232,17.462963 18.101072,17.6747963 18.202912,17.9868519 C18.304752,18.3004259 18.193032,18.6428519 17.927032,18.836463 L9.567032,24.910537 C9.434032,25.0077222 9.276712,25.0555556 9.120152,25.0555556 L9.120152,25.0555556 Z" id="Fill-2861"></path>
                                    <path d="M14.44,3.03703704 C13.60172,3.03703704 12.92,2.35598148 12.92,1.51851852 C12.92,0.681055556 13.60172,0 14.44,0 C15.27828,0 15.96,0.681055556 15.96,1.51851852 C15.96,2.35598148 15.27828,3.03703704 14.44,3.03703704" id="Fill-2863"></path>
                                </g>
                                <g id="Group-2868" transform="translate(9.120000, 0.759259)">
                                    <g id="Fill-2866-Clipped">
                                        <mask id="mask-18" fill="white">
                                            <use xlink:href="#path-17"></use>
                                        </mask>
                                        <g id="path-155"></g>
                                        <polygon id="Fill-2866" fill="#EBEBEB" mask="url(#mask-18)" points="-3.8 -3.7962963 23.56 -3.7962963 23.56 17.462963 -3.8 17.462963"></polygon>
                                    </g>
                                </g>
                                <path d="M9.88,13.6666667 L28.12,13.6666667 L28.12,4.54796296 C28.12,2.87759259 26.75732,1.51851852 25.08152,1.51851852 L12.91848,1.51851852 C11.24268,1.51851852 9.88,2.87759259 9.88,4.54796296 L9.88,13.6666667 Z M28.88,15.1851852 L9.12,15.1851852 C8.70048,15.1851852 8.36,14.8457963 8.36,14.4259259 L8.36,4.54796296 C8.36,2.04012963 10.4044,0 12.91848,0 L25.08152,0 C27.5956,0 29.64,2.04012963 29.64,4.54796296 L29.64,14.4259259 C29.64,14.8457963 29.29952,15.1851852 28.88,15.1851852 L28.88,15.1851852 Z" id="Fill-2869" fill="#334F55"></path>
                                <g id="Group-2873" transform="translate(15.200000, 3.796296)">
                                    <g id="Fill-2871-Clipped">
                                        <mask id="mask-20" fill="white">
                                            <use xlink:href="#path-19"></use>
                                        </mask>
                                        <g id="path-157"></g>
                                        <polygon id="Fill-2871" fill="#E6D764" mask="url(#mask-20)" points="-3.8 -3.7962963 11.4 -3.7962963 11.4 11.3888889 -3.8 11.3888889"></polygon>
                                    </g>
                                </g>
                                <path d="M18.24,10.6296296 L19.76,10.6296296 L19.76,9.11111111 C19.76,8.69124074 20.10048,8.35185185 20.52,8.35185185 L22.04,8.35185185 L22.04,6.83333333 L20.52,6.83333333 C20.10048,6.83333333 19.76,6.49394444 19.76,6.07407407 L19.76,4.55555556 L18.24,4.55555556 L18.24,6.07407407 C18.24,6.49394444 17.89952,6.83333333 17.48,6.83333333 L15.96,6.83333333 L15.96,8.35185185 L17.48,8.35185185 C17.89952,8.35185185 18.24,8.69124074 18.24,9.11111111 L18.24,10.6296296 Z M20.52,12.1481481 L17.48,12.1481481 C17.06048,12.1481481 16.72,11.8087593 16.72,11.3888889 L16.72,9.87037037 L15.2,9.87037037 C14.78048,9.87037037 14.44,9.53098148 14.44,9.11111111 L14.44,6.07407407 C14.44,5.6542037 14.78048,5.31481481 15.2,5.31481481 L16.72,5.31481481 L16.72,3.7962963 C16.72,3.37642593 17.06048,3.03703704 17.48,3.03703704 L20.52,3.03703704 C20.93952,3.03703704 21.28,3.37642593 21.28,3.7962963 L21.28,5.31481481 L22.8,5.31481481 C23.21952,5.31481481 23.56,5.6542037 23.56,6.07407407 L23.56,9.11111111 C23.56,9.53098148 23.21952,9.87037037 22.8,9.87037037 L21.28,9.87037037 L21.28,11.3888889 C21.28,11.8087593 20.93952,12.1481481 20.52,12.1481481 L20.52,12.1481481 Z" id="Fill-2874" fill="#334F55"></path>
                            </g>
                        </g>
                    </g>
                </g>
            </g>
        </g>
    </g>
</svg>