<?xml version="1.0" encoding="UTF-8" standalone="no"?>
<svg width="60px" height="60px" viewBox="0 0 60 60" version="1.1" xmlns="http://www.w3.org/2000/svg" xmlns:xlink="http://www.w3.org/1999/xlink" xmlns:sketch="http://www.bohemiancoding.com/sketch/ns">
    <!-- Generator: Sketch 3.4.4 (17249) - http://www.bohemiancoding.com/sketch -->
    <title>Nurse</title>
    <desc>Created with Sketch.</desc>
    <defs>
        <path id="path-1" d="M0,0 L908,0 L908,1505 L0,1505 L0,0 Z"></path>
        <path id="path-3" d="M0,0 L908,0 L908,1505 L0,1505 L0,0 Z"></path>
        <path id="path-5" d="M0,0 L908,0 L908,1505 L0,1505 L0,0 Z"></path>
        <path id="path-7" d="M0,0 L908,0 L908,1505 L0,1505 L0,0 Z"></path>
        <path id="path-9" d="M0,0 L908,0 L908,1505 L0,1505 L0,0 Z"></path>
        <path id="path-11" d="M0,0 L908,0 L908,1505 L0,1505 L0,0 Z"></path>
        <path id="path-13" d="M0,0 L908,0 L908,1505 L0,1505 L0,0 Z"></path>
        <path id="path-15" d="M0,0 L908,0 L908,1505 L0,1505 L0,0 Z"></path>
        <path id="path-17" d="M0,0 L908,0 L908,1505 L0,1505 L0,0 Z"></path>
        <path id="path-19" d="M0,0 L908,0 L908,1505 L0,1505 L0,0 Z"></path>
        <path id="path-21" d="M0,0 L908,0 L908,1505 L0,1505 L0,0 Z"></path>
        <path id="path-23" d="M0,0 L908,0 L908,1505 L0,1505 L0,0 Z"></path>
        <path id="path-25" d="M0,0 L908,0 L908,1505 L0,1505 L0,0 Z"></path>
        <path id="path-27" d="M0,0 L908,0 L908,1505 L0,1505 L0,0 Z"></path>
        <path id="path-29" d="M0,0 L908,0 L908,1505 L0,1505 L0,0 Z"></path>
        <path id="path-31" d="M0,0 L908,0 L908,1505 L0,1505 L0,0 Z"></path>
        <path id="path-33" d="M0,0 L908,0 L908,1505 L0,1505 L0,0 Z"></path>
        <path id="path-35" d="M0,0 L908,0 L908,1505 L0,1505 L0,0 Z"></path>
        <path id="path-37" d="M0,0 L908,0 L908,1505 L0,1505 L0,0 Z"></path>
        <path id="path-39" d="M0,0 L908,0 L908,1505 L0,1505 L0,0 Z"></path>
        <path id="path-41" d="M0,0 L908,0 L908,1505 L0,1505 L0,0 Z"></path>
        <path id="path-43" d="M0,0 L908,0 L908,1505 L0,1505 L0,0 Z"></path>
        <path id="path-45" d="M0,0 L908,0 L908,1505 L0,1505 L0,0 Z"></path>
        <path id="path-47" d="M0,0 L908,0 L908,1505 L0,1505 L0,0 Z"></path>
        <path id="path-49" d="M0,0 L908,0 L908,1505 L0,1505 L0,0 Z"></path>
        <path id="path-51" d="M0,0 L908,0 L908,1505 L0,1505 L0,0 Z"></path>
        <path id="path-53" d="M0,0 L908,0 L908,1505 L0,1505 L0,0 Z"></path>
        <path id="path-55" d="M0,0 L908,0 L908,1505 L0,1505 L0,0 Z"></path>
        <path id="path-57" d="M0,0 L908,0 L908,1505 L0,1505 L0,0 Z"></path>
        <path id="path-59" d="M0,0 L908,0 L908,1505 L0,1505 L0,0 Z"></path>
        <path id="path-61" d="M0,0 L908,0 L908,1505 L0,1505 L0,0 Z"></path>
        <path id="path-63" d="M0,0 L908,0 L908,1505 L0,1505 L0,0 Z"></path>
        <path id="path-65" d="M0,0 L908,0 L908,1505 L0,1505 L0,0 Z"></path>
        <path id="path-67" d="M0,0 L908,0 L908,1505 L0,1505 L0,0 Z"></path>
        <path id="path-69" d="M0,0 L908,0 L908,1505 L0,1505 L0,0 Z"></path>
        <path id="path-71" d="M0,0 L908,0 L908,1505 L0,1505 L0,0 Z"></path>
        <path id="path-73" d="M0,0 L908,0 L908,1505 L0,1505 L0,0 Z"></path>
        <path id="path-75" d="M0,0 L908,0 L908,1505 L0,1505 L0,0 Z"></path>
        <path id="path-77" d="M0,0 L908,0 L908,1505 L0,1505 L0,0 Z"></path>
        <path id="path-79" d="M0,0 L908,0 L908,1505 L0,1505 L0,0 Z"></path>
        <path id="path-81" d="M0,0 L908,0 L908,1505 L0,1505 L0,0 Z"></path>
        <path id="path-83" d="M0,0 L908,0 L908,1505 L0,1505 L0,0 Z"></path>
        <path id="path-85" d="M0,0 L908,0 L908,1505 L0,1505 L0,0 Z"></path>
        <path id="path-87" d="M0,0 L908,0 L908,1505 L0,1505 L0,0 Z"></path>
        <path id="path-89" d="M0,0 L908,0 L908,1505 L0,1505 L0,0 Z"></path>
        <path id="path-91" d="M0,0 L908,0 L908,1505 L0,1505 L0,0 Z"></path>
        <path id="path-93" d="M0,0 L908,0 L908,1505 L0,1505 L0,0 Z"></path>
        <path id="path-95" d="M0,0 L908,0 L908,1505 L0,1505 L0,0 Z"></path>
        <path id="path-97" d="M0,0 L908,0 L908,1505 L0,1505 L0,0 Z"></path>
        <path id="path-99" d="M0,0 L908,0 L908,1505 L0,1505 L0,0 Z"></path>
        <path id="path-101" d="M0,0 L908,0 L908,1505 L0,1505 L0,0 Z"></path>
        <path id="path-103" d="M0,0 L908,0 L908,1505 L0,1505 L0,0 Z"></path>
        <path id="path-105" d="M0,0 L908,0 L908,1505 L0,1505 L0,0 Z"></path>
        <path id="path-107" d="M0,0 L908,0 L908,1505 L0,1505 L0,0 Z"></path>
        <path id="path-109" d="M0,0 L908,0 L908,1505 L0,1505 L0,0 Z"></path>
        <path id="path-111" d="M0,0 L908,0 L908,1505 L0,1505 L0,0 Z"></path>
        <path id="path-113" d="M0,0 L908,0 L908,1505 L0,1505 L0,0 Z"></path>
        <path id="path-115" d="M0,0 L908,0 L908,1505 L0,1505 L0,0 Z"></path>
        <path id="path-117" d="M0,0 L908,0 L908,1505 L0,1505 L0,0 Z"></path>
        <path id="path-119" d="M0,0 L908,0 L908,1505 L0,1505 L0,0 Z"></path>
        <path id="path-121" d="M0,0 L908,0 L908,1505 L0,1505 L0,0 Z"></path>
        <path id="path-123" d="M0,0 L908,0 L908,1505 L0,1505 L0,0 Z"></path>
        <path id="path-125" d="M0,0 L908,0 L908,1505 L0,1505 L0,0 Z"></path>
        <path id="path-127" d="M0,0 L908,0 L908,1505 L0,1505 L0,0 Z"></path>
        <path id="path-129" d="M0,0 L908,0 L908,1505 L0,1505 L0,0 Z"></path>
        <path id="path-131" d="M0,0 L908,0 L908,1505 L0,1505 L0,0 Z"></path>
        <path id="path-133" d="M0,0 L908,0 L908,1505 L0,1505 L0,0 Z"></path>
        <path id="path-135" d="M0,0 L908,0 L908,1505 L0,1505 L0,0 Z"></path>
        <path id="path-137" d="M0,0 L908,0 L908,1505 L0,1505 L0,0 Z"></path>
        <path id="path-139" d="M0.5,11 L13,11 L6.5,0 L0.5,11 Z"></path>
        <path id="path-141" d="M0,7 C2.209,7 4,5.433 4,3.5 L4,3.5 C4,1.567 2.209,0 0,0 L0,0 L0,7 Z"></path>
        <path id="path-143" d="M0,3.5 C0,5.433 1.791,7 4,7 L4,7 L4,0 C1.791,0 0,1.567 0,3.5 L0,3.5 Z"></path>
        <path id="path-145" d="M0,5 L10,5 L10,0 L0,0 L0,5 Z"></path>
        <path id="path-147" d="M0,11 L12.5,11 L6.5,0 L0,11 Z"></path>
        <path id="path-149" d="M0,0 L0,10.5 C0,16.3 4.701,21 10.501,21 L10.501,21 L15.5,21 C21.292,21 26,16.299 26,10.5 L26,10.5 L26,0 L0,0 Z"></path>
        <path id="path-151" d="M4.01,0 C1.794,0 0,1.791 0,4 L0,4 L0,8 L48,8 L48,4 C48,1.796 46.205,0 43.99,0 L43.99,0 L4.01,0 Z"></path>
        <path id="path-153" d="M0,0 L11,8 L22,0 L0,0 Z"></path>
        <path id="path-155" d="M4.998,0 C2.24,0 0,2.234 0,4.99 L0,4.99 L0,18 L26,18 L26,4.99 C26,2.243 23.762,0 21.003,0 L21.003,0 L4.998,0 Z"></path>
        <path id="path-157" d="M3,0 L3,3 L0,3 L0,7 L3,7 L3,10 L7,10 L7,7 L10,7 L10,3 L7,3 L7,0 L3,0 Z"></path>
        <path id="path-159" d="M0,0 L908,0 L908,1505 L0,1505 L0,0 Z"></path>
        <path id="path-161" d="M0,0 L908,0 L908,1505 L0,1505 L0,0 Z"></path>
        <path id="path-163" d="M0,0 L908,0 L908,1505 L0,1505 L0,0 Z"></path>
        <path id="path-165" d="M0,0 L908,0 L908,1505 L0,1505 L0,0 Z"></path>
        <path id="path-167" d="M0,0 L908,0 L908,1505 L0,1505 L0,0 Z"></path>
        <path id="path-169" d="M0,0 L908,0 L908,1505 L0,1505 L0,0 Z"></path>
        <path id="path-171" d="M0,0 L908,0 L908,1505 L0,1505 L0,0 Z"></path>
        <path id="path-173" d="M0,0 L908,0 L908,1505 L0,1505 L0,0 Z"></path>
        <path id="path-175" d="M0,0 L908,0 L908,1505 L0,1505 L0,0 Z"></path>
        <path id="path-177" d="M0,0 L908,0 L908,1505 L0,1505 L0,0 Z"></path>
        <path id="path-179" d="M0,0 L908,0 L908,1505 L0,1505 L0,0 Z"></path>
        <path id="path-181" d="M0,0 L908,0 L908,1505 L0,1505 L0,0 Z"></path>
        <path id="path-183" d="M0,0 L908,0 L908,1505 L0,1505 L0,0 Z"></path>
    </defs>
    <g id="colored" stroke="none" stroke-width="1" fill="none" fill-rule="evenodd" sketch:type="MSPage">
        <g id="Page-1" sketch:type="MSLayerGroup" transform="translate(-124.000000, -1201.000000)">
            <g id="Group-20">
                <mask id="mask-2" sketch:name="Clip 17" fill="white">
                    <use xlink:href="#path-1"></use>
                </mask>
                <g id="Clip-17"></g>
            </g>
            <g id="Group-29"></g>
            <g id="Group-38">
                <mask id="mask-4" sketch:name="Clip 36" fill="white">
                    <use xlink:href="#path-3"></use>
                </mask>
                <g id="Clip-36"></g>
            </g>
            <g id="Group-50">
                <mask id="mask-6" sketch:name="Clip 45" fill="white">
                    <use xlink:href="#path-5"></use>
                </mask>
                <g id="Clip-45"></g>
            </g>
            <g id="Group-66">
                <mask id="mask-8" sketch:name="Clip 64" fill="white">
                    <use xlink:href="#path-7"></use>
                </mask>
                <g id="Clip-64"></g>
            </g>
            <g id="Group-94">
                <mask id="mask-10" sketch:name="Clip 91" fill="white">
                    <use xlink:href="#path-9"></use>
                </mask>
                <g id="Clip-91"></g>
            </g>
            <g id="Group-118">
                <mask id="mask-12" sketch:name="Clip 114" fill="white">
                    <use xlink:href="#path-11"></use>
                </mask>
                <g id="Clip-114"></g>
            </g>
            <g id="Group-143">
                <mask id="mask-14" sketch:name="Clip 140" fill="white">
                    <use xlink:href="#path-13"></use>
                </mask>
                <g id="Clip-140"></g>
            </g>
            <g id="Group-157"></g>
            <g id="Group-166">
                <mask id="mask-16" sketch:name="Clip 164" fill="white">
                    <use xlink:href="#path-15"></use>
                </mask>
                <g id="Clip-164"></g>
            </g>
            <g id="Group-178">
                <mask id="mask-18" sketch:name="Clip 173" fill="white">
                    <use xlink:href="#path-17"></use>
                </mask>
                <g id="Clip-173"></g>
            </g>
            <g id="Group-197">
                <mask id="mask-20" sketch:name="Clip 195" fill="white">
                    <use xlink:href="#path-19"></use>
                </mask>
                <g id="Clip-195"></g>
            </g>
            <g id="Group-206">
                <mask id="mask-22" sketch:name="Clip 204" fill="white">
                    <use xlink:href="#path-21"></use>
                </mask>
                <g id="Clip-204"></g>
            </g>
            <g id="Group-215">
                <mask id="mask-24" sketch:name="Clip 213" fill="white">
                    <use xlink:href="#path-23"></use>
                </mask>
                <g id="Clip-213"></g>
            </g>
            <g id="Group-224"></g>
            <g id="Group-250">
                <mask id="mask-26" sketch:name="Clip 249" fill="white">
                    <use xlink:href="#path-25"></use>
                </mask>
                <g id="Clip-249"></g>
            </g>
            <g id="Group-258">
                <mask id="mask-28" sketch:name="Clip 257" fill="white">
                    <use xlink:href="#path-27"></use>
                </mask>
                <g id="Clip-257"></g>
            </g>
            <g id="Group-266">
                <mask id="mask-30" sketch:name="Clip 265" fill="white">
                    <use xlink:href="#path-29"></use>
                </mask>
                <g id="Clip-265"></g>
            </g>
            <g id="Group-274"></g>
            <g id="Group-310">
                <mask id="mask-32" sketch:name="Clip 303" fill="white">
                    <use xlink:href="#path-31"></use>
                </mask>
                <g id="Clip-303"></g>
            </g>
            <g id="Group-323">
                <mask id="mask-34" sketch:name="Clip 321" fill="white">
                    <use xlink:href="#path-33"></use>
                </mask>
                <g id="Clip-321"></g>
            </g>
            <g id="Group-336">
                <mask id="mask-36" sketch:name="Clip 335" fill="white">
                    <use xlink:href="#path-35"></use>
                </mask>
                <g id="Clip-335"></g>
            </g>
            <g id="Group-359">
                <mask id="mask-38" sketch:name="Clip 358" fill="white">
                    <use xlink:href="#path-37"></use>
                </mask>
                <g id="Clip-358"></g>
            </g>
            <g id="Group-367">
                <mask id="mask-40" sketch:name="Clip 366" fill="white">
                    <use xlink:href="#path-39"></use>
                </mask>
                <g id="Clip-366"></g>
            </g>
            <g id="Group-380"></g>
            <g id="Group-418"></g>
            <g id="Group-438">
                <mask id="mask-42" sketch:name="Clip 434" fill="white">
                    <use xlink:href="#path-41"></use>
                </mask>
                <g id="Clip-434"></g>
            </g>
            <g id="Group-461">
                <mask id="mask-44" sketch:name="Clip 455" fill="white">
                    <use xlink:href="#path-43"></use>
                </mask>
                <g id="Clip-455"></g>
            </g>
            <g id="Group-472">
                <mask id="mask-46" sketch:name="Clip 468" fill="white">
                    <use xlink:href="#path-45"></use>
                </mask>
                <g id="Clip-468"></g>
            </g>
            <g id="Group-485">
                <mask id="mask-48" sketch:name="Clip 479" fill="white">
                    <use xlink:href="#path-47"></use>
                </mask>
                <g id="Clip-479"></g>
            </g>
            <g id="Group-497">
                <mask id="mask-50" sketch:name="Clip 492" fill="white">
                    <use xlink:href="#path-49"></use>
                </mask>
                <g id="Clip-492"></g>
            </g>
            <g id="Group-506">
                <mask id="mask-52" sketch:name="Clip 504" fill="white">
                    <use xlink:href="#path-51"></use>
                </mask>
                <g id="Clip-504"></g>
            </g>
            <g id="Group-522"></g>
            <g id="Group-560"></g>
            <g id="Group-589">
                <mask id="mask-54" sketch:name="Clip 588" fill="white">
                    <use xlink:href="#path-53"></use>
                </mask>
                <g id="Clip-588"></g>
            </g>
            <g id="Group-677">
                <mask id="mask-56" sketch:name="Clip 674" fill="white">
                    <use xlink:href="#path-55"></use>
                </mask>
                <g id="Clip-674"></g>
            </g>
            <g id="Group-685"></g>
            <g id="Group-694"></g>
            <g id="Group-714">
                <mask id="mask-58" sketch:name="Clip 711" fill="white">
                    <use xlink:href="#path-57"></use>
                </mask>
                <g id="Clip-711"></g>
            </g>
            <g id="Group-856">
                <mask id="mask-60" sketch:name="Clip 853" fill="white">
                    <use xlink:href="#path-59"></use>
                </mask>
                <g id="Clip-853"></g>
            </g>
            <g id="Group-928">
                <mask id="mask-62" sketch:name="Clip 926" fill="white">
                    <use xlink:href="#path-61"></use>
                </mask>
                <g id="Clip-926"></g>
            </g>
            <g id="Group-943">
                <mask id="mask-64" sketch:name="Clip 940" fill="white">
                    <use xlink:href="#path-63"></use>
                </mask>
                <g id="Clip-940"></g>
            </g>
            <g id="Group-1060">
                <mask id="mask-66" sketch:name="Clip 1056" fill="white">
                    <use xlink:href="#path-65"></use>
                </mask>
                <g id="Clip-1056"></g>
            </g>
            <g id="Group-1176">
                <mask id="mask-68" sketch:name="Clip 1173" fill="white">
                    <use xlink:href="#path-67"></use>
                </mask>
                <g id="Clip-1173"></g>
            </g>
            <g id="Group-1189">
                <mask id="mask-70" sketch:name="Clip 1188" fill="white">
                    <use xlink:href="#path-69"></use>
                </mask>
                <g id="Clip-1188"></g>
            </g>
            <g id="Group-1197"></g>
            <g id="Group-1212">
                <mask id="mask-72" sketch:name="Clip 1211" fill="white">
                    <use xlink:href="#path-71"></use>
                </mask>
                <g id="Clip-1211"></g>
            </g>
            <g id="Group-1260">
                <mask id="mask-74" sketch:name="Clip 1259" fill="white">
                    <use xlink:href="#path-73"></use>
                </mask>
                <g id="Clip-1259"></g>
            </g>
            <g id="Group-1301">
                <mask id="mask-76" sketch:name="Clip 1300" fill="white">
                    <use xlink:href="#path-75"></use>
                </mask>
                <g id="Clip-1300"></g>
            </g>
            <g id="Group-1482">
                <mask id="mask-78" sketch:name="Clip 1481" fill="white">
                    <use xlink:href="#path-77"></use>
                </mask>
                <g id="Clip-1481"></g>
            </g>
            <g id="Group-1490">
                <mask id="mask-80" sketch:name="Clip 1489" fill="white">
                    <use xlink:href="#path-79"></use>
                </mask>
                <g id="Clip-1489"></g>
            </g>
            <g id="Group-1510">
                <mask id="mask-82" sketch:name="Clip 1507" fill="white">
                    <use xlink:href="#path-81"></use>
                </mask>
                <g id="Clip-1507"></g>
            </g>
            <g id="Group-1535">
                <mask id="mask-84" sketch:name="Clip 1533" fill="white">
                    <use xlink:href="#path-83"></use>
                </mask>
                <g id="Clip-1533"></g>
            </g>
            <g id="Group-1559">
                <mask id="mask-86" sketch:name="Clip 1558" fill="white">
                    <use xlink:href="#path-85"></use>
                </mask>
                <g id="Clip-1558"></g>
            </g>
            <g id="Group-1578">
                <mask id="mask-88" sketch:name="Clip 1576" fill="white">
                    <use xlink:href="#path-87"></use>
                </mask>
                <g id="Clip-1576"></g>
            </g>
            <g id="Group-1643"></g>
            <g id="Group-1672">
                <mask id="mask-90" sketch:name="Clip 1670" fill="white">
                    <use xlink:href="#path-89"></use>
                </mask>
                <g id="Clip-1670"></g>
            </g>
            <g id="Group-1697">
                <mask id="mask-92" sketch:name="Clip 1695" fill="white">
                    <use xlink:href="#path-91"></use>
                </mask>
                <g id="Clip-1695"></g>
            </g>
            <g id="Group-1759">
                <mask id="mask-94" sketch:name="Clip 1757" fill="white">
                    <use xlink:href="#path-93"></use>
                </mask>
                <g id="Clip-1757"></g>
            </g>
            <g id="Group-1828">
                <mask id="mask-96" sketch:name="Clip 1823" fill="white">
                    <use xlink:href="#path-95"></use>
                </mask>
                <g id="Clip-1823"></g>
            </g>
            <g id="Group-1854">
                <mask id="mask-98" sketch:name="Clip 1850" fill="white">
                    <use xlink:href="#path-97"></use>
                </mask>
                <g id="Clip-1850"></g>
            </g>
            <g id="Group-1911">
                <mask id="mask-100" sketch:name="Clip 1909" fill="white">
                    <use xlink:href="#path-99"></use>
                </mask>
                <g id="Clip-1909"></g>
            </g>
            <g id="Group-1966">
                <mask id="mask-102" sketch:name="Clip 1965" fill="white">
                    <use xlink:href="#path-101"></use>
                </mask>
                <g id="Clip-1965"></g>
            </g>
            <g id="Group-1974"></g>
            <g id="Group-1991"></g>
            <g id="Group-1999">
                <mask id="mask-104" sketch:name="Clip 1998" fill="white">
                    <use xlink:href="#path-103"></use>
                </mask>
                <g id="Clip-1998"></g>
            </g>
            <g id="Group-2038">
                <mask id="mask-106" sketch:name="Clip 2036" fill="white">
                    <use xlink:href="#path-105"></use>
                </mask>
                <g id="Clip-2036"></g>
            </g>
            <g id="Group-2056"></g>
            <g id="Group-2064">
                <mask id="mask-108" sketch:name="Clip 2063" fill="white">
                    <use xlink:href="#path-107"></use>
                </mask>
                <g id="Clip-2063"></g>
            </g>
            <g id="Group-2089">
                <mask id="mask-110" sketch:name="Clip 2086" fill="white">
                    <use xlink:href="#path-109"></use>
                </mask>
                <g id="Clip-2086"></g>
            </g>
            <g id="Group-2105">
                <mask id="mask-112" sketch:name="Clip 2103" fill="white">
                    <use xlink:href="#path-111"></use>
                </mask>
                <g id="Clip-2103"></g>
            </g>
            <g id="Group-2149">
                <mask id="mask-114" sketch:name="Clip 2147" fill="white">
                    <use xlink:href="#path-113"></use>
                </mask>
                <g id="Clip-2147"></g>
            </g>
            <g id="Group-2202">
                <mask id="mask-116" sketch:name="Clip 2199" fill="white">
                    <use xlink:href="#path-115"></use>
                </mask>
                <g id="Clip-2199"></g>
            </g>
            <g id="Group-2209"></g>
            <g id="Group-2284">
                <mask id="mask-118" sketch:name="Clip 2281" fill="white">
                    <use xlink:href="#path-117"></use>
                </mask>
                <g id="Clip-2281"></g>
            </g>
            <g id="Group-2304">
                <mask id="mask-120" sketch:name="Clip 2301" fill="white">
                    <use xlink:href="#path-119"></use>
                </mask>
                <g id="Clip-2301"></g>
            </g>
            <g id="Group-2421">
                <mask id="mask-122" sketch:name="Clip 2416" fill="white">
                    <use xlink:href="#path-121"></use>
                </mask>
                <g id="Clip-2416"></g>
            </g>
            <g id="Group-2441">
                <mask id="mask-124" sketch:name="Clip 2438" fill="white">
                    <use xlink:href="#path-123"></use>
                </mask>
                <g id="Clip-2438"></g>
            </g>
            <g id="Group-2462">
                <mask id="mask-126" sketch:name="Clip 2458" fill="white">
                    <use xlink:href="#path-125"></use>
                </mask>
                <g id="Clip-2458"></g>
            </g>
            <g id="Group-2483">
                <mask id="mask-128" sketch:name="Clip 2479" fill="white">
                    <use xlink:href="#path-127"></use>
                </mask>
                <g id="Clip-2479"></g>
            </g>
            <g id="Group-2515">
                <mask id="mask-130" sketch:name="Clip 2513" fill="white">
                    <use xlink:href="#path-129"></use>
                </mask>
                <g id="Clip-2513"></g>
            </g>
            <g id="Group-2526">
                <mask id="mask-132" sketch:name="Clip 2522" fill="white">
                    <use xlink:href="#path-131"></use>
                </mask>
                <g id="Clip-2522"></g>
            </g>
            <g id="Group-2550">
                <mask id="mask-134" sketch:name="Clip 2548" fill="white">
                    <use xlink:href="#path-133"></use>
                </mask>
                <g id="Clip-2548"></g>
            </g>
            <g id="Group-2676">
                <mask id="mask-136" sketch:name="Clip 2672" fill="white">
                    <use xlink:href="#path-135"></use>
                </mask>
                <g id="Clip-2672"></g>
            </g>
            <g id="Group-2694"></g>
            <g id="Group-2752"></g>
            <g id="Group-2786">
                <mask id="mask-138" sketch:name="Clip 2784" fill="white">
                    <use xlink:href="#path-137"></use>
                </mask>
                <g id="Clip-2784"></g>
            </g>
            <g id="Group-2820" transform="translate(134.000000, 1234.000000)">
                <mask id="mask-140" sketch:name="Clip 2819" fill="white">
                    <use xlink:href="#path-139"></use>
                </mask>
                <g id="Clip-2819"></g>
                <path d="M-4.5,-5 L18,-5 L18,16 L-4.5,16 L-4.5,-5 Z" id="Fill-2818" fill="#E4AD4B" sketch:type="MSShapeGroup" mask="url(#mask-140)"></path>
            </g>
            <path d="M147,1246 L134.5,1246 C134.147,1246 133.82,1245.813 133.64,1245.511 C133.46,1245.207 133.453,1244.831 133.622,1244.521 L139.622,1233.521 C139.887,1233.037 140.493,1232.857 140.979,1233.122 C141.464,1233.387 141.643,1233.994 141.378,1234.479 L136.185,1244 L147,1244 C147.552,1244 148,1244.447 148,1245 C148,1245.553 147.552,1246 147,1246" id="Fill-2821" fill="#334F55" sketch:type="MSShapeGroup"></path>
            <g id="Group-2825" transform="translate(167.000000, 1226.000000)">
                <mask id="mask-142" sketch:name="Clip 2824" fill="white">
                    <use xlink:href="#path-141"></use>
                </mask>
                <g id="Clip-2824"></g>
                <path d="M-5,-5 L9,-5 L9,12 L-5,12 L-5,-5 Z" id="Fill-2823" fill="#EBE8D2" sketch:type="MSShapeGroup" mask="url(#mask-142)"></path>
            </g>
            <path d="M167,1234 L166,1234 L166,1232 L167,1232 C168.654,1232 170,1230.879 170,1229.5 C170,1228.121 168.654,1227 167,1227 L166,1227 L166,1225 L167,1225 C169.757,1225 172,1227.019 172,1229.5 C172,1231.981 169.757,1234 167,1234" id="Fill-2826" fill="#334F55" sketch:type="MSShapeGroup"></path>
            <g id="Group-2830" transform="translate(137.000000, 1226.000000)">
                <mask id="mask-144" sketch:name="Clip 2829" fill="white">
                    <use xlink:href="#path-143"></use>
                </mask>
                <g id="Clip-2829"></g>
                <path d="M9,-5 L-5,-5 L-5,12 L9,12 L9,-5 Z" id="Fill-2828" fill="#EBE8D2" sketch:type="MSShapeGroup" mask="url(#mask-144)"></path>
            </g>
            <path d="M142,1234 L141,1234 C138.243,1234 136,1231.981 136,1229.5 C136,1227.019 138.243,1225 141,1225 L142,1225 L142,1227 L141,1227 C139.346,1227 138,1228.121 138,1229.5 C138,1230.879 139.346,1232 141,1232 L142,1232 L142,1234 Z" id="Fill-2831" fill="#334F55" sketch:type="MSShapeGroup"></path>
            <g id="Group-2835" transform="translate(149.000000, 1246.000000)">
                <mask id="mask-146" sketch:name="Clip 2834" fill="white">
                    <use xlink:href="#path-145"></use>
                </mask>
                <g id="Clip-2834"></g>
                <path d="M-5,-5 L15,-5 L15,10 L-5,10 L-5,-5 Z" id="Fill-2833" fill="#EBE8D2" sketch:type="MSShapeGroup" mask="url(#mask-146)"></path>
            </g>
            <path d="M159,1252 L149,1252 C148.448,1252 148,1251.553 148,1251 L148,1245 L150,1245 L150,1250 L158,1250 L158,1245 L160,1245 L160,1251 C160,1251.553 159.552,1252 159,1252" id="Fill-2836" fill="#334F55" sketch:type="MSShapeGroup"></path>
            <g id="Group-2840" transform="translate(161.000000, 1234.000000)">
                <mask id="mask-148" sketch:name="Clip 2839" fill="white">
                    <use xlink:href="#path-147"></use>
                </mask>
                <g id="Clip-2839"></g>
                <path d="M17.5,-5 L-5,-5 L-5,16 L17.5,16 L17.5,-5 Z" id="Fill-2838" fill="#E4AD4B" sketch:type="MSShapeGroup" mask="url(#mask-148)"></path>
            </g>
            <path d="M173.5,1246 L161,1246 C160.448,1246 160,1245.553 160,1245 C160,1244.447 160.448,1244 161,1244 L171.815,1244 L166.622,1234.479 C166.357,1233.994 166.536,1233.387 167.021,1233.122 C167.508,1232.857 168.113,1233.037 168.378,1233.521 L174.378,1244.521 C174.547,1244.831 174.54,1245.207 174.36,1245.511 C174.18,1245.813 173.853,1246 173.5,1246" id="Fill-2841" fill="#334F55" sketch:type="MSShapeGroup"></path>
            <g id="Group-2845" transform="translate(141.000000, 1225.000000)">
                <mask id="mask-150" sketch:name="Clip 2844" fill="white">
                    <use xlink:href="#path-149"></use>
                </mask>
                <g id="Clip-2844"></g>
                <path d="M-5,-5 L31,-5 L31,26 L-5,26 L-5,-5 Z" id="Fill-2843" fill="#EBE8D2" sketch:type="MSShapeGroup" mask="url(#mask-150)"></path>
            </g>
            <g id="Group-2852" transform="translate(140.000000, 1224.000000)" fill="#334F55" sketch:type="MSShapeGroup">
                <path d="M2,2 L2,11.5 C2,16.738 6.262,21 11.5,21 L16.5,21 C21.738,21 26,16.738 26,11.5 L26,2 L2,2 Z M16.5,23 L11.5,23 C5.159,23 0,17.841 0,11.5 L0,1 C0,0.447 0.448,0 1,0 L27,0 C27.552,0 28,0.447 28,1 L28,11.5 C28,17.841 22.841,23 16.5,23 L16.5,23 Z" id="Fill-2846"></path>
                <path d="M14,18 C11.794,18 10,16.206 10,14 L10,13 L12,13 L12,14 C12,15.103 12.897,16 14,16 C15.103,16 16,15.103 16,14 L16,13 L18,13 L18,14 C18,16.206 16.206,18 14,18" id="Fill-2848"></path>
                <path d="M7,7 C5.897,7 5,6.103 5,5 C5,3.897 5.897,3 7,3 C8.103,3 9,3.897 9,5 C9,6.103 8.103,7 7,7" id="Fill-2850"></path>
            </g>
            <g id="Group-2855" transform="translate(130.000000, 1251.000000)">
                <mask id="mask-152" sketch:name="Clip 2854" fill="white">
                    <use xlink:href="#path-151"></use>
                </mask>
                <g id="Clip-2854"></g>
                <path d="M-5,-5 L53,-5 L53,13 L-5,13 L-5,-5 Z" id="Fill-2853" fill="#EBEBEB" sketch:type="MSShapeGroup" mask="url(#mask-152)"></path>
            </g>
            <path d="M131,1258 L177,1258 L177,1255 C177,1253.346 175.65,1252 173.99,1252 L134.01,1252 C132.35,1252 131,1253.346 131,1255 L131,1258 Z M178,1260 L130,1260 C129.448,1260 129,1259.553 129,1259 L129,1255 C129,1252.243 131.248,1250 134.01,1250 L173.99,1250 C176.752,1250 179,1252.243 179,1255 L179,1259 C179,1259.553 178.552,1260 178,1260 L178,1260 Z" id="Fill-2856" fill="#334F55" sketch:type="MSShapeGroup"></path>
            <g id="Group-2860" transform="translate(143.000000, 1251.000000)">
                <mask id="mask-154" sketch:name="Clip 2859" fill="white">
                    <use xlink:href="#path-153"></use>
                </mask>
                <g id="Clip-2859"></g>
                <path d="M-5,13 L27,13 L27,-5 L-5,-5 L-5,13 Z" id="Fill-2858" fill="#EBE8D2" sketch:type="MSShapeGroup" mask="url(#mask-154)"></path>
            </g>
            <g id="Group-2865" transform="translate(142.000000, 1227.000000)" fill="#334F55" sketch:type="MSShapeGroup">
                <path d="M4.0752,25 L12.0002,30.764 L19.9252,25 L4.0752,25 Z M12.0002,33 C11.7932,33 11.5872,32.937 11.4112,32.809 L0.4112,24.809 C0.0612,24.554 -0.0848,24.103 0.0492,23.69 C0.1832,23.279 0.5672,23 1.0002,23 L23.0002,23 C23.4332,23 23.8172,23.279 23.9512,23.69 C24.0852,24.103 23.9382,24.554 23.5882,24.809 L12.5882,32.809 C12.4132,32.937 12.2062,33 12.0002,33 L12.0002,33 Z" id="Fill-2861"></path>
                <path d="M19,4 C17.897,4 17,3.103 17,2 C17,0.897 17.897,0 19,0 C20.103,0 21,0.897 21,2 C21,3.103 20.103,4 19,4" id="Fill-2863"></path>
            </g>
            <g id="Group-2868" transform="translate(141.000000, 1207.000000)">
                <mask id="mask-156" sketch:name="Clip 2867" fill="white">
                    <use xlink:href="#path-155"></use>
                </mask>
                <g id="Clip-2867"></g>
                <path d="M-5,-5 L31,-5 L31,23 L-5,23 L-5,-5 Z" id="Fill-2866" fill="#EBEBEB" sketch:type="MSShapeGroup" mask="url(#mask-156)"></path>
            </g>
            <path d="M142,1224 L166,1224 L166,1211.99 C166,1209.79 164.207,1208 162.002,1208 L145.998,1208 C143.793,1208 142,1209.79 142,1211.99 L142,1224 Z M167,1226 L141,1226 C140.448,1226 140,1225.553 140,1225 L140,1211.99 C140,1208.687 142.69,1206 145.998,1206 L162.002,1206 C165.31,1206 168,1208.687 168,1211.99 L168,1225 C168,1225.553 167.552,1226 167,1226 L167,1226 Z" id="Fill-2869" fill="#334F55" sketch:type="MSShapeGroup"></path>
            <g id="Group-2873" transform="translate(149.000000, 1211.000000)">
                <mask id="mask-158" sketch:name="Clip 2872" fill="white">
                    <use xlink:href="#path-157"></use>
                </mask>
                <g id="Clip-2872"></g>
                <path d="M-5,-5 L15,-5 L15,15 L-5,15 L-5,-5 Z" id="Fill-2871" fill="#E6D764" sketch:type="MSShapeGroup" mask="url(#mask-158)"></path>
            </g>
            <path d="M153,1220 L155,1220 L155,1218 C155,1217.447 155.448,1217 156,1217 L158,1217 L158,1215 L156,1215 C155.448,1215 155,1214.553 155,1214 L155,1212 L153,1212 L153,1214 C153,1214.553 152.552,1215 152,1215 L150,1215 L150,1217 L152,1217 C152.552,1217 153,1217.447 153,1218 L153,1220 Z M156,1222 L152,1222 C151.448,1222 151,1221.553 151,1221 L151,1219 L149,1219 C148.448,1219 148,1218.553 148,1218 L148,1214 C148,1213.447 148.448,1213 149,1213 L151,1213 L151,1211 C151,1210.447 151.448,1210 152,1210 L156,1210 C156.552,1210 157,1210.447 157,1211 L157,1213 L159,1213 C159.552,1213 160,1213.447 160,1214 L160,1218 C160,1218.553 159.552,1219 159,1219 L157,1219 L157,1221 C157,1221.553 156.552,1222 156,1222 L156,1222 Z" id="Fill-2874" fill="#334F55" sketch:type="MSShapeGroup"></path>
            <g id="Group-2923"></g>
            <g id="Group-2951">
                <mask id="mask-160" sketch:name="Clip 2950" fill="white">
                    <use xlink:href="#path-159"></use>
                </mask>
                <g id="Clip-2950"></g>
            </g>
            <g id="Group-3028">
                <mask id="mask-162" sketch:name="Clip 3026" fill="white">
                    <use xlink:href="#path-161"></use>
                </mask>
                <g id="Clip-3026"></g>
            </g>
            <g id="Group-3064">
                <mask id="mask-164" sketch:name="Clip 3062" fill="white">
                    <use xlink:href="#path-163"></use>
                </mask>
                <g id="Clip-3062"></g>
            </g>
            <g id="Group-3082">
                <mask id="mask-166" sketch:name="Clip 3081" fill="white">
                    <use xlink:href="#path-165"></use>
                </mask>
                <g id="Clip-3081"></g>
            </g>
            <g id="Group-3099"></g>
            <g id="Group-3151">
                <mask id="mask-168" sketch:name="Clip 3149" fill="white">
                    <use xlink:href="#path-167"></use>
                </mask>
                <g id="Clip-3149"></g>
            </g>
            <g id="Group-3165"></g>
            <g id="Group-3192"></g>
            <g id="Group-3201"></g>
            <g id="Group-3270">
                <mask id="mask-170" sketch:name="Clip 3269" fill="white">
                    <use xlink:href="#path-169"></use>
                </mask>
                <g id="Clip-3269"></g>
            </g>
            <g id="Group-3277"></g>
            <g id="Group-3313">
                <mask id="mask-172" sketch:name="Clip 3311" fill="white">
                    <use xlink:href="#path-171"></use>
                </mask>
                <g id="Clip-3311"></g>
            </g>
            <g id="Group-3326"></g>
            <g id="Group-3346">
                <mask id="mask-174" sketch:name="Clip 3343" fill="white">
                    <use xlink:href="#path-173"></use>
                </mask>
                <g id="Clip-3343"></g>
            </g>
            <g id="Group-3369">
                <mask id="mask-176" sketch:name="Clip 3368" fill="white">
                    <use xlink:href="#path-175"></use>
                </mask>
                <g id="Clip-3368"></g>
            </g>
            <g id="Group-3380">
                <mask id="mask-178" sketch:name="Clip 3376" fill="white">
                    <use xlink:href="#path-177"></use>
                </mask>
                <g id="Clip-3376"></g>
            </g>
            <g id="Group-3423">
                <mask id="mask-180" sketch:name="Clip 3422" fill="white">
                    <use xlink:href="#path-179"></use>
                </mask>
                <g id="Clip-3422"></g>
            </g>
            <g id="Group-3435"></g>
            <g id="Group-3458">
                <mask id="mask-182" sketch:name="Clip 3457" fill="white">
                    <use xlink:href="#path-181"></use>
                </mask>
                <g id="Clip-3457"></g>
            </g>
            <g id="Group-3476">
                <mask id="mask-184" sketch:name="Clip 3475" fill="white">
                    <use xlink:href="#path-183"></use>
                </mask>
                <g id="Clip-3475"></g>
            </g>
            <g id="Group-3496"></g>
            <g id="Group-3503"></g>
            <g id="Group-3522"></g>
        </g>
        <g id="Characters_sliced" sketch:type="MSLayerGroup" transform="translate(-120.000000, -1200.000000)"></g>
    </g>
</svg>