<?xml version="1.0" encoding="utf-8"?>
<!-- Generator: Adobe Illustrator 19.2.0, SVG Export Plug-In . SVG Version: 6.00 Build 0)  -->
<svg version="1.1" id="oldphone" xmlns="http://www.w3.org/2000/svg" xmlns:xlink="http://www.w3.org/1999/xlink" x="0px" y="0px"
	 viewBox="0 0 195.9596 196.668" enable-background="new 0 0 195.9596 196.668" xml:space="preserve">
<g>
	<path fill="#D8D8D8" d="M57.9525,132.668c0,22.0547,17.9453,40,40,40c7.9082,0,15.2673-2.3369,21.481-6.3137l-8.6528-11.2488
		c-1.3438-1.75-1.0195-4.2617,0.7344-5.6094c1.75-1.3438,4.2617-1.0234,5.6094,0.7344l8.5916,11.1689
		c7.5295-7.2781,12.2366-17.4583,12.2366-28.7314c0-22.0547-17.9453-40-40-40S57.9525,110.6133,57.9525,132.668z M109.9525,132.668
		c0,6.6172-5.3828,12-12,12s-12-5.3828-12-12s5.3828-12,12-12S109.9525,126.0508,109.9525,132.668z"/>
	<circle fill="#D8D8D8" cx="97.9525" cy="132.668" r="4"/>
	<path fill="#DBCF56" d="M81.9525,80.668h-8H57.3626c-13.5703,0-26.3164,10.8828-28.4141,24.2578l-9.5312,60.7266
		c-0.9727,6.1914,0.5273,11.9805,4.2226,16.3047c3.7031,4.3281,9.2031,6.7109,15.4922,6.7109h117.6953
		c6.293,0,11.8008-2.3828,15.5-6.7109c3.6914-4.3203,5.1914-10.1094,4.2148-16.3047l-9.5274-60.7266
		c-2.0976-13.375-14.8476-24.2578-28.418-24.2578h-16.6445h-8H81.9525z M145.9525,132.668c0,26.4688-21.5312,48-48,48
		s-48-21.5312-48-48s21.5312-48,48-48S145.9525,106.1992,145.9525,132.668z"/>
	<path fill="#E4AD40" d="M11.1995,52.668l-2.0479,8h43.6211l0.9922-6.9336c0.0515-0.3599,0.1409-0.7102,0.2073-1.0664H11.1995z"/>
	<path fill="#E4AD40" d="M141.9913,52.668c0.0664,0.3562,0.1558,0.7065,0.2073,1.0664l0.9922,6.9336h43.6172l-2.0469-8H141.9913z"/>
	<path fill="#E4AD40" d="M139.1431,44.668h43.5708l-5.6951-22.2578c-1.2305-4.8086-6.5898-9.5898-11.4727-10.2383
		C165.1673,12.1133,139.8157,8,97.9798,8c-41.832,0-67.1211,4.1055-67.375,4.1445c-5.0469,0.6367-10.4219,5.4219-11.6602,10.2656
		L13.2471,44.668h43.573c4.9939-9.2229,15.012-15.7773,25.6323-15.7773h31.0547C124.1275,28.8906,134.148,35.4451,139.1431,44.668z"
		/>
	<path fill="#314E55" d="M195.8353,63.6758l-11.0664-43.25c-2.0469-7.9961-10.0273-15.1055-18.0391-16.1641
		C165.679,4.0859,140.5423,0,97.9798,0S30.3431,4.0781,29.4525,4.2305c-8.1758,1.0273-16.1992,8.1406-18.2578,16.1953
		l-11.0703,43.25c-0.3047,1.1992-0.043,2.4688,0.7148,3.4453s1.9258,1.5469,3.1602,1.5469h52.2422
		c1.9883,0,3.6758-1.4648,3.9609-3.4336l1.4844-10.3672c0.9983-6.9802,5.9436-12.9753,12.2656-15.9521V72.668H57.3626
		c-17.3438,0-33.6367,13.9141-36.3203,31.0156l-9.5312,60.7266c-1.3398,8.5391,0.8086,16.6172,6.0508,22.7461
		c5.2461,6.1328,12.9062,9.5117,21.5703,9.5117h117.6953c8.6719,0,16.3359-3.3789,21.582-9.5117
		c5.2344-6.125,7.3789-14.2031,6.0391-22.7461l-9.5273-60.7266C172.2337,86.582,155.9407,72.668,138.597,72.668h-16.6445V38.8862
		c6.3508,2.967,11.3228,8.9795,12.3242,15.981l1.4844,10.3672c0.2852,1.9688,1.9727,3.4336,3.9609,3.4336h52.2383
		c1.2344,0,2.4023-0.5703,3.1602-1.5469S196.1399,64.875,195.8353,63.6758z M52.7728,60.668H9.1517l2.0479-8h42.7727
		c-0.0664,0.3562-0.1558,0.7065-0.2073,1.0664L52.7728,60.668z M138.597,80.668c13.5703,0,26.3203,10.8828,28.418,24.2578
		l9.5274,60.7266c0.9766,6.1953-0.5234,11.9844-4.2148,16.3047c-3.6992,4.3281-9.207,6.7109-15.5,6.7109H39.1321
		c-6.2891,0-11.7891-2.3828-15.4922-6.7109c-3.6953-4.3242-5.1953-10.1133-4.2226-16.3047l9.5312-60.7266
		c2.0977-13.375,14.8438-24.2578,28.4141-24.2578h16.5898h8h32h8H138.597z M113.9525,72.668h-32v-35.728
		c0.1685-0.0046,0.3313-0.0493,0.5-0.0493h31.0547c0.1504,0,0.2954,0.0403,0.4453,0.0439V72.668z M113.5071,28.8906H82.4525
		c-10.6204,0-20.6384,6.5544-25.6323,15.7773h-43.573l5.6975-22.2578c1.2383-4.8438,6.6133-9.6289,11.6602-10.2656
		C30.8587,12.1055,56.1478,8,97.9798,8c41.8359,0,67.1875,4.1133,67.5664,4.1719c4.8828,0.6484,10.2422,5.4297,11.4727,10.2383
		l5.6951,22.2578h-43.5708C134.148,35.4451,124.1275,28.8906,113.5071,28.8906z M143.1907,60.668l-0.9922-6.9336
		c-0.0515-0.3599-0.1409-0.7102-0.2073-1.0664h42.7698l2.0469,8H143.1907z"/>
	<path fill="#314E55" d="M49.9525,132.668c0,26.4688,21.5312,48,48,48s48-21.5312,48-48s-21.5312-48-48-48
		S49.9525,106.1992,49.9525,132.668z M137.9525,132.668c0,11.2732-4.707,21.4534-12.2366,28.7314l-8.5916-11.1689
		c-1.3477-1.7578-3.8594-2.0781-5.6094-0.7344c-1.7539,1.3477-2.0781,3.8594-0.7344,5.6094l8.6528,11.2488
		c-6.2136,3.9768-13.5728,6.3137-21.481,6.3137c-22.0547,0-40-17.9453-40-40s17.9453-40,40-40S137.9525,110.6133,137.9525,132.668z"
		/>
	<path fill="#314E55" d="M85.9525,132.668c0,6.6172,5.3828,12,12,12s12-5.3828,12-12s-5.3828-12-12-12
		S85.9525,126.0508,85.9525,132.668z M101.9525,132.668c0,2.207-1.793,4-4,4s-4-1.793-4-4s1.793-4,4-4
		S101.9525,130.4609,101.9525,132.668z"/>
</g>
</svg>
