<svg fill="none" height="11" viewBox="0 0 15 11" width="15" xmlns="http://www.w3.org/2000/svg"><path d="m6.945 7.50127c-.13191-.22958-.2007-.48999-.19939-.75476.00132-.26478.0727-.52449.20689-.75274.58074-.04725 1.12051-.31795 1.50571-.75512.38519-.43716.58578-1.00672.55954-1.58879-.02623-.58207-.27725-1.13126-.70021-1.532-.42297-.40074-.9849-.62178-1.56754-.61659h-3c-.59674 0-1.16903.23705-1.59099.65901s-.65901.99425-.65901 1.59099.23705 1.16903.65901 1.59099.99425.65901 1.59099.65901h.06c-.08308.49655-.08308 1.00345 0 1.5h-.06c-.99456 0-1.94839-.39509-2.65165-1.09835-.703262-.70326-1.09835-1.65709-1.09835-2.65165s.395088-1.94839 1.09835-2.65165c.70326-.703263 1.65709-1.09835121 2.65165-1.09835121h3c.99456-.02585859 1.95866.34443021 2.68021 1.02941121.72159.68497 1.14139 1.62853 1.16729 2.62309s-.3444 1.95866-1.02941 2.68021c-.68497.72154-1.62853 1.14143-2.62309 1.16729zm1.11-4.5c.13191.22958.2007.48998.19939.75476-.00132.26477-.0727.52448-.20689.75274-.58074.04725-1.12051.31794-1.50571.75511-.38519.43717-.58578 1.00673-.55954 1.58879.02623.58207.27725 1.13127.70021 1.53201.42297.40074.9849.62178 1.56754.61659h3c.5967 0 1.169-.23705 1.591-.65901.4219-.42196.659-.99425.659-1.59099s-.2371-1.16903-.659-1.59099c-.422-.42196-.9943-.65901-1.591-.65901h-.06c.0831-.49655.0831-1.00345 0-1.5h.06c.9946 0 1.9484.39509 2.6517 1.09835.7032.70326 1.0983 1.65709 1.0983 2.65165s-.3951 1.94839-1.0983 2.65165c-.7033.70328-1.6571 1.09838-2.6517 1.09838h-3c-.49246.0128-.98261-.0715-1.44248-.2482-.45988-.1766-.88045-.44207-1.23773-.78124-.72154-.68497-1.14143-1.62853-1.16729-2.62309s.34443-1.95866 1.02941-2.68021c.68497-.72154 1.62853-1.14143 2.62309-1.16729z" fill="#919da9" fill-opacity=".66"/></svg>