<svg fill="none" height="15" viewBox="0 0 14 15" width="14" xmlns="http://www.w3.org/2000/svg"><path d="m3.75277 5.99335v5.25385h6.00443v-5.25385c0-.79623-.3163-1.55986-.87933-2.12288-.56302-.56303-1.32665-.87933-2.12288-.87933-.79624 0-1.55987.3163-2.12289.87933-.56303.56302-.87933 1.32665-.87933 2.12288zm1.52362-4.25564c-.03422-.21442-.02152-.43372.03723-.64276.05876-.209044.16216-.40285.30308-.568049s.31601-.297859.51318-.388825c.19716-.0909674.41172-.138076.62886-.138076s.43169.0471086.62886.138076c.19717.090966.37225.223626.51317.388825.14093.165199.24433.359005.30308.568049.05876.20904.07146.42834.03723.64276.8824.30847 1.64694.88389 2.18762 1.64644.5406.76255.8306 1.67444.8296 2.6092v4.50335l2.2517 1.5011v.7505h-13.51v-.7505l2.25166-1.5011v-4.50335c-.00041-.93567.29064-1.84824.83271-2.61089.54206-.76266 1.30822-1.33754 2.19202-1.64475zm2.9797 11.76119c0 .3981-.15815.7799-.43966 1.0614s-.66333.4397-1.06144.4397c-.39812 0-.77993-.1582-1.06145-.4397-.28151-.2815-.43966-.6633-.43966-1.0614z" fill="#919da9" fill-opacity=".66"/></svg>