<svg fill="none" height="15" viewBox="0 0 15 15" width="15" xmlns="http://www.w3.org/2000/svg"><path d="m7.5 15c-1.98912 0-3.89678-.7902-5.3033-2.1967-1.406524-1.4065-2.1967-3.31418-2.1967-5.3033s.790176-3.89678 2.1967-5.3033c1.40652-1.406524 3.31418-2.1967 5.3033-2.1967s3.8968.790176 5.3033 2.1967c1.4065 1.40652 2.1967 3.31418 2.1967 5.3033s-.7902 3.8968-2.1967 5.3033-3.31418 2.1967-5.3033 2.1967zm.75-3.75h.75c.59674 0 1.169-.2371 1.591-.659.4219-.422.659-.99426.659-1.591s-.2371-1.16903-.659-1.59099c-.422-.42196-.99426-.65901-1.591-.65901h-3.0075c-.19891 0-.38968-.07902-.53033-.21967s-.21967-.33142-.21967-.53033.07902-.38968.21967-.53033.33142-.21967.53033-.21967h4.5075v-1.5h-2.25v-1.5h-1.5v1.5h-.75c-.59674 0-1.16903.23705-1.59099.65901s-.65901.99425-.65901 1.59099.23705 1.16903.65901 1.59099.99425.65901 1.59099.65901h3c.19891 0 .38968.07902.53033.21967s.21967.33142.21967.53033-.07902.38968-.21967.53033-.33142.21967-.53033.21967h-4.5v1.5h2.25v1.5h1.5z" fill="#919da9" fill-opacity=".66"/></svg>