<svg fill="none" height="15" viewBox="0 0 14 15" width="14" xmlns="http://www.w3.org/2000/svg"><path d="m0 3c0-.825.675-1.5 1.5-1.5h10.5c.3978 0 .7794.15804 1.0607.43934s.4393.66284.4393 1.06066v10.5c0 .3978-.158.7794-.4393 1.0607s-.6629.4393-1.0607.4393h-10.5c-.39782 0-.779356-.158-1.06066-.4393-.281305-.2813-.43934-.6629-.43934-1.0607zm1.5 1.5v9h10.5v-9zm1.5-4.5h1.5v1.5h-1.5zm6 0h1.5v1.5h-1.5zm-6 6.75h1.5v1.5h-1.5zm0 3h1.5v1.5h-1.5zm3-3h1.5v1.5h-1.5zm0 3h1.5v1.5h-1.5zm3-3h1.5v1.5h-1.5zm0 3h1.5v1.5h-1.5z" fill="#919da9" fill-opacity=".66"/></svg>