<svg fill="none" height="15" viewBox="0 0 14 15" width="14" xmlns="http://www.w3.org/2000/svg"><path d="m2.25 6v-1.5c0-1.19347.47411-2.33807 1.31802-3.18198.84391-.843914 1.98851-1.31802 3.18198-1.31802s2.33807.474106 3.18198 1.31802c.84392.84391 1.31802 1.98851 1.31802 3.18198v1.5h.75c.3978 0 .7794.15804 1.0607.43934s.4393.66284.4393 1.06066v6c0 .3978-.158.7794-.4393 1.0607s-.6629.4393-1.0607.4393h-10.5c-.39782 0-.779356-.158-1.06066-.4393-.281305-.2813-.43934-.6629-.43934-1.0607v-6c0-.825.675-1.5 1.5-1.5zm3.75 5.0475v1.7025h1.5v-1.7025c.28596-.1651.50946-.4199.63582-.725s.14853-.64332.06307-.96227-.27378-.60078-.53575-.8018c-.26196-.20101-.58294-.30997-.91314-.30997s-.65118.10896-.91314.30997c-.26197.20102-.45029.48285-.53575.8018s-.06329.65717.06307.96227.34986.5599.63582.725zm-1.5-6.5475v1.5h4.5v-1.5c0-.59674-.23705-1.16903-.65901-1.59099s-.99425-.65901-1.59099-.65901-1.16903.23705-1.59099.65901-.65901.99425-.65901 1.59099z" fill="#919da9" fill-opacity=".66"/></svg>