<svg fill="none" height="13" viewBox="0 0 15 13" width="15" xmlns="http://www.w3.org/2000/svg"><path d="m10.5 2.25h1.5v10.5h-9v-10.5h1.5v-.75c0-.39782.15804-.779356.43934-1.06066.2813-.281305.66284-.43934 1.06066-.43934h3c.39782 0 .77936.158035 1.0607.43934.2813.281304.4393.66284.4393 1.06066zm2.25 0h.75c.3978 0 .7794.15804 1.0607.43934s.4393.66284.4393 1.06066v7.5c0 .3978-.158.7794-.4393 1.0607s-.6629.4393-1.0607.4393h-.75zm-10.5 0v10.5h-.75c-.39782 0-.779356-.158-1.06066-.4393-.281305-.2813-.43934-.6629-.43934-1.0607v-7.5c0-.825.675-1.5 1.5-1.5zm3.75-.75v.75h3v-.75z" fill="#919da9" fill-opacity=".66"/></svg>