<svg fill="none" height="15" viewBox="0 0 12 15" width="12" xmlns="http://www.w3.org/2000/svg"><path d="m3 3h-.75c-.19891 0-.38968-.07902-.53033-.21967s-.21967-.33142-.21967-.53033.07902-.38968.21967-.53033.33142-.21967.53033-.21967h8.25v-.75c0-.198912-.079-.389678-.2197-.53033-.1406-.1406524-.33139-.21967-.5303-.21967h-8.25c-.39782 0-.779356.158035-1.06066.43934-.281305.281304-.43934.66284-.43934 1.06066v12c0 .825.675 1.5 1.5 1.5h9c.3978 0 .7794-.158 1.0607-.4393s.4393-.6629.4393-1.0607v-9.75c0-.19891-.079-.38968-.2197-.53033-.1406-.14065-.3314-.21967-.5303-.21967h-5.25v6l-1.5-1.5-1.5 1.5z" fill="#919da9" fill-opacity=".66"/></svg>