<svg fill="none" height="13" viewBox="0 0 17 13" width="17" xmlns="http://www.w3.org/2000/svg"><path d="m16.9354 8.09873-.6318-1.29138c-.6084-1.46424-1.3887-1.3096-1.3887-1.3096.2854-.21653.4697-.55767.4697-.94148 0-.65429-.5347-1.1843-1.1941-1.1843s-1.1939.53018-1.1939 1.1843c0 .38415.1846.72546.4704.94199 0 0-.6826-.10034-1.2071.99256-.1678-.3634-1.2542-2.69929-1.6381-3.06893-.331-.3683-.72507-.54266-1.2378-.54823.42229-.28246.7006-.7612.7006-1.30319 0-.865924-.71029-1.57047-1.58325-1.57047s-1.58341.704546-1.58341 1.57047c0 .54199.2783 1.02073.70042 1.30302-.51579.00422-.91156.17859-1.24391.5484-.25654.28532-1.39522 2.58648-1.63407 3.07197-.49998-1.07368-1.21977-.99324-1.21977-.99324.28747-.21619.47346-.55868.47346-.94435 0-.65429-.53466-1.1843-1.1941-1.1843s-1.1941.53018-1.1941 1.1843c0 .38533.18547.72732.47278.94384 0 0-.79341-.12394-1.380596 1.30875l-.6319001 1.29088c-.07599127.15447-.1824129.58988.3002251.86138.438267.19747.734241-.0597.849671-.257l-.327593 1.57318h.711973v1.3207c0 .3739.30668.6781.68358.6781.20417 0 .38778-.0892.51324-.2307.12529.1395.3077.2277.51035.2277.37689 0 .68358-.3043.68358-.6781v-1.3177h.69412l-.44082-2.1725c.07582.02783.31876.11332.62374-.07335l.43521-.30388c.24854.03946.61218-.00371.85035-.43743l.40138-.76694-.58787 2.92408h.9498v1.97552c0 .469.38472.8508.85767.8508.30379 0 .57104-.1575.72353-.3946.15198.2396.42076.3988.72625.3988.47312 0 .85786-.3816.85786-.8508v-1.97972h.9926l-.6013-2.8632.3603.6811c.232.42209.5827.47437.8304.4403l.4696.32765c.4012.25869.7495.04081.8748-.09544v3.65861c0 .3741.3069.6783.6838.6783.2028 0 .3855-.0882.5106-.228.1255.1416.3091.2308.5136.2308.3769 0 .6836-.3042.6836-.678v-3.63405l.3652.70184c.0896.18314.4047.50657.8643.29646.4828-.24772.3821-.70893.3055-.86492zm-3.6852-3.54246c0-.51517.4209-.93253.9401-.93253s.9403.41753.9403.93253c0 .51501-.4211.93254-.9403.93254s-.9401-.41736-.9401-.93254zm-11.39086 0c0-.51517.42093-.93253.94029-.93253.51919 0 .94011.41753.94011.93253 0 .51501-.42092.93254-.94011.93254-.51919.00017-.94029-.41736-.94029-.93254zm5.32364-2.9858c0-.721912.59025-1.307235 1.31803-1.307235s1.31803.585323 1.31803 1.307235c0 .68566-.54384 1.30269-1.32262 1.30269-.75107 0-1.31344-.61686-1.31344-1.30269zm-1.61248 5.64885-.85511.59695c-.26504.16847-.51426-.00101-.58175-.13355-.10608-.20809-.40784-.79949-.40784-.79949l.6353 3.13087h-.6353v1.5807c0 .229-.18734.4149-.4182.4149-.23104 0-.41821-.1859-.41821-.4149v-1.5807h-.18734v1.5839c0 .229-.18718.4149-.41804.4149-.23103 0-.41821-.1859-.41821-.4149v-1.5839h-.65162l.65162-3.13087-.867011 1.66558c-.066811.13575-.242934.28668-.516128.17572-.196864-.07977-.271325-.32007-.177823-.50978l.62867-1.28498c.342722-.70269.573592-1.18497 1.255982-1.18497h1.21518c.67134 0 .90577.46728 1.23949 1.15159l.46632-.32563c.28985-.16105.47923-.01366.55709.09612.127.17892.08365.42647-.09707.55244zm5.4437-.15801-1.19703-2.31195.93143 4.43486h-.93143v2.24318c0 .3244-.2652.5875-.59246.5875-.32708 0-.59212-.2633-.59212-.5875v-2.24318h-.2652v2.23878c0 .3244-.26538.5875-.59246.5875-.32709 0-.59229-.2632-.59229-.5875v-2.23878h-.89167l.8915-4.43486-1.19682 2.31397c.06375-.23558-.07412-.97351-.83862-.79476l.7118-1.45361c.48519-.99544.81227-1.67857 1.77874-1.67857h1.72127c.96646 0 1.29356.68313 1.77896 1.67857l.7167 1.45361c-.3526-.11113-.9738.11753-.8403.79274zm5.5048 1.66322c-.2767.1285-.466-.07353-.5163-.17589l-.8677-1.66659v4.71785c0 .2291-.1873.415-.4184.415-.231 0-.4185-.1859-.4185-.415v-2.4199h-.1873v2.4167c0 .2291-.1876.415-.4186.415s-.4184-.1859-.4184-.415v-4.71465s-.4256.83321-.4304.84013c-.0779.10961-.295.26222-.5569.09612l-.8553-.59696c-.1806-.12597-.2149-.36745-.0969-.55244.216-.27049.487-.14502.5571-.09612l.4631.3231c.3342-.68532.5686-1.15345 1.2408-1.15345h1.216c.6828 0 .9138.48263 1.2569 1.18583l.6288 1.28599c.0935.18988.0157.42225-.178.51028z" fill="#4a4a4a"/></svg>