<svg fill="none" height="14" viewBox="0 0 15 14" width="15" xmlns="http://www.w3.org/2000/svg"><path d="m14.8904 3.80106c-.454-2.29569-2.052-3.782243-4.0858-3.782243-1.05321 0-2.17908.413977-3.28678 1.204293-1.10771-.809133-2.25173-1.22311-3.32312-1.22311-2.05198 0-3.649983 1.50537-4.085802 3.81988-.61741 3.33064 1.343772 7.73382 7.082052 10.12362l.32687.0565c.10538.001.21005-.0181.3087-.0565 5.73828-2.4274 7.68128-6.84944 7.06388-10.14244zm-7.33627 9.44624h-.09079c-3.39576-1.4113-5.35694-3.53765-6.22858-5.66399h2.19726l.76268-1.56182 1.45273 4.13981 1.67064-3.10487 1.16218 1.84408 1.65245-3.89515 1.0533 2.57795h2.5604c-.8535 2.10752-2.8328 4.23389-6.19227 5.66399zm6.44647-6.41668h-2.3425l-1.5072-3.72579-1.79776 4.21504-1.08955-1.71236-1.48905 2.7473-1.47089-4.19622-1.32561 2.67203h-1.997505c-.27115-.92715-.321002-1.90867-.145273-2.8602.345028-1.95698 1.670638-3.217734 3.359438-3.217734.98059 0 2.05198.432794 3.10521 1.241934l.21791.16935.19975-.16935c1.05323-.80914 2.12461-1.223117 3.08703-1.223117 1.6707 0 2.9963 1.241927 3.3595 3.180097.1789.95872.1227 1.94865-.1635 2.87902z" fill="#4a4a4a"/></svg>