<svg fill="none" height="16" viewBox="0 0 14 16" width="14" xmlns="http://www.w3.org/2000/svg"><g fill="#4a4a4a"><path d="m1.84745 8.79651c-.14227 0-.25761.11945-.25761.2668v6.13629c0 .4421.34601.8004.77283.8004h9.27383c.4268 0 .7728-.3583.7728-.8004v-6.13629c0-.14735-.1153-.2668-.2576-.2668-.1422 0-.2576.11945-.2576.2668v6.13629c0 .1474-.1153.2668-.2576.2668h-2.57605v-4.0019c0-.4421-.346-.8004-.77282-.8004h-2.57607c-.42682 0-.77282.3583-.77282.8004v4.0019h-2.57607c-.14228 0-.25761-.1194-.25761-.2668v-6.13629c0-.14735-.11534-.2668-.25761-.2668zm3.6065 2.66799c0-.1474.11534-.2668.25761-.2668h2.57607c.14227 0 .25761.1194.25761.2668v4.0019h-3.09129z"/><path d="m.77299 8.2629h.088102c.184248-.00186.361668-.07242.499758-.19876.01838-.0124.03562-.02651.05152-.04215l5.58724-5.96077 5.59139 5.96397c.0149.01466.031.02796.0481.03975.1381.12585.3152.19611.499.19796h.0881c.3116.00141.5927-.19373.7097-.49277.1261-.30533.0628-.65917-.1604-.8975l-6.22693-6.6387c-.30401-.3119065-.7939-.3119065-1.09792 0l-6.226106 6.6387c-.22324582.23833-.2865188.59217-.160489.8975.116986.29877.397637.49385.708935.49277zm-.180325-1.01863 6.226625-6.638426c.04749-.049563.11213-.077438.17955-.077438s.13206.027875.17955.077438l6.22761 6.638426c.0793.08456.1012.2104.0554.31829-.0383.1-.1313.16596-.2352.16675h-.0881c-.0681.00002-.1333-.02891-.1803-.08004-.0018-.00213-.0046-.00267-.0064-.00454-.0018-.00186-.0036-.0048-.006-.00666l-5.76108-6.14566-.00309-.00214-.00129-.004c-.0124-.01027-.02578-.01921-.03993-.02668-.01335-.01102-.02777-.02059-.04302-.02854-.01583-.00529-.03215-.00887-.04869-.01068-.03094-.01173-.06489-.01173-.09583 0-.01654.00181-.03286.00539-.04869.01068-.01525.00795-.02966.01752-.04302.02854-.01414.00747-.02752.01641-.03993.02668l-.00206.0032-.00309.00214-5.76241 6.14646c-.00232.00186-.00335.00453-.00567.0064s-.0049.00267-.0067.0048c-.046988.05113-.112168.08006-.180324.08004h-.087586c-.103871-.00079-.196901-.06675-.235195-.16675-.045749-.10789-.023852-.23373.055385-.31829z"/><path d="m8.03046 9.33011c.42681 0 .77282-.35835.77282-.80039v-1.86758c0-.44204-.34601-.80038-.77282-.80038h-2.06086c-.42682 0-.77282.35834-.77282.80038v1.86758c0 .44204.346.80039.77282.80039zm-2.31847-.80039v-1.86758c0-.14734.11534-.26679.25761-.26679h2.06086c.14227 0 .2576.11945.2576.26679v1.86758c0 .14735-.11533.2668-.2576.2668h-2.06086c-.14227 0-.25761-.11945-.25761-.2668z"/><path d="m6.22713 13.0652h-.25761c-.14227 0-.25761.1194-.25761.2668 0 .1473.11534.2668.25761.2668h.25761c.14227 0 .25761-.1195.25761-.2668 0-.1474-.11534-.2668-.25761-.2668z"/></g></svg>