<svg fill="none" height="14" viewBox="0 0 17 14" width="17" xmlns="http://www.w3.org/2000/svg"><path d="m7.23338 6.10661h.00008c-.26205-.46723-.71747-.78227-1.24979-.86423-.12104-.01863-.24082-.07614-.35603-.17101-.31585-.25996-.74268-.36166-1.14177-.27185-.43106.09688-.78387.39665-.99357.84399-.02013.04292-.03409.09039-.04026.13736-.02563.19217-.02123.37735.01294.55021.01277.06468-.01463.1436-.08264.16384-.63906.19032-1.0395.80124-.95229 1.45247.01962.14656.0011.29707-.05372.43528-.19244.4852-.15665 1.02419.09821 1.47861.3584.63932 1.06877.97642 1.78041.86432.31103.4715.83404.7535 1.40306.7535.02453 0 .04915-.0007.07385-.0017.67163-.0287 1.2579-.455 1.56851-1.141.0192-.0427.03231-.0894.03807-.1351.05185-.4106-.00618-.80093-.16774-1.13114.06006-.33881.0137-.68791-.13145-.99881.46794-.54507.5527-1.3254.19413-1.96474zm-.69024 1.73268c-.09152.08424-.11022.22143-.04449.32692l.01658.02589c.0049.0075.00998.01501.01412.02234.13399.23889.17848.51859.12536.78784-.01844.0941-.00516.18897.03857.27447.1268.24698.17036.5363.13306.84725-.23126.5107-.6383.8154-1.11673.8358-.44104.0176-.8496-.2081-1.06496-.5919-.00449-.0081-.00821-.0162-.01202-.0243l-.01319-.0273c-.04492-.0894-.13602-.1432-.23245-.1432-.02326 0-.04695.003-.07029.0096-.54289.1521-1.11377-.084-1.3886-.57422-.17831-.31807-.20326-.69542-.06843-1.03541.08729-.22025.1169-.46032.08552-.69432-.04568-.34066.14101-.75486.58585-.88742.31983-.0952.51066-.42204.44384-.76034-.02318-.11738-.0258-.24589-.01176-.36816.14008-.29892.36635-.497.63703-.55788.24319-.05464.50372.00725.69658.16595.18838.15507.39292.25052.60769.28349.37294.05743.69201.27793.87531.60502h.00009c.27482.49018.17755 1.09874-.23668 1.47988zm8.96816 2.99741.7553-.4378c.09-.0519.1492-.142.1629-.2467.0161-.1229-.0331-.25483-.1314-.35248l-.3727-.37161c-.1047-.10448-.2458-.15254-.3742-.12741l-1.1386.21691-1.1385-1.35726 2.5933-1.63018c.0952-.05996.157-.15895.1698-.27169.0134-.11932-.0289-.23779-.1164-.32524l-.398-.39657c-.1007-.1006-.2464-.14149-.3809-.10608l-2.743.7245c-.0137-3.39619-2.78907-6.15509-6.1991-6.15509-1.57476 0-3.01339.589346-4.10811 1.5571-.03394.01895-.06369.04475-.08628.07696-1.231863 1.13029-2.00541 2.74974-2.00541 4.54634 0 3.40784 2.78126 6.1804 6.1998 6.1804.96457 0 1.87831-.2209 2.69324-.6144.00044.1029.04199.2048.11846.281l.39808.3968c.0768.0766.1778.1186.28235.1186.01455 0 .0291-.0009.04348-.0026.11335-.0124.21265-.0743.27289-.1695l1.6351-2.58462 1.3616 1.13492-.2177 1.135c-.0247.1294.0234.269.1281.3729l.3727.3717c.0861.0857.1979.1338.3072.1338.0158 0 .0315-.0011.0471-.0031.1049-.0138.1949-.073.2466-.162l.4387-.7524c.1213.0849.263.129.4102.129.22 0 .4494-.0929.6299-.2728.3013-.3004.3562-.7348.1435-1.0364zm-.3085-4.88625.2369.23602-2.502 1.57287-.8313-.99099zm-5.1967-3.96904c1.15 1.03689 1.8738 2.53516 1.8738 4.19899 0 .03774-.0021.07498-.0029.11255l-.1387.03663-.9887-1.1786c-.3363-.35804-1.01284-.63487-1.57366-.64407-.05468-.00122-.10736.00081-.15893.00454-.07154-.18565-.11149-.38617-.11149-.59514 0-.49818.22272-.96525.61097-1.28137.19896-.1619.35868-.37857.48961-.65353zm-7.54616-.0574c.99998-.87423 2.30842-1.405927 3.73986-1.405927.20636 0 .40998.01171.61071.033202.00333.001613.00615.003847.00957.005333.23346.100851.41465.312081.48452.564962.07715.27895.0143.58184-.17696.85462l-.01844.01864c-.44984.32658-.8205.22624-1.00262.13626-.11402-.05599-.26874-.06105-.38513-.01222-.1575.06653-.32329.10026-.49416.10026-.19041 0-.35857.11341-.42819.28889-.12942.32566-.39299.57964-.72314.69693-.34893.12362-.74175.08019-1.10624-.12252-.13382-.07446-.24328-.1813-.31662-.30896-.15943-.27764-.22484-.56924-.19316-.84947zm6.59889 9.14599c-.84042.4903-1.817.7727-2.85903.7727-3.13204 0-5.680091-2.54006-5.680091-5.6623 0-1.44694.547921-2.76823 1.446901-3.77024.04156.21056.11978.41933.23547.62076.12029.20929.29809.38359.51421.50383.30748.17118.63314.25795.95331.25795.1976 0 .393-.03306.58078-.09967.4583-.16275.8266-.50999 1.01624-.95623.21722-.00455.42971-.04832.63213-.13037.48976.23105 1.04855.156 1.53696-.20785.01058-.00784.02572-.02184.03494-.03112l.04263-.04326c.00914-.00936.01751-.01931.02512-.02985.29361-.40669.38852-.87207.2673-1.310465-.02542-.091839-.06127-.179693-.10427-.263458.69227.189443 1.33266.505153 1.89292.922773-.00792.01639-.0173.03303-.0244.04934-.10387.23939-.22889.4163-.38216.5411-.50965.41496-.80198 1.02824-.80198 1.68267 0 .25674.04597.50378.12864.73427-.08379.04536-.15997.09989-.22575.16546-.20902.20828-.31619.51412-.3101.88447.00922.55907.28701 1.23348.65708 1.57845l1.17121.97627zm.60468.8747-.23668-.2361.82017-3.08648.9942.82866zm3.88309.3808-.2365-.2359.1511-.7883.4594.383zm1.4537-.8187c-.1209.1205-.2943.1566-.3862.0802l-5.63406-4.69584c-.22568-.21073-.47403-.72906-.48182-1.19917-.00262-.1581.02267-.37481.15793-.50965.12933-.12893.33387-.1576.49019-.1576.0071 0 .01421.00009.02114.00017.4715.00768.99152.25525 1.19322.46935l4.72 5.62734c.0768.0916.0408.2644-.0804.3852zm-.2062-1.53446.7911-.15069.2367.23595-.6435.3728zm1.4426 3.08546c.1015.1012.1015.2651 0 .3663-.0508.0506-.1173.0759-.1837.0759-.0665 0-.133-.0253-.1838-.0759l-.5868-.585c-.1016-.1012-.1016-.2651 0-.3663.1015-.1012.2659-.1012.3674 0zm.6872-.3187c-.0508.0506-.1173.0759-.1838.0759-.0664 0-.1329-.0253-.1837-.0759l-.5869-.5851c-.1015-.1012-.1015-.2651 0-.3663.1016-.1012.266-.1012.3675 0l.5869.5851c.1015.1012.1015.2651 0 .3663z" fill="#4a4a4a"/></svg>