<svg fill="none" height="14" viewBox="0 0 17 14" width="17" xmlns="http://www.w3.org/2000/svg"><path d="m4.96156 0c-1.368 0-2.48078 1.09896-2.48078 2.44999s1.11278 2.44999 2.48078 2.44999 2.48632-1.09896 2.48632-2.44999-1.11832-2.44999-2.48632-2.44999zm0 .349999c1.17647 0 2.12639.938121 2.12639 2.099991s-.94992 2.09999-2.12639 2.09999-2.12084-.93812-2.12084-2.09999.94437-2.099991 2.12084-2.099991zm10.84784 4.424251c-.0175.01873-.0308.0413-.0387.06563l-2.0932 5.66012h-1.5726c.1849-.2582.3069-.55368.299-.87498.0217-.51333-.3483-1.21151-.886-1.225h-6.20194v-1.57499c0-.60277-.39695-1.1273-.91368-1.49843-.51673-.37114-1.16348-.60156-1.7443-.60156s-1.22203.23042-1.738761.60156c-.516733.37113-.919219.89566-.919219 1.49843v6.99997c.00000885.0916.084421.175.177199.175h4.961561c.09278 0 .17719-.0834.1772-.175v-2.975h1.9658c-.03891.2388.01684.5233.13291.7h-.68111c-.53997.0354-.88082.3714-.88599.875.02358.5307.41925.8685.88599.875h9.21434c.0928 0 .1772-.0834.1772-.175v-1.4c0-.0916-.0844-.175-.1772-.175h-1.1629l2.2039-6.24528c.0066-.0175.0104-.03603.0111-.05469 0-.32082-.1795-.57574-.4264-.66718-.3066-.09291-.5257.00858-.7642.1914zm.6424.13672c.1037.0384.1823.1332.1883.32266l-2.2372 6.31637h-6.25176c-.22642 0-.33927-.0685-.41531-.1586-.11111-.1901-.14524-.3226-.07199-.514 2.10516-.039 3.95176-.0274 6.13546-.0274.072-.0001.1414-.0481.1662-.1148l2.1208-5.72584c.1224-.12137.222-.11724.3655-.09839zm-13.79382.16401c.48237 0 1.08155.20163 1.53941.53047.45786.32887.76417.7723.76417 1.21952v1.75c.00001.09163.08442.17498.1772.175h6.37914c.3655.13284.5271.51904.5316.87499-.0286.40344-.1758.71504-.5316.87504-2.11714 0-4.23429 0-6.35145 0-.54314-.2479-.98956-.67785-1.38437-1.06645-.54706-.54024-1.07723-1.15416-1.33452-1.49296-.03517-.04735-.09573-.0751-.15505-.07108-.12898.0077-.20834.18492-.12736.28438.2743.36119.80732.97229 1.36775 1.52576.4615.40955.87704.88775 1.42866 1.11565v2.8547h-4.607163v-6.82503c0-.44722.311848-.89066.769703-1.21952.45786-.32884 1.05151-.53047 1.53388-.53047zm4.07557 6.82502h9.03715v1.05h-9.03715c-.37147-.0086-.49024-.2328-.5316-.525.01594-.3512.25467-.5221.5316-.525z" fill="#4a4a4a"/></svg>