<?xml version="1.0" encoding="UTF-8" standalone="no"?>
<svg width="60px" height="60px" viewBox="0 0 60 60" version="1.1" xmlns="http://www.w3.org/2000/svg" xmlns:xlink="http://www.w3.org/1999/xlink" xmlns:sketch="http://www.bohemiancoding.com/sketch/ns">
    <!-- Generator: Sketch 3.3.3 (12081) - http://www.bohemiancoding.com/sketch -->
    <title>Bigkitchen</title>
    <desc>Created with Sketch.</desc>
    <defs>
        <path id="path-1" d="M15,0 L0.964,0"></path>
        <path id="path-3" d="M2.857,0 L7.143,0 L10,12 L0,12 L2.857,0 L2.857,0 Z"></path>
    </defs>
    <g id="filled" stroke="none" stroke-width="1" fill="none" fill-rule="evenodd" sketch:type="MSPage">
        <g id="Household_sliced" sketch:type="MSLayerGroup" transform="translate(-720.000000, -1560.000000)"></g>
        <g id="Imported-Layers" sketch:type="MSLayerGroup" transform="translate(-719.000000, -1558.000000)">
            <path d="M748,1599 L762,1599 L762,1611 L748,1611 L748,1599 Z" id="Fill-2638" fill="#E4AD40" sketch:type="MSShapeGroup"></path>
            <path d="M762,1612 L748,1612 C747.447,1612 747,1611.553 747,1611 L747,1599 C747,1598.447 747.447,1598 748,1598 L762,1598 C762.553,1598 763,1598.447 763,1599 L763,1611 C763,1611.553 762.553,1612 762,1612 L762,1612 Z M749,1610 L761,1610 L761,1600 L749,1600 L749,1610 Z" id="Fill-2640" fill="#314E55" sketch:type="MSShapeGroup"></path>
            <g id="Group-2643" transform="translate(747.000000, 1605.000000)">
                <mask id="mask-2" sketch:name="Clip 2642" fill="white">
                    <use xlink:href="#path-1"></use>
                </mask>
                <g id="Clip-2642"></g>
                <path d="M0.964,0 L15,0" id="Fill-2641" fill="#D8D8D8" sketch:type="MSShapeGroup" mask="url(#mask-2)"></path>
            </g>
            <path d="M746.964,1604 L763,1604 L763,1606 L746.964,1606 L746.964,1604 Z" id="Fill-2644" fill="#314E55" sketch:type="MSShapeGroup"></path>
            <path d="M736,1599 L748,1599 L748,1611 L736,1611 L736,1599 Z" id="Fill-2645" fill="#D8D8D8" sketch:type="MSShapeGroup"></path>
            <path d="M748,1612 L736,1612 C735.447,1612 735,1611.553 735,1611 L735,1599 C735,1598.447 735.447,1598 736,1598 L748,1598 C748.553,1598 749,1598.447 749,1599 L749,1611 C749,1611.553 748.553,1612 748,1612 L748,1612 Z M737,1610 L747,1610 L747,1600 L737,1600 L737,1610 Z" id="Fill-2647" fill="#314E55" sketch:type="MSShapeGroup"></path>
            <path d="M721,1599 L736,1599 L736,1611 L721,1611 L721,1599 Z" id="Fill-2648" fill="#E4AD40" sketch:type="MSShapeGroup"></path>
            <path d="M736,1612 L721,1612 C720.447,1612 720,1611.553 720,1611 L720,1599 C720,1598.447 720.447,1598 721,1598 L736,1598 C736.553,1598 737,1598.447 737,1599 L737,1611 C737,1611.553 736.553,1612 736,1612 L736,1612 Z M722,1610 L735,1610 L735,1600 L722,1600 L722,1610 Z" id="Fill-2650" fill="#314E55" sketch:type="MSShapeGroup"></path>
            <path d="M762,1579 L776,1579 L776,1611 L762,1611 L762,1579 Z" id="Fill-2651" fill="#D8D8D8" sketch:type="MSShapeGroup"></path>
            <path d="M776,1612 L762,1612 C761.447,1612 761,1611.553 761,1611 L761,1579 C761,1578.447 761.447,1578 762,1578 L776,1578 C776.553,1578 777,1578.447 777,1579 L777,1611 C777,1611.553 776.553,1612 776,1612 L776,1612 Z M763,1610 L775,1610 L775,1580 L763,1580 L763,1610 Z" id="Fill-2653" fill="#314E55" sketch:type="MSShapeGroup"></path>
            <path d="M761,1591 L777,1591 L777,1593 L761,1593 L761,1591 Z" id="Fill-2654" fill="#314E55" sketch:type="MSShapeGroup"></path>
            <path d="M764,1585 L766,1585 L766,1590 L764,1590 L764,1585 Z" id="Fill-2655" fill="#314E55" sketch:type="MSShapeGroup"></path>
            <path d="M764,1594 L766,1594 L766,1599 L764,1599 L764,1594 Z" id="Fill-2656" fill="#314E55" sketch:type="MSShapeGroup"></path>
            <path d="M732,1601 L734,1601 L734,1606 L732,1606 L732,1601 Z" id="Fill-2657" fill="#314E55" sketch:type="MSShapeGroup"></path>
            <path d="M739,1602 L745,1602 L745,1607 L739,1607 L739,1602 Z" id="Fill-2658" fill="#B48E7A" sketch:type="MSShapeGroup"></path>
            <path d="M745,1608 L739,1608 C738.447,1608 738,1607.553 738,1607 L738,1602 C738,1601.447 738.447,1601 739,1601 L745,1601 C745.553,1601 746,1601.447 746,1602 L746,1607 C746,1607.553 745.553,1608 745,1608 L745,1608 Z M740,1606 L744,1606 L744,1603 L740,1603 L740,1606 Z" id="Fill-2660" fill="#314E55" sketch:type="MSShapeGroup"></path>
            <path d="M733,1588 L751,1588 L751,1590 L733,1590 L733,1588 Z" id="Fill-2661" fill="#314E55" sketch:type="MSShapeGroup"></path>
            <g id="Group-2664" transform="translate(737.000000, 1577.000000)">
                <mask id="mask-4" sketch:name="Clip 2663" fill="white">
                    <use xlink:href="#path-3"></use>
                </mask>
                <g id="Clip-2663"></g>
                <path d="M0,0 L10,0 L10,12 L0,12 L0,0 Z" id="Fill-2662" fill="#D8D8D8" sketch:type="MSShapeGroup" mask="url(#mask-4)"></path>
            </g>
            <path d="M747.019,1590 C747.015,1590.001 747.008,1590.001 747,1590 L737,1590 C736.694,1590 736.405,1589.86 736.215,1589.62 C736.025,1589.38 735.956,1589.066 736.027,1588.769 L738.885,1576.769 C738.992,1576.318 739.394,1576 739.857,1576 L744.143,1576 C744.606,1576 745.008,1576.318 745.115,1576.769 L747.928,1588.581 C747.987,1588.708 748.019,1588.851 748.019,1589 C748.019,1589.553 747.572,1590 747.019,1590 L747.019,1590 Z M738.266,1588 L745.734,1588 L743.352,1578 L740.648,1578 L738.266,1588 L738.266,1588 Z" id="Fill-2665" fill="#314E55" sketch:type="MSShapeGroup"></path>
        </g>
    </g>
</svg>