<svg xmlns="http://www.w3.org/2000/svg" xmlns:xlink="http://www.w3.org/1999/xlink" width="60" height="60" version="1.1" viewBox="0 0 60 60"><title>Cocktail</title><desc>Created with Sketch.</desc><defs><path id="path-1" d="M0.824,0 L28.608,0 L14.716,8.385 L0.824,0 L0.824,0 Z"/><path id="path-3" d="M2,4 C3.105,4 4,3.105 4,2 C4,0.895 3.105,0 2,0 C0.895,0 0,0.895 0,2 C0,3.105 0.895,4 2,4 L2,4 Z"/><path id="path-5" d="M2.5,5 C3.881,5 5,3.881 5,2.5 C5,1.119 3.881,0 2.5,0 C1.119,0 0,1.119 0,2.5 C0,3.881 1.119,5 2.5,5 L2.5,5 Z"/></defs><g id="colored" fill="none" fill-rule="evenodd" stroke="none" stroke-width="1"><g id="Imported-Layers" transform="translate(-720.000000, -359.000000)"><g id="Group-636" transform="translate(735.000000, 388.000000)"><mask id="mask-2" fill="#fff"><use xlink:href="#path-1"/></mask><path id="Fill-634" fill="#F68CAC" d="M0.824,0 L28.608,0 L28.608,8.385 L0.824,8.385 L0.824,0 Z" mask="url(#mask-2)"/></g><path id="Fill-637" fill="#314E55" d="M749.716,397.385 C749.537,397.385 749.358,397.337 749.199,397.241 L735.308,388.856 C734.923,388.624 734.74,388.165 734.861,387.732 C734.981,387.299 735.375,387 735.824,387 L763.608,387 C764.058,387 764.451,387.299 764.571,387.732 C764.692,388.165 764.51,388.624 764.125,388.856 L750.232,397.241 C750.073,397.337 749.894,397.385 749.716,397.385 L749.716,397.385 Z M739.416,389 L749.716,395.217 L760.017,389 L739.416,389 L739.416,389 Z"/><path id="Fill-638" fill="#314E55" d="M749.716,397.385 C749.537,397.385 749.358,397.337 749.199,397.241 L725.367,382.856 C724.982,382.624 724.8,382.165 724.921,381.732 C725.041,381.299 725.435,381 725.884,381 L773.548,381 C773.997,381 774.391,381.299 774.511,381.732 C774.632,382.165 774.449,382.624 774.064,382.856 L750.232,397.241 C750.073,397.337 749.894,397.385 749.716,397.385 L749.716,397.385 Z M729.476,383 L749.716,395.217 L769.956,383 L729.476,383 L729.476,383 Z"/><path id="Fill-639" fill="#314E55" d="M752,389.001 C751.905,389.001 751.809,388.987 751.712,388.958 C751.184,388.799 750.884,388.242 751.042,387.713 L755.961,371.345 C756.021,371.144 756.144,370.967 756.31,370.839 L765.297,363.957 C765.737,363.622 766.364,363.704 766.699,364.143 C767.035,364.582 766.952,365.209 766.514,365.545 L757.783,372.23 L752.958,388.288 C752.827,388.721 752.431,389.001 752,389.001"/><path id="Fill-640" fill="#314E55" d="M749,395 L751,395 L751,411.036 L749,411.036 L749,395 Z"/><path id="Fill-641" fill="#314E55" d="M758,414 C757.51,414 757.102,413.647 757.017,413.182 C756.536,412.755 754.074,412 750,412 C745.926,412 743.464,412.755 742.983,413.182 C742.898,413.647 742.49,414 742,414 C741.447,414 741,413.552 741,413 C741,410.145 748.497,410 750,410 C751.503,410 759,410.145 759,413 C759,413.552 758.553,414 758,414"/><g id="Group-644" transform="translate(744.000000, 371.000000)"><mask id="mask-4" fill="#fff"><use xlink:href="#path-3"/></mask><path id="Fill-642" fill="#F68CAC" d="M0,0 L4,0 L4,4 L0,4 L0,0 Z" mask="url(#mask-4)"/></g><path id="Fill-645" fill="#314E55" d="M746,376 C744.346,376 743,374.654 743,373 C743,371.346 744.346,370 746,370 C747.654,370 749,371.346 749,373 C749,374.654 747.654,376 746,376 L746,376 Z M746,372 C745.448,372 745,372.449 745,373 C745,373.551 745.448,374 746,374 C746.552,374 747,373.551 747,373 C747,372.449 746.552,372 746,372 L746,372 Z"/><g id="Group-648" transform="translate(732.000000, 362.000000)"><mask id="mask-6" fill="#fff"><use xlink:href="#path-5"/></mask><path id="Fill-646" fill="#F68CAC" d="M0,0 L5,0 L5,5 L0,5 L0,0 Z" mask="url(#mask-6)"/></g><path id="Fill-649" fill="#314E55" d="M734.5,368 C732.57,368 731,366.43 731,364.5 C731,362.57 732.57,361 734.5,361 C736.43,361 738,362.57 738,364.5 C738,366.43 736.43,368 734.5,368 L734.5,368 Z M734.5,363 C733.673,363 733,363.673 733,364.5 C733,365.327 733.673,366 734.5,366 C735.327,366 736,365.327 736,364.5 C736,363.673 735.327,363 734.5,363 L734.5,363 Z"/></g></g></svg>