<?xml version="1.0" encoding="UTF-8" standalone="no"?>
<svg width="60px" height="60px" viewBox="0 0 60 60" version="1.1" xmlns="http://www.w3.org/2000/svg" xmlns:xlink="http://www.w3.org/1999/xlink" xmlns:sketch="http://www.bohemiancoding.com/sketch/ns">
    <!-- Generator: Sketch 3.3.3 (12081) - http://www.bohemiancoding.com/sketch -->
    <title>Tvstand</title>
    <desc>Created with Sketch.</desc>
    <defs>
        <path id="path-1" d="M0,1 L34,1 L33,0 L33,20 L34,19 L0,19 L1,20 L1,0 L0,1 L0,1 Z"></path>
        <path id="path-3" d="M0,0 L34,0 L34,20 L0,20 L0,0 Z"></path>
    </defs>
    <g id="filled" stroke="none" stroke-width="1" fill="none" fill-rule="evenodd" sketch:type="MSPage">
        <g id="Household_sliced" sketch:type="MSLayerGroup" transform="translate(-840.000000, -480.000000)"></g>
        <g id="Imported-Layers" sketch:type="MSLayerGroup" transform="translate(-839.000000, -478.000000)">
            <path d="M847,516 L868,516 L868,527 L847,527 L847,516 Z" id="Fill-345" fill="#73C9C9" sketch:type="MSShapeGroup"></path>
            <path d="M868,528 L847,528 C846.447,528 846,527.552 846,527 L846,516 C846,515.448 846.447,515 847,515 L868,515 C868.553,515 869,515.448 869,516 L869,527 C869,527.552 868.553,528 868,528 L868,528 Z M848,526 L867,526 L867,517 L848,517 L848,526 Z" id="Fill-347" fill="#314E55" sketch:type="MSShapeGroup"></path>
            <path d="M868,516 L889,516 L889,527 L868,527 L868,516 Z" id="Fill-348" fill="#73C9C9" sketch:type="MSShapeGroup"></path>
            <path d="M889,528 L868,528 C867.447,528 867,527.552 867,527 L867,516 C867,515.448 867.447,515 868,515 L889,515 C889.553,515 890,515.448 890,516 L890,527 C890,527.552 889.553,528 889,528 L889,528 Z M869,526 L888,526 L888,517 L869,517 L869,526 Z" id="Fill-350" fill="#314E55" sketch:type="MSShapeGroup"></path>
            <path d="M846,526 L848,526 L848,531 L846,531 L846,526 Z" id="Fill-351" fill="#314E55" sketch:type="MSShapeGroup"></path>
            <path d="M888,526 L890,526 L890,531 L888,531 L888,526 Z" id="Fill-352" fill="#314E55" sketch:type="MSShapeGroup"></path>
            <path d="M876,521 L882,521 L882,523 L876,523 L876,521 Z" id="Fill-353" fill="#314E55" sketch:type="MSShapeGroup"></path>
            <path d="M854,521 L860,521 L860,523 L854,523 L854,521 Z" id="Fill-354" fill="#314E55" sketch:type="MSShapeGroup"></path>
            <path d="M863,512 L873,512 L873,514 L863,514 L863,512 Z" id="Fill-355" fill="#314E55" sketch:type="MSShapeGroup"></path>
            <path d="M867,508 L869,508 L869,513 L867,513 L867,508 Z" id="Fill-356" fill="#314E55" sketch:type="MSShapeGroup"></path>
            <g id="Group-359" transform="translate(851.000000, 489.000000)">
                <mask id="mask-2" sketch:name="Clip 358" fill="white">
                    <use xlink:href="#path-1"></use>
                </mask>
                <g id="Clip-358"></g>
                <path d="M0,0 L34,0 L34,20 L0,20 L0,0 Z" id="Fill-357" fill="#E9E7D1" sketch:type="MSShapeGroup" mask="url(#mask-2)"></path>
            </g>
            <g id="Group-362" transform="translate(851.000000, 489.000000)">
                <mask id="mask-4" sketch:name="Clip 361" fill="white">
                    <use xlink:href="#path-3"></use>
                </mask>
                <g id="Clip-361"></g>
                <path d="M34,22 L0,22 C-1.104,22 -2,21.104 -2,20 L-2,0 C-2,-1.104 -1.104,-2 0,-2 L34,-2 C35.104,-2 36,-1.104 36,0 L36,20 C36,21.104 35.104,22 34,22 L34,22 Z M2,18 L32,18 L32,2 L2,2 L2,18 Z" id="Fill-360" fill="#314E55" sketch:type="MSShapeGroup" mask="url(#mask-4)"></path>
            </g>
        </g>
    </g>
</svg>