<svg xmlns="http://www.w3.org/2000/svg" xmlns:xlink="http://www.w3.org/1999/xlink" width="60" height="60" version="1.1" viewBox="0 0 60 60"><title>Photography</title><desc>Created with Sketch.</desc><defs><polygon id="path-1" points="0 2241 953.752 2241 953.752 0 0 0"/><polygon id="path-3" points="0 2241 953.752 2241 953.752 0 0 0"/><polygon id="path-5" points="0 2241 953.752 2241 953.752 0 0 0"/><polygon id="path-7" points="0 2241 953.752 2241 953.752 0 0 0"/><polygon id="path-9" points="0 2241 953.752 2241 953.752 0 0 0"/><polygon id="path-11" points="0 2241 953.752 2241 953.752 0 0 0"/><polygon id="path-13" points=".752 40 52.752 40 52.752 .999 .752 .999"/><polygon id="path-15" points=".752 11 52.752 11 52.752 .999 .752 .999"/><path id="path-17" d="M0.751,6 C0.751,9.314 3.438,12 6.752,12 C10.066,12 12.751,9.314 12.751,6 C12.751,2.686 10.066,0 6.752,0 C3.438,0 0.751,2.686 0.751,6 L0.751,6 Z"/><polygon id="path-19" points=".751 18 18.751 18 9.751 0"/><polygon id="path-21" points="0 2241 953.752 2241 953.752 0 0 0"/><polygon id="path-23" points="0 2241 953.752 2241 953.752 0 0 0"/><polygon id="path-25" points="0 2241 953.752 2241 953.752 0 0 0"/><polygon id="path-27" points="0 2241 953.752 2241 953.752 0 0 0"/><polygon id="path-29" points="0 2241 953.752 2241 953.752 0 0 0"/><polygon id="path-31" points="0 2241 953.752 2241 953.752 0 0 0"/><polygon id="path-33" points="0 2241 953.752 2241 953.752 0 0 0"/><polygon id="path-35" points="0 2241 953.752 2241 953.752 0 0 0"/><polygon id="path-37" points="0 2241 953.752 2241 953.752 0 0 0"/><polygon id="path-39" points="0 2241 953.752 2241 953.752 0 0 0"/><polygon id="path-41" points="0 2241 953.752 2241 953.752 0 0 0"/><polygon id="path-43" points="0 2241 953.752 2241 953.752 0 0 0"/><polygon id="path-45" points="0 2241 953.752 2241 953.752 0 0 0"/><polygon id="path-47" points="0 2241 953.752 2241 953.752 0 0 0"/><polygon id="path-49" points="0 2241 953.752 2241 953.752 0 0 0"/><polygon id="path-51" points="0 2241 953.752 2241 953.752 0 0 0"/><polygon id="path-53" points="0 2241 953.752 2241 953.752 0 0 0"/><polygon id="path-55" points="0 2241 953.752 2241 953.752 0 0 0"/><polygon id="path-57" points="0 2241 953.752 2241 953.752 0 0 0"/><polygon id="path-59" points="0 2241 953.752 2241 953.752 0 0 0"/><polygon id="path-61" points="0 2241 953.752 2241 953.752 0 0 0"/><polygon id="path-63" points="0 2241 953.752 2241 953.752 0 0 0"/><polygon id="path-65" points="0 2241 953.752 2241 953.752 0 0 0"/><polygon id="path-67" points="0 2241 953.752 2241 953.752 0 0 0"/><polygon id="path-69" points="0 2241 953.752 2241 953.752 0 0 0"/><polygon id="path-71" points="0 2241 953.752 2241 953.752 0 0 0"/><polygon id="path-73" points="0 2241 953.752 2241 953.752 0 0 0"/><polygon id="path-75" points="0 2241 953.752 2241 953.752 0 0 0"/><polygon id="path-77" points="0 2241 953.752 2241 953.752 0 0 0"/><polygon id="path-79" points="0 2241 953.752 2241 953.752 0 0 0"/><polygon id="path-81" points="0 2241 953.752 2241 953.752 0 0 0"/><polygon id="path-83" points="0 2241 953.752 2241 953.752 0 0 0"/><polygon id="path-85" points="0 2241 953.752 2241 953.752 0 0 0"/><polygon id="path-87" points="0 2241 953.752 2241 953.752 0 0 0"/><polygon id="path-89" points="0 2241 953.752 2241 953.752 0 0 0"/><polygon id="path-91" points="0 2241 953.752 2241 953.752 0 0 0"/><polygon id="path-93" points="0 2241 953.752 2241 953.752 0 0 0"/><polygon id="path-95" points="0 2241 953.752 2241 953.752 0 0 0"/><polygon id="path-97" points="0 2241 953.752 2241 953.752 0 0 0"/><polygon id="path-99" points="0 2241 953.752 2241 953.752 0 0 0"/></defs><g id="colored" fill="none" fill-rule="evenodd" stroke="none" stroke-width="1"><g id="Page-1" transform="translate(-633.730970, -256.986717)"><g id="Group-64"><mask id="mask-2" fill="#fff"><use xlink:href="#path-1"/></mask></g><g id="Group-111"><mask id="mask-4" fill="#fff"><use xlink:href="#path-3"/></mask></g><g id="Group-133"><mask id="mask-6" fill="#fff"><use xlink:href="#path-5"/></mask></g><g id="Group-254"><mask id="mask-8" fill="#fff"><use xlink:href="#path-7"/></mask></g><g id="Group-397"><mask id="mask-10" fill="#fff"><use xlink:href="#path-9"/></mask></g><g id="Group-513"><mask id="mask-12" fill="#fff"><use xlink:href="#path-11"/></mask></g><polygon id="Fill-514" fill="#EBEBEB" points="638.752 303 690.752 303 690.752 264 638.752 264"/><g id="Group-518" transform="translate(638.000000, 263.000000)"><mask id="mask-14" fill="#fff"><use xlink:href="#path-13"/></mask><path id="Fill-516" fill="#314E55" d="M2.752,38 L50.752,38 L50.752,3 L2.752,3 L2.752,38 Z M52.752,42 L0.752,42 C-0.353,42 -1.248,41.104 -1.248,40 L-1.248,1 C-1.248,-0.104 -0.353,-1 0.752,-1 L52.752,-1 C53.856,-1 54.752,-0.104 54.752,1 L54.752,40 C54.752,41.104 53.856,42 52.752,42 L52.752,42 Z" mask="url(#mask-14)"/></g><polygon id="Fill-519" fill="#D8D8D8" points="638.752 311 690.752 311 690.752 301 638.752 301"/><g id="Group-523" transform="translate(638.000000, 300.000000)"><mask id="mask-16" fill="#fff"><use xlink:href="#path-15"/></mask><path id="Fill-521" fill="#314E55" d="M2.752,9 L50.752,9 L50.752,3 L2.752,3 L2.752,9 Z M52.752,13 L0.752,13 C-0.353,13 -1.248,12.104 -1.248,11 L-1.248,1 C-1.248,-0.104 -0.353,-1 0.752,-1 L52.752,-1 C53.856,-1 54.752,-0.104 54.752,1 L54.752,11 C54.752,12.104 53.856,13 52.752,13 L52.752,13 Z" mask="url(#mask-16)"/></g><g id="Group-526" transform="translate(666.000000, 274.000000)"><mask id="mask-18" fill="#fff"><use xlink:href="#path-17"/></mask><polygon id="Fill-524" fill="#E4AD40" points="-4.248 17 17.752 17 17.752 -5 -4.248 -5" mask="url(#mask-18)"/></g><g id="Group-537" transform="translate(659.000000, 267.000000)"><path id="Fill-527" fill="#314E55" d="M13.7515,8 C10.9945,8 8.7515,10.243 8.7515,13 C8.7515,15.757 10.9945,18 13.7515,18 C16.5085,18 18.7515,15.757 18.7515,13 C18.7515,10.243 16.5085,8 13.7515,8 M13.7515,20 C9.8925,20 6.7515,16.86 6.7515,13 C6.7515,9.14 9.8925,6 13.7515,6 C17.6105,6 20.7515,9.14 20.7515,13 C20.7515,16.86 17.6105,20 13.7515,20"/><path id="Fill-529" fill="#535353" d="M13.7515,4 C13.1985,4 12.7515,3.552 12.7515,3 L12.7515,1 C12.7515,0.448 13.1985,0 13.7515,0 C14.3045,0 14.7515,0.448 14.7515,1 L14.7515,3 C14.7515,3.552 14.3045,4 13.7515,4"/><path id="Fill-531" fill="#535353" d="M13.7515,26 C13.1985,26 12.7515,25.552 12.7515,25 L12.7515,23 C12.7515,22.448 13.1985,22 13.7515,22 C14.3045,22 14.7515,22.448 14.7515,23 L14.7515,25 C14.7515,25.552 14.3045,26 13.7515,26"/><path id="Fill-533" fill="#535353" d="M3.7515,14 L1.7515,14 C1.1985,14 0.7515,13.552 0.7515,13 C0.7515,12.448 1.1985,12 1.7515,12 L3.7515,12 C4.3045,12 4.7515,12.448 4.7515,13 C4.7515,13.552 4.3045,14 3.7515,14"/><path id="Fill-535" fill="#535353" d="M25.7515,14 L23.7515,14 C23.1985,14 22.7515,13.552 22.7515,13 C22.7515,12.448 23.1985,12 23.7515,12 L25.7515,12 C26.3045,12 26.7515,12.448 26.7515,13 C26.7515,13.552 26.3045,14 25.7515,14"/></g><g id="Group-540" transform="translate(643.000000, 280.000000)"><mask id="mask-20" fill="#fff"><use xlink:href="#path-19"/></mask><polygon id="Fill-538" fill="#EBEBEB" points="-4.248 23 23.752 23 23.752 -5 -4.248 -5" mask="url(#mask-20)"/></g><g id="Group-545" fill="#314E55" transform="translate(642.000000, 279.000000)"><path id="Fill-541" d="M3.3697,18 L18.1337,18 L10.7517,3.236 L3.3697,18 Z M19.7517,20 L1.7517,20 C1.4047,20 1.0837,19.82 0.9007,19.526 C0.7187,19.231 0.7017,18.863 0.8567,18.553 L9.8567,0.553 C10.1967,-0.125 11.3067,-0.125 11.6457,0.553 L20.6457,18.553 C20.8017,18.863 20.7847,19.231 20.6017,19.526 C20.4197,19.82 20.0987,20 19.7517,20 L19.7517,20 Z"/><path id="Fill-543" d="M10.7076,12.3486 C10.6856,12.3486 10.6636,12.3486 10.6416,12.3466 C10.3546,12.3276 10.0906,12.1866 9.9156,11.9596 L7.2606,8.5156 C6.9236,8.0776 7.0046,7.4506 7.4416,7.1126 C7.8786,6.7756 8.5076,6.8576 8.8446,7.2936 L10.8086,9.8416 L13.2716,7.4006 C13.6656,7.0106 14.2986,7.0156 14.6866,7.4076 C15.0746,7.7996 15.0716,8.4326 14.6806,8.8216 L11.4116,12.0586 C11.2236,12.2446 10.9706,12.3486 10.7076,12.3486"/></g><g id="Group-707"><mask id="mask-22" fill="#fff"><use xlink:href="#path-21"/></mask></g><g id="Group-738"><mask id="mask-24" fill="#fff"><use xlink:href="#path-23"/></mask></g><g id="Group-928"><mask id="mask-26" fill="#fff"><use xlink:href="#path-25"/></mask></g><g id="Group-1199"><mask id="mask-28" fill="#fff"><use xlink:href="#path-27"/></mask></g><g id="Group-1213"><mask id="mask-30" fill="#fff"><use xlink:href="#path-29"/></mask></g><g id="Group-1270"><mask id="mask-32" fill="#fff"><use xlink:href="#path-31"/></mask></g><g id="Group-1306"><mask id="mask-34" fill="#fff"><use xlink:href="#path-33"/></mask></g><g id="Group-1588"><mask id="mask-36" fill="#fff"><use xlink:href="#path-35"/></mask></g><g id="Group-1602"><mask id="mask-38" fill="#fff"><use xlink:href="#path-37"/></mask></g><g id="Group-1620"><mask id="mask-40" fill="#fff"><use xlink:href="#path-39"/></mask></g><g id="Group-1710"><mask id="mask-42" fill="#fff"><use xlink:href="#path-41"/></mask></g><g id="Group-1732"><mask id="mask-44" fill="#fff"><use xlink:href="#path-43"/></mask></g><g id="Group-1809"><mask id="mask-46" fill="#fff"><use xlink:href="#path-45"/></mask></g><g id="Group-1860"><mask id="mask-48" fill="#fff"><use xlink:href="#path-47"/></mask></g><g id="Group-1896"><mask id="mask-50" fill="#fff"><use xlink:href="#path-49"/></mask></g><g id="Group-1982"><mask id="mask-52" fill="#fff"><use xlink:href="#path-51"/></mask></g><g id="Group-2005"><mask id="mask-54" fill="#fff"><use xlink:href="#path-53"/></mask></g><g id="Group-2232"><mask id="mask-56" fill="#fff"><use xlink:href="#path-55"/></mask></g><g id="Group-2311"><mask id="mask-58" fill="#fff"><use xlink:href="#path-57"/></mask></g><g id="Group-2356"><mask id="mask-60" fill="#fff"><use xlink:href="#path-59"/></mask></g><g id="Group-2410"><mask id="mask-62" fill="#fff"><use xlink:href="#path-61"/></mask></g><g id="Group-2471"><mask id="mask-64" fill="#fff"><use xlink:href="#path-63"/></mask></g><g id="Group-2490"><mask id="mask-66" fill="#fff"><use xlink:href="#path-65"/></mask></g><g id="Group-2575"><mask id="mask-68" fill="#fff"><use xlink:href="#path-67"/></mask></g><g id="Group-2654"><mask id="mask-70" fill="#fff"><use xlink:href="#path-69"/></mask></g><g id="Group-2867"><mask id="mask-72" fill="#fff"><use xlink:href="#path-71"/></mask></g><g id="Group-3028"><mask id="mask-74" fill="#fff"><use xlink:href="#path-73"/></mask></g><g id="Group-3202"><mask id="mask-76" fill="#fff"><use xlink:href="#path-75"/></mask></g><g id="Group-3349"><mask id="mask-78" fill="#fff"><use xlink:href="#path-77"/></mask></g><g id="Group-3445"><mask id="mask-80" fill="#fff"><use xlink:href="#path-79"/></mask></g><g id="Group-3527"><mask id="mask-82" fill="#fff"><use xlink:href="#path-81"/></mask></g><g id="Group-3661"><mask id="mask-84" fill="#fff"><use xlink:href="#path-83"/></mask></g><g id="Group-3846"><mask id="mask-86" fill="#fff"><use xlink:href="#path-85"/></mask></g><g id="Group-3891"><mask id="mask-88" fill="#fff"><use xlink:href="#path-87"/></mask></g><g id="Group-3932"><mask id="mask-90" fill="#fff"><use xlink:href="#path-89"/></mask></g><g id="Group-3979"><mask id="mask-92" fill="#fff"><use xlink:href="#path-91"/></mask></g><g id="Group-4060"><mask id="mask-94" fill="#fff"><use xlink:href="#path-93"/></mask></g><g id="Group-4079"><mask id="mask-96" fill="#fff"><use xlink:href="#path-95"/></mask></g><g id="Group-4092"><mask id="mask-98" fill="#fff"><use xlink:href="#path-97"/></mask></g><g id="Group-4117"><mask id="mask-100" fill="#fff"><use xlink:href="#path-99"/></mask></g></g></g></svg>