<?xml version="1.0" encoding="UTF-8" standalone="no"?>
<svg width="60px" height="60px" viewBox="0 0 60 60" version="1.1" xmlns="http://www.w3.org/2000/svg" xmlns:xlink="http://www.w3.org/1999/xlink" xmlns:sketch="http://www.bohemiancoding.com/sketch/ns">
    <!-- Generator: Sketch 3.3.3 (12081) - http://www.bohemiancoding.com/sketch -->
    <title>Barbecue</title>
    <desc>Created with Sketch.</desc>
    <defs>
        <path id="path-1" d="M0,0 L5,0 L5,11.497 C5,12.879 3.89,14 2.5,14 C1.119,14 0,12.878 0,11.497 L0,0 L0,0 Z"></path>
        <path id="path-3" d="M1.072,10.5 C0.105,8.826 0.676,6.687 2.345,5.723 L10.154,1.215 C11.824,0.251 13.964,0.829 14.928,2.5 C15.895,4.174 15.324,6.313 13.655,7.277 L5.845,11.785 C4.176,12.75 2.036,12.171 1.072,10.5"></path>
        <path id="path-5" d="M1.28,10.5 C0.313,8.826 0.884,6.687 2.554,5.723 L10.363,1.215 C12.033,0.251 14.172,0.829 15.136,2.5 C16.103,4.174 15.533,6.313 13.863,7.277 L6.054,11.785 C4.384,12.75 2.245,12.171 1.28,10.5"></path>
        <path id="path-7" d="M4,1.36 C9,-0.14 10.5,2.86 14.5,3.86 C18.5,4.86 23.5,6.36 21.5,10.36 C19.5,14.36 12.5,10.36 10,12.36 C7.5,14.36 3,14.86 1.5,12.36 C-2.22044605e-16,9.86 -1,2.86 4,1.36 L4,1.36 Z"></path>
        <path id="path-9" d="M0.971,4.117 C1.539,1.843 3.9,0 6.258,0 L12.742,0 C15.093,0 16.566,1.844 16.026,4.138 L15,8.5 L0,8 L0.971,4.117 L0.971,4.117 Z"></path>
    </defs>
    <g id="colored" stroke="none" stroke-width="1" fill="none" fill-rule="evenodd" sketch:type="MSPage">
        <g id="Kitchen_sliced" sketch:type="MSLayerGroup" transform="translate(0.000000, -1680.000000)"></g>
        <g id="Imported-Layers" sketch:type="MSLayerGroup" transform="translate(0.000000, -1679.000000)">
            <path d="M50.99,1724 L10.01,1724 C7.248,1724 5,1721.758 5,1719.002 L5,1691.998 C5,1689.242 7.248,1687 10.01,1687 L50.99,1687 C53.752,1687 56,1689.242 56,1691.998 L56,1719.002 C56,1721.758 53.752,1724 50.99,1724 L50.99,1724 Z M10.01,1689 C8.35,1689 7,1690.345 7,1691.998 L7,1719.002 C7,1720.655 8.35,1722 10.01,1722 L50.99,1722 C52.65,1722 54,1720.655 54,1719.002 L54,1691.998 C54,1690.345 52.65,1689 50.99,1689 L10.01,1689 L10.01,1689 Z" id="Fill-2574" fill="#314E55" sketch:type="MSShapeGroup"></path>
            <path d="M11,1688 L13,1688 L13,1694 L11,1694 L11,1688 Z" id="Fill-2575" fill="#314E55" sketch:type="MSShapeGroup"></path>
            <path d="M18,1688 L20,1688 L20,1694 L18,1694 L18,1688 Z" id="Fill-2576" fill="#314E55" sketch:type="MSShapeGroup"></path>
            <path d="M25,1688 L27,1688 L27,1697 L25,1697 L25,1688 Z" id="Fill-2577" fill="#314E55" sketch:type="MSShapeGroup"></path>
            <path d="M38.931,1688 L40.931,1688 L40.931,1697 L38.931,1697 L38.931,1688 Z" id="Fill-2578" fill="#314E55" sketch:type="MSShapeGroup"></path>
            <path d="M46.931,1688 L48.931,1688 L48.931,1694 L46.931,1694 L46.931,1688 Z" id="Fill-2579" fill="#314E55" sketch:type="MSShapeGroup"></path>
            <path d="M11,1705 L13,1705 L13,1724 L11,1724 L11,1705 Z" id="Fill-2580" fill="#314E55" sketch:type="MSShapeGroup"></path>
            <path d="M18.069,1717 L20.069,1717 L20.069,1724 L18.069,1724 L18.069,1717 Z" id="Fill-2581" fill="#314E55" sketch:type="MSShapeGroup"></path>
            <path d="M25.069,1717 L27.069,1717 L27.069,1724 L25.069,1724 L25.069,1717 Z" id="Fill-2582" fill="#314E55" sketch:type="MSShapeGroup"></path>
            <path d="M32,1687.941 L34,1687.941 L34,1724 L32,1724 L32,1687.941 Z" id="Fill-2583" fill="#314E55" sketch:type="MSShapeGroup"></path>
            <path d="M39.139,1715 L41.139,1715 L41.139,1724 L39.139,1724 L39.139,1715 Z" id="Fill-2584" fill="#314E55" sketch:type="MSShapeGroup"></path>
            <path d="M46.931,1712 L48.931,1712 L48.931,1724 L46.931,1724 L46.931,1712 Z" id="Fill-2585" fill="#314E55" sketch:type="MSShapeGroup"></path>
            <path d="M18.069,1704.5 L20.069,1704.5 L20.069,1709.001 L18.069,1709.001 L18.069,1704.5 Z" id="Fill-2586" fill="#314E55" sketch:type="MSShapeGroup"></path>
            <path d="M25.069,1704.5 L27.069,1704.5 L27.069,1709.001 L25.069,1709.001 L25.069,1704.5 Z" id="Fill-2587" fill="#314E55" sketch:type="MSShapeGroup"></path>
            <path d="M38.931,1704.5 L40.931,1704.5 L40.931,1709.001 L38.931,1709.001 L38.931,1704.5 Z" id="Fill-2588" fill="#314E55" sketch:type="MSShapeGroup"></path>
            <path d="M46.931,1700 L48.931,1700 L48.931,1704 L46.931,1704 L46.931,1700 Z" id="Fill-2589" fill="#314E55" sketch:type="MSShapeGroup"></path>
            <g id="Group-2592" transform="translate(28.000000, 1723.000000)">
                <mask id="mask-2" sketch:name="Clip 2591" fill="white">
                    <use xlink:href="#path-1"></use>
                </mask>
                <g id="Clip-2591"></g>
                <path d="M0,0 L5,0 L5,14 L0,14 L0,0 Z" id="Fill-2590" fill="#E9E7D1" sketch:type="MSShapeGroup" mask="url(#mask-2)"></path>
            </g>
            <path d="M30.5,1738 C28.57,1738 27,1736.429 27,1734.497 L27,1723 C27,1722.447 27.448,1722 28,1722 L33,1722 C33.552,1722 34,1722.447 34,1723 L34,1734.497 C34,1736.429 32.43,1738 30.5,1738 L30.5,1738 Z M29,1724 L29,1734.497 C29,1735.326 29.673,1736 30.5,1736 C31.327,1736 32,1735.326 32,1734.497 L32,1724 L29,1724 L29,1724 Z" id="Fill-2593" fill="#314E55" sketch:type="MSShapeGroup"></path>
            <g id="Group-2596" transform="translate(34.000000, 1693.000000)">
                <mask id="mask-4" sketch:name="Clip 2595" fill="white">
                    <use xlink:href="#path-3"></use>
                </mask>
                <g id="Clip-2595"></g>
                <path d="M-7.508,5.639 L15.008,-7.361 L23.508,7.361 L0.992,20.361 L-7.508,5.639" id="Fill-2594" fill="#C59981" sketch:type="MSShapeGroup" mask="url(#mask-4)"></path>
            </g>
            <path d="M38.108,1706.252 C36.502,1706.252 35.007,1705.389 34.206,1704 C33.605,1702.96 33.445,1701.748 33.754,1700.588 C34.064,1699.427 34.807,1698.457 35.846,1697.857 L43.654,1693.349 C44.335,1692.956 45.109,1692.748 45.892,1692.748 C47.498,1692.748 48.993,1693.611 49.794,1695 C50.395,1696.04 50.555,1697.252 50.246,1698.412 C49.936,1699.573 49.193,1700.543 48.154,1701.143 L40.346,1705.651 C39.665,1706.044 38.891,1706.252 38.108,1706.252 L38.108,1706.252 Z M45.892,1694.748 C45.459,1694.748 45.031,1694.863 44.654,1695.081 L36.846,1699.59 C36.27,1699.922 35.858,1700.46 35.686,1701.104 C35.515,1701.748 35.604,1702.422 35.938,1703 C36.599,1704.147 38.191,1704.586 39.346,1703.919 L47.154,1699.41 C47.73,1699.078 48.142,1698.54 48.314,1697.896 C48.485,1697.252 48.396,1696.578 48.062,1696 C47.617,1695.227 46.785,1694.748 45.892,1694.748 L45.892,1694.748 Z" id="Fill-2597" fill="#314E55" sketch:type="MSShapeGroup"></path>
            <g id="Group-2600" transform="translate(37.000000, 1703.000000)">
                <mask id="mask-6" sketch:name="Clip 2599" fill="white">
                    <use xlink:href="#path-5"></use>
                </mask>
                <g id="Clip-2599"></g>
                <path d="M-7.3,5.639 L15.216,-7.361 L23.716,7.361 L1.2,20.361 L-7.3,5.639" id="Fill-2598" fill="#C59981" sketch:type="MSShapeGroup" mask="url(#mask-6)"></path>
            </g>
            <path d="M41.316,1716.252 C39.711,1716.252 38.216,1715.389 37.414,1714 C36.813,1712.96 36.653,1711.748 36.962,1710.588 C37.271,1709.427 38.015,1708.457 39.054,1707.857 L46.863,1703.349 C47.543,1702.956 48.317,1702.748 49.101,1702.748 C50.706,1702.748 52.201,1703.611 53.002,1705 C53.603,1706.04 53.764,1707.252 53.455,1708.412 C53.145,1709.573 52.402,1710.543 51.363,1711.143 L43.554,1715.651 C42.873,1716.044 42.099,1716.252 41.316,1716.252 L41.316,1716.252 Z M49.101,1704.748 C48.668,1704.748 48.24,1704.863 47.863,1705.081 L40.054,1709.59 C39.477,1709.922 39.066,1710.46 38.895,1711.104 C38.723,1711.748 38.812,1712.422 39.146,1713 C39.808,1714.148 41.398,1714.587 42.554,1713.919 L50.363,1709.41 C50.939,1709.078 51.351,1708.54 51.522,1707.897 C51.694,1707.252 51.604,1706.579 51.271,1706 C50.825,1705.228 49.993,1704.748 49.101,1704.748 L49.101,1704.748 Z" id="Fill-2601" fill="#314E55" sketch:type="MSShapeGroup"></path>
            <g id="Group-2604" transform="translate(9.000000, 1692.000000)">
                <mask id="mask-8" sketch:name="Clip 2603" fill="white">
                    <use xlink:href="#path-7"></use>
                </mask>
                <g id="Clip-2603"></g>
                <path d="M-1,-0.14 L23.5,-0.14 L23.5,14.86 L-1,14.86 L-1,-0.14 Z" id="Fill-2602" fill="#E45E57" sketch:type="MSShapeGroup" mask="url(#mask-8)"></path>
            </g>
            <path d="M14.108,1707.053 C12.071,1707.053 10.485,1706.279 9.643,1704.875 C8.605,1703.146 7.635,1699.135 8.844,1696.012 C9.546,1694.199 10.884,1692.951 12.713,1692.402 C13.732,1692.097 14.662,1691.948 15.556,1691.948 C17.597,1691.948 19.068,1692.738 20.49,1693.503 C21.473,1694.031 22.488,1694.576 23.743,1694.891 C26.982,1695.7 30.531,1696.764 31.626,1699.145 C32.135,1700.251 32.057,1701.482 31.395,1702.808 C30.186,1705.224 27.574,1705.224 26.716,1705.224 C25.747,1705.224 24.74,1705.099 23.766,1704.979 C22.869,1704.867 22.021,1704.762 21.281,1704.762 C20.485,1704.762 19.943,1704.886 19.625,1705.142 C18.151,1706.32 16.037,1707.053 14.108,1707.053 L14.108,1707.053 Z M15.556,1693.948 C14.86,1693.948 14.118,1694.069 13.287,1694.318 C12.037,1694.693 11.193,1695.483 10.71,1696.734 C9.795,1699.095 10.512,1702.437 11.357,1703.846 C11.988,1704.897 13.351,1705.053 14.108,1705.053 C15.604,1705.053 17.239,1704.488 18.375,1703.579 C19.072,1703.022 19.996,1702.762 21.281,1702.762 C22.145,1702.762 23.094,1702.88 24.012,1702.993 C24.926,1703.106 25.871,1703.224 26.716,1703.224 C28.282,1703.224 29.146,1702.832 29.605,1701.913 C29.988,1701.148 30.055,1700.516 29.809,1699.981 C29.023,1698.271 25.129,1697.299 23.257,1696.83 C21.761,1696.456 20.583,1695.823 19.543,1695.265 C18.229,1694.559 17.093,1693.948 15.556,1693.948 L15.556,1693.948 Z" id="Fill-2605" fill="#314E55" sketch:type="MSShapeGroup"></path>
            <path d="M14,1703 C12.346,1703 11,1701.654 11,1700 C11,1698.346 12.346,1697 14,1697 C15.654,1697 17,1698.346 17,1700 C17,1701.654 15.654,1703 14,1703 L14,1703 Z M14,1699 C13.449,1699 13,1699.448 13,1700 C13,1700.552 13.449,1701 14,1701 C14.551,1701 15,1700.552 15,1700 C15,1699.448 14.551,1699 14,1699 L14,1699 Z" id="Fill-2606" fill="#314E55" sketch:type="MSShapeGroup"></path>
            <g id="Group-2609" transform="translate(12.000000, 1709.000000)">
                <mask id="mask-10" sketch:name="Clip 2608" fill="white">
                    <use xlink:href="#path-9"></use>
                </mask>
                <g id="Clip-2608"></g>
                <path d="M0,0 L16.566,0 L16.566,8.5 L0,8.5 L0,0 Z" id="Fill-2607" fill="#E45E57" sketch:type="MSShapeGroup" mask="url(#mask-10)"></path>
            </g>
            <path d="M27,1718.5 C26.989,1718.5 26.978,1718.5 26.967,1718.499 L11.967,1717.999 C11.665,1717.989 11.384,1717.844 11.202,1717.603 C11.02,1717.361 10.957,1717.051 11.03,1716.758 L12,1712.875 C12.684,1710.142 15.433,1708 18.258,1708 L24.742,1708 C26.194,1708 27.442,1708.565 28.256,1709.593 C29.067,1710.617 29.332,1711.957 29,1713.367 L27.974,1717.73 C27.867,1718.182 27.463,1718.5 27,1718.5 L27,1718.5 Z M13.27,1716.042 L26.214,1716.474 L27.053,1712.908 C27.242,1712.106 27.112,1711.37 26.688,1710.834 C26.262,1710.296 25.571,1710 24.742,1710 L18.258,1710 C16.374,1710 14.396,1711.538 13.941,1713.359 L13.27,1716.042 L13.27,1716.042 Z" id="Fill-2610" fill="#314E55" sketch:type="MSShapeGroup"></path>
        </g>
    </g>
</svg>