<?xml version="1.0" encoding="UTF-8" standalone="no"?>
<svg width="60px" height="60px" viewBox="0 0 60 60" version="1.1" xmlns="http://www.w3.org/2000/svg" xmlns:xlink="http://www.w3.org/1999/xlink">
    <!-- Generator: Sketch 3.7.2 (28276) - http://www.bohemiancoding.com/sketch -->
    <title>Mask</title>
    <desc>Created with Sketch.</desc>
    <defs>
        <polygon id="path-1" points="0 2241 953.752 2241 953.752 0 0 0"></polygon>
        <polygon id="path-3" points="0 2241 953.752 2241 953.752 0 0 0"></polygon>
        <polygon id="path-5" points="0 2241 953.752 2241 953.752 0 0 0"></polygon>
        <polygon id="path-7" points="0 2241 953.752 2241 953.752 0 0 0"></polygon>
        <polygon id="path-9" points="0 2241 953.752 2241 953.752 0 0 0"></polygon>
        <polygon id="path-11" points="0 2241 953.752 2241 953.752 0 0 0"></polygon>
        <polygon id="path-13" points="0 2241 953.752 2241 953.752 0 0 0"></polygon>
        <polygon id="path-15" points="0 2241 953.752 2241 953.752 0 0 0"></polygon>
        <path d="M1.496,13.729 C-1.883,26.338 12.765,41.218 12.765,41.218 C12.765,41.218 32.891,35.655 36.269,23.046 C37.67,17.818 37.623,12.641 36.402,8.189 C32.311,11.195 26.9,12.379 21.566,10.95 C15.803,9.406 11.489,5.178 9.646,0.006 C5.975,3.3 3.014,8.063 1.496,13.729 L1.496,13.729 Z" id="path-17"></path>
        <path d="M8.452,6.857 C5.894,8.334 2.904,8.364 0.449,7.199 C0.317,9.637 0.947,12.341 2.399,14.856 C5.63,20.452 15.967,20.533 15.967,20.533 C15.967,20.533 21.064,11.541 17.833,5.945 C16.493,3.624 14.664,1.828 12.679,0.697 C12.299,3.182 10.82,5.49 8.452,6.857 L8.452,6.857 Z" id="path-19"></path>
        <polygon id="path-21" points="0 2241 953.752 2241 953.752 0 0 0"></polygon>
        <polygon id="path-23" points="0 2241 953.752 2241 953.752 0 0 0"></polygon>
        <polygon id="path-25" points="0 2241 953.752 2241 953.752 0 0 0"></polygon>
        <polygon id="path-27" points="0 2241 953.752 2241 953.752 0 0 0"></polygon>
        <polygon id="path-29" points="0 2241 953.752 2241 953.752 0 0 0"></polygon>
        <polygon id="path-31" points="0 2241 953.752 2241 953.752 0 0 0"></polygon>
        <polygon id="path-33" points="0 2241 953.752 2241 953.752 0 0 0"></polygon>
        <polygon id="path-35" points="0 2241 953.752 2241 953.752 0 0 0"></polygon>
        <polygon id="path-37" points="0 2241 953.752 2241 953.752 0 0 0"></polygon>
        <polygon id="path-39" points="0 2241 953.752 2241 953.752 0 0 0"></polygon>
        <polygon id="path-41" points="0 2241 953.752 2241 953.752 0 0 0"></polygon>
        <polygon id="path-43" points="0 2241 953.752 2241 953.752 0 0 0"></polygon>
        <polygon id="path-45" points="0 2241 953.752 2241 953.752 0 0 0"></polygon>
        <polygon id="path-47" points="0 2241 953.752 2241 953.752 0 0 0"></polygon>
        <polygon id="path-49" points="0 2241 953.752 2241 953.752 0 0 0"></polygon>
        <polygon id="path-51" points="0 2241 953.752 2241 953.752 0 0 0"></polygon>
        <polygon id="path-53" points="0 2241 953.752 2241 953.752 0 0 0"></polygon>
        <polygon id="path-55" points="0 2241 953.752 2241 953.752 0 0 0"></polygon>
        <polygon id="path-57" points="0 2241 953.752 2241 953.752 0 0 0"></polygon>
        <polygon id="path-59" points="0 2241 953.752 2241 953.752 0 0 0"></polygon>
        <polygon id="path-61" points="0 2241 953.752 2241 953.752 0 0 0"></polygon>
        <polygon id="path-63" points="0 2241 953.752 2241 953.752 0 0 0"></polygon>
        <polygon id="path-65" points="0 2241 953.752 2241 953.752 0 0 0"></polygon>
        <polygon id="path-67" points="0 2241 953.752 2241 953.752 0 0 0"></polygon>
        <polygon id="path-69" points="0 2241 953.752 2241 953.752 0 0 0"></polygon>
        <polygon id="path-71" points="0 2241 953.752 2241 953.752 0 0 0"></polygon>
        <polygon id="path-73" points="0 2241 953.752 2241 953.752 0 0 0"></polygon>
        <polygon id="path-75" points="0 2241 953.752 2241 953.752 0 0 0"></polygon>
        <polygon id="path-77" points="0 2241 953.752 2241 953.752 0 0 0"></polygon>
        <polygon id="path-79" points="0 2241 953.752 2241 953.752 0 0 0"></polygon>
        <polygon id="path-81" points="0 2241 953.752 2241 953.752 0 0 0"></polygon>
        <polygon id="path-83" points="0 2241 953.752 2241 953.752 0 0 0"></polygon>
        <polygon id="path-85" points="0 2241 953.752 2241 953.752 0 0 0"></polygon>
        <polygon id="path-87" points="0 2241 953.752 2241 953.752 0 0 0"></polygon>
        <polygon id="path-89" points="0 2241 953.752 2241 953.752 0 0 0"></polygon>
        <polygon id="path-91" points="0 2241 953.752 2241 953.752 0 0 0"></polygon>
        <polygon id="path-93" points="0 2241 953.752 2241 953.752 0 0 0"></polygon>
        <polygon id="path-95" points="0 2241 953.752 2241 953.752 0 0 0"></polygon>
    </defs>
    <g id="colored" stroke="none" stroke-width="1" fill="none" fill-rule="evenodd">
        <g id="Activities_sliced" transform="translate(-720.000000, -360.000000)"></g>
        <g id="Page-1" transform="translate(-753.730970, -376.986717)">
            <g id="Group-64">
                <mask id="mask-2" fill="white">
                    <use xlink:href="#path-1"></use>
                </mask>
                <g id="Clip-62"></g>
            </g>
            <g id="Group-111">
                <mask id="mask-4" fill="white">
                    <use xlink:href="#path-3"></use>
                </mask>
                <g id="Clip-109"></g>
            </g>
            <g id="Group-133">
                <mask id="mask-6" fill="white">
                    <use xlink:href="#path-5"></use>
                </mask>
                <g id="Clip-127"></g>
            </g>
            <g id="Group-254">
                <mask id="mask-8" fill="white">
                    <use xlink:href="#path-7"></use>
                </mask>
                <g id="Clip-251"></g>
            </g>
            <g id="Group-397">
                <mask id="mask-10" fill="white">
                    <use xlink:href="#path-9"></use>
                </mask>
                <g id="Clip-391"></g>
            </g>
            <g id="Group-513">
                <mask id="mask-12" fill="white">
                    <use xlink:href="#path-11"></use>
                </mask>
                <g id="Clip-509"></g>
            </g>
            <g id="Group-707">
                <mask id="mask-14" fill="white">
                    <use xlink:href="#path-13"></use>
                </mask>
                <g id="Clip-705"></g>
            </g>
            <g id="Group-738">
                <mask id="mask-16" fill="white">
                    <use xlink:href="#path-15"></use>
                </mask>
                <g id="Clip-735"></g>
            </g>
            <g id="Group-804" transform="translate(774.000000, 380.000000)">
                <mask id="mask-18" fill="white">
                    <use xlink:href="#path-17"></use>
                </mask>
                <g id="Clip-803"></g>
                <polygon id="Fill-802" fill="#C59981" mask="url(#mask-18)" points="1.9367 -7.236 46.3697 4.67 33.6877 52 -10.7453 40.095"></polygon>
            </g>
            <g id="Group-813" transform="translate(773.000000, 379.000000)" fill="#314E55">
                <path d="M10.272,2.7476 C7.129,5.9496 4.733,10.2426 3.461,14.9876 C0.582,25.7336 11.761,38.5776 14.07,41.0816 C17.321,40.0666 33.423,34.5336 36.303,23.7876 C37.485,19.3776 37.642,14.9266 36.77,10.8216 C32.471,13.4806 27.282,14.2496 22.307,12.9156 C16.933,11.4766 12.53,7.7266 10.272,2.7476 M13.765,43.2176 C13.501,43.2176 13.243,43.1126 13.052,42.9196 C12.438,42.2946 -1.957,27.4816 1.53,14.4696 C3.038,8.8426 6.039,3.7966 9.978,0.2626 C10.227,0.0396 10.571,-0.0434 10.892,0.0376 C11.215,0.1196 11.476,0.3566 11.588,0.6706 C13.39,5.7266 17.591,9.5816 22.825,10.9836 C27.689,12.2866 32.787,11.3386 36.81,8.3836 C37.076,8.1886 37.421,8.1356 37.73,8.2446 C38.042,8.3526 38.279,8.6066 38.367,8.9246 C39.687,13.7406 39.641,19.0586 38.235,24.3046 C34.749,37.3166 14.876,42.9486 14.032,43.1816 C13.944,43.2056 13.854,43.2176 13.765,43.2176" id="Fill-805"></path>
                <path d="M25.2857,21.2969 C25.0167,21.2969 24.7497,21.1889 24.5527,20.9769 C24.1767,20.5709 24.2007,19.9389 24.6057,19.5639 C24.7377,19.4409 27.8957,16.5759 32.3557,17.4249 C32.8977,17.5279 33.2547,18.0519 33.1507,18.5949 C33.0467,19.1369 32.5217,19.4889 31.9807,19.3899 C28.5017,18.7249 25.9897,21.0069 25.9657,21.0299 C25.7727,21.2089 25.5287,21.2969 25.2857,21.2969" id="Fill-807"></path>
                <path d="M15.2984,18.6211 C14.8724,18.6211 14.4784,18.3471 14.3444,17.9201 C14.3024,17.7871 13.2664,14.6411 9.9524,13.4871 C9.4314,13.3051 9.1554,12.7351 9.3374,12.2131 C9.5194,11.6921 10.0884,11.4161 10.6114,11.5981 C14.8994,13.0921 16.2004,17.1531 16.2534,17.3251 C16.4164,17.8521 16.1214,18.4131 15.5944,18.5761 C15.4954,18.6061 15.3964,18.6211 15.2984,18.6211" id="Fill-809"></path>
                <path d="M18.4175,33.8276 C17.6375,33.8276 16.8415,33.7236 16.0515,33.5126 C13.3205,32.7806 11.1745,30.8986 10.3105,28.4786 C10.1235,27.9576 10.3955,27.3866 10.9155,27.2006 C11.4325,27.0146 12.0085,27.2856 12.1925,27.8056 C12.8265,29.5806 14.5035,31.0276 16.5685,31.5806 C18.6155,32.1296 20.7815,31.7236 22.2195,30.5206 C22.6425,30.1656 23.2745,30.2236 23.6275,30.6456 C23.9815,31.0686 23.9265,31.6996 23.5025,32.0546 C22.1165,33.2156 20.3135,33.8276 18.4175,33.8276" id="Fill-811"></path>
            </g>
            <g id="Group-816" transform="translate(758.000000, 409.000000)">
                <mask id="mask-20" fill="white">
                    <use xlink:href="#path-19"></use>
                </mask>
                <g id="Clip-815"></g>
                <polygon id="Fill-814" fill="#D8D8D8" mask="url(#mask-20)" points="-8.2342 6.438 15.8608 -7.473 30.5138 17.908 6.4198 31.819"></polygon>
            </g>
            <g id="Group-825" transform="translate(757.000000, 408.000000)" fill="#314E55">
                <path d="M2.4615,9.6475 C2.6005,11.5655 3.2215,13.5485 4.2655,15.3555 C6.7485,19.6565 14.2025,20.3865 16.3755,20.5085 C17.3565,18.5655 20.4495,11.7455 17.9675,7.4435 C17.0035,5.7745 15.7605,4.3655 14.3265,3.3095 C13.6075,5.5775 12.0655,7.5025 9.9515,8.7235 C7.6555,10.0475 4.9485,10.3655 2.4615,9.6475 M16.9665,22.5325 L16.9585,22.5325 C16.5135,22.5295 6.0105,22.3775 2.5325,16.3555 C1.0425,13.7735 0.3025,10.8575 0.4505,8.1445 C0.4685,7.8115 0.6505,7.5095 0.9375,7.3385 C1.2235,7.1685 1.5755,7.1515 1.8775,7.2945 C4.1295,8.3625 6.7735,8.2485 8.9515,6.9905 C10.9785,5.8215 12.3405,3.8365 12.6905,1.5455 C12.7405,1.2205 12.9475,0.9395 13.2435,0.7965 C13.5405,0.6535 13.8885,0.6655 14.1745,0.8285 C16.3995,2.0965 18.3105,4.0385 19.6995,6.4435 C23.1765,12.4665 18.0565,21.6385 17.8365,22.0255 C17.6585,22.3395 17.3265,22.5325 16.9665,22.5325" id="Fill-817"></path>
                <path d="M13.3267,10.8228 C13.3097,10.8228 13.2947,10.8228 13.2787,10.8218 C12.7307,10.7958 12.3057,10.3378 12.3267,9.7888 C12.3307,9.6898 12.4437,7.3348 14.5117,5.9288 C14.9707,5.6188 15.5917,5.7388 15.9007,6.1948 C16.2117,6.6508 16.0927,7.2728 15.6367,7.5838 C14.4197,8.4098 14.3277,9.8148 14.3247,9.8738 C14.2957,10.4058 13.8537,10.8228 13.3267,10.8228" id="Fill-819"></path>
                <path d="M8.8922,13.3862 C8.7372,13.3862 8.5802,13.3502 8.4332,13.2742 C8.3672,13.2402 7.1132,12.6272 5.7942,13.2652 C5.2942,13.5072 4.6992,13.2962 4.4582,12.8002 C4.2182,12.3032 4.4262,11.7042 4.9232,11.4642 C7.1742,10.3772 9.2722,11.4552 9.3592,11.5012 C9.8482,11.7592 10.0362,12.3642 9.7782,12.8522 C9.5982,13.1922 9.2512,13.3862 8.8922,13.3862" id="Fill-821"></path>
                <path d="M12.5455,18.7896 C11.9155,18.7896 11.2965,18.6576 10.7325,18.3896 C10.2325,18.1536 10.0195,17.5576 10.2565,17.0586 C10.4925,16.5586 11.0915,16.3466 11.5875,16.5816 C12.2835,16.9126 13.1965,16.8386 13.9725,16.3906 C14.7415,15.9466 15.2615,15.1976 15.3285,14.4356 C15.3775,13.8856 15.8535,13.4826 16.4125,13.5266 C16.9625,13.5756 17.3695,14.0606 17.3205,14.6106 C17.1945,16.0346 16.3165,17.3476 14.9725,18.1226 C14.2055,18.5656 13.3655,18.7896 12.5455,18.7896" id="Fill-823"></path>
            </g>
            <g id="Group-928">
                <mask id="mask-22" fill="white">
                    <use xlink:href="#path-21"></use>
                </mask>
                <g id="Clip-924"></g>
            </g>
            <g id="Group-1199">
                <mask id="mask-24" fill="white">
                    <use xlink:href="#path-23"></use>
                </mask>
                <g id="Clip-1198"></g>
            </g>
            <g id="Group-1213">
                <mask id="mask-26" fill="white">
                    <use xlink:href="#path-25"></use>
                </mask>
                <g id="Clip-1212"></g>
            </g>
            <g id="Group-1270">
                <mask id="mask-28" fill="white">
                    <use xlink:href="#path-27"></use>
                </mask>
                <g id="Clip-1268"></g>
            </g>
            <g id="Group-1306">
                <mask id="mask-30" fill="white">
                    <use xlink:href="#path-29"></use>
                </mask>
                <g id="Clip-1305"></g>
            </g>
            <g id="Group-1588">
                <mask id="mask-32" fill="white">
                    <use xlink:href="#path-31"></use>
                </mask>
                <g id="Clip-1583"></g>
            </g>
            <g id="Group-1602">
                <mask id="mask-34" fill="white">
                    <use xlink:href="#path-33"></use>
                </mask>
                <g id="Clip-1600"></g>
            </g>
            <g id="Group-1620">
                <mask id="mask-36" fill="white">
                    <use xlink:href="#path-35"></use>
                </mask>
                <g id="Clip-1619"></g>
            </g>
            <g id="Group-1710">
                <mask id="mask-38" fill="white">
                    <use xlink:href="#path-37"></use>
                </mask>
                <g id="Clip-1708"></g>
            </g>
            <g id="Group-1732">
                <mask id="mask-40" fill="white">
                    <use xlink:href="#path-39"></use>
                </mask>
                <g id="Clip-1730"></g>
            </g>
            <g id="Group-1809">
                <mask id="mask-42" fill="white">
                    <use xlink:href="#path-41"></use>
                </mask>
                <g id="Clip-1807"></g>
            </g>
            <g id="Group-1860">
                <mask id="mask-44" fill="white">
                    <use xlink:href="#path-43"></use>
                </mask>
                <g id="Clip-1859"></g>
            </g>
            <g id="Group-1896">
                <mask id="mask-46" fill="white">
                    <use xlink:href="#path-45"></use>
                </mask>
                <g id="Clip-1894"></g>
            </g>
            <g id="Group-1982">
                <mask id="mask-48" fill="white">
                    <use xlink:href="#path-47"></use>
                </mask>
                <g id="Clip-1975"></g>
            </g>
            <g id="Group-2005">
                <mask id="mask-50" fill="white">
                    <use xlink:href="#path-49"></use>
                </mask>
                <g id="Clip-2002"></g>
            </g>
            <g id="Group-2232">
                <mask id="mask-52" fill="white">
                    <use xlink:href="#path-51"></use>
                </mask>
                <g id="Clip-2231"></g>
            </g>
            <g id="Group-2311">
                <mask id="mask-54" fill="white">
                    <use xlink:href="#path-53"></use>
                </mask>
                <g id="Clip-2309"></g>
            </g>
            <g id="Group-2356">
                <mask id="mask-56" fill="white">
                    <use xlink:href="#path-55"></use>
                </mask>
                <g id="Clip-2355"></g>
            </g>
            <g id="Group-2410">
                <mask id="mask-58" fill="white">
                    <use xlink:href="#path-57"></use>
                </mask>
                <g id="Clip-2390"></g>
            </g>
            <g id="Group-2471">
                <mask id="mask-60" fill="white">
                    <use xlink:href="#path-59"></use>
                </mask>
                <g id="Clip-2467"></g>
            </g>
            <g id="Group-2490">
                <mask id="mask-62" fill="white">
                    <use xlink:href="#path-61"></use>
                </mask>
                <g id="Clip-2488"></g>
            </g>
            <g id="Group-2575">
                <mask id="mask-64" fill="white">
                    <use xlink:href="#path-63"></use>
                </mask>
                <g id="Clip-2573"></g>
            </g>
            <g id="Group-2654">
                <mask id="mask-66" fill="white">
                    <use xlink:href="#path-65"></use>
                </mask>
                <g id="Clip-2652"></g>
            </g>
            <g id="Group-2867">
                <mask id="mask-68" fill="white">
                    <use xlink:href="#path-67"></use>
                </mask>
                <g id="Clip-2866"></g>
            </g>
            <g id="Group-3028">
                <mask id="mask-70" fill="white">
                    <use xlink:href="#path-69"></use>
                </mask>
                <g id="Clip-3027"></g>
            </g>
            <g id="Group-3202">
                <mask id="mask-72" fill="white">
                    <use xlink:href="#path-71"></use>
                </mask>
                <g id="Clip-3201"></g>
            </g>
            <g id="Group-3349">
                <mask id="mask-74" fill="white">
                    <use xlink:href="#path-73"></use>
                </mask>
                <g id="Clip-3348"></g>
            </g>
            <g id="Group-3445">
                <mask id="mask-76" fill="white">
                    <use xlink:href="#path-75"></use>
                </mask>
                <g id="Clip-3441"></g>
            </g>
            <g id="Group-3527">
                <mask id="mask-78" fill="white">
                    <use xlink:href="#path-77"></use>
                </mask>
                <g id="Clip-3526"></g>
            </g>
            <g id="Group-3661">
                <mask id="mask-80" fill="white">
                    <use xlink:href="#path-79"></use>
                </mask>
                <g id="Clip-3660"></g>
            </g>
            <g id="Group-3846">
                <mask id="mask-82" fill="white">
                    <use xlink:href="#path-81"></use>
                </mask>
                <g id="Clip-3845"></g>
            </g>
            <g id="Group-3891">
                <mask id="mask-84" fill="white">
                    <use xlink:href="#path-83"></use>
                </mask>
                <g id="Clip-3889"></g>
            </g>
            <g id="Group-3932">
                <mask id="mask-86" fill="white">
                    <use xlink:href="#path-85"></use>
                </mask>
                <g id="Clip-3915"></g>
            </g>
            <g id="Group-3979">
                <mask id="mask-88" fill="white">
                    <use xlink:href="#path-87"></use>
                </mask>
                <g id="Clip-3972"></g>
            </g>
            <g id="Group-4060">
                <mask id="mask-90" fill="white">
                    <use xlink:href="#path-89"></use>
                </mask>
                <g id="Clip-4052"></g>
            </g>
            <g id="Group-4079">
                <mask id="mask-92" fill="white">
                    <use xlink:href="#path-91"></use>
                </mask>
                <g id="Clip-4077"></g>
            </g>
            <g id="Group-4092">
                <mask id="mask-94" fill="white">
                    <use xlink:href="#path-93"></use>
                </mask>
                <g id="Clip-4086"></g>
            </g>
            <g id="Group-4117">
                <mask id="mask-96" fill="white">
                    <use xlink:href="#path-95"></use>
                </mask>
                <g id="Clip-4111"></g>
            </g>
        </g>
    </g>
</svg>