<?xml version="1.0" encoding="UTF-8" standalone="no"?>
<svg width="60px" height="60px" viewBox="0 0 60 60" version="1.1" xmlns="http://www.w3.org/2000/svg" xmlns:xlink="http://www.w3.org/1999/xlink" xmlns:sketch="http://www.bohemiancoding.com/sketch/ns">
    <!-- Generator: Sketch 3.3.3 (12081) - http://www.bohemiancoding.com/sketch -->
    <title>Salad</title>
    <desc>Created with Sketch.</desc>
    <defs>
        <path id="path-1" d="M0.79170057,1 L1.02688235,1 L4.973,17.771 L4,17 L43,17 L42.041,17.718 L46.9580588,1 L47.2519501,1 L47.7888874,1.71778277 L47.7058824,2 L0.235294118,2 L0.181386028,1.77089062 L0.79170057,1"></path>
        <path id="path-3" d="M0,0 L48,0 L43,17 L4,17 L0,0 L0,0 Z"></path>
        <path id="path-5" d="M0.938,9.063 C3.114,9.45 5.439,8.803 7.121,7.121 C8.803,5.439 9.45,3.114 9.062,0.938 C6.886,0.55 4.561,1.197 2.879,2.879 C1.197,4.561 0.55,6.886 0.938,9.063"></path>
        <path id="path-7" d="M5.507,7.482 C6.168,6.071 6.151,4.37 5.313,2.918 C4.475,1.466 3.01,0.601 1.457,0.468 C0.796,1.879 0.812,3.581 1.651,5.033 C2.489,6.484 3.954,7.349 5.507,7.482"></path>
        <path id="path-9" d="M1.5,0 C-1.538,5.261 0.265,11.989 5.526,15.026 C10.787,18.064 17.515,16.261 20.553,11 L1.5,0"></path>
    </defs>
    <g id="colored" stroke="none" stroke-width="1" fill="none" fill-rule="evenodd" sketch:type="MSPage">
        <g id="Kitchen_sliced" sketch:type="MSLayerGroup" transform="translate(-720.000000, -1080.000000)"></g>
        <g id="Imported-Layers" sketch:type="MSLayerGroup" transform="translate(-720.000000, -1079.000000)">
            <g id="Group-1733" transform="translate(726.000000, 1118.000000)">
                <mask id="mask-2" sketch:name="Clip 1732" fill="white">
                    <use xlink:href="#path-1"></use>
                </mask>
                <g id="Clip-1732"></g>
                <path d="M0,1 L48,1 L43,18 L4,18 L0,1" id="Fill-1731" fill="#EB86A5" sketch:type="MSShapeGroup" mask="url(#mask-2)"></path>
            </g>
            <g id="Group-1736" transform="translate(726.000000, 1119.000000)">
                <mask id="mask-4" sketch:name="Clip 1735" fill="white">
                    <use xlink:href="#path-3"></use>
                </mask>
                <g id="Clip-1735"></g>
                <path d="M43,19 L4,19 C3.072,19 2.266,18.361 2.053,17.458 L-1.947,0.458 C-2.087,-0.137 -1.947,-0.763 -1.567,-1.242 C-1.188,-1.721 -0.611,-2 1.33226763e-15,-2 L48,-2 C48.63,-2 49.224,-1.703 49.602,-1.198 C49.979,-0.693 50.097,-0.04 49.919,0.565 L44.919,17.565 C44.668,18.415 43.888,19 43,19 L43,19 Z M5.584,15 L41.504,15 L45.327,2 L2.525,2 L5.584,15 L5.584,15 Z" id="Fill-1734" fill="#314E55" sketch:type="MSShapeGroup" mask="url(#mask-4)"></path>
            </g>
            <path d="M729.221,1116.291 C728.781,1116.291 728.379,1115.999 728.257,1115.555 C728.094,1114.956 728.011,1114.336 728.011,1113.709 C728.011,1109.85 731.151,1106.709 735.011,1106.709 C735.364,1106.709 735.717,1106.735 736.063,1106.788 C737.985,1102.521 742.279,1099.709 747.011,1099.709 C750.961,1099.709 754.58,1101.602 756.83,1104.809 C757.218,1104.742 757.613,1104.709 758.011,1104.709 C761.57,1104.709 764.518,1107.379 764.955,1110.821 C765.3,1110.747 765.654,1110.709 766.011,1110.709 C768.581,1110.709 770.719,1112.635 770.984,1115.188 C771.041,1115.737 770.642,1116.229 770.093,1116.286 C769.54,1116.331 769.052,1115.942 768.994,1115.395 C768.836,1113.863 767.553,1112.709 766.011,1112.709 C765.482,1112.709 764.965,1112.848 764.512,1113.109 C764.22,1113.278 763.862,1113.288 763.563,1113.139 C763.197,1112.955 762.957,1112.555 762.992,1112.148 C763.004,1112.002 763.011,1111.856 763.011,1111.709 C763.011,1108.952 760.768,1106.709 758.011,1106.709 C757.546,1106.709 757.087,1106.773 756.648,1106.897 C756.22,1107.017 755.759,1106.841 755.524,1106.46 C753.687,1103.485 750.504,1101.709 747.011,1101.709 C742.822,1101.709 739.046,1104.352 737.612,1108.285 C737.434,1108.778 736.903,1109.046 736.396,1108.903 C735.949,1108.774 735.482,1108.709 735.011,1108.709 C732.254,1108.709 730.011,1110.952 730.011,1113.709 C730.011,1114.157 730.069,1114.602 730.187,1115.027 C730.332,1115.56 730.018,1116.11 729.485,1116.256 C729.398,1116.279 729.309,1116.291 729.221,1116.291" id="Fill-1737" fill="#314E55" sketch:type="MSShapeGroup"></path>
            <path d="M741,1116 C738.794,1116 737,1114.206 737,1112 C737,1109.794 738.794,1108 741,1108 C743.206,1108 745,1109.794 745,1112 C745,1114.206 743.206,1116 741,1116 L741,1116 Z M741,1110 C739.898,1110 739,1110.898 739,1112 C739,1113.102 739.898,1114 741,1114 C742.102,1114 743,1113.102 743,1112 C743,1110.898 742.102,1110 741,1110 L741,1110 Z" id="Fill-1738" fill="#314E55" sketch:type="MSShapeGroup"></path>
            <path d="M756,1114 C754.346,1114 753,1112.654 753,1111 C753,1109.346 754.346,1108 756,1108 C757.654,1108 759,1109.346 759,1111 C759,1112.654 757.654,1114 756,1114 L756,1114 Z M756,1110 C755.448,1110 755,1110.448 755,1111 C755,1111.552 755.448,1112 756,1112 C756.552,1112 757,1111.552 757,1111 C757,1110.448 756.552,1110 756,1110 L756,1110 Z" id="Fill-1739" fill="#314E55" sketch:type="MSShapeGroup"></path>
            <g id="Group-1742" transform="translate(764.000000, 1094.000000)">
                <mask id="mask-6" sketch:name="Clip 1741" fill="white">
                    <use xlink:href="#path-5"></use>
                </mask>
                <g id="Clip-1741"></g>
                <path d="M6.941,-8.255 L18.255,3.059 L3.059,18.255 L-8.255,6.941 L6.941,-8.255" id="Fill-1740" fill="#5ECB66" sketch:type="MSShapeGroup" mask="url(#mask-6)"></path>
            </g>
            <path d="M766.172,1104.172 L766.172,1104.172 C765.7,1104.172 765.226,1104.13 764.762,1104.047 C764.35,1103.974 764.026,1103.65 763.953,1103.238 C763.494,1100.66 764.323,1098.019 766.172,1096.172 C768.015,1094.327 770.672,1093.493 773.238,1093.953 C773.65,1094.026 773.974,1094.35 774.047,1094.762 C774.506,1097.34 773.677,1099.981 771.828,1101.828 C770.318,1103.339 768.31,1104.172 766.172,1104.172 L766.172,1104.172 Z M765.838,1102.162 C767.553,1102.25 769.202,1101.626 770.414,1100.414 C771.627,1099.201 772.255,1097.532 772.162,1095.838 C770.447,1095.748 768.798,1096.373 767.586,1097.586 C766.373,1098.799 765.745,1100.468 765.838,1102.162 L765.838,1102.162 Z" id="Fill-1743" fill="#314E55" sketch:type="MSShapeGroup"></path>
            <g id="Group-1746" transform="translate(756.000000, 1095.000000)">
                <mask id="mask-8" sketch:name="Clip 1745" fill="white">
                    <use xlink:href="#path-7"></use>
                </mask>
                <g id="Clip-1745"></g>
                <path d="M-7.204,-0.305 L5.119,-7.419 L14.168,8.255 L1.845,15.37 L-7.204,-0.305" id="Fill-1744" fill="#5ECB66" sketch:type="MSShapeGroup" mask="url(#mask-8)"></path>
            </g>
            <path d="M761.507,1103.482 C761.479,1103.482 761.45,1103.481 761.422,1103.479 C759.488,1103.314 757.755,1102.212 756.784,1100.532 C755.815,1098.852 755.729,1096.801 756.552,1095.044 C756.729,1094.664 757.111,1094.431 757.543,1094.472 C759.477,1094.638 761.21,1095.739 762.18,1097.418 C763.148,1099.098 763.235,1101.149 762.412,1102.906 C762.247,1103.26 761.893,1103.482 761.507,1103.482 L761.507,1103.482 Z M758.11,1096.6 C757.861,1097.584 758,1098.638 758.517,1099.532 C759.033,1100.427 759.877,1101.074 760.854,1101.352 C761.102,1100.366 760.964,1099.313 760.447,1098.418 C759.931,1097.524 759.087,1096.877 758.11,1096.6 L758.11,1096.6 Z" id="Fill-1747" fill="#314E55" sketch:type="MSShapeGroup"></path>
            <g id="Group-1750" transform="translate(724.000000, 1082.000000)">
                <mask id="mask-10" sketch:name="Clip 1749" fill="white">
                    <use xlink:href="#path-9"></use>
                </mask>
                <g id="Clip-1749"></g>
                <path d="M-0.33,-6.83 L27.383,9.17 L16.883,27.356 L-10.83,11.356 L-0.33,-6.83" id="Fill-1748" fill="#E4AD40" sketch:type="MSShapeGroup" mask="url(#mask-10)"></path>
            </g>
            <path d="M735.017,1099.502 C735.017,1099.502 735.017,1099.502 735.016,1099.502 C732.921,1099.502 730.85,1098.945 729.026,1097.893 C723.297,1094.584 721.326,1087.231 724.634,1081.5 C724.767,1081.271 724.985,1081.103 725.241,1081.034 C725.495,1080.967 725.769,1081.002 726,1081.134 L745.053,1092.134 C745.282,1092.267 745.45,1092.485 745.519,1092.741 C745.587,1092.997 745.552,1093.271 745.419,1093.5 C743.281,1097.202 739.295,1099.502 735.017,1099.502 L735.017,1099.502 Z M725.909,1083.391 C723.822,1088.013 725.544,1093.572 730.026,1096.16 C731.546,1097.038 733.271,1097.502 735.016,1097.502 L735.017,1097.502 C738.247,1097.502 741.276,1095.93 743.143,1093.341 L725.909,1083.391 L725.909,1083.391 Z" id="Fill-1751" fill="#314E55" sketch:type="MSShapeGroup"></path>
            <path d="M724.682,1091.669 C724.266,1091.669 723.877,1091.407 723.735,1090.991 C723.557,1090.469 723.837,1089.9 724.359,1089.723 L733.899,1086.475 C734.423,1086.293 734.99,1086.576 735.168,1087.099 C735.347,1087.621 735.066,1088.19 734.544,1088.367 L725.004,1091.615 C724.898,1091.652 724.788,1091.669 724.682,1091.669" id="Fill-1752" fill="#314E55" sketch:type="MSShapeGroup"></path>
            <path d="M733.784,1099.177 L731.823,1098.784 L734.216,1086.823 L736.177,1087.216 L733.784,1099.177" id="Fill-1753" fill="#314E55" sketch:type="MSShapeGroup"></path>
        </g>
    </g>
</svg>