<?xml version="1.0" encoding="UTF-8" standalone="no"?>
<svg width="60px" height="60px" viewBox="0 0 60 60" version="1.1" xmlns="http://www.w3.org/2000/svg" xmlns:xlink="http://www.w3.org/1999/xlink">
    <!-- Generator: Sketch 3.7.2 (28276) - http://www.bohemiancoding.com/sketch -->
    <title>Tennis</title>
    <desc>Created with Sketch.</desc>
    <defs>
        <polygon id="path-1" points="0 2241 953.752 2241 953.752 0 0 0"></polygon>
        <polygon id="path-3" points="0 2241 953.752 2241 953.752 0 0 0"></polygon>
        <polygon id="path-5" points="0 2241 953.752 2241 953.752 0 0 0"></polygon>
        <polygon id="path-7" points="0 2241 953.752 2241 953.752 0 0 0"></polygon>
        <polygon id="path-9" points="0 2241 953.752 2241 953.752 0 0 0"></polygon>
        <polygon id="path-11" points="0 2241 953.752 2241 953.752 0 0 0"></polygon>
        <polygon id="path-13" points="0 2241 953.752 2241 953.752 0 0 0"></polygon>
        <polygon id="path-15" points="0.752 17 4.752 17 4.752 0 0.752 0"></polygon>
        <path d="M0.752,5.5 C0.752,8.538 3.214,11 6.252,11 C9.289,11 11.752,8.538 11.752,5.5 C11.752,2.462 9.289,0 6.252,0 C3.214,0 0.752,2.462 0.752,5.5 L0.752,5.5 Z" id="path-17"></path>
        <polygon id="path-19" points="0 2241 953.752 2241 953.752 0 0 0"></polygon>
        <polygon id="path-21" points="0 2241 953.752 2241 953.752 0 0 0"></polygon>
        <polygon id="path-23" points="0 2241 953.752 2241 953.752 0 0 0"></polygon>
        <polygon id="path-25" points="0 2241 953.752 2241 953.752 0 0 0"></polygon>
        <polygon id="path-27" points="0 2241 953.752 2241 953.752 0 0 0"></polygon>
        <polygon id="path-29" points="0 2241 953.752 2241 953.752 0 0 0"></polygon>
        <polygon id="path-31" points="0 2241 953.752 2241 953.752 0 0 0"></polygon>
        <polygon id="path-33" points="0 2241 953.752 2241 953.752 0 0 0"></polygon>
        <polygon id="path-35" points="0 2241 953.752 2241 953.752 0 0 0"></polygon>
        <polygon id="path-37" points="0 2241 953.752 2241 953.752 0 0 0"></polygon>
        <polygon id="path-39" points="0 2241 953.752 2241 953.752 0 0 0"></polygon>
        <polygon id="path-41" points="0 2241 953.752 2241 953.752 0 0 0"></polygon>
        <polygon id="path-43" points="0 2241 953.752 2241 953.752 0 0 0"></polygon>
        <polygon id="path-45" points="0 2241 953.752 2241 953.752 0 0 0"></polygon>
        <polygon id="path-47" points="0 2241 953.752 2241 953.752 0 0 0"></polygon>
        <polygon id="path-49" points="0 2241 953.752 2241 953.752 0 0 0"></polygon>
        <polygon id="path-51" points="0 2241 953.752 2241 953.752 0 0 0"></polygon>
        <polygon id="path-53" points="0 2241 953.752 2241 953.752 0 0 0"></polygon>
        <polygon id="path-55" points="0 2241 953.752 2241 953.752 0 0 0"></polygon>
        <polygon id="path-57" points="0 2241 953.752 2241 953.752 0 0 0"></polygon>
        <polygon id="path-59" points="0 2241 953.752 2241 953.752 0 0 0"></polygon>
        <polygon id="path-61" points="0 2241 953.752 2241 953.752 0 0 0"></polygon>
        <polygon id="path-63" points="0 2241 953.752 2241 953.752 0 0 0"></polygon>
        <polygon id="path-65" points="0 2241 953.752 2241 953.752 0 0 0"></polygon>
        <polygon id="path-67" points="0 2241 953.752 2241 953.752 0 0 0"></polygon>
        <polygon id="path-69" points="0 2241 953.752 2241 953.752 0 0 0"></polygon>
        <polygon id="path-71" points="0 2241 953.752 2241 953.752 0 0 0"></polygon>
        <polygon id="path-73" points="0 2241 953.752 2241 953.752 0 0 0"></polygon>
        <polygon id="path-75" points="0 2241 953.752 2241 953.752 0 0 0"></polygon>
        <polygon id="path-77" points="0 2241 953.752 2241 953.752 0 0 0"></polygon>
        <polygon id="path-79" points="0 2241 953.752 2241 953.752 0 0 0"></polygon>
        <polygon id="path-81" points="0 2241 953.752 2241 953.752 0 0 0"></polygon>
        <polygon id="path-83" points="0 2241 953.752 2241 953.752 0 0 0"></polygon>
        <polygon id="path-85" points="0 2241 953.752 2241 953.752 0 0 0"></polygon>
        <polygon id="path-87" points="0 2241 953.752 2241 953.752 0 0 0"></polygon>
        <polygon id="path-89" points="0 2241 953.752 2241 953.752 0 0 0"></polygon>
        <polygon id="path-91" points="0 2241 953.752 2241 953.752 0 0 0"></polygon>
        <polygon id="path-93" points="0 2241 953.752 2241 953.752 0 0 0"></polygon>
        <polygon id="path-95" points="0 2241 953.752 2241 953.752 0 0 0"></polygon>
    </defs>
    <g id="colored" stroke="none" stroke-width="1" fill="none" fill-rule="evenodd">
        <g id="Activities_sliced" transform="translate(-240.000000, -360.000000)"></g>
        <g id="Page-1" transform="translate(-273.730970, -376.986717)">
            <g id="Group-64">
                <mask id="mask-2" fill="white">
                    <use xlink:href="#path-1"></use>
                </mask>
                <g id="Clip-62"></g>
            </g>
            <g id="Group-111">
                <mask id="mask-4" fill="white">
                    <use xlink:href="#path-3"></use>
                </mask>
                <g id="Clip-109"></g>
            </g>
            <g id="Group-133">
                <mask id="mask-6" fill="white">
                    <use xlink:href="#path-5"></use>
                </mask>
                <g id="Clip-127"></g>
            </g>
            <g id="Group-254">
                <mask id="mask-8" fill="white">
                    <use xlink:href="#path-7"></use>
                </mask>
                <g id="Clip-251"></g>
            </g>
            <g id="Group-397">
                <mask id="mask-10" fill="white">
                    <use xlink:href="#path-9"></use>
                </mask>
                <g id="Clip-391"></g>
            </g>
            <g id="Group-513">
                <mask id="mask-12" fill="white">
                    <use xlink:href="#path-11"></use>
                </mask>
                <g id="Clip-509"></g>
            </g>
            <g id="Group-707">
                <mask id="mask-14" fill="white">
                    <use xlink:href="#path-13"></use>
                </mask>
                <g id="Clip-705"></g>
                <path d="M315.7515,382 C309.6865,382 304.7515,388.056 304.7515,395.5 C304.7515,402.944 309.6865,409 315.7515,409 C321.8165,409 326.7515,402.944 326.7515,395.5 C326.7515,388.056 321.8165,382 315.7515,382 M315.7515,411 C308.5835,411 302.7515,404.047 302.7515,395.5 C302.7515,386.953 308.5835,380 315.7515,380 C322.9195,380 328.7515,386.953 328.7515,395.5 C328.7515,404.047 322.9195,411 315.7515,411" id="Fill-706" fill="#314E55" mask="url(#mask-14)"></path>
            </g>
            <g id="Group-710" transform="translate(313.000000, 417.000000)">
                <mask id="mask-16" fill="white">
                    <use xlink:href="#path-15"></use>
                </mask>
                <g id="Clip-709"></g>
                <polygon id="Fill-708" fill="#EB86A5" mask="url(#mask-16)" points="-4.248 22 9.752 22 9.752 -5 -4.248 -5"></polygon>
            </g>
            <g id="Group-720" transform="translate(307.000000, 386.000000)" fill="#314E55">
                <path d="M7.752,47 L9.752,47 L9.752,32 L7.752,32 L7.752,47 Z M10.752,49 L6.752,49 C6.199,49 5.752,48.552 5.752,48 L5.752,31 C5.752,30.448 6.199,30 6.752,30 L10.752,30 C11.304,30 11.752,30.448 11.752,31 L11.752,48 C11.752,48.552 11.304,49 10.752,49 L10.752,49 Z" id="Fill-711"></path>
                <path d="M6.6705,31.5684 C6.1185,31.5684 5.6705,31.1204 5.6705,30.5684 C5.6705,26.1694 1.1465,22.0624 1.1005,22.0214 C0.6895,21.6524 0.6545,21.0204 1.0235,20.6094 C1.3905,20.1984 2.0245,20.1624 2.4355,20.5324 C2.6495,20.7234 7.6705,25.2854 7.6705,30.5684 C7.6705,31.1204 7.2225,31.5684 6.6705,31.5684" id="Fill-713"></path>
                <path d="M10.7515,31.5684 C10.1995,31.5684 9.7515,31.1204 9.7515,30.5684 C9.7515,25.2774 14.9385,20.6874 15.1585,20.4944 C15.5745,20.1324 16.2055,20.1744 16.5685,20.5894 C16.9325,21.0054 16.8905,21.6364 16.4755,22.0004 C16.4275,22.0424 11.7515,26.1924 11.7515,30.5684 C11.7515,31.1204 11.3035,31.5684 10.7515,31.5684" id="Fill-714"></path>
                <polygon id="Fill-715" points="4.752 19.031 6.752 19.031 6.752 0 4.752 0"></polygon>
                <polygon id="Fill-716" points="1.71 5 15.752 5 15.752 3 1.71 3"></polygon>
                <polygon id="Fill-717" points="1.71 11 15.752 11 15.752 9 1.71 9"></polygon>
                <polygon id="Fill-718" points="1.71 17 15.752 17 15.752 15 1.71 15"></polygon>
                <polygon id="Fill-719" points="10.752 19.031 12.752 19.031 12.752 0 10.752 0"></polygon>
            </g>
            <g id="Group-723" transform="translate(284.000000, 391.000000)">
                <mask id="mask-18" fill="white">
                    <use xlink:href="#path-17"></use>
                </mask>
                <g id="Clip-722"></g>
                <polygon id="Fill-721" fill="#5ECB66" mask="url(#mask-18)" points="-4.248 16 16.752 16 16.752 -5 -4.248 -5"></polygon>
            </g>
            <path d="M290.2515,392 C287.7705,392 285.7515,394.019 285.7515,396.5 C285.7515,398.981 287.7705,401 290.2515,401 C292.7325,401 294.7515,398.981 294.7515,396.5 C294.7515,394.019 292.7325,392 290.2515,392 M290.2515,403 C286.6675,403 283.7515,400.084 283.7515,396.5 C283.7515,392.916 286.6675,390 290.2515,390 C293.8355,390 296.7515,392.916 296.7515,396.5 C296.7515,400.084 293.8355,403 290.2515,403" id="Fill-724" fill="#314E55"></path>
            <g id="Group-738">
                <mask id="mask-20" fill="white">
                    <use xlink:href="#path-19"></use>
                </mask>
                <g id="Clip-735"></g>
            </g>
            <g id="Group-928">
                <mask id="mask-22" fill="white">
                    <use xlink:href="#path-21"></use>
                </mask>
                <g id="Clip-924"></g>
            </g>
            <g id="Group-1199">
                <mask id="mask-24" fill="white">
                    <use xlink:href="#path-23"></use>
                </mask>
                <g id="Clip-1198"></g>
            </g>
            <g id="Group-1213">
                <mask id="mask-26" fill="white">
                    <use xlink:href="#path-25"></use>
                </mask>
                <g id="Clip-1212"></g>
            </g>
            <g id="Group-1270">
                <mask id="mask-28" fill="white">
                    <use xlink:href="#path-27"></use>
                </mask>
                <g id="Clip-1268"></g>
            </g>
            <g id="Group-1306">
                <mask id="mask-30" fill="white">
                    <use xlink:href="#path-29"></use>
                </mask>
                <g id="Clip-1305"></g>
            </g>
            <g id="Group-1588">
                <mask id="mask-32" fill="white">
                    <use xlink:href="#path-31"></use>
                </mask>
                <g id="Clip-1583"></g>
            </g>
            <g id="Group-1602">
                <mask id="mask-34" fill="white">
                    <use xlink:href="#path-33"></use>
                </mask>
                <g id="Clip-1600"></g>
            </g>
            <g id="Group-1620">
                <mask id="mask-36" fill="white">
                    <use xlink:href="#path-35"></use>
                </mask>
                <g id="Clip-1619"></g>
            </g>
            <g id="Group-1710">
                <mask id="mask-38" fill="white">
                    <use xlink:href="#path-37"></use>
                </mask>
                <g id="Clip-1708"></g>
            </g>
            <g id="Group-1732">
                <mask id="mask-40" fill="white">
                    <use xlink:href="#path-39"></use>
                </mask>
                <g id="Clip-1730"></g>
            </g>
            <g id="Group-1809">
                <mask id="mask-42" fill="white">
                    <use xlink:href="#path-41"></use>
                </mask>
                <g id="Clip-1807"></g>
            </g>
            <g id="Group-1860">
                <mask id="mask-44" fill="white">
                    <use xlink:href="#path-43"></use>
                </mask>
                <g id="Clip-1859"></g>
            </g>
            <g id="Group-1896">
                <mask id="mask-46" fill="white">
                    <use xlink:href="#path-45"></use>
                </mask>
                <g id="Clip-1894"></g>
            </g>
            <g id="Group-1982">
                <mask id="mask-48" fill="white">
                    <use xlink:href="#path-47"></use>
                </mask>
                <g id="Clip-1975"></g>
            </g>
            <g id="Group-2005">
                <mask id="mask-50" fill="white">
                    <use xlink:href="#path-49"></use>
                </mask>
                <g id="Clip-2002"></g>
            </g>
            <g id="Group-2232">
                <mask id="mask-52" fill="white">
                    <use xlink:href="#path-51"></use>
                </mask>
                <g id="Clip-2231"></g>
            </g>
            <g id="Group-2311">
                <mask id="mask-54" fill="white">
                    <use xlink:href="#path-53"></use>
                </mask>
                <g id="Clip-2309"></g>
            </g>
            <g id="Group-2356">
                <mask id="mask-56" fill="white">
                    <use xlink:href="#path-55"></use>
                </mask>
                <g id="Clip-2355"></g>
            </g>
            <g id="Group-2410">
                <mask id="mask-58" fill="white">
                    <use xlink:href="#path-57"></use>
                </mask>
                <g id="Clip-2390"></g>
            </g>
            <g id="Group-2471">
                <mask id="mask-60" fill="white">
                    <use xlink:href="#path-59"></use>
                </mask>
                <g id="Clip-2467"></g>
            </g>
            <g id="Group-2490">
                <mask id="mask-62" fill="white">
                    <use xlink:href="#path-61"></use>
                </mask>
                <g id="Clip-2488"></g>
            </g>
            <g id="Group-2575">
                <mask id="mask-64" fill="white">
                    <use xlink:href="#path-63"></use>
                </mask>
                <g id="Clip-2573"></g>
            </g>
            <g id="Group-2654">
                <mask id="mask-66" fill="white">
                    <use xlink:href="#path-65"></use>
                </mask>
                <g id="Clip-2652"></g>
            </g>
            <g id="Group-2867">
                <mask id="mask-68" fill="white">
                    <use xlink:href="#path-67"></use>
                </mask>
                <g id="Clip-2866"></g>
            </g>
            <g id="Group-3028">
                <mask id="mask-70" fill="white">
                    <use xlink:href="#path-69"></use>
                </mask>
                <g id="Clip-3027"></g>
            </g>
            <g id="Group-3202">
                <mask id="mask-72" fill="white">
                    <use xlink:href="#path-71"></use>
                </mask>
                <g id="Clip-3201"></g>
            </g>
            <g id="Group-3349">
                <mask id="mask-74" fill="white">
                    <use xlink:href="#path-73"></use>
                </mask>
                <g id="Clip-3348"></g>
            </g>
            <g id="Group-3445">
                <mask id="mask-76" fill="white">
                    <use xlink:href="#path-75"></use>
                </mask>
                <g id="Clip-3441"></g>
            </g>
            <g id="Group-3527">
                <mask id="mask-78" fill="white">
                    <use xlink:href="#path-77"></use>
                </mask>
                <g id="Clip-3526"></g>
            </g>
            <g id="Group-3661">
                <mask id="mask-80" fill="white">
                    <use xlink:href="#path-79"></use>
                </mask>
                <g id="Clip-3660"></g>
            </g>
            <g id="Group-3846">
                <mask id="mask-82" fill="white">
                    <use xlink:href="#path-81"></use>
                </mask>
                <g id="Clip-3845"></g>
            </g>
            <g id="Group-3891">
                <mask id="mask-84" fill="white">
                    <use xlink:href="#path-83"></use>
                </mask>
                <g id="Clip-3889"></g>
            </g>
            <g id="Group-3932">
                <mask id="mask-86" fill="white">
                    <use xlink:href="#path-85"></use>
                </mask>
                <g id="Clip-3915"></g>
            </g>
            <g id="Group-3979">
                <mask id="mask-88" fill="white">
                    <use xlink:href="#path-87"></use>
                </mask>
                <g id="Clip-3972"></g>
            </g>
            <g id="Group-4060">
                <mask id="mask-90" fill="white">
                    <use xlink:href="#path-89"></use>
                </mask>
                <g id="Clip-4052"></g>
            </g>
            <g id="Group-4079">
                <mask id="mask-92" fill="white">
                    <use xlink:href="#path-91"></use>
                </mask>
                <g id="Clip-4077"></g>
            </g>
            <g id="Group-4092">
                <mask id="mask-94" fill="white">
                    <use xlink:href="#path-93"></use>
                </mask>
                <g id="Clip-4086"></g>
            </g>
            <g id="Group-4117">
                <mask id="mask-96" fill="white">
                    <use xlink:href="#path-95"></use>
                </mask>
                <g id="Clip-4111"></g>
            </g>
        </g>
    </g>
</svg>