<svg xmlns="http://www.w3.org/2000/svg" xmlns:xlink="http://www.w3.org/1999/xlink" width="60" height="60" version="1.1" viewBox="0 0 60 60"><title>Comments</title><desc>Created with Sketch.</desc><defs><path id="path-1" d="M7.2,25 L29.001,25 C31.769,25 34,22.762 34,20.001 L34,4.999 C34,2.241 31.762,0 29.001,0 L4.998,0 C2.231,0 0,2.238 0,4.999 L0,31 L7.2,25 L7.2,25 Z"/><path id="path-3" d="M2,4 C3.105,4 4,3.104 4,2 C4,0.895 3.105,0 2,0 C0.895,0 0,0.895 0,2 C0,3.104 0.895,4 2,4 L2,4 Z"/><path id="path-5" d="M2,4 C3.105,4 4,3.104 4,2 C4,0.895 3.105,0 2,0 C0.895,0 0,0.895 0,2 C0,3.104 0.895,4 2,4 L2,4 Z"/><path id="path-7" d="M2,4 C3.105,4 4,3.104 4,2 C4,0.895 3.105,0 2,0 C0.895,0 0,0.895 0,2 C0,3.104 0.895,4 2,4 L2,4 Z"/><path id="path-9" d="M2,4 C3.105,4 4,3.105 4,2 C4,0.895 3.105,0 2,0 C0.895,0 0,0.895 0,2 C0,3.105 0.895,4 2,4 L2,4 Z"/><path id="path-11" d="M2,4 C3.105,4 4,3.105 4,2 C4,0.895 3.105,0 2,0 C0.895,0 0,0.895 0,2 C0,3.105 0.895,4 2,4 L2,4 Z"/></defs><g id="outlined" fill="none" fill-rule="evenodd" stroke="none" stroke-width="1"><g id="Interface_sliced" transform="translate(-840.000000, -2280.000000)"><g id="Imported-Layers" transform="translate(2.000000, 4.000000)"><path id="Fill-2128" fill="#314E55" d="M839,2319 C838.855,2319 838.711,2318.969 838.576,2318.905 C838.225,2318.741 838,2318.388 838,2318 L838,2291.999 C838,2288.691 840.69,2286 843.998,2286 L868.001,2286 C871.309,2286 874,2288.694 874,2292.006 L874,2297.023 C874,2297.576 873.553,2298.023 873,2298.023 C872.447,2298.023 872,2297.576 872,2297.023 L872,2292.006 C872,2289.797 870.206,2288 868.001,2288 L843.998,2288 C841.794,2288 840,2289.794 840,2291.999 L840,2315.865 L845.56,2311.231 C845.739,2311.082 845.966,2311 846.2,2311 L860.15,2311 C860.703,2311 861.15,2311.447 861.15,2312 C861.15,2312.553 860.703,2313 860.15,2313 L846.562,2313 L839.641,2318.769 C839.457,2318.921 839.229,2319 839,2319"/><g id="Group-2131" transform="translate(863.000000, 2300.000000)"><mask id="mask-2" fill="#fff"><use xlink:href="#path-1"/></mask><path id="Fill-2129" fill="#C59981" d="M0,0 L34,0 L34,31 L0,31 L0,0 Z" mask="url(#mask-2)"/></g><path id="Fill-2132" fill="#314E55" d="M863,2332 C862.855,2332 862.711,2331.969 862.576,2331.905 C862.225,2331.741 862,2331.388 862,2331 L862,2304.999 C862,2301.691 864.69,2299 867.998,2299 L892.001,2299 C895.309,2299 898,2301.691 898,2304.999 L898,2320.001 C898,2323.309 895.309,2326 892.001,2326 L870.562,2326 L863.641,2331.769 C863.457,2331.921 863.229,2332 863,2332 L863,2332 Z M867.998,2301 C865.794,2301 864,2302.794 864,2304.999 L864,2328.865 L869.56,2324.231 C869.739,2324.082 869.966,2324 870.2,2324 L892.001,2324 C894.206,2324 896,2322.206 896,2320.001 L896,2304.999 C896,2302.794 894.206,2301 892.001,2301 L867.998,2301 L867.998,2301 Z"/><g id="Group-2135" transform="translate(868.000000, 2311.000000)"><mask id="mask-4" fill="#fff"><use xlink:href="#path-3"/></mask><path id="Fill-2133" fill="#5ECB66" d="M0,0 L4,0 L4,4 L0,4 L0,0 Z" mask="url(#mask-4)"/></g><path id="Fill-2136" fill="#314E55" d="M870,2316 C868.346,2316 867,2314.654 867,2313 C867,2311.346 868.346,2310 870,2310 C871.654,2310 873,2311.346 873,2313 C873,2314.654 871.654,2316 870,2316 L870,2316 Z M870,2312 C869.448,2312 869,2312.448 869,2313 C869,2313.552 869.448,2314 870,2314 C870.552,2314 871,2313.552 871,2313 C871,2312.448 870.552,2312 870,2312 L870,2312 Z"/><g id="Group-2139" transform="translate(878.000000, 2311.000000)"><mask id="mask-6" fill="#fff"><use xlink:href="#path-5"/></mask><path id="Fill-2137" fill="#5ECB66" d="M0,0 L4,0 L4,4 L0,4 L0,0 Z" mask="url(#mask-6)"/></g><path id="Fill-2140" fill="#314E55" d="M880,2316 C878.346,2316 877,2314.654 877,2313 C877,2311.346 878.346,2310 880,2310 C881.654,2310 883,2311.346 883,2313 C883,2314.654 881.654,2316 880,2316 L880,2316 Z M880,2312 C879.448,2312 879,2312.448 879,2313 C879,2313.552 879.448,2314 880,2314 C880.552,2314 881,2313.552 881,2313 C881,2312.448 880.552,2312 880,2312 L880,2312 Z"/><g id="Group-2143" transform="translate(888.000000, 2311.000000)"><mask id="mask-8" fill="#fff"><use xlink:href="#path-7"/></mask><path id="Fill-2141" fill="#5ECB66" d="M0,0 L4,0 L4,4 L0,4 L0,0 Z" mask="url(#mask-8)"/></g><path id="Fill-2144" fill="#314E55" d="M890,2316 C888.346,2316 887,2314.654 887,2313 C887,2311.346 888.346,2310 890,2310 C891.654,2310 893,2311.346 893,2313 C893,2314.654 891.654,2316 890,2316 L890,2316 Z M890,2312 C889.448,2312 889,2312.448 889,2313 C889,2313.552 889.448,2314 890,2314 C890.552,2314 891,2313.552 891,2313 C891,2312.448 890.552,2312 890,2312 L890,2312 Z"/><g id="Group-2147" transform="translate(844.000000, 2298.000000)"><mask id="mask-10" fill="#fff"><use xlink:href="#path-9"/></mask><path id="Fill-2145" fill="#D26CBA" d="M0,0 L4,0 L4,4 L0,4 L0,0 Z" mask="url(#mask-10)"/></g><path id="Fill-2148" fill="#314E55" d="M846,2303 C844.346,2303 843,2301.654 843,2300 C843,2298.346 844.346,2297 846,2297 C847.654,2297 849,2298.346 849,2300 C849,2301.654 847.654,2303 846,2303 L846,2303 Z M846,2299 C845.448,2299 845,2299.448 845,2300 C845,2300.552 845.448,2301 846,2301 C846.552,2301 847,2300.552 847,2300 C847,2299.448 846.552,2299 846,2299 L846,2299 Z"/><g id="Group-2151" transform="translate(854.000000, 2298.000000)"><mask id="mask-12" fill="#fff"><use xlink:href="#path-11"/></mask><path id="Fill-2149" fill="#D26CBA" d="M0,0 L4,0 L4,4 L0,4 L0,0 Z" mask="url(#mask-12)"/></g><path id="Fill-2152" fill="#314E55" d="M856,2303 C854.346,2303 853,2301.654 853,2300 C853,2298.346 854.346,2297 856,2297 C857.654,2297 859,2298.346 859,2300 C859,2301.654 857.654,2303 856,2303 L856,2303 Z M856,2299 C855.448,2299 855,2299.448 855,2300 C855,2300.552 855.448,2301 856,2301 C856.552,2301 857,2300.552 857,2300 C857,2299.448 856.552,2299 856,2299 L856,2299 Z"/></g></g></g></svg>