<?xml version="1.0" encoding="UTF-8" standalone="no"?>
<svg width="60px" height="60px" viewBox="0 0 60 60" version="1.1" xmlns="http://www.w3.org/2000/svg" xmlns:xlink="http://www.w3.org/1999/xlink" xmlns:sketch="http://www.bohemiancoding.com/sketch/ns">
    <!-- Generator: Sketch 3.3.3 (12081) - http://www.bohemiancoding.com/sketch -->
    <title>Lovechat</title>
    <desc>Created with Sketch.</desc>
    <defs>
        <path id="path-1" d="M39.343,35.311 C35.442,37.018 30.878,38 26,38 C11.641,38 0,29.493 0,19 C0,8.507 11.641,0 26,0 C40.359,0 52,8.507 52,19 C52,24.467 48.84,29.395 43.783,32.861 L43.5,40.5 C43.5,40.5 41.329,37.737 39.343,35.311 L39.343,35.311 Z"></path>
        <path id="path-3" d="M1.032,10.535 C0.286,7.026 2.526,3.577 6.035,2.831 C7.727,2.472 9.405,2.806 10.773,3.642 C11.682,2.322 13.079,1.334 14.771,0.974 C18.28,0.228 21.729,2.468 22.475,5.977 C23.221,9.486 15.79,21.648 14.422,20.812 C13.513,22.132 1.778,14.044 1.032,10.535 L1.032,10.535 Z"></path>
        <path id="path-5" d="M2,15.776 C0.046,12.768 0.901,8.745 3.91,6.791 C5.361,5.849 7.047,5.56 8.624,5.85 C8.999,4.292 9.949,2.869 11.4,1.927 C14.409,-0.027 18.432,0.828 20.385,3.837 C22.339,6.845 19.76,20.862 18.184,20.572 C17.808,22.13 3.954,18.785 2,15.776 L2,15.776 Z"></path>
    </defs>
    <g id="colored" stroke="none" stroke-width="1" fill="none" fill-rule="evenodd" sketch:type="MSPage">
        <g id="Love_sliced" sketch:type="MSLayerGroup" transform="translate(-360.000000, 0.000000)"></g>
        <g id="Imported-Layers" sketch:type="MSLayerGroup" transform="translate(-360.000000, 1.000000)">
            <g id="Group-62" transform="translate(364.000000, 7.000000)">
                <mask id="mask-2" sketch:name="Clip 61" fill="white">
                    <use xlink:href="#path-1"></use>
                </mask>
                <g id="Clip-61"></g>
                <path d="M0,0 L52,0 L52,40.5 L0,40.5 L0,0 Z" id="Fill-60" fill="#E9E7D1" sketch:type="MSShapeGroup" mask="url(#mask-2)"></path>
            </g>
            <path d="M407.5,48.5 C407.199,48.5 406.907,48.364 406.714,48.118 C406.694,48.092 404.859,45.758 403.042,43.523 C399.068,45.146 394.576,46 390,46 C375.112,46 363,37.028 363,26 C363,14.972 375.112,6 390,6 C404.888,6 417,14.972 417,26 C417,31.423 414.005,36.645 408.764,40.395 L408.5,47.537 C408.484,47.956 408.208,48.321 407.809,48.451 C407.707,48.484 407.603,48.5 407.5,48.5 L407.5,48.5 Z M403.342,41.311 C403.636,41.311 403.922,41.439 404.117,41.677 C404.97,42.719 405.862,43.83 406.601,44.756 L406.783,39.824 C406.795,39.507 406.956,39.215 407.217,39.036 C412.236,35.596 415,30.967 415,26 C415,16.075 403.785,8 390,8 C376.215,8 365,16.075 365,26 C365,35.925 376.215,44 390,44 C394.574,44 399.049,43.099 402.941,41.395 C403.071,41.338 403.207,41.311 403.342,41.311 L403.342,41.311 Z" id="Fill-63" fill="#314E55" sketch:type="MSShapeGroup"></path>
            <g id="Group-66" transform="translate(385.000000, 17.000000)">
                <mask id="mask-4" sketch:name="Clip 65" fill="white">
                    <use xlink:href="#path-3"></use>
                </mask>
                <g id="Clip-65"></g>
                <path d="M0.286,0.228 L23.221,0.228 L23.221,22.132 L0.286,22.132 L0.286,0.228 Z" id="Fill-64" fill="#E0AB40" sketch:type="MSShapeGroup" mask="url(#mask-4)"></path>
            </g>
            <path d="M399.049,38.956 C396.384,38.956 385.833,31.41 385.054,27.743 C384.637,25.785 385.008,23.782 386.099,22.103 C387.19,20.423 388.868,19.27 390.827,18.853 C392.403,18.517 394.053,18.704 395.501,19.367 C396.56,18.165 397.974,17.334 399.562,16.996 C400.078,16.886 400.604,16.831 401.127,16.831 C404.641,16.831 407.722,19.329 408.453,22.77 C409.121,25.912 404.766,33.723 402.172,36.929 C401.114,38.237 400.352,38.817 399.643,38.852 C399.481,38.915 399.285,38.956 399.049,38.956 L399.049,38.956 Z M399.049,36.956 L399.049,37.956 L399.049,36.956 L399.049,36.956 Z M392.391,20.688 C392.008,20.688 391.622,20.729 391.243,20.809 C389.807,21.114 388.576,21.96 387.776,23.192 C386.977,24.423 386.705,25.892 387.01,27.327 C387.569,29.96 396.81,36.659 398.92,36.947 C399.104,36.84 399.316,36.793 399.529,36.818 C401.346,35.707 407.061,25.84 406.497,23.186 C405.96,20.662 403.702,18.831 401.127,18.831 C400.744,18.831 400.357,18.872 399.978,18.952 C398.598,19.246 397.397,20.048 396.596,21.21 C396.294,21.647 395.703,21.773 395.25,21.496 C394.387,20.967 393.398,20.688 392.391,20.688 L392.391,20.688 Z" id="Fill-67" fill="#314E55" sketch:type="MSShapeGroup"></path>
            <g id="Group-70" transform="translate(370.000000, 14.000000)">
                <mask id="mask-6" sketch:name="Clip 69" fill="white">
                    <use xlink:href="#path-5"></use>
                </mask>
                <g id="Clip-69"></g>
                <path d="M0.046,-0.027 L22.339,-0.027 L22.339,22.13 L0.046,22.13 L0.046,-0.027 Z" id="Fill-68" fill="#F28544" sketch:type="MSShapeGroup" mask="url(#mask-6)"></path>
            </g>
            <path d="M386.88,35.968 C383.115,35.968 373.055,33.238 371.161,30.321 C370.071,28.642 369.7,26.639 370.116,24.68 C370.532,22.722 371.686,21.042 373.365,19.952 C374.716,19.074 376.309,18.658 377.913,18.757 C378.471,17.254 379.494,15.972 380.855,15.088 C382.074,14.296 383.484,13.878 384.932,13.878 C387.483,13.878 389.836,15.154 391.224,17.292 C393.167,20.283 391.385,31.422 389.769,34.398 C389.646,34.625 389.327,35.211 388.77,35.461 C388.208,35.968 387.254,35.968 386.88,35.968 L386.88,35.968 Z M377.441,20.743 C376.381,20.743 375.348,21.049 374.454,21.63 C373.223,22.429 372.377,23.66 372.072,25.096 C371.767,26.532 372.039,28 372.839,29.232 C374.159,31.265 383.438,33.968 386.88,33.968 C387.148,33.968 387.316,33.95 387.414,33.933 C387.546,33.773 387.727,33.658 387.928,33.605 C389.225,31.917 391.024,20.657 389.546,18.381 C388.529,16.814 386.804,15.878 384.932,15.878 C383.872,15.878 382.838,16.185 381.944,16.766 C380.761,17.534 379.927,18.713 379.596,20.085 C379.471,20.601 378.961,20.929 378.442,20.834 C378.113,20.773 377.776,20.743 377.441,20.743 L377.441,20.743 Z" id="Fill-71" fill="#314E55" sketch:type="MSShapeGroup"></path>
        </g>
    </g>
</svg>