<svg xmlns="http://www.w3.org/2000/svg" xmlns:xlink="http://www.w3.org/1999/xlink" width="266" height="76" version="1.1" viewBox="0 0 266 76"><title>Group</title><desc>Created with Sketch.</desc><g id="Page-1" fill="none" fill-rule="evenodd" stroke="none" stroke-width="1"><g id="Group" transform="translate(0.000000, 1.000000)"><path id="Combined-Shape" fill="#3B637F" d="M217.248646,55.6703422 L265.578041,52.9830291 L210.702531,74.0922852 L217.248646,55.6703422 Z M206,46.6203101 L265.578041,52.3852543 L217.019267,54.9372928 L206,46.6203101 Z M218.771421,28 L265.578041,52.3852543 L219.438704,46.9101079 L218.771421,28 Z"/><path id="Path-2" stroke="#979797" d="M0.17578125,16.3984375 C1.63541667,15.859375 3.09505208,15.3203125 4.5546875,14.78125"/><path id="Path-3" stroke="#979797" d="M0.515625,16.25 C4.4453125,14.2955729 8.375,12.3411458 12.3046875,10.3867188"/><path id="Path-4" stroke="#979797" d="M27.796875,3.890625 C30.9414062,3.52864583 34.0859375,3.16666667 37.2304688,2.8046875"/><path id="Path-5" stroke="#979797" d="M48.6835938,0.46875 C53.5117188,0.338541667 58.3398438,0.208333333 63.1679688,0.078125"/><path id="Path-6" stroke="#979797" d="M75.3118691,0.00229747661 C65.8138806,-0.0635845246 79.4706209,1.28251233 82.3743691,4.67807873"/><path id="Path-7" stroke="#979797" d="M95,16 C96.4596354,17.9544271 97.9192708,19.9088542 99.3789062,21.8632812"/><path id="Path-8" stroke="#979797" d="M110.324219,34.2109375 C113.160464,41.0996336 110.832531,39.0244646 116.050781,41.609375"/><path id="Path-9" stroke="#979797" d="M134.238281,46.6991302 C139.562165,46.7981648 141.071491,45.0860792 146.027344,45.0860792"/><path id="Line" stroke="#979797" stroke-linecap="square" d="M149.5,43.5 L154.5,41.5"/><path id="Line" stroke="#979797" stroke-linecap="square" d="M85.5,8.5 L91.5,12.5"/><path id="Line" stroke="#979797" stroke-linecap="square" d="M104.5,26.5 L106.5,30.5"/><path id="Path-10" stroke="#979797" d="M171.292969,45.4492188 C175.559896,44.9270833 179.826823,44.4049479 184.09375,43.8828125"/><path id="Path-11" stroke="#979797" d="M158.492188,40.90625 L167.25,41.4609375"/><path id="Path-12" stroke="#979797" d="M188.808594,45.9023438 C193.411458,46.2395833 198.014323,46.5768229 202.617188,46.9140625"/><path id="Path-13" stroke="#979797" d="M120.09375,45.2851562 C123.238281,45.5862732 126.382812,45.8873901 129.527344,46.1885071"/></g></g></svg>