<svg xmlns="http://www.w3.org/2000/svg" xmlns:xlink="http://www.w3.org/1999/xlink" width="60" height="60" version="1.1" viewBox="0 0 60 60"><title>Dollarpaper</title><desc>Created with Sketch.</desc><defs><path id="path-1" d="M1.077,12.073 C1.077,8.048 0,0 0,0 C0,0 18.667,2.08 28,2.08 C37.333,2.08 56,0 56,0 C56,0 54.923,7.579 54.923,11.368 C54.923,15.552 56,23.92 56,23.92 C56,23.92 37.333,26 28,26 C18.667,26 0,23.92 0,23.92 C0,23.92 1.077,16.022 1.077,12.073 L1.077,12.073 Z"/></defs><g id="outlined" fill="none" fill-rule="evenodd" stroke="none" stroke-width="1"><g id="Imported-Layers" transform="translate(-238.000000, -351.000000)"><g id="Group-457" transform="translate(240.000000, 372.000000)"><mask id="mask-2" fill="#fff"><use xlink:href="#path-1"/></mask><path id="Fill-455" fill="#5ECB66" d="M0,0 L56,0 L56,26 L0,26 L0,0 Z" mask="url(#mask-2)"/></g><path id="Fill-458" fill="#314E55" d="M268,399 C258.718,399 240.077,396.934 239.889,396.914 C239.622,396.884 239.377,396.747 239.211,396.535 C239.045,396.322 238.973,396.052 239.009,395.785 C239.02,395.707 240.077,387.908 240.077,384.073 C240.077,380.162 239.02,372.212 239.009,372.133 C238.968,371.828 239.07,371.521 239.285,371.301 C239.5,371.081 239.801,370.971 240.111,371.006 C240.297,371.027 258.829,373.08 268,373.08 C277.172,373.08 295.703,371.027 295.889,371.006 C296.2,370.972 296.502,371.082 296.718,371.304 C296.933,371.525 297.034,371.834 296.99,372.141 C296.979,372.216 295.923,379.694 295.923,383.369 C295.923,387.441 296.981,395.709 296.992,395.792 C297.026,396.058 296.952,396.327 296.786,396.538 C296.621,396.749 296.377,396.884 296.111,396.914 C295.923,396.934 277.282,399 268,399 L268,399 Z M241.125,395.036 C245.139,395.465 260.07,397 268,397 C275.936,397 290.878,395.463 294.882,395.035 C294.596,392.665 293.923,386.745 293.923,383.369 C293.923,380.457 294.53,375.471 294.837,373.131 C290.458,373.596 275.867,375.08 268,375.08 C260.127,375.08 245.521,373.594 241.153,373.13 C241.457,375.573 242.077,380.951 242.077,384.073 C242.077,387.236 241.416,392.756 241.125,395.036 L241.125,395.036 Z"/><path id="Fill-459" fill="#314E55" d="M268,387 C265.794,387 264,385.206 264,383 C264,380.794 265.794,379 268,379 C270.206,379 272,380.794 272,383 C272,383.552 271.552,384 271,384 C270.448,384 270,383.552 270,383 C270,381.897 269.103,381 268,381 C266.897,381 266,381.897 266,383 C266,384.103 266.897,385 268,385 C268.552,385 269,385.448 269,386 C269,386.552 268.552,387 268,387"/><path id="Fill-460" fill="#314E55" d="M268,395 C267.448,395 267,394.552 267,394 L267,392 C267,391.448 267.448,391 268,391 C268.552,391 269,391.448 269,392 L269,394 C269,394.552 268.552,395 268,395"/><path id="Fill-461" fill="#314E55" d="M268,381 C267.448,381 267,380.552 267,380 L267,378 C267,377.448 267.448,377 268,377 C268.552,377 269,377.448 269,378 L269,380 C269,380.552 268.552,381 268,381"/><path id="Fill-462" fill="#314E55" d="M268,393 C265.794,393 264,391.206 264,389 C264,388.448 264.448,388 265,388 C265.552,388 266,388.448 266,389 C266,390.103 266.897,391 268,391 C269.103,391 270,390.103 270,389 C270,387.897 269.103,387 268,387 C267.448,387 267,386.552 267,386 C267,385.448 267.448,385 268,385 C270.206,385 272,386.794 272,389 C272,391.206 270.206,393 268,393"/><path id="Fill-463" fill="#314E55" d="M286,375 L293,375 L293,377 L286,377 L286,375 Z"/><path id="Fill-464" fill="#314E55" d="M243,375 L250,375 L250,377 L243,377 L243,375 Z"/><path id="Fill-465" fill="#314E55" d="M286,392 L293,392 L293,394 L286,394 L286,392 Z"/><path id="Fill-466" fill="#314E55" d="M243,392 L250,392 L250,394 L243,394 L243,392 Z"/></g></g></svg>