<svg xmlns="http://www.w3.org/2000/svg" xmlns:xlink="http://www.w3.org/1999/xlink" width="60" height="60" version="1.1" viewBox="0 0 60 60"><title>Babyhead</title><desc>Created with Sketch.</desc><defs><path id="path-1" d="M4.476,30.531 C7.709,38.991 15.903,45 25.5,45 C35.097,45 43.291,38.991 46.524,30.531 C49.143,29.518 51,26.976 51,24 C51,21.426 49.611,19.177 47.542,17.961 C45.442,7.71 36.372,0 25.5,0 C14.629,0 5.558,7.71 3.458,17.961 C1.389,19.177 0,21.426 0,24 C0,26.976 1.857,29.518 4.476,30.531 L4.476,30.531 Z"/><path id="path-3" d="M8,13.602 C12.418,13.602 16,9.592 16,5.174 C16,0.756 12.418,0 8,0 C3.582,0 0,0.756 0,5.174 C0,9.592 3.582,13.602 8,13.602 L8,13.602 Z"/><path id="path-5" d="M3,6 C4.657,6 6,4.657 6,3 C6,1.343 4.657,0 3,0 C1.343,0 0,1.343 0,3 C0,4.657 1.343,6 3,6 L3,6 Z"/></defs><g id="colored" fill="none" fill-rule="evenodd" stroke="none" stroke-width="1"><g id="Imported-Layers" transform="translate(2.000000, -959.000000)"><g id="Group-1012" transform="translate(2.000000, 972.000000)"><mask id="mask-2" fill="#fff"><use xlink:href="#path-1"/></mask><path id="Fill-1010" fill="#E9E7D1" d="M0,0 L51,0 L51,45 L0,45 L0,0 Z" mask="url(#mask-2)"/></g><path id="Fill-1013" fill="#314E55" d="M27.5,1018 C17.965,1018 9.259,1012.106 5.699,1003.289 C2.871,1002.004 1,999.13 1,996 C1,993.326 2.356,990.814 4.569,989.339 C6.957,978.687 16.531,971 27.5,971 C38.469,971 48.044,978.687 50.431,989.339 C52.644,990.814 54,993.326 54,996 C54,999.13 52.129,1002.004 49.301,1003.289 C45.741,1012.106 37.035,1018 27.5,1018 L27.5,1018 Z M27.5,973 C17.332,973 8.475,980.218 6.437,990.161 C6.381,990.44 6.209,990.68 5.964,990.823 C4.136,991.898 3,993.881 3,996 C3,998.461 4.542,1000.711 6.836,1001.599 C7.1,1001.7 7.309,1001.91 7.41,1002.174 C10.571,1010.443 18.645,1016 27.5,1016 C36.355,1016 44.429,1010.443 47.59,1002.174 C47.691,1001.91 47.9,1001.7 48.164,1001.599 C50.459,1000.711 52,998.461 52,996 C52,993.881 50.864,991.898 49.036,990.823 C48.791,990.68 48.619,990.44 48.562,990.161 C46.525,980.218 37.668,973 27.5,973 L27.5,973 Z"/><path id="Fill-1014" fill="#314E55" d="M25.464,973.027 C25.448,973.027 25.432,973.027 25.416,973.026 C24.866,973 24.441,972.535 24.464,971.985 C24.472,971.751 24.55,966.668 17.386,965.27 C16.844,965.164 16.49,964.639 16.596,964.097 C16.702,963.555 17.227,963.2 17.769,963.307 C26.69,965.048 26.466,972.005 26.462,972.074 C26.437,972.61 25.995,973.027 25.464,973.027"/><path id="Fill-1015" fill="#314E55" d="M25.36,972.054 C25.262,972.054 25.162,972.039 25.064,972.008 C24.544,971.844 24.249,971.301 24.404,970.777 C24.443,970.645 25.433,967.499 30.761,965.761 C31.288,965.589 31.851,965.876 32.022,966.4 C32.193,966.926 31.907,967.49 31.381,967.661 C27.135,969.047 26.348,971.27 26.316,971.363 C26.175,971.782 25.782,972.054 25.36,972.054"/><g id="Group-1018" transform="translate(19.000000, 999.000000)"><mask id="mask-4" fill="#fff"><use xlink:href="#path-3"/></mask><path id="Fill-1016" fill="#5ECB66" d="M0,0 L16,0 L16,13.602 L0,13.602 L0,0 Z" mask="url(#mask-4)"/></g><path id="Fill-1019" fill="#314E55" d="M27,1013.603 C22.122,1013.603 18,1009.285 18,1004.174 C18,998 24.307,998 27,998 C29.693,998 36,998 36,1004.174 C36,1009.285 31.878,1013.603 27,1013.603 L27,1013.603 Z M27,1000 C21.897,1000 20,1001.131 20,1004.174 C20,1008.131 23.271,1011.603 27,1011.603 C30.729,1011.603 34,1008.131 34,1004.174 C34,1001.131 32.103,1000 27,1000 L27,1000 Z"/><g id="Group-1022" transform="translate(24.000000, 1003.000000)"><mask id="mask-6" fill="#fff"><use xlink:href="#path-5"/></mask><path id="Fill-1020" fill="#D8D8D8" d="M0,0 L6,0 L6,6 L0,6 L0,0 Z" mask="url(#mask-6)"/></g><path id="Fill-1023" fill="#314E55" d="M27,1010 C24.794,1010 23,1008.206 23,1006 C23,1003.794 24.794,1002 27,1002 C29.206,1002 31,1003.794 31,1006 C31,1008.206 29.206,1010 27,1010 L27,1010 Z M27,1004 C25.897,1004 25,1004.898 25,1006 C25,1007.103 25.897,1008 27,1008 C28.103,1008 29,1007.103 29,1006 C29,1004.898 28.103,1004 27,1004 L27,1004 Z"/><path id="Fill-1024" fill="#314E55" d="M39,993 C38.448,993 38,992.553 38,992 C38,990.346 36.654,989 35,989 C33.346,989 32,990.346 32,992 C32,992.553 31.552,993 31,993 C30.448,993 30,992.553 30,992 C30,989.243 32.243,987 35,987 C37.757,987 40,989.243 40,992 C40,992.553 39.552,993 39,993"/><path id="Fill-1025" fill="#314E55" d="M24,993 C23.448,993 23,992.553 23,992 C23,990.346 21.654,989 20,989 C18.346,989 17,990.346 17,992 C17,992.553 16.552,993 16,993 C15.448,993 15,992.553 15,992 C15,989.243 17.243,987 20,987 C22.757,987 25,989.243 25,992 C25,992.553 24.552,993 24,993"/></g></g></svg>