<svg xmlns="http://www.w3.org/2000/svg" xmlns:xlink="http://www.w3.org/1999/xlink" width="60" height="60" version="1.1" viewBox="0 0 60 60"><title>Baby</title><desc>Created with Sketch.</desc><defs><path id="path-1" d="M18.242,55 C28.183,55 36.242,42.688 36.242,27.5 C36.242,12.312 31.749,0 18.242,0 C4.735,0 0.242,12.312 0.242,27.5 C0.242,42.688 8.301,55 18.242,55 L18.242,55 Z"/><path id="path-3" d="M10.242,20 C15.765,20 20.242,15.523 20.242,10 C20.242,4.477 15.765,0 10.242,0 C4.719,0 0.242,4.477 0.242,10 C0.242,15.523 4.719,20 10.242,20 L10.242,20 Z"/></defs><g id="colored" fill="none" fill-rule="evenodd" stroke="none" stroke-width="1"><g id="Imported-Layers" transform="translate(-838.000000, -839.000000)"><g id="Group-1000" transform="translate(850.000000, 841.000000)"><mask id="mask-2" fill="#fff"><use xlink:href="#path-1"/></mask><path id="Fill-998" fill="#E4AD40" d="M0.242,0 L36.242,0 L36.242,55 L0.242,55 L0.242,0 Z" mask="url(#mask-2)"/></g><path id="Fill-1001" fill="#314E55" d="M868.242,897 C857.766,897 849.242,884.215 849.242,868.5 C849.242,849.856 855.812,840 868.242,840 C880.672,840 887.242,849.856 887.242,868.5 C887.242,884.215 878.719,897 868.242,897 L868.242,897 Z M868.242,842 C854.191,842 851.242,856.411 851.242,868.5 C851.242,883.112 858.868,895 868.242,895 C877.616,895 885.242,883.112 885.242,868.5 C885.242,856.411 882.293,842 868.242,842 L868.242,842 Z"/><g id="Group-1004" transform="translate(858.000000, 846.000000)"><mask id="mask-4" fill="#fff"><use xlink:href="#path-3"/></mask><path id="Fill-1002" fill="#E9E7D1" d="M0.242,0 L20.242,0 L20.242,20 L0.242,20 L0.242,0 Z" mask="url(#mask-4)"/></g><path id="Fill-1005" fill="#314E55" d="M868.242,867 C862.177,867 857.242,862.065 857.242,856 C857.242,849.935 862.177,845 868.242,845 C874.308,845 879.242,849.935 879.242,856 C879.242,862.065 874.308,867 868.242,867 L868.242,867 Z M868.242,847 C863.279,847 859.242,851.037 859.242,856 C859.242,860.963 863.279,865 868.242,865 C873.205,865 877.242,860.963 877.242,856 C877.242,851.037 873.205,847 868.242,847 L868.242,847 Z"/><path id="Fill-1006" fill="#314E55" d="M872,859 C870.346,859 869,857.654 869,856 C869,855.447 869.447,855 870,855 C870.553,855 871,855.447 871,856 C871,856.552 871.448,857 872,857 C872.552,857 873,856.552 873,856 C873,855.447 873.447,855 874,855 C874.553,855 875,855.447 875,856 C875,857.654 873.654,859 872,859"/><path id="Fill-1007" fill="#314E55" d="M864,859 C862.346,859 861,857.654 861,856 C861,855.447 861.447,855 862,855 C862.553,855 863,855.447 863,856 C863,856.552 863.448,857 864,857 C864.552,857 865,856.552 865,856 C865,855.447 865.447,855 866,855 C866.553,855 867,855.447 867,856 C867,857.654 865.654,859 864,859"/><path id="Fill-1008" fill="#314E55" d="M864.473,879.887 C864.074,879.887 863.696,879.647 863.542,879.253 C863.34,878.738 863.593,878.158 864.106,877.956 C865.023,877.597 865.925,877.343 866.798,877.098 C869.489,876.342 872.271,875.561 876.551,871.503 C882.175,866.172 884.373,858.734 884.394,858.659 C884.548,858.13 885.098,857.824 885.634,857.977 C886.164,858.13 886.47,858.685 886.316,859.216 C886.222,859.541 883.941,867.254 877.927,872.954 C873.288,877.352 870.128,878.24 867.339,879.023 C866.476,879.266 865.66,879.494 864.839,879.817 C864.719,879.864 864.595,879.887 864.473,879.887"/><path id="Fill-1009" fill="#314E55" d="M878.999,890.242 C878.832,890.242 878.662,890.2 878.507,890.112 C877.715,889.662 876.879,889.245 875.994,888.804 C872.268,886.943 867.631,884.629 861.972,877.668 C855.083,869.195 851.031,856.585 850.862,856.053 C850.695,855.526 850.986,854.964 851.513,854.797 C852.042,854.627 852.601,854.922 852.769,855.447 C852.809,855.574 856.878,868.232 863.524,876.406 C868.91,883.032 873.148,885.148 876.887,887.014 C877.797,887.468 878.655,887.897 879.493,888.372 C879.974,888.646 880.143,889.256 879.87,889.735 C879.686,890.061 879.348,890.242 878.999,890.242"/></g></g></svg>