<?xml version="1.0" encoding="UTF-8" standalone="no"?>
<svg width="60px" height="60px" viewBox="0 0 60 60" version="1.1" xmlns="http://www.w3.org/2000/svg" xmlns:xlink="http://www.w3.org/1999/xlink" xmlns:sketch="http://www.bohemiancoding.com/sketch/ns">
    <!-- Generator: Sketch 3.3.3 (12081) - http://www.bohemiancoding.com/sketch -->
    <title>Cake</title>
    <desc>Created with Sketch.</desc>
    <defs>
        <path id="path-1" d="M1,3.01 C1,1.349 2.346,0 4,0 C5.659,0 7,1.342 7,3.01 L7,9 L8,8 L0,8 L1,9 L1,3.01"></path>
        <path id="path-3" d="M0,4.01 C0,1.795 1.795,0 4,0 C6.209,0 8,1.788 8,4.01 L8,10 L0,10 L0,4.01 L0,4.01 Z"></path>
        <path id="path-5" d="M1,3.01 C1,1.349 2.346,0 4,0 C5.659,0 7,1.342 7,3.01 L7,9 L8,8 L0,8 L1,9 L1,3.01"></path>
        <path id="path-7" d="M0,4.01 C0,1.795 1.795,0 4,0 C6.209,0 8,1.788 8,4.01 L8,10 L0,10 L0,4.01 L0,4.01 Z"></path>
        <path id="path-9" d="M1,3.01 C1,1.349 2.346,0 4,0 C5.659,0 7,1.342 7,3.01 L7,9 L8,8 L0,8 L1,9 L1,3.01"></path>
        <path id="path-11" d="M0,4.01 C0,1.795 1.795,0 4,0 C6.209,0 8,1.788 8,4.01 L8,10 L0,10 L0,4.01 L0,4.01 Z"></path>
        <path id="path-13" d="M1,3.01 C1,1.349 2.346,0 4,0 C5.659,0 7,1.342 7,3.01 L7,9 L8,8 L0,8 L1,9 L1,3.01"></path>
        <path id="path-15" d="M0,4.01 C0,1.795 1.795,0 4,0 C6.209,0 8,1.788 8,4.01 L8,10 L0,10 L0,4.01 L0,4.01 Z"></path>
        <path id="path-17" d="M1,3.01 C1,1.349 2.346,0 4,0 C5.659,0 7,1.342 7,3.01 L7,9 L8,8 L0,8 L1,9 L1,3.01"></path>
        <path id="path-19" d="M0,4.01 C0,1.795 1.795,0 4,0 C6.209,0 8,1.788 8,4.01 L8,10 L0,10 L0,4.01 L0,4.01 Z"></path>
        <path id="path-21" d="M1,3.01 C1,1.349 2.346,0 4,0 C5.659,0 7,1.342 7,3.01 L7,9 L8,8 L0,8 L1,9 L1,3.01"></path>
        <path id="path-23" d="M0,4.01 C0,1.795 1.795,0 4,0 C6.209,0 8,1.788 8,4.01 L8,10 L0,10 L0,4.01 L0,4.01 Z"></path>
        <path id="path-25" d="M1,3.01 C1,1.349 2.346,0 4,0 C5.659,0 7,1.342 7,3.01 L7,9 L8,8 L0,8 L1,9 L1,3.01"></path>
        <path id="path-27" d="M0,4.01 C0,1.795 1.795,0 4,0 C6.209,0 8,1.788 8,4.01 L8,10 L0,10 L0,4.01 L0,4.01 Z"></path>
        <path id="path-29" d="M1,6 C1,2.688 3.691,0 7.006,0 L34.994,0 C38.308,0 41,2.691 41,6 L41,13 L42,12 L0,12 L1,13 L1,6"></path>
        <path id="path-31" d="M0,7 C0,3.134 3.14,0 7.006,0 L34.994,0 C38.863,0 42,3.142 42,7 L42,14 L0,14 L0,7 L0,7 Z"></path>
        <path id="path-33" d="M0,1 L5,1 L4,0 L4,14 L5,13 L0,13 L1,14 L1,0 L0,1 L0,1 Z"></path>
        <path id="path-35" d="M0,0 L5,0 L5,14 L0,14 L0,0 Z"></path>
        <path id="path-37" d="M0,1 L5,1 L4,0 L4,14 L5,13 L0,13 L1,14 L1,0 L0,1 L0,1 Z"></path>
        <path id="path-39" d="M0,0 L5,0 L5,14 L0,14 L0,0 Z"></path>
        <path id="path-41" d="M0,1 L5,1 L4,0 L4,14 L5,13 L0,13 L1,14 L1,0 L0,1 L0,1 Z"></path>
        <path id="path-43" d="M0,0 L5,0 L5,14 L0,14 L0,0 Z"></path>
        <path id="path-45" d="M3.291,8 C4.787,8 6,6.787 6,5.291 C6,3.794 4.787,0 3.291,0 C1.794,0 0.581,3.794 0.581,5.291 C0.581,6.787 1.794,8 3.291,8 L3.291,8 Z"></path>
        <path id="path-47" d="M3.291,8 C4.787,8 6,6.787 6,5.291 C6,3.794 4.787,0 3.291,0 C1.794,0 0.581,3.794 0.581,5.291 C0.581,6.787 1.794,8 3.291,8 L3.291,8 Z"></path>
        <path id="path-49" d="M3.291,8 C4.787,8 6,6.787 6,5.291 C6,3.794 4.787,0 3.291,0 C1.794,0 0.581,3.794 0.581,5.291 C0.581,6.787 1.794,8 3.291,8 L3.291,8 Z"></path>
    </defs>
    <g id="colored" stroke="none" stroke-width="1" fill="none" fill-rule="evenodd" sketch:type="MSPage">
        <g id="Kitchen_sliced" sketch:type="MSLayerGroup" transform="translate(-600.000000, -600.000000)"></g>
        <g id="Imported-Layers" sketch:type="MSLayerGroup" transform="translate(-600.000000, -599.000000)">
            <path d="M602,653 L658.009,653 L658.009,655 L602,655 L602,653 Z" id="Fill-912" fill="#314E55" sketch:type="MSShapeGroup"></path>
            <g id="Group-915" transform="translate(608.000000, 646.000000)">
                <mask id="mask-2" sketch:name="Clip 914" fill="white">
                    <use xlink:href="#path-1"></use>
                </mask>
                <g id="Clip-914"></g>
                <path d="M0,3.01 C0,0.795 1.795,-1 4,-1 C6.209,-1 8,0.788 8,3.01 L8,9 L0,9 L0,3.01" id="Fill-913" fill="#F68CAC" sketch:type="MSShapeGroup" mask="url(#mask-2)"></path>
            </g>
            <g id="Group-918" transform="translate(608.000000, 645.000000)">
                <mask id="mask-4" sketch:name="Clip 917" fill="white">
                    <use xlink:href="#path-3"></use>
                </mask>
                <g id="Clip-917"></g>
                <path d="M8,12 L0,12 C-1.104,12 -2,11.104 -2,10 L-2,4.01 C-2,0.696 0.691,-2 4,-2 C7.309,-2 10,0.696 10,4.01 L10,10 C10,11.104 9.104,12 8,12 L8,12 Z M2,8 L6,8 L6,4.01 C6,2.901 5.102,2 4,2 C2.898,2 2,2.901 2,4.01 L2,8 L2,8 Z" id="Fill-916" fill="#314E55" sketch:type="MSShapeGroup" mask="url(#mask-4)"></path>
            </g>
            <g id="Group-921" transform="translate(614.000000, 646.000000)">
                <mask id="mask-6" sketch:name="Clip 920" fill="white">
                    <use xlink:href="#path-5"></use>
                </mask>
                <g id="Clip-920"></g>
                <path d="M0,3.01 C0,0.795 1.795,-1 4,-1 C6.209,-1 8,0.788 8,3.01 L8,9 L0,9 L0,3.01" id="Fill-919" fill="#F68CAC" sketch:type="MSShapeGroup" mask="url(#mask-6)"></path>
            </g>
            <g id="Group-924" transform="translate(614.000000, 645.000000)">
                <mask id="mask-8" sketch:name="Clip 923" fill="white">
                    <use xlink:href="#path-7"></use>
                </mask>
                <g id="Clip-923"></g>
                <path d="M8,12 L0,12 C-1.104,12 -2,11.104 -2,10 L-2,4.01 C-2,0.696 0.691,-2 4,-2 C7.309,-2 10,0.696 10,4.01 L10,10 C10,11.104 9.104,12 8,12 L8,12 Z M2,8 L6,8 L6,4.01 C6,2.901 5.102,2 4,2 C2.898,2 2,2.901 2,4.01 L2,8 L2,8 Z" id="Fill-922" fill="#314E55" sketch:type="MSShapeGroup" mask="url(#mask-8)"></path>
            </g>
            <g id="Group-927" transform="translate(620.000000, 646.000000)">
                <mask id="mask-10" sketch:name="Clip 926" fill="white">
                    <use xlink:href="#path-9"></use>
                </mask>
                <g id="Clip-926"></g>
                <path d="M0,3.01 C0,0.795 1.795,-1 4,-1 C6.209,-1 8,0.788 8,3.01 L8,9 L0,9 L0,3.01" id="Fill-925" fill="#F68CAC" sketch:type="MSShapeGroup" mask="url(#mask-10)"></path>
            </g>
            <g id="Group-930" transform="translate(620.000000, 645.000000)">
                <mask id="mask-12" sketch:name="Clip 929" fill="white">
                    <use xlink:href="#path-11"></use>
                </mask>
                <g id="Clip-929"></g>
                <path d="M8,12 L0,12 C-1.104,12 -2,11.104 -2,10 L-2,4.01 C-2,0.696 0.691,-2 4,-2 C7.309,-2 10,0.696 10,4.01 L10,10 C10,11.104 9.104,12 8,12 L8,12 Z M2,8 L6,8 L6,4.01 C6,2.901 5.102,2 4,2 C2.898,2 2,2.901 2,4.01 L2,8 L2,8 Z" id="Fill-928" fill="#314E55" sketch:type="MSShapeGroup" mask="url(#mask-12)"></path>
            </g>
            <g id="Group-933" transform="translate(626.000000, 646.000000)">
                <mask id="mask-14" sketch:name="Clip 932" fill="white">
                    <use xlink:href="#path-13"></use>
                </mask>
                <g id="Clip-932"></g>
                <path d="M0,3.01 C0,0.795 1.795,-1 4,-1 C6.209,-1 8,0.788 8,3.01 L8,9 L0,9 L0,3.01" id="Fill-931" fill="#F68CAC" sketch:type="MSShapeGroup" mask="url(#mask-14)"></path>
            </g>
            <g id="Group-936" transform="translate(626.000000, 645.000000)">
                <mask id="mask-16" sketch:name="Clip 935" fill="white">
                    <use xlink:href="#path-15"></use>
                </mask>
                <g id="Clip-935"></g>
                <path d="M8,12 L0,12 C-1.104,12 -2,11.104 -2,10 L-2,4.01 C-2,0.696 0.691,-2 4,-2 C7.309,-2 10,0.696 10,4.01 L10,10 C10,11.104 9.104,12 8,12 L8,12 Z M2,8 L6,8 L6,4.01 C6,2.901 5.102,2 4,2 C2.898,2 2,2.901 2,4.01 L2,8 L2,8 Z" id="Fill-934" fill="#314E55" sketch:type="MSShapeGroup" mask="url(#mask-16)"></path>
            </g>
            <g id="Group-939" transform="translate(632.000000, 646.000000)">
                <mask id="mask-18" sketch:name="Clip 938" fill="white">
                    <use xlink:href="#path-17"></use>
                </mask>
                <g id="Clip-938"></g>
                <path d="M0,3.01 C0,0.795 1.795,-1 4,-1 C6.209,-1 8,0.788 8,3.01 L8,9 L0,9 L0,3.01" id="Fill-937" fill="#F68CAC" sketch:type="MSShapeGroup" mask="url(#mask-18)"></path>
            </g>
            <g id="Group-942" transform="translate(632.000000, 645.000000)">
                <mask id="mask-20" sketch:name="Clip 941" fill="white">
                    <use xlink:href="#path-19"></use>
                </mask>
                <g id="Clip-941"></g>
                <path d="M8,12 L0,12 C-1.104,12 -2,11.104 -2,10 L-2,4.01 C-2,0.696 0.691,-2 4,-2 C7.309,-2 10,0.696 10,4.01 L10,10 C10,11.104 9.104,12 8,12 L8,12 Z M2,8 L6,8 L6,4.01 C6,2.901 5.102,2 4,2 C2.898,2 2,2.901 2,4.01 L2,8 L2,8 Z" id="Fill-940" fill="#314E55" sketch:type="MSShapeGroup" mask="url(#mask-20)"></path>
            </g>
            <g id="Group-945" transform="translate(638.000000, 646.000000)">
                <mask id="mask-22" sketch:name="Clip 944" fill="white">
                    <use xlink:href="#path-21"></use>
                </mask>
                <g id="Clip-944"></g>
                <path d="M0,3.01 C0,0.795 1.795,-1 4,-1 C6.209,-1 8,0.788 8,3.01 L8,9 L0,9 L0,3.01" id="Fill-943" fill="#F68CAC" sketch:type="MSShapeGroup" mask="url(#mask-22)"></path>
            </g>
            <g id="Group-948" transform="translate(638.000000, 645.000000)">
                <mask id="mask-24" sketch:name="Clip 947" fill="white">
                    <use xlink:href="#path-23"></use>
                </mask>
                <g id="Clip-947"></g>
                <path d="M8,12 L0,12 C-1.104,12 -2,11.104 -2,10 L-2,4.01 C-2,0.696 0.691,-2 4,-2 C7.309,-2 10,0.696 10,4.01 L10,10 C10,11.104 9.104,12 8,12 L8,12 Z M2,8 L6,8 L6,4.01 C6,2.901 5.102,2 4,2 C2.898,2 2,2.901 2,4.01 L2,8 L2,8 Z" id="Fill-946" fill="#314E55" sketch:type="MSShapeGroup" mask="url(#mask-24)"></path>
            </g>
            <g id="Group-951" transform="translate(644.000000, 646.000000)">
                <mask id="mask-26" sketch:name="Clip 950" fill="white">
                    <use xlink:href="#path-25"></use>
                </mask>
                <g id="Clip-950"></g>
                <path d="M0,3.01 C0,0.795 1.795,-1 4,-1 C6.209,-1 8,0.788 8,3.01 L8,9 L0,9 L0,3.01" id="Fill-949" fill="#F68CAC" sketch:type="MSShapeGroup" mask="url(#mask-26)"></path>
            </g>
            <g id="Group-954" transform="translate(644.000000, 645.000000)">
                <mask id="mask-28" sketch:name="Clip 953" fill="white">
                    <use xlink:href="#path-27"></use>
                </mask>
                <g id="Clip-953"></g>
                <path d="M8,12 L0,12 C-1.104,12 -2,11.104 -2,10 L-2,4.01 C-2,0.696 0.691,-2 4,-2 C7.309,-2 10,0.696 10,4.01 L10,10 C10,11.104 9.104,12 8,12 L8,12 Z M2,8 L6,8 L6,4.01 C6,2.901 5.102,2 4,2 C2.898,2 2,2.901 2,4.01 L2,8 L2,8 Z" id="Fill-952" fill="#314E55" sketch:type="MSShapeGroup" mask="url(#mask-28)"></path>
            </g>
            <g id="Group-957" transform="translate(609.000000, 628.000000)">
                <mask id="mask-30" sketch:name="Clip 956" fill="white">
                    <use xlink:href="#path-29"></use>
                </mask>
                <g id="Clip-956"></g>
                <path d="M0,6 C0,2.134 3.14,-1 7.006,-1 L34.994,-1 C38.863,-1 42,2.142 42,6 L42,13 L0,13 L0,6" id="Fill-955" fill="#E9E7D1" sketch:type="MSShapeGroup" mask="url(#mask-30)"></path>
            </g>
            <g id="Group-960" transform="translate(609.000000, 627.000000)">
                <mask id="mask-32" sketch:name="Clip 959" fill="white">
                    <use xlink:href="#path-31"></use>
                </mask>
                <g id="Clip-959"></g>
                <path d="M42,16 L0,16 C-1.104,16 -2,15.104 -2,14 L-2,7 C-2,2.038 2.04,-2 7.006,-2 L34.994,-2 C39.96,-2 44,2.038 44,7 L44,14 C44,15.104 43.104,16 42,16 L42,16 Z M2,12 L40,12 L40,7 C40,4.243 37.754,2 34.994,2 L7.006,2 C4.246,2 2,4.243 2,7 L2,12 L2,12 Z" id="Fill-958" fill="#314E55" sketch:type="MSShapeGroup" mask="url(#mask-32)"></path>
            </g>
            <path d="M626,632 L616,632 C615.447,632 615,631.552 615,631 C615,630.448 615.447,630 616,630 L626,630 C626.553,630 627,630.448 627,631 C627,631.552 626.553,632 626,632" id="Fill-961" fill="#314E55" sketch:type="MSShapeGroup"></path>
            <path d="M633,632 L630,632 C629.447,632 629,631.552 629,631 C629,630.448 629.447,630 630,630 L633,630 C633.553,630 634,630.448 634,631 C634,631.552 633.553,632 633,632" id="Fill-962" fill="#314E55" sketch:type="MSShapeGroup"></path>
            <g id="Group-965" transform="translate(618.000000, 615.000000)">
                <mask id="mask-34" sketch:name="Clip 964" fill="white">
                    <use xlink:href="#path-33"></use>
                </mask>
                <g id="Clip-964"></g>
                <path d="M0,0 L5,0 L5,14 L0,14 L0,0 Z" id="Fill-963" fill="#DBCF56" sketch:type="MSShapeGroup" mask="url(#mask-34)"></path>
            </g>
            <g id="Group-968" transform="translate(618.000000, 615.000000)">
                <mask id="mask-36" sketch:name="Clip 967" fill="white">
                    <use xlink:href="#path-35"></use>
                </mask>
                <g id="Clip-967"></g>
                <path d="M5,16 L0,16 C-1.104,16 -2,15.104 -2,14 L-2,0 C-2,-1.104 -1.104,-2 0,-2 L5,-2 C6.104,-2 7,-1.104 7,0 L7,14 C7,15.104 6.104,16 5,16 L5,16 Z M2,12 L3,12 L3,2 L2,2 L2,12 Z" id="Fill-966" fill="#314E55" sketch:type="MSShapeGroup" mask="url(#mask-36)"></path>
            </g>
            <g id="Group-971" transform="translate(628.000000, 615.000000)">
                <mask id="mask-38" sketch:name="Clip 970" fill="white">
                    <use xlink:href="#path-37"></use>
                </mask>
                <g id="Clip-970"></g>
                <path d="M0,0 L5,0 L5,14 L0,14 L0,0 Z" id="Fill-969" fill="#DBCF56" sketch:type="MSShapeGroup" mask="url(#mask-38)"></path>
            </g>
            <g id="Group-974" transform="translate(628.000000, 615.000000)">
                <mask id="mask-40" sketch:name="Clip 973" fill="white">
                    <use xlink:href="#path-39"></use>
                </mask>
                <g id="Clip-973"></g>
                <path d="M5,16 L0,16 C-1.104,16 -2,15.104 -2,14 L-2,0 C-2,-1.104 -1.104,-2 0,-2 L5,-2 C6.104,-2 7,-1.104 7,0 L7,14 C7,15.104 6.104,16 5,16 L5,16 Z M2,12 L3,12 L3,2 L2,2 L2,12 Z" id="Fill-972" fill="#314E55" sketch:type="MSShapeGroup" mask="url(#mask-40)"></path>
            </g>
            <g id="Group-977" transform="translate(638.000000, 615.000000)">
                <mask id="mask-42" sketch:name="Clip 976" fill="white">
                    <use xlink:href="#path-41"></use>
                </mask>
                <g id="Clip-976"></g>
                <path d="M0,0 L5,0 L5,14 L0,14 L0,0 Z" id="Fill-975" fill="#DBCF56" sketch:type="MSShapeGroup" mask="url(#mask-42)"></path>
            </g>
            <g id="Group-980" transform="translate(638.000000, 615.000000)">
                <mask id="mask-44" sketch:name="Clip 979" fill="white">
                    <use xlink:href="#path-43"></use>
                </mask>
                <g id="Clip-979"></g>
                <path d="M5,16 L0,16 C-1.104,16 -2,15.104 -2,14 L-2,0 C-2,-1.104 -1.104,-2 0,-2 L5,-2 C6.104,-2 7,-1.104 7,0 L7,14 C7,15.104 6.104,16 5,16 L5,16 Z M2,12 L3,12 L3,2 L2,2 L2,12 Z" id="Fill-978" fill="#314E55" sketch:type="MSShapeGroup" mask="url(#mask-44)"></path>
            </g>
            <g id="Group-983" transform="translate(637.000000, 604.000000)">
                <mask id="mask-46" sketch:name="Clip 982" fill="white">
                    <use xlink:href="#path-45"></use>
                </mask>
                <g id="Clip-982"></g>
                <path d="M0.581,0 L6,0 L6,8 L0.581,8 L0.581,0 Z" id="Fill-981" fill="#E65F58" sketch:type="MSShapeGroup" mask="url(#mask-46)"></path>
            </g>
            <path d="M640.291,613 C638.245,613 636.581,611.336 636.581,609.291 C636.581,607.674 637.856,603 640.291,603 C642.725,603 644,607.674 644,609.291 C644,611.336 642.336,613 640.291,613 L640.291,613 Z M640.271,604.998 C639.68,605.165 638.581,607.893 638.581,609.291 C638.581,610.233 639.348,611 640.291,611 C641.233,611 642,610.233 642,609.291 C642,607.894 640.901,605.166 640.271,604.998 L640.271,604.998 Z" id="Fill-984" fill="#314E55" sketch:type="MSShapeGroup"></path>
            <g id="Group-987" transform="translate(627.000000, 604.000000)">
                <mask id="mask-48" sketch:name="Clip 986" fill="white">
                    <use xlink:href="#path-47"></use>
                </mask>
                <g id="Clip-986"></g>
                <path d="M0.581,0 L6,0 L6,8 L0.581,8 L0.581,0 Z" id="Fill-985" fill="#E65F58" sketch:type="MSShapeGroup" mask="url(#mask-48)"></path>
            </g>
            <path d="M630.291,613 C628.245,613 626.581,611.336 626.581,609.291 C626.581,607.674 627.856,603 630.291,603 C632.725,603 634,607.674 634,609.291 C634,611.336 632.336,613 630.291,613 L630.291,613 Z M630.271,604.998 C629.68,605.165 628.581,607.893 628.581,609.291 C628.581,610.233 629.348,611 630.291,611 C631.233,611 632,610.233 632,609.291 C632,607.894 630.901,605.166 630.271,604.998 L630.271,604.998 Z" id="Fill-988" fill="#314E55" sketch:type="MSShapeGroup"></path>
            <g id="Group-991" transform="translate(617.000000, 604.000000)">
                <mask id="mask-50" sketch:name="Clip 990" fill="white">
                    <use xlink:href="#path-49"></use>
                </mask>
                <g id="Clip-990"></g>
                <path d="M0.581,0 L6,0 L6,8 L0.581,8 L0.581,0 Z" id="Fill-989" fill="#E65F58" sketch:type="MSShapeGroup" mask="url(#mask-50)"></path>
            </g>
            <path d="M620.291,613 C618.245,613 616.581,611.336 616.581,609.291 C616.581,607.674 617.856,603 620.291,603 C622.725,603 624,607.674 624,609.291 C624,611.336 622.336,613 620.291,613 L620.291,613 Z M620.271,604.998 C619.68,605.165 618.581,607.893 618.581,609.291 C618.581,610.233 619.348,611 620.291,611 C621.233,611 622,610.233 622,609.291 C622,607.894 620.901,605.166 620.271,604.998 L620.271,604.998 Z" id="Fill-992" fill="#314E55" sketch:type="MSShapeGroup"></path>
        </g>
    </g>
</svg>