<?xml version="1.0" encoding="UTF-8" standalone="no"?>
<svg width="60px" height="60px" viewBox="0 0 60 60" version="1.1" xmlns="http://www.w3.org/2000/svg" xmlns:xlink="http://www.w3.org/1999/xlink" xmlns:sketch="http://www.bohemiancoding.com/sketch/ns">
    <!-- Generator: Sketch 3.3.3 (12081) - http://www.bohemiancoding.com/sketch -->
    <title>Inboxfav</title>
    <desc>Created with Sketch.</desc>
    <defs>
        <path id="path-1" d="M49,6 L49,31 L0,31 L0,0 L41.5,0 L49,6 Z"></path>
        <path id="path-3" d="M6.5,13 C10.09,13 13,10.09 13,6.5 C13,2.91 10.09,0 6.5,0 C2.91,0 0,2.91 0,6.5 C0,10.09 2.91,13 6.5,13 L6.5,13 Z"></path>
        <path id="path-5" d="M3.5,5.25 L1.443,6.332 L1.836,4.041 L0.171,2.418 L2.471,2.084 L3.5,0 L4.529,2.084 L6.829,2.418 L5.164,4.041 L5.557,6.332 L3.5,5.25 L3.5,5.25 Z"></path>
    </defs>
    <g id="outlined" stroke="none" stroke-width="1" fill="none" fill-rule="evenodd" sketch:type="MSPage">
        <g id="Marketing_sliced" sketch:type="MSLayerGroup" transform="translate(-840.000000, -1560.000000)"></g>
        <g id="Imported-Layers" sketch:type="MSLayerGroup" transform="translate(-838.000000, -1551.000000)">
            <g id="Group-2366" transform="translate(841.000000, 1571.000000)">
                <mask id="mask-2" sketch:name="Clip 2365" fill="white">
                    <use xlink:href="#path-1"></use>
                </mask>
                <g id="Clip-2365"></g>
                <path d="M0,0 L49,0 L49,31 L0,31 L0,0 Z" id="Fill-2364" fill="#E9E7D1" sketch:type="MSShapeGroup" mask="url(#mask-2)"></path>
            </g>
            <path d="M890,1603 L841,1603 C840.447,1603 840,1602.553 840,1602 L840,1571 C840,1570.447 840.447,1570 841,1570 L882.5,1570 C883.053,1570 883.5,1570.447 883.5,1571 C883.5,1571.553 883.053,1572 882.5,1572 L842,1572 L842,1601 L889,1601 L889,1577 C889,1576.447 889.447,1576 890,1576 C890.553,1576 891,1576.447 891,1577 L891,1602 C891,1602.553 890.553,1603 890,1603" id="Fill-2367" fill="#314E55" sketch:type="MSShapeGroup"></path>
            <path d="M865.5,1589.5 C865.296,1589.5 865.093,1589.438 864.919,1589.313 L840.419,1571.813 C839.97,1571.493 839.865,1570.868 840.187,1570.419 C840.508,1569.97 841.133,1569.865 841.581,1570.186 L865.5,1587.271 L884.093,1573.991 C884.541,1573.67 885.166,1573.774 885.487,1574.224 C885.809,1574.673 885.704,1575.298 885.255,1575.618 L866.081,1589.313 C865.907,1589.438 865.704,1589.5 865.5,1589.5" id="Fill-2368" fill="#314E55" sketch:type="MSShapeGroup"></path>
            <g id="Group-2371" transform="translate(883.000000, 1564.000000)">
                <mask id="mask-4" sketch:name="Clip 2370" fill="white">
                    <use xlink:href="#path-3"></use>
                </mask>
                <g id="Clip-2370"></g>
                <path d="M0,0 L13,0 L13,13 L0,13 L0,0 Z" id="Fill-2369" fill="#E4AD40" sketch:type="MSShapeGroup" mask="url(#mask-4)"></path>
            </g>
            <path d="M889.5,1578 C885.364,1578 882,1574.636 882,1570.5 C882,1566.364 885.364,1563 889.5,1563 C893.636,1563 897,1566.364 897,1570.5 C897,1574.636 893.636,1578 889.5,1578 L889.5,1578 Z M889.5,1565 C886.468,1565 884,1567.468 884,1570.5 C884,1573.532 886.468,1576 889.5,1576 C892.532,1576 895,1573.532 895,1570.5 C895,1567.468 892.532,1565 889.5,1565 L889.5,1565 Z" id="Fill-2372" fill="#314E55" sketch:type="MSShapeGroup"></path>
            <path d="M841,1603 C840.744,1603 840.488,1602.902 840.293,1602.707 C839.902,1602.316 839.902,1601.684 840.293,1601.293 L856.093,1585.493 C856.483,1585.102 857.116,1585.102 857.507,1585.493 C857.898,1585.884 857.898,1586.517 857.507,1586.907 L841.707,1602.707 C841.512,1602.902 841.256,1603 841,1603" id="Fill-2373" fill="#314E55" sketch:type="MSShapeGroup"></path>
            <path d="M890,1603 C889.744,1603 889.488,1602.902 889.293,1602.707 L873.493,1586.907 C873.103,1586.517 873.103,1585.884 873.493,1585.493 C873.884,1585.102 874.517,1585.102 874.907,1585.493 L890.707,1601.293 C891.098,1601.684 891.098,1602.316 890.707,1602.707 C890.512,1602.902 890.256,1603 890,1603" id="Fill-2374" fill="#314E55" sketch:type="MSShapeGroup"></path>
            <g id="Group-2377" transform="translate(886.000000, 1567.000000)">
                <mask id="mask-6" sketch:name="Clip 2376" fill="white">
                    <use xlink:href="#path-5"></use>
                </mask>
                <g id="Clip-2376"></g>
                <path d="M0.171,0 L6.828,0 L6.828,6.332 L0.171,6.332 L0.171,0 Z" id="Fill-2375" fill="#E4AD40" sketch:type="MSShapeGroup" mask="url(#mask-6)"></path>
            </g>
            <path d="M891.558,1574.332 C891.398,1574.332 891.238,1574.294 891.092,1574.217 L889.5,1573.38 L887.908,1574.217 C887.571,1574.395 887.162,1574.366 886.854,1574.141 C886.547,1573.917 886.393,1573.538 886.457,1573.163 L886.762,1571.39 L885.473,1570.134 C885.2,1569.868 885.103,1569.471 885.22,1569.108 C885.338,1568.747 885.65,1568.483 886.027,1568.429 L887.808,1568.17 L888.604,1566.558 C888.94,1565.874 890.06,1565.874 890.396,1566.558 L891.192,1568.17 L892.973,1568.429 C893.35,1568.483 893.662,1568.747 893.78,1569.108 C893.898,1569.471 893.8,1569.868 893.527,1570.134 L892.238,1571.39 L892.51,1572.97 C892.554,1573.082 892.577,1573.204 892.577,1573.332 C892.577,1573.885 892.13,1574.332 891.577,1574.332 C891.572,1574.333 891.565,1574.333 891.558,1574.332 L891.558,1574.332 Z M889.5,1571.25 C889.66,1571.25 889.819,1571.288 889.966,1571.365 L890.229,1571.504 L890.179,1571.21 C890.123,1570.886 890.231,1570.555 890.466,1570.325 L890.68,1570.116 L890.385,1570.073 C890.059,1570.026 889.777,1569.821 889.632,1569.526 L889.5,1569.26 L889.368,1569.526 C889.223,1569.821 888.941,1570.026 888.615,1570.073 L888.32,1570.116 L888.534,1570.325 C888.769,1570.555 888.877,1570.886 888.821,1571.21 L888.771,1571.504 L889.034,1571.365 C889.181,1571.288 889.34,1571.25 889.5,1571.25 L889.5,1571.25 Z" id="Fill-2378" fill="#314E55" sketch:type="MSShapeGroup"></path>
        </g>
    </g>
</svg>