<?xml version="1.0" encoding="UTF-8" standalone="no"?>
<svg width="60px" height="60px" viewBox="0 0 60 60" version="1.1" xmlns="http://www.w3.org/2000/svg" xmlns:xlink="http://www.w3.org/1999/xlink" xmlns:sketch="http://www.bohemiancoding.com/sketch/ns">
    <!-- Generator: Sketch 3.3.3 (12081) - http://www.bohemiancoding.com/sketch -->
    <title>Shakinghands</title>
    <desc>Created with Sketch.</desc>
    <defs>
        <path id="path-1" d="M21.293,17.749 L17.757,21.284 L0.787,4.314 L4.322,0.778"></path>
        <path id="path-3" d="M25.146,16.813 L22.381,22.365 L0.167,7.469 L14.76,0.29 L26.82,15.303"></path>
        <path id="path-5" d="M31.192,11.464 C35.435,15.707 42.506,25.607 42.506,25.607 L25.536,42.577 C25.536,42.577 15.636,35.506 11.393,31.263 C7.151,27.021 0.08,17.121 0.08,17.121 L17.05,0.151 C17.05,0.151 19.069,1.604 22.039,3.872"></path>
        <path id="path-7" d="M10.263,10.849 L0.364,0.95"></path>
        <path id="path-9" d="M10.021,10.092 L0.121,0.192"></path>
        <path id="path-11" d="M10.778,10.334 L0.879,0.435"></path>
        <path id="path-13" d="M19.106,0.781 C19.884,0.003 21.142,0 21.928,0.786 L24.759,3.617 C25.539,4.397 25.537,5.664 24.763,6.438 L6.367,24.834 C5.589,25.612 4.331,25.616 3.546,24.83 L0.714,21.999 C-0.066,21.218 -0.064,19.951 0.71,19.177 L19.106,0.781"></path>
        <path id="path-15" d="M25.29,19.177 C26.068,19.955 26.072,21.213 25.286,21.999 L22.454,24.83 C21.674,25.61 20.407,25.608 19.633,24.834 L1.237,6.438 C0.459,5.66 0.455,4.402 1.241,3.617 L4.072,0.786 C4.853,0.005 6.12,0.008 6.894,0.781 L25.29,19.177"></path>
        <path id="path-17" d="M0.029,2.556 L2.151,0.435"></path>
        <path id="path-19" d="M0.272,2.799 L2.393,0.678"></path>
        <path id="path-21" d="M0.515,3.042 L2.636,0.92"></path>
    </defs>
    <g id="outlined" stroke="none" stroke-width="1" fill="none" fill-rule="evenodd" sketch:type="MSPage">
        <g id="Marketing_sliced" sketch:type="MSLayerGroup" transform="translate(-360.000000, -1080.000000)"></g>
        <g id="Imported-Layers" sketch:type="MSLayerGroup" transform="translate(-358.000000, -1071.000000)">
            <g id="Group-1544" transform="translate(366.000000, 1106.000000)">
                <mask id="mask-2" sketch:name="Clip 1543" fill="white">
                    <use xlink:href="#path-1"></use>
                </mask>
                <g id="Clip-1543"></g>
                <path d="M-6.284,4.314 L4.322,-6.293 L28.364,17.749 L17.757,28.355 L-6.284,4.314" id="Fill-1542" fill="#E9E7D1" sketch:type="MSShapeGroup" mask="url(#mask-2)"></path>
            </g>
            <path d="M383.757,1128.284 C383.501,1128.284 383.246,1128.187 383.05,1127.991 L366.08,1111.021 C365.892,1110.833 365.787,1110.579 365.787,1110.313 C365.787,1110.048 365.892,1109.794 366.08,1109.606 L369.615,1106.071 C370.006,1105.681 370.639,1105.681 371.029,1106.071 C371.42,1106.462 371.42,1107.095 371.029,1107.485 L368.201,1110.313 L383.757,1125.87 L386.586,1123.042 C386.977,1122.651 387.609,1122.651 388,1123.042 C388.391,1123.433 388.391,1124.065 388,1124.456 L384.464,1127.991 C384.269,1128.187 384.013,1128.284 383.757,1128.284" id="Fill-1545" fill="#314E55" sketch:type="MSShapeGroup"></path>
            <g id="Group-1548" transform="translate(383.000000, 1083.000000)">
                <mask id="mask-4" sketch:name="Clip 1547" fill="white">
                    <use xlink:href="#path-3"></use>
                </mask>
                <g id="Clip-1547"></g>
                <path d="M11.053,-10.488 L36.679,15.138 L18.722,33.095 L-6.904,7.469 L11.053,-10.488" id="Fill-1546" fill="#E9E7D1" sketch:type="MSShapeGroup" mask="url(#mask-4)"></path>
            </g>
            <path d="M405.381,1106.365 C405.185,1106.365 404.991,1106.308 404.824,1106.195 L382.61,1091.299 C382.314,1091.101 382.146,1090.759 382.169,1090.402 C382.193,1090.046 382.405,1089.729 382.726,1089.571 L397.319,1082.393 C397.74,1082.185 398.246,1082.298 398.54,1082.664 L410.6,1097.677 C410.946,1098.107 410.877,1098.736 410.447,1099.082 C410.016,1099.428 409.387,1099.36 409.041,1098.929 L397.482,1084.541 L385.161,1090.602 L404.993,1103.901 L407.251,1099.367 C407.496,1098.872 408.095,1098.67 408.592,1098.917 C409.086,1099.163 409.287,1099.764 409.041,1100.258 L406.276,1105.81 C406.148,1106.068 405.915,1106.258 405.638,1106.332 C405.553,1106.354 405.467,1106.365 405.381,1106.365" id="Fill-1549" fill="#314E55" sketch:type="MSShapeGroup"></path>
            <g id="Group-1552" transform="translate(366.000000, 1084.000000)">
                <mask id="mask-6" sketch:name="Clip 1551" fill="white">
                    <use xlink:href="#path-5"></use>
                </mask>
                <g id="Clip-1551"></g>
                <path d="M18.465,-8.335 L50.991,24.192 L24.121,51.062 L-8.406,18.536 L18.465,-8.335" id="Fill-1550" fill="#E9E7D1" sketch:type="MSShapeGroup" mask="url(#mask-6)"></path>
            </g>
            <path d="M391.535,1127.577 C391.333,1127.577 391.129,1127.516 390.955,1127.391 C390.547,1127.101 380.939,1120.223 376.687,1115.971 C372.434,1111.718 365.557,1102.109 365.266,1101.702 C364.982,1101.305 365.027,1100.76 365.373,1100.414 L382.343,1083.443 C382.689,1083.097 383.236,1083.051 383.635,1083.339 C383.655,1083.354 385.699,1084.826 388.646,1087.077 C389.085,1087.413 389.169,1088.04 388.833,1088.479 C388.498,1088.916 387.871,1089.003 387.432,1088.667 C385.513,1087.201 383.984,1086.07 383.153,1085.462 L367.389,1101.227 C369.065,1103.534 374.606,1111.062 378.101,1114.557 C381.596,1118.052 389.123,1123.592 391.431,1125.268 L407.197,1109.501 C405.521,1107.193 399.979,1099.666 396.485,1096.172 C396.095,1095.781 396.095,1095.148 396.485,1094.758 C396.876,1094.367 397.509,1094.367 397.899,1094.758 C402.152,1099.01 409.029,1108.618 409.32,1109.025 C409.604,1109.423 409.559,1109.968 409.213,1110.313 L392.243,1127.284 C392.049,1127.477 391.793,1127.577 391.535,1127.577" id="Fill-1553" fill="#314E55" sketch:type="MSShapeGroup"></path>
            <g id="Group-1556" transform="translate(394.000000, 1103.000000)">
                <mask id="mask-8" sketch:name="Clip 1555" fill="white">
                    <use xlink:href="#path-7"></use>
                </mask>
                <g id="Clip-1555"></g>
                <path d="M0.364,-6.121 L17.335,10.849 L10.263,17.92 L-6.707,0.95 L0.364,-6.121" id="Fill-1554" fill="#D8D8D8" sketch:type="MSShapeGroup" mask="url(#mask-8)"></path>
            </g>
            <path d="M404.264,1114.85 C404.008,1114.85 403.752,1114.752 403.557,1114.557 L393.657,1104.656 C393.267,1104.266 393.267,1103.633 393.657,1103.242 C394.048,1102.852 394.681,1102.852 395.071,1103.242 L404.971,1113.143 C405.361,1113.533 405.361,1114.166 404.971,1114.557 C404.775,1114.752 404.52,1114.85 404.264,1114.85" id="Fill-1557" fill="#314E55" sketch:type="MSShapeGroup"></path>
            <g id="Group-1560" transform="translate(390.000000, 1108.000000)">
                <mask id="mask-10" sketch:name="Clip 1559" fill="white">
                    <use xlink:href="#path-9"></use>
                </mask>
                <g id="Clip-1559"></g>
                <path d="M0.121,-6.879 L17.092,10.092 L10.021,17.163 L-6.95,0.192 L0.121,-6.879" id="Fill-1558" fill="#D8D8D8" sketch:type="MSShapeGroup" mask="url(#mask-10)"></path>
            </g>
            <path d="M400.021,1119.092 C399.765,1119.092 399.509,1118.994 399.314,1118.799 L389.414,1108.899 C389.023,1108.509 389.023,1107.876 389.414,1107.485 C389.805,1107.095 390.438,1107.095 390.828,1107.485 L400.728,1117.385 C401.119,1117.775 401.119,1118.408 400.728,1118.799 C400.533,1118.994 400.277,1119.092 400.021,1119.092" id="Fill-1561" fill="#314E55" sketch:type="MSShapeGroup"></path>
            <g id="Group-1564" transform="translate(385.000000, 1112.000000)">
                <mask id="mask-12" sketch:name="Clip 1563" fill="white">
                    <use xlink:href="#path-11"></use>
                </mask>
                <g id="Clip-1563"></g>
                <path d="M0.879,-6.636 L17.849,10.334 L10.778,17.406 L-6.192,0.435 L0.879,-6.636" id="Fill-1562" fill="#D8D8D8" sketch:type="MSShapeGroup" mask="url(#mask-12)"></path>
            </g>
            <path d="M395.778,1123.335 C395.522,1123.335 395.267,1123.237 395.071,1123.042 L385.172,1113.142 C384.781,1112.751 384.781,1112.118 385.172,1111.727 C385.563,1111.337 386.195,1111.337 386.586,1111.727 L396.485,1121.628 C396.876,1122.019 396.876,1122.651 396.485,1123.042 C396.29,1123.237 396.034,1123.335 395.778,1123.335" id="Fill-1565" fill="#314E55" sketch:type="MSShapeGroup"></path>
            <g id="Group-1568" transform="translate(359.000000, 1077.000000)">
                <mask id="mask-14" sketch:name="Clip 1567" fill="white">
                    <use xlink:href="#path-13"></use>
                </mask>
                <g id="Clip-1567"></g>
                <path d="M20.515,-7.698 L33.243,5.029 L4.958,33.314 L-7.77,20.586 L20.515,-7.698" id="Fill-1566" fill="#D26CBA" sketch:type="MSShapeGroup" mask="url(#mask-14)"></path>
            </g>
            <path d="M363.96,1103.418 C363.161,1103.418 362.407,1103.106 361.839,1102.538 L359.007,1099.706 C357.838,1098.537 357.836,1096.637 359.003,1095.471 L377.399,1077.074 C378.53,1075.942 380.497,1075.942 381.634,1077.077 L384.466,1079.909 C385.635,1081.078 385.637,1082.979 384.47,1084.144 L366.074,1102.541 C365.508,1103.106 364.758,1103.418 363.96,1103.418 L363.96,1103.418 Z M379.514,1078.197 C379.25,1078.197 379.001,1078.301 378.814,1078.488 L360.417,1096.885 C360.03,1097.271 360.032,1097.902 360.421,1098.292 L363.252,1101.123 C363.633,1101.504 364.284,1101.504 364.659,1101.127 L383.056,1082.731 C383.443,1082.344 383.441,1081.713 383.052,1081.323 L380.221,1078.492 C380.03,1078.302 379.779,1078.197 379.514,1078.197 L379.514,1078.197 Z" id="Fill-1569" fill="#314E55" sketch:type="MSShapeGroup"></path>
            <g id="Group-1572" transform="translate(391.000000, 1077.000000)">
                <mask id="mask-16" sketch:name="Clip 1571" fill="white">
                    <use xlink:href="#path-15"></use>
                </mask>
                <g id="Clip-1571"></g>
                <path d="M33.77,20.586 L21.042,33.314 L-7.243,5.029 L5.485,-7.698 L33.77,20.586" id="Fill-1570" fill="#81A4E3" sketch:type="MSShapeGroup" mask="url(#mask-16)"></path>
            </g>
            <path d="M412.041,1103.415 C411.241,1103.415 410.49,1103.104 409.926,1102.541 L391.53,1084.144 C390.964,1083.579 390.652,1082.828 390.653,1082.03 C390.653,1081.231 390.966,1080.477 391.534,1079.909 L394.365,1077.078 C395.496,1075.946 397.473,1075.946 398.601,1077.074 L416.997,1095.471 C417.563,1096.036 417.875,1096.787 417.874,1097.585 C417.874,1098.385 417.561,1099.138 416.993,1099.706 L414.162,1102.537 C413.596,1103.103 412.843,1103.415 412.041,1103.415 L412.041,1103.415 Z M396.486,1078.2 C396.218,1078.2 395.967,1078.304 395.779,1078.492 L392.948,1081.323 C392.758,1081.514 392.653,1081.765 392.653,1082.03 C392.653,1082.294 392.756,1082.543 392.944,1082.731 L411.34,1101.127 C411.712,1101.498 412.372,1101.498 412.748,1101.123 L415.579,1098.292 C415.769,1098.102 415.874,1097.851 415.874,1097.585 C415.874,1097.321 415.771,1097.072 415.583,1096.885 L397.186,1078.488 C397.001,1078.303 396.752,1078.2 396.486,1078.2 L396.486,1078.2 Z" id="Fill-1573" fill="#314E55" sketch:type="MSShapeGroup"></path>
            <g id="Group-1576" transform="translate(371.000000, 1112.000000)">
                <mask id="mask-18" sketch:name="Clip 1575" fill="white">
                    <use xlink:href="#path-17"></use>
                </mask>
                <g id="Clip-1575"></g>
                <path d="M2.151,-6.636 L9.222,0.435 L0.029,9.627 L-7.042,2.556 L2.151,-6.636" id="Fill-1574" fill="#D8D8D8" sketch:type="MSShapeGroup" mask="url(#mask-18)"></path>
            </g>
            <path d="M371.029,1115.971 L369.615,1114.557 L373.151,1111.021 L374.565,1112.435 L371.029,1115.971" id="Fill-1577" fill="#314E55" sketch:type="MSShapeGroup"></path>
            <g id="Group-1580" transform="translate(375.000000, 1116.000000)">
                <mask id="mask-20" sketch:name="Clip 1579" fill="white">
                    <use xlink:href="#path-19"></use>
                </mask>
                <g id="Clip-1579"></g>
                <path d="M2.393,-6.393 L9.465,0.678 L0.272,9.87 L-6.799,2.799 L2.393,-6.393" id="Fill-1578" fill="#D8D8D8" sketch:type="MSShapeGroup" mask="url(#mask-20)"></path>
            </g>
            <path d="M375.272,1120.213 L373.858,1118.799 L377.394,1115.264 L378.808,1116.678 L375.272,1120.213" id="Fill-1581" fill="#314E55" sketch:type="MSShapeGroup"></path>
            <g id="Group-1584" transform="translate(379.000000, 1120.000000)">
                <mask id="mask-22" sketch:name="Clip 1583" fill="white">
                    <use xlink:href="#path-21"></use>
                </mask>
                <g id="Clip-1583"></g>
                <path d="M2.636,-6.151 L9.707,0.92 L0.515,10.113 L-6.556,3.042 L2.636,-6.151" id="Fill-1582" fill="#D8D8D8" sketch:type="MSShapeGroup" mask="url(#mask-22)"></path>
            </g>
            <path d="M379.515,1124.456 L378.101,1123.042 L381.635,1119.506 L383.05,1120.92 L379.515,1124.456" id="Fill-1585" fill="#314E55" sketch:type="MSShapeGroup"></path>
            <path d="M381.049,1101.085 C381.018,1101.085 380.986,1101.084 380.955,1101.081 C377.053,1100.714 376.644,1100.305 376.424,1100.085 C375.483,1099.145 376.468,1097.757 376.889,1097.164 C377.745,1095.958 379.324,1094.208 381.718,1091.815 C386.99,1086.543 393.622,1084.503 393.902,1084.419 C394.432,1084.259 394.988,1084.559 395.147,1085.087 C395.307,1085.615 395.008,1086.173 394.479,1086.333 C394.416,1086.352 388.037,1088.324 383.132,1093.229 C379.857,1096.504 378.678,1098.019 378.257,1098.7 C378.905,1098.828 379.94,1098.968 380.875,1099.063 C382.116,1098.496 386.795,1096.443 389.077,1096.706 C390.743,1096.892 394.022,1095.046 395.421,1094.254 C395.67,1094.113 395.882,1093.994 396.047,1093.905 C396.533,1093.644 397.14,1093.826 397.401,1094.313 C397.663,1094.799 397.48,1095.405 396.994,1095.667 C396.839,1095.75 396.639,1095.863 396.405,1095.996 C394.572,1097.03 391.153,1098.951 388.849,1098.692 C387.404,1098.533 383.554,1100.014 381.474,1100.99 C381.341,1101.053 381.195,1101.085 381.049,1101.085" id="Fill-1586" fill="#314E55" sketch:type="MSShapeGroup"></path>
        </g>
    </g>
</svg>