<?xml version="1.0" encoding="UTF-8" standalone="no"?>
<svg width="60px" height="60px" viewBox="0 0 60 60" version="1.1" xmlns="http://www.w3.org/2000/svg" xmlns:xlink="http://www.w3.org/1999/xlink" xmlns:sketch="http://www.bohemiancoding.com/sketch/ns">
    <!-- Generator: Sketch 3.3.3 (12081) - http://www.bohemiancoding.com/sketch -->
    <title>Drinkmenu</title>
    <desc>Created with Sketch.</desc>
    <defs>
        <path id="path-1" d="M0.237,2.007 C0.237,0.901 1.136,0 2.233,0 L24.992,0 C26.095,0 26.987,0.894 26.987,2.007 L26.987,39.993 C26.987,41.099 26.089,42 24.992,42 L2.233,42 C1.129,42 0.237,41.106 0.237,39.993 L0.237,2.007"></path>
        <path id="path-3" d="M0.237,3.007 C0.237,1.346 1.585,0 3.233,0 L25.992,0 C27.646,0 28.987,1.341 28.987,3.007 L28.987,40.993 C28.987,42.654 27.639,44 25.992,44 L3.233,44 C1.578,44 0.237,42.659 0.237,40.993 L0.237,3.007 L0.237,3.007 Z"></path>
        <path id="path-5" d="M0.237,2.007 C0.237,0.901 1.136,0 2.233,0 L24.992,0 C26.095,0 26.987,0.894 26.987,2.007 L26.987,39.993 C26.987,41.099 26.089,42 24.992,42 L2.233,42 C1.129,42 0.237,41.106 0.237,39.993 L0.237,2.007"></path>
        <path id="path-7" d="M0.237,3.007 C0.237,1.346 1.585,0 3.233,0 L25.992,0 C27.646,0 28.987,1.341 28.987,3.007 L28.987,40.993 C28.987,42.654 27.639,44 25.992,44 L3.233,44 C1.578,44 0.237,42.659 0.237,40.993 L0.237,3.007 L0.237,3.007 Z"></path>
        <path id="path-9" d="M0,0 L14,0 L7,14 L0,0 L0,0 Z"></path>
    </defs>
    <g id="colored" stroke="none" stroke-width="1" fill="none" fill-rule="evenodd" sketch:type="MSPage">
        <g id="Kitchen_sliced" sketch:type="MSLayerGroup" transform="translate(-240.000000, -1200.000000)"></g>
        <g id="Imported-Layers" sketch:type="MSLayerGroup" transform="translate(-240.000000, -1199.000000)">
            <g id="Group-1805" transform="translate(243.000000, 1209.000000)">
                <mask id="mask-2" sketch:name="Clip 1804" fill="white">
                    <use xlink:href="#path-1"></use>
                </mask>
                <g id="Clip-1804"></g>
                <path d="M-0.763,2.007 C-0.763,0.346 0.585,-1 2.233,-1 L24.992,-1 C26.646,-1 27.987,0.341 27.987,2.007 L27.987,39.993 C27.987,41.654 26.639,43 24.992,43 L2.233,43 C0.578,43 -0.763,41.659 -0.763,39.993 L-0.763,2.007" id="Fill-1803" fill="#EBEBEB" sketch:type="MSShapeGroup" mask="url(#mask-2)"></path>
            </g>
            <g id="Group-1808" transform="translate(242.000000, 1208.000000)">
                <mask id="mask-4" sketch:name="Clip 1807" fill="white">
                    <use xlink:href="#path-3"></use>
                </mask>
                <g id="Clip-1807"></g>
                <path d="M25.992,46 L3.232,46 C0.478,46 -1.763,43.754 -1.763,40.993 L-1.763,3.007 C-1.763,0.246 0.478,-2 3.232,-2 L25.992,-2 C28.746,-2 30.987,0.246 30.987,3.007 L30.987,40.993 C30.987,43.754 28.746,46 25.992,46 L25.992,46 Z M3.232,2 C2.684,2 2.237,2.452 2.237,3.007 L2.237,40.993 C2.237,41.548 2.684,42 3.232,42 L25.992,42 C26.54,42 26.987,41.548 26.987,40.993 L26.987,3.007 C26.987,2.452 26.54,2 25.992,2 L3.232,2 L3.232,2 Z" id="Fill-1806" fill="#314E55" sketch:type="MSShapeGroup" mask="url(#mask-4)"></path>
            </g>
            <g id="Group-1811" transform="translate(270.000000, 1209.000000)">
                <mask id="mask-6" sketch:name="Clip 1810" fill="white">
                    <use xlink:href="#path-5"></use>
                </mask>
                <g id="Clip-1810"></g>
                <path d="M-0.763,2.007 C-0.763,0.346 0.585,-1 2.233,-1 L24.992,-1 C26.646,-1 27.987,0.341 27.987,2.007 L27.987,39.993 C27.987,41.654 26.639,43 24.992,43 L2.233,43 C0.578,43 -0.763,41.659 -0.763,39.993 L-0.763,2.007" id="Fill-1809" fill="#73C9C9" sketch:type="MSShapeGroup" mask="url(#mask-6)"></path>
            </g>
            <g id="Group-1814" transform="translate(269.000000, 1208.000000)">
                <mask id="mask-8" sketch:name="Clip 1813" fill="white">
                    <use xlink:href="#path-7"></use>
                </mask>
                <g id="Clip-1813"></g>
                <path d="M25.992,46 L3.232,46 C0.478,46 -1.763,43.754 -1.763,40.993 L-1.763,3.007 C-1.763,0.246 0.478,-2 3.232,-2 L25.992,-2 C28.746,-2 30.987,0.246 30.987,3.007 L30.987,40.993 C30.987,43.754 28.746,46 25.992,46 L25.992,46 Z M3.232,2 C2.684,2 2.237,2.452 2.237,3.007 L2.237,40.993 C2.237,41.548 2.684,42 3.232,42 L25.992,42 C26.54,42 26.987,41.548 26.987,40.993 L26.987,3.007 C26.987,2.452 26.54,2 25.992,2 L3.232,2 L3.232,2 Z" id="Fill-1812" fill="#314E55" sketch:type="MSShapeGroup" mask="url(#mask-8)"></path>
            </g>
            <path d="M276,1217 L291,1217 L291,1219 L276,1219 L276,1217 Z" id="Fill-1815" fill="#314E55" sketch:type="MSShapeGroup"></path>
            <path d="M276,1221 L291,1221 L291,1223 L276,1223 L276,1221 Z" id="Fill-1816" fill="#314E55" sketch:type="MSShapeGroup"></path>
            <path d="M276,1229 L291,1229 L291,1231 L276,1231 L276,1229 Z" id="Fill-1817" fill="#314E55" sketch:type="MSShapeGroup"></path>
            <path d="M276,1233 L291,1233 L291,1235 L276,1235 L276,1233 Z" id="Fill-1818" fill="#314E55" sketch:type="MSShapeGroup"></path>
            <path d="M276,1237 L291,1237 L291,1239 L276,1239 L276,1237 Z" id="Fill-1819" fill="#314E55" sketch:type="MSShapeGroup"></path>
            <path d="M255,1229 L257,1229 L257,1241 L255,1241 L255,1229 Z" id="Fill-1820" fill="#314E55" sketch:type="MSShapeGroup"></path>
            <path d="M251,1240 L261,1240 L261,1242 L251,1242 L251,1240 Z" id="Fill-1821" fill="#314E55" sketch:type="MSShapeGroup"></path>
            <g id="Group-1824" transform="translate(249.000000, 1216.000000)">
                <mask id="mask-10" sketch:name="Clip 1823" fill="white">
                    <use xlink:href="#path-9"></use>
                </mask>
                <g id="Clip-1823"></g>
                <path d="M0,0 L14,0 L14,14 L0,14 L0,0 Z" id="Fill-1822" fill="#E45E57" sketch:type="MSShapeGroup" mask="url(#mask-10)"></path>
            </g>
            <path d="M256,1231 C255.621,1231 255.275,1230.786 255.105,1230.447 L248.105,1216.447 C247.951,1216.138 247.967,1215.769 248.149,1215.475 C248.332,1215.18 248.653,1215 249,1215 L263,1215 C263.347,1215 263.668,1215.18 263.851,1215.475 C264.033,1215.769 264.049,1216.138 263.895,1216.447 L256.894,1230.447 C256.725,1230.786 256.379,1231 256,1231 L256,1231 Z M250.618,1217 L256,1227.764 L261.382,1217 L250.618,1217 L250.618,1217 Z" id="Fill-1825" fill="#314E55" sketch:type="MSShapeGroup"></path>
        </g>
    </g>
</svg>