<?xml version="1.0" encoding="UTF-8" standalone="no"?>
<svg width="60px" height="60px" viewBox="0 0 60 60" version="1.1" xmlns="http://www.w3.org/2000/svg" xmlns:xlink="http://www.w3.org/1999/xlink" xmlns:sketch="http://www.bohemiancoding.com/sketch/ns">
    <!-- Generator: Sketch 3.3.3 (12081) - http://www.bohemiancoding.com/sketch -->
    <title>Ringphone</title>
    <desc>Created with Sketch.</desc>
    <defs>
        <path id="path-1" d="M34.442,16 L47.502,16 L44.735,5.187 C44.324,3.581 42.665,2.101 41.031,1.884 C41.031,1.884 34.688,0.833 24.007,0.833 C13.326,0.833 7,1.883 7,1.883 C5.353,2.09 3.69,3.58 3.279,5.187 L0.512,16 L13.572,16 L13.943,13.409 C14.366,10.452 17.14,8.055 20.125,8.055 L27.889,8.055 C30.88,8.055 33.649,10.46 34.071,13.409 L34.442,16 L34.442,16 Z"></path>
        <path id="path-3" d="M2.76,6.909 C3.359,3.093 6.982,0 10.853,0 L31.161,0 C35.032,0 38.657,3.104 39.254,6.909 L41.636,22.091 C42.235,25.907 39.58,29 35.719,29 L6.295,29 C2.428,29 -0.219,25.896 0.378,22.091 L2.76,6.909 L2.76,6.909 Z"></path>
        <path id="path-5" d="M11,22 C17.075,22 22,17.075 22,11 C22,4.925 17.075,0 11,0 C4.925,0 0,4.925 0,11 C0,17.075 4.925,22 11,22 L11,22 Z"></path>
    </defs>
    <g id="outlined" stroke="none" stroke-width="1" fill="none" fill-rule="evenodd" sketch:type="MSPage">
        <g id="Marketing_sliced" sketch:type="MSLayerGroup" transform="translate(-480.000000, -1680.000000)"></g>
        <g id="Imported-Layers" sketch:type="MSLayerGroup" transform="translate(-478.000000, -1671.000000)">
            <g id="Group-2431" transform="translate(486.000000, 1679.000000)">
                <mask id="mask-2" sketch:name="Clip 2430" fill="white">
                    <use xlink:href="#path-1"></use>
                </mask>
                <g id="Clip-2430"></g>
                <path d="M0.512,0.833 L47.502,0.833 L47.502,16 L0.512,16 L0.512,0.833 Z" id="Fill-2429" fill="#E4AD40" sketch:type="MSShapeGroup" mask="url(#mask-2)"></path>
            </g>
            <path d="M533.502,1696 L520.442,1696 C519.945,1696 519.523,1695.634 519.452,1695.142 L519.081,1692.55 C518.727,1690.071 516.398,1688.056 513.889,1688.056 L506.125,1688.056 C503.617,1688.056 501.288,1690.071 500.934,1692.55 L500.562,1695.142 C500.491,1695.634 500.069,1696 499.572,1696 L486.512,1696 C486.203,1696 485.911,1695.857 485.722,1695.613 C485.532,1695.369 485.467,1695.052 485.543,1694.752 L488.31,1683.939 C488.825,1681.926 490.831,1680.147 492.875,1679.891 C493.098,1679.852 499.366,1678.833 510.007,1678.833 C520.648,1678.833 526.932,1679.854 527.194,1679.898 C529.197,1680.163 531.192,1681.94 531.704,1683.939 L534.471,1694.752 C534.547,1695.052 534.481,1695.369 534.292,1695.613 C534.102,1695.857 533.811,1696 533.502,1696 L533.502,1696 Z M521.31,1694 L532.214,1694 L529.767,1684.435 C529.459,1683.233 528.119,1682.038 526.898,1681.876 C526.804,1681.861 520.466,1680.833 510.007,1680.833 C499.549,1680.833 493.227,1681.859 493.163,1681.869 C491.901,1682.028 490.558,1683.225 490.248,1684.435 L487.8,1694 L498.705,1694 L498.953,1692.267 C499.443,1688.842 502.66,1686.056 506.125,1686.056 L513.889,1686.056 C517.354,1686.056 520.571,1688.842 521.062,1692.267 L521.31,1694 L521.31,1694 Z" id="Fill-2432" fill="#314E55" sketch:type="MSShapeGroup"></path>
            <path d="M487,1690 L501,1690 L501,1692 L487,1692 L487,1690 Z" id="Fill-2433" fill="#314E55" sketch:type="MSShapeGroup"></path>
            <path d="M519,1690 L533,1690 L533,1692 L519,1692 L519,1690 Z" id="Fill-2434" fill="#314E55" sketch:type="MSShapeGroup"></path>
            <path d="M504,1687 L506,1687 L506,1699 L504,1699 L504,1687 Z" id="Fill-2435" fill="#314E55" sketch:type="MSShapeGroup"></path>
            <path d="M514,1687 L516,1687 L516,1699 L514,1699 L514,1687 Z" id="Fill-2436" fill="#314E55" sketch:type="MSShapeGroup"></path>
            <g id="Group-2439" transform="translate(489.000000, 1698.000000)">
                <mask id="mask-4" sketch:name="Clip 2438" fill="white">
                    <use xlink:href="#path-3"></use>
                </mask>
                <g id="Clip-2438"></g>
                <path d="M-0.219,0 L42.235,0 L42.235,29 L-0.219,29 L-0.219,0 Z" id="Fill-2437" fill="#DBCF56" sketch:type="MSShapeGroup" mask="url(#mask-4)"></path>
            </g>
            <path d="M524.719,1728 L495.295,1728 C493.129,1728 491.214,1727.155 489.902,1725.622 C488.592,1724.09 488.055,1722.07 488.39,1719.935 L490.773,1704.754 C491.443,1700.479 495.517,1697 499.853,1697 L520.161,1697 C524.497,1697 528.57,1700.479 529.242,1704.754 L531.624,1719.935 C531.959,1722.071 531.423,1724.091 530.114,1725.622 C528.803,1727.155 526.887,1728 524.719,1728 L524.719,1728 Z M499.853,1699 C496.46,1699 493.273,1701.721 492.749,1705.064 L490.366,1720.246 C490.123,1721.794 490.498,1723.241 491.422,1724.322 C492.348,1725.404 493.723,1726 495.295,1726 L524.719,1726 C526.292,1726 527.669,1725.404 528.594,1724.322 C529.517,1723.242 529.892,1721.795 529.648,1720.246 L527.266,1705.064 C526.741,1701.721 523.554,1699 520.161,1699 L499.853,1699 L499.853,1699 Z" id="Fill-2440" fill="#314E55" sketch:type="MSShapeGroup"></path>
            <g id="Group-2443" transform="translate(499.000000, 1701.000000)">
                <mask id="mask-6" sketch:name="Clip 2442" fill="white">
                    <use xlink:href="#path-5"></use>
                </mask>
                <g id="Clip-2442"></g>
                <path d="M0,0 L22,0 L22,22 L0,22 L0,0 Z" id="Fill-2441" fill="#D8D8D8" sketch:type="MSShapeGroup" mask="url(#mask-6)"></path>
            </g>
            <path d="M510,1724 C503.383,1724 498,1718.617 498,1712 C498,1705.383 503.383,1700 510,1700 C516.617,1700 522,1705.383 522,1712 C522,1718.617 516.617,1724 510,1724 L510,1724 Z M510,1702 C504.486,1702 500,1706.486 500,1712 C500,1717.514 504.486,1722 510,1722 C515.514,1722 520,1717.514 520,1712 C520,1706.486 515.514,1702 510,1702 L510,1702 Z" id="Fill-2444" fill="#314E55" sketch:type="MSShapeGroup"></path>
            <path d="M510,1715 C508.346,1715 507,1713.654 507,1712 C507,1710.346 508.346,1709 510,1709 C511.654,1709 513,1710.346 513,1712 C513,1713.654 511.654,1715 510,1715 L510,1715 Z M510,1711 C509.448,1711 509,1711.448 509,1712 C509,1712.552 509.448,1713 510,1713 C510.552,1713 511,1712.552 511,1712 C511,1711.448 510.552,1711 510,1711 L510,1711 Z" id="Fill-2445" fill="#314E55" sketch:type="MSShapeGroup"></path>
            <path d="M516.501,1721.25 C516.201,1721.25 515.904,1721.116 515.707,1720.859 L513.207,1717.609 C512.871,1717.172 512.952,1716.544 513.391,1716.207 C513.828,1715.871 514.456,1715.951 514.793,1716.391 L517.293,1719.641 C517.629,1720.078 517.548,1720.706 517.109,1721.043 C516.928,1721.183 516.714,1721.25 516.501,1721.25" id="Fill-2446" fill="#314E55" sketch:type="MSShapeGroup"></path>
        </g>
    </g>
</svg>