<svg xmlns="http://www.w3.org/2000/svg" width="716.4612" height="606.00222" viewBox="0 0 716.4612 606.00222" xmlns:xlink="http://www.w3.org/1999/xlink"><path d="M716.4612,562.47802v12.34659c0,4.25381-10.17999,7.71535-22.69,7.71535H46.1512c-5.87,0-11.22998-.76167-15.26001-2.01639-.42999-.12921-.84998-.26864-1.25-.41485-3.83002-1.38053-6.17999-3.2405-6.17999-5.2841v-12.34659c197.15131-11.0712,439.61066-7.32309,693,0Z" fill="#f2f2f2"/><path d="M716.4612,576.07933v12.34659c0,4.25381-10.17999,7.71535-22.69,7.71535H46.1512c-5.87,0-11.22998-.76167-15.26001-2.01639-.42999-.12921-.84998-.26864-1.25-.41485-3.83002-1.38053-6.17999-3.2405-6.17999-5.2841v-12.34659c181.46979-8.25713,428.41724-5.59855,693,0Z" fill="#fff"/><path d="M716.4612,585.94029v12.34659c0,4.25381-10.17999,7.71535-22.69,7.71535H46.1512c-5.87,0-11.22998-.76167-15.26001-2.01639-.42999-.12921-.84998-.26864-1.25-.41485-3.83002-1.38053-6.17999-3.2405-6.17999-5.2841v-12.34659c196.35065-6.93365,435.57361-5.28815,693,0Z" fill="#f2f2f2"/><path d="M664.78052,555.03487c.9778,.06123,1.51819-1.1536,.77843-1.86164l-.0736-.29259,.02924-.07024c.98884-2.35788,4.34012-2.34161,5.32054,.01977,.8702,2.09585,1.97812,4.19527,2.25092,6.41129,.12229,.97822,.06727,1.97478-.14979,2.93468,2.03901-4.45403,3.11202-9.31766,3.11202-14.20881,0-1.22893-.06727-2.45785-.20482-3.68366-.11312-1.0027-.26902-1.99926-.47079-2.98668-1.09131-5.33749-3.45439-10.42123-6.8629-14.66737-1.63855-.89571-3.00501-2.29581-3.83039-3.97407-.29652-.60531-.52886-1.25643-.63891-1.91979,.18647,.02446,.70311-2.8155,.56247-2.98974,.25987-.39434,.72499-.59036,1.00881-.97516,1.41153-1.91374,3.35626-1.57959,4.37149,1.02103,2.16877,1.09458,2.18976,2.90987,.85902,4.65577-.84663,1.11075-.96296,2.61371-1.70581,3.80286,.07644,.09783,.15593,.19261,.23234,.29045,1.40147,1.79754,2.6136,3.72961,3.63543,5.75939-.28879-2.25584,.13758-4.97353,.86444-6.72539,.82742-1.99605,2.37829-3.67714,3.74401-5.40272,1.64046-2.07269,5.00437-1.16813,5.29338,1.45934l.00819,.07629c-.20286,.11443-.40159,.23602-.59571,.3644-1.10728,.7323-.7246,2.44879,.5874,2.6513l.02971,.00458c-.07338,.73062-.19871,1.45513-.38211,2.16742,1.75206,6.77566-2.03051,9.24349-7.4315,9.35435-.11923,.06113-.23541,.12226-.35464,.18037,.54721,1.54071,.98438,3.12116,1.30839,4.72301,.29041,1.41537,.49219,2.84603,.60528,4.28283,.14064,1.81277,.1284,3.63475-.02446,5.44447l.00918-.06419c.38822-1.99313,1.4704-3.85485,3.04171-5.1449,2.34075-1.92284,5.6478-2.63092,8.17306-4.17652,1.21559-.74401,2.77328,.21746,2.56112,1.62677l-.01033,.0675c-.376,.15282-.74283,.33015-1.09745,.52883-.20286,.11446-.40159,.23602-.59571,.3644-1.10728,.73233-.7246,2.44881,.5874,2.65133l.02973,.00457,.06111,.0092c-.64502,1.53151-1.54375,2.95302-2.66872,4.17887-1.09552,5.91488-5.80077,6.47607-10.83393,4.7536h-.00307c-.55025,2.39669-1.35424,4.73833-2.38751,6.96991h-8.52894c-.03059-.09476-.05809-.1926-.08562-.28737,.78871,.04894,1.58352,.00307,2.36001-.14058-.6328-.77649-1.26559-1.55909-1.89839-2.33555-.01528-.01529-.02753-.03057-.03974-.04586-.32098-.39738-.64502-.79175-.966-1.18914l-.00017-.00048c-.02009-1.21995,.12614-2.43589,.41592-3.61593l.00027-.00017Z" fill="#f2f2f2"/><path d="M285.78052,546.03487c.9778,.06123,1.51819-1.1536,.77843-1.86164l-.0736-.29259,.02924-.07024c.98884-2.35788,4.34012-2.34161,5.32054,.01977,.8702,2.09585,1.97812,4.19527,2.25092,6.41129,.12229,.97822,.06727,1.97478-.14979,2.93468,2.03901-4.45403,3.11202-9.31766,3.11202-14.20881,0-1.22893-.06727-2.45785-.20482-3.68366-.11312-1.0027-.26902-1.99926-.47079-2.98668-1.09131-5.33749-3.45439-10.42123-6.8629-14.66737-1.63855-.89571-3.00501-2.29581-3.83039-3.97407-.29652-.60531-.52886-1.25643-.63891-1.91979,.18647,.02446,.70311-2.8155,.56247-2.98974,.25987-.39434,.72499-.59036,1.00881-.97516,1.41153-1.91374,3.35626-1.57959,4.37149,1.02103,2.16877,1.09458,2.18976,2.90987,.85902,4.65577-.84663,1.11075-.96296,2.61371-1.70581,3.80286,.07644,.09783,.15593,.19261,.23234,.29045,1.40147,1.79754,2.6136,3.72961,3.63543,5.75939-.28879-2.25584,.13758-4.97353,.86444-6.72539,.82742-1.99605,2.37829-3.67714,3.74401-5.40272,1.64046-2.07269,5.00437-1.16813,5.29338,1.45934l.00819,.07629c-.20286,.11443-.40159,.23602-.59571,.3644-1.10728,.7323-.7246,2.44879,.5874,2.6513l.02971,.00458c-.07338,.73062-.19871,1.45513-.38211,2.16742,1.75206,6.77566-2.03051,9.24349-7.4315,9.35435-.11923,.06113-.23541,.12226-.35464,.18037,.54721,1.54071,.98438,3.12116,1.30839,4.72301,.29041,1.41537,.49219,2.84603,.60528,4.28283,.14064,1.81277,.1284,3.63475-.02446,5.44447l.00918-.06419c.38822-1.99313,1.4704-3.85485,3.04171-5.1449,2.34075-1.92284,5.6478-2.63092,8.17306-4.17652,1.21559-.74401,2.77328,.21746,2.56112,1.62677l-.01033,.0675c-.376,.15282-.74283,.33015-1.09745,.52883-.20286,.11446-.40159,.23602-.59571,.3644-1.10728,.73233-.7246,2.44881,.5874,2.65133l.02973,.00457,.06111,.0092c-.64502,1.53151-1.54375,2.95302-2.66872,4.17887-1.09552,5.91488-5.80077,6.47607-10.83393,4.7536h-.00307c-.55025,2.39669-1.35424,4.73833-2.38751,6.96991h-8.52894c-.03059-.09476-.05809-.1926-.08562-.28737,.78871,.04894,1.58352,.00307,2.36001-.14058-.6328-.77649-1.26559-1.55909-1.89839-2.33555-.01528-.01529-.02753-.03057-.03974-.04586-.32098-.39738-.64502-.79175-.966-1.18914l-.00017-.00048c-.02009-1.21995,.12614-2.43589,.41592-3.61593l.00027-.00017Z" fill="#f2f2f2"/><g><g><polygon points="575.01919 555.95565 569.75042 555.95513 567.24404 535.63251 575.02026 535.63304 575.01919 555.95565" fill="#ffb6b6"/><path d="M575.20465,561.45202l-16.20223-.00062v-.20488c.00023-3.48278,2.82358-6.30607,6.30636-6.30626h.00039l2.95954-2.24525,5.52185,2.2456,1.41435,.00003-.00026,6.51137Z" fill="#2f2e41"/></g><g><polygon points="643.32957 527.06518 639.92644 531.08745 622.79181 519.87607 627.81434 513.93941 643.32957 527.06518" fill="#ffb6b6"/><path d="M647.64572,530.47331l-10.46436,12.3697-.15642-.13232c-2.65889-2.24946-2.99101-6.2284-.74188-8.88756l.00025-.0003,.19715-3.7096,5.28065-2.76555,.91346-1.07981,4.97114,4.20544Z" fill="#2f2e41"/></g><polygon points="600.74193 406.47629 572.49634 409.75365 561.3632 428.82639 559.76676 435.21213 560.48947 439.60232 558.70247 442.66216 559.76676 448.51575 555.5096 494.81237 567.21679 546.96259 578.12577 546.96259 574.66682 498.53739 583.71329 457.03007 591.69547 497.4731 628.61041 529.62098 637.20853 517.29436 608.72411 493.21594 606.06338 484.70162 609.6484 477.50289 612.44912 429.89068 600.74193 406.47629" fill="#2f2e41"/><path d="M587.29503,423.92795s17.81048,5.54537,19.68665-.7293c1.87617-6.27467-.46534-14.03088-2.24047-14.85508s.32993-6.23246,2.29978-9.84805c1.96985-3.61559,1.66629-5.60442,.53535-6.03687-1.13094-.43245-18.76276-44.21953-18.76276-44.21953l-5.99456-1.25951-4.80713-5.89928-10.2031,1.23384-4.17311,7.72073-6.9902,3.70399-2.55282,23.49496s1.25534,10.06795,3.81172,20.65951c.79539,3.29546,1.71674,6.64161,2.76541,9.75097,2.47,7.32364,5.64637,13.3336,9.5471,14.27336,10.87955,2.62107,17.07813,2.01026,17.07813,2.01026Z" fill="#9ba2b7"/><g><path d="M526.52676,382.716l-3.63359,.66878-.84071,.15351-1.34797,.25273-28.04495,5.16139c-1.47173,.95654-3.40159,.80017-4.7037-.38286-1.49934-1.38705-1.58941-3.73102-.20236-5.23035,.02363-.02568,.04896-.04561,.0726-.07125,1.45024-1.51791,3.85261-1.60021,5.40802-.19221,.14823,.14356,.28669,.29625,.4096,.45974l.75695-.24742,2.37414-.77266,1.79354-.58332,3.56813-1.16727,1.38352-.45031,4.48583-1.46194,4.3268-1.40895,5.24277-1.70939,4.02988-1.31548,.8036,1.35449,4.11789,6.94277Z" fill="#ffb6b6"/><path d="M533.15411,383.84967c-.78526,.08734-1.30305,.10852-1.48337,.06797-1.50395-.36269,.15997-1.34454-3.16539,.07577-2.70014,1.1492-2.92705-.91754-3.31664-.03573-.64501,1.45588-1.55395-.0236-2.29553-.5729-.32827-.24664-.61973-.30443-.84071,.15351-.07937,.15434-.14596,.3735-.20207,.67071-.17579,.88758-.61009,.53489-1.1459-.41797-.88257-1.58082-2.03574-4.8038-2.69264-6.76285-.19409-.55427-.3406-1.01024-.43648-1.29396-.06816-.21077-.1036-.33137-.1036-.33137,0,0,.20917-.60418,1.23363-1.12985,.71406-.37207,1.83376-.70117,3.56301-.76032,1.0619-.03764,1.89472,.18543,2.53743,.271,.37693,.05141,.68934,.05317,.94167-.06467l.00575-.00169c.281-.12626,.49519-.39508,.65571-.91011,.28892-.92704,1.50074-.81536,2.70004-.51288,1.12767,.29236,2.25331,.74751,2.58632,.64963,.47933-.14088,13.18032-11.36554,21.29351-18.56487,3.70717-3.28959,9.35923-3.03036,12.74911,.58533l3.44904,3.67878s2.21432,1.46386,2.61572,4.20911c.16497,1.15548,.01103,2.54188-.77585,4.15178-.69062,1.40692-1.87235,2.98937-3.74513,4.72506-7.95557,7.37863-28.33653,11.49135-34.12764,12.12052Z" fill="#9ba2b7"/></g><g><path d="M612.41937,386.3895l1.34282,3.44195,.30949,.7966,.5027,1.276,10.36381,26.56597c1.21722,1.26465,1.42805,3.18932,.51215,4.69139-1.07901,1.73426-3.3638,2.26529-5.09806,1.18628-.02968-.01836-.05403-.03947-.08368-.05784-1.76443-1.13755-2.29885-3.48117-1.20986-5.27445,.11299-.17267,.23678-.33747,.37413-.48904l-.38589-.69661-1.20703-2.18555-.91147-1.65114-1.81998-3.28355-.70344-1.27361-2.28263-4.12911-2.20057-3.98294-2.66855-4.82571-2.05271-3.70902,1.1784-1.04489,6.04037-5.35471Z" fill="#ffb6b6"/><path d="M612.28132,379.6673c.23404,.75465,.3526,1.25912,.34683,1.44385-.0722,1.54538-1.35056,.09678,.67207,3.09415,1.63835,2.43459-.34837,3.04764,.59114,3.26373,1.55148,.35852,.27023,1.53046-.12917,2.36242-.18022,.36893-.18194,.66607,.30949,.7966,.16655,.0488,.39434,.07282,.6968,.0718,.90481,.00504,.64046,.49812-.1941,1.2042-1.38574,1.16518-4.33302,2.90614-6.1328,3.92112-.50765,.29525-.92776,.52522-1.18827,.67294-.19411,.10673-.30584,.1643-.30584,.1643,0,0-.63281-.09133-1.34245-.9981-.5002-.63097-1.0348-1.66838-1.41938-3.35537-.23746-1.03569-.17566-1.89566-.21298-2.54296-.02068-.37985-.07795-.68698-.2413-.91252l-.00274-.00533c-.17705-.2521-.48147-.41169-1.01755-.47208-.96492-.10869-1.08406-1.3198-1.01345-2.55463,.07418-1.16259,.30861-2.35392,.14961-2.66246-.33721-.65439-11.92972-12.28002-11.92972-12.28002l-9.19273-21.8371s1.01944-2.45089,3.63952-3.36341c1.10355-.38018,2.49408-.49077,4.22359-.02202,1.51201,.41255,3.28913,1.27424,5.3472,2.78561,8.74803,6.41929,16.63497,25.65712,18.34626,31.22527Z" fill="#9ba2b7"/></g><circle cx="569.61716" cy="327.47573" r="12.26897" fill="#ffb6b6"/><path d="M580.01911,337.16015s-4.06558,1.67027-6.08748,1.9036c1.01633-1.56717,2.42746-4.35915,3.44095-5.92185,.53023-.82319,1.07189-1.66432,1.31315-2.60833,.23963-.95136,.13237-2.04148-.51489-2.76882-.62319-.70571-1.71043-.94985-2.57205-.57728-.8661,.36973-1.43631,1.32512-1.36044,2.25652-.76197-.28942-.9313-1.31183-.79044-2.11787,.14086-.80609,.47026-1.63089,.24096-2.42024-.21994-.76445-.94884-1.30405-1.7251-1.50165-.76894-.19922-1.58478-.10662-2.37293,.04148-2.25129,.41535-4.4402,1.26779-6.73514,1.29581-.45302,.00816-.91299-.0323-1.37378-.11108,.38821-1.25419,.36625-2.63695-.12752-3.85322-.46736,1.14071-1.15515,2.1916-2.00863,3.0866-.94438-.53799-1.69039-1.32818-2.02092-2.36487-.36683-1.14811-.15617-2.42067,.34468-3.51484,.23145-.50242,.51961-.97502,.84818-1.4219,.32817,.0196,.66445,.00656,.98975-.0387,.71995-.09056,1.41218-.30603,2.04522-.66635-.65464-.17067-1.29009-.4111-1.89167-.7246,.02734-.03303,.05184-.0616,.07919-.09467,.60695-.68604,1.2608-1.38635,2.12241-1.68956,.86159-.30318,1.98396-.07456,2.40429,.74173,2.36324-2.02828,5.56268-3.0513,8.66737-2.76581,3.04999,.28221,5.97009,1.81905,7.929,4.18226-.61181,.3865-1.15056,.87621-1.57059,1.46677,.79997-.1469,1.61991-.18641,2.43168-.12394,.35423,.7616,.47495,1.58279,.09617,2.30679,.75748,.70286,2.27198,1.95062,1.30836,2.17627,1.53115,2.51993,2.08113,5.62016,1.51366,8.51381-.57035,2.89817-2.25287,5.56154-4.62343,7.31393Z" fill="#2f2e41"/></g><g><g><polygon points="414.44737 555.34813 420.98065 555.34748 424.08857 530.14741 414.44604 530.14807 414.44737 555.34813" fill="#a0616a"/><path d="M414.2174,562.16363l20.09079-.00077v-.25405c-.00028-4.31866-3.50124-7.81953-7.8199-7.81978h-.00048l-3.66983-2.78411-6.8471,2.78455-1.7538,.00004,.00032,8.07411Z" fill="#2f2e41"/></g><g><polygon points="359.50588 549.68738 365.68957 551.79585 376.76621 528.94829 367.63973 525.83611 359.50588 549.68738" fill="#a0616a"/><path d="M357.08803,556.06375l19.01538,6.48501,.08201-.24045c1.39389-4.08753-.78947-8.53115-4.87683-9.92553l-.00046-.00016-2.57458-3.81975-7.37942,.42508-1.65992-.56613-2.60619,7.64193Z" fill="#2f2e41"/></g><path d="M430.71469,418.03918s6.28597,19.30629,5.1257,21.84731c-1.16027,2.54102-3.13985,.56144-1.16027,2.54102,1.97958,1.97958,3.70765-.1247,1.85382,3.23695-1.85382,3.36165-4.6623,31.03593-5.89751,32.37558-1.2352,1.33966-2.93353,1.3756-1.42451,2.67735,1.50902,1.30175,3.48861-1.33769,1.50902,1.30175-1.97958,2.63944-7.23249,63.52847-7.23249,63.52847h-10.26159s-2.55576-2.94599-1.10903-4.86322-.12701-2.65626,0-3.9364c.12701-1.28014-.35418-4.04017-.44351-5.2996s-1.82355-31.26259,2.34286-48.59418l-7.59738-33.00106-9.20299,39.88619s-14.76665,29.45614-19,40.21135c0,0,3.41302,2.84208,1.89934,4.48913-1.51367,1.64705-2.83339,.32733-1.51367,1.64705,1.31972,1.31972-1.97958,5.93875-1.97958,5.93875l-15.21763-.65986,16.65079-58.51155s-1.07033-6.51923,0-7.63631c1.07033-1.11709,1.07033,2.84208,1.07033-1.11709v-5.27888s.61996-32.46826,.70262-34.3803,8.00099-15.76911,8.00099-15.76911l42.88468-.63335Z" fill="#2f2e41"/><path d="M430.4612,351.35771v38.06887s-1.91854,5.26022-1.87799,11.43012c.04052,6.47166,1.46367,13.92961,1.45916,17.19024,0,.56295-.04054,.99528-.13961,1.28351-6.30052,18.26207-39.64064,1.66634-42.67155,.11259-.14412-.07205-.22067-.11259-.22067-.11259l.65751-20.45532-.11259-5.88169-.77911-40.34771,.69805-.55844,6.11589-4.8774,.59899-.47738,1.83745,2.67964,16.37957-1.1259,6.25099-1.72939,1.95006,.79264,8.79102,3.57585,1.06284,.43235Z" fill="#3f3d56"/><g><path d="M479.71848,402.43332l-9.27787-7.75102-5.1673,4.68227,10.10072,7.84584c.07251,.38384,.20117,.76369,.39183,1.12769,1.03693,1.97975,3.48245,2.74406,5.4622,1.70713,1.97975-1.03693,2.74406-3.48245,1.70713-5.4622-.6613-1.26257-1.89581-2.02777-3.21671-2.14972Z" fill="#a0616a"/><path d="M422.18403,350.58328h0c-2.15394,3.00681-.74804,7.87943,.5159,11.35546,1.62145,4.46792,21.29566,23.93179,26.32338,24.96878,3.89952,.80431,3.0639,.72161,4.09074,3.22715,1.02683,2.50555-2.03708,1.78394,1.72952,3.64119,3.7666,1.85725,4.4338,.39747,4.61362,2.38013,.17982,1.98265-.95583,2.68535,1.72952,3.64119,2.68535,.95585,3.15381,1.71294,4.00082,2.23581,.84701,.52287,5.49611,5.49845,5.49611,5.49845,0,0,4.88566-5.64045,8.76107-6.9914,0,0-6.30764-3.42586-6.25323-5.02998s.95584-2.68537-.8825-3.11832c-1.83834-.43295-3.49688,1.11674-2.30681-1.19007,1.19007-2.30681-9.47801-11.93382-9.47801-11.93382-3.94126-8.90906-14.35538-18.46117-25.97288-28.13285-3.53051-2.93918-8.58927-3.16521-12.36724-.55174Z" fill="#3f3d56"/></g><g><path d="M383.0841,427.16257l-.52067-12.07833-6.94133-.66524,1.00485,12.75037c-.23485,.31214-.42894,.6631-.56955,1.0492-.76478,2.09994,.3176,4.42227,2.41754,5.18704,2.09994,.76478,4.42227-.3176,5.18704-2.41754,.48773-1.33923,.22173-2.76709-.57788-3.82552Z" fill="#a0616a"/><path d="M390.34004,351.47029l-.19452,.02288c-3.67322,.43337-6.89622,2.65079-8.61399,5.9264-2.21006,4.20797-9.20181,32.70849-7.48986,36.61972,1.59651,3.64751,1.53048,2.7506,.37029,5.19725-1.16019,2.44665-2.69068-.30397-1.52623,3.73097s2.69279,3.54477,1.34853,5.01318c-1.34426,1.46841-2.62859,1.10236-1.52623,3.73097s.85834,3.48481,1.04242,4.46305-.3618,7.76591-.3618,7.76591c0,0,7.45982-.18834,11.06876,1.766,0,0-1.7167-6.96964-.49444-8.00994,1.22226-1.0403,2.62861-1.10237,1.71031-2.75273s-3.18086-1.83233-.67426-2.5066c2.5066-.67426,2.43601-15.04375,2.43601-15.04375l2.90501-45.9233Z" fill="#3f3d56"/></g><path d="M408.2247,336.07702c-.29274,.06754-.58549,.12609-.87821,.17114-.90973,.1486-1.81947,.19365-2.70666,.13961-2.69314-.13961-5.23317-1.13491-7.28681-2.77423-2.17074-1.72936-3.79202-4.17481-4.47207-7.08414-1.59877-6.86798,2.67514-13.74047,9.54312-15.33924,6.76889-1.58077,13.5378,2.54454,15.26717,9.23688,.02702,.10357,.05404,.20267,.07658,.30624,1.59877,6.87249-2.67066,13.74047-9.54312,15.34375Z" fill="#a0616a"/><path d="M396.43336,334.56939c-1.77692-1.39063-1.9494-4.04131-3.46574-5.71223-2.53525-2.79367-3.72638-5.79929-2.39832-9.10955,1.17465-2.92783,.92498-6.52685,3.45486-8.41146-1.24253-.44979-1.53493-1.38388-.4386-1.40112,.73932-.01163,3.49543,1.40138,2.16925-.35885-1.32618-1.76023,1.18419-1.06543,1.01813-1.78595s-1.23077-1.11959-1.70037-.54845c1.49923-1.75668,4.77326-1.38216,5.83707,.66771,1.49431-2.23951,3.08048-3.78051,5.36708-2.35931,2.2458,1.39582,2.21644,3.12125,4.63147,2.70658,1.13534-.19493,1.24261,1.95004,2.01821,2.80178,.7756,.85174,1.90936,1.5109,3.04129,1.29699,1.13192-.21391,1.99746-1.62453,1.36319-2.58615l2.66783,6.08627,1.0752-1.31884c1.70846,1.11341,1.14732,4.01873-.57241,5.11464-1.71974,1.09592-5.00178-1.4371-5.93505,.376-1.47114,2.85807-4.92229,1.41485-7.29239-.60495-2.87412-2.44949-6.34325,4.99824-4.95875,8.5113-1.43653-1.41063-4.09398-.23998-4.83816,1.63077-.74418,1.87075-.1985,3.97839,.35316,5.91467l-1.39693-.90984Z" fill="#2f2e41"/><polygon points="420.7672 347.3495 420.32135 347.91696 419.12338 349.43918 414.68946 362.53563 393.75015 347.20989 394.34913 346.73251 397.53766 339.95461 413.91723 338.82871 418.81714 346.55687 420.7672 347.3495" fill="#e6e6e6"/></g><path d="M630.88124,140.17373c7.5-13.79999,12.37-27.33002,14.11005-39.81-6.95349-.81305-13.10406-.24664-18.47479,1.5564,9.24677-15.40875,15.42004-34.38501,7.38477-44.1264-5.06-5.37-11.59998-9.39001-19.33002-12.06,2.5-11.57001,2.53003-22.41003-.32001-31.94-13.21997-44.37-100.71997,35.57001-156.56,.96997-23.40997-14.5-48.60999,3.77002-69.01996,33.15002,2.79999,9.77002,7.96997,18.84998,15.22998,25.97998-9.25-.65997-18.34998-3.38-26.45001-7.89996-21.83997,39.19-35.03998,88.25-28.42999,110.42999,4.28998,14.39001,14.56,24.06,28.97003,29.03998-2.5,11.57001,51.51654,94.62488,61.46991,94.53851,26.46008-.22955,34.68768-60.33179,52.35406,16.68909l-39.35406,240.31091h57v-247.8313c15.86017-24.48822,32.24268-8.10919,70-27.1687,115.80963-58.45959,66.43896-122.89294,51.42004-141.82849Z" fill="#f2f2f2"/><g><path d="M155.26642,466.91685l.92142,17.80014,8.46064,2.31289s-3.6184-20.83989-3.84477-21.46829c.51924-.75801,.80238-1.68603,.74141-2.67414-.14537-2.35618-2.17331-4.14842-4.52949-4.00304-2.35618,.14537-4.14842,2.17331-4.00304,4.52949,.09471,1.53501,.99088,2.82648,2.25384,3.50295Z" fill="#ffb6b6"/><path d="M124.82119,506.70224l-.20001,.41998c-.66998,.15997-.56-.03003,.20001-.41998Z" fill="#9ba2b7"/><path d="M161.11122,502.9122c-4.59003-1.25-9.31-1.58997-13.79004-1.39996-4.75,.19-9.21997,.97998-12.94,1.89996-.69-2.37-1.33997-4.88-1.81-7.25l5.06-3.28998,5.57001-1.95001,11.66003-4.08002-.15002-6.32996,1.22998-.57001,6.91003-3.19,.15997-.07001,4.97003,13.47998c1.90997,5.45001-1.27002,11.35004-6.87,12.75Z" fill="#9ba2b7"/></g><path d="M253.77211,181.85873c-2.01843-19.0769-29.36981-18.52856-23.26819-36.89221-11.61005,5.15002-22.29004,12.32001-31.27771,21.34003,24.63611-80.60681-70.76501-19.30432-70.76501-19.30432,0,0-26.35876-11.35687-33.7923-16.5061-29.68396-20.20667-75.51074,30.0061-37.44708,57.1792-42.33362-19.98413-45.88702,10.99323-53.22791,47.01123,2.79999,9.77002,7.96997,18.84998,15.23163,25.98126-11.95111-.65704-23.57666-9.28546-17.61163,8.22229,10.72504,21.54102,28.69635,25.44989,25.09143,52.20483,.26868,23.26379,46.09509,29.22961,95.95813,24.30011-28.45746,81.04974-43.92395,156.27783-30.29419,218.46722h48.79724c-16.85968-74.97833-20.55237-148.47229-6.04333-219.91418,55.35034-7.37201,111.42322-27.32172,112.7207-51.30151,6.66003-17.40002,4.35999-36.64001-4.91998-54.79004,11.15997-20.52997,15.52002-40.31,10.84821-55.9978Z" fill="#f2f2f2"/><path d="M136.1355,512.74453l1.69872,7.29883s.01669,6.73017,1.20861,7.97109c1.18358,1.23515,27.20977-1.24482,27.20977-1.24482,0,0-2.75944-10.8452-2.72274-19.05136l-27.39436,5.02626Z" fill="#ffb6b6"/><g><g><polygon points="236.51855 579.35247 240.99834 576.12286 230.56498 556.84488 223.95323 561.61148 236.51855 579.35247" fill="#ffb6b6"/><path d="M253.79122,570.03219c-.08002-.10999-.16003-.20996-.25-.31-.26001-.26996-.58002-.47998-.92004-.59998l-.01996-.01001c-.39001-.15002-.81-.19-1.23004-.13l-1.84998,.28998-7.15997,1.11005-1.51001,.23999-2.72003-2.85999-1.04999,1.12-3.62,3.88-.91998,.97998-.71002,.76001,8.75,10.91998,3-2.84998-2.15002-3.34003,4.06006,1.53003,2.28998-2.18005,1.52997-1.43994,4.14001-3.93005c.41003-.38995,.65002-.88,.73999-1.39996,.10004-.60999-.02997-1.25-.39996-1.78003Z" fill="#2f2e41"/></g><path d="M233.84082,561.18372l-8.10374,3.62923c-8.39569-8.87898-16.84376-20.28561-22.13726-38.93813-12.09158,15.65514-22.74386,24.51854-37.2044,32.29061-4.88318,2.64539-22.54822,3.59441-25.29654-1.35721-.12847-.23145-.24806-.46764-.35848-.70797-2.52653-5.5663-.2927-20.05594-1.72181-27.41756,5.22119-9.58279,17.96052-1.84208,26.67485-5.61576l9.74979,4.23577,18.08307-21.49969c3.63656-4.32365,10.14861-4.79743,14.54508-1.05823,.23214,.19744,.45578,.40476,.67023,.6214,3.64525,6.18374,7.12846,12.26241,10.30666,18.14329,1.02589,1.89828,4.25506,4.44937,2.97751,5.62991s1.98137,3.88887,2.90519,5.78995c5.68744,11.70381,8.06511,17.69077,8.90984,26.25438Z" fill="#2f2e41"/></g><path d="M132.35353,466.53542l10.73314-.63373c.92785-.05478,1.7883,.48503,2.14273,1.34426l3.03315,7.35306,12.60601,10.41907s4.99107,6.35134,5.00268,14.55393c.01161,8.20259-.17779,23.49494-.17779,23.49494,0,0-5.33564-6.55971-9.83162-3.83269-.7649,.46395-1.03394,1.4127-1.83515,1.89218-.39965,.23917-1.32296,.00668-1.72656,.24627-6.19539,3.67777-12.40585,6.46677-13.26034,6.64059-3.20801,.65137-4.21289-1.8252-2.04688-5.27441,.70703-1.12598-.57617-2.2832-.57617-2.2832-1.62988-.89258-2.23926-2.15918-1.10547-4.06152l-8.71937-32.03654c-1.04711-3.84731-.40772-7.99919,1.90115-11.24994,.68637-.96637,1.40551-1.68529,2.07382-1.8042,1.50056-.3195,.70237-3.68267,1.78667-4.76805Z" fill="#9ba2b7"/><g><polygon points="261.20734 581.8721 263.24559 576.74444 243.99673 566.26711 240.98847 573.83505 261.20734 581.8721" fill="#ffb6b6"/><path d="M254.60438,570.66149l-2.41559,9.21208c-16.35953-4.2549-33.21768-14.25249-50.31147-26.96413-18.86544,5.83646-36.76021,9.33431-53.03116,7.36191-5.5065-.64903-9.65609-5.80293-9.05532-11.43363,.02809-.26323,.06612-.52516,.11403-.78522,1.13496-6.00553,10.60772-11.27765,13.67002-18.11902l20.13701,4.79448,1.49595,3.8699,4.53475-1.19826,3.82882-1.01172,4.38297-1.15815,14.36813-3.79662c5.45284-1.44085,11.04167,1.92149,12.48301,7.50999,.0761,.29509,.13957,.59335,.19023,.89395l19.89977,15.48651s1.77563,4.15158,3.14019,2.44377c1.36456-1.70781,3.92081,3.05127,3.92081,3.05127l12.64785,9.84288Z" fill="#2f2e41"/><path d="M276.00118,568.81222c-.75-.29999-1.60999-.21002-2.27997,.23999l-8.85999,5.90997-3.67004-1.45996-.58997,1.79999-1.85004,5.59003-.44995,1.37,12.52997,6.23999,1.53003-3.85004-3.36005-2.13,4.33002-.31,4.04999-10.19995c.5-1.26001-.12-2.70001-1.38-3.20001Z" fill="#2f2e41"/></g><path d="M120.71836,445.55803c-.27879,1.25322-.58298,2.55939-1.40864,3.54253-.82566,.98314-2.34509,1.51228-3.42823,.82301-1.32436-.84276-1.21881-2.77595-.95497-4.32339l.83664-4.9069c.15959-.936,.32458-1.88865,.75704-2.73396s1.18211-1.58203,2.11525-1.75753c.98724-.18567,2.01856,.29997,2.67695,1.05867,.65839,.75871,.98926,1.75176,1.15113,2.74318,.42934,2.62962-.27571,5.42495-1.90085,7.53638l.15568-1.982Z" fill="#2f2e41"/><path d="M116.77256,438.52199c-1.78634-2.17996-5.51067-1.85263-7.49515,.14745-1.98447,2.00008-2.47689,5.08445-2.12483,7.88062,.35113,2.79438,1.82304,14.26631,2.28725,16.46779,.58093,2.755-3.74873,4.76653-6.51739,4.24801,.21842,1.93014,1.52224,3.65085,3.22525,4.58652,1.70385,.93297,3.75267,1.12506,5.65863,.75573,.77117-.15003,1.52816-.39261,2.24308-.72454-.32313-.83307-.52369-1.71417-.58125-2.60852,.36926,.79086,.885,1.50986,1.50876,2.11803,1.01369-.61264,1.90711-1.41238,2.59144-2.37791,1.34139-1.89185,1.81537-4.41927,1.06729-6.616-.87058-2.56667-3.16336-4.33718-4.78916-6.50547-1.62759-2.16736-2.45988-5.55342-.46357-7.38708,1.52007-1.39679,1.42895-1.08809,3.46742-.76341l-.07776-9.22123Z" fill="#2f2e41"/><path d="M143.61727,447.67942c0,6.74167-5.4652,12.20687-12.20687,12.20687-6.74167,0-13.14586-7.81268-13.14586-14.55435s6.40419-9.8594,13.14586-9.8594c6.74167,0,12.20687,5.4652,12.20687,12.20687Z" fill="#2f2e41"/><circle cx="135.09113" cy="450.89846" r="11.64588" fill="#ffb6b6"/><path d="M149.72071,449.08791c-3.44751,.94135-6.9283,1.92808-8.2725,0-.26292-1.27704-.75588-2.50242-1.46012-3.59635-.13147,1.23007-.42256,2.44138-.85918,3.59635-1.51425,.2722-3.62016,.2722-3.62016,.2722-.49296,.84978-2.74788,2.25611-2.82769,3.27491-.17371-.11267-.35682-.20188-.5446-.28639-.23475-.0986-.51176-.18311-.74181-.06574-.17371,.08921-.27232,.28169-.30518,.47419-.03287,.19248-.0047,.38966,.02817,.58687,.0986,.66198,.20658,1.35215,.58687,1.90615,.26762,.39436,.71834,.70424,1.17844,.75588,.48826,2.74653,1.56782,6.46026,1.56782,6.46026-11.73738,.4695-15.24723-8.19512-15.24723-15.72581l1.40849-2.81697h4.69495v-6.10344h13.14586c6.22081,0,11.26788,5.04707,11.26788,11.26788Z" fill="#2f2e41"/><g><path d="M171.85758,539.30563c-2.39045-.15734-4.20088-2.22257-4.0437-4.61298,.01584-.24063,.05589-.4734,.10873-.70076l-27.82022-20.88231,7.27887-3.22921,26.0544,20.96059c1.86878,.58292,3.16913,2.38133,3.03492,4.42101-.15719,2.39041-2.2225,4.2008-4.61301,4.04365Z" fill="#ffb6b6"/><path d="M166.05123,523.49221l-1.23004,.41998-7,2.39001s-.14996-.07001-.41998-.20001c-2.78998-1.37-18.52002-9.17999-19.46002-11.90997-.45996-1.34003-2.08997-5.77002-3.56-10.78003-.69-2.37-1.33997-4.88-1.81-7.25-.76001-3.79999-1.03998-7.26001-.25-9.26001,2.32001-5.87,7.62-4.35999,7.62-4.35999l3.26001,8.38,4.12,10.59003,3.33002,8.56c4.38,1.16998,9.73999,6.66998,15.40002,13.41998Z" fill="#9ba2b7"/></g><g><path d="M158.31118,457.14224c-.13,0-.25995,.01996-.38,.03998-.16998-.19-.38995-.33002-.65997-.40002-.12-.03998-.26001-.04999-.40002-.04999l-8.84998,.22998c-.07001,0-.15002,.01001-.21002,.02002-.31,.06-.57996,.22003-.76996,.44-.07001,.07001-.13,.15002-.17999,.23999-.19,.32001-.24006,.72002-.11006,1.11998-.50818,4.01575-.31848,7.85901,1.54004,11.29004,.19,.57001,.74,.95997,1.33998,.94996l5.75-.14996c.03003,0,.06,0,.09003-.01001,.57001-.04999,1.05999-.44002,1.20995-1.00001,1.40854-2.95294,1.70563-5.85748,.81006-8.71002,.27997,.13,.59998,.20003,.91999,.19002,.83997-.01996,1.54999-.52997,1.85999-1.23999,.13-.27997,.20001-.58997,.19-.90997-.03003-1.16003-1-2.08002-2.15002-2.04999Zm.09003,3.59998c-.27002,.01001-.52002-.06-.73999-.17999l.45001-1.60999,.13-.47003c.06995-.25,.06-.5,0-.72998,.02997,0,.06-.01001,.08997-.01001,.82001-.02002,1.51001,.64001,1.53003,1.46002,0,.16998-.02002,.33997-.07001,.48999-.19,.59998-.73004,1.02997-1.39001,1.04999Z" fill="#3f3d56"/><path d="M147.80667,456.98456c.18854,1.07805,2.30831,1.83592,4.85718,1.70419,2.34385-.10799,4.26031-.93101,4.61142-1.90642-.12257-.03935-.25992-.05383-.40054-.0534l-8.84976,.22852c-.07608,.00518-.15219,.01036-.2183,.0271Z" fill="#9ba2b7"/></g></svg>