<svg xmlns="http://www.w3.org/2000/svg" xmlns:xlink="http://www.w3.org/1999/xlink" width="731.67" height="550.618" viewBox="0 0 731.67 550.618"><circle cx="317.682" cy="132.627" r="46.021" fill="#ff6884"/><g><path fill="#3f3d56" d="M0,334.13393c0,.66003,.53003,1.19,1.19006,1.19H730.48004c.65997,0,1.19-.52997,1.19-1.19,0-.65997-.53003-1.19-1.19-1.19H1.19006c-.66003,0-1.19006,.53003-1.19006,1.19Z"/><g><polygon fill="#a0616a" points="466.985 81.606 470.811 130.557 526.268 107.393 494.985 57.606 466.985 81.606"/><circle cx="465.323" cy="55.181" r="41.339" fill="#a0616a"/><polygon fill="#a0616a" points="387.985 440.606 394.985 503.393 345.985 496.606 361.985 438.606 387.985 440.606"/><polygon fill="#a0616a" points="578.985 449.606 585.985 512.393 536.985 505.606 552.985 447.606 578.985 449.606"/><path fill="#2f2e41" d="M462.48463,260.10598c-.66897,0-54.14584,2.68515-89.47714,4.46286-16.72275,.84141-29.45202,15.31527-28.15459,32.00884l12.63173,162.5283,36,1,.87795-131,71.12205,4-3-73Z"/><path fill="#2f2e41" d="M619.48463,259.10598s9,69,2,76c-7,7-226.5-5.5-226.5-5.5,0,0,48.15354-69.53704,56.82677-71.51852,8.67323-1.98148,146.67323-8.98148,146.67323-8.98148l21,10Z"/><path id="uuid-395a52e4-5c72-4314-a9bf-6720c6920e4c-133" fill="#a0616a" d="M335.12666,172.23337c-8.35907-11.69074-9.10267-25.48009-1.66174-30.79863,7.44093-5.31854,20.24665-.15219,28.60713,11.54383,3.40375,4.62627,5.65012,10.00041,6.55111,15.67279l34.79215,49.9814-19.8001,13.70807-35.7745-48.83421c-5.07753-2.68845-9.43721-6.55406-12.71405-11.27326Z"/><path id="uuid-2bcb0f29-4cb0-4836-b3e1-c42200070018-134" fill="#a0616a" d="M465.67391,331.01678c-12.74718,6.63753-26.5046,5.44058-30.72743-2.67249-4.22283-8.11308,2.6878-20.06802,15.44041-26.70621,5.05777-2.72156,10.69376-4.19231,16.43644-4.28916l54.36547-27.44139,10.79681,21.52636-53.36733,28.57487c-3.37375,4.65048-7.81238,8.42516-12.94437,11.00803Z"/><path fill="#e6e6e6" d="M464.98463,112.60598l51-21,96,148s-67,15-90,18c-23,3-49-9-49-9l-8-136Z"/><path fill="#3f3d56" d="M526.98463,137.60598l-18.5-57.70866,24,18.20866s68,45,68,64c0,19,21,77,21,77,0,0,23.5,19.5,15.5,37.5-8,18,10.5,15.5,12.5,28.5,2,13-28.5,30.5-28.5,30.5,0,0-7.5-73.5-31.5-73.5-24,0-62.5-124.5-62.5-124.5Z"/><path fill="#3f3d56" d="M468.56831,111.13035l-25.08368,9.97563s4,70,8,76,18,38,18,38v10.42913s-28,8.57087-27,13.57087c1,5,66,19,66,19,0,0-13-40-21-53-8-13-18.91632-113.97563-18.91632-113.97563Z"/><path fill="#3f3d56" d="M527.48463,97.10598s56-3,68,27c12,30,22,128,22,128l-122,66.37402-21-32.37402,82-64-29-125Z"/><path fill="#3f3d56" d="M452.48463,121.10598s-29-4-34,30-1.82283,38.5-1.82283,38.5l-8.17717,19.5-27-30-26,17s47,76,66,74c19-2,47-57,47-57l-16-92Z"/><path fill="#2f2e41" d="M597.32321,270.14478l-14.83858,209.96121-38.5-1.5s-8.5-198.5-8.5-201.5c0-3,4-20,29-21,25-1,32.83858,14.03879,32.83858,14.03879Z"/><path fill="#2f2e41" d="M541.48463,484.10598s20-6,23-2c3,4,20,6,20,6l5,49s-14,10-16,12-55,4-56-8c-1-12,14-27,14-27l10-30Z"/><path fill="#2f2e41" d="M394.48463,470.10598s6-5,8,9c2,14,9,37-1,40-10,3-110,4-110-5v-9l9-7,18.00394-2.869s34.99606-32.131,38.99606-32.131c4,0,17,13,17,13l20-6Z"/><path fill="#2f2e41" d="M505.98463,77.60598s-20-24-28-22-3,5-3,5l-20-22s-16-6-31,13c0,0-9-16,0-25,9-9,12-8,14-13,2-5,16-9,16-9,0,0-.80315-7.19685,3.59843-3.59843s15.3937,3.59843,15.3937,3.59843c0,0,.06299-4,4.53543,0s9.47244,2,9.47244,2c0,0,0,6.92126,3.5,6.96063,3.5,.03937,9.5-4.96063,10.5-.96063s8,6,9,18-4,47-4,47Z"/></g></g><g><rect width="197.887" height="35.069" x="104.731" y="107.214" fill="#3f3d56" rx="17.534" ry="17.534"/><rect width="159.896" height="175.343" x="125.397" y="30.606" fill="#fff"/><path fill="#3f3d56" d="M286.29322,206.94876H124.39674V29.60598h161.89648V206.94876Zm-159.89648-2h157.89648V31.60598H126.39674V204.94876Z"/><rect width="227.111" height="46.758" x="91.789" y="132.681" fill="#3f3d56" rx="23.379" ry="23.379"/><ellipse cx="332.26" cy="157.521" fill="#3f3d56" rx="4.175" ry="13.986"/><ellipse cx="73.42" cy="156.269" fill="#3f3d56" rx="5.01" ry="13.568"/><rect width="28.806" height="2.922" x="74.672" y="154.39" fill="#3f3d56"/><rect width="23.379" height="4.175" x="306.376" y="155.642" fill="#3f3d56"/><path fill="#3f3d56" d="M302.33424,337.95657H129.43873c-13.66895,0-24.79004-11.12109-24.79004-24.79004v-123.84082c0-13.66895,11.12109-24.79004,24.79004-24.79004h172.89551c13.66895,0,24.78906,11.12109,24.78906,24.79004v123.84082c0,13.66895-11.12012,24.79004-24.78906,24.79004Z"/><circle cx="123.518" cy="258.343" r="5.427" fill="#9aa3b9"/><circle cx="131.033" cy="275.878" r="5.427" fill="#9aa3b9"/><circle cx="136.46" cy="291.742" r="5.427" fill="#9aa3b9"/><circle cx="146.062" cy="308.024" r="5.427" fill="#9aa3b9"/><circle cx="161.926" cy="308.024" r="5.427" fill="#9aa3b9"/><circle cx="177.791" cy="308.024" r="5.427" fill="#9aa3b9"/><circle cx="193.655" cy="308.024" r="5.427" fill="#9aa3b9"/><circle cx="209.52" cy="308.024" r="5.427" fill="#9aa3b9"/><circle cx="225.384" cy="308.024" r="5.427" fill="#9aa3b9"/><circle cx="241.248" cy="308.024" r="5.427" fill="#9aa3b9"/><circle cx="257.113" cy="308.024" r="5.427" fill="#9aa3b9"/><circle cx="272.977" cy="308.024" r="5.427" fill="#9aa3b9"/><circle cx="288.841" cy="308.024" r="5.427" fill="#9aa3b9"/><circle cx="152.617" cy="291.742" r="5.427" fill="#9aa3b9"/><circle cx="168.773" cy="291.742" r="5.427" fill="#9aa3b9"/><circle cx="184.93" cy="291.742" r="5.427" fill="#9aa3b9"/><circle cx="201.086" cy="291.742" r="5.427" fill="#9aa3b9"/><circle cx="217.243" cy="291.742" r="5.427" fill="#9aa3b9"/><circle cx="233.4" cy="291.742" r="5.427" fill="#9aa3b9"/><circle cx="249.556" cy="291.742" r="5.427" fill="#9aa3b9"/><circle cx="265.713" cy="291.742" r="5.427" fill="#9aa3b9"/><circle cx="281.869" cy="291.742" r="5.427" fill="#9aa3b9"/><circle cx="298.026" cy="291.742" r="5.427" fill="#9aa3b9"/><circle cx="147.314" cy="275.878" r="5.427" fill="#9aa3b9"/><circle cx="163.596" cy="275.878" r="5.427" fill="#9aa3b9"/><circle cx="179.878" cy="275.878" r="5.427" fill="#9aa3b9"/><circle cx="196.16" cy="275.878" r="5.427" fill="#9aa3b9"/><circle cx="212.442" cy="275.878" r="5.427" fill="#9aa3b9"/><circle cx="228.724" cy="275.878" r="5.427" fill="#9aa3b9"/><circle cx="245.006" cy="275.878" r="5.427" fill="#9aa3b9"/><circle cx="261.287" cy="275.878" r="5.427" fill="#9aa3b9"/><circle cx="277.569" cy="275.878" r="5.427" fill="#9aa3b9"/><circle cx="293.851" cy="275.878" r="5.427" fill="#9aa3b9"/><circle cx="310.133" cy="275.878" r="5.427" fill="#9aa3b9"/><circle cx="139.8" cy="258.343" r="5.427" fill="#9aa3b9"/><circle cx="156.082" cy="258.343" r="5.427" fill="#9aa3b9"/><circle cx="172.363" cy="258.343" r="5.427" fill="#9aa3b9"/><circle cx="188.645" cy="258.343" r="5.427" fill="#9aa3b9"/><circle cx="204.927" cy="258.343" r="5.427" fill="#9aa3b9"/><circle cx="221.209" cy="258.343" r="5.427" fill="#9aa3b9"/><circle cx="237.491" cy="258.343" r="5.427" fill="#9aa3b9"/><circle cx="253.773" cy="258.343" r="5.427" fill="#9aa3b9"/><circle cx="270.055" cy="258.343" r="5.427" fill="#9aa3b9"/><circle cx="286.336" cy="258.343" r="5.427" fill="#9aa3b9"/><circle cx="302.618" cy="258.343" r="5.427" fill="#9aa3b9"/><circle cx="128.11" cy="187.789" r="21.292" fill="#9aa3b9"/><circle cx="300.948" cy="187.789" r="21.292" fill="#9aa3b9"/><path fill="#9aa3b9" d="M180.52231,179.43886h65.70058c2.9447,0,5.62784,1.69069,6.89874,4.34702l17.73104,37.05981c2.42863,5.0761-1.27158,10.94834-6.89874,10.94834h-96.13887c-5.24759,0-8.93627-5.16429-7.23423-10.12818l12.70725-37.05981c1.05987-3.09102,3.96655-5.16717,7.23423-5.16717Z"/></g><rect width="96.417" height="2" x="155.568" y="56.606" fill="#3f3d56"/><rect width="96.417" height="2" x="155.568" y="74.606" fill="#3f3d56"/><rect width="96.417" height="2" x="155.568" y="92.606" fill="#3f3d56"/></svg>