<svg xmlns="http://www.w3.org/2000/svg" xmlns:xlink="http://www.w3.org/1999/xlink" width="452.553" height="472.429" viewBox="0 0 452.553 472.429"><g><path fill="#f2f2f2" d="M182.77497,380.82361c-.8443-1.42365-4.49683,.10068-5.16833-1.19135-.66913-1.28735,2.72449-3.24887,4.66333-7.7298,.34967-.80807,2.55298-5.90033,.92188-7.47162-3.09174-2.97836-17.23962,9.31259-22.19073,5.29041-1.08661-.88269-1.8457-2.64484-5.13428-5.50583-1.30829-1.13815-2.09937-1.65204-2.86499-1.46085-1.08636,.27127-1.17242,1.72522-2.33734,4.58398-1.74701,4.28729-2.78027,4.02841-3.79816,7.44897-.75562,2.53925-.58301,4.01553-1.47217,4.30313-1.25824,.40701-2.41638-2.28632-4.01099-2.04517-1.6272,.24612-2.61096,3.38205-2.92169,5.72998-.58313,4.40607,1.03497,7.31348,1.93182,10.37064,.97461,3.32236,1.55304,8.37494-.69769,15.52759l-22.27719,62.76614c4.91812-12.87943,19.15842-48.18536,25.14218-61.3053,1.72742-3.78745,3.6347-7.62909,7.55096-9.14526,3.77045-1.45978,8.94867-.58823,15.55029-2.17862,.771-.1857,2.91052-.73007,3.17981-1.98849,.22266-1.04037-1.03583-1.62109-.84247-2.59549,.25934-1.30701,2.73413-1.32306,5.77533-2.83096,2.14447-1.06332,3.48047-2.32785,4.62933-3.41531,.34637-.32785,5.49512-5.26166,4.37115-7.1568h-.00006Z"/><path fill="#f2f2f2" d="M95.12986,413.86634c-.94235,.0036-1.24805,2.23611-2.07593,2.1929-.82492-.04303-.80847-2.2746-2.4483-4.5191-.29572-.40475-2.1593-2.95547-3.40115-2.60825-2.35385,.65808-.4035,11.14828-3.80618,12.41782-.74673,.27863-1.83066,.14276-4.18369,.93134-.9361,.31372-1.41656,.55371-1.54364,.98465-.1803,.61145,.50845,1.07324,1.57544,2.46979,1.60016,2.09445,1.17496,2.52692,2.56009,4.01343,1.02826,1.10352,1.80264,1.44476,1.68723,1.96414-.16327,.73499-1.81934,.52631-2.16107,1.37851-.34869,.86966,.90659,2.25729,1.9693,3.08725,1.99429,1.5575,3.88812,1.6022,5.64737,2.04413,1.91183,.48026,4.55859,1.65421,7.41974,4.82266l24.37836,29.04382c-4.90228-6.12997-18.12189-23.30609-22.83472-30.0285-1.3605-1.94061-2.69568-3.98517-2.30984-6.34479,.37143-2.27176,2.29327-4.56177,3.41748-8.26077,.13132-.43201,.48145-1.63916-.05847-2.13443-.44638-.40945-1.09451,.04068-1.51697-.33539-.56665-.50443,.13953-1.72369,.27689-3.6514,.09686-1.35931-.13831-2.37988-.34055-3.25754-.06097-.26459-.99695-4.21518-2.25137-4.21036v.00009Z"/><path fill="#f2f2f2" d="M113.92948,418.08643l-.56775-5.06818,.2594-.38422c1.20035-1.77667,1.81216-3.51175,1.81949-5.15872,.00122-.26184-.01102-.52371-.02325-.79044-.04895-1.05719-.11011-2.37134,.5751-3.90329,.38422-.85406,1.46344-2.83142,3.08594-2.5867,.43683,.06119,.76721,.26184,1.01804,.49677,.03671-.05872,.07465-.11746,.11502-.18109,.50534-.77087,.90546-1.10123,1.29089-1.41937,.29611-.24472,.60202-.49677,1.08167-1.0939,.21045-.26184,.37442-.49188,.5127-.68521,.41971-.58487,.96786-1.28235,1.93451-1.27011,1.03271,.04895,1.57355,.90302,1.93207,1.46832,.63995,1.00824,.92993,1.73508,1.12204,2.21716,.06976,.17621,.14929,.37442,.18967,.43561,.33282,.48944,3.03824,.0318,4.05746-.13461,2.28937-.38177,4.27039-.71213,5.08655,.73172,.5849,1.03271,.15051,2.39825-1.33008,4.1676-.4613,.55063-.95197,.96909-1.38757,1.29703,.36096,.21536,.68396,.54572,.81494,1.06454h0c.30835,1.22849-.74762,2.45944-3.13733,3.66348-.59344,.30099-1.39246,.70236-2.51205,.89569-.52737,.09055-1.00214,.11258-1.40836,.12482-.00858,.23492-.06363,.48944-.20679,.75128-.41971,.77087-1.29333,1.13794-2.60995,1.04984-1.44876-.07587-2.64175-.35239-3.69406-.59467-.91891-.21045-1.7106-.3891-2.33218-.3475-1.15262,.09299-2.04099,1.01559-3.08347,2.21228l-2.6026,3.04187h-.00003Z"/><path fill="#f2f2f2" d="M116.56318,387.9105l-4.75842,1.83472-.43744-.15347c-2.02304-.71045-3.85654-.86215-5.45151-.45148-.2536,.06525-.50378,.14349-.7587,.22299-1.01019,.31549-2.26587,.70801-3.92151,.43378-.92361-.155-3.11002-.69739-3.28485-2.32889-.05161-.43805,.05869-.80853,.22232-1.11075-.06613-.0206-.13257-.04239-.20435-.06531-.87384-.2933-1.29489-.59653-1.70041-.88867-.31183-.22437-.63324-.45633-1.33249-.76883-.30667-.13715-.57077-.2374-.79285-.32211-.67221-.2576-1.4859-.61096-1.71924-1.5491-.2146-1.01135,.47437-1.75113,.93024-2.24133,.81296-.87476,1.44244-1.33963,1.86005-1.64774,.15274-.11215,.32431-.23938,.37326-.29395,.38901-.44608-.73987-2.94693-1.15936-3.89062-.94998-2.11765-1.77203-3.95007-.5824-5.10577,.85059-.8277,2.28165-.75391,4.36868,.22946,.64963,.30655,1.17886,.67502,1.60657,1.01321,.11676-.40378,.35437-.80005,.82303-1.05829h0c1.11011-.60986,2.56863,.09933,4.33945,2.10547,.44168,.49768,1.03259,1.16876,1.50357,2.2027,.22134,.48715,.36307,.9408,.47797,1.33066,.22943-.0513,.48956-.06259,.77917,.00946,.85211,.21045,1.4288,.9624,1.67752,2.2583,.2941,1.42062,.32922,2.64474,.36179,3.72409,.02951,.94226,.0575,1.75336,.25543,2.34406,.38232,1.09134,1.50006,1.71661,2.92206,2.42148l3.60254,1.74591-.00012,.00003Z"/><path fill="#f2f2f2" d="M113.92948,372.9795l-.56775-5.06818,.2594-.38422c1.20035-1.77667,1.81216-3.51175,1.81949-5.15872,.00122-.26184-.01102-.52371-.02325-.79044-.04895-1.05719-.11011-2.37134,.5751-3.90329,.38422-.85406,1.46344-2.83142,3.08594-2.5867,.43683,.06119,.76721,.26184,1.01804,.49677,.03671-.05872,.07465-.11746,.11502-.18109,.50534-.77087,.90546-1.10123,1.29089-1.41937,.29611-.24472,.60202-.49677,1.08167-1.0939,.21045-.26184,.37442-.49188,.5127-.68521,.41971-.58487,.96786-1.28235,1.93451-1.27011,1.03271,.04895,1.57355,.90302,1.93207,1.46832,.63995,1.00824,.92993,1.73508,1.12204,2.21716,.06976,.17621,.14929,.37442,.18967,.43561,.33282,.48944,3.03824,.0318,4.05746-.13461,2.28937-.38177,4.27039-.71213,5.08655,.73172,.5849,1.03271,.15051,2.39825-1.33008,4.1676-.4613,.55063-.95197,.96909-1.38757,1.29703,.36096,.21536,.68396,.54572,.81494,1.06454h0c.30835,1.22849-.74762,2.45944-3.13733,3.66348-.59344,.30099-1.39246,.70236-2.51205,.89569-.52737,.09055-1.00214,.11258-1.40836,.12482-.00858,.23492-.06363,.48944-.20679,.75128-.41971,.77087-1.29333,1.13794-2.60995,1.04984-1.44876-.07587-2.64175-.35239-3.69406-.59467-.91891-.21045-1.7106-.3891-2.33218-.3475-1.15262,.09299-2.04099,1.01559-3.08347,2.21228l-2.6026,3.04187h-.00003Z"/><path fill="#f2f2f2" d="M119.11512,471.35724l-1.0621-.66565-.25696-1.22604,.25696,1.22604-1.23828,.14194c-.01959-.11502-.08688-.37933-.18842-.79291-.55429-2.26611-2.24408-9.16235-3.65369-20.02304-.9838-7.58145-1.54053-15.37579-1.65555-23.17017-.11502-7.80658,.25452-13.71661,.55063-18.46661,.22391-3.5827,.49557-6.99411,.7623-10.31744,.70969-8.87848,1.379-17.26505,.88098-26.54974-.11011-2.07278-.3414-6.38721-2.862-10.97818-1.46222-2.66257-3.47626-5.02655-5.98709-7.02347l1.56131-1.96265c2.77145,2.20737,4.99963,4.8259,6.62338,7.78214,2.79471,5.09018,3.04678,9.79129,3.16791,12.05005,.50656,9.44867-.17007,17.91602-.88712,26.88013-.26431,3.31107-.53595,6.70779-.75864,10.27582-.29367,4.70599-.65952,10.56458-.54572,18.27084,.11258,7.70135,.66318,15.40027,1.63351,22.88629,1.39246,10.72366,3.0578,17.51712,3.60474,19.74896,.29123,1.1918,.35239,1.44141,.05383,1.91373v-.00003Z"/><path fill="#f2f2f2" d="M100.06604,357.4936c-.10278,0-.20679-.00244-.31201-.0098-2.13397-.11502-4.11008-1.39246-5.87451-3.79562-.82715-1.13062-1.25052-2.42029-2.09482-4.99231-.13092-.39645-.76721-2.40805-1.15387-5.17584-.2533-1.8085-.22147-2.56467,.13705-3.23276,.39767-.74396,1.04129-1.26276,1.76566-1.6127-.0318-.23984-.00613-.487,.0979-.73907,.42703-1.04495,1.56253-.9079,2.17679-.84183,.31079,.03915,.69867,.09055,1.11716,.06851,.65829-.0318,1.01193-.2276,1.54785-.52127,.5127-.28143,1.15018-.63138,2.09604-.82471,1.86478-.3891,3.42731,.1395,3.94244,.31323,2.71027,.90302,4.04645,3.01007,5.59308,5.44992,.30835,.48944,1.36676,2.271,2.06543,4.71332,.50412,1.76199,.43317,2.5451,.28143,3.12753-.30835,1.19669-1.03638,1.8819-2.88525,3.39429-1.93085,1.58334-2.89993,2.37625-3.73199,2.85834-1.93695,1.11838-3.15323,1.82071-4.76837,1.82071v.00006Z"/></g><g><polygon fill="#ffb6b6" points="217.451 467.068 224.014 467.067 227.135 441.755 217.45 441.756 217.451 467.068"/><path fill="#2f2e41" d="M239.93477,466.91925h0c.20433,.34413,.31215,1.45483,.31215,1.85503h0c0,1.2301-.99718,2.22731-2.22731,2.22731h-20.32305c-.83917,0-1.51948-.68028-1.51948-1.51948v-.84611s-1.00536-2.54301,1.0645-5.67741c0,0,2.57256,2.45428,6.41663-1.38978l1.13358-2.05357,8.20557,6.00114,4.54822,.55984c.99506,.12247,1.87727-.01901,2.38912,.84304h.00008Z"/></g><g><polygon fill="#ffb6b6" points="197.451 467.068 204.014 467.067 207.135 441.755 197.45 441.756 197.451 467.068"/><path fill="#2f2e41" d="M219.93477,466.91925h0c.20433,.34413,.31215,1.45483,.31215,1.85503h0c0,1.2301-.99718,2.22731-2.22731,2.22731h-20.32305c-.83917,0-1.51948-.68028-1.51948-1.51948v-.84611s-1.00536-2.54301,1.0645-5.67741c0,0,2.57256,2.45428,6.41663-1.38978l1.13358-2.05357,8.20557,6.00114,4.54822,.55984c.99506,.12247,1.87727-.01901,2.38912,.84304h.00008Z"/></g><polygon fill="#2f2e41" points="225.032 357.755 232.032 384.862 228.532 454.472 212.032 455.576 211.032 415.505 209.032 456.755 192.032 453.219 191.032 362.469 225.032 357.755"/><g><path id="uuid-f560b4a3-9a95-4199-88c1-6c6c96ee74ab-2455" fill="#ffb6b6" d="M157.2683,266.488c-2.25857-3.96337-6.13432-6.01065-8.6564-4.57286-2.52208,1.43778-2.73514,5.81559-.47524,9.78007,.88102,1.59603,2.13144,2.95787,3.64666,3.97156l9.78172,16.67211,7.72589-4.75704-10.46329-15.9307c-.09998-1.82089-.63468-3.59134-1.55935-5.16314Z"/><path fill="#98a3bb" d="M201.72238,325.34351s-9.27074,12.77795-14.94097,8.21194c-5.67023-4.56601-36.99787-55.89416-36.99787-55.89416l12.4327-6.66345,39.50615,54.34568Z"/></g><polygon fill="#ffb6b6" points="193.032 309.755 205.032 291.755 217.032 296.755 214.032 312.755 193.032 309.755"/><polygon fill="#98a3bb" points="194.032 305.755 215.032 304.755 229.032 308.755 232.032 382.755 190.032 378.755 190.032 339.731 184.032 319.755 194.032 305.755"/><path fill="#3f3d56" d="M228.68984,355.67134c-.73792-2.15234-1.03204-4.42456-.84167-6.69189,.53717-6.39801,.63849-18.9342-5.88306-24.59766l-3.68347-3.99048c-.07654-.08289-.16278-.15399-.24084-.23511l6.09454-14.32562-3.68164-1.56543-5.65674,13.29645c-2.50885-1.52661-5.40289-2.37213-8.39636-2.37213-3.45734,0-6.76227,1.12756-9.49298,3.11243l-3.45001-12.63928-3.85938,1.05371,4.31354,14.41431c-.15668,.19128-.328,.36743-.47656,.56677l-2.10748,2.82831c-.51318,.68866-1.07941,1.32837-1.69299,1.9292-1.29358,1.26678-3.81732,4.34277-3.84186,9.0788-.00836,1.61975-.34119,3.2215-.83484,4.76416l-2.505,7.82806c-.23511,.7348-.41968,1.48328-.5451,2.24451-1.10431,6.70306-4.92731,38.28284,21.20111,37.65076,24.35699-.58929,25.96002-15.42029,25.81799-20.34637-.03082-1.06866,.06519-2.12921,.26447-3.17963,.36548-1.92688,.69409-5.33643-.50165-8.82385Z"/><polygon fill="#ffb6b6" points="338.723 36.017 341.001 71.183 312.36 77.755 314.355 49.321 338.723 36.017"/><g><polygon fill="#ffb6b6" points="340.904 463.408 327.994 463.407 321.852 413.611 340.906 413.612 340.904 463.408"/><path fill="#2f2e41" d="M296.67257,463.11499h0c-.40197,.67699-.61407,2.86202-.61407,3.6493h0c0,2.41991,1.96169,4.38168,4.38168,4.38168h39.98052c1.65085,0,2.9892-1.33827,2.9892-2.9892v-1.66452s1.9778-5.00274-2.09414-11.16889c0,0-5.06087,4.82819-12.62311-2.73405l-2.23004-4.03988-16.14241,11.80574-8.94749,1.10135c-1.95753,.24093-3.69306-.03739-4.69999,1.65847h-.00016Z"/></g><g><polygon fill="#ffb6b6" points="375.904 463.408 362.994 463.407 356.852 413.611 375.906 413.612 375.904 463.408"/><path fill="#2f2e41" d="M331.67257,463.11499h0c-.40197,.67699-.61407,2.86202-.61407,3.6493h0c0,2.41991,1.96169,4.38168,4.38168,4.38168h39.98052c1.65085,0,2.9892-1.33827,2.9892-2.9892v-1.66452s1.9778-5.00274-2.09414-11.16889c0,0-5.06087,4.82819-12.62311-2.73405l-2.23004-4.03988-16.14241,11.80574-8.94749,1.10135c-1.95753,.24093-3.69306-.03739-4.69999,1.65847h-.00016Z"/></g><path fill="#2f2e41" d="M384.03213,226.755s11,14,9,22-16,192-16,192l-20-1-12-165-3.08661,166-18.91339-1-24-206,85-7Z"/><path id="uuid-35c49308-43d3-4982-a82f-2c4b488719d7-2456" fill="#ffb6b6" d="M268.405,271.39367c-1.89104,7.24804-7.16368,12.14744-11.77618,10.94321s-6.8175-8.05528-4.92482-15.30565c.71633-2.9066,2.1183-5.59938,4.08866-7.85306l8.40026-30.60904,14.2799,4.24816-9.79724,29.72407c.61807,2.93004,.5253,5.96551-.27058,8.85231Z"/><circle cx="315.458" cy="36.626" r="28.574" fill="#ffb6b6"/><polygon fill="#e6e6e6" points="312.032 72.755 342.032 66.755 375.032 83.755 382.032 192.755 391.032 233.755 298.032 234.755 302.032 179.755 296.032 92.755 312.032 72.755"/><path fill="#e6e6e6" d="M305.03213,95.755s-16-5-22,4c-6,9-17,90-17,90l-11,61,20,3,33-107-3-51Z"/><g><path id="uuid-bde1eca8-243b-424d-9fdc-27c2181c111a-2457" fill="#ffb6b6" d="M450.56531,236.33568c3.26005,6.74404,2.42285,13.89275-1.86944,15.96676s-10.41323-1.7119-13.67354-8.45878c-1.33933-2.67724-2.01804-5.63629-1.97933-8.6296l-13.45212-28.74923,13.62573-6.02512,11.81479,28.98133c2.3704,1.82986,4.268,4.20089,5.53392,6.91464Z"/><path fill="#e6e6e6" d="M362.50793,84.7915s14.36897-8.63324,22.32271-1.30261c7.95374,7.33062,37.75092,83.4498,37.75092,83.4498l25.07925,56.68361-18.72787,7.63327-57.30961-96.19568-9.11539-50.26838Z"/></g><path fill="#3f3d56" d="M431.67004,471.23925c0,.65997-.53003,1.19-1.19,1.19H1.19c-.65997,0-1.19-.53003-1.19-1.19,0-.32001,.12006-.60004,.32001-.81H90.04004c1.90997,0,3.77997-.13,5.62-.38H430.48004c.65997,0,1.19,.52997,1.19,1.19Z"/><path id="uuid-76bcf24f-af63-48e1-b762-2a44b8a9d8fc-2458" fill="#ffb6b6" d="M255.90241,274.54482c1.7846-4.19817,5.39731-6.68032,8.06887-5.54415,2.67156,1.13617,3.38994,5.45988,1.60414,9.65931-.69034,1.68728-1.77472,3.18471-3.16242,4.36699l-7.78607,17.69232-8.22461-3.83074,8.54888-17.03479c-.11147-1.82022,.2147-3.64067,.9512-5.30894Z"/><circle cx="203.899" cy="286.652" r="18.393" fill="#ffb6b6"/><polygon fill="#98a3bb" points="227.032 308.755 245.032 301.755 251.032 280.755 264.032 285.755 254.032 315.755 227.032 326.07 227.032 308.755"/><path fill="#2f2e41" d="M201.47999,307.10288l10.96976-8.92549s-1.03822-13.37618,2.90542-14.57939,8.05629-6.00801,8.05629-6.00801c0,0-6.52712-14.74438-18.01598-12.50697-11.48886,2.23741-8.86742-1.16602-15.94759,2.58348-7.08017,3.74949-8.74039,8.75246-7.87923,14.06832,.86116,5.31586-1.70221,18.52303,6.87319,19.20311s13.03815,6.16496,13.03815,6.16496Z"/><path fill="#2f2e41" d="M298.15161,43.02281c-2.08526-3.80257-1.00254-5.61782-2.88387-7.10435-.00003-.00004-.75707-.5982-6.45643-1.36009h0c-.5446-9.32557-2.05494-10.57186-2.05497-10.57191-1.74068-1.43637-4.51027-1.23611-6.27545-.58369-3.73329,1.37988-3.60368,5.01517-6.08273,5.51079-3.4246,.68464,5.91194-5.16985,5.80269-11.36282-.0891-5.05173,3.5293-9.66218,4.78965-9.30231,1.24963,.35683,4.60045-3.28214,6.23746-3.0911,1.11795,.13047,5.85816-1.49471,7.0781-1.24058,1.33227,.27756,5.5848,2.94782,5.81198,2.43351,1.57876-3.5739,1.28258-4.62417,2.45697-5.58885,2.08099-1.7094,5.13798-.15902,10.04072,.9339,10.08754,2.24869,12.13688-.97299,17.18306,1.72481,2.54909,1.3628,4.51088,4.64561,8.33042,11.15559,5.34159,9.10414,8.01238,13.65621,7.63,18.68613-.38997,5.12962-2.84716,4.6057-4.54444,12.1102-1.88932,8.35376,.38175,12.42403-2.65593,14.94434-2.34773,1.94789-21.81542,2.09786-23.99285,.04973-3.72801-3.50658,2.09879-10.7838-1.85949-16.75687-2.42974-3.66651-7.74783-5.63643-10.37642-4.12999-2.97213,1.70333-1.87191,7.4878-3.89652,7.86624-1.73373,.32408-3.91857-3.66007-4.28195-4.32271Z"/><g><g><path fill="#ffb6b6" d="M159.66023,275.48192c3.98035-3.3626,2.92353-11.1589-2.36063-17.41386-2.31304-2.73802-5.05276-4.72646-7.73611-5.81516l-3.08417-3.55934-39.82654-49.90169s-22.05538-49.64174-28.56608-55.00475c-6.51058-5.36299-14.17058-2.57079-14.17058-2.57079l-5.97665,7.39429,37.24337,69.31189,38.11611,38.35914,5.14548,5.36466c.62515,2.82749,2.12792,5.86089,4.44113,8.59871,5.28404,6.25492,12.79432,8.5995,16.77467,5.2369Z"/><polygon fill="#e6e6e6" points="84.482 153.017 94.462 167.655 108.79 188.86 83.045 197.766 60.314 158.762 84.482 153.017"/></g><path fill="#ffb6b6" d="M94.61494,103.20114l-7.22848,27.55856-27.55856-5.42136s10.84271-19.87831,8.13204-28.9139l26.65501,6.7767Z"/><g><polygon fill="#ffb6b6" points="65.523 461.928 82.119 461.927 90.013 397.914 65.52 397.916 65.523 461.928"/><path fill="#2f2e41" d="M122.38177,461.55175h0c.51673,.87027,.78938,3.67909,.78938,4.69114h0c0,3.11076-2.52173,5.6326-5.6326,5.6326h-51.39448c-2.12214,0-3.84258-1.72034-3.84258-3.84258v-2.13972s-2.54243-6.43096,2.69199-14.35747c0,0,6.50569,6.20658,16.22686-3.51459l2.86669-5.19322,20.75087,15.17614,11.50189,1.41577c2.51638,.30971,4.74738-.04807,6.04178,2.13194h.0002Z"/></g><path fill="#2f2e41" d="M111.6034,276.67582l-22.86802,155.61411h-28.691l3.81507-88.82833,2.00791-46.70654-5.82298-22.23217s-2.65493-4.94175-4.89154-10.93205c-2.52104-6.76001-4.51223-14.86419-1.55613-18.70715,1.08763-1.41672,3.91546-2.46531,7.75838-3.24615,2.34817-.47966,5.08119-.85338,8.03171-1.14339,16.96695-1.67885,41.10109-.63027,41.10109-.63027l.61352,20.24656,.34026,11.30574,.16174,5.25964Z"/><g><polygon fill="#ffb6b6" points="36.29 454.318 52.709 456.73 69.831 394.547 45.597 390.986 36.29 454.318"/><path fill="#2f2e41" d="M92.59819,462.21574h0c.38464,.93617,.24583,3.75478,.09863,4.75606h0c-.45248,3.07768-3.31421,5.20589-6.39199,4.75339l-50.84787-7.47569c-2.09957-.30868-3.55148-2.26097-3.24278-4.36064l.31124-2.11696s-1.57997-6.73238,4.75175-13.81321c0,0,5.53371,7.08687,16.5655-1.1169l3.59159-4.72101,18.3227,18.03309,11.17363,3.07375c2.44457,.67244,4.70388,.64298,5.66741,2.98808l.0002,.00003Z"/></g><path fill="#2f2e41" d="M111.96331,250.72373l-3.13656,27.01208-17.10523,56.92171-28.15806,93.71267-28.38271-4.17108,25.47316-133.24548-2.52224-22.84799s-.82141-2.27112-1.76298-5.59602c-1.86895-6.57784-4.21303-17.28987-1.63416-22.754,.34822-.74277,.78536-1.38723,1.32614-1.90907,1.01432-.98368,3.07586-1.58102,5.83786-1.89787,11.54463-1.30477,35.32008,2.4271,45.89954,4.25906l4.16523,10.51601Z"/><path fill="#e6e6e6" d="M90.09714,122.62767l31.1728,39.30484-5.59567,40.97854-4.79527,41.69715-56.47247-8.58382s12.19805-29.36568,13.55339-30.72102,4.7597,1.99207,2.37985-2.39231c-2.37985-4.38438-5.09053-4.38438-2.83163-6.64328s-17.61941-31.62458-17.61941-47.43687c0-15.81229,9.48737-28.46212,9.48737-28.46212l30.72102,2.2589Z"/><circle cx="82.824" cy="87.406" r="21" fill="#ffb6b6"/><path fill="#2f2e41" d="M81.84268,127.55645s3.14231-24.86371,3.6985-32.09424c.55619-7.23053,10.76256-18.51949,10.76256-18.51949l7.23053,5.84005s6.11814,0,1.94668-8.89912c-4.17146-8.89912-11.95819-10.2896-11.95819-10.2896,0,0-.83429-11.68009-15.29536-10.2896-14.46107,1.39049-20.85731,13.07058-20.85731,13.07058,0,0-.83429-14.73916-10.01151-3.89336-9.17721,10.8458-14.46107,15.29536-4.72766,18.91062,9.73341,3.61527,16.96394,.83429,16.96394,.83429,0,0-9.45531,1.94668-7.78673,8.62102,1.66858,6.67434-21.9697,36.98696-11.1239,40.32412,10.8458,3.33717,35.04027,11.40199,37.82125,6.11814,2.78097-5.28385,3.33717-9.73341,3.33717-9.73341Z"/><path fill="#ffb6b6" d="M168.40727,277.56443c4.00839-3.32912,3.01695-11.13401-2.2146-17.43303-2.29001-2.75731-5.01297-4.76865-7.6871-5.87979l-3.05423-3.58507-39.4069-50.23373s-21.63855-49.82485-28.10407-55.24224c-6.46541-5.41736-14.14854-2.68946-14.14854-2.68946l-6.03841,7.34394,36.66115,69.6216,37.79328,38.67725,5.10034,5.4076c.60143,2.83263,2.07872,5.87852,4.36891,8.63563,5.23143,6.29899,12.7218,8.70643,16.73019,5.37731Z"/><path fill="#e6e6e6" d="M65.46573,138.6392s9.64698,50.06163,20.62449,57.44167l21.87523-17.05725s1.91426-.08228-1.64857-4.10677c-3.56282-4.02449-2.65061-12.66664-2.65061-12.66664,0,0,1.60313,2.07423-1.88529-.80524-3.48842-2.87947-.24091-22.68231-.24091-22.68231l-36.07434-.12345Z"/></g><path fill="#ffb6b6" d="M224.79258,345.18067c-.46094,0-.87598-.32031-.97656-.78955l-1.09961-5.10791c-1.61621-7.51172-8.10645-12.99756-15.7832-13.34033-7.1123-.31885-13.70312,3.89404-16.4043,10.47803l-2.75879,6.7251c-.20898,.51172-.79199,.75488-1.30469,.5459-.51074-.20996-.75488-.79395-.54492-1.30469l2.75879-6.7251c3.02148-7.36279,10.38379-12.06543,18.34375-11.71729,8.58398,.3833,15.84082,6.51758,17.64844,14.91748l1.09961,5.10791c.11621,.54004-.22754,1.07178-.7666,1.18799-.07129,.01514-.14258,.02246-.21191,.02246Z"/><path fill="#ffb6b6" d="M225.97325,361.44434c-.0293,0-.05957-.00146-.08984-.00391l-37.00488-3.2998c-.5498-.04932-.95605-.53467-.90723-1.08496,.0498-.5498,.53027-.95361,1.08496-.90723l37.00488,3.2998c.5498,.04932,.95605,.53467,.90723,1.08496-.04688,.52002-.48242,.91113-.99512,.91113Z"/></svg>