<svg xmlns="http://www.w3.org/2000/svg" xmlns:xlink="http://www.w3.org/1999/xlink" width="649.053" height="653.881" data-name="Layer 1" viewBox="0 0 649.053 653.881"><polygon fill="#ffb6b6" points="60.29 432.317 72.279 438.104 100.308 394.612 82.612 386.071 60.29 432.317"/><path fill="#2f2e41" d="M328.83923,567.615l36.86931,17.79716.22509-.46626a15.93587,15.93587,0,0,0-7.42271-21.27777l-.00089-.00043-4.268-8.36029-15.032-.956-3.21844-1.55358Z" transform="translate(-275.00977 -122.99479)"/><polygon fill="#ffb6b6" points="149.536 448.529 162.848 448.528 169.182 397.176 149.533 397.177 149.536 448.529"/><path fill="#2f2e41" d="M424.07644,585.41215l40.94-.00154v-.51775a15.93587,15.93587,0,0,0-15.935-15.93475h-.001l-7.47822-5.67337-13.9527,5.67423-3.5738.00013Z" transform="translate(-275.00977 -122.99479)"/><path fill="#2f2e41" d="M437.73981,333.36175l15.25581,105.20412,1.29622,23.64689-8.0006,73.79078,3.24761,7.14992-9.07382,5.59609H422.0011l-.9799-77.94754-13.84561-65.28223-2.14165,73.99261L402.06971,485.23c-11.04148,25.05138-25.91529,33.25375-36.43045,51.97907l-18.4647-10.00171.38718-7.45905c-3.70945-1.87807,5.56931-7.3671,6.46092-11.42818l1.61489-7.2711,10.77107-22.31151.411-7.85727-2.94789-53.44107,1.38712-71.965,24.21994-18.52068Z" transform="translate(-275.00977 -122.99479)"/><circle cx="139.528" cy="37.231" r="23.989" fill="#ffb6b6"/><path fill="#3f3d56" d="M417.838,352.777c-31.625.00075-55.34828-11.91047-55.67285-12.07689l-.281-.14425.0864-.30354c.849-2.97339,1.65331-7.96147.198-8.68876a.99687.99687,0,0,1-.62022-.73217c-.0834-.59769.515-1.1439,1.34338-1.90049,1.60784-1.46848,3.81-3.47942,2.51846-6.70751-2.27691-5.6917,4.12518-34.85836,4.53916-36.728l-2.73447-46.49159A38.67443,38.67443,0,0,1,395.8127,199.48l.06086-.01615.06273.00413c.8892.05,1.83062-2.96963,2.54476-5.17929,1.05487-3.266,1.75135-5.27284,2.93958-5.18757,9.19892.59318,15.32865.98124,19.41326,1.23482,7.74471.48122,9.10161,9.901,9.26841,11.40482a46.33818,46.33818,0,0,1,21.00457,50.13967l-3.86,16.598-3.411,7.975,1.124,15.73361c5.29087,4.39942,3.77469,13.39961,3.4734,14.9203,5.04143,5.21536,1.94557,11.35336,1.19462,12.65316a12.29112,12.29112,0,0,1,2.2168,11.46005l4.64322,15.0901-.35012.12209A115.90154,115.90154,0,0,1,417.838,352.777Z" transform="translate(-275.00977 -122.99479)"/><path fill="#ffb6b6" d="M566.45794,195.3156a9.33922,9.33922,0,0,0-14.30995-.5526l-75.85328.41282-21.55132,10.4116L451.948,217.52033l34.82353-1.45588,66.46977-7.59208a9.38986,9.38986,0,0,0,13.2166-13.15677Z" transform="translate(-275.00977 -122.99479)"/><path fill="#3f3d56" d="M481.22487,220.26334l-29.52615,13.96741-27.37359-11.45884-.02737-.22133a20.39734,20.39734,0,0,1,10.35172-20.4211,55.85065,55.85065,0,0,1,18.39832-6.36964c18.10677-2.69349,21.77914-3.728,21.81411-3.73834l.39833-.11544Z" transform="translate(-275.00977 -122.99479)"/><path fill="#2f2e41" d="M394.197,175.304a2.70122,2.70122,0,0,1-.87117-.14049,5.70955,5.70955,0,0,1-2.63266-2.34c-4.25178-6.11508-6.30479-14.26815-6.10118-24.233.086-4.21571.56312-9.60576,3.51548-13.90224,2.48277-3.61277,7.505-6.47985,12.18545-5.04068a5.05935,5.05935,0,0,1,2.5241-4.67064,13.258,13.258,0,0,1,5.78938-1.46247c4.75366-.44554,9.66774-.9061,14.48114.006,5.39719,1.02369,9.81013,3.80549,12.10732,7.632l.047.12021.46695,2.26752a2.1533,2.1533,0,0,0,2.86708,1.58155,1.95371,1.95371,0,0,1,2.62176,2.109l-.13035.902,1.35765-.254a1.95463,1.95463,0,0,1,2.192,2.59848l-.38355,1.03721a2.05614,2.05614,0,0,1,1.49477.65817,1.8899,1.8899,0,0,1,.2562,2.22657,17.70607,17.70607,0,0,1-6.25445,6.29277,14.782,14.782,0,0,1-4.57072,1.79755,87.78569,87.78569,0,0,1-31.847.95758,17.95459,17.95459,0,0,1,.71189,6.44641,6.77566,6.77566,0,0,1-4.06658,5.71537,9.82,9.82,0,0,1-1.48613.35839,8.71283,8.71283,0,0,0-1.41889.34486,4.15228,4.15228,0,0,0-1.21565,7.09669l1.05111-1.09544L396.546,173.706a1.99806,1.99806,0,0,1-1.01881,1.26863A2.79991,2.79991,0,0,1,394.197,175.304Z" transform="translate(-275.00977 -122.99479)"/><ellipse cx="279.829" cy="209.768" fill="#e6e6e6" rx="137" ry="134.908"/><path fill="#fff" d="M668.35351,332.763a109.94456,109.94456,0,0,1-10.403,46.80581c-.21075.45163-.42908.90331-.64736,1.35494A113.02372,113.02372,0,0,1,608.5628,431.26c-.4441.23335-.88824.46669-1.33238.69251A114.38967,114.38967,0,0,1,554.83923,444.546a116.19926,116.19926,0,0,1-18.86384-1.53563c-.4968-.08279-.99363-.16558-1.48294-.25591A113.817,113.817,0,0,1,473.121,410.34113c-.34628-.35382-.69251-.71512-1.04633-1.07643a110.76474,110.76474,0,0,1-29.583-60.40043c-.06776-.49684-.143-.99363-.20325-1.49047A110.60178,110.60178,0,0,1,454.58082,280.304c.23335-.44414.48177-.88824.72266-1.32484a112.9171,112.9171,0,0,1,34.83712-38.074c.414-.286.82805-.56456,1.24205-.84308a113.942,113.942,0,0,1,46.20363-17.80244c.49679-.06777.99363-.143,1.49042-.21079A115.812,115.812,0,0,1,554.83923,220.98a114.524,114.524,0,0,1,48.093,10.50083c.45916.21075.91079.42154,1.36247.63982a113.57027,113.57027,0,0,1,36.90717,28.1076c.33121.37638.66242.76024.97861,1.14415a110.4881,110.4881,0,0,1,24.28359,50.9836v.00749c.09786.4893.18069.97861.26348,1.4754A110.44741,110.44741,0,0,1,668.35351,332.763Z" transform="translate(-275.00977 -122.99479)"/><path fill="#98a3bb" d="M566.04728,324.26578a13.89558,13.89558,0,0,1,2.9361,6.71854l54.693-10.31586a68.11841,68.11841,0,0,0-14.942-31.52506Z" transform="translate(-275.00977 -122.99479)"/><path fill="#ccc" d="M625.39422,321.62983c-.06772-.49679-.15805-.98609-.24838-1.47535v-.00754a69.65311,69.65311,0,0,0-15.25066-32.21c-.32368-.38391-.65489-.76782-.9861-1.13666A71.76461,71.76461,0,0,0,586.432,269.63762h-.00749c-.45167-.21832-.89577-.4366-1.355-.6474a72.43432,72.43432,0,0,0-40.16658-5.92411c-.49679.06023-.99363.13549-1.49043.21832a71.53889,71.53889,0,0,0-27.79895,10.67395c-.42153.271-.84307.54949-1.25712.83554a71.19287,71.19287,0,0,0-22.29637,24.374q-.36126.65491-.72261,1.33238a69.34039,69.34039,0,0,0-7.27156,41.97315q.09034.75655.22586,1.49047a69.65476,69.65476,0,0,0,18.43477,36.89964c.3387.36135.685.72265,1.04629,1.07642a71.65053,71.65053,0,0,0,37.675,19.96287c.4968.09786.99364.18065,1.49043.26349a72.51265,72.51265,0,0,0,44.64544-6.85c.44414-.22581.8807-.45916,1.32484-.7h.00753a71.24741,71.24741,0,0,0,30.14752-31.02073q.33873-.67744.65489-1.35493a69.256,69.256,0,0,0,5.6757-40.61073Zm-7.04571,39.98593q-.31611.68883-.65488,1.355A69.81865,69.81865,0,0,1,588.201,393.29138c-.44415.23335-.88824.4667-1.33238.69252a70.83588,70.83588,0,0,1-43.67437,6.69193c-.49683-.07526-1.00116-.15805-1.49047-.25591a70.12838,70.12838,0,0,1-36.82438-19.5037c-.3613-.35377-.70758-.71512-1.05386-1.07643a68.27972,68.27972,0,0,1-18.04333-36.05656c-.08279-.48931-.1581-.98615-.22582-1.48294a67.91119,67.91119,0,0,1,7.10594-41.06989c.22581-.44414.4667-.88823.71507-1.33238a69.72837,69.72837,0,0,1,21.85981-23.87712c.414-.286.828-.56456,1.24954-.828a70.08541,70.08541,0,0,1,27.13653-10.418c.4893-.08279.9861-.1581,1.49047-.21828a70.85319,70.85319,0,0,1,39.30844,5.80365c.45916.20326.91084.42154,1.35494.63986a70.14769,70.14769,0,0,1,21.97269,16.75612c.33121.37637.66242.76028.97861,1.14419a68.1184,68.1184,0,0,1,14.942,31.52506c.09033.4893.17312.97856.24842,1.48289a67.8427,67.8427,0,0,1-5.57035,39.70741Z" transform="translate(-275.00977 -122.99479)"/><path fill="#ccc" d="M549.60763,321.532l-1.227.87322L515.23721,276.0209l-.88075-1.227L490.1406,240.90523c.414-.286.82805-.56456,1.24205-.84308l24.23093,33.89623.87317,1.23447Z" transform="translate(-275.00977 -122.99479)"/><path fill="#ccc" d="M543.68351,327.53139l-.73014,1.32485-50.291-27.62584-1.32485-.73014L454.58082,280.304c.23335-.44414.48177-.88824.72266-1.32484l36.75661,20.18868,1.31731.73014Z" transform="translate(-275.00977 -122.99479)"/><path fill="#ccc" d="M543.0437,337.06869l-57.26149,6.71454-1.49043.18065-41.80008,4.90039c-.06776-.49684-.143-.99363-.20325-1.49047l41.77747-4.90039,1.49047-.17312,57.31414-6.722Z" transform="translate(-275.00977 -122.99479)"/><path fill="#ccc" d="M546.73966,342.12717,504.8794,380.91622l-1.10656,1.02372L473.121,410.34113c-.34628-.35382-.69251-.71512-1.04633-1.07643l30.65189-28.40118,1.099-1.02373,41.8904-38.81918Z" transform="translate(-275.00977 -122.99479)"/><path fill="#ccc" d="M604.29474,232.12068,586.432,269.63762h-.00749l-.64739,1.36247L561.358,322.29226l-1.35493-.64736,24.41912-51.28467.64735-1.37,17.86273-37.50936C603.39143,231.69161,603.84306,231.9024,604.29474,232.12068Z" transform="translate(-275.00977 -122.99479)"/><path fill="#ccc" d="M642.18052,261.37243l-32.28534,26.56448-1.16675.96349-44.13358,36.31252-.956-1.15922,44.111-36.29749,1.15926-.956,32.29283-26.572C641.53312,260.60466,641.86433,260.98852,642.18052,261.37243Z" transform="translate(-275.00977 -122.99479)"/><path fill="#ccc" d="M666.72759,313.83892l-41.33337,7.79091-1.47536.27852-56.56144,10.66646-.27851-1.4754,56.59153-10.67395,1.4754-.271v-.00754l41.31827-7.78342C666.562,312.85282,666.6448,313.34213,666.72759,313.83892Z" transform="translate(-275.00977 -122.99479)"/><path fill="#ccc" d="M657.95054,379.56881c-.21075.45163-.42908.90331-.64736,1.35494l-38.23955-17.32826-1.37-.62474-51.646-23.40294.62475-1.37,51.67611,23.418,1.37.6248Z" transform="translate(-275.00977 -122.99479)"/><path fill="#ccc" d="M608.5628,431.26c-.4441.23335-.88824.46669-1.33238.69251l-19.64668-36.6362-.71512-1.33237-26.85048-50.07272,1.32484-.70758,26.858,50.08778.70758,1.32484h.00753Z" transform="translate(-275.00977 -122.99479)"/><path fill="#ccc" d="M552.65625,345.12309l-9.462,55.55274-.25595,1.49047-6.96291,40.844c-.4968-.08279-.99363-.16558-1.48294-.25591l6.95542-40.85161.25591-1.48289,9.462-55.55278Z" transform="translate(-275.00977 -122.99479)"/><path fill="#ccc" d="M553.08532,320.67388l-1.49043.21074-7.97161-56.10976-.21075-1.49043-5.82625-41.02472c.49679-.06777.99363-.143,1.49042-.21079l5.82626,41.01719.21079,1.49047Z" transform="translate(-275.00977 -122.99479)"/><ellipse cx="279.829" cy="209.768" fill="#3f3d56" rx="14.302" ry="14.084"/><polygon fill="#a0616a" points="574.04 603.485 563.335 612.448 523.665 575.422 539.465 562.192 574.04 603.485"/><path fill="#2f2e41" d="M858.77847,737.33113l-32.91985,27.56511-.34862-.41631a16.713,16.713,0,0,1,2.08349-23.54231l.0008-.00067,2.193-9.59715,15.03967-4.83235,2.87368-2.40626Z" transform="translate(-275.00977 -122.99479)"/><polygon fill="#a0616a" points="478.393 637.666 464.432 637.665 457.789 583.809 478.397 583.81 478.393 637.666"/><path fill="#2f2e41" d="M753.8953,775.22645l-42.93661-.00162v-.543A16.713,16.713,0,0,1,727.67081,757.97h.001l7.84292-5.95005,14.63316,5.951,3.74808.00013Z" transform="translate(-275.00977 -122.99479)"/><path fill="#2f2e41" d="M788.3258,502.93838c3.37285,4.21606,1.68642,18.55068,1.68642,18.55068l.827,89.27394c14.33462,11.805,25.31259,60.818,25.31259,60.818L829.83923,696.763c-1.68642,5.05927-12.62715,24.84321-16,24-1.565-.39126-21.04511-18.35672-34-45-14.965-30.77737-23.55552-70.79586-23.55552-70.79586s1.68642,114.677,1.68642,119.73622-22.76674,2.52964-27.826,2.52964-31.10137-206.58718-31.10137-206.58718v-11.805l4.21607-5.90249S784.953,498.72231,788.3258,502.93838Z" transform="translate(-275.00977 -122.99479)"/><path fill="#3f3d56" d="M607.06463,312.32775l-10.2254,4.77185,11.39555-2.38592s8.37356.34084,8.37356-3.06762l13.63387-7.49863s11.58879,6.13524,14.99725,2.72677-2.72677-10.2254-2.72677-10.2254,4.10691-2.26515,3.75769-3.17765-5.80277.45088-5.80277.45088-12.95218-7.49863-12.27048,5.45355l-13.63387,9.03914S607.74633,308.23759,607.06463,312.32775Z" transform="translate(-275.00977 -122.99479)"/><path fill="#98a3bb" d="M793.011,532.13081c-17.8948,8.8784-39.188,11.56376-59.2449,9.20617-17.291-2.03562-20.88626-21.35461-36.93525-28.2089,5.07173-14.57117,5.13252-33.915,4.27571-39.34326-1.46631-9.26941-1.7385-73.87545,3.63225-80.60326,7.04407-8.82663,17.797-13.54185,17.30827-24.82385l1.50656,1.54682c-1.90333-5.00849,1.78257-10.74148,6.63579-13.00708s10.45972-1.97809,15.80752-1.6446q6.75354.42269,13.50735.8453a12.14233,12.14233,0,0,0,1.817,10.94848c7.98136-2.20232,16.39975,3.65144,19.96488,11.11526,3.56513,7.46958,3.47894,16.08921,3.31791,24.36384-.18405,9.57419,6.91182,76.812-1.67327,81.06713,4.42767,1.11555,10.6863,24.729,6.90841,22.17014C791.58726,506.9878,791.16516,518.42218,793.011,532.13081Z" transform="translate(-275.00977 -122.99479)"/><path fill="#a0616a" d="M619.06875,301.20022a13.75673,13.75673,0,0,1,17.55419,11.69714L712.549,379.65522,698.83923,388.763l-75.35906-60.44942a13.83134,13.83134,0,0,1-4.41142-27.11336Z" transform="translate(-275.00977 -122.99479)"/><path fill="#98a3bb" d="M700.83347,358.11947c-1.66217.09544-40.90127-28.53614-41.90525-27.20828l-2.63691,14.30135h0l-7.253,9.59141h0l15.67919,16.621,4.47977,3.6744,2.87986,3.04525c-1.00744,1.34759,5.68,8.56847,6.04221,10.21625a5.76267,5.76267,0,0,0,2.86516,3.83228l25.51407,13.8434a16.00195,16.00195,0,0,0,19.148-25.64364L721.883,376.5865l-5.76443-5.84213-10.78788-10.925A5.7331,5.7331,0,0,0,700.83347,358.11947Z" transform="translate(-275.00977 -122.99479)"/><circle cx="468.152" cy="197.02" r="27.677" fill="#a0616a"/><path fill="#2f2e41" d="M776.17816,311.24969c-1.53906-6.10748-7.27985-11.43573-13.54791-10.81781.77441-4.70532-2.35767-9.4433-6.57935-11.66077s-9.26434-2.3125-13.97-1.54028a83.11479,83.11479,0,0,0-8.10876,1.89441c-2.26471.60956-12.88343-3.02576-15.13294-2.36224-1.92383.5675-6.55322,7.45965-8.01361,8.83459-1.46045,1.37488-2.23382,3.68878-1.25836,5.44135.96313,1.7304,3.16681,2.294,5.14056,2.45611,1.9737.16205,4.09449.13355,5.73285,1.2461,2.10559,1.42993,2.70191,4.281,2.61634,6.82476-.08558,2.54383-.66889,5.10913-.19385,7.60968.475,2.50049,2.49835,4.99829,5.03778,4.82648,1.9013-2.00427,5.37414-1.87555,7.55505-.17981a9.608,9.608,0,0,1,3.28333,7.32092,29.77105,29.77105,0,0,1-1.277,8.15955c-.45691,1.82782-.80121,4.04327.55231,5.35388a5.48258,5.48258,0,0,0,2.77,1.15631c3.99591.84876,18.99182-.30249,22.98773.54633l-.30933-.61035c2.89472-5.59381,6.73639-10.65894,9.58148-16.2782S777.71722,317.35723,776.17816,311.24969Z" transform="translate(-275.00977 -122.99479)"/><path fill="#a0616a" d="M818.66159,539.83473a13.7568,13.7568,0,0,1-9.40425-18.88208l-32.63055-95.69026,16.42409-1.07653,35.27837,89.93641a13.83133,13.83133,0,0,1-9.66766,25.71246Z" transform="translate(-275.00977 -122.99479)"/><path fill="#98a3bb" d="M769.0703,437.77224c1.4892.74446,21.274,45.107,22.80563,44.455l9.40473-11.092h0l11.06442-4.70948h0l-5.32743-22.21963-2.05686-5.41654-.98228-4.07459c1.54448-.66745-.6622-10.2588-.15627-11.86826a5.76267,5.76267,0,0,0-.57784-4.7499L788.00425,393.3916a16.00194,16.00194,0,0,0-29.37062,12.71251l1.37,5.17454,2.09227,7.93609,3.9197,14.84489A5.73309,5.73309,0,0,0,769.0703,437.77224Z" transform="translate(-275.00977 -122.99479)"/><path fill="#f0f0f0" d="M895.3304,759.39117l-7.71-12.39-1.54,7.08008c-.27,1.24-.54,2.5-.79,3.75-2.18994-1.87012-4.52-3.6001-6.79981-5.26q-10.5-7.62012-20.99023-15.26l2.18994,12.69995c1.3501,7.82007,2.76025,15.80005,6.1001,22.95.37011.81006.77,1.61011,1.20019,2.39014h32.54a10.48759,10.48759,0,0,0,.54-2.24012.77391.77391,0,0,0,.00977-.15C900.59065,768.11114,897.91047,763.5412,895.3304,759.39117Z" transform="translate(-275.00977 -122.99479)"/><path fill="#cacaca" d="M922.87171,776.56886l-275.75.30733a1.19068,1.19068,0,0,1,0-2.38137l275.75-.30733a1.19069,1.19069,0,1,1,0,2.38137Z" transform="translate(-275.00977 -122.99479)"/><path fill="#f0f0f0" d="M524.40914,568.91873l-7.71-12.39-1.54,7.08008c-.27,1.24-.54,2.5-.79,3.75-2.18994-1.87012-4.52-3.6001-6.79981-5.26q-10.5-7.62012-20.99023-15.26l2.18994,12.69995c1.3501,7.82007,2.76025,15.80005,6.1001,22.95.37011.81006.77,1.61011,1.20019,2.39014h32.54a10.48759,10.48759,0,0,0,.54-2.24012.77391.77391,0,0,0,.00977-.15C529.66939,577.6387,526.98921,573.06876,524.40914,568.91873Z" transform="translate(-275.00977 -122.99479)"/><path fill="#cacaca" d="M551.95045,586.09642l-275.75.30733a1.19069,1.19069,0,0,1,0-2.38137l275.75-.30733a1.19069,1.19069,0,1,1,0,2.38137Z" transform="translate(-275.00977 -122.99479)"/><path fill="#ffb6b6" d="M424.4147,356.19772a9.33922,9.33922,0,0,1-5.351-13.28333l-25.21838-71.53966,2.525-23.801,10.28873-6.65963,10.3855,33.2707,15.29285,65.13063a9.38986,9.38986,0,0,1-7.92267,16.88225Z" transform="translate(-275.00977 -122.99479)"/><polygon fill="#3f3d56" points="105.247 99.545 129.098 90.313 142.946 136.474 110.982 146.603 105.247 99.545"/></svg>