<svg xmlns="http://www.w3.org/2000/svg" xmlns:xlink="http://www.w3.org/1999/xlink" width="740.857" height="511.675" data-name="Layer 1" viewBox="0 0 740.857 511.675"><path fill="#fff" d="M963.4284,387.83741h-.20019l-114.79981,49.02-157.06982,67.07a5.06611,5.06611,0,0,1-3.88037.02l-162.04981-67.23-117.62011-48.8-.17969-.08h-.2002a7.00778,7.00778,0,0,0-7,7v304a7.00779,7.00779,0,0,0,7,7h556a7.00778,7.00778,0,0,0,7-7v-304A7.00778,7.00778,0,0,0,963.4284,387.83741Z" transform="translate(-229.5716 -194.16259)"/><path fill="#3f3d56" d="M965.42767,389.83741a.99681.99681,0,0,1-.5708-.1792L688.298,197.05469a5.01546,5.01546,0,0,0-5.72851.00977L408.00274,389.65626a1.00019,1.00019,0,0,1-1.14868-1.6377l274.567-192.5918a7.02216,7.02216,0,0,1,8.02-.01318l276.55884,192.603a1.00019,1.00019,0,0,1-.57227,1.8208Z" transform="translate(-229.5716 -194.16259)"/><polygon fill="#e6e6e6" points="194.121 202.502 456.132 8.319 720.132 216.319 469.632 364.819 333.632 333.819 194.121 202.502"/><path fill="#98a3bb" d="M574.68393,650.70367H445.24362a6.04737,6.04737,0,1,1,0-12.09473H574.68393a6.04737,6.04737,0,1,1,0,12.09473Z" transform="translate(-229.5716 -194.16259)"/><path fill="#98a3bb" d="M491.68393,624.70367H445.24362a6.04737,6.04737,0,1,1,0-12.09473h46.44031a6.04737,6.04737,0,1,1,0,12.09473Z" transform="translate(-229.5716 -194.16259)"/><path fill="#fff" d="M689.38856,504.82207a7.56366,7.56366,0,0,1-2.86914-.562L524.9286,437.21123v-209.874a7.00818,7.00818,0,0,1,7-7h310a7.00817,7.00817,0,0,1,7,7v210.0205l-.30371.12989L692.34462,504.22734A7.6162,7.6162,0,0,1,689.38856,504.82207Z" transform="translate(-229.5716 -194.16259)"/><path fill="#3f3d56" d="M689.38856,505.32158a8.07177,8.07177,0,0,1-3.05957-.59863L524.4286,437.54521v-210.208a7.50851,7.50851,0,0,1,7.5-7.5h310a7.50851,7.50851,0,0,1,7.5,7.5V437.68779l-156.88769,66.999A8.10962,8.10962,0,0,1,689.38856,505.32158Zm-162.96-69.1123,160.66309,66.66455a6.11822,6.11822,0,0,0,4.668-.02784L847.4286,436.36748V227.33721a5.50653,5.50653,0,0,0-5.5-5.5h-310a5.50654,5.50654,0,0,0-5.5,5.5Z" transform="translate(-229.5716 -194.16259)"/><path fill="#3f3d56" d="M963.4284,387.83741h-.20019l-114.79981,49.02-157.06982,67.07a5.06611,5.06611,0,0,1-3.88037.02l-162.04981-67.23-117.62011-48.8-.17969-.08h-.2002a7.00778,7.00778,0,0,0-7,7v304a7.00779,7.00779,0,0,0,7,7h556a7.00778,7.00778,0,0,0,7-7v-304A7.00778,7.00778,0,0,0,963.4284,387.83741Zm5,311a5.002,5.002,0,0,1-5,5h-556a5.002,5.002,0,0,1-5-5v-304a5.01106,5.01106,0,0,1,4.81006-5l118.18994,49.04,161.28028,66.92a7.12081,7.12081,0,0,0,5.43994-.03l156.27978-66.74,115.2002-49.19a5.0162,5.0162,0,0,1,4.7998,5Z" transform="translate(-229.5716 -194.16259)"/><path fill="#98a3bb" d="M664.23161,298.78882h-110a8,8,0,1,1,0-16h110a8,8,0,0,1,0,16Z" transform="translate(-229.5716 -194.16259)"/><path fill="#98a3bb" d="M607.23161,264.78882h-53a8,8,0,1,1,0-16h53a8,8,0,0,1,0,16Z" transform="translate(-229.5716 -194.16259)"/><path fill="#ccc" d="M769.20012,378.78882h-168a8,8,0,1,1,0-16h168a8,8,0,0,1,0,16Z" transform="translate(-229.5716 -194.16259)"/><path fill="#ccc" d="M769.20012,415.78882h-168a8,8,0,1,1,0-16h168a8,8,0,0,1,0,16Z" transform="translate(-229.5716 -194.16259)"/><path fill="#2f2e41" d="M270.5196,425.141a4.50805,4.50805,0,0,1-4.41113-3.61572L262.4698,403.3861a37.00031,37.00031,0,0,1,72.55566-14.55225l3.6377,18.13916a4.50457,4.50457,0,0,1-3.52637,5.29688L271.40632,425.0526A4.51285,4.51285,0,0,1,270.5196,425.141Z" transform="translate(-229.5716 -194.16259)"/><polygon fill="#a0616a" points="154.088 501.059 142.656 501.058 137.22 456.962 154.092 456.963 154.088 501.059"/><path fill="#2f2e41" d="M134.49,497.79125h22.04782a0,0,0,0,1,0,0v13.88195a0,0,0,0,1,0,0H120.60812a0,0,0,0,1,0,0v0A13.88193,13.88193,0,0,1,134.49,497.79125Z"/><polygon fill="#a0616a" points="34.969 500.944 24.442 496.486 36.63 453.76 52.166 460.341 34.969 500.944"/><path fill="#2f2e41" d="M244.738,685.49875h22.04781a0,0,0,0,1,0,0V699.3807a0,0,0,0,1,0,0H230.856a0,0,0,0,1,0,0v0A13.88193,13.88193,0,0,1,244.738,685.49875Z" transform="translate(60.18447 -236.37171) rotate(22.95463)"/><circle cx="70.224" cy="201.872" r="24.561" fill="#a0616a"/><path fill="#3f3d56" d="M300.95772,507.76609l-.252-.81836c-6.69263-21.75439-13.61035-44.23975-20.53784-65.62549l-.1875-.57715.42578-.43261c10.75293-10.93848,30.89721-15.30176,46.85864-10.146,16.064,5.18555,27.134,19.731,25.75024,33.83447a36.13073,36.13073,0,0,0,6.428,23.89307l.64087.92969-1.00195.52344A181.86993,181.86993,0,0,1,301.80562,507.643Z" transform="translate(-229.5716 -194.16259)"/><path fill="#2f2e41" d="M271.3359,687.18308a4.98652,4.98652,0,0,1-2.49341-.67285l-13.26734-7.66211a4.97281,4.97281,0,0,1-2.03027-6.44629l29.48071-69.95215,22.53076-102.02441,41.0608-14.93066.37329.17187c44.02173,20.22168,40.61889,165.165,39.4895,194.01563a5.005,5.005,0,0,1-4.55835,4.77636l-12.34717,1.61328a5.0459,5.0459,0,0,1-5.40918-4.13671l-25.207-112.6543a1.00107,1.00107,0,0,0-.82251-.86817.97679.97679,0,0,0-1.04224.49219L275.70821,684.61961a4.97955,4.97955,0,0,1-3.04956,2.38476A5.04155,5.04155,0,0,1,271.3359,687.18308Z" transform="translate(-229.5716 -194.16259)"/><path fill="#a0616a" d="M286.08274,584.37668a9.37694,9.37694,0,0,0-3.87036-13.84776l.67146-21.41747L269.968,545.529l-.52343,30.25894a9.42778,9.42778,0,0,0,16.63814,8.58875Z" transform="translate(-229.5716 -194.16259)"/><path fill="#98a3bb" d="M269.6357,561.73777l-.75806-.00391a4.96987,4.96987,0,0,1-4.92309-4.60644c-1.23877-15.95117-5.043-70.28613-1.97925-99.74463a20.76393,20.76393,0,0,1,24.1853-17.40869l.78858.17431-.00586.80811c-.28076,38.7583-.2627,77.29-.24512,114.55371a4.99852,4.99852,0,0,1-3.90527,4.88965A64.50946,64.50946,0,0,1,269.6357,561.73777Z" transform="translate(-229.5716 -194.16259)"/><path fill="#98a3bb" d="M299.038,608.22117a13.58219,13.58219,0,0,1-13.42285-11.93164l1.08765-89.45117-17.779-44.96973a26.40455,26.40455,0,0,1,16.98462-28.06348l4.75293-1.78271a7.28575,7.28575,0,0,1,9.38964,4.291L318.38375,485.811l.00464.07227c1.27124,19.70019,7.00854,117.749-4.43067,120.67383a63.11805,63.11805,0,0,1-14.78979,1.66308Z" transform="translate(-229.5716 -194.16259)"/><path fill="#a0616a" d="M404.65474,550.60549a9.377,9.377,0,0,1-4.41049-13.68532l-12.3744-17.4938,8.79685-10.11275,17.12808,24.95007a9.42779,9.42779,0,0,1-9.14,16.3418Z" transform="translate(-229.5716 -194.16259)"/><path fill="#98a3bb" d="M392.29806,528.12344a4.03709,4.03709,0,0,1-3.24621-1.80777l-.065-.09847c-20.47511-30.9902-41.64716-63.03519-63.10521-94.98042l-.231-.34423.29529-.291a19.09777,19.09777,0,0,1,14.08426-5.10753,18.82025,18.82025,0,0,1,13.90706,6.52325c18.75145,22.81535,45.51338,70.16921,53.26874,84.1399a3.962,3.962,0,0,1-1.23382,5.23137,63.42116,63.42116,0,0,1-12.16521,6.47171A3.82563,3.82563,0,0,1,392.29806,528.12344Z" transform="translate(-229.5716 -194.16259)"/><path fill="#98a3bb" d="M385.424,588.28465c-12.26416.00781-56.1438-84.48243-64.81543-101.41993l-.075-.20507-9.59277-51.82813a7.28388,7.28388,0,0,1,5.8667-8.49365l4.99609-.90332a26.40512,26.40512,0,0,1,28.95972,15.40674l12.53466,52.6875,41.91309,71.21191a13.59134,13.59134,0,0,1-5.47681,17.292,63.07627,63.07627,0,0,1-13.55566,6.14649,2.67131,2.67131,0,0,1-.75464.10547Z" transform="translate(-229.5716 -194.16259)"/><path fill="#2f2e41" d="M318.87117,396.24694h-49.5v-6a25.02817,25.02817,0,0,1,25-25h4a25.02817,25.02817,0,0,1,25,25v1.5A4.50493,4.50493,0,0,1,318.87117,396.24694Z" transform="translate(-229.5716 -194.16259)"/></svg>