<svg xmlns="http://www.w3.org/2000/svg" width="493" height="376" fill="none" viewBox="0 0 493 376"><g clip-path="url(#clip0_821_278)"><path fill="#FFB8B8" d="M170.825 366.188L175.668 367.639L183.569 349.645L176.421 347.504L170.825 366.188Z"/><path fill="#2F2E41" d="M170.063 364.236L179.602 367.094L179.602 367.094C181.214 367.577 182.569 368.68 183.367 370.162C184.166 371.644 184.343 373.382 183.86 374.994L183.801 375.192L168.183 370.513L170.063 364.236Z"/><path fill="#FFB8B8" d="M216.854 370.146L221.602 368.405L217.148 349.265L210.141 351.834L216.854 370.146Z"/><path fill="#2F2E41" d="M215.076 369.04L224.425 365.611L224.425 365.611C226.005 365.032 227.751 365.104 229.277 365.812C230.804 366.52 231.988 367.805 232.567 369.385L232.638 369.579L217.331 375.192L215.076 369.04Z"/><path fill="#2F2E41" d="M178.946 333.615L170.698 360.837L180.596 363.724L190.081 338.564L178.946 333.615Z"/><path fill="#2F2E41" d="M204.929 339.802L212.353 365.373L222.663 360.424L215.24 336.502L204.929 339.802Z"/><path fill="#3F3D56" d="M201.065 344.414C194.463 344.383 187.876 343.776 181.38 342.598L181.215 342.564V336.274L177.445 335.855L180.387 325.346C179.016 309.155 180.965 288.652 181.595 282.75C181.74 281.366 181.835 280.589 181.835 280.589L185.143 252.468L190.678 247.358L193.193 248.994L197.857 253.659C203.279 267.003 207.581 279.566 207.609 280.374L225.791 338.646L225.669 338.732C219.355 343.19 209.731 344.414 201.065 344.414Z"/><path fill="#000" d="M187.489 264.941L186.217 272.878L194.824 276.428L187.489 264.941Z" opacity=".2"/><path fill="#2F2E41" d="M204.377 247.317H184.478C184.068 247.316 183.676 247.153 183.386 246.864C183.097 246.574 182.934 246.182 182.934 245.773V237.194C182.94 234.15 184.153 231.232 186.308 229.081C188.463 226.93 191.383 225.722 194.428 225.722C197.472 225.722 200.392 226.93 202.547 229.081C204.702 231.232 205.915 234.15 205.921 237.194V245.773C205.921 246.182 205.758 246.574 205.469 246.864C205.179 247.153 204.787 247.316 204.377 247.317V247.317Z"/><path fill="#FFB8B8" d="M196.625 246.8C201.279 246.8 205.052 243.027 205.052 238.372C205.052 233.718 201.279 229.945 196.625 229.945C191.971 229.945 188.198 233.718 188.198 238.372C188.198 243.027 191.971 246.8 196.625 246.8Z"/><path fill="#2F2E41" d="M208.641 238.052H196.472L196.347 236.305L195.724 238.052H193.85L193.603 234.589L192.366 238.052H188.741V237.88C188.743 235.47 189.702 233.159 191.407 231.454C193.111 229.749 195.422 228.79 197.833 228.788H199.548C201.959 228.79 204.27 229.749 205.975 231.454C207.679 233.158 208.638 235.47 208.641 237.88V238.052Z"/><path fill="#2F2E41" d="M196.373 248.918C196.281 248.918 196.19 248.91 196.099 248.894L187.189 247.322V232.595H196.998L196.755 232.878C193.376 236.818 195.922 243.208 197.74 246.666C197.874 246.92 197.933 247.205 197.912 247.491C197.891 247.777 197.789 248.051 197.619 248.281C197.476 248.478 197.289 248.639 197.072 248.75C196.856 248.86 196.616 248.918 196.373 248.918V248.918Z"/><path fill="#98A3BB" d="M212.095 284.514H207.211C207.054 284.515 206.903 284.456 206.787 284.351C206.671 284.246 206.598 284.101 206.583 283.945L205.606 273.924H213.7L212.722 283.945C212.707 284.101 212.635 284.246 212.519 284.351C212.403 284.456 212.251 284.515 212.095 284.514V284.514Z"/><path fill="#2F2E41" d="M213.687 275.185H205.619C205.452 275.185 205.291 275.118 205.173 275C205.055 274.882 204.988 274.722 204.988 274.554V273.041C204.988 272.874 205.055 272.714 205.173 272.596C205.291 272.478 205.452 272.411 205.619 272.411H213.687C213.854 272.411 214.014 272.478 214.132 272.596C214.25 272.714 214.317 272.874 214.317 273.041V274.554C214.317 274.722 214.25 274.882 214.132 275C214.014 275.118 213.854 275.185 213.687 275.185V275.185Z"/><path fill="#000" d="M182.039 280.202C184.282 282.799 187.324 284.577 190.688 285.257C194.051 285.937 197.545 285.48 200.62 283.958L202.454 283.05L182.039 280.202Z" opacity=".2"/><path fill="#FFB8B8" d="M211.363 278.262C210.987 277.84 210.523 277.505 210.004 277.281C209.485 277.058 208.923 276.951 208.358 276.968C207.792 276.985 207.238 277.126 206.733 277.38C206.228 277.635 205.785 277.997 205.436 278.441L196.927 276.052L194.215 280.869L206.278 284.074C207.063 284.612 208.018 284.843 208.962 284.724C209.907 284.605 210.775 284.143 211.402 283.427C212.028 282.711 212.371 281.789 212.364 280.837C212.356 279.885 212 278.969 211.363 278.262V278.262Z"/><path fill="#3F3D56" d="M191.059 283.608C187.014 283.608 181.54 281.236 175.043 276.642C174.68 276.391 174.374 276.068 174.144 275.692C173.913 275.317 173.763 274.898 173.703 274.461C173.223 271.425 176.185 267.319 176.476 266.926L179.589 258.375C179.625 258.236 180.628 254.537 183.147 253.22C183.678 252.948 184.261 252.794 184.856 252.769C185.452 252.744 186.046 252.847 186.597 253.073C191.395 254.821 187.649 268.313 187.134 270.083L193.491 273.075L197.528 275.648L203.056 276.227L201.555 283.173L193.159 283.362C192.472 283.531 191.767 283.613 191.059 283.608V283.608Z"/><path fill="#E6E6E6" d="M492.819 220.234C492.815 212.116 491.005 204.1 487.521 196.768C484.036 189.436 478.964 182.971 472.673 177.841C466.381 172.711 459.027 169.045 451.144 167.109C443.261 165.173 435.046 165.014 427.094 166.645C419.142 168.277 411.652 171.656 405.168 176.54C398.683 181.423 393.366 187.688 389.602 194.88C385.837 202.073 383.72 210.012 383.402 218.124C383.085 226.236 384.576 234.317 387.768 241.781C387.714 241.722 387.659 241.664 387.606 241.604C390.037 247.27 393.407 252.486 397.574 257.03C397.586 257.044 397.599 257.057 397.611 257.071C397.947 257.437 398.286 257.802 398.632 258.159C403.633 263.376 409.621 267.547 416.247 270.43C422.874 273.314 430.007 274.852 437.233 274.956L435.384 375.412H441.097L439.941 309.11L448.206 304.758L446.945 302.363L439.888 306.079L439.345 274.951C453.639 274.623 467.237 268.715 477.23 258.489C487.224 248.263 492.819 234.532 492.819 220.234V220.234Z"/><path fill="#E6E6E6" d="M330.381 193.557C330.375 184.043 328.254 174.65 324.171 166.057C320.087 157.465 314.144 149.888 306.77 143.876C299.397 137.865 290.779 133.569 281.541 131.3C272.302 129.03 262.675 128.845 253.356 130.756C244.037 132.668 235.26 136.628 227.66 142.351C220.061 148.074 213.83 155.416 209.418 163.845C205.007 172.274 202.525 181.579 202.153 191.085C201.782 200.591 203.529 210.062 207.269 218.809C207.207 218.739 207.142 218.672 207.079 218.602C209.928 225.242 213.878 231.354 218.761 236.679C218.775 236.695 218.79 236.711 218.805 236.727C219.199 237.156 219.595 237.583 220.001 238.002C225.862 244.116 232.879 249.004 240.645 252.383C248.41 255.763 256.77 257.565 265.238 257.687L263.071 375.412H269.767L268.411 297.712L278.097 292.613L276.62 289.806L268.349 294.16L267.713 257.681C284.464 257.297 300.4 250.373 312.112 238.389C323.823 226.405 330.38 210.314 330.381 193.557V193.557Z"/><path fill="#E6E6E6" d="M146.156 168.464C146.15 157.638 143.737 146.948 139.09 137.17C134.443 127.392 127.679 118.77 119.288 111.929C110.898 105.088 101.091 100.199 90.5776 97.6166C80.0645 95.0342 69.1086 94.823 58.5037 96.9983C47.8989 99.1735 37.9107 103.681 29.2628 110.193C20.6149 116.706 13.5239 125.061 8.50358 134.653C3.48324 144.244 0.65929 154.833 0.236335 165.651C-0.186619 176.469 1.80202 187.246 6.05815 197.201C5.98679 197.121 5.91304 197.044 5.84202 196.964C9.08391 204.521 13.5781 211.476 19.1353 217.536C19.1518 217.554 19.1689 217.572 19.1855 217.591C19.6339 218.079 20.0848 218.565 20.5462 219.042C27.216 225.999 35.2014 231.562 44.0386 235.407C52.8758 239.253 62.3888 241.304 72.0254 241.443L69.5591 375.412H77.1787L75.6366 286.991L86.6587 281.188L84.9773 277.994L75.5661 282.949L74.8421 241.436C93.9045 240.999 112.039 233.119 125.367 219.482C138.694 205.845 146.156 187.533 146.156 168.464V168.464Z"/><path fill="#D9DB87" d="M420.097 95.4712C446.458 95.4712 467.829 74.0992 467.829 47.7356C467.829 21.372 446.458 0 420.097 0C393.735 0 372.365 21.372 372.365 47.7356C372.365 74.0992 393.735 95.4712 420.097 95.4712Z"/><path fill="#98A3BB" d="M136.329 199.84C189.163 199.84 231.993 157.006 231.993 104.169C231.993 51.331 189.163 8.49756 136.329 8.49756C83.4956 8.49756 40.6653 51.331 40.6653 104.169C40.6653 157.006 83.4956 199.84 136.329 199.84Z"/><path fill="#000" d="M65.6942 40.2676C56.7708 61.1423 55.5603 84.5102 62.2789 106.195C68.9976 127.881 83.2075 146.47 102.369 158.642C121.532 170.814 144.397 175.775 166.88 172.639C189.363 169.503 209.998 158.474 225.099 141.523C219.648 154.277 211.489 165.693 201.189 174.98C190.888 184.267 178.692 191.204 165.444 195.309C152.197 199.415 138.215 200.591 124.468 198.755C110.722 196.92 97.5379 192.118 85.831 184.682C74.124 177.246 64.1737 167.353 56.6693 155.689C49.165 144.025 44.2861 130.869 42.3707 117.132C40.4552 103.395 41.549 89.4055 45.5763 76.1333C49.6036 62.8611 56.4681 50.6232 65.6942 40.2676V40.2676Z" opacity=".2"/><path fill="#3F3D56" d="M136.592 104.168H136.855L141.586 375.412H131.599L136.592 104.168Z"/><path fill="#3F3D56" d="M151.807 247.727L135.994 256.053L138.197 260.239L154.011 251.913L151.807 247.727Z"/><path fill="#3F3D56" d="M282.651 372.875C282.651 372.875 282.996 365.642 290.071 366.483Z"/><path fill="#98A3BB" d="M280.651 365.992C282.607 365.992 284.193 364.407 284.193 362.451C284.193 360.495 282.607 358.909 280.651 358.909C278.696 358.909 277.11 360.495 277.11 362.451C277.11 364.407 278.696 365.992 280.651 365.992Z"/><path fill="#3F3D56" d="M281.075 368.414H280.075V375.412H281.075V368.414Z"/><path fill="#3F3D56" d="M37.2431 371.875C37.2431 371.875 37.5882 364.642 44.6639 365.483Z"/><path fill="#98A3BB" d="M35.2438 364.992C37.1996 364.992 38.7851 363.407 38.7851 361.451C38.7851 359.495 37.1996 357.909 35.2438 357.909C33.288 357.909 31.7025 359.495 31.7025 361.451C31.7025 363.407 33.288 364.992 35.2438 364.992Z"/><path fill="#3F3D56" d="M35.6672 367.415H34.6676V374.412H35.6672V367.415Z"/><path fill="#3F3D56" d="M95.2213 372.375C95.2213 372.375 95.5665 365.142 102.642 365.983Z"/><path fill="#98A3BB" d="M93.222 365.492C95.1778 365.492 96.7633 363.907 96.7633 361.951C96.7633 359.995 95.1778 358.409 93.222 358.409C91.2662 358.409 89.6807 359.995 89.6807 361.951C89.6807 363.907 91.2662 365.492 93.222 365.492Z"/><path fill="#3F3D56" d="M93.6454 367.915H92.6458V374.912H93.6454V367.915Z"/><path fill="#3F3D56" d="M249.411 46.2492L256.514 40.5674C250.996 39.9585 248.729 42.9683 247.801 45.3506C243.49 43.5603 238.796 45.9066 238.796 45.9066L253.009 51.0667C252.292 49.1514 251.044 47.4803 249.411 46.2492V46.2492Z"/><path fill="#3F3D56" d="M357.44 104.126L364.543 98.4443C359.025 97.8354 356.758 100.845 355.83 103.228C351.519 101.437 346.825 103.784 346.825 103.784L361.038 108.944C360.321 107.028 359.073 105.357 357.44 104.126V104.126Z"/><path fill="#3F3D56" d="M240.923 153.514L248.026 147.833C242.508 147.224 240.241 150.233 239.313 152.616C235.002 150.825 230.308 153.172 230.308 153.172L244.521 158.332C243.804 156.417 242.556 154.745 240.923 153.514Z"/><path fill="#3F3D56" d="M379.552 375.5C379.552 375.5 379.897 368.267 386.973 369.108Z"/><path fill="#3F3D56" d="M313.077 375.5C313.077 375.5 313.422 368.267 320.498 369.108Z"/><path fill="#3F3D56" d="M70.6682 375.5C70.6682 375.5 71.0133 368.267 78.0889 369.108Z"/><path fill="#3F3D56" d="M409.541 375.5C409.541 375.5 409.886 368.267 416.961 369.108Z"/><path fill="#3F3D56" d="M395.546 375.5C395.546 375.5 395.891 368.267 402.967 369.108Z"/><path fill="#3F3D56" d="M366.677 375.5C366.677 375.5 366.332 368.267 359.256 369.108Z"/><path fill="#3F3D56" d="M251.72 375.5C251.72 375.5 251.375 368.267 244.3 369.108Z"/><path fill="#3F3D56" d="M156.256 375.5C156.256 375.5 155.911 368.267 148.836 369.108Z"/><path fill="#3F3D56" d="M54.7945 375.5C54.7945 375.5 54.4494 368.267 47.3738 369.108Z"/><path fill="#3F3D56" d="M439.65 375.5C439.65 375.5 439.304 368.267 432.229 369.108Z"/><path fill="#3F3D56" d="M396.666 376C396.666 376 396.321 368.767 389.245 369.608Z"/><path fill="#3F3D56" d="M493 374.555H0V375.665H493V374.555Z"/></g><defs><clipPath id="clip0_821_278"><rect width="493" height="376" fill="#fff"/></clipPath></defs></svg>