<svg xmlns="http://www.w3.org/2000/svg" xmlns:xlink="http://www.w3.org/1999/xlink" width="829.144" height="727.645" viewBox="0 0 829.144 727.645"><g><path fill="#f2f2f2" d="M634.294,445.8445c-.84552-2.58737-7.25395-1.44828-7.86924-3.76253-.61315-2.3059,5.53621-4.23942,10.25246-10.73769,.85055-1.17187,6.21015-8.55671,4.15458-11.66274-3.89631-5.88746-31.00545,8.77589-37.51257,.54732-1.42812-1.80583-2.0157-4.90602-6.26998-10.67556-1.69248-2.29523-2.77828-3.40329-4.07564-3.3705-1.84085,.0465-2.49951,2.34944-5.39278,6.52103-4.33901,6.25614-5.90483,5.4707-8.76322,10.59668-2.12191,3.80526-2.37337,6.23666-3.90353,6.37996-2.16533,.20285-3.06005-4.53486-5.7059-4.71867-2.69995-.18749-5.40167,4.49383-6.74099,8.15128-2.51338,6.86346-.95701,12.10946-.61194,17.33762,.37494,5.68167-.50546,13.9987-6.67881,24.67372l-58.22788,92.7713c12.50501-18.9122,48.00193-70.48406,62.30352-89.4008,4.12862-5.46085,8.56535-10.9443,15.39417-11.97589,6.57459-.99327,14.57419,2.25949,25.7399,2.07014,1.30402-.02205,4.93308-.12987,5.81584-2.05337,.72985-1.5902-1.08226-2.97287-.42306-4.46766,.88418-2.00505,4.86224-1.14483,10.28354-2.47642,3.82279-.93902,6.41992-2.49044,8.65329-3.82464,.67334-.40223,10.70397-6.47827,9.57835-9.92257l-.0001-.00002Z"/><path fill="#f2f2f2" d="M481.78446,467.50444c-1.51387-.33159-2.80379,3.14241-4.11716,2.77666-1.30868-.36439-.48337-3.94042-2.31194-8.13016-.32975-.75554-2.40785-5.5169-4.52547-5.40415-4.01379,.21361-4.6388,17.74978-10.55497,18.56934-1.29834,.17989-2.98952-.42624-7.0487-.00288-1.61485,.16843-2.47197,.38163-2.83022,1.02784-.5083,.9169,.4319,1.9047,1.64456,4.5283,1.81861,3.93469,.98129,4.47662,2.6724,7.35852,1.25541,2.13939,2.37621,2.96436,2.00501,3.7567-.52519,1.12128-3.10866,.19345-3.96227,1.43899-.87103,1.27107,.64705,3.94777,2.0557,5.66039,2.64347,3.21392,5.66727,3.96368,8.33285,5.30283,2.89677,1.45531,6.72484,4.28718,10.18297,10.3972l28.73216,55.3461c-5.67415-11.59432-20.74397-43.89657-25.90193-56.37399-1.48901-3.60196-2.90016-7.3617-1.4361-11.01102,1.40948-3.51345,5.31409-6.50114,8.44282-12.03598,.36544-.64641,1.3596-2.45867,.67028-3.44693-.5699-.81703-1.77138-.32654-2.31483-1.08142-.72895-1.01252,.84104-2.71677,1.75165-5.76177,.64212-2.14717,.63001-3.86949,.6196-5.35063-.00315-.44652-.09116-7.12274-2.10638-7.56409l-.00003,.00015Z"/><path fill="#f2f2f2" d="M510.44912,481.0085l.90313-8.33824,.55392-.52384c2.56275-2.42203,4.16594-4.98798,4.76732-7.62894,.0957-.41985,.16981-.84456,.24565-1.27706,.29991-1.71443,.67221-3.84568,2.3205-6.05932,.92247-1.23332,3.36264-4.02083,5.87932-3.04716,.67925,.2546,1.13772,.69495,1.45622,1.16182,.07995-.0811,.16187-.16182,.24945-.24949,1.0871-1.05642,1.8476-1.44343,2.58017-1.81611,.5629-.28679,1.14415-.58184,2.12781-1.36859,.43153-.34494,.77708-.65548,1.06824-.91629,.88306-.78852,2.01262-1.71181,3.55981-1.34611,1.6401,.44829,2.20244,2.01278,2.57552,3.04851,.66624,1.84744,.87148,3.11791,1.00725,3.96049,.04889,.30781,.10559,.65443,.14849,.7671,.359,.90476,4.86533,1.13874,6.56087,1.23652,3.81137,.20681,7.10939,.38577,7.90251,2.9955,.56911,1.86702-.61699,3.90335-3.62694,6.21329-.93757,.71867-1.87495,1.21468-2.69155,1.58512,.50228,.47491,.90246,1.12079,.92696,2.00046h0c.05513,2.08225-2.0805,3.68003-6.3473,4.75712-1.0603,.27067-2.48649,.62886-4.35279,.53836-.87891-.04347-1.64884-.17807-2.30525-.30385-.09787,.37401-.27735,.76283-.60088,1.13186-.94965,1.08708-2.48333,1.3635-4.56511,.75073-2.29826-.64044-4.11415-1.51138-5.71649-2.27699-1.39962-.66677-2.60641-1.23695-3.61901-1.39271-1.88337-.26339-3.63959,.89946-5.74131,2.44706l-5.26646,3.9508h-.00005Z"/><path fill="#f2f2f2" d="M525.4796,433.51565l-8.29463,1.24139-.64719-.40295c-2.99286-1.86461-5.88152-2.7645-8.58864-2.67633-.43042,.01394-.86,.04997-1.29763,.08631-1.73442,.14474-3.89044,.32524-6.44975-.70766-1.42701-.57945-4.74225-2.23278-4.4388-4.91411,.07399-.72159,.38365-1.27678,.7545-1.70328-.09877-.05674-.19761-.1155-.30462-.17798-1.29761-.78362-1.86489-1.42107-2.4112-2.03517-.4202-.47177-.85305-.95916-1.86355-1.71109-.44314-.32992-.83116-.58539-1.15729-.80087-.98675-.65413-2.16631-1.51262-2.20498-3.10198,.01761-1.70016,1.38832-2.64093,2.29554-3.26456,1.61805-1.11304,2.79488-1.63385,3.57548-1.97889,.28532-.12533,.60625-.26813,.70436-.33819,.7841-.57673-.13256-4.99502-.46805-6.65994-.7667-3.73915-1.43017-6.9747,.89307-8.40383,1.6616-1.02403,3.9322-.39326,6.93007,1.93232,.93298,.72461,1.65055,1.50552,2.21598,2.20148,.33197-.60631,.85522-1.1573,1.69992-1.40402h0c2.00018-.58148,4.08738,1.07902,6.21153,4.93305,.53078,.95696,1.239,2.24567,1.62482,4.07386,.18088,.86118,.24596,1.64006,.29081,2.30697,.38663-.00021,.80821,.0748,1.24728,.29413,1.29239,.64285,1.94884,2.05628,1.88413,4.22538-.03653,2.38555-.41839,4.36297-.75253,6.1071-.28997,1.523-.53542,2.83492-.42918,3.85391,.22297,1.88859,1.79321,3.29238,3.82333,4.93285l5.15743,4.0921h-.00021Z"/><path fill="#f2f2f2" d="M526.59758,408.60687l.90313-8.33824,.55392-.52384c2.56275-2.42203,4.16594-4.98798,4.76732-7.62894,.0957-.41985,.16981-.84456,.24565-1.27706,.29991-1.71443,.67221-3.84568,2.3205-6.05932,.92247-1.23332,3.36264-4.02083,5.87932-3.04716,.67925,.2546,1.13772,.69495,1.45622,1.16182,.07995-.0811,.16187-.16182,.24945-.24949,1.0871-1.05642,1.8476-1.44343,2.58017-1.81611,.5629-.28679,1.14415-.58184,2.12781-1.36859,.43153-.34494,.77708-.65548,1.06824-.91629,.88306-.78852,2.01262-1.71181,3.55981-1.34611,1.6401,.44829,2.20244,2.01278,2.57552,3.04851,.66624,1.84744,.87148,3.11791,1.00725,3.96049,.04889,.30781,.10559,.65443,.14849,.7671,.359,.90476,4.86533,1.13874,6.56087,1.23652,3.81137,.20681,7.10939,.38577,7.90251,2.9955,.56911,1.86702-.61699,3.90335-3.62694,6.21329-.93757,.71867-1.87495,1.21468-2.69155,1.58512,.50228,.47491,.90246,1.12079,.92696,2.00046h0c.05513,2.08225-2.0805,3.68003-6.3473,4.75712-1.0603,.27067-2.48649,.62886-4.35279,.53836-.87891-.04347-1.64884-.17807-2.30525-.30385-.09787,.37401-.27735,.76283-.60088,1.13186-.94965,1.08708-2.48333,1.3635-4.56511,.75073-2.29826-.64044-4.11415-1.51138-5.71649-2.27699-1.39962-.66677-2.60641-1.23695-3.61901-1.39271-1.88337-.26339-3.63959,.89946-5.74131,2.44706l-5.26646,3.9508h-.00005Z"/><path fill="#f2f2f2" d="M499.70149,568.37054l-1.46649-1.44868,.02648-2.05993-.02648,2.05993-2.03839-.21548c.00973-.19164-.00365-.63998-.01856-1.34016-.07842-3.8358-.32184-15.50998,1.30375-33.44723,1.13509-12.52127,3.03188-25.23137,5.63767-37.78338,2.61016-12.5716,5.31913-21.92557,7.49494-29.44383,1.64202-5.67048,3.29937-11.0489,4.91726-16.28774,4.31765-13.99687,8.3944-27.21862,10.91898-42.29989,.56533-3.36647,1.73866-10.3744-.6636-18.6458-1.39381-4.7972-3.78025-9.31268-7.09552-13.41685l3.20871-2.59131c3.65824,4.53526,6.29728,9.53599,7.84523,14.86239,2.66351,9.17082,1.38511,16.80687,.77088,20.47579-2.56957,15.34751-6.68699,28.6963-11.04711,42.82799-1.60963,5.22-3.26167,10.57488-4.89648,16.22223-2.15614,7.44851-4.84075,16.72121-7.41697,29.13136-2.57641,12.40183-4.44888,24.95656-5.57141,37.31984-1.60407,17.71117-1.36309,29.21162-1.2842,32.98978,.04079,2.01724,.04959,2.43977-.59871,3.09102v-.00005Z"/><path fill="#f2f2f2" d="M509.88924,378.78712c-.16498-.0368-.33104-.07795-.49731-.12743-3.38408-.94859-6.09862-3.70647-8.07039-8.19549-.9229-2.11089-1.14075-4.33252-1.57515-8.76316-.06821-.68322-.36937-4.13985,.00088-8.72089,.24088-2.99353,.56268-4.19586,1.37733-5.13987,.90465-1.05177,2.12346-1.65408,3.41143-1.95645,.03482-.39635,.1645-.78388,.42173-1.15125,1.05953-1.52439,2.83307-.89788,3.79536-.57193,.48484,.17411,1.08903,.39546,1.76863,.50992,1.06802,.18463,1.70575-.00305,2.67109-.28256,.92369-.26818,2.0722-.60166,3.65962-.57336,3.13247,.04305,5.45127,1.4509,6.21592,1.91418,4.02699,2.41973,5.41738,6.28014,7.02642,10.75007,.31971,.896,1.38078,4.13451,1.62786,8.30483,.17837,3.00867-.21588,4.24025-.66794,5.12079-.92335,1.81042-2.33723,2.64963-5.84632,4.41527-3.66607,1.85019-5.50542,2.77596-7.01356,3.25188-3.5094,1.10168-5.7131,1.79357-8.30559,1.21534l-.00002,.0001Z"/></g><g><path fill="#f2f2f2" d="M140.42574,361.78176c-2.71962-.11431-3.89734,6.28713-6.2805,6.05285-2.37458-.23337-2.03171-6.67042-6.46637-13.36402-.79971-1.20714-5.83944-8.81387-9.4687-7.97645-6.87923,1.58731-2.64021,32.11516-12.62673,35.32787-2.19165,.70513-5.30126,.16959-12.19542,2.13349-2.74265,.78132-4.16082,1.41022-4.58453,2.63688-.60124,1.74052,1.32511,3.16409,4.21902,7.33524,4.34001,6.25545,3.05587,7.44696,6.85592,11.91973,2.82096,3.32034,5.01026,4.4075,4.60852,5.89093-.56844,2.0992-5.31941,1.27779-6.41832,3.69165-1.12131,2.46323,2.31713,6.63351,5.27376,9.16907,5.54831,4.75819,11.00713,5.13791,16.02495,6.64595,5.45306,1.63891,12.93484,5.37671,20.77129,14.89807l66.49902,87.03379c-13.33404-18.33712-49.20548-69.64919-61.91449-89.67066-3.66879-5.77982-7.25083-11.85615-5.82516-18.6137,1.37251-6.506,7.22119-12.8595,10.95481-23.38418,.4361-1.22913,1.60625-4.66606,.1138-6.16663-1.23383-1.24061-3.16361-.02759-4.33281-1.16861-1.56833-1.53047,.63078-4.95522,1.28243-10.49949,.45945-3.90952-.08399-6.88553-.5514-9.44475-.1409-.77157-2.31864-12.29499-5.939-12.4471l-.00005,.00008Z"/><path fill="#f2f2f2" d="M107.29464,512.21661c-.84084,1.30182,1.96126,3.72685,1.15866,4.82891-.7997,1.09815-3.8601-.92744-8.42492-.68224-.82318,.04422-6.0108,.32293-6.64692,2.34589-1.20582,3.83433,15.00052,10.56207,13.69593,16.39053-.28627,1.2791-1.44636,2.65084-2.47162,6.60116-.40787,1.57155-.50839,2.44905-.0286,3.01095,.68077,.79726,1.93532,.26261,4.81746,.04573,4.32243-.32521,4.53674,.64888,7.82841,.07433,2.44358-.42652,3.60887-1.18736,4.221-.56215,.86629,.88467-.90766,2.97948-.04002,4.21529,.88545,1.26107,3.92432,.77671,6.02185,.05717,3.93623-1.35028,5.69763-3.91991,7.88561-5.94756,2.37775-2.20352,6.37107-4.79717,13.30529-5.8961l61.90384-7.52614c-12.84729,1.2536-48.38164,4.05437-61.87528,4.51516-3.89533,.13304-7.91117,.13788-10.81649-2.51166-2.79718-2.55084-4.22795-7.25457-8.31628-12.12377-.47746-.5687-1.8267-2.13466-2.99379-1.83516-.96489,.24762-.92631,1.54478-1.82371,1.7894-1.2037,.32812-2.25007-1.73936-4.78322-3.65883-1.78624-1.35352-3.40369-1.94545-4.79464-2.45449-.41934-.15345-6.70345-2.40947-7.8227-.6765l.00013,.00008Z"/><path fill="#f2f2f2" d="M129.98347,490.09785l-7.49368-3.76652-.29664-.70231c-1.37095-3.24875-3.21281-5.64915-5.47581-7.13747-.35973-.23669-.73158-.45487-1.11012-.6774-1.50078-.88142-3.3666-1.97664-4.86268-4.29587-.83208-1.29602-2.58829-4.55798-.7948-6.57418,.47639-.54704,1.04943-.82223,1.59829-.95702-.04796-.10329-.09487-.20829-.14631-.32104-.60872-1.38827-.70484-2.23614-.79731-3.05284-.07146-.6277-.14422-1.27547-.53659-2.47239-.17194-.52502-.34177-.95745-.48408-1.32151-.42926-1.10331-.89842-2.48471-.01395-3.80579,.99436-1.37918,2.6567-1.3579,3.7575-1.34457,1.96377,.02306,3.22564,.27583,4.0624,.44379,.30544,.06202,.64996,.13033,.77051,.12961,.97319-.01935,2.77076-4.15825,3.45624-5.71213,1.5287-3.49748,2.85151-6.52389,5.57371-6.35267,1.94808,.12089,3.43996,1.94512,4.54929,5.57348,.34474,1.1299,.481,2.18163,.54194,3.07625,.62075-.30412,1.36589-.45272,2.19842-.16754h0c1.96965,.6777,2.71817,3.23769,2.23251,7.61146-.11786,1.08794-.28191,2.54925-1.02038,4.26561-.34856,.80801-.74432,1.48202-1.09205,2.05279,.31604,.22267,.61736,.52698,.84969,.95926,.68558,1.27026,.4073,2.8036-.89583,4.53887-1.40487,1.92834-2.85668,3.32414-4.13504,4.55679-1.11477,1.07741-2.07152,2.00803-2.5721,2.90192-.90638,1.6718-.43235,3.72408,.28106,6.23472l1.85585,6.31666-.00003,.00004Z"/><path fill="#f2f2f2" d="M90.76395,459.38442l-1.74258,8.20399-.60411,.46506c-2.79478,2.15016-4.64947,4.54061-5.5151,7.10713-.13771,.40803-.25443,.82302-.37367,1.24565-.47193,1.67524-1.05805,3.7579-2.92195,5.79329-1.04257,1.13365-3.75239,3.65976-6.15757,2.43636-.64996-.32205-1.06151-.80656-1.3311-1.30331-.08774,.07264-.1774,.14464-.2734,.22298-1.18849,.94093-1.98425,1.24899-2.7508,1.5456-.58906,.22833-1.19719,.46305-2.25543,1.14616-.46424,.29951-.83943,.57347-1.15549,.80346-.95832,.69512-2.17558,1.49925-3.6778,.97878-1.58629-.612-1.98735-2.2254-2.2537-3.29358-.47578-1.90541-.5514-3.1901-.60116-4.04211-.01746-.31114-.03879-.66176-.07005-.77819-.26556-.93644-4.72502-1.62543-6.40198-1.89435-3.77083-.59157-7.03379-1.10343-7.55864-3.78007-.37716-1.91503,1.00896-3.82084,4.23727-5.81423,1.0055-.62007,1.98827-1.01865,2.8382-1.3045-.45162-.52331-.78443-1.20641-.71965-2.08402h0c.15596-2.07714,2.44234-3.4505,6.79623-4.09015,1.08225-.16196,2.53738-.37393,4.3849-.09496,.86998,.13222,1.62231,.34408,2.26268,.53567,.13523-.36221,.35315-.73081,.71238-1.06524,1.05481-.98535,2.60863-1.10514,4.61765-.28476,2.22163,.86979,3.94003,1.92008,5.45663,2.84397,1.32495,.80505,2.46778,1.49448,3.45944,1.75189,1.84705,.45267,3.71191-.5264,5.95954-1.85331l5.63934-3.39739-.00007,.0002Z"/><path fill="#f2f2f2" d="M67.82472,449.61257l-7.49368-3.76652-.29664-.70231c-1.37095-3.24875-3.21281-5.64915-5.47581-7.13747-.35973-.23669-.73158-.45487-1.11012-.6774-1.50078-.88142-3.3666-1.97664-4.86268-4.29587-.83208-1.29602-2.58829-4.55798-.7948-6.57418,.47639-.54704,1.04943-.82223,1.59829-.95702-.04796-.10329-.09487-.20829-.14631-.32104-.60872-1.38827-.70484-2.23614-.79731-3.05284-.07146-.6277-.14422-1.27547-.53659-2.47239-.17194-.52502-.34177-.95745-.48408-1.32151-.42926-1.10331-.89842-2.48471-.01395-3.80579,.99436-1.37918,2.6567-1.3579,3.7575-1.34457,1.96377,.02306,3.22564,.27583,4.0624,.44379,.30544,.06202,.64996,.13033,.77051,.12961,.97319-.01935,2.77076-4.15825,3.45624-5.71213,1.5287-3.49748,2.85151-6.52389,5.57371-6.35267,1.94808,.12089,3.43996,1.94512,4.54929,5.57348,.34474,1.1299,.481,2.18163,.54194,3.07625,.62075-.30412,1.36589-.45272,2.19842-.16754h0c1.96965,.6777,2.71817,3.23769,2.23251,7.61146-.11786,1.08794-.28191,2.54925-1.02038,4.26561-.34856,.80801-.74432,1.48202-1.09205,2.05279,.31604,.22267,.61736,.52698,.84969,.95926,.68558,1.27026,.4073,2.8036-.89583,4.53887-1.40487,1.92834-2.85668,3.32414-4.13504,4.55679-1.11477,1.07741-2.07152,2.00803-2.5721,2.90192-.90638,1.6718-.43235,3.72408,.28106,6.23472l1.85585,6.31666-.00003,.00004Z"/><path fill="#f2f2f2" d="M208.04662,530.76456l-1.87057,.86616-1.92016-.74633,1.92016,.74633-.91581,1.83378c-.17609-.07624-.60071-.22074-1.26176-.45202-3.62027-1.2701-14.64016-5.13117-30.8717-12.93659-11.33047-5.44896-22.57101-11.6775-33.41513-18.51476-10.86094-6.84822-18.67348-12.66194-24.95335-17.33331-4.73611-3.52417-9.1933-6.96041-13.53356-10.31079-11.59785-8.94676-22.55406-17.39637-35.79565-25.04348-2.95519-1.70868-9.10819-5.26231-17.69703-5.90943-4.9815-.37478-10.04682,.27886-15.05221,1.94655l-1.30325-3.91309c5.52931-1.83795,11.13761-2.55821,16.66877-2.14245,9.52279,.71745,16.22731,4.58951,19.44866,6.44993,13.47522,7.7825,24.53618,16.31471,36.24543,25.34846,4.32552,3.33605,8.76251,6.75907,13.47949,10.26838,6.22142,4.6285,13.96637,10.39096,24.68799,17.15083,10.71375,6.75714,21.81728,12.90848,33.00416,18.29033,16.02733,7.70607,26.88363,11.50857,30.45008,12.75805,1.90373,.66837,2.30258,.80812,2.68549,1.64346l-.00004-.00003Z"/><path fill="#f2f2f2" d="M34.04168,454.81759c-.09225,.14164-.18896,.28277-.29354,.42117-2.07383,2.83744-5.60781,4.41403-10.5031,4.68853-2.30042,.12506-4.45762-.44905-8.75974-1.59407-.66383-.17542-4.00697-1.10408-8.16812-3.05546-2.71952-1.27415-3.73296-1.9967-4.33183-3.09039-.66827-1.21574-.80552-2.5683-.63761-3.88059-.35904-.17144-.67661-.42865-.9306-.79826-1.0567-1.52635,.15132-2.96809,.79369-3.75526,.3329-.39314,.75186-.88152,1.0971-1.47798,.54703-.93569,.59461-1.59875,.67093-2.60085,.07234-.95911,.16227-2.15167,.74481-3.62861,1.13752-2.91895,3.26837-4.59773,3.97015-5.15167,3.67696-2.92434,7.77982-2.87447,12.53017-2.81591,.95122,.01438,4.35623,.15487,8.3489,1.38417,2.88055,.88677,3.89602,1.68742,4.56243,2.41926,1.37231,1.49899,1.66312,3.11724,2.0878,7.02248,.44888,4.08188,.67174,6.12898,.58926,7.70828-.19733,3.67297-.32116,5.97941-1.77081,8.20512l.00008,.00005Z"/></g><g><path fill="#ccc" d="M81.19902,572.65529c0,.66003,.92528,1.19,2.07751,1.19H745.04718c1.15213,0,2.07741-.52997,2.07741-1.19,0-.65997-.92528-1.19-2.07741-1.19H83.27653c-1.15223,0-2.07751,.53003-2.07751,1.19Z"/><circle cx="329.173" cy="150.262" r="31.937" fill="#ff6884"/><path fill="#ccc" d="M473.16205,567.29863c.18112,1.5265,.23276,2.94941,.12933,4.34642h-76.81296c-.69859-1.39701-1.29358-2.84582-1.81105-4.34642-9.39142-26.98412,6.05404-71.89728-13.53083-138.49091-14.53986-49.41496-41.6792-88.06723-54.33048-106.0738-15.54889-22.14613-33.16748-42.58481-53.58026-75.23483-4.42395-7.06291-8.97739-14.72098-13.68605-23.07748-1.57813-2.79418-19.76598-35.21129-18.11016-36.22032,.77612-.46567,5.58821,6.07978,7.21814,8.27896,14.38464,19.45538,22.74129,27.96726,34.71988,41.96375,7.26993,8.48598,15.85934,18.96397,27.91546,35.13376,30.91666,41.42055,46.36197,62.11788,51.74332,77.61498,1.42291,4.1394,9.00329,26.54435,23.28449,54.33048,7.29583,14.17762,10.94366,21.26643,12.93583,20.69733,5.64-1.62993-1.96627-60.33273-25.87166-119.00963-4.08777-9.98642-7.1406-16.3768-12.93583-28.45882-9.41732-19.71419-61.85907-129.28076-100.4079-194.86535-4.83799-8.25307-9.46896-15.78181-13.73784-22.37905-.82791-1.24179-1.62993-2.45784-2.40605-3.62194-5.38135-8.02031-10.14165-14.3589-14.10009-18.44651-2.0956-2.17329-7.42515-8.33076-18.11016-20.69733-4.24299-4.91568-7.34762-8.56351-9.44322-11.22837-.31045-.38798-.595-.77612-.82775-1.11246-2.53553-3.31149-3.25985-4.91568-2.66486-5.76933,.85381-1.21605,4.1394-.51746,7.7356,.75022,.38814,.12933,.80202,.28455,1.19015,.43977,3.90665,1.44881,7.86493,3.33754,9.18441,3.98434,12.10792,5.82112,23.93128,16.24732,34.87494,28.63994,4.06187,4.57918,7.96851,9.41716,11.74583,14.38464,12.15955,16.0403,22.76703,33.50367,30.78718,47.86257,9.8312,17.69613,15.73001,30.70965,15.73001,30.70965,27.44979,60.61728,57.90078,129.95329,59.50481,129.35829,1.75925-.64679-32.00323-86.95461-41.83443-133.8342-3.28575-15.70396-3.88075-26.98412,.43977-29.15725,.15522-.07769,.31045-.15522,.49157-.20702,.67269-.23291,1.29358-.20702,1.62993-.18112,0,0,4.01008-.51746,8.22717,.38814,5.25202,1.13836,11.22837,15.75575,17.04949,36.27196,15.13486,52.88168,29.51949,144.82965,29.51949,144.82965,14.38464,91.97371,36.22032,166.40653,41.39465,165.57861,2.87172-.46567-1.24179-23.56904,2.58717-62.09198,2.6906-27.01002,5.74343-26.18211,15.523-75.02781,15.523-77.48565,23.28449-116.2156,23.28449-116.42246-.07769-1.62993-.28455-4.91568,.20702-8.33076,.51746-3.69963,1.83679-7.58038,4.96731-9.7794,4.76045-3.36328,12.41836-1.91448,15.523,0,2.48374,1.55224,3.75142,4.39821,4.03597,8.48582,1.70746,25.71643-35.23719,100.27857-48.01779,201.07461-6.36448,50.21682-9.8571,77.61498,0,113.8353,9.75367,35.90987,26.75136,58.78033,28.63994,75.10534Z"/><g><polygon fill="#a0616a" points="600.907 559.378 607.422 539.27 666.791 565.294 662.377 578.92 600.907 559.378"/><path fill="#2f2e41" d="M648.36495,556.17707l.46335,8.04046,4.14396,1.59902s-5.43199-.21299-9.91249,8.22652l3.60446,2.61482s2.60548,4.95974,9.95648,7.13719l19.94812,5.15523,2.43689-6.73051-12.85412-6.23154s-2.29816-3.00723,15.30012-5.91426c0,0,5.94114-1.2818,6.70684-17.60125,.10524-2.243-1.21223-4.34108-3.31534-5.1279-1.16063-.43421-2.40343-.39725-3.34879,.90243-2.40638,3.30828-2.56849,7.38841-6.43572,8.62657-3.86723,1.23816-26.69375-.69677-26.69375-.69677Z"/></g><g><polygon fill="#a0616a" points="564.443 603.563 572.452 584.002 629.696 614.418 624.27 627.673 564.443 603.563"/><path fill="#2f2e41" d="M612.0077,603.94102l-.14268,8.05254,4.01196,1.90616s-5.40059-.62093-10.50314,7.45769l3.39759,2.8785s2.22508,5.14165,9.39149,7.8658l19.50389,6.64093,2.93619-6.52817-12.34904-7.18065s-2.06548-3.17156,15.7016-4.74678c0,0,6.02071-.83133,8.01164-17.04697,.27364-2.22874-.88231-4.41996-2.92028-5.36272-1.12468-.52028-2.36674-.57689-3.40718,.64801-2.64838,3.11793-3.1169,7.1743-7.0663,8.11811-3.9494,.9438-26.56574-2.70244-26.56574-2.70244Z"/></g><path fill="#2f2e41" d="M460.76705,392.09341c2.28155,2.20252,8.15292-2.61334,8.37063,.55038,.21771,3.16373-5.22031,14.27716-7.17866,16.77144-.97341,1.2398-2.16685,2.29442-3.13011,3.54211s-1.70505,2.77794-1.55238,4.3468c.2657,2.73024,3.02725,4.53488,3.95538,7.11623,1.08098,3.00647-.52299,6.25555-2.1197,9.02284-1.37626,2.38522-2.80482,4.7816-4.76029,6.72054s-4.52157,3.4014-7.27386,3.49228c-3.50426,.11571-6.67916-1.9414-9.47475-4.05752-2.68773-2.03449-5.29963-4.22708-7.3355-6.91376-2.03587-2.68668-3.47462-5.92234-3.5505-9.2924-.09518-4.22731,1.96963-8.28626,4.85674-11.37556s6.5498-5.3341,10.24376-7.39174c6.22138-3.46549,12.67492-6.51412,19.30301-9.11868"/><circle cx="448.964" cy="409.931" r="20.06" fill="#a0616a"/><polygon fill="#a0616a" points="478.303 466.713 499.143 502.314 538.154 522.934 528.018 532.343 490.096 518.039 463.833 484.308 465.96 467.898 478.303 466.713"/><path fill="#98a3bb" d="M435.38378,432.73704l18.12428,4.74032-.26043,8.70314,15.36202,26.24384s14.53198,16.65981,2.05161,28.74532l7.62547,8.57284-51.68952,21.56586-22.71829-64.0514,20.7217-24.73152,10.78316-9.78839Z"/><path fill="#98a3bb" d="M450.01111,448.07502s10.94105-12.48811,19.43483-.94715c8.49378,11.54096,12.72484,24.70805,12.72484,24.70805l-20.04272,9.55941-12.11695-33.32031Z"/><path fill="#2f2e41" d="M422.70553,528.37179s45.17706-26.01017,54.38924-21.40796l17.39017,21.54262,16.33252,.43427,71.18517-7.42151,35.30371,21.56809-14.98277,17.46125-24.31319-11.84103-36.08598,12.76411s13.16195,1.52373,13.58027,10.4044l28.01543,14.45395-19.6244,18.44007-38.11961-19.83766s-65.31693-3.88329-85.59099-25.92766c-20.27405-22.04436-17.47955-30.63293-17.47955-30.63293Z"/><path fill="#2f2e41" d="M436.23637,425.28519l2.96026-6.0783s22.34782-20.46879,28.83657-13.83786l.74197,8.69121s3.99433-.59991,2.77081-6.40195,1.12885-3.26808,1.12885-3.26808c0,0,5.15473-.84462,1.342-5.13104-3.81274-4.28642-3.85215-12.51978-16.88504-8.80183-7.23926,2.06518-16.29059,6.53181-22.90734,10.09488-7.42681,3.99928-9.71073,13.80935-4.47587,20.42357,1.56446,1.9767,3.66572,3.57128,6.48779,4.30938Z"/><ellipse cx="540.155" cy="532.524" fill="#a0616a" rx="8.829" ry="13.685" transform="translate(-206.55476 665.84178) rotate(-54.71539)"/><path fill="#2f2e41" d="M508.20316,431.64505l2,6h-2s2.5,13.5-5.5,15.5c-8,2-15.38189-10.75-15.38189-10.75l-3.61811,1.75s3,15-8,17c-11,2-15-11-15-11l-26,2,1-8,23.55512,2.35459s-.55512-6.35459,13.44488-7.35459l20-4,15.5-3.5Z"/><path fill="#a0616a" d="M424.95572,463.17592l-.63158,10.79888,34.72542-11.20125,.28996,10.95355-41.46368,29.09437s-12.05561-17.10853-13.48018-23.02898-.68248-15.04581-.68248-15.04581l21.24255-1.57075Z"/><path fill="#98a3bb" d="M430.16582,445.35149s-12.21971-11.96726-18.62964-2.13148c-6.40993,9.83578-9.81231,27.03661-9.81231,27.03661l25.37107-2.68377,3.07088-22.22136Z"/><path fill="#2f2e41" d="M419.1371,434.60331c2.83968,7.64614,3.06808,16.23544,.63877,24.02169,5.78637-1.14458,10.62727-5.49419,13.26728-10.76889,2.64001-5.2747,3.27328-11.37249,2.78529-17.25075l-.01496-.1763c-.76539-8.83179,4.27078-17.16172,12.53649-20.36553,5.57543-2.16105,10.75406-5.34722,15.14974-9.40233,2.48156-2.28928,4.88172-5.34748,4.34708-8.68111-.49265-3.07181-3.28977-5.17888-5.94838-6.79458-6.07078-3.68936-12.77493-6.63862-19.85956-7.16176-7.08463-.52314-14.60798,1.66204-19.39399,6.91178-4.78601,5.24974-6.12127,13.77343-2.11616,19.6407-1.77362,.10102-3.38401,1.53176-3.69316,3.28115s.71336,3.6454,2.34493,4.34818c-1.0983-.32924-2.13456,.95966-2.0103,2.0995,.12425,1.13984,.97539,2.05029,1.80843,2.83814,1.1866,1.12223,2.51445,2.31849,1.9999,4.31-.20631,.79852-.69334,1.4985-1.32783,2.02541-1.53757,1.27688-3.54153,1.50891-5.46617,1.71542,3.41792,2.05923,5.50521,6.14144,5.17343,10.11794"/><ellipse cx="460.876" cy="464.643" fill="#a0616a" rx="13.685" ry="8.829" transform="translate(-193.56919 465.89617) rotate(-45.34288)"/><path fill="#2f2e41" d="M764.39373,212.92247c-2.87824,1.61738-7.52334-4.77996-8.57604-1.65075-1.05271,3.12921,1.49691,15.75543,2.81232,18.78361,.65383,1.50518,1.57806,2.8818,2.21959,4.39226s.98556,3.24716,.4185,4.78713c-.98685,2.67996-4.24375,3.77014-5.85859,6.12563-1.88078,2.74341-1.12116,6.43849-.24192,9.64638,.75785,2.76499,1.56543,5.55501,3.02424,8.02308,1.45881,2.46807,3.65817,4.61708,6.40639,5.43367,3.49908,1.03969,7.23881-.1959,10.61203-1.59085,3.24308-1.34113,6.45145-2.86149,9.20977-5.03126s5.05985-5.04977,6.02406-8.42416c1.20948-4.23275,.19903-8.86495-1.8951-12.73712s-5.19191-7.09805-8.37048-10.14366c-5.35337-5.12943-11.05039-9.90015-17.04019-14.26957"/><path fill="#ffb6b6" d="M807.19902,430.10862l-6,56s14,29-1,64l-1,20-17-2,4-17-9-69-7-50,37-2Z"/><path fill="#ffb6b6" d="M759.19902,429.10862s4,44-4,67c0,0,4,35-7,72v27.54724l-18-3.54724,1-103-5-56,33-4Z"/><path fill="#98a3bb" d="M756.6418,257.84851c5.06922,6.38575,14.00667,8.23624,21.21966,4.43524,10.29597-5.42562,24.35317-11.6439,26.83755-6.67513,4,8,4,15.76378,4,15.76378l4,93.23622s2,37.64567-23,34.32283c-25-3.32283-64,10.67717-64,10.67717l3.98368-41.30447,10.63737-15.57304,4.30911-44.67862-7.43016-35.94387,9-4s1-7,4-7,3.72441-6.72441,6.3622-3.3622l.08058,.1021Z"/><path fill="#2f2e41" d="M809.19902,363.10862l2,111.53643s-18,28-37,5l-11-55.53643-2,64.53643s-27,14-35,3l-.5-82.03643,18.5-37.5,65-9Z"/><path fill="#2f2e41" d="M799.7882,558.32489s6.41081,4.78373,4.41081,10.78373-17,29-30,26c-13-3-7-10-7-10l15-22s6,1,9,3,8.58919-7.78373,8.58919-7.78373Z"/><path fill="#2f2e41" d="M748.19902,587.10862s11,11,5,16-47,9-46,3,22-23,22-23c0,0,6-2,8,3s11,1,11,1Z"/><circle cx="771.583" cy="233.999" r="20.884" fill="#ffb6b6"/><path fill="#2f2e41" d="M795.12568,266.70598c-4.87443,6.95327-7.36719,15.54442-6.9715,24.02684-5.52662-2.67717-9.25664-8.33343-10.52617-14.34168-1.26953-6.00825-.30101-12.31688,1.73903-18.10903,.0204-.05792,.0409-.1158,.06151-.17364,3.0975-8.69392,.21936-18.41068-7.26203-23.81508-5.04639-3.64541-9.42306-8.21881-12.78222-13.46115-1.8964-2.95954-3.50826-6.67209-2.09157-9.88895,1.30543-2.9642,4.67781-4.34963,7.78124-5.27663,7.0865-2.11675,14.61599-3.32121,21.88958-1.98179,7.27359,1.33942,14.2756,5.52227,17.7132,12.07071,3.4376,6.54844,2.53708,15.48541-3.04258,20.33996,1.75981,.56898,3.00493,2.43428,2.85546,4.27773-.14947,1.84346-1.67883,3.4838-3.50732,3.76183,1.19296-.04229,1.89716,1.5289,1.47174,2.64424s-1.52254,1.80814-2.56914,2.38223c-1.4908,.81774-3.14337,1.67284-3.14974,3.81427-.00255,.85864,.30359,1.69196,.80385,2.38982,1.2123,1.69115,3.1696,2.45276,5.05373,3.16778-3.98507,1.1737-7.16281,4.73552-7.87618,8.82813"/><path id="uuid-01b37479-4275-461a-8592-7a03682c88a0-259" fill="#ffb6b6" d="M789.00467,384.18698c-4.58868,3.40746-10.06634,3.80184-12.23438,.88122s-.20545-8.04947,4.38532-11.45752c1.81515-1.38653,3.93596-2.31821,6.18498-2.71708l19.62474-14.192,6.46359,9.35127-20.03275,12.99799c-1.03265,2.0382-2.5385,3.79938-4.3915,5.13612Z"/><path fill="#98a3bb" d="M801.36831,268.60862s15.83071,.5,18.83071,11.5c3,11,9,34.446,8,67,0,0,5,21-8,20l-18,8-12-16,10-12,1.16929-78.5Z"/><g><g><polygon fill="#ffb6b6" points="345.557 623.093 330.59 590.733 313.987 599.083 323.316 628.331 339.968 636.466 345.557 623.093"/><path fill="#2f2e41" d="M227.43428,530.50044c1.33315,.60084,5.38829,3.02201,10.37378,2.2049,3.40242-.55764,5.68808-2.3695,6.44375-2.93549,9.37515-7.02175,37.93852-13.03059,59.32875-6.44392,4.84398,1.49162,7.78985,3.15795,10.1181,5.6584,3.30138,3.54556,3.8466,7.14192,6.47535,16.04547,1.43795,4.87028,3.25471,9.62229,4.73532,14.47977,8.66814,28.43823,14.3547,32.44459,11.14926,39.44124-3.55649,7.76288-14.89719,12.30503-20.33244,9.39091-2.22589-1.19341-2.55743-3.15269-4.52776-7.57942-5.77717-12.97941-10.22708-12.53641-14.15442-22.30159-4.58524-11.40103-1.03022-18.24749-4.92959-19.94228-3.61607-1.57164-7.36858,4.01392-18.17567,9.37098-4.94508,2.45128-8.13122,3.25064-17.91999,5.91748-38.11972,10.38539-39.13665,11.70411-45.91157,11.20905-2.96415-.21661-24.00233-1.75394-27.86877-12.54044-6.05049-16.87964,33.18349-47.3889,45.19588-41.97506Z"/><path fill="#2f2e41" d="M336.45217,625.98106c2.00197-.16357,4.34281-.3548,5.73147-2.20992,.93964-1.25527,1.30295-3.08483,.82019-4.60909-.55701-1.75872-2.0442-2.49146-1.89445-2.71464,.22803-.33984,3.84619,1.10663,7.37024,3.95822,.66501,.53811,3.66319,3.01693,6.8323,7.98952,2.5391,3.98404,1.87209,4.36602,3.51329,6.72601,5.03791,7.24426,12.72942,5.66709,14.7737,11.51107,.78895,2.25541,.50761,4.961-.80026,6.76587-2.62647,3.62455-8.91884,2.96255-12.34293,2.55861-8.2464-.97281-13.52277-4.43362-19.19516-7.58768-19.2908-10.72649-31.93344-11.66232-31.79215-16.9619,.02674-1.00301,.47398-.75833,4.39489-6.79909,3.86988-5.96216,4.45266-7.7696,5.96723-7.8202,2.27981-.07615,2.35792,3.9725,6.96679,6.98169,4.08423,2.66663,8.35767,2.31752,9.65486,2.21154Z"/></g><g><polygon fill="#ffb6b6" points="277.941 686.939 283.728 651.758 265.301 649.344 256.597 678.785 265.807 694.866 277.941 686.939"/><path fill="#2f2e41" d="M230.19466,543.99304c.76572,1.24578,2.76158,5.52629,7.34567,7.64971,3.12847,1.44917,6.03717,1.23342,6.98028,1.18943,11.70046-.54566,38.70945,10.52172,52.71016,27.98328,3.17056,3.95432,4.67241,6.98735,5.19483,10.36374,.74077,4.78762-.82758,8.0696-3.65209,16.91299-1.54501,4.83739-2.71016,9.78962-4.21269,14.64036-8.79666,28.39874-6.34103,34.90702-12.92226,38.89643-7.30197,4.4263-19.23644,1.81648-22.09746-3.64691-1.17167-2.23741-.34579-4.04479,.50963-8.8141,2.5081-13.98393-1.42275-16.11615,.81108-26.40172,2.60804-12.00858,9.39419-15.67741,7.11934-19.26941-2.10959-3.33102-8.35111-.81641-20.30164-2.45229-5.4683-.74853-8.55355-1.87624-18.1508-5.16631-37.374-12.81224-38.95597-12.29211-44.28389-16.50612-2.33106-1.84372-19.42822-15.08662-16.01812-26.02596,15.63954-50.17048,54.06836-20.57824,60.96796-9.35314Z"/><path fill="#2f2e41" d="M266.78571,684.21624c1.74838,.98884,3.79269,2.14507,5.98347,1.38983,1.48239-.51103,2.81038-1.82089,3.26685-3.35323,.52669-1.76804-.29243-3.20946-.04319-3.31004,.37952-.15315,2.56113,3.07546,3.87583,7.4139,.24809,.81869,1.33699,4.55338,1.16699,10.44753-.13621,4.7224-.90262,4.66392-.86983,7.53829,.10071,8.82325,7.35069,11.83728,5.76062,17.82083-.61368,2.30927-2.36577,4.39002-4.46147,5.14905-4.2086,1.52428-9.04349-2.5569-11.64993-4.81389-6.27723-5.43562-8.69979-11.26215-11.62229-17.05724-9.93887-19.70816-19.87454-27.58182-16.78171-31.88763,.58536-.81493,.81803-.36132,7.4545-3.15802,6.55011-2.76032,8.04728-3.92863,9.32892-3.12001,1.9292,1.21719-.27965,4.61111,1.8442,9.68912,1.88209,4.49995,5.61419,6.61078,6.74706,7.25151Z"/></g><path fill="#3f3d56" d="M212.94872,376.64446l25.70734-1.83624,7.95703,12.85367,23.8711,6.73287-8.87515,62.12606,6.58999,66.12422s-31.37921,21.70918-33.82752,31.50245c-2.44832,9.79327-62.4321-9.79327-62.4321-9.79327l20.50466-63.35022-1.83624-49.57843-5.50871-28.76773,25.09526-11.62951,2.75436-14.38387Z"/><path fill="#3f3d56" d="M201.31921,395.00685s-20.48538-.30604-23.24938,8.26307c-2.764,8.56911-11.94519,67.94081-11.94519,67.94081l-7.03891,26.01338,31.52209-15.60803-6.73287-10.38848,22.03486-42.25035-4.5906-33.97041Z"/><path fill="#98a3bb" d="M213.85145,490.18518c3.38713,.00351,6.53609-1.94869,7.85297-5.06934,.99591-2.36003,.902-4.62436,.15681-6.56568,.2398-.09937,.47755-.20278,.72307-.29065-.36069-.14615-.71123-.31127-1.06154-.47669-1.22016-2.43188-3.55943-4.19669-6.34562-4.62534-3.45119-3.69687-5.57256-8.65043-5.59469-14.10218-.04561-11.2359,9.06893-20.62121,20.30168-20.89074,.08844-.00212,.17676-.00369,.26495-.0047,5.02992-.05792,9.59276,2.75571,12.14119,7.09263,1.48702,2.53063,4.23491,4.22943,7.38321,4.22943,2.4102,0,4.58451-.99644,6.13871-2.59926,3.38621-3.49214,7.62635-6.09057,12.4249-6.8877,3.15127-.52348,6.41272-.72099,9.74966-.55511,22.84295,1.13554,42.4956,21.38095,42.98342,44.24691,.54332,25.4678-19.93909,46.2836-45.28331,46.2836-13.18747,0-25.05284-5.63957-33.32794-14.63576-3.67384-3.99398-8.822-6.23119-14.2484-6.17579-.05522,.00056-.1105,.00085-.16585,.00085-8.78908,0-15.91406-7.12499-15.91406-15.91406,0-.48744,.0242-.96892,.06964-1.44425,.08497-.88879,.85835-1.61709,1.7512-1.61617h0Z"/><polygon fill="#98a3bb" points="289.153 476.719 136.745 447.952 136.133 458.969 287.316 495.082 289.153 476.719"/><path fill="#98a3bb" d="M138.58107,449.78795l-1.83624-1.83624s-7.95703-3.67248-7.95703-4.28456c0-.38311-11.74977-4.36308-20.54069-7.2872-4.90955-1.63306-10.09439,1.59854-10.79347,6.72512l-1.10161,8.07851c-.6587,4.83045,2.98597,9.1783,7.85723,9.37315l21.51814,.86073,10.40535-2.44832,2.44832-9.18119Z"/><polygon fill="#3f3d56" points="288.847 480.086 289.21 478.561 136.705 449.405 136.439 451.318 288.847 480.086"/><polygon fill="#3f3d56" points="288.497 482.981 288.847 481.31 136.539 452.423 136.439 454.379 288.497 482.981"/><polygon fill="#3f3d56" points="288.148 486.451 288.234 483.758 136.419 454.621 136.439 456.215 288.148 486.451"/><polygon fill="#3f3d56" points="287.741 490.481 287.622 488.043 136.198 456.817 136.068 457.415 287.741 490.481"/><polygon fill="#3f3d56" points="287.738 492.925 287.622 491.103 136.426 457.827 136.29 458.424 287.738 492.925"/><path fill="#3f3d56" d="M200.16252,391.10439l7.58352-4.19916,3.28932,67.16728-1.14705,8.26307s-19.14555-52.79275-9.7258-71.23119Z"/><circle cx="228.108" cy="351.243" r="18.974" fill="#ffb6b6"/><path fill="#2f2e41" d="M209.88832,362.56664l4.53619,3.62124-5.14827-19.53531s14.38387-.30604,15.60803-8.26307c0,0,11.32347-.30604,14.38387-.30604,3.0604,0,4.44125,20.25023,4.44125,20.25023,0,0,5.9641-16.57775-.15669-25.14687-6.12079-8.56911-3.97852-3.36644-5.20268-6.42683-1.22416-3.0604-13.77179-5.875-21.72882-2.75436-7.95703,3.12064-8.26307,7.56906-10.71139,7.61003-2.44832,.04097-11.01743,12.28255-3.0604,22.07582,7.95703,9.79327,7.03891,8.87515,7.03891,8.87515Z"/><path fill="#ffb6b6" d="M269.85646,487.08115c2.24901-1.7945,3.90625-3.94817,4.84022-6.07689l22.50458-15.74164-7.80376-10.48946-21.98844,17.0977c-2.28297,.43805-4.75081,1.5758-6.99982,3.37029-5.13786,4.09952-7.18804,10.07328-4.57926,13.34281,2.60879,3.26953,8.88862,2.5967,14.02647-1.5028h.00001Z"/><path fill="#ffb6b6" d="M183.63787,463.13647c-1.66878,2.34381-2.66983,4.8702-2.98236,7.17369l-17.30766,21.3237,10.38759,7.93885,16.43849-22.48553c2.07447-1.049,4.13426-2.82157,5.80304-5.16538,3.81233-5.35442,4.14059-11.66166,.73324-14.08767-3.40736-2.42601-9.26001-.05209-13.07233,5.30232h0Z"/><path fill="#3f3d56" d="M260.69091,398.37328s5.50871-9.18119,11.01743-3.67248c4.35905,4.35905,28.2642,32.09677,38.05235,43.48463,2.69924,3.14039,4.18113,7.14169,4.18113,11.2827v.00002c0,6.40536-3.53644,12.28736-9.19368,15.29142l-30.59149,16.24443-8.56911-12.85367,26.31941-18.97446-40.39724-22.03486,9.18119-28.76773Z"/><polyline fill="#3f3d56" points="163.958 482.981 159.086 497.224 173.164 504.569 183.875 497.224 190.608 481.616 170.715 475.801"/></g><g><path id="uuid-c3ad1ad4-73ef-40ca-ba08-1127c5c46e73-260" fill="#ffb6b6" d="M706.07205,258.62683c-.56992-5.97927,2.05326-11.12003,5.85857-11.4821,3.80531-.36207,7.351,4.19124,7.92032,10.17272,.26019,2.38624-.05485,4.80009-.91879,7.0396l2.09482,25.36492-11.92396,.72933-.79917-25.08274c-1.27167-2.03676-2.03696-4.3485-2.23178-6.74171Z"/><path fill="#98a3bb" d="M771.03597,270.65967s-19.48064-11.4592-23.49136-9.74032-23.49136,30.93983-23.49136,30.93983l-1.79098-5.33259-13.67894,1.32187s-8.02144,37.24239,9.74032,33.80463c17.76176-3.43776,46.98271-35.52351,46.98271-35.52351l5.7296-15.46992Z"/></g><g><path fill="#3f3d56" d="M677.97158,274.84246l26.93263-6.26136,1.93031,5.59503,13.02919-3.51931,8.59337-2.32224,8.34649-16.21378-5.92174-17.16427-17.6339-.16517-5.39217,1.06023-15.04088,2.95875h0c-1.27356,2.10623-.57805,4.84722,1.54567,6.0914l.69671,.40817-21.16155,3.66421s-6.75953,12.02967,4.07587,25.86833Z"/><polygon fill="#2f2e41" points="707.856 235.852 719.864 270.657 728.457 268.335 736.804 252.121 730.882 234.957 713.248 234.791 707.856 235.852"/><ellipse cx="702.928" cy="235.624" fill="#3f3d56" rx="3.438" ry="1.719" transform="translate(-34.31119 157.49052) rotate(-12.48164)"/></g></g></svg>