<svg xmlns="http://www.w3.org/2000/svg" xmlns:xlink="http://www.w3.org/1999/xlink" id="Capa_1" x="0" y="0" version="1.1" viewBox="0 0 439.801 439.801" style="enable-background:new 0 0 439.801 439.801" xml:space="preserve"><g><path style="fill:#e5cbbd" d="M267.689,159.358c-1.285,0.258-2.554,0.575-3.782,0.906c-3.132,0.843-9.802,1.502-16.876,1.502 c-0.283,0-0.567-0.003-0.852-0.006l1.559,12.324c4.292-0.645,8.935-1.825,13.933-3.717c0.587-0.223,1.274-0.42,2.053-0.602 C264.785,165.957,266.104,162.481,267.689,159.358z"/><path style="fill:#fff" d="M227.723,151.126h-0.002c-1.423,0-2.833-0.15-4.215-0.43c0.897,0.963,2.342,2.185,4.759,3.402 c9.079,4.576,30.735,2.307,34.343,1.337c2.64-0.71,5.464-1.38,8.399-1.585c0.22-0.309,0.449-0.603,0.676-0.902 c-1.256-0.924-2.795-1.852-4.4-2.814c-3.723-2.232-7.785-4.669-9.953-8.101l-14.594,2.933 C238.788,148.879,233.445,151.126,227.723,151.126z"/><path style="fill:#e5cbbd" d="M262.174,131.969c-1.6,1.64-1.43,4.366-1.428,4.393c0.009,0.087,0.012,0.174,0.011,0.261 c-0.051,3.739,4.6,6.527,9.097,9.224c1.84,1.103,3.603,2.167,5.12,3.321c0.345-0.345,0.681-0.701,1.038-1.029 c2.372-2.178,4.795-3.771,7.108-4.939c-2.555-1.983-4.49-3.846-5.401-5.249c-4.4-6.785-10.102-7.378-10.343-7.4 C265.009,130.39,263.248,130.869,262.174,131.969z"/><path style="fill:#fff" d="M255.789,137.243c-0.01-0.19-0.033-0.375-0.032-0.57c-0.06-0.936-0.149-5.133,2.839-8.195 c2.104-2.156,5.117-3.133,8.949-2.92c-8.675-8.27-17.955-10.254-24.052-10.159c5.78,6.339,7.284,15.708,3.48,23.615 L255.789,137.243z"/><path style="fill:#b7c16f" d="M217.485,150.126c-0.177-0.649-0.237-1.239-0.235-1.769c-0.312-0.177-0.626-0.352-0.931-0.544 c-1.625-1.029-3.065-2.265-4.331-3.646c-1.466,4.014-3.243,10.94-2.158,19.094c0.84,0.86,2.751,2.651,5.702,4.565 c0.307,0.118,0.583,0.293,0.817,0.515c1.558,0.958,3.369,1.925,5.441,2.81c0.318,0.064,0.617,0.187,0.887,0.364 c5.102,2.045,11.656,3.519,19.642,3.112c0.147-0.021,0.295-0.027,0.444-0.021l-1.645-13.003 c-6.072-0.346-11.805-1.275-15.209-3.093C221.138,155.96,218.303,153.14,217.485,150.126z"/><path style="fill:#a6d9ff" d="M234.361,191.878c1.354-4.592,2.819-8.699,4.374-12.27c-5.08-0.116-9.609-0.918-13.557-2.092 l7.138,22.46C232.924,197.183,233.597,194.469,234.361,191.878z"/><path style="fill:#c69c6d" d="M262.393,175.414c-0.087,0.032-0.173,0.061-0.261,0.092c0.076,0.027,0.15,0.056,0.227,0.082 C262.371,175.53,262.382,175.472,262.393,175.414z"/><path style="fill:#b7c16f" d="M254.503,177.816c-2.929,0.711-9.791,1.604-10.199,1.635c-1.788,3.73-3.475,8.24-5.023,13.436 c0.298,4.651,7.515,5.632,22.099,5.831c-0.534-0.458-0.88-1.13-0.88-1.89c0-5.842,0.346-11.255,1.025-16.244 C259.139,179.786,256.79,178.856,254.503,177.816z"/><path style="fill:#c69c6d" d="M182.154,93.64l7.018-13.682v-3.99c-3.457,1.85-7.584,2.73-12.484,2.732c0,0,0,0-0.002,0 c0,0-0.002,0-0.004,0c-0.001,0-0.002,0-0.004,0h-0.002c-4.899-0.001-9.027-0.882-12.483-2.732v3.99l7.018,13.682H182.154z"/><path style="fill:#999" d="M203.705,226.925h8.432v-3.901H184.68v3.901h6.44c2.389-0.526,4.579-0.682,6.292-0.682 C199.125,226.244,201.316,226.399,203.705,226.925z"/><polygon style="fill:#999" points="157.551 223.024 158.415 226.925 168.683 226.925 168.683 223.024"/><polygon style="fill:#999" points="180.123 107.219 184.298 99.082 183.199 98.64 170.224 98.64 169.101 99.152 173.241 107.219"/><path style="fill:#e0b489" d="M153.934,276.496c1.447,0.64,2.922,1.119,4.467,0.771c3.186-0.719,5.194-3.897,4.476-7.083 l-2.039-9.207l-11.816,3.97l2.259,7.692C151.295,272.69,152.03,275.655,153.934,276.496z"/><rect x="173.683" y="223.024" style="fill:#4d4d4d" width="5.997" height="3.901"/><polygon style="fill:#999" points="176.681 205.1 185.121 194.473 179.32 112.219 174.043 112.219 168.244 194.473"/><path style="fill:#b79870" d="M175.396,255.198h6.203l5.466-8.706c0.734-1.169,2.277-1.521,3.446-0.788 c0.33,0.207,0.588,0.483,0.781,0.793l0.007-0.004l5.466,8.706h22.664c-0.748-7.632-8.689-23.955-22.017-23.955 C184.085,231.244,176.69,242.002,175.396,255.198z"/><path style="fill:#e5cbbd" d="M289.194,54.748c-4.102-1.093-13.268-4.213-17.703-11.093c-4.435,6.88-13.601,10-17.702,11.093 v4.912c0,13.938,7.941,25.278,17.702,25.278c9.762,0,17.703-11.34,17.703-25.278V54.748z M261.147,63.346 c-0.659,0-1.31-0.27-1.77-0.73c-0.47-0.47-0.73-1.11-0.73-1.77c0-0.66,0.261-1.3,0.73-1.77c0.93-0.93,2.61-0.93,3.53,0 c0.47,0.47,0.739,1.11,0.739,1.77c0,0.66-0.27,1.3-0.739,1.77C262.448,63.076,261.807,63.346,261.147,63.346z M271.588,78.198 c-5.44,0-9.24-2.193-9.24-5.333c0-1.381,1.119-2.5,2.5-2.5c1.19,0,2.185,0.831,2.438,1.943c0.493,0.32,1.96,0.89,4.303,0.89 c2.343,0,3.81-0.57,4.303-0.89c0.253-1.112,1.248-1.943,2.438-1.943c1.381,0,2.5,1.119,2.5,2.5 C280.829,76.005,277.029,78.198,271.588,78.198z M283.797,62.606c-0.46,0.47-1.1,0.74-1.76,0.74c-0.67,0-1.311-0.27-1.771-0.74 c-0.47-0.46-0.729-1.1-0.729-1.76c0-0.66,0.26-1.3,0.729-1.77c0.931-0.93,2.601-0.93,3.53,0c0.47,0.47,0.74,1.11,0.74,1.77 C284.538,61.506,284.267,62.146,283.797,62.606z"/><path style="fill:#b7c16f" d="M247.587,110.666c-0.95-1.54-1.615-3.224-1.97-5.033l-1.986,0.477 c-3.076,0.723-5.905,1.951-8.47,3.647c0.959,0.357,1.893,0.784,2.797,1.278C240.216,110.516,243.585,110.221,247.587,110.666z"/><path style="fill:#e0bc4b" d="M258.792,84.747c-6.031-5.448-10.004-14.66-10.004-25.086v-6.889h0.003 c-0.001-1.177,0.83-2.227,2.029-2.456c0.266-0.052,18.17-3.659,18.17-15.186c0-1.381,1.119-2.5,2.5-2.5c1.381,0,2.5,1.119,2.5,2.5 c0,11.597,17.988,15.151,18.17,15.185c1.199,0.228,2.031,1.278,2.03,2.456h0.003v6.889c0,10.427-3.973,19.639-10.005,25.087v1.777 c8.413-0.44,14.373-3.149,17.723-8.085c7.714-11.369-0.022-31.186-0.102-31.385c-0.117-0.294-0.178-0.609-0.178-0.925 c0-7.688-2.316-13.811-6.884-18.197c-8.778-8.429-23.022-7.953-23.156-7.946c-0.032,0.001-0.061-0.005-0.094-0.005 c-0.036,0-0.069,0.007-0.105,0.005c-0.146-0.004-14.443-0.446-23.182,7.967c-4.554,4.384-6.862,10.499-6.862,18.176 c0,0.316-0.061,0.631-0.178,0.925c-0.079,0.199-7.815,20.016-0.102,31.385c3.35,4.936,9.31,7.645,17.723,8.085V84.747z"/><path style="fill:#e5cbbd" d="M271.491,115.876c11.623,0,19.729-4.514,20.997-11.413l-11.382-2.731 c-1.124-0.27-1.917-1.275-1.917-2.431V88.144c-2.405,1.16-4.997,1.795-7.698,1.795s-5.293-0.635-7.698-1.795v11.158 c0,1.156-0.793,2.161-1.917,2.431l-11.382,2.731C251.763,111.362,259.868,115.876,271.491,115.876z"/><path style="fill:#a6d9ff" d="M204.168,115.87l5.109,3.235c0.145-0.249,0.27-0.506,0.426-0.751 c3.019-4.767,7.692-8.054,13.029-9.332l3.985-11.441c-3.202-2.879-7.598-5.442-13.673-7.018c-0.157-0.041-9.177-4.361-9.177-4.361 l0.911,17.271c0.042,0.802-0.314,1.562-0.933,2.064c2.055-0.512,4.307-0.223,6.233,0.997c1.166,0.739,1.513,2.283,0.774,3.45 c-0.739,1.167-2.285,1.512-3.45,0.775c-1.41-0.895-3.282-0.472-4.174,0.937C202.338,113.105,202.759,114.978,204.168,115.87z"/><path style="fill:#d8b4a4" d="M213.928,121.03c-2.337,3.689-3.096,8.067-2.14,12.328c0.957,4.261,3.516,7.894,7.205,10.23 c2.622,1.661,5.641,2.539,8.729,2.539h0.001c5.645,0.001,10.813-2.842,13.829-7.604c4.822-7.617,2.55-17.737-5.067-22.559 c-2.621-1.661-5.639-2.538-8.726-2.538C222.114,113.425,216.943,116.268,213.928,121.03z M232.287,126.866 c0.738-1.167,2.283-1.513,3.449-0.775c2.316,1.466,2.27,4.985-0.116,8.757c-0.883,1.395-1.976,2.585-3.076,3.352 c-1.126,0.784-2.108,1.031-2.901,1.031c-0.895,0-1.549-0.316-1.889-0.532c-1.166-0.739-1.513-2.283-0.774-3.45 c0.578-0.913,1.648-1.322,2.643-1.106c0.389-0.256,1.091-0.891,1.773-1.969c0.683-1.079,0.957-1.985,1.021-2.446 C231.795,128.919,231.709,127.777,232.287,126.866z M226.607,119.396c0.941-0.93,2.61-0.93,3.54,0c0.471,0.47,0.74,1.11,0.74,1.77 c0,0.66-0.27,1.3-0.74,1.77c-0.46,0.46-1.109,0.73-1.77,0.73c-0.65,0-1.3-0.27-1.771-0.73c-0.46-0.47-0.729-1.11-0.729-1.77 C225.877,120.506,226.147,119.866,226.607,119.396z M218.387,132.386c0.93-0.93,2.601-0.93,3.54,0c0.46,0.47,0.73,1.11,0.73,1.77 c0,0.66-0.271,1.3-0.73,1.77c-0.47,0.46-1.11,0.73-1.77,0.73c-0.66,0-1.311-0.27-1.771-0.73c-0.47-0.47-0.729-1.11-0.729-1.77 C217.658,133.496,217.927,132.856,218.387,132.386z"/><path style="fill:#a6d9ff" d="M232.656,105.414c-0.571-1.164-1.271-2.366-2.127-3.57l-2.298,6.598 c0.159,0.004,0.319,0.01,0.478,0.017C229.958,107.332,231.272,106.31,232.656,105.414z"/><path style="fill:#767743" d="M236.606,302.861l18.265-75.456l-0.688-0.609c-0.673-0.597-0.974-1.509-0.787-2.39 c0.126-0.598,3.258-14.636,17.608-17.984l7.68-2.665c-2.266,0.012-4.658,0.013-7.193,0.013c-11.271,0-20.173,0-26.265-1.127 c-1.592-0.294-5.086-0.954-7.707-3.064c-0.804,3.483-1.486,7.122-2.057,10.876c-0.007,0.096-0.023,0.189-0.041,0.283 c-4.847,32.241-1.68,72.583,0.287,91.316C236.032,302.325,236.331,302.595,236.606,302.861z"/><path style="fill:#d8b4a4" d="M296.435,205.746c-2.709,0-5.237-0.513-7.557-1.474c-0.18,0.772-0.717,1.419-1.463,1.732 c0.217,4.784,1.581,9.002,9.02,9.002c7.447,0,8.806-4.23,9.021-9.001c-0.747-0.313-1.285-0.961-1.465-1.733 C301.672,205.233,299.144,205.746,296.435,205.746z"/><path style="fill:#d8b4a4" d="M314.253,172.202h-12.818c-0.943,0-1.806-0.531-2.232-1.373l-2.768-5.479l-2.769,5.479 c-0.426,0.842-1.288,1.373-2.231,1.373h-12.818c-0.011,0.506-0.022,1.014-0.022,1.532c0,8.004,1.956,16.05,6.138,21.252 c0.165,0.15,4.858,5.76,11.702,5.76c6.844,0,11.537-5.609,11.702-5.76c4.182-5.202,6.138-13.248,6.138-21.252 C314.275,173.216,314.264,172.708,314.253,172.202z M284.977,180.286c-0.46-0.47-0.729-1.12-0.729-1.77c0-0.66,0.27-1.3,0.729-1.77 c0.94-0.93,2.61-0.93,3.54,0c0.471,0.47,0.73,1.11,0.73,1.77c0,0.65-0.26,1.3-0.73,1.77c-0.46,0.46-1.109,0.73-1.77,0.73 C286.087,181.016,285.448,180.746,284.977,180.286z M301.608,194.41c-1.393,0.543-3.19,0.844-5.064,0.848c-0.015,0-0.029,0-0.044,0 c-4.989,0-8.345-1.911-8.353-4.761c-0.004-1.381,1.111-2.503,2.492-2.508c0.003,0,0.005,0,0.008,0c1.087,0,2.013,0.694,2.356,1.664 c0.508,0.25,1.723,0.605,3.5,0.605c0.011,0,0.021,0,0.03,0c1.793-0.004,3.017-0.366,3.526-0.62c0.34-0.972,1.264-1.671,2.353-1.674 c0.003,0,0.005,0,0.008,0c1.377,0,2.496,1.114,2.5,2.492C304.922,191.449,304.497,193.283,301.608,194.41z M308.087,180.276 c-0.47,0.47-1.11,0.74-1.771,0.74c-0.659,0-1.3-0.27-1.77-0.74c-0.46-0.46-0.73-1.1-0.73-1.76c0-0.66,0.261-1.31,0.73-1.77 c0.93-0.93,2.61-0.93,3.54,0c0.46,0.47,0.729,1.11,0.729,1.77C308.817,179.165,308.547,179.816,308.087,180.276z"/><path style="fill:#767743" d="M271.612,262.672l-0.891-7.218l-18.36,52.866h1.343 C259.474,284.446,269.337,266.592,271.612,262.672z"/><path style="fill:#d8b4a4" d="M242.762,312.311c1.69,0.379,3.387-0.692,3.767-2.389c0.021-0.093,0.047-0.185,0.078-0.274 l22.629-65.156c0.027-0.08,0.069-0.149,0.105-0.225l-0.56-4.533l-9.676-8.575l-18.685,77.194l2.269,3.95 C242.713,312.307,242.738,312.306,242.762,312.311z"/><polygon style="fill:#d6679f" points="317.018 256.22 275.853 256.22 276.408 260.71 316.464 260.71"/><path style="fill:#c69c6d" d="M327.349,194.329c-0.353-20.084-5.016-34.377-13.872-42.508c-8.072-7.412-16.965-6.758-17.033-6.758 c-0.071,0-9.141-0.574-17.148,6.848c-1.778,1.648-3.378,3.561-4.815,5.707c-0.012,0.018-4.805,8.977-6.283,14.718 c-0.019,0.105-1.027,4.477-1.389,6.717c-0.006,0.071-0.023,0.142-0.035,0.213c-0.73,4.595-1.156,9.607-1.252,15.064h12.746 c-2.989-5.375-4.672-12.408-4.672-20.595c0-1.441,0.041-2.849,0.122-4.184l0.011,0.001c0.079-1.309,1.155-2.349,2.484-2.349h13.685 l4.307-8.521c0.623-1.233,2.123-1.728,3.359-1.104c0.495,0.251,0.864,0.647,1.097,1.107l0.007-0.003l4.307,8.521h13.685 c1.329,0,2.405,1.04,2.484,2.349l0.011-0.001c0.081,1.335,0.122,2.743,0.122,4.184c0,8.187-1.683,15.22-4.672,20.595H327.349z"/><polygon style="fill:#8c6239" points="347.085 138.559 350.57 143.539 354.837 143.539 358.322 138.559"/><path style="fill:#c69c6d" d="M351.499,85.768V87.5c0,1.887-0.533,3.648-1.443,5.158v0.85c0,1.46,1.188,2.647,2.646,2.647 c1.46,0,2.648-1.188,2.648-2.647v-0.846c-0.911-1.51-1.445-3.272-1.445-5.161v-1.733H351.499z"/><path style="fill:#ccc" d="M327.124,69.306c-2.451,7.919-2.199,12.462-1.301,15.045v-3.295c0-1.381,1.119-2.5,2.5-2.5h2.404 c0.393-8.387,2.771-15.229,6.699-19.923C332.808,59.433,329.005,63.223,327.124,69.306z"/><path style="fill:#b7c16f" d="M273.991,125.056c1.552,1.755,4.642,6.068,4.691,6.168c1.109,1.108,2.206,2.421,3.232,4.004 c0.679,1.047,3.069,3.28,6.745,5.831c3.858-0.787,6.939-1.032,7.77-0.988c0.396-0.022,1.312-0.046,2.602,0.058 c1.031-1.675,2.404-3.499,4.238-5.287c-0.393-0.62-0.853-1.168-1.395-1.621c-1.059-0.886-1.197-2.463-0.311-3.521 c0.889-1.059,2.463-1.198,3.522-0.312c0.791,0.662,1.485,1.421,2.084,2.27c2.996-2.059,6.77-3.882,11.545-5.098l1.195-0.401 c-1.522-4.628-6.768-16.807-20.549-20.046l-1.997-0.479c-1.698,8.678-10.569,14.511-23.373,15.179V125.056z"/><path style="fill:#ccc" d="M377.081,78.557c1.381,0,2.5,1.119,2.5,2.5v3.297c0.9-2.584,1.153-7.127-1.299-15.048 c-1.883-6.082-5.685-9.872-10.304-10.671c3.927,4.693,6.306,11.536,6.698,19.922H377.081z"/><polygon style="fill:#fff" points="343.167 134.827 338.168 125.31 331.495 127.548 332.039 139.758"/><path style="fill:#c69c6d" d="M374.284,96.343c-1.412,0.759-3.024,1.192-4.737,1.192h-5.605c-1.517,0-2.95-0.348-4.24-0.953 c-1.186,2.689-3.875,4.573-6.998,4.573c-3.123,0-5.811-1.884-6.996-4.574c-1.291,0.605-2.725,0.954-4.242,0.954h-5.605 c-1.713,0-3.325-0.433-4.737-1.192c1.599,11.015,10.012,18.421,21.581,18.421C364.272,114.764,372.685,107.357,374.284,96.343z M343.56,105.284c0-1.381,1.119-2.5,2.5-2.5c0.781,0,1.479,0.359,1.938,0.92c0.695,0.206,2.354,0.496,4.802,0.496 s4.106-0.29,4.802-0.496c0.459-0.562,1.157-0.92,1.939-0.92c1.381,0,2.5,1.119,2.5,2.5c0,0.969,0,3.917-9.24,3.917 S343.56,106.253,343.56,105.284z"/><path style="fill:#d8d5d4" d="M335.859,92.535h5.605c2.776,0,5.035-2.258,5.035-5.035v-3.944h-15.676v1.435V87.5 C330.824,90.277,333.082,92.535,335.859,92.535z M336.988,86.426c0.939-0.93,2.609-0.93,3.54,0c0.47,0.47,0.729,1.11,0.729,1.76 c0,0.66-0.26,1.3-0.729,1.77c-0.471,0.47-1.11,0.74-1.771,0.74c-0.66,0-1.3-0.27-1.77-0.74c-0.46-0.46-0.73-1.11-0.73-1.77 C336.257,87.536,336.528,86.886,336.988,86.426z"/><path style="fill:#c69c6d" d="M348.999,78.557c1.281,0,2.326,0.968,2.471,2.211h2.465c0.145-1.243,1.189-2.211,2.471-2.211h13.266 c-0.601-11.049-5.288-21.983-16.969-21.983c-11.681,0-16.368,10.934-16.969,21.983H348.999z M347.617,61.168h10.369 c1.381,0,2.5,1.119,2.5,2.5c0,1.381-1.119,2.5-2.5,2.5h-10.369c-1.381,0-2.5-1.119-2.5-2.5 C345.117,62.287,346.236,61.168,347.617,61.168z M343.544,69.275h18.514c1.381,0,2.5,1.119,2.5,2.5c0,1.381-1.119,2.5-2.5,2.5 h-18.514c-1.381,0-2.5-1.119-2.5-2.5C341.044,70.394,342.164,69.275,343.544,69.275z"/><path style="fill:#a6d9ff" d="M184.193,110.24l5.984,84.851c0.044,0.624-0.147,1.241-0.536,1.73l-10.464,13.177v8.026h32.959 v-46.591c-4.263-2.833-6.492-5.328-6.559-5.404c-0.309-0.356-0.511-0.792-0.582-1.258c-1.896-12.355,2.018-22.17,3.622-25.54 c-0.741-1.506-1.33-3.098-1.707-4.777c-0.809-3.6-0.665-7.261,0.354-10.704l-5.771-3.655c-3.737-2.367-4.854-7.334-2.487-11.074 c0.828-1.308,1.978-2.286,3.278-2.915h-0.001c-0.314,0-0.631-0.059-0.931-0.18l-12.394-4.974L184.193,110.24z"/><path style="fill:#d8b4a4" d="M146.121,362.506c1.752,0.567,3.203,0.043,3.396-0.553c0.025-0.08,0.056-0.158,0.089-0.234 l11.893-27.091l-7.363-2.901l-10.474,28.432C143.5,360.662,144.37,361.938,146.121,362.506z"/><polygon style="fill:#fff" points="373.368 139.758 373.913 127.548 367.239 125.31 362.24 134.827"/><path style="fill:#d8d5d4" d="M358.906,87.5c0,2.776,2.259,5.035,5.035,5.035h5.605c2.776,0,5.035-2.258,5.035-5.035v-2.509 v-1.435h-15.676V87.5z M365.078,86.426c0.93-0.93,2.6-0.93,3.529,0c0.471,0.46,0.74,1.11,0.74,1.77c0,0.65-0.27,1.3-0.74,1.76 c-0.46,0.47-1.109,0.74-1.77,0.74c-0.65,0-1.3-0.27-1.76-0.74c-0.471-0.46-0.74-1.11-0.74-1.76 C364.337,87.536,364.607,86.886,365.078,86.426z"/><path style="fill:#c69c6d" d="M362.171,118.212c-2.907,1.009-6.087,1.552-9.469,1.552c-3.381,0-6.561-0.542-9.467-1.551v5.994 l4.893,9.314h9.15l4.893-9.314V118.212z"/><path style="fill:#fff" d="M368.466,143.055l-5.486-2.431l-4.126,5.898l1.634,6.161 C365.649,150.207,367.703,145.601,368.466,143.055z"/><path style="fill:#fff" d="M336.941,143.055c0.764,2.546,2.817,7.153,7.979,9.628l1.634-6.161l-4.126-5.898L336.941,143.055z"/><path style="fill:#8c6239" d="M351.19,148.539l-1.479,5.579c0.932,0.141,1.927,0.224,2.993,0.237 c1.066-0.013,2.062-0.096,2.993-0.237l-1.48-5.579H351.19z"/><path style="fill:#4d4d4d" d="M212.136,294.732v-4.905c-0.279,0.221-0.562,0.438-0.848,0.646v4.096L212.136,294.732z"/><path style="fill:#d8b4a4" d="M219.712,260.198h-24.33c-0.86,0-1.66-0.442-2.117-1.171l-4.083-6.504l-4.083,6.504 c-0.457,0.729-1.257,1.171-2.117,1.171h-7.869c-0.008,0.451-0.017,0.902-0.017,1.364c0,15.761,10.011,28.583,22.316,28.583 c12.306,0,22.316-12.822,22.316-28.583C219.729,261.101,219.72,260.649,219.712,260.198z M185.437,268.356 c-0.46-0.46-0.73-1.11-0.73-1.77c0-0.66,0.27-1.3,0.73-1.77c0.931-0.93,2.61-0.93,3.54,0c0.46,0.47,0.73,1.11,0.73,1.77 c0,0.66-0.27,1.3-0.73,1.77c-0.47,0.46-1.109,0.73-1.77,0.73C186.547,269.086,185.897,268.816,185.437,268.356z M202.806,283.493 c-1.451,0.566-3.328,0.88-5.286,0.884c-0.014,0-0.027,0-0.042,0c-1.941,0-3.803-0.305-5.246-0.861 c-2.972-1.145-3.42-3.012-3.422-4.023c-0.003-1.38,1.114-2.503,2.494-2.505c0.002,0,0.004,0,0.004,0 c1.108,0,2.047,0.718,2.376,1.714c0.528,0.276,1.891,0.662,3.825,0.675c1.974-0.004,3.296-0.413,3.824-0.692 c0.325-0.999,1.264-1.722,2.371-1.724c0.002,0,0.004,0,0.006,0c1.378,0,2.497,1.116,2.5,2.495 C206.212,280.467,205.773,282.336,202.806,283.493z M209.587,268.306c-0.47,0.47-1.11,0.74-1.77,0.74c-0.659,0-1.31-0.27-1.77-0.74 c-0.47-0.46-0.73-1.1-0.73-1.76c0-0.66,0.261-1.31,0.73-1.77c0.92-0.93,2.61-0.93,3.54,0c0.46,0.46,0.73,1.11,0.73,1.77 C210.317,267.196,210.047,267.846,209.587,268.306z"/><path style="fill:#d8b4a4" d="M188.537,293.315v3.181c0.433,1.077,4.149,4.168,8.86,4.168c0.004,0,0.011,0,0.016,0 c0.004,0,0.011,0,0.016,0c4.712,0,8.428-3.092,8.86-4.168v-3.181c-2.785,1.18-5.77,1.83-8.876,1.83 S191.322,294.495,188.537,293.315z"/><path style="fill:#4d4d4d" d="M180.705,231.925h-21.182l8.232,37.168c1.323,5.866-2.378,11.725-8.253,13.05 c-0.807,0.182-1.62,0.272-2.427,0.272c-2.041,0-4.044-0.576-5.812-1.692c-2.443-1.543-4.146-3.938-4.803-6.747l-5.234-17.827 v96.158l8.254-22.412l-3.38-1.331c-0.676-0.266-1.203-0.814-1.443-1.499c-0.24-0.686-0.17-1.442,0.191-2.072l10.472-18.235 c0.632-1.387,4.339-8.149,16.639-9.984l1.101-20.025c-1.891-4.565-2.964-9.723-2.964-15.186c0-1.321,0.044-2.577,0.108-3.802 c-0.001-0.021-0.007-0.041-0.007-0.062c0-0.081,0.017-0.157,0.023-0.235C170.975,244.066,175.41,236.332,180.705,231.925z"/><path style="fill:#4d4d4d" d="M183.537,294.568v-4.096c-0.899-0.655-1.768-1.369-2.597-2.143l0.366,6.668L183.537,294.568z"/><path style="fill:#f7a9c9" d="M320.621,211.265c-0.09-0.02-10.275-3.55-10.275-3.55c-0.527,5.03-2.922,12.292-13.91,12.292 c-11,0-13.388-7.275-13.91-12.292c0,0-10.184,3.529-10.273,3.549c-9.092,2.068-12.527,9.686-13.577,12.83l14.13,12.523 c0.456,0.404,0.748,0.96,0.823,1.565l1.608,13.036h42.399l1.608-13.036c0.075-0.604,0.367-1.161,0.823-1.565l14.13-12.524 C333.15,220.957,329.716,213.334,320.621,211.265z"/><path style="fill:#e5cbbd" d="M248.724,328.564l-1.395,0.549c0.13,2.199,0.275,4.438,0.513,7.564l1.63,4.426 c0.086-9.712,1.286-19.088,3.102-27.783h-2.075c-1.105,1.903-2.934,3.274-5.037,3.814l4.514,7.859 c0.361,0.63,0.432,1.387,0.191,2.072C249.927,327.75,249.4,328.298,248.724,328.564z"/><path style="fill:#d8b4a4" d="M288.488,423.149l-0.021-78.442h-16.618c0.362,29.229,7.01,69.044,8.648,78.442H288.488z"/><path style="fill:#d8b4a4" d="M312.373,423.149c1.639-9.399,8.287-49.22,8.65-78.442h-16.618l-0.02,78.442H312.373z"/><polygon style="fill:#c69c6d" points="322.289 255.852 322.151 255.453 322.101 255.852"/><path style="fill:#f7a9c9" d="M317.23,265.71h-41.587c-3.622,6.441-20.4,38.157-21.16,73.997h83.904 C337.629,303.825,320.853,272.146,317.23,265.71z"/><path style="fill:#e5cbbd" d="M273.991,415.152h0.104c-0.035-0.22-0.068-0.429-0.104-0.654V415.152z"/><path style="fill:#998675" d="M273.991,423.861c0.478-0.161,0.97-0.302,1.484-0.41c-0.154-0.892-0.346-2.012-0.561-3.298h-0.924 V423.861z"/><path style="fill:#736357" d="M341.499,311.165l-17.474-50.313h-2.541l-0.225,1.821c3.261,5.62,22.153,39.907,22.153,79.535 c0,1.381-1.119,2.5-2.5,2.5h-14.891c-0.215,17.6-2.672,38.935-4.978,55.352v19.438h24.375l3.39-102.148 c-1.32-0.098-2.607-0.5-3.758-1.23C343.256,314.979,341.999,313.224,341.499,311.165z"/><rect x="195.005" y="422.471" style="fill:#333" width="4.814" height="12.33"/><path style="fill:#4d4d4d" d="M197.413,400.64c-0.425,0.785-1.251,1.312-2.194,1.312h-0.213v15.519h4.814v-15.519h-0.213 C198.664,401.952,197.837,401.425,197.413,400.64z"/><polygon style="fill:#d8b4a4" points="180.388 423.703 190.005 423.703 190.005 401.952 178.683 401.952"/><path style="fill:#f4a04d" d="M235.671,310.122c-0.019-0.03-0.036-0.061-0.053-0.092c0,0-3.24-7.042-14.215-8.428 c-0.053-0.007-0.106-0.015-0.159-0.025l-7.105-1.368c-0.005-0.001-0.01-0.002-0.014-0.003l-3.853-0.742 c-2.133,3.189-7.364,6.2-12.847,6.2h-0.012h-0.006h-0.012c-5.484,0-10.719-3.013-12.85-6.199c0,0-11.074,2.129-11.127,2.137 c-10.743,1.587-13.445,6.976-13.545,7.213c-0.04,0.094-9.25,16.157-9.25,16.157l15.551,6.125l4.16-7.829 c0.538-1.013,1.698-1.531,2.812-1.253c1.114,0.277,1.896,1.278,1.896,2.426v38.306h44.734v-38.306c0-1.148,0.781-2.148,1.895-2.426 c1.114-0.279,2.273,0.24,2.812,1.253l4.16,7.829l15.551-6.125L235.671,310.122z"/><path style="fill:#999" d="M172.658,430.652c-1.185,1.214-1.768,2.825-2.053,4.148h19.4v-6.098h-11.929 C175.71,428.703,173.938,429.341,172.658,430.652z"/><path style="fill:#e0b489" d="M76.256,421.04h10.905v-75.013H66.698C68.233,365.036,71.097,392.525,76.256,421.04z"/><path style="fill:#5576a5" d="M175.045,396.952h17.909l1.971-19.822c0.137-1.375,1.371-2.377,2.734-2.241 c1.207,0.12,2.125,1.079,2.239,2.241h0.001l1.971,19.822h17.909v-29.204h-44.734V396.952z"/><path style="fill:#d8b4a4" d="M251.132,360.066l-10.44-28.338l-7.364,2.901l11.893,27.091c0.033,0.077,0.063,0.155,0.089,0.234 c0.193,0.595,1.643,1.121,3.396,0.552C250.456,361.938,251.325,360.662,251.132,360.066z"/><polygon style="fill:#d8b4a4" points="204.82 401.952 204.82 423.703 214.437 423.703 216.142 401.952"/><path style="fill:#e0b489" d="M92.162,421.04h10.903c5.159-28.515,8.023-56.004,9.559-75.013H92.162V421.04z"/><path style="fill:#c4806e" d="M118.956,188.289c2.61-6.179,5.311-12.568,0.417-23.319c-0.425-0.933-0.236-2.031,0.475-2.77 l12.907-13.403c-3.981-5.218-9.086-8.61-15.226-10.054l-8.455-2.029l-16.914,48.874v59.79h38.046 c-0.141-5.83-1.542-21.814-11.831-39.398C114.373,199.138,116.703,193.623,118.956,188.289z"/><path style="fill:#96564a" d="M56.864,341.027h65.594c9.631-57.937,8.617-83.637,8.003-90.649H48.867 C48.261,257.431,47.267,283.295,56.864,341.027z"/><path style="fill:#4d4d4d" d="M166.421,336.567l-0.268-0.105l-11.928,27.169c-0.909,2.583-3.539,4.125-6.604,4.125 c-0.984,0-2.013-0.159-3.044-0.493c-1.302-0.422-2.434-1.071-3.352-1.865v52.073h24.098l4.544-82.665l-0.323,0.609 C168.948,336.537,167.605,337.034,166.421,336.567z"/><path style="fill:#998675" d="M92.162,426.04v8.761h22.759c-2.233-8.073-8.923-8.711-9.847-8.761H92.162z"/><path style="fill:#333" d="M136.334,425.467c-2.564,2.717-3.339,6.783-3.565,9.333h32.422v-12.33h-21 C140.808,422.471,138.238,423.451,136.334,425.467z"/><path style="fill:#c4806e" d="M141.181,238.248l6.431,21.899l12.138-4.079l-21.156-95.514c-0.006-0.026-0.803-3.377-3.033-7.461 l-10.957,11.377c3.592,8.794,2.726,15.292,0.967,20.607l15.456,52.64C141.097,237.885,141.148,238.063,141.181,238.248z"/><path style="fill:#a6d9ff" d="M122.692,203.455c0.255,0.436,0.495,0.869,0.74,1.303l1.131-5.363l-1.987-6.768 C121.081,196.426,120.414,199.561,122.692,203.455z"/><path style="fill:#999" d="M204.82,428.703v6.098h19.4c-0.285-1.323-0.867-2.934-2.053-4.148 c-1.28-1.312-3.053-1.949-5.419-1.949H204.82z"/><path style="fill:#998675" d="M250.261,434.801h13.682c0.872-2.532,2.504-5.579,5.048-7.928v-6.721h-10.915 C257.335,423.368,255.344,429.493,250.261,434.801z"/><path style="fill:#736357" d="M384.363,260.852h-38.266l4.348,17.965c0.023-0.047-0.018-1.277,2.385-1.277 c2.409,0,2.359,2.225,2.361,2.273l0.9,22.331l1.275,5.27c0.461,2.059,0.131,4.129-0.902,5.908l3.523,106.175h24.375V260.852z"/><path style="fill:#4d4d4d" d="M381.904,424.497H363.07v10.304h28.948c-0.229-2.181-0.939-5.417-3.059-7.655 C387.269,425.363,384.961,424.497,381.904,424.497z"/><path style="fill:#c69c6d" d="M420.398,271.817c1.168-0.363,2.189-1.056,2.937-2.027c0.622-0.808,0.982-1.745,1.103-2.72 C422.47,267.961,420.969,269.698,420.398,271.817z"/><path style="fill:#c69c6d" d="M423.798,260.852h-12.517l1.345,6.06c0.016,0.069,0.718,3.494,2.767,4.317 c0.916-4.449,4.246-8.02,8.553-9.297L423.798,260.852z"/><path style="fill:#a6d9ff" d="M193.896,81.703l-6.739,13.138l12.424,4.986l-0.849-16.095l-4.742-2.281 C193.957,81.535,193.937,81.623,193.896,81.703z"/><polygon style="fill:#588aa3" points="409.506 255.852 423.874 255.852 424.524 251.556 406.656 251.556"/><path style="fill:#588aa3" d="M404.991,150.322c-0.059-0.574-1.654-14.407-19.614-18.938c-0.062-0.015-6.533-2.183-6.533-2.183 l-0.644,14.437c-0.036,0.825-0.479,1.579-1.181,2.014c-0.401,0.249-0.858,0.375-1.316,0.375c-0.344,0-0.689-0.071-1.013-0.214 l-1.593-0.706c-1.598,4.872-5.64,10.956-13.579,13.285c-0.032,0.01-0.06,0.026-0.093,0.035c-0.018,0.005-0.036,0.003-0.054,0.007 c-0.923,0.264-3.796,0.995-6.669,0.995c-2.873,0-5.744-0.731-6.667-0.995c-0.017-0.004-0.036-0.002-0.054-0.007 c-0.033-0.009-0.061-0.025-0.093-0.035c-7.939-2.329-11.982-8.412-13.579-13.285l-1.593,0.706 c-0.323,0.144-0.669,0.214-1.013,0.214c-0.459,0-0.915-0.126-1.316-0.375c-0.702-0.435-1.145-1.189-1.181-2.014l-0.643-14.437 c0,0-6.472,2.167-6.533,2.183c-8.183,2.065-12.914,6.104-15.627,9.727c3.679,1.041,8.15,3.076,12.454,7.028 c10.294,9.451,15.513,25.833,15.513,48.691c0,1.381-1.119,2.5-2.5,2.5h-11.177c-0.13,1.975-0.246,3.932-0.347,5.871l3.521,1.222 c14.351,3.349,17.48,17.387,17.606,17.985c0.186,0.88-0.114,1.792-0.787,2.389l-0.685,0.607l6.886,28.448h40.353 c5.603-33.089-0.786-80.379-0.854-80.875c-0.185-1.337,0.727-2.579,2.057-2.805c1.328-0.228,2.602,0.644,2.87,1.966l14.726,72.418 h20.338C424.376,246.556,404.999,150.412,404.991,150.322z"/><path style="fill:#998675" d="M293.491,434.801h1.151c-0.395-0.385-0.771-0.794-1.151-1.201V434.801z"/><path style="fill:#e5cbbd" d="M293.467,344.707l0.003,10.653c0.369-3.586,0.704-7.135,1.011-10.653H293.467z"/><path style="fill:#d8b4a4" d="M333.766,231.157l-9.677,8.577l-0.559,4.53c0.035,0.076,22.734,65.384,22.734,65.384 c0.031,0.09,0.754,1.798,1.466,2.249c0.711,0.452,1.559,0.598,2.377,0.415c0.823-0.184,1.523-0.676,1.975-1.387 c0.451-0.711,0.599-1.555,0.415-2.377L333.766,231.157z"/><path style="fill:#e5cbbd" d="M251.956,344.707c-0.475,0-0.914-0.14-1.292-0.37l5.191,14.094c1.114,3.435-1.096,7.082-5.036,8.62 c1.886,15.765,4.322,31.923,7.266,48.102h10.905v-38.006c-1.153-10.954-2.018-22.314-2.142-32.439H251.956z"/><path style="fill:#d6679f" d="M278.408,428.149c-5.049,0.011-7.751,3.805-9.067,6.644l19.15-0.041l-0.002-6.603H278.408z"/><path style="fill:#4d4d4d" d="M320.918,424.75c4.294,2.302,6.836,6.645,8.009,10.05h13.41v-10.304h-18.834 C322.571,424.497,321.716,424.587,320.918,424.75z"/><path style="fill:#d6679f" d="M314.462,428.149h-10.079l-0.002,6.603l19.148,0.041 C322.215,431.956,319.513,428.161,314.462,428.149z"/><path style="fill:#c4806e" d="M87.161,185.588l-16.916-48.874l-8.444,2.026c-7.184,1.689-12.045,5.806-15.273,10.016L59.471,162.2 c0.711,0.738,0.899,1.836,0.475,2.77c-4.894,10.751-2.193,17.141,0.417,23.319c2.254,5.333,4.584,10.849,0.581,17.691 c-10.324,17.645-11.706,33.581-11.837,39.398h38.054V185.588z"/><path style="fill:#d8d5d4" d="M160.192,50.184h5.277c2.532,0,4.593-1.828,4.593-4.076v-3.124h-14.464v3.124 C155.598,48.355,157.659,50.184,160.192,50.184z M161.158,44.966c0.93-0.94,2.609-0.93,3.54,0c0.46,0.46,0.729,1.11,0.729,1.76 c0,0.66-0.27,1.3-0.729,1.77c-0.471,0.47-1.11,0.73-1.771,0.73c-0.66,0-1.3-0.26-1.77-0.73c-0.46-0.46-0.73-1.11-0.73-1.77 C160.427,46.066,160.698,45.426,161.158,44.966z"/><path style="fill:#e0b489" d="M82.919,78.203c-2.543,4.09-6.804,6.824-9.902,8.393h12.814c1.355,0,2.453,1.081,2.492,2.428h2.672 c0.039-1.347,1.137-2.428,2.493-2.428h2.735C89.138,84.623,85.146,81.297,82.919,78.203z"/><path style="fill:#ccc" d="M89.662,56.18c3.746,0,7.263,0.772,10.383,2.158c0.351-1.084,0.553-2.215,0.553-3.367 c0-6.03-4.905-10.937-10.936-10.937c-6.031,0-10.938,4.906-10.938,10.937c0,1.151,0.202,2.284,0.553,3.368 C82.398,56.952,85.915,56.18,89.662,56.18z"/><path style="fill:#998675" d="M64.401,434.801h22.761v-8.761H74.245C73.309,426.091,66.632,426.736,64.401,434.801z"/><path style="fill:#ccc" d="M80.08,70.796c0-1.363,1.093-2.476,2.456-2.5c1.344-0.048,2.495,1.049,2.542,2.411 c0.03,0.469,1,11.814,23.311,12.604c0,0-0.008-4.958-0.008-4.985c0-9.615-8.223-17.147-18.719-17.147s-18.719,7.532-18.719,17.147 c0,0.033-0.01,3.714-0.01,3.714C74.617,80.146,80.08,76.395,80.08,70.796z"/><path style="fill:#d8d5d4" d="M95.989,94.519c0,2.118,1.724,3.841,3.842,3.841h4.717c2.118,0,3.841-1.723,3.841-3.841v-2.923 H95.989V94.519z M100.517,93.356c0.92-0.93,2.61-0.93,3.54,0c0.46,0.46,0.731,1.11,0.731,1.77c0,0.66-0.271,1.3-0.731,1.76 c-0.47,0.47-1.109,0.74-1.769,0.74c-0.66,0-1.311-0.27-1.771-0.74c-0.46-0.46-0.729-1.1-0.729-1.76 C99.788,94.466,100.057,93.816,100.517,93.356z"/><path style="fill:#a6d9ff" d="M135.352,144.048l0.791-3.999l-13.316-38.23c-3.737,5.219-4.286,10.123-4.321,10.49 c-0.008,0.08-4.02,20.561-4.02,20.561l4.199,1.007C125.181,135.406,130.872,138.894,135.352,144.048z"/><path style="fill:#a6d9ff" d="M141.227,139.867v13.367c1.607,3.49,2.209,6.068,2.245,6.227l12.972,58.563h17.733v-8.038 l-10.454-13.166c-0.389-0.49-0.58-1.107-0.536-1.73l5.983-84.851l-4.624-9.012l-12.488,5.688c-0.33,0.151-0.684,0.225-1.036,0.225 c-0.493,0-0.984-0.146-1.405-0.433c-0.722-0.49-1.136-1.322-1.092-2.194l0.926-18.29c0,0-8.975,4.3-9.132,4.34 c-6.104,1.583-10.501,4.166-13.677,7.008l14.446,41.473C141.105,139.094,141.227,139.812,141.227,139.867z"/><path style="fill:#a6d9ff" d="M159.467,81.703c-0.041-0.08-0.062-0.168-0.093-0.252l-4.791,2.305l-0.857,16.905l12.535-5.71 L159.467,81.703z"/><path style="fill:#c69c6d" d="M176.681,73.7c9.557-0.001,16.733-3.402,20.383-19.305c-1.191,0.503-2.506,0.788-3.893,0.788h-5.277 c-5.289,0-9.593-4.071-9.593-9.076v-3.124h-3.239v3.124c0,5.004-4.304,9.076-9.593,9.076h-5.277c-1.386,0-2.701-0.285-3.893-0.788 C159.949,70.298,167.124,73.699,176.681,73.7z M170.302,60.961c1.175,0,2.161,0.811,2.429,1.903 c0.486,0.299,1.872,0.819,4.049,0.819c2.176,0,3.562-0.52,4.049-0.82c0.268-1.092,1.254-1.903,2.429-1.903 c1.381,0,2.5,1.119,2.5,2.5c0,3.075-3.691,5.223-8.977,5.223c-5.286,0-8.978-2.147-8.978-5.223 C167.802,62.081,168.921,60.961,170.302,60.961z"/><path style="fill:#e0b489" d="M18.073,262.833c3.912,2.059,6.589,6.16,6.589,10.879c0,1.381-1.119,2.5-2.5,2.5 c-1.381,0-2.5-1.119-2.5-2.5c0-2.299-1.072-4.349-2.738-5.687l-0.476,2.149c-0.351,1.554-0.077,3.14,0.768,4.478 c0.845,1.337,2.16,2.266,3.704,2.615c1.54,0.349,2.981-0.225,4.467-0.771c1.896-0.696,2.638-3.795,2.65-3.841l2.212-7.725 l-11.764-3.954L18.073,262.833z"/><path style="fill:#e0b489" d="M98.325,152.49l5.865-16.948l-4.915-1.179c-1.124-0.27-1.917-1.275-1.917-2.431v-9.419 c-2.415,1.016-5.003,1.575-7.696,1.575c-2.695,0-5.283-0.56-7.7-1.577v9.42c0,1.156-0.793,2.161-1.917,2.431l-4.914,1.179 l5.865,16.948H98.325z"/><polygon style="fill:#96564a" points="96.594 157.49 82.726 157.49 89.661 177.525"/><path style="fill:#c69c6d" d="M193.623,22.716c-0.068-0.065-0.128-0.11-0.171-0.139c-0.347,0.089-1.115,0.504-1.743,0.844 c-2.599,1.405-6.947,3.755-15.022,3.757c0,0,0,0-0.002,0c0,0-0.002,0-0.004,0c-0.001,0-0.002,0-0.004,0c-0.001,0-0.002,0-0.002,0 c-8.073-0.002-12.422-2.353-15.02-3.757c-0.627-0.338-1.393-0.752-1.741-0.843c-0.051,0.037-0.13,0.102-0.237,0.209 c-0.838,1.208-1.574,8.189-1.062,15.197h36.135C195.261,30.977,194.52,23.99,193.623,22.716z"/><path style="fill:#c4806e" d="M43.734,153.064c-2.149,3.945-2.938,7.198-3.009,7.506l-21.153,95.498l12.054,4.051l21.791-76.1 c-1.521-5.116-2.057-11.33,1.3-19.548L43.734,153.064z"/><path style="fill:#d8d5d4" d="M74.774,98.36h4.718c2.117,0,3.84-1.723,3.84-3.841v-2.923H70.933v2.923 C70.933,96.637,72.656,98.36,74.774,98.36z M75.457,93.356c0.93-0.93,2.609-0.93,3.54,0c0.47,0.46,0.729,1.11,0.729,1.77 c0,0.66-0.26,1.3-0.729,1.77c-0.47,0.46-1.11,0.73-1.771,0.73c-0.66,0-1.3-0.27-1.77-0.74c-0.46-0.46-0.73-1.11-0.73-1.76 C74.727,94.466,74.998,93.816,75.457,93.356z"/><path style="fill:#754c24" d="M156.141,19.252c2.918-2.916,5.675-1.427,7.891-0.229c2.464,1.331,5.838,3.155,12.65,3.156 c6.813-0.001,10.188-1.825,12.65-3.156c2.217-1.197,4.971-2.691,7.891,0.229c2.723,2.723,2.916,12.556,2.53,18.732h0.513 c1.381,0,2.5,1.119,2.5,2.5v4.714c1.673-3.541,2.996-10.499,0.83-24.028c-1.331-8.315-2.589-16.169-26.914-16.17 c-24.324,0.001-25.581,7.855-26.912,16.17c-2.166,13.529-0.844,20.487,0.829,24.027v-4.713c0-1.381,1.119-2.5,2.5-2.5h0.513 C153.226,31.808,153.419,21.974,156.141,19.252z"/><path style="fill:#e0b489" d="M89.662,119.088c8.193,0,15.17-6.783,17.703-16.196c-0.886,0.299-1.831,0.468-2.817,0.468h-4.717 c-4.875,0-8.842-3.966-8.842-8.841v-0.495h-2.657v0.495c0,4.875-3.966,8.841-8.84,8.841h-4.718c-0.986,0-1.932-0.17-2.817-0.468 C74.491,112.305,81.467,119.088,89.662,119.088z M83.018,104.413c1.189,0,2.184,0.831,2.438,1.943c0.493,0.32,1.96,0.89,4.303,0.89 c2.343,0,3.81-0.57,4.303-0.89c0.253-1.112,1.248-1.943,2.438-1.943c1.381,0,2.5,1.119,2.5,2.5c0,3.14-3.8,5.333-9.24,5.333 s-9.24-2.193-9.24-5.333C80.518,105.532,81.637,104.413,83.018,104.413z"/><path style="fill:#d8d5d4" d="M183.301,46.108c0,2.248,2.061,4.076,4.593,4.076h5.277c2.533,0,4.594-1.828,4.594-4.076v-3.124 h-14.464V46.108z M188.868,44.956c0.93-0.93,2.6-0.92,3.529,0c0.471,0.47,0.73,1.12,0.73,1.77c0,0.66-0.26,1.31-0.73,1.77 c-0.47,0.47-1.109,0.73-1.77,0.73c-0.65,0-1.3-0.26-1.76-0.73c-0.471-0.46-0.74-1.11-0.74-1.77 C188.127,46.066,188.397,45.426,188.868,44.956z"/><path style="fill:#1c1b1a" d="M278.329,70.365c-1.189,0-2.185,0.831-2.438,1.943c-0.493,0.32-1.96,0.89-4.303,0.89 c-2.343,0-3.81-0.57-4.303-0.89c-0.253-1.112-1.248-1.943-2.438-1.943c-1.381,0-2.5,1.119-2.5,2.5c0,3.14,3.8,5.333,9.24,5.333 c5.44,0,9.24-2.193,9.24-5.333C280.829,71.484,279.71,70.365,278.329,70.365z"/><path style="fill:#1c1b1a" d="M263.647,60.846c0-0.66-0.27-1.3-0.739-1.77c-0.92-0.93-2.601-0.93-3.53,0 c-0.47,0.47-0.73,1.11-0.73,1.77c0,0.66,0.261,1.3,0.73,1.77c0.46,0.46,1.11,0.73,1.77,0.73c0.66,0,1.301-0.27,1.761-0.73 C263.377,62.146,263.647,61.506,263.647,60.846z"/><path style="fill:#1c1b1a" d="M280.267,59.076c-0.47,0.47-0.729,1.11-0.729,1.77c0,0.66,0.26,1.3,0.729,1.76 c0.46,0.47,1.101,0.74,1.771,0.74c0.66,0,1.3-0.27,1.76-0.74c0.47-0.46,0.74-1.1,0.74-1.76c0-0.66-0.271-1.3-0.74-1.77 C282.868,58.146,281.198,58.146,280.267,59.076z"/><path style="fill:#1c1b1a" d="M229.622,134.143c-0.995-0.216-2.064,0.193-2.643,1.106c-0.738,1.167-0.392,2.711,0.774,3.45 c0.34,0.216,0.993,0.532,1.889,0.532c0.793,0,1.775-0.248,2.901-1.031c1.101-0.767,2.193-1.957,3.076-3.352 c2.387-3.771,2.433-7.291,0.116-8.757c-1.166-0.737-2.711-0.392-3.449,0.775c-0.577,0.911-0.491,2.053,0.13,2.861 c-0.064,0.461-0.339,1.368-1.021,2.446C230.712,133.252,230.01,133.887,229.622,134.143z"/><path style="fill:#1c1b1a" d="M228.377,123.665c0.66,0,1.31-0.27,1.77-0.73c0.471-0.47,0.74-1.11,0.74-1.77 c0-0.66-0.27-1.3-0.74-1.77c-0.93-0.93-2.6-0.93-3.54,0c-0.46,0.47-0.729,1.11-0.729,1.77c0,0.66,0.27,1.3,0.729,1.77 C227.078,123.396,227.727,123.665,228.377,123.665z"/><path style="fill:#1c1b1a" d="M220.158,136.656c0.659,0,1.3-0.27,1.77-0.73c0.46-0.47,0.73-1.11,0.73-1.77 c0-0.66-0.271-1.3-0.73-1.77c-0.939-0.93-2.61-0.93-3.54,0c-0.46,0.47-0.729,1.11-0.729,1.77c0,0.66,0.26,1.3,0.729,1.77 C218.847,136.386,219.498,136.656,220.158,136.656z"/><path style="fill:#1c1b1a" d="M203.71,276.961c-0.002,0-0.004,0-0.006,0c-1.107,0.003-2.046,0.725-2.371,1.724 c-0.528,0.279-1.851,0.688-3.824,0.692c-1.935-0.014-3.297-0.399-3.825-0.675c-0.329-0.996-1.268-1.714-2.376-1.714 c0,0-0.002,0-0.004,0c-1.38,0.003-2.497,1.125-2.494,2.505c0.002,1.011,0.45,2.878,3.422,4.023 c1.443,0.556,3.305,0.861,5.246,0.861c0.015,0,0.028,0,0.042,0c1.958-0.004,3.835-0.318,5.286-0.884 c2.967-1.157,3.406-3.026,3.404-4.037C206.207,278.077,205.088,276.961,203.71,276.961z"/><path style="fill:#1c1b1a" d="M189.707,266.586c0-0.66-0.27-1.3-0.73-1.77c-0.93-0.93-2.609-0.93-3.54,0 c-0.46,0.47-0.73,1.11-0.73,1.77c0,0.66,0.27,1.31,0.73,1.77c0.46,0.46,1.11,0.73,1.77,0.73c0.66,0,1.3-0.27,1.77-0.73 C189.437,267.886,189.707,267.246,189.707,266.586z"/><path style="fill:#1c1b1a" d="M206.047,264.776c-0.47,0.46-0.73,1.11-0.73,1.77c0,0.66,0.261,1.3,0.73,1.76 c0.46,0.47,1.11,0.74,1.77,0.74c0.66,0,1.301-0.27,1.77-0.74c0.46-0.46,0.73-1.11,0.73-1.76c0-0.66-0.27-1.31-0.73-1.77 C208.658,263.846,206.967,263.846,206.047,264.776z"/><path style="fill:#1c1b1a" d="M302.419,187.964c-0.003,0-0.005,0-0.008,0c-1.089,0.003-2.013,0.702-2.353,1.674 c-0.51,0.253-1.733,0.616-3.526,0.62c-0.01,0-0.02,0-0.03,0c-1.777,0-2.992-0.355-3.5-0.605c-0.344-0.97-1.27-1.664-2.356-1.664 c-0.003,0-0.005,0-0.008,0c-1.381,0.004-2.496,1.127-2.492,2.508c0.009,2.851,3.364,4.761,8.353,4.761c0.015,0,0.029,0,0.044,0 c1.874-0.004,3.672-0.305,5.064-0.848c2.889-1.127,3.315-2.961,3.312-3.954C304.915,189.078,303.796,187.964,302.419,187.964z"/><path style="fill:#1c1b1a" d="M289.248,178.516c0-0.66-0.26-1.3-0.73-1.77c-0.93-0.93-2.6-0.93-3.54,0 c-0.46,0.47-0.729,1.11-0.729,1.77c0,0.65,0.27,1.3,0.729,1.77c0.471,0.46,1.11,0.73,1.771,0.73c0.66,0,1.31-0.27,1.77-0.73 C288.988,179.816,289.248,179.165,289.248,178.516z"/><path style="fill:#1c1b1a" d="M304.547,176.746c-0.47,0.46-0.73,1.11-0.73,1.77c0,0.66,0.271,1.3,0.73,1.76 c0.47,0.47,1.11,0.74,1.77,0.74c0.66,0,1.301-0.27,1.771-0.74c0.46-0.46,0.729-1.11,0.729-1.76c0-0.66-0.27-1.3-0.729-1.77 C307.158,175.816,305.477,175.816,304.547,176.746z"/><path style="fill:#1c1b1a" d="M89.758,112.246c5.44,0,9.24-2.193,9.24-5.333c0-1.381-1.119-2.5-2.5-2.5 c-1.189,0-2.185,0.831-2.438,1.943c-0.493,0.32-1.96,0.89-4.303,0.89c-2.343,0-3.81-0.57-4.303-0.89 c-0.253-1.112-1.248-1.943-2.438-1.943c-1.381,0-2.5,1.119-2.5,2.5C80.518,110.053,84.318,112.246,89.758,112.246z"/><path style="fill:#1c1b1a" d="M77.227,97.626c0.66,0,1.301-0.27,1.771-0.73c0.47-0.47,0.729-1.11,0.729-1.77 c0-0.66-0.26-1.31-0.729-1.77c-0.931-0.93-2.61-0.93-3.54,0c-0.46,0.46-0.73,1.11-0.73,1.77c0,0.65,0.271,1.3,0.73,1.76 C75.927,97.356,76.567,97.626,77.227,97.626z"/><path style="fill:#1c1b1a" d="M102.288,97.626c0.66,0,1.3-0.27,1.769-0.74c0.46-0.46,0.731-1.1,0.731-1.76 c0-0.66-0.271-1.31-0.731-1.77c-0.93-0.93-2.62-0.93-3.54,0c-0.46,0.46-0.729,1.11-0.729,1.77c0,0.66,0.269,1.3,0.729,1.76 C100.977,97.356,101.627,97.626,102.288,97.626z"/><path style="fill:#1c1b1a" d="M362.04,105.284c0-1.381-1.119-2.5-2.5-2.5c-0.781,0-1.479,0.359-1.939,0.92 c-0.695,0.206-2.354,0.496-4.802,0.496s-4.107-0.29-4.802-0.496c-0.459-0.562-1.157-0.92-1.938-0.92c-1.381,0-2.5,1.119-2.5,2.5 c0,0.969,0,3.917,9.24,3.917S362.04,106.253,362.04,105.284z"/><path style="fill:#1c1b1a" d="M343.544,74.275h18.514c1.381,0,2.5-1.119,2.5-2.5c0-1.381-1.119-2.5-2.5-2.5h-18.514 c-1.381,0-2.5,1.119-2.5,2.5C341.044,73.156,342.164,74.275,343.544,74.275z"/><path style="fill:#1c1b1a" d="M347.617,66.168h10.369c1.381,0,2.5-1.119,2.5-2.5c0-1.381-1.119-2.5-2.5-2.5h-10.369 c-1.381,0-2.5,1.119-2.5,2.5C345.117,65.049,346.236,66.168,347.617,66.168z"/><path style="fill:#1c1b1a" d="M338.757,90.696c0.66,0,1.3-0.27,1.771-0.74c0.47-0.47,0.729-1.11,0.729-1.77 c0-0.65-0.26-1.29-0.729-1.76c-0.931-0.93-2.601-0.93-3.54,0c-0.46,0.46-0.73,1.11-0.73,1.76c0,0.66,0.271,1.31,0.73,1.77 C337.457,90.426,338.097,90.696,338.757,90.696z"/><path style="fill:#1c1b1a" d="M366.837,90.696c0.66,0,1.31-0.27,1.77-0.74c0.471-0.46,0.74-1.11,0.74-1.76 c0-0.66-0.27-1.31-0.74-1.77c-0.93-0.93-2.6-0.93-3.529,0c-0.471,0.46-0.74,1.11-0.74,1.77c0,0.65,0.27,1.3,0.74,1.76 C365.538,90.426,366.187,90.696,366.837,90.696z"/><path style="fill:#1c1b1a" d="M428.935,261.521l-0.408-3.009l1.376-9.083c0.013-0.084-19.949-99.715-19.949-99.715 c-0.218-1.874-2.672-17.914-23.261-23.155l-19.522-6.545v-4.16c7.627-4.652,12.41-13.098,12.41-23.381v-0.557 c1.119-0.614,2.492-1.684,3.615-3.533c2.735-4.506,2.689-11.421-0.138-20.556c-3.224-10.417-11.669-15.983-20.769-13.895 c-2.814-1.535-6.031-2.359-9.588-2.359c-3.557,0-6.773,0.824-9.588,2.358c-9.094-2.088-17.543,3.479-20.767,13.895 c-2.827,9.134-2.873,16.05-0.138,20.556c1.122,1.85,2.496,2.919,3.614,3.533v0.557c0,10.284,4.784,18.731,12.412,23.383v4.159 l-13.588,4.556c-1.842-5.546-8.002-19.531-24.132-23.323l-16.327-3.918v-5.797c10.202-0.479,17.556-3.933,21.868-10.298 c8.576-12.658,1.817-32.253,0.572-35.575c-0.096-8.885-2.927-16.061-8.418-21.333c-9.974-9.576-25.157-9.381-26.714-9.339 c-1.459-0.045-16.716-0.274-26.728,9.339c-5.491,5.273-8.322,12.448-8.418,21.333c-1.245,3.322-8.004,22.917,0.572,35.575 c4.312,6.366,11.666,9.82,21.868,10.298v5.797l-16.316,3.915c-1.884,0.443-3.686,1.056-5.415,1.81 c-1.165-2.315-2.895-4.996-5.414-7.608c-0.143-0.203-0.319-0.38-0.52-0.535c-3.698-3.659-8.999-7.114-16.586-9.125l-20.369-9.797 v-3.863c3.953-4.189,6.632-10.479,8.308-19.171c3.379-1.86,9.891-8.606,6.054-32.577C206.813,9.642,203.083,0.002,176.687,0 c0,0,0,0-0.001,0c0,0-0.003,0-0.005,0c-0.001,0-0.002,0-0.004,0h-0.001c-26.398,0.002-30.126,9.642-31.845,20.38 c-3.837,23.97,2.674,30.715,6.053,32.576c1.676,8.692,4.355,14.982,8.308,19.171v3.863l-20.368,9.797 c-22.469,5.951-25.065,23.953-25.283,25.923l-3.92,19.993l-7.263-1.743v-10.394c6.623-5.151,11.03-14.198,11.03-24.485 c0,0-0.009-16.824-0.011-16.859c-0.034-7.108-3.483-13.322-8.928-17.325c0.751-1.876,1.147-3.887,1.147-5.927 c0-8.788-7.148-15.937-15.936-15.937c-8.788,0-15.938,7.149-15.938,15.937c0,2.04,0.396,4.051,1.149,5.928 c-5.438,3.999-8.884,10.202-8.926,17.298c-0.003,0.044-0.014,16.885-0.014,16.885c0,10.286,4.406,19.331,11.028,24.483v10.396 l-16.316,3.915c-19.84,4.664-24.602,24.733-24.798,25.597L13.255,261.465c-0.294-0.021-0.587-0.045-0.886-0.045 c-6.778,0-12.293,5.514-12.293,12.293v163.588c0,1.381,1.119,2.5,2.5,2.5c1.381,0,2.5-1.119,2.5-2.5V273.712 c0-3.949,3.157-7.167,7.079-7.282l-0.588,2.652c-0.644,2.846-0.139,5.772,1.419,8.239c1.559,2.467,3.984,4.179,6.83,4.822 c0.807,0.182,1.619,0.272,2.427,0.272c2.041,0,4.044-0.575,5.812-1.692c2.445-1.545,4.149-3.942,4.805-6.756l23.537-82.199 c1.726,4.195,2.677,7.504,0.229,11.686c-13.005,22.23-12.628,41.643-12.509,44.294c-0.446,3.04-3.353,27.819,8.164,96.193 c0.202,1.204,1.244,2.085,2.465,2.085h6.935c1.528,19.04,4.395,46.705,9.574,75.459c-4.783,1.261-11.138,5.441-12.363,15.513 c-0.087,0.711,0.136,1.424,0.61,1.96c0.475,0.536,1.155,0.842,1.871,0.842h56.572c0.716,0,1.396-0.307,1.871-0.842 c0.475-0.536,0.697-1.249,0.61-1.96c-1.226-10.071-7.58-14.251-12.363-15.513c5.18-28.754,8.046-56.419,9.574-75.459h6.935 c1.221,0,2.263-0.881,2.465-2.085c11.521-68.409,8.606-93.179,8.162-96.198c0.104-2.33,0.393-17.378-8.149-35.923l0.484-2.298 l8.69,29.597v180.205c-1.306,0.705-2.485,1.606-3.528,2.711c-5.49,5.816-5.026,15.021-5.004,15.41 c0.076,1.323,1.171,2.356,2.496,2.356h96.802c1.349,0,2.454-1.069,2.499-2.417c0.008-0.251,0.16-6.186-3.711-10.188 c-0.863-0.893-1.848-1.614-2.943-2.165c-0.878-1.534-1.936-2.858-3.18-3.941l1.5-19.138h1.122c1.381,0,2.5-1.119,2.5-2.5v-64.979 l0.5,0.942c0.598,1.123,1.94,1.619,3.124,1.153l0.268-0.105l11.928,27.169c0.771,2.194,2.789,3.625,5.256,4.01 c1.962,16.403,4.518,33.226,7.613,50.056c-0.319,1.921-2.382,11.839-11.57,17.473c-0.954,0.585-1.403,1.733-1.1,2.811 c0.304,1.077,1.287,1.821,2.406,1.821h101.633c1.381,0,2.5-1.119,2.5-2.5v-12.804h0.5c1.349,0,2.454-1.069,2.499-2.417 l2.367-71.313l2.367,71.313c0.045,1.348,1.15,2.417,2.499,2.417h0.5v12.804c0,1.381,1.119,2.5,2.5,2.5h34.043 c1.323,0,2.417-1.031,2.496-2.352c0.02-0.343,0.442-8.476-4.495-13.715c-0.959-1.018-2.047-1.848-3.251-2.5v-160.27 c0.145-0.693,0.283-1.393,0.417-2.099c0.001-0.007,0.003-0.013,0.004-0.02c2.577-13.653,3.056-29.679,2.686-44.092 c0,0,7.368,35.572,7.443,35.686l5.913,8.909l1.897,8.55c0.771,5.327,5.459,9.21,10.827,9.21c0.465,0,0.935-0.029,1.409-0.089 c2.944-0.373,5.55-1.856,7.337-4.178c1.379-1.791,2.123-3.917,2.189-6.121c3.023,0.89,5.239,3.686,5.239,6.993v163.588 c0,1.381,1.119,2.5,2.5,2.5c1.381,0,2.5-1.119,2.5-2.5V273.712C439.724,267.444,435.005,262.267,428.935,261.521z M367.239,125.31 l6.674,2.238l-0.545,12.21l-11.128-4.931L367.239,125.31z M354.837,143.539h-4.268l-3.484-4.98h11.236L354.837,143.539z M355.697,154.118c-0.932,0.141-1.927,0.224-2.993,0.237c-1.066-0.013-2.061-0.096-2.993-0.237l1.479-5.579h3.027L355.697,154.118z M357.279,133.52h-9.15l-4.893-9.314v-5.994c2.906,1.009,6.086,1.551,9.467,1.551c3.382,0,6.562-0.542,9.469-1.552v5.994 L357.279,133.52z M346.553,146.521l-1.634,6.161c-5.161-2.475-7.215-7.082-7.979-9.628l5.486-2.431L346.553,146.521z M362.98,140.623l5.486,2.431c-0.764,2.546-2.817,7.153-7.979,9.628l-1.634-6.161L362.98,140.623z M374.581,84.991V87.5 c0,2.776-2.259,5.035-5.035,5.035h-5.605c-2.776,0-5.035-2.258-5.035-5.035v-3.944h15.676V84.991z M378.283,69.306 c2.452,7.921,2.198,12.464,1.299,15.048v-3.297c0-1.381-1.119-2.5-2.5-2.5h-2.404c-0.392-8.387-2.771-15.229-6.698-19.922 C372.598,59.434,376.4,63.224,378.283,69.306z M352.703,56.574c11.681,0,16.368,10.934,16.969,21.983h-13.266 c-1.281,0-2.326,0.968-2.471,2.211h-2.465c-0.145-1.243-1.189-2.211-2.471-2.211h-13.266 C336.335,67.507,341.022,56.574,352.703,56.574z M355.351,92.662v0.846c0,1.46-1.189,2.647-2.648,2.647 c-1.459,0-2.646-1.188-2.646-2.647v-0.85c0.91-1.509,1.443-3.271,1.443-5.158v-1.733h2.406V87.5 C353.906,89.389,354.44,91.151,355.351,92.662z M328.324,78.557c-1.381,0-2.5,1.119-2.5,2.5v3.295 c-0.898-2.583-1.15-7.126,1.301-15.045c1.881-6.083,5.684-9.873,10.303-10.672c-3.928,4.693-6.307,11.536-6.699,19.923H328.324z M330.824,84.991v-1.435h15.676V87.5c0,2.776-2.259,5.035-5.035,5.035h-5.605c-2.776,0-5.035-2.258-5.035-5.035V84.991z M331.122,96.343c1.412,0.759,3.024,1.192,4.737,1.192h5.605c1.518,0,2.951-0.348,4.242-0.954c1.186,2.689,3.873,4.574,6.996,4.574 c3.123,0,5.812-1.884,6.998-4.573c1.29,0.605,2.724,0.953,4.24,0.953h5.605c1.713,0,3.325-0.433,4.737-1.192 c-1.599,11.015-10.012,18.421-21.581,18.421C341.133,114.764,332.72,107.357,331.122,96.343z M338.168,125.31l4.999,9.517 l-11.128,4.931l-0.545-12.21L338.168,125.31z M297.364,105.633l1.997,0.479c13.781,3.24,19.026,15.419,20.549,20.046l-1.195,0.401 c-4.775,1.216-8.549,3.039-11.545,5.098c-0.599-0.849-1.293-1.608-2.084-2.27c-1.06-0.886-2.634-0.747-3.522,0.312 c-0.886,1.058-0.747,2.635,0.311,3.521c0.541,0.453,1.001,1.001,1.395,1.621c-1.834,1.788-3.207,3.612-4.238,5.287 c-1.289-0.104-2.206-0.08-2.602-0.058c-0.83-0.043-3.911,0.202-7.77,0.988c-3.676-2.55-6.066-4.784-6.745-5.831 c-1.026-1.583-2.123-2.896-3.232-4.004c-0.05-0.1-3.14-4.413-4.691-6.168v-4.244C286.794,120.144,295.665,114.311,297.364,105.633z M320.066,236.619c-0.456,0.404-0.748,0.96-0.823,1.565l-1.608,13.036h-42.399l-1.608-13.036c-0.075-0.604-0.367-1.161-0.823-1.565 l-14.13-12.523c1.05-3.144,4.485-10.762,13.577-12.83c0.09-0.02,10.273-3.549,10.273-3.549c0.522,5.017,2.91,12.292,13.91,12.292 c10.988,0,13.383-7.262,13.91-12.292c0,0,10.186,3.53,10.275,3.55c9.096,2.069,12.529,9.692,13.575,12.83L320.066,236.619z M322.289,255.852h-0.188l0.05-0.399L322.289,255.852z M254.483,339.707c0.76-35.84,17.538-67.556,21.16-73.997h41.587 c3.623,6.436,20.399,38.115,21.157,73.997H254.483z M321.023,344.707c-0.363,29.222-7.012,69.043-8.65,78.442h-7.988l0.02-78.442 H321.023z M274.914,420.152c0.215,1.287,0.406,2.406,0.561,3.298c-0.515,0.108-1.007,0.25-1.484,0.41v-3.708H274.914z M273.991,415.152v-0.654c0.036,0.226,0.069,0.434,0.104,0.654H273.991z M271.849,344.707h16.618l0.021,78.442h-7.99 C278.859,413.751,272.211,373.936,271.849,344.707z M249.976,324.993l-4.514-7.859c2.104-0.54,3.932-1.911,5.037-3.814h2.075 c-1.816,8.695-3.017,18.07-3.102,27.783l-1.63-4.426c-0.237-3.125-0.383-5.365-0.513-7.564l1.395-0.549 c0.676-0.266,1.203-0.814,1.443-1.499C250.408,326.379,250.337,325.623,249.976,324.993z M230.355,298.808 c-2.218-0.948-4.927-1.73-8.243-2.156l-4.976-0.958v-10.861c0-0.022-0.006-0.043-0.007-0.065c4.702-6.035,7.6-14.21,7.6-23.207 c0-1.321-0.044-2.577-0.108-3.802c0.001-0.021,0.007-0.041,0.007-0.062c0-0.081-0.017-0.157-0.023-0.235 c-0.605-10.749-3.577-17.855-7.468-22.514V174.33c0.672,0.338,1.369,0.67,2.099,0.994l11.181,35.179 C225.898,241.246,228.394,278.717,230.355,298.808z M197.413,290.145c-12.306,0-22.316-12.822-22.316-28.583 c0-0.461,0.009-0.913,0.017-1.364h7.869c0.86,0,1.66-0.442,2.117-1.171l4.083-6.504l4.083,6.504 c0.457,0.729,1.257,1.171,2.117,1.171h24.33c0.008,0.451,0.017,0.902,0.017,1.364C219.729,277.323,209.718,290.145,197.413,290.145 z M212.136,289.827v4.905l-0.848-0.163v-4.096C211.575,290.264,211.857,290.048,212.136,289.827z M206.289,293.315v3.181 c-0.433,1.076-4.148,4.168-8.86,4.168c-0.005,0-0.012,0-0.016,0c-0.005,0-0.012,0-0.016,0c-4.711,0-8.428-3.092-8.86-4.168v-3.181 c2.785,1.18,5.77,1.83,8.876,1.83S203.503,294.495,206.289,293.315z M183.537,290.473v4.096l-2.23,0.429l-0.366-6.668 C181.769,289.103,182.637,289.818,183.537,290.473z M170.205,257.76c-0.064,1.225-0.108,2.48-0.108,3.802 c0,5.463,1.073,10.622,2.964,15.186l-1.101,20.025c-12.3,1.835-16.007,8.597-16.639,9.984l-10.472,18.235 c-0.361,0.63-0.432,1.387-0.191,2.072c0.24,0.685,0.768,1.233,1.443,1.499l3.38,1.331l-8.254,22.412v-96.158l5.234,17.827 c0.656,2.81,2.359,5.204,4.803,6.747c1.768,1.117,3.771,1.692,5.812,1.692c0.807,0,1.62-0.09,2.427-0.272 c5.875-1.326,9.576-7.185,8.253-13.05l-8.232-37.168h21.182c-5.295,4.406-9.729,12.141-10.483,25.538 c-0.007,0.079-0.023,0.155-0.023,0.235C170.198,257.719,170.204,257.739,170.205,257.76z M154.134,331.727l7.363,2.901 l-11.893,27.091c-0.033,0.077-0.064,0.155-0.089,0.234c-0.192,0.596-1.644,1.12-3.396,0.553c-1.751-0.568-2.62-1.845-2.46-2.347 L154.134,331.727z M149.021,264.947l11.816-3.97l2.039,9.207c0.719,3.186-1.289,6.363-4.476,7.083 c-1.545,0.349-3.02-0.131-4.467-0.771c-1.904-0.841-2.639-3.806-2.654-3.857L149.021,264.947z M158.415,226.925l-0.864-3.901 h11.132v3.901H158.415z M170.224,98.64h12.975l1.1,0.441l-4.176,8.138h-6.882l-4.14-8.067L170.224,98.64z M164.192,79.958v-3.99 c3.456,1.85,7.584,2.73,12.483,2.732h0.002c0.002,0,0.003,0,0.004,0c0.002,0,0.004,0,0.004,0c0.002,0,0.002,0,0.002,0 c4.9-0.001,9.027-0.882,12.484-2.732v3.99l-7.018,13.682h-10.944L164.192,79.958z M174.043,112.219h5.276l5.801,82.254 l-8.439,10.627l-8.438-10.627L174.043,112.219z M173.683,226.925v-3.901h5.997v3.901H173.683z M197.413,231.244 c13.327,0,21.269,16.322,22.017,23.955h-22.664l-5.466-8.706l-0.007,0.004c-0.193-0.31-0.451-0.586-0.781-0.793 c-1.169-0.733-2.712-0.381-3.446,0.788l-5.466,8.706h-6.203C176.69,242.002,184.085,231.244,197.413,231.244z M184.68,226.925 v-3.901h27.456v3.901h-8.432c-2.389-0.526-4.579-0.682-6.292-0.682c-1.713,0-3.903,0.155-6.292,0.682H184.68z M243.493,115.399 c6.097-0.096,15.377,1.889,24.052,10.159c-3.832-0.213-6.846,0.764-8.949,2.92c-2.988,3.062-2.899,7.26-2.839,8.195 c-0.001,0.195,0.023,0.38,0.032,0.57l-8.815,1.771C250.777,131.107,249.273,121.738,243.493,115.399z M277.719,137.949 c0.911,1.403,2.847,3.266,5.401,5.249c-2.314,1.169-4.736,2.762-7.108,4.939c-0.357,0.328-0.693,0.684-1.038,1.029 c-1.517-1.154-3.28-2.218-5.12-3.321c-4.497-2.697-9.148-5.485-9.097-9.224c0.001-0.087-0.002-0.174-0.011-0.261 c-0.002-0.027-0.172-2.753,1.428-4.393c1.073-1.1,2.835-1.579,5.202-1.419C267.618,130.571,273.319,131.164,277.719,137.949z M257.33,142.033c2.168,3.433,6.23,5.869,9.953,8.101c1.605,0.962,3.145,1.89,4.4,2.814c-0.227,0.299-0.456,0.593-0.676,0.902 c-2.935,0.206-5.76,0.876-8.399,1.585c-3.607,0.97-25.264,3.24-34.343-1.337c-2.417-1.218-3.862-2.439-4.759-3.402 c1.382,0.28,2.792,0.43,4.215,0.43h0.002c5.722,0,11.064-2.247,15.013-6.161L257.33,142.033z M261.67,170.367 c-4.998,1.892-9.641,3.072-13.933,3.717l-1.559-12.324c0.284,0.002,0.568,0.006,0.852,0.006c7.074,0,13.744-0.659,16.876-1.502 c1.229-0.331,2.497-0.648,3.782-0.906c-1.585,3.124-2.904,6.599-3.966,10.407C262.945,169.946,262.257,170.144,261.67,170.367z M262.393,175.414c-0.011,0.058-0.022,0.116-0.034,0.174c-0.076-0.026-0.15-0.055-0.227-0.082 C262.22,175.475,262.306,175.446,262.393,175.414z M261.379,198.719c-14.584-0.199-21.801-1.18-22.099-5.831 c1.549-5.197,3.235-9.706,5.023-13.436c0.408-0.031,7.27-0.924,10.199-1.635c2.287,1.041,4.636,1.97,7.022,2.77 c-0.68,4.988-1.025,10.401-1.025,16.244C260.499,197.588,260.845,198.261,261.379,198.719z M225.91,158.509 c3.404,1.818,9.137,2.747,15.209,3.093l1.645,13.003c-0.149-0.005-0.298,0.001-0.444,0.021c-7.985,0.407-14.54-1.067-19.642-3.112 c-0.27-0.177-0.568-0.3-0.887-0.364c-2.072-0.885-3.884-1.852-5.441-2.81c-0.234-0.222-0.511-0.396-0.817-0.515 c-2.951-1.914-4.862-3.705-5.702-4.565c-1.085-8.154,0.692-15.08,2.158-19.094c1.266,1.381,2.706,2.617,4.331,3.646 c0.305,0.193,0.618,0.368,0.931,0.544c-0.002,0.53,0.059,1.12,0.235,1.769C218.303,153.14,221.138,155.96,225.91,158.509z M225.178,177.516c3.947,1.174,8.477,1.977,13.557,2.092c-1.555,3.571-3.02,7.678-4.374,12.27 c-0.764,2.591-1.436,5.305-2.045,8.098L225.178,177.516z M235.421,210.736c0.018-0.094,0.034-0.187,0.041-0.283 c0.57-3.754,1.253-7.393,2.057-10.876c2.621,2.11,6.115,2.77,7.707,3.064c6.092,1.127,14.994,1.127,26.265,1.127 c2.535,0,4.928,0,7.193-0.013l-7.68,2.665c-14.351,3.349-17.482,17.387-17.608,17.984c-0.187,0.88,0.114,1.793,0.787,2.39 l0.688,0.609l-18.265,75.456c-0.275-0.267-0.574-0.536-0.897-0.809C233.742,283.32,230.575,242.977,235.421,210.736z M308.137,194.986c-0.165,0.15-4.858,5.76-11.702,5.76c-6.844,0-11.537-5.609-11.702-5.76c-4.182-5.202-6.138-13.248-6.138-21.252 c0-0.519,0.011-1.026,0.022-1.532h12.818c0.943,0,1.806-0.531,2.231-1.373l2.769-5.479l2.768,5.479 c0.426,0.842,1.288,1.373,2.232,1.373h12.818c0.011,0.506,0.022,1.014,0.022,1.532 C314.275,181.738,312.319,189.784,308.137,194.986z M313.684,199.329c-0.091,1.397-0.176,2.783-0.252,4.165l-4.513-1.566v-0.626 c0.73-0.601,1.426-1.262,2.088-1.974H313.684z M305.456,206.006c-0.216,4.771-1.574,9.001-9.021,9.001 c-7.439,0-8.803-4.219-9.02-9.002c0.746-0.314,1.283-0.961,1.463-1.732c2.319,0.96,4.848,1.474,7.557,1.474 c2.709,0,5.237-0.513,7.557-1.474C304.171,205.045,304.71,205.693,305.456,206.006z M259.105,231.159l9.676,8.575l0.56,4.533 c-0.035,0.075-0.077,0.145-0.105,0.225l-22.629,65.156c-0.031,0.09-0.058,0.182-0.078,0.274c-0.38,1.697-2.076,2.768-3.767,2.389 c-0.024-0.005-0.049-0.004-0.073-0.009l-2.269-3.95L259.105,231.159z M252.361,308.32l18.36-52.866l0.891,7.218 c-2.274,3.92-12.138,21.774-17.908,45.647H252.361z M275.853,256.22h41.165l-0.554,4.49h-40.057L275.853,256.22z M319.153,169.55 l-0.011,0.001c-0.079-1.309-1.155-2.349-2.484-2.349h-13.685l-4.307-8.521l-0.007,0.003c-0.233-0.46-0.602-0.857-1.097-1.107 c-1.236-0.624-2.736-0.129-3.359,1.104l-4.307,8.521h-13.685c-1.329,0-2.405,1.04-2.484,2.349l-0.011-0.001 c-0.081,1.335-0.122,2.743-0.122,4.184c0,8.187,1.683,15.22,4.672,20.595h-12.746c0.096-5.456,0.521-10.469,1.252-15.064 c0.012-0.071,0.029-0.142,0.035-0.213c0.361-2.24,1.37-6.611,1.389-6.717c1.478-5.742,6.271-14.701,6.283-14.718 c1.438-2.146,3.037-4.058,4.815-5.707c8.008-7.422,17.077-6.848,17.148-6.848c0.068,0,8.961-0.654,17.033,6.758 c8.857,8.131,13.519,22.424,13.872,42.508h-12.746c2.989-5.375,4.672-12.408,4.672-20.595 C319.275,172.293,319.234,170.885,319.153,169.55z M271.491,84.938c-9.761,0-17.702-11.34-17.702-25.278v-4.912 c4.102-1.093,13.268-4.213,17.702-11.093c4.435,6.88,13.602,10,17.703,11.093v4.912C289.194,73.599,281.252,84.938,271.491,84.938z M241.07,78.439c-7.714-11.369,0.023-31.186,0.102-31.385c0.117-0.294,0.178-0.609,0.178-0.925c0-7.677,2.309-13.792,6.862-18.176 c8.738-8.413,23.036-7.971,23.182-7.967c0.036,0.002,0.069-0.006,0.105-0.005c0.032,0,0.062,0.007,0.094,0.005 c0.134-0.007,14.378-0.482,23.156,7.946c4.567,4.386,6.884,10.509,6.884,18.197c0,0.316,0.061,0.631,0.178,0.925 c0.079,0.199,7.815,20.016,0.102,31.385c-3.35,4.936-9.31,7.645-17.723,8.085v-1.777c6.032-5.448,10.005-14.661,10.005-25.087 v-6.889h-0.003c0.001-1.178-0.831-2.228-2.03-2.456c-0.182-0.035-18.17-3.589-18.17-15.185c0-1.381-1.119-2.5-2.5-2.5 c-1.381,0-2.5,1.119-2.5,2.5c0,11.527-17.904,15.134-18.17,15.186c-1.199,0.228-2.03,1.278-2.029,2.456h-0.003v6.889 c0,10.426,3.973,19.638,10.004,25.086v1.778C250.379,86.084,244.419,83.375,241.07,78.439z M261.875,101.732 c1.124-0.27,1.917-1.275,1.917-2.431V88.143c2.405,1.16,4.997,1.795,7.698,1.795s5.293-0.635,7.698-1.795v11.157 c0,1.156,0.793,2.161,1.917,2.431l11.382,2.731c-1.269,6.898-9.374,11.413-20.997,11.413c-11.623,0-19.727-4.514-20.997-11.413 L261.875,101.732z M243.631,106.11l1.986-0.477c0.355,1.809,1.02,3.493,1.97,5.033c-4.002-0.446-7.371-0.15-9.629,0.369 c-0.904-0.494-1.838-0.922-2.797-1.278C237.726,108.061,240.555,106.833,243.631,106.11z M230.529,101.844 c0.855,1.204,1.556,2.407,2.127,3.57c-1.384,0.896-2.697,1.918-3.947,3.044c-0.158-0.007-0.318-0.013-0.478-0.017L230.529,101.844z M236.485,115.963c7.617,4.822,9.89,14.942,5.067,22.559c-3.016,4.762-8.185,7.605-13.829,7.604h-0.001 c-3.088,0-6.107-0.878-8.729-2.539c-3.689-2.336-6.248-5.969-7.205-10.23c-0.956-4.261-0.197-8.639,2.14-12.328 c3.015-4.762,8.186-7.605,13.831-7.605C230.846,113.425,233.864,114.302,236.485,115.963z M203.231,111.696 c0.892-1.409,2.764-1.831,4.174-0.937c1.165,0.737,2.711,0.392,3.45-0.775c0.738-1.166,0.392-2.711-0.774-3.45 c-1.927-1.22-4.179-1.509-6.233-0.997c0.619-0.502,0.975-1.262,0.933-2.064l-0.911-17.271c0,0,9.02,4.321,9.177,4.361 c6.075,1.576,10.471,4.139,13.673,7.018l-3.985,11.441c-5.337,1.278-10.011,4.565-13.029,9.332 c-0.155,0.245-0.281,0.502-0.426,0.751l-5.109-3.235C202.759,114.978,202.338,113.105,203.231,111.696z M202.284,106.106h0.001 c-1.301,0.629-2.45,1.607-3.278,2.915c-2.366,3.739-1.25,8.707,2.487,11.074l5.771,3.655c-1.02,3.443-1.163,7.104-0.354,10.704 c0.377,1.679,0.966,3.271,1.707,4.777c-1.604,3.371-5.519,13.185-3.622,25.54c0.071,0.466,0.273,0.902,0.582,1.258 c0.066,0.076,2.296,2.572,6.559,5.404v46.591h-32.959v-8.026l10.464-13.177c0.389-0.49,0.58-1.107,0.536-1.73l-5.984-84.851 l4.767-9.288l12.394,4.974C201.653,106.047,201.969,106.106,202.284,106.106z M198.732,83.732l0.849,16.095l-12.424-4.986 l6.739-13.138c0.041-0.08,0.061-0.168,0.094-0.252L198.732,83.732z M197.765,46.108c0,2.248-2.061,4.076-4.594,4.076h-5.277 c-2.532,0-4.593-1.828-4.593-4.076v-3.124h14.464V46.108z M158.615,37.984c-0.513-7.008,0.224-13.989,1.062-15.197 c0.107-0.107,0.186-0.172,0.237-0.209c0.349,0.09,1.114,0.504,1.741,0.843c2.599,1.405,6.947,3.755,15.02,3.757 c0,0,0.001,0,0.002,0c0.002,0,0.003,0,0.004,0c0.002,0,0.004,0,0.004,0c0.002,0,0.002,0,0.002,0 c8.075-0.002,12.424-2.353,15.022-3.757c0.628-0.339,1.396-0.755,1.743-0.844c0.043,0.029,0.103,0.074,0.171,0.139 c0.896,1.274,1.638,8.26,1.126,15.268H158.615z M153.098,37.984c-1.381,0-2.5,1.119-2.5,2.5v4.713 c-1.673-3.541-2.995-10.499-0.829-24.027C151.1,12.855,152.357,5.001,176.681,5c24.325,0.001,25.583,7.855,26.914,16.17 c2.166,13.53,0.843,20.488-0.83,24.028v-4.714c0-1.381-1.119-2.5-2.5-2.5h-0.513c0.386-6.176,0.192-16.01-2.53-18.732 c-2.92-2.92-5.674-1.426-7.891-0.229c-2.463,1.331-5.837,3.155-12.65,3.156c-6.812-0.001-10.186-1.825-12.65-3.156 c-2.216-1.198-4.973-2.687-7.891,0.229c-2.722,2.722-2.915,12.556-2.53,18.732H153.098z M155.598,42.984h14.464v3.124 c0,2.248-2.061,4.076-4.593,4.076h-5.277c-2.533,0-4.594-1.828-4.594-4.076V42.984z M156.299,54.396 c1.191,0.503,2.507,0.788,3.893,0.788h5.277c5.289,0,9.593-4.071,9.593-9.076v-3.124h3.239v3.124c0,5.004,4.304,9.076,9.593,9.076 h5.277c1.387,0,2.701-0.285,3.893-0.788c-3.65,15.902-10.826,19.304-20.383,19.305C167.124,73.699,159.949,70.298,156.299,54.396z M154.583,83.756l4.791-2.305c0.031,0.084,0.052,0.172,0.093,0.252l6.795,13.248l-12.535,5.71L154.583,83.756z M140.319,90.564 c0.157-0.041,9.132-4.34,9.132-4.34l-0.926,18.29c-0.044,0.872,0.37,1.704,1.092,2.194c0.421,0.287,0.912,0.433,1.405,0.433 c0.353,0,0.706-0.074,1.036-0.225l12.488-5.688l4.624,9.012l-5.983,84.851c-0.044,0.624,0.147,1.241,0.536,1.73l10.454,13.166 v8.038h-17.733l-12.972-58.563c-0.036-0.158-0.639-2.736-2.245-6.227v-13.367c0-0.055-0.122-0.773-0.139-0.822l-14.446-41.473 C129.818,94.731,134.214,92.148,140.319,90.564z M118.505,112.31c0.035-0.368,0.584-5.271,4.321-10.49l13.316,38.23l-0.791,3.999 c-4.48-5.154-10.171-8.643-16.667-10.17l-4.199-1.007C114.486,132.871,118.498,112.39,118.505,112.31z M108.388,94.519 c0,2.118-1.723,3.841-3.841,3.841h-4.717c-2.118,0-3.842-1.723-3.842-3.841v-2.923h12.399V94.519z M93.489,86.596 c-1.356,0-2.454,1.081-2.493,2.428h-2.672c-0.039-1.347-1.137-2.428-2.492-2.428H73.017c3.099-1.569,7.359-4.303,9.902-8.393 c2.227,3.094,6.219,6.42,13.305,8.393H93.489z M89.662,44.034c6.03,0,10.936,4.906,10.936,10.937c0,1.152-0.202,2.284-0.553,3.367 c-3.12-1.386-6.637-2.158-10.383-2.158c-3.746,0-7.264,0.772-10.385,2.159c-0.351-1.084-0.553-2.216-0.553-3.368 C78.724,48.94,83.63,44.034,89.662,44.034z M70.943,78.327c0-9.615,8.223-17.147,18.719-17.147s18.719,7.532,18.719,17.147 c0,0.026,0.008,4.985,0.008,4.985c-22.311-0.79-23.28-12.135-23.311-12.604c-0.047-1.362-1.198-2.459-2.542-2.411 c-1.363,0.024-2.456,1.136-2.456,2.5c0,5.599-5.463,9.351-9.147,11.245C70.933,82.041,70.943,78.36,70.943,78.327z M70.933,91.596 h12.398v2.923c0,2.118-1.723,3.841-3.84,3.841h-4.718c-2.118,0-3.841-1.723-3.841-3.841V91.596z M71.956,102.892 c0.886,0.299,1.831,0.468,2.817,0.468h4.718c4.874,0,8.84-3.966,8.84-8.841v-0.495h2.657v0.495c0,4.875,3.967,8.841,8.842,8.841 h4.717c0.986,0,1.932-0.17,2.817-0.468c-2.533,9.413-9.51,16.196-17.703,16.196C81.467,119.088,74.491,112.305,71.956,102.892z M80.044,134.363c1.124-0.27,1.917-1.275,1.917-2.431v-9.42c2.417,1.017,5.005,1.577,7.7,1.577c2.693,0,5.281-0.56,7.696-1.575 v9.419c0,1.156,0.793,2.161,1.917,2.431l4.915,1.179l-5.865,16.948H80.996l-5.865-16.948L80.044,134.363z M96.594,157.49 l-6.934,20.035l-6.934-20.035H96.594z M28.036,272.655c-0.013,0.045-0.755,3.145-2.65,3.841c-1.485,0.545-2.927,1.119-4.467,0.771 c-1.544-0.349-2.859-1.277-3.704-2.615c-0.845-1.338-1.118-2.924-0.768-4.478l0.476-2.149c1.666,1.338,2.738,3.388,2.738,5.687 c0,1.381,1.119,2.5,2.5,2.5c1.381,0,2.5-1.119,2.5-2.5c0-4.72-2.677-8.82-6.589-10.879l0.411-1.856l11.764,3.954L28.036,272.655z M53.416,184.019l-21.791,76.1l-12.054-4.051l21.153-95.498c0.071-0.308,0.859-3.561,3.009-7.506l10.982,11.406 C51.36,172.688,51.896,178.902,53.416,184.019z M60.944,205.98c4.003-6.843,1.673-12.358-0.581-17.691 c-2.61-6.179-5.311-12.568-0.417-23.319c0.425-0.933,0.236-2.031-0.475-2.77l-12.944-13.443c3.229-4.21,8.09-8.327,15.273-10.016 l8.444-2.026l16.916,48.874v59.79H49.107C49.238,239.561,50.62,223.626,60.944,205.98z M87.162,434.801H64.401 c2.231-8.065,8.908-8.71,9.844-8.761h12.917V434.801z M87.162,421.04H76.256c-5.159-28.515-8.023-56.004-9.559-75.013h20.464 V421.04z M114.92,434.801H92.162v-8.761h12.912C105.998,426.089,112.687,426.727,114.92,434.801z M103.065,421.04H92.162v-75.013 h20.462C111.088,365.036,108.224,392.525,103.065,421.04z M122.457,341.027H56.864c-9.597-57.732-8.603-83.596-7.997-90.649h81.594 C131.075,257.391,132.088,283.091,122.457,341.027z M130.206,245.378H92.161v-59.79l16.914-48.874l8.455,2.029 c6.14,1.443,11.244,4.835,15.226,10.054L119.848,162.2c-0.711,0.739-0.899,1.837-0.475,2.77 c4.894,10.751,2.193,17.141-0.417,23.319c-2.254,5.333-4.584,10.849-0.581,17.691C128.664,223.564,130.066,239.548,130.206,245.378 z M124.563,199.395l-1.131,5.363c-0.245-0.434-0.485-0.867-0.74-1.303c-2.278-3.894-1.61-7.029-0.116-10.828L124.563,199.395z M125.57,185.077c1.759-5.314,2.625-11.813-0.967-20.607l10.957-11.377c2.23,4.084,3.027,7.435,3.033,7.461l21.156,95.514 l-12.138,4.079l-6.431-21.899c-0.033-0.185-0.084-0.363-0.155-0.531L125.57,185.077z M165.191,434.801h-32.422 c0.227-2.55,1.001-6.617,3.565-9.333c1.903-2.017,4.474-2.997,7.856-2.997h21V434.801z M165.325,417.471h-24.098v-52.073 c0.918,0.793,2.05,1.442,3.352,1.865c1.031,0.334,2.06,0.493,3.044,0.493c3.064,0,5.694-1.542,6.604-4.125l11.928-27.169 l0.268,0.105c1.184,0.467,2.526-0.03,3.124-1.153l0.323-0.609L165.325,417.471z M190.005,434.801h-19.4 c0.285-1.324,0.868-2.935,2.053-4.148c1.28-1.312,3.053-1.949,5.419-1.949h11.929V434.801z M170.191,426.173v-6.136l1.016-18.48 c0.388,0.247,0.846,0.395,1.339,0.395h1.122l1.723,21.973C173.396,424.27,171.66,425.026,170.191,426.173z M190.005,423.703h-9.617 l-1.705-21.751h11.322V423.703z M199.82,434.801h-4.814v-12.33h4.814V434.801z M199.82,417.471h-4.814v-15.519h0.213 c0.943,0,1.77-0.527,2.194-1.312c0.425,0.785,1.251,1.312,2.194,1.312h0.213V417.471z M222.167,430.652 c1.186,1.214,1.768,2.826,2.053,4.148h-19.4v-6.098h11.929C219.115,428.703,220.887,429.341,222.167,430.652z M204.82,423.703 v-21.751h11.322l-1.705,21.751H204.82z M219.78,396.952h-17.909l-1.971-19.822h-0.001c-0.114-1.162-1.032-2.121-2.239-2.241 c-1.363-0.137-2.598,0.866-2.734,2.241l-1.971,19.822h-17.909v-29.204h44.734V396.952z M228.648,331.097l-4.16-7.829 c-0.539-1.013-1.698-1.531-2.812-1.253c-1.114,0.277-1.895,1.278-1.895,2.426v38.306h-44.734v-38.306 c0-1.148-0.781-2.148-1.896-2.426c-1.114-0.279-2.274,0.24-2.812,1.253l-4.16,7.829l-15.551-6.125c0,0,9.21-16.063,9.25-16.157 c0.1-0.237,2.802-5.626,13.545-7.213c0.053-0.008,11.127-2.137,11.127-2.137c2.131,3.187,7.365,6.199,12.85,6.199h0.012h0.006 h0.012c5.482,0,10.714-3.01,12.847-6.2l3.853,0.742c0.004,0.001,0.009,0.002,0.014,0.003l7.105,1.368 c0.053,0.01,0.106,0.019,0.159,0.025c10.975,1.386,14.215,8.428,14.215,8.428c0.017,0.031,0.034,0.061,0.053,0.092l8.527,14.851 L228.648,331.097z M248.706,362.506c-1.754,0.568-3.203,0.043-3.396-0.552c-0.025-0.08-0.056-0.158-0.089-0.234l-11.893-27.091 l7.364-2.901l10.44,28.338C251.325,360.662,250.456,361.938,248.706,362.506z M268.991,426.873 c-2.544,2.349-4.176,5.396-5.048,7.928h-13.682c5.083-5.308,7.073-11.433,7.814-14.648h10.915V426.873z M268.991,415.152h-10.905 c-2.943-16.179-5.38-32.336-7.266-48.102c3.941-1.538,6.15-5.185,5.036-8.62l-5.191-14.094c0.378,0.23,0.817,0.37,1.292,0.37 h14.893c0.123,10.125,0.988,21.486,2.142,32.439V415.152z M269.34,434.793c1.316-2.839,4.019-6.632,9.067-6.644h10.081l0.002,6.603 L269.34,434.793z M293.467,344.707h1.014c-0.307,3.519-0.642,7.067-1.011,10.653L293.467,344.707z M293.491,434.801V433.6 c0.38,0.407,0.757,0.816,1.151,1.201H293.491z M299.381,432.353c-2.2-1.917-4.171-4.21-5.892-6.858l-0.009-31.238 c2.562-16.591,4.549-32.87,5.925-48.465L299.381,432.353z M304.381,434.752l0.002-6.603h10.079 c5.051,0.011,7.753,3.807,9.067,6.644L304.381,434.752z M342.337,434.801h-13.41c-1.173-3.405-3.715-7.748-8.009-10.05 c0.798-0.163,1.652-0.254,2.585-0.254h18.834V434.801z M345.419,419.497h-24.375v-19.438c2.307-16.417,4.764-37.752,4.978-55.352 h14.891c1.381,0,2.5-1.119,2.5-2.5c0-39.628-18.893-73.915-22.153-79.535l0.225-1.821h2.541l17.474,50.313 c0.5,2.06,1.757,3.814,3.552,4.954c1.15,0.73,2.438,1.132,3.758,1.23L345.419,419.497z M352.082,310.924 c-0.451,0.711-1.151,1.203-1.975,1.387c-0.818,0.183-1.666,0.037-2.377-0.415c-0.712-0.451-1.435-2.159-1.466-2.249 c0,0-22.699-65.308-22.734-65.384l0.559-4.53l9.677-8.577l18.732,77.39C352.681,309.369,352.534,310.213,352.082,310.924z M359.988,419.497l-3.523-106.175c1.033-1.779,1.363-3.849,0.902-5.908l-1.275-5.27l-0.9-22.331 c-0.002-0.048,0.048-2.273-2.361-2.273c-2.402,0-2.361,1.23-2.385,1.277l-4.348-17.965h38.266v158.645H359.988z M392.018,434.801 H363.07v-10.304h18.834c3.058,0,5.365,0.867,7.056,2.649C391.08,429.384,391.789,432.62,392.018,434.801z M404.039,246.556 l-14.726-72.418c-0.269-1.323-1.542-2.194-2.87-1.966c-1.33,0.227-2.241,1.468-2.057,2.805c0.068,0.496,6.457,47.786,0.854,80.875 h-40.353l-6.886-28.448l0.685-0.607c0.673-0.597,0.974-1.509,0.787-2.389c-0.126-0.598-3.256-14.636-17.606-17.985l-3.521-1.222 c0.101-1.939,0.217-3.896,0.347-5.871h11.177c1.381,0,2.5-1.119,2.5-2.5c0-22.858-5.219-39.24-15.513-48.691 c-4.304-3.952-8.775-5.987-12.454-7.028c2.713-3.623,7.444-7.662,15.627-9.727c0.061-0.015,6.533-2.183,6.533-2.183l0.643,14.437 c0.036,0.825,0.479,1.579,1.181,2.014c0.401,0.249,0.857,0.375,1.316,0.375c0.344,0,0.689-0.071,1.013-0.214l1.593-0.706 c1.598,4.872,5.64,10.956,13.579,13.285c0.032,0.01,0.06,0.026,0.093,0.035c0.018,0.005,0.036,0.003,0.054,0.007 c0.923,0.264,3.794,0.995,6.667,0.995c2.873,0,5.746-0.731,6.669-0.995c0.018-0.004,0.036-0.002,0.054-0.007 c0.033-0.009,0.06-0.025,0.093-0.035c7.939-2.329,11.981-8.412,13.579-13.285l1.593,0.706c0.323,0.144,0.669,0.214,1.013,0.214 c0.458,0,0.915-0.126,1.316-0.375c0.702-0.435,1.145-1.189,1.181-2.014l0.644-14.437c0,0,6.472,2.167,6.533,2.183 c17.96,4.531,19.556,18.364,19.614,18.938c0.008,0.09,19.386,96.234,19.386,96.234H404.039z M415.392,271.228 c-2.049-0.823-2.751-4.247-2.767-4.317l-1.345-6.06h12.517l0.147,1.08C419.638,263.208,416.308,266.779,415.392,271.228z M423.335,269.79c-0.748,0.971-1.769,1.664-2.937,2.027c0.571-2.119,2.072-3.856,4.04-4.747 C424.317,268.045,423.956,268.983,423.335,269.79z M423.874,255.852h-14.367l-2.85-4.296h17.868L423.874,255.852z"/><path style="fill:#1c1b1a" d="M176.78,68.684c5.286,0,8.977-2.147,8.977-5.223c0-1.381-1.119-2.5-2.5-2.5 c-1.175,0-2.161,0.811-2.429,1.903c-0.486,0.3-1.873,0.82-4.049,0.82c-2.177,0-3.562-0.52-4.049-0.819 c-0.268-1.093-1.254-1.903-2.429-1.903c-1.381,0-2.5,1.119-2.5,2.5C167.802,66.537,171.494,68.684,176.78,68.684z"/><path style="fill:#1c1b1a" d="M162.927,49.226c0.66,0,1.3-0.26,1.771-0.73c0.46-0.47,0.729-1.11,0.729-1.77 c0-0.65-0.27-1.3-0.729-1.76c-0.931-0.93-2.61-0.94-3.54,0c-0.46,0.46-0.73,1.1-0.73,1.76c0,0.66,0.271,1.31,0.73,1.77 C161.627,48.966,162.267,49.226,162.927,49.226z"/><path style="fill:#1c1b1a" d="M190.627,49.226c0.66,0,1.3-0.26,1.77-0.73c0.471-0.46,0.73-1.11,0.73-1.77 c0-0.65-0.26-1.3-0.73-1.77c-0.93-0.92-2.6-0.93-3.529,0c-0.471,0.47-0.74,1.11-0.74,1.77c0,0.66,0.27,1.31,0.74,1.77 C189.328,48.966,189.977,49.226,190.627,49.226z"/></g></svg>