<svg xmlns="http://www.w3.org/2000/svg" xmlns:xlink="http://www.w3.org/1999/xlink" width="826.063" height="335.01" data-name="Layer 1" viewBox="0 0 826.063 335.01"><path fill="#f1f1f1" d="M266.56473,572.513l-1.30115-1.51825c11.00915-9.43521,24.7108-21.17709,29.83928-36.69659,5.0555-15.29892,1.25254-33.7688-9.92482-48.20211-9.51229-12.28383-24.20053-21.95671-42.47664-27.97352-3.60489-1.18686-7.34772-2.241-10.96747-3.26081-8.74923-2.46423-17.79646-5.01294-25.80868-9.67057-11.03532-6.41528-21.05875-19.01629-18.57493-32.706a23.85568,23.85568,0,0,1,17.15589-18.50774l.532,1.92821a21.8606,21.8606,0,0,0-15.72264,16.95071c-2.30809,12.72161,7.18337,24.54137,17.61492,30.606,7.7931,4.53013,16.71634,7.04369,25.34567,9.47438,3.64019,1.02537,7.40461,2.08584,11.0509,3.28624,18.65633,6.142,33.675,16.04819,43.43219,28.64827,11.57926,14.95243,15.50414,34.13231,10.24266,50.0547C291.69857,550.97374,277.76271,562.91709,266.56473,572.513Z" transform="translate(-186.96827 -282.49498)"/><ellipse cx="217.327" cy="393.296" fill="#f1f1f1" rx="17.5" ry="8.5" transform="translate(-265.12435 -227.72882) rotate(-12.19172)"/><ellipse cx="242.838" cy="445.076" fill="#f1f1f1" rx="17.5" ry="8.5" transform="translate(-275.48417 -221.17357) rotate(-12.19172)"/><ellipse cx="213.46" cy="460.631" fill="#f1f1f1" rx="17.5" ry="8.5" transform="translate(-279.43168 -227.02683) rotate(-12.19172)"/><rect width="2" height="6" x="272.226" y="178.204" fill="#e5e5e5"/><path fill="#e5e5e5" d="M461.19384,594.53878h-2V581.7546h2Zm0-25.56787h-2V556.18673h2Zm0-25.56836h-2V530.61886h2Zm0-25.56787h-2V505.0505h2Zm0-25.56787h-2V479.48263h2Z" transform="translate(-186.96827 -282.49498)"/><rect width="2" height="6" x="272.226" y="324.828" fill="#e5e5e5"/><rect width="2" height="6" x="491.226" y="178.204" fill="#e5e5e5"/><path fill="#e5e5e5" d="M680.19384,594.53878h-2V581.7546h2Zm0-25.56787h-2V556.18673h2Zm0-25.56836h-2V530.61886h2Zm0-25.56787h-2V505.0505h2Zm0-25.56787h-2V479.48263h2Z" transform="translate(-186.96827 -282.49498)"/><rect width="2" height="6" x="491.226" y="324.828" fill="#e5e5e5"/><rect width="2" height="6" x="601.695" y="60.828" fill="#e5e5e5"/><path fill="#e5e5e5" d="M790.66356,595.03732h-2V582.75167h2Zm0-24.57129h-2V558.17989h2Zm0-24.57178h-2V533.6086h2Zm0-24.57129h-2V509.03732h2Zm0-24.57129h-2V484.46554h2Zm0-24.57178h-2V459.89425h2Zm0-24.57129h-2V435.323h2Zm0-24.57128h-2V410.75167h2Zm0-24.57178h-2V386.17989h2Zm0-24.57129h-2V361.6086h2Z" transform="translate(-186.96827 -282.49498)"/><rect width="2" height="6" x="601.695" y="324.828" fill="#e5e5e5"/><rect width="2" height="6" x="711.063" y="12.828" fill="#e5e5e5"/><path fill="#e5e5e5" d="M900.03173,595.08321h-2V582.843h2Zm0-24.48h-2V558.363h2Zm0-24.48h-2V533.883h2Zm0-24.48h-2V509.403h2Zm0-24.48h-2V484.92306h2Zm0-24.48h-2V460.44308h2Zm0-24.48h-2V435.9631h2Zm0-24.48h-2V411.48312h2Zm0-24.48h-2V387.00314h2Zm0-24.48h-2V362.52316h2Zm0-24.48h-2V338.04317h2Zm0-24.48h-2V313.56319h2Z" transform="translate(-186.96827 -282.49498)"/><rect width="2" height="6" x="711.063" y="324.828" fill="#e5e5e5"/><rect width="2" height="6" x="382.226" y="97.828" fill="#e5e5e5"/><path fill="#e5e5e5" d="M571.19384,595.69161h-2V584.06026h2Zm0-23.26318h-2V560.79708h2Zm0-23.26318h-2V537.5339h2Zm0-23.26319h-2V514.27071h2Zm0-23.26318h-2V491.00753h2Zm0-23.26319h-2V467.74435h2Zm0-23.26318h-2V444.48116h2Zm0-23.26318h-2V421.218h2Zm0-23.26319h-2V397.9548h2Z" transform="translate(-186.96827 -282.49498)"/><rect width="2" height="6" x="382.226" y="324.828" fill="#e5e5e5"/><path fill="#3f3d56" d="M1010.95959,616.10888H348.83879a2.07224,2.07224,0,0,1-2.07214-2.07214V296.68223a2.07214,2.07214,0,0,1,4.14427,0V611.96461h660.04867a2.07214,2.07214,0,1,1,0,4.14427Z" transform="translate(-186.96827 -282.49498)"/><polygon fill="#3f3d56" points="493.134 180.989 383.049 98.534 274.468 179.862 271.983 176.545 383.049 93.355 492.61 175.418 601.484 56.274 601.921 56.097 711.744 11.848 713.293 15.693 603.907 59.765 493.134 180.989"/><circle cx="273.226" cy="178.204" r="12.433" fill="#9ca2b7"/><circle cx="383.049" cy="97.39" r="12.433" fill="#9ca2b7"/><circle cx="492.872" cy="178.204" r="12.433" fill="#e5e5e5"/><circle cx="489.872" cy="222.204" r="12.433" fill="#9ca2b7"/><circle cx="602.695" cy="58.02" r="12.433" fill="#9ca2b7"/><circle cx="712.518" cy="12.433" r="12.433" fill="#9ca2b7"/><ellipse cx="339.077" cy="523.38" fill="#2f2e41" rx="21.534" ry="6.76" transform="translate(-457.83786 370.75274) rotate(-69.08217)"/><circle cx="112.301" cy="273.407" r="43.067" fill="#2f2e41"/><rect width="13.084" height="23.442" x="92.676" y="307.207" fill="#2f2e41"/><rect width="13.084" height="23.442" x="118.843" y="307.207" fill="#2f2e41"/><ellipse cx="103.579" cy="330.921" fill="#2f2e41" rx="10.903" ry="4.089"/><ellipse cx="129.746" cy="330.376" fill="#2f2e41" rx="10.903" ry="4.089"/><circle cx="113.391" cy="262.504" r="14.719" fill="#fff"/><circle cx="113.391" cy="262.504" r="4.906" fill="#3f3d56"/><path fill="#e6e6e6" d="M257.49267,515.85093c-3.47748-15.57379,7.63867-31.31042,24.82861-35.1488s33.94422,5.67511,37.4217,21.24884-7.91492,21.31763-25.10486,25.156S260.97015,531.42479,257.49267,515.85093Z" transform="translate(-186.96827 -282.49498)"/><ellipse cx="250.761" cy="535.919" fill="#2f2e41" rx="6.76" ry="21.534" transform="translate(-527.88327 250.3368) rotate(-64.62574)"/><path fill="#fff" d="M278.11489,571.43931c0,4.21515,10.85328,12.53858,22.89658,12.53858s23.33514-11.867,23.33514-16.08209-11.29193.81774-23.33514.81774S278.11489,567.22416,278.11489,571.43931Z" transform="translate(-186.96827 -282.49498)"/><circle cx="437.431" cy="266.554" r="43.067" fill="#2f2e41"/><rect width="13.084" height="23.442" x="417.805" y="300.353" fill="#2f2e41"/><rect width="13.084" height="23.442" x="443.972" y="300.353" fill="#2f2e41"/><ellipse cx="614.676" cy="609.563" fill="#2f2e41" rx="4.089" ry="10.903" transform="translate(-380.98869 635.94194) rotate(-65.66457)"/><ellipse cx="639.844" cy="608.018" fill="#2f2e41" rx="4.089" ry="10.903" transform="translate(-373.54441 635.54758) rotate(-64.10219)"/><path fill="#9ca2b7" d="M582.62211,508.99744c-3.47748-15.57379,7.63865-31.31042,24.82866-35.1488s33.94421,5.67511,37.42169,21.2489-7.91492,21.31769-25.10486,25.156S586.0996,524.57124,582.62211,508.99744Z" transform="translate(-186.96827 -282.49498)"/><ellipse cx="665.503" cy="524.928" fill="#2f2e41" rx="23.892" ry="7.501" transform="translate(-363.18854 342.1587) rotate(-45.0221)"/><ellipse cx="581.797" cy="564.928" fill="#2f2e41" rx="23.892" ry="7.501" transform="translate(-300.4362 699.8503) rotate(-75.1366)"/></svg>