<svg xmlns="http://www.w3.org/2000/svg" xmlns:xlink="http://www.w3.org/1999/xlink" width="1136.626" height="835.426" data-name="Layer 1" viewBox="0 0 1136.626 835.426"><title>snow_games</title><path fill="#ffb8b8" d="M840.8275,654.79139,834,679h28c-3.99939-9.56384-5.022-18.64551-1.55554-27Z" transform="translate(-31.68686 -32.28722)"/><path fill="#3f3d56" d="M1168.31314,866.56522c0,.37864-.01149.76884-.03446,1.14756H32.26064c-.023-.37872-.03446-.76892-.03446-1.14756,0-57.59617,254.32282-104.279,568.04348-104.279S1168.31314,808.96905,1168.31314,866.56522Z" transform="translate(-31.68686 -32.28722)"/><circle cx="950.721" cy="718.374" r="63.116" fill="#d0cde1"/><ellipse cx="954.164" cy="672.472" fill="#98a3bb" rx="42.46" ry="17.213"/><circle cx="956.459" cy="633.455" r="40.165" fill="#d0cde1"/><circle cx="944.242" cy="619.684" r="6.144" fill="#575a89"/><circle cx="965.233" cy="619.684" r="6.144" fill="#575a89"/><path fill="#ff6584" d="M984.70313,660.004,983.0264,680.1247a.74959.74959,0,0,0,1.46661.27214l5.94793-20.39289Z" transform="translate(-31.68686 -32.28722)"/><polygon fill="#575a89" points="916.882 801.169 909.579 808.472 869.244 760.834 870.222 754.508 916.882 801.169"/><polygon fill="#575a89" points="885.31 778.047 885.31 782.638 848.588 780.343 845.145 778.047 885.31 778.047"/><ellipse cx="913.999" cy="700.013" fill="#d0cde1" rx="10.328" ry="11.476"/><polygon fill="#575a89" points="1000.626 699.036 1007.929 706.339 1048.264 658.701 1047.287 652.375 1000.626 699.036"/><polygon fill="#575a89" points="1021.87 681.652 1021.87 686.242 1058.592 683.947 1062.035 681.652 1021.87 681.652"/><ellipse cx="1003.509" cy="700.013" fill="#d0cde1" rx="10.328" ry="11.476"/><circle cx="954.164" cy="704.603" r="4.59" fill="#575a89"/><circle cx="954.164" cy="719.522" r="4.59" fill="#575a89"/><circle cx="954.164" cy="734.44" r="4.59" fill="#575a89"/><path fill="#d0cde1" d="M787.46208,778.19284a24.07985,24.07985,0,0,0-42.908-16.11077,24.13267,24.13267,0,0,0-10.47231-8.8624A24.09511,24.09511,0,0,0,692.94549,730.871a56.15789,56.15789,0,0,0-20.02891-12.77661,24.08569,24.08569,0,0,0-46.20582-12.57361,24.06727,24.06727,0,0,0-36.09953,28.67068,24.11768,24.11768,0,0,0-7.71824,4.63444,24.07711,24.07711,0,0,0-29.72407,11.56185,24.11939,24.11939,0,0,0-7.78765-5.74135c.07093-.58976.145-1.17868.17289-1.78151a24.09882,24.09882,0,1,0-47.901,2.46091A23.85594,23.85594,0,0,0,480.19336,770.797c-27.04278.79374-53.125,2.06108-78.04945,3.77433a56.2381,56.2381,0,0,0-103.52416-11.34094,24.08792,24.08792,0,0,0-37.0275,27.83146q-1.63636.29411-3.25894.59167c.03843-.39992.09752-.79327.11632-1.199a24.09882,24.09882,0,1,0-48.146-2.22975c-.01157.24985.007.49339.00309.7417a14.90545,14.90545,0,0,0-20.18092,13.25812C190.03825,804.11424,787.41866,779.13019,787.46208,778.19284Z" transform="translate(-31.68686 -32.28722)"/><path fill="#2f2e41" d="M40.22549,418.76859c.03292-.10465.06766-.21062.10072-.31561-.01429.046-.03222.09028-.04622.13644Z" transform="translate(-31.68686 -32.28722)"/><path fill="#3f3d56" d="M589.05567,731.61849l84.99756-126.39988L589.22951,745.21668l.17738,14.22316q-9.30774.071-18.43465-.31l4.21568-182.82936-.11549-1.41046.15555-.27252.40349-17.27627L482.54913,422.19651,575.52165,544.411l.32993,3.65166,3.18419-138.13472L498.63771,269.81376l80.627,115.84783-.84157-286.17954.0018-.95251.02735.93676,5.337,225.548,73.27323-91.61772L584.02921,344.44475l1.59924,123.5583,67.42643-120.58822L585.87626,486.16824l.89022,68.70463,98.05625-167.978L587.06458,578.841Z" transform="translate(-31.68686 -32.28722)"/><circle cx="538.746" cy="339.679" r="9.181" fill="#d0cde1"/><circle cx="598.419" cy="479.681" r="9.181" fill="#d0cde1"/><circle cx="520.385" cy="510.665" r="9.181" fill="#d0cde1"/><circle cx="490.549" cy="367.22" r="9.181" fill="#d0cde1"/><path fill="#d0cde1" d="M584.2038,381.14625a9.17238,9.17238,0,0,0-4.67548-7.99408,9.1766,9.1766,0,1,0-13.60034,6.80762,8.989,8.989,0,0,0,1.80475,6.75006,9.184,9.184,0,1,0,15.7287-1.94665A9.14637,9.14637,0,0,0,584.2038,381.14625Z" transform="translate(-31.68686 -32.28722)"/><path fill="#d0cde1" d="M601.41724,288.19368a9.18052,9.18052,0,0,0-9.18055,9.18048,9.17586,9.17586,0,0,0-8.89068,6.92871,9.17856,9.17856,0,1,0,9.74847,11.389,9.1789,9.1789,0,0,0,8.32276-9.1372,9.18048,9.18048,0,0,0,0-18.361Z" transform="translate(-31.68686 -32.28722)"/><circle cx="375.792" cy="403.942" r="6.885" fill="#d0cde1"/><circle cx="450.384" cy="486.567" r="6.885" fill="#d0cde1"/><circle cx="785.472" cy="168.692" r="9.181" fill="#d0cde1"/><circle cx="855.473" cy="63.116" r="6.885" fill="#d0cde1"/><circle cx="930.065" cy="145.74" r="6.885" fill="#d0cde1"/><circle cx="1023.018" cy="335.088" r="9.181" fill="#d0cde1"/><circle cx="899.999" cy="242.25" r="6.885" fill="#d0cde1"/><circle cx="706.29" cy="486.567" r="9.181" fill="#d0cde1"/><circle cx="815.309" cy="496.895" r="6.885" fill="#d0cde1"/><circle cx="139.394" cy="195.086" r="9.181" fill="#d0cde1"/><circle cx="130.214" cy="123.937" r="6.885" fill="#d0cde1"/><circle cx="123.329" cy="626.569" r="6.885" fill="#d0cde1"/><circle cx="391.858" cy="648.373" r="6.885" fill="#d0cde1"/><circle cx="946.131" cy="515.256" r="9.181" fill="#d0cde1"/><circle cx="1078.101" cy="574.929" r="6.885" fill="#d0cde1"/><circle cx="319.562" cy="271.972" r="6.885" fill="#d0cde1"/><circle cx="697.11" cy="616.241" r="9.181" fill="#d0cde1"/><circle cx="375.792" cy="6.885" r="6.885" fill="#d0cde1"/><circle cx="450.384" cy="89.51" r="6.885" fill="#d0cde1"/><circle cx="434.318" cy="179.02" r="6.885" fill="#d0cde1"/><circle cx="644.322" cy="67.706" r="9.181" fill="#d0cde1"/><circle cx="715.931" cy="274.087" r="6.885" fill="#d0cde1"/><circle cx="883.015" cy="397.057" r="6.885" fill="#d0cde1"/><circle cx="180.707" cy="393.614" r="6.885" fill="#d0cde1"/><circle cx="77.426" cy="525.584" r="6.885" fill="#d0cde1"/><circle cx="336.775" cy="423.451" r="18.361" fill="#d0cde1"/><polygon fill="#ffb8b8" points="878.998 644.93 889.327 634.602 895.064 640.34 885.884 655.258 878.998 644.93"/><path fill="#ff6584" d="M915.27559,666.88933l6.88537-4.59025s17.21344-22.95125,24.09882-11.47563-12.62319,22.95125-12.62319,22.95125l-5.73781,6.88538Z" transform="translate(-31.68686 -32.28722)"/><path d="M915.27559,666.88933l6.88537-4.59025s17.21344-22.95125,24.09882-11.47563-12.62319,22.95125-12.62319,22.95125l-5.73781,6.88538Z" opacity=".15" transform="translate(-31.68686 -32.28722)"/><polygon fill="#98a3bb" points="821.62 656.406 858.342 656.406 880.146 641.487 892.769 658.701 862.933 681.652 831.948 687.39 821.62 656.406"/><polygon points="821.62 656.406 858.342 656.406 880.146 641.487 892.769 658.701 862.933 681.652 831.948 687.39 821.62 656.406" opacity=".15"/><path fill="#2f2e41" d="M868.22552,753.5303s33.27932,36.722,27.54151,45.90251-18.361,9.1805-20.65613,8.03293-35.57444-19.50856-35.57444-19.50856l4.59025-14.91831s-6.88538-16.06588,0-17.21344S868.22552,753.5303,868.22552,753.5303Z" transform="translate(-31.68686 -32.28722)"/><path fill="#2f2e41" d="M846.42183,773.03887s-21.80368-17.21344-26.39394-13.77075-19.50856,25.24637-17.21343,35.57444,0,13.77075,6.88537,12.62318,8.03294-12.62318,8.03294-12.62318l24.09881-9.1805Z" transform="translate(-31.68686 -32.28722)"/><rect width="1.148" height="29.925" x="865.356" y="769.552" opacity=".15" transform="translate(-292.51794 1061.5928) rotate(-57.52881)"/><circle cx="821.62" cy="612.225" r="17.213" fill="#ffb8b8"/><path fill="#98a3bb" d="M832.65108,664.02042s-4.59025,11.47563-4.59025,39.01713S811.995,743.20224,824.61815,756.973,887,762,887,762s-.53662.42529-.41348-.43676c1.14757-8.03294-11.47562-91.805-16.06587-92.95257S832.65108,664.02042,832.65108,664.02042Z" transform="translate(-31.68686 -32.28722)"/><polygon fill="#ffb8b8" points="878.998 625.995 889.327 615.667 895.064 621.405 885.884 636.323 878.998 625.995"/><path fill="#2f2e41" d="M820.529,643.156c-3.80065.55714-7.99684.98195-10.68766,2.14211-3.53042,1.52215-3.32455,3.80625-2.36622,5.80036s2.45754,4.07079.85762,6.00485c-.92992,1.12414-2.833,2.08857-4.31839,3.12339s-2.5787,2.251-1.70086,3.3812c.91713,1.1807,3.72572,1.97977,5.69857,2.95728,4.2627,2.11208,4.32318,5.29969.14107,7.4348,3.59949-2.16635,10.46772-3.13187,16.76749-4.05427s13.06882-2.147,15.71068-4.50326c2.69414-2.40295.18889-5.20075,1.58715-7.7574,1.19537-2.18568,5.09924-3.98644,8.21831-5.87964s5.57587-4.2267,3.52393-6.31891c-1.51409-1.54381-5.389-2.89143-4.65208-4.51464.45579-1.004,2.58869-1.75343,4.12042-2.5905s2.38586-2.08962.45611-2.79859c-7.00833,1.264-14.1427,2.45906-21.05408,3.79723C828.56814,640.2054,826.04366,643.156,820.529,643.156Z" transform="translate(-31.68686 -32.28722)"/><polygon fill="#98a3bb" points="821.62 637.471 858.342 637.471 880.146 622.553 892.769 639.766 862.933 662.717 831.948 668.455 821.62 637.471"/><path fill="#98a3bb" d="M946.13779,663.44664s32.13176-16.06588,32.13176-21.80369-12.62319-22.95125-35.57444-22.95125c0,0-5.73782-10.32806-12.62319-2.29513s3.44269,13.77076,3.44269,13.77076-12.62319,20.65612,5.73781,33.27931Z" transform="translate(-31.68686 -32.28722)"/><circle cx="632.846" cy="424.598" r="18.361" fill="#ff6584"/><polygon fill="#575a89" points="620.705 424.859 615.45 417.842 616.369 417.154 620.889 423.189 628.83 416.384 636.833 423.243 643.748 416.328 651.039 423.619 650.228 424.43 643.748 417.95 636.893 424.805 628.83 417.894 620.705 424.859"/><polygon fill="#575a89" points="619.569 433.933 614.362 426.977 615.163 426.378 619.729 432.477 627.682 425.661 635.689 432.524 642.6 425.612 649.84 432.851 649.132 433.558 642.6 427.026 635.742 433.886 627.682 426.977 619.569 433.933"/><rect width="1.148" height="13.771" x="631.699" y="393.04" fill="#575a89"/><circle cx="598.419" cy="274.267" r="18.361" fill="#ff6584"/><polygon fill="#575a89" points="586.278 274.529 581.023 267.511 581.942 266.823 586.462 272.859 594.403 266.053 602.406 272.913 609.321 265.997 616.612 273.288 615.801 274.099 609.321 267.62 602.466 274.475 594.403 267.564 586.278 274.529"/><polygon fill="#575a89" points="585.142 283.601 579.935 276.647 580.736 276.047 585.302 282.147 593.256 275.33 601.262 282.193 608.173 275.282 615.413 282.521 614.706 283.228 608.173 276.696 601.315 283.556 593.256 276.647 585.142 283.601"/><rect width="1.148" height="13.771" x="597.272" y="242.709" fill="#575a89"/><circle cx="457.269" cy="430.336" r="18.361" fill="#ff6584"/><polygon fill="#575a89" points="445.128 430.597 439.873 423.579 440.792 422.891 445.312 428.927 453.253 422.121 461.255 428.981 468.171 422.065 475.462 429.357 474.651 430.168 468.171 423.688 461.316 430.543 453.253 423.632 445.128 430.597"/><polygon fill="#575a89" points="443.992 439.67 438.785 432.716 439.586 432.116 444.152 438.215 452.105 431.399 460.112 438.262 467.024 431.35 474.262 438.589 473.555 439.296 467.024 432.765 460.165 439.623 452.105 432.716 443.992 439.67"/><rect width="1.148" height="13.771" x="456.122" y="398.778" fill="#575a89"/><polygon fill="#98a3bb" points="563.405 93.16 547.768 81.426 531.776 92.672 538.104 74.174 522.466 62.439 542.014 62.741 548.342 44.243 554.096 62.928 573.644 63.23 557.652 74.476 563.405 93.16"/><path fill="#d0cde1" d="M788.58,766.7521a24.07986,24.07986,0,0,0-42.908-16.11078,24.13261,24.13261,0,0,0-10.47231-8.8624,24.0951,24.0951,0,0,0-41.13627-22.34863,56.15786,56.15786,0,0,0-20.02892-12.7766,24.08569,24.08569,0,0,0-46.20582-12.57362,24.06727,24.06727,0,0,0-36.09953,28.67068,24.1177,24.1177,0,0,0-7.71824,4.63445A24.07707,24.07707,0,0,0,554.28683,738.947a24.11975,24.11975,0,0,0-7.78764-5.74135c.07092-.58976.145-1.17868.17288-1.78151a24.09882,24.09882,0,1,0-47.901,2.46091,23.85585,23.85585,0,0,0-17.45974,25.47115c-27.04279.79374-53.125,2.06108-78.04946,3.77434a56.2381,56.2381,0,0,0-103.52416-11.341,24.08792,24.08792,0,0,0-37.0275,27.83146q-1.63636.29412-3.25894.59168c.03843-.39992.09753-.79327.11632-1.199a24.09882,24.09882,0,1,0-48.146-2.22975c-.01157.24985.007.49339.0031.7417a14.90549,14.90549,0,0,0-20.18093,13.25813C191.15616,792.6735,788.53658,767.68944,788.58,766.7521Z" transform="translate(-31.68686 -32.28722)"/><path fill="#d0cde1" d="M203.70645,867.43738a26.06,26.06,0,0,1,2.70823.2754h-7.58537A22.85644,22.85644,0,0,1,203.70645,867.43738Z" transform="translate(-31.68686 -32.28722)"/><path fill="#d0cde1" d="M313.22983,867.71278H219.88712a56.211,56.211,0,0,1,93.34271,0Z" transform="translate(-31.68686 -32.28722)"/><path fill="#d0cde1" d="M125.02956,867.71278H31.68686a56.211,56.211,0,0,1,93.3427,0Z" transform="translate(-31.68686 -32.28722)"/><path fill="#d0cde1" d="M180.11257,867.71278H86.76987a56.211,56.211,0,0,1,93.3427,0Z" transform="translate(-31.68686 -32.28722)"/><path fill="#d0cde1" d="M439.46171,814.9249H346.119a56.211,56.211,0,0,1,93.3427,0Z" transform="translate(-31.68686 -32.28722)"/><path fill="#d0cde1" d="M813.56711,841.31884h-93.3427a56.211,56.211,0,0,1,93.3427,0Z" transform="translate(-31.68686 -32.28722)"/><path fill="#d0cde1" d="M652.57558,862.27334a24.43565,24.43565,0,0,1,7.75754,5.43944h-259.682a24.17946,24.17946,0,0,1,15.49209-13.33467,23.53519,23.53519,0,0,1-.24094-4.69356,24.09609,24.09609,0,1,1,48.14019,2.23776c-.0229.59675-.09175,1.18195-.17209,1.77871a24.03015,24.03015,0,0,1,7.79192,5.73781,24.08484,24.08484,0,0,1,29.7219-11.556,24.02937,24.02937,0,0,1,7.72308-4.63612,23.807,23.807,0,0,1-1.68689-9.9953,24.07211,24.07211,0,0,1,37.78923-18.68228,24.08842,24.08842,0,0,1,46.47628,9.94935,24.86621,24.86621,0,0,1-.2754,2.62789,56.2102,56.2102,0,0,1,20.02491,12.77238,24.09008,24.09008,0,0,1,41.14016,22.35456Z" transform="translate(-31.68686 -32.28722)"/><path fill="#d0cde1" d="M909.664,867.71278H865.3681a24.09135,24.09135,0,0,1,44.29589,0Z" transform="translate(-31.68686 -32.28722)"/><path fill="#d0cde1" d="M1095.84453,867.71278H955.99109a23.24664,23.24664,0,0,1-1.02128-8.0674A24.07211,24.07211,0,0,1,992.759,840.9631a24.08842,24.08842,0,0,1,46.47628,9.94935,24.86885,24.86885,0,0,1-.2754,2.62789,56.21029,56.21029,0,0,1,20.02491,12.77238,24.09955,24.09955,0,0,1,36.8597,1.40006Z" transform="translate(-31.68686 -32.28722)"/><path fill="#d0cde1" d="M697.42228,867.71278H666.39221a24.02261,24.02261,0,0,1,31.03007,0Z" transform="translate(-31.68686 -32.28722)"/><circle cx="256.07" cy="482.13" r="20.446" fill="#a0616a"/><path fill="#2f2e41" d="M292.56721,488.34605c7.28469.45635,14.04371,3.83473,20.36077,7.49118a2.63686,2.63686,0,0,0-3.18293.62814c-.84281.81713-1.37256,1.90844-2.18371,2.757-1.50766,1.57719-3.76919,2.1229-5.899,2.59674l-9.92639,2.20847-9.20638,2.04828a18.71819,18.71819,0,0,1-7.05026.64793c-2.34334-.3863-4.66277-1.89806-5.27513-4.19261-.85075-3.18785,5.48706-7.932,7.81111-9.85151A21.10291,21.10291,0,0,1,292.56721,488.34605Z" transform="translate(-31.68686 -32.28722)"/><path fill="#2f2e41" d="M273.86424,505.07534c4.29151-6.02636,10.98949-9.94443,17.70816-13.32374-1.13045.44739-1.41757,1.9119-1.11446,3.10176s1.02464,2.26492,1.37347,3.44527c.64835,2.19389-.05212,4.454-.74862,6.55984l-3.24621,9.81456-3.01074,9.10266a17.85441,17.85441,0,0,1-3.15187,6.44947,6.55158,6.55158,0,0,1-6.65767,2.17676c-3.38242-1.07132-4.37445-9.22587-4.90349-12.31792A20.47861,20.47861,0,0,1,273.86424,505.07534Z" transform="translate(-31.68686 -32.28722)"/><path fill="#a0616a" d="M376.75742,498.78149s1.20271-26.45974,7.21629-25.257,1.20272,27.66246,1.20272,27.66246Z" transform="translate(-31.68686 -32.28722)"/><path fill="#575a89" d="M375.55665,544.48554l-27.02247,19.57091-7.85988,5.68846-20.4432-28.86918,12.75958-5.02958,26.9297-10.60669,15.63627-31.27259,13.22357,3.60981C391.193,503.58991,375.55665,544.48554,375.55665,544.48554Z" transform="translate(-31.68686 -32.28722)"/><path fill="#a0616a" d="M333.45965,492.76791s-3.60814-31.2706,3.60815-28.86517,6.01358,32.47332,6.01358,32.47332Z" transform="translate(-31.68686 -32.28722)"/><polygon fill="#575a89" points="246.996 740.808 240.056 758.957 259.389 764.676 259.021 740.625 246.996 740.808"/><polygon fill="#2f2e41" points="304.028 616.042 284.798 695.725 266.329 746.527 242.277 746.895 264.133 681.606 272.651 609.305 304.028 616.042"/><path fill="#2f2e41" d="M269.048,789.26657s-7.32217,15.586-2.38486,17.71989,18.34752,5,18.34752,5l1.841-1.54814s30.98367,6.9455,36.17195-3.70319-19.16349-15.31387-19.16349-15.31387l-11.1299-9.498L279.362,788.4506Z" transform="translate(-31.68686 -32.28722)"/><polygon fill="#575a89" points="221.686 737.587 214.747 755.736 234.08 761.455 233.712 737.403 221.686 737.587"/><polygon fill="#2f2e41" points="245.978 611.51 238.879 681.993 216.913 740.066 237.467 746.968 268.999 685.141 283.547 613.95 245.978 611.51"/><path fill="#2f2e41" d="M242.43832,786.71567s-11.47546,12.83944-7.35509,16.29676,16.15,10.04044,16.15,10.04044l2.207-.95668s27.70118,15.52,35.71933,6.801-13.98084-20.15666-13.98084-20.15666l-7.9471-12.28533-14.677,2.4296Z" transform="translate(-31.68686 -32.28722)"/><path d="M348.53418,564.05645l-7.85988,5.68846-20.4432-28.86918,5.68846-1.01146c.31553.51966,5.243.38973,5.56782.928C337.45422,550.56373,346.05651,558.82269,348.53418,564.05645Z" opacity=".15" transform="translate(-31.68686 -32.28722)"/><path fill="#575a89" d="M361.18241,660.50034c-1.39237-.90065-1.71661-10.31336-3.71188-11.13564-1.0125-.41727-3.49053,7.72711-4.63912,7.3297-29.82037-10.3178-96.48125,11.80027-107.64522-12.89752-7.50591-16.60517,40.16256-48.802,40.16256-60.8284a35.33917,35.33917,0,0,0-1.65181-9.01061c-2.27354-7.962-6.50508-17.98406-9.92-25.547-2.92313-6.47722-5.26158-11.14487-5.26158-11.14487s35.068-10.42114,46.30566-14.4485c1.42911-.51043,2.46843-.91868,3.00667-1.18783,2.15284-1.07642,7.68356,6.533,13.35344,15.80335,6.97835,11.42331,14.17941,25.38,15.5064,28.7021C349.09094,572.14832,381.62561,673.73314,361.18241,660.50034Z" transform="translate(-31.68686 -32.28722)"/><path d="M326.84753,535.22442c-13.01939,15.67337-27.03176,34.40908-39.09537,37.95393a20.03225,20.03225,0,0,1-4.05522.77952c-2.27354-7.962-6.50508-17.98406-9.92-25.547a16.405,16.405,0,0,1,4.90894-3.684L311.304,528.673l3.517-5.85549c1.42911-.51043,2.46843-.91868,3.00667-1.18783C319.98053,520.55322,321.17765,525.954,326.84753,535.22442Z" opacity=".15" transform="translate(-31.68686 -32.28722)"/><path fill="#575a89" d="M278.6852,540.08779c-8.90871,4.38556-12.15467,15.7834-6.38316,23.8635,2.995,4.19306,7.78711,6.8428,15.45442,4.5877,20.44617-6.01357,58.93307-49.31134,58.93307-62.54121V493.97063l-14.43259-4.81087-20.954,34.871Z" transform="translate(-31.68686 -32.28722)"/><ellipse cx="330.559" cy="542.648" fill="#2f2e41" rx="1.856" ry="3.712" transform="translate(-285.42458 260.6943) rotate(-35.51518)"/><ellipse cx="336.127" cy="552.856" fill="#2f2e41" rx="1.856" ry="3.712" transform="translate(-290.31857 265.82777) rotate(-35.51518)"/><ellipse cx="340.767" cy="563.991" fill="#2f2e41" rx="1.856" ry="3.712" transform="translate(-295.92428 270.5948) rotate(-35.51518)"/><ellipse cx="343.551" cy="575.127" fill="#2f2e41" rx="1.856" ry="3.712" transform="translate(-199.20532 109.70423) rotate(-18.86655)"/><ellipse cx="347.263" cy="586.263" fill="#2f2e41" rx="1.856" ry="3.712" transform="translate(-202.60677 111.50279) rotate(-18.86655)"/><ellipse cx="350.975" cy="596.47" fill="#2f2e41" rx="1.856" ry="3.712" transform="translate(-205.70815 113.2515) rotate(-18.86655)"/><ellipse cx="352.831" cy="607.606" fill="#2f2e41" rx="1.856" ry="3.712" transform="translate(-209.20932 114.44992) rotate(-18.86655)"/><ellipse cx="354.687" cy="618.742" fill="#2f2e41" rx="1.856" ry="3.712" transform="translate(-212.71048 115.64833) rotate(-18.86655)"/><ellipse cx="356.543" cy="630.805" fill="#2f2e41" rx="1.856" ry="3.712" transform="translate(-216.51172 116.8966) rotate(-18.86655)"/><ellipse cx="357.471" cy="642.869" fill="#2f2e41" rx="1.856" ry="3.712" transform="translate(-220.36281 117.8448) rotate(-18.86655)"/><path fill="#98a3bb" d="M277.01854,526.76215s27.47234-32.02552,24.85958-38.23768-24.1178-19.10055-48.96643-8.64949c0,0-10.91514-8.56912-14.71186,3.26321s9.99793,13.34152,9.99793,13.34152-4.2608,28.11185,21.36619,33.41775Z" transform="translate(-31.68686 -32.28722)"/><circle cx="690.224" cy="748.211" r="18.361" fill="#ff6584"/><polygon fill="#575a89" points="678.083 748.472 672.828 741.454 673.747 740.766 678.267 746.802 686.208 739.996 694.211 746.856 701.126 739.94 708.417 747.231 707.606 748.043 701.126 741.563 694.271 748.418 686.208 741.507 678.083 748.472"/><polygon fill="#575a89" points="676.947 757.545 671.74 750.59 672.541 749.99 677.107 756.09 685.06 749.274 693.067 756.137 699.979 749.225 707.217 756.464 706.51 757.171 699.979 750.64 693.12 757.498 685.06 750.591 676.947 757.545"/><rect width="1.148" height="13.771" x="689.077" y="716.653" fill="#575a89"/><circle cx="628.808" cy="747.565" r="18.361" fill="#98a3bb"/><polygon fill="#575a89" points="617.968 753.039 610.199 748.976 610.731 747.959 617.413 751.454 621.64 741.888 631.82 744.623 635.074 735.4 644.798 738.831 644.416 739.913 635.774 736.864 632.548 746.006 622.292 743.25 617.968 753.039"/><polygon fill="#575a89" points="620.399 760.74 613.173 757.656 613.565 756.736 619.952 759.463 624.625 750.787 634.373 752.605 638.067 744.316 647.219 746.744 646.964 747.711 638.633 745.502 634.965 753.732 625.16 751.904 620.399 760.74"/><rect width="1.148" height="13.771" x="648.758" y="750.957" fill="#575a89" transform="translate(-295.12976 322.07127) rotate(-25.5621)"/><circle cx="463.871" cy="737.224" r="18.361" fill="#98a3bb"/><polygon fill="#575a89" points="452.335 733.43 449.715 725.064 450.81 724.721 453.064 731.916 462.817 728.141 468.081 737.273 476.903 733.053 481.353 742.355 480.317 742.85 476.363 734.583 467.618 738.766 462.314 729.566 452.335 733.43"/><polygon fill="#575a89" points="476.247 751.094 472.261 742.761 463.51 746.945 458.209 737.75 448.244 741.607 445.649 733.316 446.603 733.017 448.879 740.289 458.648 736.508 463.914 745.644 472.732 741.427 477.149 750.662 476.247 751.094"/><rect width="13.771" height="1.148" x="496.342" y="745.48" fill="#575a89" transform="translate(-399.45718 940.03591) rotate(-70.5621)"/><ellipse cx="883.123" cy="728.77" fill="#575a89" rx="1.707" ry="5.738" transform="translate(-134.85776 114.90186) rotate(-9.00383)"/><ellipse cx="880.828" cy="712.704" fill="#575a89" rx="1.707" ry="5.738" transform="translate(-132.37173 114.34471) rotate(-9.00383)"/><ellipse cx="885.418" cy="743.688" fill="#575a89" rx="1.707" ry="5.738" transform="translate(-137.1642 115.44487) rotate(-9.00383)"/><ellipse cx="886.565" cy="757.459" fill="#575a89" rx="1.707" ry="5.738" transform="translate(-98.36678 53.55751) rotate(-5.34291)"/><ellipse cx="911.812" cy="666.802" fill="#575a89" rx="5.738" ry="1.707" transform="translate(-236.12338 807.76284) rotate(-45)"/><path fill="#2f2e41" d="M869.72291,637.58638c-2.42563-.27518-4.499,1.61722-6.20073,3.36754a37.55222,37.55222,0,0,1-4.64957,4.27385,19.09966,19.09966,0,0,1-17.47217,2.48461c.14351.05214,5.5509-7.109,6.147-7.76774a75.27578,75.27578,0,0,1,7.25083-7.006c1.92426-1.62461,4.57153-4.40794,7.32565-3.20174C865.022,631.00619,867.66357,635.25421,869.72291,637.58638Z" transform="translate(-31.68686 -32.28722)"/><path fill="#575a89" d="M836.09377,652.5448s32.13175-16.06588,32.13175-21.80369-12.62319-22.95125-35.57444-22.95125c0,0-5.73781-10.32807-12.62319-2.29513s3.44269,13.77075,3.44269,13.77075-12.62319,20.65613,5.73782,33.27932Z" transform="translate(-31.68686 -32.28722)"/><path fill="#575a89" d="M875.9364,636.39727c-2.42563-.27518-4.499,1.61721-6.20073,3.36753a37.55,37.55,0,0,1-4.64957,4.27385,19.09966,19.09966,0,0,1-17.47217,2.48462c.14351.05213,5.5509-7.109,6.147-7.76774a75.27469,75.27469,0,0,1,7.25084-7.00595c1.92426-1.62462,4.57153-4.40794,7.32565-3.20174C871.23551,629.81708,873.87706,634.0651,875.9364,636.39727Z" transform="translate(-31.68686 -32.28722)"/><path fill="#ff6584" d="M946.25978,631.88867c-3.65407-6.09012-10.21677-2.484-15.57187,2.24189-.26126-2.94112-1.15268-5.1108-2.21535-5.1108-1.26755,0-2.29513,3.08268-2.29513,6.88538a19.44979,19.44979,0,0,0,.16019,2.51463c-2.50665,2.71846-4.17666,4.94453-4.17666,4.94453l-6.88537,4.59025,12.62319,13.77075,5.73781-6.88538S953.14515,643.3643,946.25978,631.88867Z" transform="translate(-31.68686 -32.28722)"/><circle cx="786.62" cy="570.339" r="4.59" fill="#575a89"/><path fill="#98a3bb" d="M845,729v7.5a10.5,10.5,0,0,0,21,0V729Z" transform="translate(-31.68686 -32.28722)"/><path d="M845,729v7.5a10.5,10.5,0,0,0,21,0V729Z" opacity=".15" transform="translate(-31.68686 -32.28722)"/></svg>