<svg data-name="Layer 1" xmlns="http://www.w3.org/2000/svg" width="796.56029" height="663.68664" viewBox="0 0 796.56029 663.68664" xmlns:xlink="http://www.w3.org/1999/xlink"><path d="M998.08,779.59018c-3.69427-6.69052-13.92447-9.80279-20.54972-12.17587-14.72984-5.276-30.143-8.71989-45.44633-11.85119-21.8738-4.47571-43.94842-7.96459-66.06164-11.01785-26.99439-3.72722-54.0837-6.75583-81.2145-9.29642q-46.0191-4.30935-92.18565-6.794-48.8701-2.66795-97.82181-3.38282c-32.81652-.46084-65.64706-.22936-98.44871.8904-31.4041,1.072-62.79237,2.9467-94.06635,6.02567-28.24872,2.78114-56.441,6.51184-84.31252,11.92829-23.8526,4.63542-47.5932,10.45676-70.43774,18.81168q-7.16022,2.6187-14.17366,5.61085l2.2035,1.694c8.46535-20.76523,17.786-46.13228,4.56057-67.109-5.10289-8.09362-14.3001-15.11653-24.36451-13.82852-8.15632,1.04383-16.182,9.35649-13.52193,17.99983,2.30187,7.47932,12.72895,10.92018,18.47844,5.30417a1.51558,1.51558,0,0,0-1.06066-2.56066c-10.83284.86352-14.23589,13.85419-10.65787,22.664,5.54567,13.6545,23.99554,13.7108,36.16114,12.24725,1.893-.22772,1.91587-3.23048,0-3-10.34771,1.24485-25.4668,2.00308-32.11652-7.94332-4.41112-6.598-3.09767-20.19379,6.61325-20.96788l-1.06066-2.56066c-3.29029,3.21391-8.61845,2.15587-11.621-.98523-4.04726-4.234-1.88141-10.609,2.091-14.06989,9.84855-8.58031,23.29268.70666,28.78357,9.71453,12.3115,20.19719,2.89451,44.497-5.17769,64.29791-.56062,1.37517,1.17107,2.13389,2.20349,1.694,21.21028-9.03782,43.55514-15.32851,66.01562-20.38066a783.46391,783.46391,0,0,1,81.06778-13.37653c30.37365-3.54806,60.89091-5.82181,91.43319-7.27408,32.114-1.527,64.27-2.13058,96.41893-2.03843q48.77208.1398,97.50976,2.34348,46.68507,2.07045,93.27025,5.91033c27.97947,2.31724,55.92227,5.12435,83.78331,8.59235,23.57505,2.93451,47.10747,6.3224,70.48226,10.58141,17.22009,3.1376,34.45531,6.64255,51.25871,11.5908,8.92152,2.6272,19.852,5.409,27.0783,11.59a9.26512,9.26512,0,0,1,2.29595,2.63629c.93343,1.6905,3.52523.17886,2.59041-1.51415Z" transform="translate(-201.71986 -118.15668)" fill="#f2f2f2"/><path d="M652.56646,269.04565l61.8491,35.39733a11.50234,11.50234,0,0,0,15.59273-4.15877l0,0a11.50236,11.50236,0,0,0-4.60137-16.04582l-65.3733-34.79957-38.83189-22.82a10.03746,10.03746,0,1,0-9.49123,8.71016Z" transform="translate(-201.71986 -118.15668)" fill="#ffb6b6"/><path d="M698.55993,302.91319h0a3.39182,3.39182,0,0,0,3.21044,2.56857,4.40006,4.40006,0,0,1,2.51918.92669,4.04542,4.04542,0,0,1,.39237.358,6.63628,6.63628,0,0,0,5.76613,2.09784c3.4786-.51153,7.53559.69387,10.89265,2.19331,3.67347,1.64085,7.31325,3.50539,11.27276,4.21917,5.71165,1.02954,12.44085-.7364,14.03851-7.78023a13.35864,13.35864,0,0,0-1.19659-8.87043c-2.86583-5.7495-8.46262-9.211-13.8486-12.47126l2.7629.24914a51.07454,51.07454,0,0,1-15.24407-13.593c-.54259,1.45632-2.85418,1.309-3.85469.11985-1.00057-1.18917-1.11686-2.85683-1.38292-4.38795-.33536-1.92994-1.24892-4.11622-3.654-3.96661a4.18194,4.18194,0,0,0-2.93662,1.61338,79.0332,79.0332,0,0,0-14.69228,28.81839c-.63345,2.33607-1.12959,4.95209.02924,7.07705S697.32716,304.99612,698.55993,302.91319Z" transform="translate(-201.71986 -118.15668)" fill="#2f2e41"/><path d="M551.64383,440.6744a18.93891,18.93891,0,0,1-16.34049-11.31362c-3.221-7.1861-2.06774-15.69371,1.89437-22.33165,4.13284-6.924,10.59849-11.02106,17.58594-14.64474,6.4028-3.32049,13.29885-7.21251,16.21757-14.21087a13.80347,13.80347,0,0,0,.48372-9.60877,12.3296,12.3296,0,0,0-2.21038-4.07311,11.755,11.755,0,0,0-4.12125-2.81775c-1.52367-.79-2.23488-2.26795-2.99183-3.73714-.83959-1.62956-1.756-3.2028-2.67611-4.78834q-3.27881-5.6499-6.29758-11.44545a265.54481,265.54481,0,0,1-19.52618-48.24949c-9.17721-31.46286-12.04155-65.2997-4.35686-97.39411,3.673-15.33982,9.67065-30.36778,18.50964-43.48438,8.14647-12.08892,19.3231-22.7723,33.3162-27.6027,13.44957-4.64278,29.89079-4.19071,41.40956,4.997,9.46093,7.54634,15.02116,20.7426,12.45586,32.75688a26.38485,26.38485,0,0,1-3.28195,8.24385l2.74162,1.15584c6.68838-17.99222,29.1188-24.75218,46.40871-19.831,21.13587,6.0158,32.35153,28.71523,33.32105,49.30373,1.18956,25.26129-12.11187,48.54857-27.76481,67.37815A257.19533,257.19533,0,0,1,630.47635,318.798a263.537,263.537,0,0,1-67.50567,31.99631q-4.43895,1.36893-8.92449,2.578a1.50128,1.50128,0,0,0,.79752,2.89284,266.14983,266.14983,0,0,0,71.28463-31.11114,263.78955,263.78955,0,0,0,59.318-50.41675c16.68869-19.187,31.52044-42.80957,31.81312-69.04974.24074-21.58391-9.88484-45.76975-30.866-54.61275-17.41624-7.34049-40.98345-2.61867-51.63943,13.80146a32.78773,32.78773,0,0,0-3.19121,6.45206c-.60713,1.63323,1.88471,2.56554,2.74162,1.15584,6.789-11.16848,4.96937-25.60856-2.05259-36.21877-7.98873-12.071-22.10711-17.73831-36.29868-17.15138-32.94718,1.36262-54.06914,31.12276-64.47829,59.38518-11.74772,31.89681-11.927,67.12123-4.71305,100.062a255.909,255.909,0,0,0,17.0906,50.79734q5.63361,12.42888,12.44858,24.2755c.96015,1.67068,1.98712,3.30672,2.86641,5.02182a16.6736,16.6736,0,0,0,2.74219,4.37971c1.23622,1.23012,2.99554,1.50852,4.31083,2.58788a8.62767,8.62767,0,0,1,2.62432,4.62775c1.9335,7.94416-5.479,13.9695-11.5666,17.40394-3.7893,2.13781-7.79106,3.90437-11.42881,6.30676a37.076,37.076,0,0,0-8.44136,7.5762c-4.88573,6.05215-7.66847,13.72832-6.80549,21.55444A23.24354,23.24354,0,0,0,541.84705,440.889a20.71213,20.71213,0,0,0,9.79678,2.78539c1.93115.05558,1.92955-2.94447,0-3Z" transform="translate(-201.71986 -118.15668)" fill="#9ba2b7"/><polygon points="215.565 301.691 229.565 226.691 273.565 222.691 302.449 304.305 215.565 301.691" fill="#a0616a"/><polygon points="526.565 232.691 490.565 311.691 574.065 320.423 596.565 224.691 526.565 232.691" fill="#ffb6b6"/><polygon points="654.207 543.912 646.856 552.118 611.001 527.038 621.85 514.927 654.207 543.912" fill="#ffb6b6"/><path d="M845.75085,700.12829a4.93186,4.93186,0,0,0,6.95608-.38072l14.61389-16.3166-3.29849-8.01469,6.79339,4.10644,5.51863-6.15264-22.28913-16.84954-2.044,2.03138-8.35834,8.26711-2.691,2.67206,5.8723,5.26034L844.151,695.84334A4.92354,4.92354,0,0,0,845.75085,700.12829Z" transform="translate(-201.71986 -118.15668)" fill="#2f2e41"/><polygon points="511.44 618.695 500.43 619.102 493.585 575.885 509.833 575.284 511.44 618.695" fill="#ffb6b6"/><path d="M678.70392,755.95331a4.93186,4.93186,0,0,0,5.10375,4.74171l21.88922-.81184,3.47769-7.93858,1.76153,7.74016,8.25954-.30034-3.34977-27.7397-2.88111-.06057-11.75292-.27517-3.7914-.08135.29159,7.87846-17.03518,12.72075A4.92353,4.92353,0,0,0,678.70392,755.95331Z" transform="translate(-201.71986 -118.15668)" fill="#2f2e41"/><path d="M778.30842,423.29565H695.5289l-26.2441,57.5516s-20.19553,97.57338-9,122c11,24,32,109,32,109l22-5,5-15s-8.44227-14.03192-6-19-6-5-6-5,.13241-3.29363,1-13-8-70-8-70l30-94Z" transform="translate(-201.71986 -118.15668)" fill="#2f2e41"/><path d="M713.11157,442.41293l17.17323,48.43432-9.94723,81.38646a15.87179,15.87179,0,0,0,5.63015,14.14889l92.31708,76.46465,21-24-6.76993-5.76341s-11.003-3.583-8.11653-6.90981-7.14838-6.08559-7.14838-6.08559-1.63765,6.95812-7.8014-6.64153-43.25037-36.82013-43.25037-36.82013,51.08661-107.77953,12.11023-153.33113Z" transform="translate(-201.71986 -118.15668)" fill="#2f2e41"/><polygon points="139.923 530.912 147.274 539.118 183.129 514.038 172.279 501.927 139.923 530.912" fill="#a0616a"/><path d="M353.41859,682.84334l-2.6732-21.09191,5.87231-5.26034-2.691-2.67206-8.35833-8.26711-2.044-2.03138-22.28913,16.84954,5.51863,6.15264,6.7934-4.10644-3.29849,8.01469,14.61388,16.3166a4.92621,4.92621,0,0,0,8.55592-3.90423Z" transform="translate(-201.71986 -118.15668)" fill="#2f2e41"/><polygon points="235.809 576.882 245.821 581.479 268.712 544.189 253.935 537.404 235.809 576.882" fill="#a0616a"/><path d="M461.78783,721.32363l-10.85657-18.27976,3.28978-7.16467-3.53288-1.37843L439.72779,690.249l-2.68417-1.04863-13.72878,24.33583,7.51327,3.444,4.59439-6.47338.16843,8.66527,19.90539,9.14179a4.92621,4.92621,0,0,0,6.29151-6.99025Z" transform="translate(-201.71986 -118.15668)" fill="#2f2e41"/><path d="M419.26118,410.29565h82.77953l26.24409,57.5516s28,103,9,122-71,84-71,84l-18-7,49-95-30-94Z" transform="translate(-201.71986 -118.15668)" fill="#2f2e41"/><path d="M484.458,429.41293,467.2848,477.84725l9.94724,81.38646a15.87179,15.87179,0,0,1-5.63015,14.14889L383.2848,634.84725l-13-15,61.08662-56.22047S380.2848,455.84725,419.26118,410.29565Z" transform="translate(-201.71986 -118.15668)" fill="#2f2e41"/><path d="M784.2848,402.84725l-73-19s2.70439-23.97717-1.6478-22.98858-.50269-7.013-.50269-7.013,3.15049-2.99847-.52732-7.3567c-12.58006-14.90747-2.44152-34.06175-2.44152-34.06175A40.32065,40.32065,0,0,1,740.5159,273.891l27.11268-4.04374a39.013,39.013,0,0,1,38.53556,45.09753Z" transform="translate(-201.71986 -118.15668)" fill="#2f2e41"/><polygon points="570.565 160.691 529.565 161.691 533.565 142.691 563.565 142.691 570.565 160.691" fill="#2f2e41"/><path d="M832.97994,369.23664l-46.833-53.71172a11.50237,11.50237,0,0,1,1.022-16.10542l0,0a11.50238,11.50238,0,0,1,16.63647,1.36719l46.9376,57.28472,29.98835,33.60606a10.03747,10.03747,0,1,1-6.681,11.01431Z" transform="translate(-201.71986 -118.15668)" fill="#ffb6b6"/><path d="M790.75469,330.77318h0a3.39182,3.39182,0,0,1-3.148-2.64474,4.4001,4.4001,0,0,0-1.40247-2.28869,4.04443,4.04443,0,0,0-.428-.31459,6.63631,6.63631,0,0,1-3.1873-5.24312c-.18019-3.5114-2.15736-7.25344-4.2857-10.2515-2.329-3.28062-4.87078-6.48436-6.34677-10.22718-2.129-5.39908-1.71625-12.34388,4.87783-15.29112a13.35862,13.35862,0,0,1,8.9329-.56521c6.19968,1.68336,10.691,6.49317,14.94366,11.13567l-.78583-2.66048a51.07483,51.07483,0,0,0,16.31713,12.28422c-1.32172.8175-.72417,3.05538.638,3.80342s3.02032.53526,4.57389.49607c1.95823-.04941,4.28116.41792,4.60584,2.80566a4.18192,4.18192,0,0,1-1.00652,3.19588,79.033,79.033,0,0,1-25.3798,20.05564c-2.1666,1.079-4.63463,2.07828-6.9455,1.35841S788.95377,332.39028,790.75469,330.77318Z" transform="translate(-201.71986 -118.15668)" fill="#2f2e41"/><path d="M720.05787,223.67115c9.12753,15.72411-8.05951,42.21826,9.26218,47.71992l-1.427-1.42705c-10.45582-12.86109,11.39822-40.08221.94236-52.94336a31.42336,31.42336,0,0,1-4.15434-6.17522Z" transform="translate(-201.71986 -118.15668)" fill="#2f2e41"/><path d="M791.27648,221.28738a31.1318,31.1318,0,1,1-53.5467-21.59312l.14943-.14928c.24907-.26161.49814-.52307.75967-.77221a.01219.01219,0,0,0,.01239-.01247c.32378-.29885.64757-.5977.98381-.88409a31.12361,31.12361,0,0,1,51.6414,23.41117Z" transform="translate(-201.71986 -118.15668)" fill="#2f2e41"/><circle cx="550.75487" cy="110.3337" r="26.10535" fill="#ffb8b8"/><path d="M771.12533,203.39071a29.44345,29.44345,0,0,0-30.73711-5.96765c-.13265.05891-.28.11782-.41262.17682-.51569.20622-1.03137.442-1.54715.6925l-.29472.13265v.04416l-.17681.13265a1.04778,1.04778,0,0,1-.42728.23572,16.11954,16.11954,0,0,0-12.15634,5.05408c-4.03737,4.39108-5.9529,11.49326-5.36355,19.98061l.01475.26522.23572.1474c.07374.04416.13265.08841.20631.13256,2.06293,1.28194,4.0227,2.41656,5.92348,3.41853,1.14928.61893,2.26915,1.17877,3.389,1.69455l.39788.17681c.42728.20631.86931.39788,1.29668.58944,10.786,4.71511,20.7321,5.45186,30.28033,2.2839l.17681-.059,3.21221-5.3782,1.01672-1.69456c.22106,1.20828.35362,3.109.501,5.28989a81.66934,81.66934,0,0,0,1.13453,10.15241v.02941c.58944,2.97649,1.503,5.37829,3.006,6.17395a1.95532,1.95532,0,0,0,.73675.28l2.38706-3.15331,6.27711-8.281.10306-.48619C782.85439,223.946,779.17065,211.06756,771.12533,203.39071Z" transform="translate(-201.71986 -118.15668)" fill="#2f2e41"/><path d="M845.2848,153.84725c-5.28989-7.01385-10.1407-26.81734-17.90605-30.91361-.78091-.41262-1.5619-.79575-2.35756-1.14937a9.23146,9.23146,0,0,1,.42728,5.86448c-.6925,2.38715-2.46071,4.28793-4.18467,6.08555q-7.18331,7.537-14.38134,15.05918a38.27366,38.27366,0,0,0,7.04326-30.26558,34.08871,34.08871,0,0,0-12.03843.35363c-8.57576,1.85661-16.44418,7.6621-19.848,15.75167-2.90275,6.837-2.49012,14.60231-1.5619,21.96979.92831,7.36748,2.35764,14.82336,1.32618,22.1761-1.01672,7.36748-5.06883,14.83811-11.97953,17.57879,1.5324-.92831,1.42934-3.41843.1474-4.65621a5.295,5.295,0,0,0-3.77223-1.26718,7.27961,7.27961,0,0,0-1.28194.10316c-5.49611.86931-9.51873,5.46661-13.02565,9.79869a4.89639,4.89639,0,0,0-3.93421,3.21221,3.94039,3.94039,0,0,0,0,2.75543c1.164,2.91758,5.84973,3.47752,7.66211.91356a15.03853,15.03853,0,0,0,13.1878,18.56611c6.35077.60409,16.44418,1.5619,20.6437-3.25646,6.557-7.5443,16.621-15.10334,17.682-25.04944,1.04621-9.93135,6.54233-7.95691,8.841-17.68195,2.29865-9.73979,11.74372-13.0994,20.62894-17.68195C846.5342,156.98611,836.16386,147.36393,845.2848,153.84725Z" transform="translate(-201.71986 -118.15668)" fill="#2f2e41"/><path d="M764.94515,226.80282c9.12754,15.72411-8.05951,42.21826,9.26218,47.71992l-1.427-1.427c-10.45582-12.8611,11.39823-40.08222.94236-52.94337a31.42336,31.42336,0,0,1-4.15434-6.17522Z" transform="translate(-201.71986 -118.15668)" fill="#2f2e41"/><path d="M779.08529,235.20944s-7.73317-28.86532-40.8823-35.52765c-.03732-.01231-.16189-.06217-.32378-.13681-.09957-.06232-.22414-.12465-.34864-.18682.37357-.21175.73467-.39842,1.10831-.58539a.01219.01219,0,0,0,.01239-.01247c.32378-.29885.64757-.5977.98381-.88409l.94642.03739S773.84267,192.64613,779.08529,235.20944Z" transform="translate(-201.71986 -118.15668)" fill="#fd6584"/><path d="M489.38969,365.74434l-29.581-72.06871a12.57433,12.57433,0,0,1,6.72307-16.31051l0,0a12.57435,12.57435,0,0,1,16.73874,7.2672l28.43242,75.80375L530.92119,405.769a10.97293,10.97293,0,1,1-10.78958,9.05031Z" transform="translate(-201.71986 -118.15668)" fill="#a0616a"/><path d="M459.2142,311.07927l0,0a3.70791,3.70791,0,0,1-2.328-3.84478,4.81015,4.81015,0,0,0-.64656-2.86226,4.42388,4.42388,0,0,0-.33228-.47616,7.25476,7.25476,0,0,1-1.45471-6.54809c1.04867-3.69787.3185-8.2666-.82985-12.11842-1.25666-4.21489-2.76057-8.425-2.97172-12.81825-.30448-6.33726,2.5657-13.38031,10.42766-14.11133a14.60356,14.60356,0,0,1,9.44487,2.55724c5.82488,3.92319,8.7817,10.48147,11.55041,16.78265l.12248-3.03016a55.83482,55.83482,0,0,0,12.568,18.45459c-1.65562.38122-1.82432,2.90775-.67754,4.16117,1.14681,1.25349,2.93791,1.61646,4.55973,2.12238,2.04426.63769,4.28423,1.93853,3.78037,4.52417a4.57168,4.57168,0,0,1-2.166,2.95387,86.39882,86.39882,0,0,1-33.32432,11.83105c-2.62211.35471-5.52816.52084-7.66682-1.03714S456.78131,312.11957,459.2142,311.07927Z" transform="translate(-201.71986 -118.15668)" fill="#e6e6e6"/><path d="M490.2848,382.84725l-66.19054.83076s-7.42266-.32655-7.42266-4.811,4.149-5.42309-1.28886-8.87774-7.68016-1.2124-6.559-6.818,2.24225-7.45946,2.24225-8.7748-1.12112-6.921-1.12112-12.5266c0-2.71757,8.73077-7.652,6.55872-23.57772-2.64633-19.40319-1.71794-49.0968,16.9849-54.90114l0,0L446.942,239.84725h25.64466l7.98914,23.54366,9.46974,12.41021S508.72533,299.4226,503.1197,311.755,490.2848,382.84725,490.2848,382.84725Z" transform="translate(-201.71986 -118.15668)" fill="#e6e6e6"/><path d="M549.64045,271.15561l-74.84592,21.61076a12.57433,12.57433,0,0,1-15.48745-8.44815l0,0a12.57436,12.57436,0,0,1,9.03541-15.85431l78.43478-20.0648,47.14595-14.20119a10.97293,10.97293,0,1,1,7.82994,11.70535Z" transform="translate(-201.71986 -118.15668)" fill="#a0616a"/><path d="M492.03171,295.24012v0a3.70792,3.70792,0,0,1-4.07408,1.89841,4.81009,4.81009,0,0,0-2.9154.33312,4.42228,4.42228,0,0,0-.50931.27882,7.25477,7.25477,0,0,1-6.667.73777c-3.56272-1.44257-8.18362-1.21094-12.13707-.486-4.3261.7933-8.67423,1.83291-13.06451,1.56755-6.333-.38289-13.02422-3.99817-12.90041-11.89308a14.60355,14.60355,0,0,1,3.564-9.11278c4.53032-5.36626,11.37-7.59624,17.93372-9.667l-2.99913-.44958a55.83478,55.83478,0,0,0,19.70593-10.49775c.19988,1.68714,2.69332,2.12819,4.06345,1.12374,1.3702-1.00448,1.92481-2.7458,2.60321-4.30337.85511-1.96327,2.39064-4.04937,4.9066-3.26874a4.57164,4.57164,0,0,1,2.7022,2.47284,86.39854,86.39854,0,0,1,8.15646,34.40866c.069,2.6451-.08027,5.55207-1.86047,7.50963S492.80271,297.77127,492.03171,295.24012Z" transform="translate(-201.71986 -118.15668)" fill="#e6e6e6"/><circle cx="253.57347" cy="96.01642" r="29.89763" fill="#a0616a"/><path d="M432.191,192.06993c.30768-2.69066,2.15182-6.01618,3.43459-8.4013s3.75985-4.33293,6.46294-4.16671a6.89387,6.89387,0,0,1,5.28143,3.58916,14.45744,14.45744,0,0,1,1.6429,6.38286,33.42935,33.42935,0,0,1-10.87013,26.61786c-2.09541,1.87931-4.61716,3.55181-7.43114,3.61546a9.58523,9.58523,0,0,1-6.78842-3.05324c-4.55482-4.5616-5.24354-12.06086-2.811-18.03055s3.51813-8.29263,9.0788-11.55354" transform="translate(-201.71986 -118.15668)" fill="#2f2e41"/><path d="M474.191,235.06993c-.5,2.66,4.1,15.31,2.63,17.59,0,0-15.22142,5.28688-21.04142,5.66689-7.11.46-12.82857-2.45687-19.4786-6.84689a14.92987,14.92987,0,0,0-2.01-6.76,9.04557,9.04557,0,0,1-.94,4.62c-9.74-7.76-13.3961-29.09915-3.76609-39.00912l10-23c-3,1,6.05613-14.45084,15.60612-3.26084,11.95-12.17,35.09981,5.34987,38.0002,21-2.791-3.53247-4.24463-3.116-4.96045-.67993a13.77536,13.77536,0,0,0-3.79976-5.31008,11.51331,11.51331,0,0,1,1.24,5.31c-18.85,1.17-15.3416,13.8868.1086,32.93685-5.71338-3.55664-1.85791,11.76977-4.90869,15.4331C480.72094,250.19983,474.73094,237.55992,474.191,235.06993Z" transform="translate(-201.71986 -118.15668)" fill="#2f2e41"/><path d="M446.98858,210.57694a1.00011,1.00011,0,0,1-.273-1.96192c.2622-.43261.15478-2.25342.06836-3.72461-.3252-5.52392-.86963-14.769,8.106-21.00976a.99977.99977,0,1,1,1.14161,1.6416c-8.05469,5.60107-7.57129,13.81543-7.251,19.25049.18262,3.10742.31494,5.352-1.56983,5.77929A.99338.99338,0,0,1,446.98858,210.57694Z" transform="translate(-201.71986 -118.15668)" fill="#9ba2b7"/><path d="M447.45464,201.97359a56.40235,56.40235,0,0,1-19.20647,4.25648c-5.2367.22192-11.48451-.94577-13.6133-5.73539-1.29144-2.90565-.60343-6.31149.57791-9.26361s2.83917-5.74133,3.52322-8.8466c1.47365-6.68966-2.00452-13.77908-7.34263-18.07184s-12.22711-6.18709-19.0228-7.04834c5.10568-1.89432,10.2896-3.80662,15.71638-4.261s11.22244.72533,15.27426,4.36389c4.3847,3.93748,6.0695,10.053,6.81535,15.89878s.78442,11.86628,2.766,17.4163,6.53338,10.71868,12.40595,11.21088" transform="translate(-201.71986 -118.15668)" fill="#2f2e41"/><path d="M910.66221,642.61748a14.447,14.447,0,0,0-12.66429-16.03272c-.03538-.00415-.07045-.00583-.10582-.00972l.00031-.00266-.00253.002.01239-.10551-.10817-.0127a14.44581,14.44581,0,1,0-28.80246-1.53588l-3.15483,26.87717.10551.01238.00253-.002,26.98266,3.16721a14.42562,14.42562,0,0,0,17.7347-12.35757Z" transform="translate(-201.71986 -118.15668)" fill="#f2f2f2"/><path d="M313.04119,592.46737a14.447,14.447,0,0,0-14.75639,14.13087c-.00077.03561.0009.07069.00038.10626l-.00268-.00005.00223.00233-.1062-.0023-.00236.10888a14.44581,14.44581,0,1,0,1.20876,28.818l27.05535.58586.0023-.10621-.00223-.00233.58814-27.16154a14.42561,14.42561,0,0,0-13.9873-16.47981Z" transform="translate(-201.71986 -118.15668)" fill="#f2f2f2"/></svg>