<svg xmlns="http://www.w3.org/2000/svg" width="284" height="211" fill="none" viewBox="0 0 284 211"><path fill="#4285F4" d="M279.347 93.9475C279.296 94.2469 279.245 94.5463 279.189 94.8457C277.371 105.041 274.402 114.869 269.988 123.894C269.844 124.193 269.696 124.492 269.546 124.792C266.713 130.482 263.235 135.829 259.179 140.728C256.98 143.372 254.583 145.882 251.733 147.694C247.737 150.234 243.066 151.266 238.475 152.11C233.705 152.99 228.873 153.714 224.052 154.516C222.343 154.794 220.644 155.085 218.957 155.39C214.299 156.229 209.676 157.2 205.163 158.485C199.583 160.089 194.169 162.156 189.074 165.082C188.667 165.314 188.264 165.552 187.865 165.796C187.465 166.037 187.06 166.283 186.672 166.534C186.283 166.785 185.891 167.034 185.505 167.288L184.91 167.689C184.714 167.817 184.521 167.956 184.328 168.084C183.754 168.475 183.188 168.886 182.623 169.282L182.601 169.298C182.228 169.565 181.858 169.832 181.488 170.1C179.399 171.642 177.356 173.257 175.321 174.877L174.036 175.9C173.373 176.424 172.71 176.947 172.047 177.469C171.658 177.777 171.264 178.081 170.872 178.386C170.588 178.608 170.306 178.83 170.017 179.049C168.566 180.164 167.097 181.254 165.598 182.297C165.241 182.545 164.879 182.794 164.525 183.037C161.525 185.083 158.333 186.836 154.995 188.271L154.952 188.29C153.308 188.988 151.616 189.57 149.89 190.03C148.9 190.297 147.911 190.508 146.908 190.674C144.236 191.135 141.509 191.182 138.823 190.813C133.543 190.067 128.596 187.606 123.329 186.782C112.464 185.101 101.912 190.524 91.6877 194.783C89.185 195.827 86.6546 196.807 84.0964 197.723C82.4017 198.332 80.6989 198.912 78.9882 199.463C68.5656 202.824 57.8258 205.114 46.9362 206.298C42.4903 206.782 37.854 207.012 33.3277 206.664C31.6184 206.539 29.9174 206.319 28.2328 206.004C22.5025 204.935 17.1529 202.665 12.8437 198.52C9.26392 195.127 6.73796 190.693 4.81264 186.066C4.03859 184.207 3.35659 182.306 2.76666 180.362C1.8394 177.315 1.14294 174.202 0.683141 171.051C0.578562 170.34 0.48471 169.627 0.414991 168.913C0.275554 167.689 0.171868 166.459 0.103937 165.224C-0.271505 158.661 0.371581 152.079 2.01048 145.711C3.83658 138.657 6.88276 131.902 8.22351 124.781C8.27982 124.482 8.33076 124.182 8.38171 123.883C8.56048 122.814 8.69634 121.725 8.7893 120.616C9.46504 111.908 6.85058 103.383 4.78583 94.8457C4.71343 94.5463 4.64103 94.2469 4.57131 93.9475C4.34785 93.0013 4.13601 92.0541 3.93579 91.1061C2.02389 82.0766 1.501 72.4135 3.19838 63.4027C3.25201 63.1033 3.31369 62.8013 3.37536 62.5046C4.52036 56.9233 6.54221 51.6146 9.63933 46.886C12.8169 42.0317 16.9893 37.9928 21.4379 34.443C23.6099 32.7144 25.8561 31.0972 28.1765 29.5914C29.8444 28.5115 31.5427 27.4895 33.2713 26.5254C47.2393 18.7736 63.1754 14.9859 78.9318 15.8333C79.7667 15.8761 80.5997 15.9331 81.431 16.0044C82.3034 16.0792 83.1731 16.1683 84.0401 16.2717C94.1842 17.4398 104.055 20.3347 113.866 23.5022C117.154 24.5715 120.433 25.6407 123.713 26.7099C125.172 27.1839 126.629 27.6517 128.086 28.1132C135.233 30.3613 142.497 32.3901 149.828 33.9191C151.528 34.2755 153.226 34.6007 154.923 34.8947C160.821 35.948 166.789 36.5609 172.779 36.7284C175.103 36.7855 177.427 36.7614 179.751 36.6563C180.925 36.6028 182.101 36.5244 183.277 36.421C195.427 35.3839 207.142 31.9063 218.906 28.6398C220.606 28.1667 222.309 27.6962 224.001 27.2418C226.237 26.6431 228.476 26.063 230.723 25.5284C244.715 22.1791 257.184 24.1037 270.192 31.0108C273.142 32.5799 276.091 34.4724 277.915 37.402C279.738 40.3317 280.181 43.959 280.519 47.45C280.996 52.4165 281.323 57.4525 281.428 62.5099C281.428 62.8093 281.428 63.1087 281.446 63.4081C281.682 73.6485 281.058 83.9664 279.347 93.9475Z" opacity=".1"/><path fill="#4285F4" d="M186.543 123.894H185.629V124.292V124.792H186.664L186.543 123.894ZM176.179 123.894C176.178 123.901 176.178 123.908 176.179 123.915L176.099 124.658V124.725V124.792H184.036V124.738L184.602 123.894H176.179ZM154.955 123.894V94.8457H164.072C163.976 94.7655 163.876 94.6853 163.774 94.6105L163.64 94.5089C163.584 94.4634 163.528 94.4207 163.469 94.3806C163.41 94.3405 163.27 94.2389 163.166 94.1694C163.061 94.0999 162.997 94.0545 162.898 93.9983L162.836 93.9582H162.822H154.955V92.3678L154.743 92.4694L154.518 92.595H154.502L154.454 92.6244L154.314 92.7153C154.266 92.7447 154.218 92.7741 154.172 92.8062C154.033 92.8997 153.904 93.0013 153.756 93.1055L153.622 93.2125C153.531 93.282 153.445 93.3541 153.354 93.4263C152.998 93.7177 152.646 94.0224 152.282 94.3031C152.19 94.3752 152.099 94.4447 152.013 94.5116C151.818 94.6539 151.616 94.7859 151.407 94.9072C151.321 94.9609 151.231 95.01 151.139 95.0542L150.989 95.1237L150.852 95.1825C150.53 95.3179 150.196 95.4235 149.855 95.4979V123.894H136.179C136.179 123.926 136.198 123.955 136.206 123.987C136.281 124.254 136.356 124.522 136.429 124.789H149.857V155.927H150.067L150.305 155.943L150.74 155.975L151.442 156.045L151.759 156.082L152.107 156.125H152.158C152.359 156.152 152.563 156.184 152.77 156.216L152.901 156.237L153.196 156.286L153.62 156.36L154.636 156.307L154.775 156.336C154.832 156.336 154.888 156.358 154.947 156.371V124.792H176.08V124.725V124.658L176.16 123.915C176.159 123.908 176.159 123.901 176.16 123.894H154.955ZM186.543 123.894H185.629V124.292V124.792H186.664L186.543 123.894ZM175.608 123.894L175.517 124.792H184.347L184.948 123.894H175.608ZM154.96 123.894V94.8457H164.077C163.981 94.7655 163.882 94.6853 163.78 94.6105L163.646 94.5089C163.589 94.4634 163.533 94.4207 163.474 94.3806C163.415 94.3405 163.276 94.2389 163.171 94.1694C163.067 94.0999 163.002 94.0545 162.903 93.9983L162.841 93.9582H162.822H154.955V92.3678L154.743 92.4694L154.518 92.595H154.502L154.454 92.6244L154.314 92.7153C154.266 92.7447 154.218 92.7741 154.172 92.8062C154.033 92.8997 153.904 93.0013 153.756 93.1055L153.622 93.2125C153.531 93.282 153.445 93.3541 153.354 93.4263C152.998 93.7177 152.646 94.0224 152.282 94.3031C152.19 94.3752 152.099 94.4447 152.013 94.5116C151.818 94.6539 151.616 94.7859 151.407 94.9072C151.321 94.9609 151.231 95.01 151.139 95.0542L150.989 95.1237L150.852 95.1825C150.53 95.3179 150.196 95.4235 149.855 95.4979V123.894H136.179C136.179 123.926 136.198 123.955 136.206 123.987C136.281 124.254 136.359 124.522 136.431 124.789H149.857V155.925L150.067 155.938L150.305 155.954L150.74 155.986L151.442 156.056L151.759 156.093L152.107 156.136H152.158C152.359 156.163 152.563 156.195 152.77 156.227L152.901 156.248L153.196 156.296L153.62 156.371L154.636 156.318L154.775 156.347C154.832 156.347 154.888 156.368 154.947 156.382V124.792H175.517L175.613 123.894H154.96ZM224.052 63.4027H281.497C281.497 63.1033 281.497 62.804 281.479 62.5046H224.052V27.2365C222.346 27.6909 220.644 28.1614 218.957 28.6345V62.5046H156.478L156.32 62.3335L156.559 62.0662L179.796 36.6429C177.472 36.7498 175.148 36.7739 172.824 36.7151L154.955 56.255V34.8894C153.25 34.5954 151.551 34.2701 149.86 33.9137V55.2713L123.734 26.7045C120.455 25.6353 117.175 24.5474 113.888 23.4969L149.399 62.3335L149.241 62.5046H84.0616V16.261C83.1928 16.163 82.3231 16.0739 81.4525 15.9937C80.6213 15.9206 79.7882 15.8636 78.9534 15.8226V62.5046H33.2929V26.5255C31.5606 27.4877 29.8624 28.5097 28.198 29.5914V62.5046H3.36472C3.30305 62.8013 3.24137 63.1033 3.18774 63.4027H28.1766V93.9475H4.5714C4.64112 94.2469 4.71352 94.5463 4.78592 94.8457H28.1873V123.894H8.37376C8.32281 124.193 8.27186 124.492 8.21555 124.792H28.1873V206.012C29.8719 206.327 31.5729 206.547 33.2822 206.672V124.792H78.9534V199.471C80.666 198.917 82.3687 198.337 84.0616 197.731V124.792H149.849V190.041C151.576 189.581 153.268 188.999 154.912 188.301L154.955 188.282V124.792H218.941V155.39C220.637 155.085 222.336 154.794 224.036 154.516V124.792H269.533C269.683 124.492 269.83 124.193 269.975 123.894H224.052V94.8457H279.191C279.248 94.5463 279.299 94.2469 279.35 93.9475H224.052V63.4027ZM33.2956 63.4027H78.9534V93.9475H33.2929L33.2956 63.4027ZM33.2956 123.894V94.8457H78.9534V123.894H33.2956ZM84.0643 63.4027H149.849V93.9475H84.0616L84.0643 63.4027ZM84.0643 123.894V94.8457H149.849V123.894H84.0643ZM218.944 123.894H154.955V94.8457H218.941L218.944 123.894ZM218.944 93.9556H154.955V64.2207L155.853 63.4027H218.941L218.944 93.9556ZM176.182 123.894C176.18 123.901 176.18 123.908 176.182 123.915L176.101 124.658V124.725V124.792H184.039V124.738L184.604 123.894H176.182ZM186.546 123.894H185.631V124.292V124.792H186.666L186.546 123.894ZM154.958 123.894V94.8457H164.075C163.978 94.7655 163.879 94.6853 163.777 94.6105L163.643 94.5089C163.587 94.4634 163.53 94.4207 163.471 94.3806C163.412 94.3405 163.273 94.2389 163.168 94.1694C163.064 94.0999 162.999 94.0545 162.9 93.9983L162.839 93.9582H162.825H154.955V92.3678L154.743 92.4694L154.518 92.595H154.502L154.454 92.6244L154.314 92.7153C154.266 92.7447 154.218 92.7741 154.172 92.8062C154.033 92.8997 153.904 93.0013 153.756 93.1055L153.622 93.2125C153.531 93.282 153.445 93.3541 153.354 93.4263C152.998 93.7177 152.646 94.0224 152.282 94.3031C152.19 94.3752 152.099 94.4447 152.013 94.5116C151.818 94.6539 151.616 94.7859 151.407 94.9072C151.321 94.9609 151.231 95.01 151.139 95.0542L150.989 95.1237L150.852 95.1825C150.53 95.3179 150.196 95.4235 149.855 95.4979V123.894H136.179C136.179 123.926 136.198 123.955 136.206 123.987C136.281 124.254 136.356 124.522 136.429 124.789H149.857V155.927H150.067L150.305 155.943L150.74 155.975L151.442 156.045L151.759 156.082L152.107 156.125H152.158C152.359 156.152 152.563 156.184 152.77 156.216L152.901 156.237L153.196 156.286L153.62 156.36L154.636 156.307L154.775 156.336C154.832 156.336 154.888 156.358 154.947 156.371V124.792H176.08V124.725V124.658L176.16 123.915C176.159 123.908 176.159 123.901 176.16 123.894H154.958Z" opacity=".1"/><path fill="#4285F4" d="M55.2462 42.3712H55.6538C55.5143 42.2908 55.397 42.1771 55.3123 42.0405C55.2277 41.9038 55.1782 41.7484 55.1685 41.588V41.588C55.1685 40.9679 55.93 40.4627 56.8605 40.4627H68.6993C69.6298 40.4627 70.3913 40.9679 70.3913 41.588C70.3913 42.2055 69.6298 42.7134 68.6993 42.7134H68.3051C68.4439 42.7943 68.5606 42.9082 68.6448 43.0448C68.7289 43.1814 68.7781 43.3365 68.7878 43.4966C68.7878 44.0312 68.2354 44.4696 67.4953 44.5899H70.9035C71.8313 44.5899 72.5928 45.0951 72.5928 45.7152C72.5928 46.3353 71.8313 46.8379 70.9035 46.8379H59.0513C58.1235 46.8379 57.3619 46.3327 57.3619 45.7152C57.3619 45.1806 57.9143 44.7422 58.6544 44.6219H55.2462C54.3184 44.6219 53.5569 44.1167 53.5569 43.4966C53.5569 42.8764 54.3131 42.3712 55.2462 42.3712Z" opacity=".1"/><path fill="#4285F4" d="M183.561 53.0821H183.958C183.818 53.0012 183.701 52.8871 183.616 52.75C183.532 52.6129 183.482 52.457 183.473 52.2962V52.2962C183.473 51.6788 184.234 51.1736 185.165 51.1736H197.004C197.934 51.1736 198.696 51.6788 198.696 52.2962C198.696 52.9164 197.934 53.4216 197.004 53.4216H196.609C196.748 53.503 196.865 53.6173 196.949 53.7543C197.033 53.8914 197.082 54.047 197.092 54.2075C197.092 54.7421 196.54 55.1778 195.8 55.2981H199.208C200.135 55.2981 200.897 55.8059 200.897 56.4234C200.897 57.0409 200.135 57.5488 199.208 57.5488H187.372C186.444 57.5488 185.682 57.0435 185.682 56.4234C185.682 55.8888 186.235 55.4504 186.975 55.3328H183.561C182.633 55.3328 181.872 54.8249 181.872 54.2075C181.872 53.59 182.639 53.0821 183.561 53.0821Z" opacity=".1"/><path fill="#4285F4" d="M37.0844 98.9167H37.4812C37.3422 98.8353 37.2254 98.721 37.1413 98.584C37.0571 98.4469 37.0081 98.2913 36.9986 98.1308V98.1308C36.9986 97.5134 37.7574 97.0055 38.6879 97.0055H50.5267C51.4572 97.0055 52.2187 97.5134 52.2187 98.1308C52.2187 98.751 51.4572 99.2562 50.5267 99.2562H50.1325C50.2715 99.3376 50.3883 99.4519 50.4725 99.5889C50.5567 99.726 50.6057 99.8816 50.6152 100.042C50.6152 100.577 50.0628 101.012 49.3227 101.133H52.7309C53.6614 101.133 54.4202 101.638 54.4202 102.258C54.4202 102.878 53.6614 103.383 52.7309 103.383H40.8894C39.9616 103.383 39.2001 102.875 39.2001 102.258C39.2001 101.723 39.7551 101.285 40.4925 101.165H37.0844C36.1566 101.165 35.395 100.66 35.395 100.042C35.395 99.4246 36.1566 98.9167 37.0844 98.9167Z" opacity=".1"/><path fill="#65617D" d="M174.004 175.911C173.341 176.435 172.678 176.958 172.014 177.48C171.626 177.787 171.231 178.092 170.84 178.397C170.556 178.619 170.274 178.841 169.985 179.06C168.534 180.174 167.064 181.265 165.565 182.308C165.209 182.556 164.847 182.805 164.493 183.048C161.492 185.094 158.301 186.847 154.963 188.282L154.92 188.301V175.911H174.004Z"/><path fill="url(#paint0_linear)" d="M203.844 127.219L204.144 117.984C203.965 117.845 203.782 117.716 203.608 117.588C203.682 114.834 203.524 112.08 203.136 109.352C201.924 100.117 194.054 99.9164 191.834 101.822C191.539 102.075 191.218 102.296 190.876 102.48C191.077 101.162 191.327 99.8416 191.506 98.5372C192.477 91.5017 190.97 83.5869 185.495 79.04C183.202 77.1395 180.4 75.9714 177.882 74.3809C173.371 71.5448 169.808 67.3561 165.247 64.5949C160.685 61.8336 154.279 60.7992 150.3 64.349C148.758 65.7229 147.763 67.6288 146.181 68.9546C143.231 71.4245 138.633 71.5876 136.058 74.3462C135.93 74.4851 135.806 74.6268 135.688 74.7765C133.543 77.519 134.13 81.4083 134.814 84.8111C135.637 88.9062 135.297 92.1887 138.82 93.3648C138.834 93.5279 138.845 93.6909 138.863 93.8513C139.15 96.3635 139.984 98.7828 141.307 100.94C142.63 103.097 144.409 104.94 146.522 106.34L145.951 106.543C144.427 107.078 143.057 107.596 142.18 107.952C138.963 109.259 132.189 110.961 132.189 110.961C132.189 110.961 132.028 112.886 132.058 115.725C129.8 118.171 126.032 122.469 124.925 125.016C123.316 128.732 114.226 139.373 111.804 140.98C109.383 142.586 106.758 144.492 106.758 144.492C106.758 144.492 102.923 146.601 101.108 146.802C99.8502 146.941 95.9594 146.197 95.9594 146.197C95.9594 146.197 80.4201 127.219 81.4284 141.782C82.4366 156.344 94.8493 156.839 94.8493 156.839L107.364 156.638C107.364 156.638 114.127 157.542 117.154 155.035C119.739 152.896 133.136 141.164 137.439 135.842C137.539 135.952 137.638 136.059 137.742 136.163C137.742 136.163 139.456 133.955 139.66 136.163C139.864 138.371 138.547 139.371 139.255 140.172C139.963 140.974 142.081 143.786 142.18 144.89C142.28 145.994 139.357 150.504 144.299 153.925C144.376 153.979 144.46 154.029 144.551 154.08C145.433 156.082 148.238 158.042 148.238 158.042L163.375 157.841L191.935 160.049C191.935 160.049 192.785 159.303 193.936 158.084C195.472 159.49 197.604 160.696 200.007 159.956C200.007 159.956 203.439 155.842 203.541 153.131C203.541 153.131 201.321 147.408 200.323 145.703C199.326 143.998 201.031 140.282 201.031 140.282C201.031 140.282 202.24 136.668 202.948 136.668C203.656 136.668 203.149 134.262 203.149 134.262C202.882 133.869 202.714 133.417 202.662 132.944C202.609 132.472 202.672 131.994 202.846 131.552C203.439 130.031 203.844 127.219 203.844 127.219Z"/><path fill="#EE8E9E" d="M186.723 125.139L185.65 126.39L181.317 131.421L175.656 131.763L166.595 132.319C166.595 132.319 154.378 117.644 156.674 114.45C157.508 113.298 157.644 111.777 157.478 110.341C157.457 110.143 157.427 109.946 157.392 109.751C157.118 108.232 156.638 106.757 155.966 105.367L156.266 105.23L156.459 105.142L167.142 100.283L169.786 99.0798C169.918 99.8062 170.162 100.508 170.51 101.159C170.561 101.261 170.618 101.363 170.676 101.459C174.321 107.473 186.007 103.669 186.007 103.669L186.723 125.139Z"/><path fill="#EE8E9E" d="M202.519 117.631C202.439 121.271 201.844 122.843 201.844 122.843L186.723 125.139L186.157 121.226L183.918 105.773L186.02 103.677C186.86 103.858 187.73 103.844 188.564 103.636C189.397 103.429 190.172 103.033 190.828 102.48C193.029 100.582 200.841 100.783 202.042 109.964C202.395 112.504 202.554 115.067 202.519 117.631V117.631Z"/><path fill="#DFE5EE" d="M198.94 160.274C198.94 160.274 202.342 156.181 202.444 153.487L199.039 147.796L196.035 144.588L190.426 155.382C190.426 155.382 194.132 161.771 198.94 160.274Z"/><path fill="#000" d="M198.94 160.274C198.94 160.274 202.342 156.181 202.444 153.487L199.039 147.796L196.035 144.588L190.426 155.382C190.426 155.382 194.132 161.771 198.94 160.274Z" opacity=".1"/><path fill="#D48A9B" d="M170.84 178.397C170.556 178.619 170.274 178.841 169.985 179.06C168.534 180.174 167.065 181.265 165.566 182.308C165.209 182.556 164.847 182.805 164.493 183.048H149.849H84.0616H78.9533L53.6454 182.145L33.2928 181.973L28.198 181.706L2.77744 180.37C1.84616 177.32 1.1461 174.205 0.683189 171.051C0.57861 170.34 0.484758 169.627 0.415039 168.913L28.1873 170.447L33.2821 170.733L78.9426 173.273L84.0509 173.556L149.839 177.218L154.901 177.501H154.944L170.84 178.397Z"/><path fill="#EFC6CD" d="M205.147 158.485C199.567 160.089 194.153 162.156 189.058 165.083C188.653 165.315 188.254 165.553 187.849 165.796C187.444 166.039 187.044 166.283 186.656 166.534C186.267 166.785 185.875 167.034 185.489 167.288L184.894 167.689L184.312 168.084C183.738 168.477 183.172 168.886 182.607 169.282L182.585 169.298C182.212 169.565 181.842 169.833 181.472 170.1C179.383 171.642 177.34 173.257 175.305 174.877C174.876 175.219 174.446 175.56 174.015 175.9L172.031 177.469C171.642 177.777 171.248 178.082 170.856 178.386C170.572 178.608 170.29 178.83 170.001 179.049L154.984 178.335H154.942L149.879 178.1L84.0616 174.991L78.9534 174.748L33.2929 172.586L28.198 172.342L0.683208 171.051C0.578629 170.34 0.484777 169.627 0.415058 168.913C0.275621 167.689 0.171935 166.459 0.104004 165.224L28.1953 155.334L33.2902 153.535L37.9184 151.904L46.3517 152.343L65.8435 153.34L78.9614 154.027L84.0697 154.294L87.333 154.465L88.1133 154.508L115.577 155.938L115.867 155.957L128.121 156.593H128.261H128.341L129.567 156.654L133.744 156.874L138.968 157.141L140.689 157.232L141.014 157.25L143.449 157.376L144.143 157.411L146.468 157.534L147.393 157.585H147.423H147.616L149.79 157.7L153.158 157.876H153.174L154.22 157.929H154.333L154.958 157.964L156.491 158.044L157.832 158.114H157.846L159.35 158.191H159.374L160.514 158.253L161.388 158.298L164.49 158.461L165.048 158.491H165.241L165.509 158.507L166.418 158.555L166.826 158.576L169.99 158.739H170.28L174.951 158.699H174.983L192.743 158.555H193.083H193.442H194.499L200.216 158.51H201.069L205.147 158.485Z"/><path fill="#4285F4" d="M85.2869 158.852L86.9387 167.611L131.848 166.938C131.848 166.938 135.227 167.911 135.152 165.216C135.152 165.216 141.987 158.777 176.608 166.264L163.316 155.858L126.982 157.804L84.8499 156.681L85.2869 158.852Z"/><path fill="#fff" d="M86.1128 156.756L87.6895 166.264C87.6895 166.264 126.303 165.141 132.374 166.189L127.786 157.504C127.786 157.504 104.438 155.334 86.1128 156.756Z"/><path fill="#000" d="M86.1128 156.756L87.6895 166.264C87.6895 166.264 126.303 165.141 132.374 166.189L127.786 157.504C127.786 157.504 104.438 155.334 86.1128 156.756Z" opacity=".1"/><path fill="#fff" d="M86.6895 156.721L88.2447 165.564C88.2447 165.564 126.368 164.521 132.374 165.494L127.85 157.419C127.85 157.419 104.784 155.398 86.6895 156.721Z"/><path fill="#000" d="M87.3894 156.994L88.9044 165.264C88.9044 165.264 126.191 164.289 132.077 165.2L127.652 157.643C127.652 157.643 105.09 155.746 87.3894 156.994Z" opacity=".1"/><path fill="#fff" d="M87.6897 156.692L89.2128 164.978C89.2128 164.978 126.499 164.003 132.385 164.914L127.95 157.349C127.95 157.349 105.39 155.454 87.6897 156.692Z"/><path fill="#4285F4" d="M61.3091 134.204C61.3091 134.204 63.2612 136.746 60.4108 140.587C57.5604 144.428 55.206 147.668 56.1579 150.063C56.1579 150.063 60.4483 142.931 63.9611 142.845C67.4738 142.76 65.1624 138.491 61.3091 134.204Z"/><path fill="#000" d="M61.309 134.204C61.4805 134.45 61.6151 134.72 61.7085 135.005C65.1247 139.015 66.9455 142.757 63.6606 142.837C60.601 142.923 56.9328 148.376 56.0532 149.755C56.0836 149.859 56.1185 149.963 56.1578 150.068C56.1578 150.068 60.4482 142.936 63.961 142.851C67.4737 142.765 65.1623 138.491 61.309 134.204Z" opacity=".1"/><path fill="#FFD037" d="M64.9371 137.446C64.9371 138.339 64.8352 139.066 64.7118 139.066C64.5885 139.066 64.4866 138.339 64.4866 137.446C64.4866 136.553 64.6126 136.97 64.7359 136.97C64.8593 136.97 64.9371 136.55 64.9371 137.446Z"/><path fill="#FFD037" d="M66.1814 138.513C65.393 138.943 64.7066 139.202 64.6476 139.093C64.5886 138.983 65.1839 138.558 65.9669 138.12C66.7499 137.681 66.4442 138.002 66.5032 138.12C66.5622 138.237 66.9698 138.085 66.1814 138.513Z"/><path fill="#4285F4" d="M51.0041 134.204C51.0041 134.204 49.052 136.746 51.9051 140.587C54.7582 144.428 57.1072 147.668 56.1579 150.063C56.1579 150.063 51.8541 142.931 48.3521 142.845C44.8501 142.76 47.1508 138.491 51.0041 134.204Z"/><path fill="#000" d="M51.0041 134.204C50.834 134.451 50.6995 134.721 50.6046 135.005C47.1883 139.015 45.3676 142.757 48.6524 142.837C51.712 142.923 55.383 148.376 56.2625 149.755C56.2339 149.859 56.1991 149.963 56.1579 150.068C56.1579 150.068 51.8541 142.936 48.3521 142.851C44.8501 142.765 47.1508 138.491 51.0041 134.204Z" opacity=".1"/><path fill="#FFD037" d="M47.376 137.446C47.376 138.339 47.4779 139.066 47.6012 139.066C47.7246 139.066 47.8265 138.339 47.8265 137.446C47.8265 136.553 47.7004 136.97 47.5771 136.97C47.4537 136.97 47.376 136.55 47.376 137.446Z"/><path fill="#FFD037" d="M46.1318 138.513C46.9201 138.943 47.6093 139.202 47.6683 139.093C47.7273 138.983 47.132 138.558 46.349 138.12C45.566 137.681 45.8717 138.002 45.8127 138.12C45.7537 138.237 45.3434 138.085 46.1318 138.513Z"/><path fill="#65617D" d="M66.648 146.633L66.5515 147.435L66.4147 148.555L66.3584 149.023L66.2217 150.146L66.1627 150.613L66.0232 151.736L64.4626 164.492C64.3232 165.63 62.4569 166.518 60.2044 166.518H52.1009C49.8485 166.518 47.9848 165.63 47.8454 164.492L46.2821 151.736L46.1453 150.613L46.089 150.146L45.9496 149.023L45.8933 148.555L45.7565 147.435L45.6573 146.633C45.5795 145.989 46.5878 145.446 47.8642 145.446H64.4519C65.7256 145.446 66.7365 145.989 66.648 146.633Z"/><path fill="#9D9CB5" d="M66.5594 147.427L66.4226 148.55H45.8931L45.7563 147.427H66.5594Z"/><path fill="#9D9CB5" d="M66.3664 149.018L66.2296 150.14H46.0889L45.9495 149.018H66.3664Z"/><path fill="#9D9CB5" d="M66.1707 150.608L66.0339 151.728H46.282L46.1453 150.608H66.1707Z"/><path fill="#EE8E9E" d="M91.3953 145.601C91.3953 145.601 86.1879 140.611 86.389 147.098C86.5901 153.586 91.3953 145.601 91.3953 145.601Z"/><path fill="#EE8E9E" d="M138.158 134.222C138.043 134.725 137.482 135.559 136.608 136.604C132.092 142.025 119.245 153.292 116.727 155.382C113.724 157.879 107.015 156.986 107.015 156.986L94.5997 157.186C94.5997 157.186 82.2836 156.686 81.2808 142.217C80.2779 127.748 95.6992 146.609 95.6992 146.609C95.6992 146.609 99.5605 147.347 100.807 147.208C102.609 147.01 106.414 144.914 106.414 144.914C106.414 144.914 109.018 143.017 111.421 141.421C113.823 139.825 122.836 129.242 124.439 125.548C125.456 123.204 128.73 119.371 130.99 116.885C132.288 115.455 133.251 114.479 133.251 114.479C133.251 114.479 138.858 131.127 138.158 134.222Z"/><path fill="#000" d="M138.158 134.222C138.043 134.725 137.482 135.559 136.608 136.604C132.05 131.977 131.098 122.744 130.99 116.874C132.288 115.444 133.251 114.468 133.251 114.468C133.251 114.468 138.858 131.127 138.158 134.222Z" opacity=".1"/><path fill="#000" d="M185.647 126.39L181.317 131.421L175.656 131.763L166.595 132.319C166.595 132.319 154.378 117.644 156.674 114.45C157.508 113.298 157.644 111.777 157.478 110.341C157.457 110.144 157.427 109.946 157.392 109.751C157.118 108.232 156.638 106.757 155.966 105.367L156.266 105.23L156.459 105.142C156.936 106.466 157.265 107.839 157.441 109.235C157.47 109.424 157.497 109.622 157.524 109.825C157.618 110.547 157.703 111.349 157.792 112.231C158.489 120.309 163.587 123.348 165.887 124.316C166.627 124.627 167.35 124.976 168.054 125.361C170.267 126.578 172.82 127.038 175.321 126.671C181 125.928 185.631 121.814 185.631 121.814L185.655 125.864L185.647 126.39Z" opacity=".1"/><path fill="#DFE5EE" d="M185.821 157.78C185.821 157.78 148.573 157.678 143.663 154.286C138.753 150.894 141.663 146.401 141.561 145.302C141.459 144.203 139.359 141.41 138.659 140.608C137.959 139.806 139.26 138.812 139.059 136.617C138.858 134.423 137.158 136.617 137.158 136.617C130.146 129.528 131.647 111.563 131.647 111.563C131.647 111.563 138.351 109.868 141.569 108.566C142.44 108.214 143.797 107.711 145.323 107.168L145.889 106.965C149.822 105.562 154.499 103.977 154.499 103.977C154.499 103.977 155.397 103.343 156.301 105.238C156.714 106.11 157.129 107.513 157.462 109.756C157.491 109.946 157.518 110.144 157.545 110.347C157.639 111.068 157.725 111.87 157.813 112.752C158.51 120.83 163.608 123.87 165.909 124.837C166.648 125.148 167.372 125.497 168.075 125.882C170.289 127.099 172.841 127.559 175.342 127.192C181.022 126.449 185.653 122.335 185.653 122.335L185.677 126.385L185.746 138.553L185.821 157.78Z"/><path fill="#EE8E9E" d="M184.218 142.009L183.617 145.802C183.617 145.802 168.797 149.493 162.991 150.592C157.186 151.691 144.666 150.293 143.765 152.688C142.864 155.083 147.57 158.379 147.57 158.379L162.586 158.178L190.924 160.375C190.924 160.375 201.739 150.891 198.234 144.302C194.729 137.713 184.218 142.009 184.218 142.009Z"/><path fill="#000" d="M153.679 112.063C153.679 112.063 146.868 117.652 148.171 120.349C149.474 123.046 153.679 112.063 153.679 112.063Z" opacity=".1"/><path fill="#000" d="M145.267 122.143C145.267 122.143 138.356 134.022 138.759 134.92C139.161 135.818 141.062 139.012 140.96 136.617C140.858 134.222 145.267 122.143 145.267 122.143Z" opacity=".1"/><path fill="#000" d="M148.071 124.241C148.071 124.241 146.463 131.627 144.867 134.722C143.272 137.817 148.071 124.241 148.071 124.241Z" opacity=".1"/><path fill="#000" d="M170.69 101.467C169.366 103.887 167.48 105.956 165.189 107.501C162.898 109.046 160.27 110.022 157.524 110.347H157.492C153.172 110.852 148.819 109.717 145.302 107.166C149.324 105.717 154.478 103.974 154.478 103.974C154.478 103.974 155.376 103.341 156.28 105.236L169.8 99.0878C169.952 99.9274 170.253 100.733 170.69 101.467V101.467Z" opacity=".1"/><path fill="#EE8E9E" d="M172.803 92.5977C172.808 95.6038 172.022 98.5586 170.524 101.167C169.808 102.411 168.941 103.562 167.941 104.594C165.154 107.487 161.439 109.318 157.441 109.769H157.406C156.767 109.842 156.124 109.879 155.48 109.879C151.224 109.879 147.117 108.317 143.942 105.491C140.767 102.665 138.748 98.7728 138.268 94.557C138.193 93.9101 138.157 93.2595 138.158 92.6083C138.158 88.0286 139.983 83.6365 143.232 80.3981C146.48 77.1598 150.886 75.3405 155.48 75.3405C160.075 75.3405 164.481 77.1598 167.729 80.3981C170.978 83.6365 172.803 88.0286 172.803 92.6083V92.5977Z"/><path fill="#000" d="M184.02 125.273L185.629 122.867C185.629 122.867 194.44 112.386 203.058 119.074L202.758 128.259C202.758 128.259 202.356 131.052 201.755 132.536C201.583 132.976 201.52 133.451 201.572 133.921C201.624 134.391 201.79 134.841 202.055 135.233C202.055 135.233 202.557 137.638 201.857 137.638C201.157 137.638 199.953 141.231 199.953 141.231C199.953 141.231 198.25 144.925 199.253 146.622C200.256 148.32 202.458 154.008 202.458 154.008C202.458 154.008 198.953 151.912 197.95 148.419C197.95 148.419 189.439 141.83 182.829 146.013L184.02 125.273Z" opacity=".1"/><path fill="#000" d="M202.519 117.631C202.439 121.271 201.843 122.843 201.843 122.843L186.723 125.139L186.157 121.226C188.136 119.168 195.333 112.624 202.519 117.631Z" opacity=".1"/><path fill="#DFE5EE" d="M184.02 124.738L185.629 122.333C185.629 122.333 194.44 111.852 203.058 118.54L202.758 127.724C202.758 127.724 202.356 130.517 201.755 132.001C201.583 132.441 201.52 132.917 201.572 133.386C201.624 133.856 201.79 134.306 202.055 134.698C202.055 134.698 202.557 137.104 201.857 137.104C201.157 137.104 199.953 140.696 199.953 140.696C199.953 140.696 198.25 144.39 199.253 146.088C200.256 147.785 202.458 153.473 202.458 153.473C202.458 153.473 198.953 151.378 197.95 147.884C197.95 147.884 189.439 141.295 182.829 145.478L184.02 124.738Z"/><path fill="#000" d="M198.237 117.951C198.237 117.951 183.719 126.837 184.419 134.629C184.419 134.629 192.531 120.346 198.237 117.951Z" opacity=".1"/><path fill="#000" d="M185.645 126.393L185.714 138.561C182.968 138.684 180.381 138.328 178.335 136.556C176.911 135.321 176.082 133.615 175.653 131.771C175.334 130.285 175.217 128.763 175.305 127.246C175.303 127.23 175.303 127.215 175.305 127.2C175.474 123.84 176.249 120.48 175.841 117.142C175.433 113.803 173.404 110.28 170.089 109.577C169.435 109.435 168.7 109.384 168.234 108.906C167.719 108.371 167.743 107.54 167.799 106.8L167.896 105.551C167.92 105.23 167.931 104.912 167.931 104.594C167.929 101.756 166.938 99.007 165.129 96.8161C163.319 94.6251 160.803 93.1284 158.009 92.5816L157.902 92.5629C156.969 92.3758 155.998 92.1914 155.065 92.4052C153.29 92.8142 152.142 94.5303 150.506 95.3455C147.369 96.9066 142.137 95.1985 138.852 94.6612C138.638 94.6265 138.434 94.5864 138.238 94.541C138.164 93.8941 138.127 93.2434 138.128 92.5923C138.13 89.9475 138.74 87.3383 139.913 84.966C141.086 82.5936 142.79 80.5216 144.894 78.9098C146.997 77.2979 149.444 76.1892 152.046 75.6693C154.647 75.1494 157.334 75.2321 159.898 75.9111C162.462 76.59 164.836 77.8471 166.835 79.5853C168.835 81.3235 170.408 83.4964 171.432 85.9364C172.455 88.3763 172.903 91.0181 172.741 93.658C172.578 96.2979 171.81 98.8652 170.494 101.162C170.545 101.264 170.601 101.365 170.66 101.461C174.305 107.476 185.99 103.672 185.99 103.672L186.693 125.134L185.645 126.393Z" opacity=".1"/><path fill="#603556" d="M151.136 95.0488C152.761 94.2309 153.909 92.5148 155.695 92.1085C156.625 91.8947 157.596 92.0791 158.535 92.2635L158.642 92.2849C161.595 92.8675 164.232 94.5098 166.052 96.9006C167.872 99.2914 168.75 102.265 168.518 105.257L168.421 106.505C168.362 107.243 168.338 108.08 168.858 108.609C169.322 109.088 170.057 109.144 170.711 109.277C174.026 109.983 176.056 113.487 176.463 116.845C176.871 120.202 176.082 123.573 175.927 126.946C175.771 130.32 176.393 134.043 178.952 136.259C182.974 139.734 189.088 137.756 194.41 137.438C192.056 137.438 190.292 135.016 190.163 132.675C190.034 130.333 191.08 128.104 192.08 125.992C193.08 123.88 194.083 121.608 193.861 119.272C193.555 116.064 191.018 113.496 190.048 110.408C188.916 106.816 190.007 102.958 190.519 99.2241C191.482 92.2315 189.983 84.3594 184.553 79.8392C182.279 77.9494 179.499 76.7866 176.999 75.2042C172.521 72.3734 168.99 68.2222 164.463 65.469C159.937 62.7157 153.582 61.6947 149.632 65.2231C148.104 66.589 147.117 68.4842 145.545 69.802C142.475 72.3815 137.595 72.4296 135.133 75.5945C133.015 78.3183 133.589 82.1862 134.267 85.5676C135.171 90.077 134.661 93.5867 139.496 94.3886C142.767 94.9045 147.996 96.6126 151.136 95.0488Z"/><path fill="#000" d="M190.973 135.283C187.098 135.757 183.258 136 180.437 133.562C177.879 131.346 177.249 127.625 177.413 124.249C177.576 120.873 178.359 117.5 177.949 114.145C177.539 110.79 175.511 107.286 172.197 106.58C171.543 106.441 170.811 106.391 170.344 105.912C169.827 105.377 169.848 104.543 169.907 103.806L170.004 102.557C170.235 99.5653 169.358 96.5924 167.538 94.202C165.718 91.8116 163.081 90.1698 160.128 89.5878L160.02 89.5664C159.082 89.382 158.111 89.1976 157.181 89.4114C155.406 89.8204 154.258 91.5498 152.622 92.3517C149.482 93.9155 144.256 92.2074 140.966 91.6701C136.139 90.8816 136.643 87.3665 135.737 82.8491C135.23 80.3257 134.782 77.5297 135.469 75.14C135.34 75.2764 135.217 75.4073 135.099 75.5704C132.98 78.2942 133.554 82.1621 134.232 85.5435C135.136 90.0529 134.627 93.5626 139.461 94.3645C142.749 94.8992 147.978 96.6099 151.118 95.0462C152.743 94.2282 153.89 92.5121 155.676 92.1058C156.607 91.892 157.578 92.0764 158.516 92.2609L158.623 92.2822C161.577 92.8648 164.214 94.5071 166.034 96.8979C167.854 99.2888 168.731 102.262 168.499 105.255L168.403 106.503C168.344 107.241 168.32 108.077 168.84 108.607C169.304 109.085 170.038 109.141 170.693 109.275C174.007 109.98 176.037 113.485 176.445 116.842C176.852 120.199 176.066 123.57 175.908 126.944C175.75 130.317 176.375 134.04 178.933 136.256C182.955 139.731 189.069 137.753 194.392 137.435C192.946 137.443 191.732 136.529 190.973 135.283Z" opacity=".1"/><path fill="#5C5C8E" d="M82.1469 144.201L98.6784 138.053C99.0692 137.907 99.5019 137.922 99.8815 138.095C100.261 138.267 100.557 138.583 100.703 138.972V138.972C100.849 139.362 100.834 139.793 100.661 140.172C100.488 140.55 100.171 140.845 99.7805 140.99L83.249 147.138L79.7041 146.786L82.1469 144.201Z"/><path fill="#fff" d="M100.204 138.47C100.35 138.86 100.334 139.291 100.161 139.67C99.9873 140.048 99.6701 140.343 99.279 140.488L82.7369 146.657L80.0768 146.39L79.6934 146.796L83.2383 147.149L99.7697 141.001C100.16 140.855 100.477 140.561 100.65 140.182C100.823 139.804 100.838 139.373 100.692 138.983V138.983C100.57 138.658 100.344 138.383 100.049 138.2C100.108 138.285 100.16 138.375 100.204 138.47V138.47Z" opacity=".1"/><path fill="#EFC8C4" d="M82.1496 144.201L83.249 147.138L80.3423 146.847L79.7068 146.783L80.5756 145.863L82.1496 144.201Z"/><path fill="#727A9C" d="M80.5729 145.855C80.6408 145.906 80.699 145.968 80.7445 146.04C80.7717 146.083 80.7861 146.132 80.7861 146.183C80.7861 146.233 80.7717 146.283 80.7445 146.326C80.6988 146.373 80.6453 146.412 80.5863 146.441C80.5199 146.485 80.4643 146.543 80.4234 146.612C80.3826 146.68 80.3576 146.757 80.3504 146.836L79.7122 146.775L80.5729 145.855Z"/><path fill="#fff" d="M134.053 162.963C134.053 162.963 148.372 159.966 172.398 163.765L162.986 156.879L145.862 153.385L133.747 156.593L134.053 162.963Z"/><path fill="#000" d="M134.053 162.963C134.053 162.963 148.372 159.966 172.398 163.765L162.986 156.879L145.862 153.385L133.747 156.593L134.053 162.963Z" opacity=".1"/><path fill="#fff" d="M132.374 166.202C132.374 166.202 139.584 146.759 176.619 166.264L163.326 157.737C163.326 157.737 131.484 148.967 127.805 159.074L132.374 166.202Z"/><path fill="#000" d="M132.374 166.189C132.374 166.189 139.584 145.401 176.619 166.563L163.326 157.315C163.326 157.315 131.473 146.826 127.786 157.804L132.374 166.189Z" opacity=".1"/><path fill="#fff" d="M132.374 166.197C132.374 166.197 139.584 145.102 176.619 166.264L163.326 157.015C163.326 157.015 131.484 146.826 127.805 157.817L132.374 166.197Z"/><path fill="#000" d="M132.374 166.203C132.374 166.203 139.584 142.757 176.619 166.563L163.316 156.157C163.316 156.157 131.473 145.465 127.794 157.804L132.374 166.203Z" opacity=".1"/><path fill="#fff" d="M132.374 166.189C132.374 166.189 139.584 142.458 176.619 166.264L163.316 155.858C163.316 155.858 131.473 145.166 127.794 157.504L132.374 166.189Z"/><path fill="#4285F4" d="M243.479 163.954C243.479 163.954 234.59 173.446 242.592 178.057C242.592 178.057 243.637 179.314 245.131 178.656C245.131 178.656 244.627 178.21 245.638 177.349C245.995 177.04 246.315 176.69 246.59 176.307C246.963 175.789 247.156 175.164 247.142 174.526V174.526C247.142 174.526 248.306 170.76 244.608 165.871C244.608 165.871 244.273 164.235 243.989 164.056L243.313 166.336C243.313 166.336 245.01 166.767 245.648 168.055C245.648 168.055 243.412 166.304 243.195 166.67C243.152 166.745 242.892 167.897 242.892 167.897C242.892 167.897 245.842 168.656 246.764 170.677C246.764 170.677 244.38 168.237 242.79 168.333L242.5 170.092C242.5 170.092 245.657 170.744 246.791 173.005C246.791 173.005 244.211 170.538 242.458 170.482L242.407 172.249C242.407 172.249 245.472 172.944 246.407 174.831C246.407 174.831 243.139 172.284 242.423 172.655C242.423 172.655 242.474 174.283 242.691 174.708C242.691 174.708 244.879 175.243 245.324 176.403C245.324 176.403 242.959 174.93 242.755 175.155C242.755 175.155 243.391 177.256 244.276 178.151C244.276 178.151 242.87 176.924 242.431 175.269C242.431 175.269 241.835 176.304 241.986 177.32C241.986 177.32 241.109 176.352 242.283 174.759C242.283 174.759 241.854 173.102 241.961 172.84C241.961 172.84 240.58 174.248 240.227 175.513C240.227 175.513 239.958 173.93 241.959 172.383V170.602C241.959 170.602 240.033 172.369 239.637 173.463C239.637 173.463 239.61 171.805 241.999 170.156L242.267 168.426C242.267 168.426 240.492 169.822 239.787 170.944C239.787 170.944 240.092 169.399 242.361 167.935L242.675 166.801C242.675 166.801 241.398 167.844 241.066 168.175C240.733 168.507 240.607 168.443 240.607 168.443C241.13 167.546 241.891 166.812 242.806 166.32C242.806 166.32 243.627 164.016 243.479 163.954Z" opacity=".1"/><path fill="#4285F4" d="M283.216 9.50623C283.216 9.50623 271.34 14.8523 276.939 22.1738C276.939 22.1738 277.419 23.7375 279.049 23.7054C279.049 23.7054 278.757 23.0986 280.023 22.6923C280.472 22.5458 280.903 22.3457 281.304 22.0962C281.849 21.7617 282.27 21.2598 282.503 20.6662V20.6662C282.503 20.6662 285.034 17.6403 283.514 11.7088C283.514 11.7088 283.838 10.0702 283.645 9.79491L282.138 11.6393C282.138 11.6393 283.538 12.6871 283.629 14.1226C283.629 14.1226 282.246 11.6473 281.902 11.9039C281.833 11.9547 281.149 12.917 281.149 12.917C281.149 12.917 283.562 14.7507 283.645 16.972C283.645 16.972 282.39 13.8018 280.883 13.2779L279.937 14.7908C279.937 14.7908 282.597 16.6058 282.774 19.1292C282.774 19.1292 281.347 15.8627 279.752 15.1356L279.02 16.7395C279.02 16.7395 281.581 18.5598 281.701 20.6608C281.701 20.6608 279.671 17.0522 278.867 17.1217C278.867 17.1217 278.285 18.64 278.331 19.1185C278.331 19.1185 280.138 20.455 280.106 21.6953C280.106 21.6953 278.497 19.4285 278.229 19.5569C278.229 19.5569 278.001 21.7381 278.473 22.9062C278.473 22.9062 277.649 21.2329 277.885 19.5381C277.885 19.5381 276.934 20.2652 276.681 21.2596C276.681 21.2596 276.247 20.0273 277.947 19.0089C277.947 19.0089 278.191 17.3168 278.392 17.1164C278.392 17.1164 276.572 17.8835 275.762 18.9046C275.762 18.9046 276.124 17.3409 278.572 16.6833L279.269 15.0474C279.269 15.0474 276.81 15.9349 276.019 16.7903C276.019 16.7903 276.636 15.2506 279.478 14.6518L280.393 13.1603C280.393 13.1603 278.215 13.7671 277.129 14.5289C277.129 14.5289 278.012 13.2244 280.672 12.7433L281.398 11.8184C281.398 11.8184 279.816 12.2889 279.374 12.4653C278.931 12.6417 278.837 12.5375 278.837 12.5375C279.671 11.9088 280.663 11.5238 281.704 11.4255C281.704 11.4255 283.313 9.61315 283.216 9.50623Z" opacity=".1"/><path fill="#4285F4" d="M170.494 12.8154C170.494 12.8154 152.652 17.8942 161.326 25.4536C161.326 25.4536 162.096 27.0574 164.565 27.0574C164.565 27.0574 164.104 26.4372 166.013 26.0603C166.671 25.9286 167.315 25.7389 167.939 25.4937C168.674 25.2367 169.3 24.7381 169.714 24.0796C169.714 24.0796 173.468 21.0858 171.004 15.0501C171.004 15.0501 171.451 13.4035 171.151 13.1202L168.92 14.9432C168.92 14.9432 171.065 16.0418 171.245 17.4933C171.245 17.4933 169.081 14.9565 168.564 15.2051C168.459 15.2559 167.448 16.2075 167.448 16.2075C167.448 16.2075 171.17 18.1268 171.339 20.3748C171.339 20.3748 169.355 17.1377 167.048 16.5684L165.654 18.0706C165.654 18.0706 169.73 19.9765 170.065 22.5319C170.065 22.5319 167.818 19.1933 165.383 18.4154L164.311 20.0193C164.311 20.0193 168.236 21.9278 168.494 24.0556C168.494 24.0556 165.322 20.3534 164.104 20.3988C164.104 20.3988 163.265 21.9225 163.34 22.4063C163.34 22.4063 166.113 23.8177 166.099 25.058C166.099 25.058 163.595 22.7217 163.182 22.8447C163.182 22.8447 162.897 25.0446 163.643 26.2368C163.643 26.2368 162.35 24.5233 162.662 22.8179C162.662 22.8179 161.243 23.5263 160.886 24.5233C160.886 24.5233 160.195 23.2697 162.742 22.286C162.742 22.286 163.066 20.5806 163.364 20.3828C163.364 20.3828 160.629 21.1099 159.43 22.1203C159.43 22.1203 159.934 20.5485 163.624 19.9498L164.638 18.3139C164.638 18.3139 160.937 19.1479 159.763 19.9899C159.763 19.9899 160.656 18.4502 164.946 17.9156L166.287 16.4321C166.287 16.4321 163.005 16.9854 161.38 17.7285C161.38 17.7285 162.68 16.4321 166.694 16.0177L167.767 15.1036C167.767 15.1036 165.383 15.5366 164.718 15.7023C164.053 15.868 163.914 15.7611 163.914 15.7611C165.254 15.1143 166.716 14.7572 168.204 14.7133C168.204 14.7133 170.65 12.9277 170.494 12.8154Z" opacity=".1"/><path fill="#4285F4" d="M223.135 211C223.135 211 232.118 201.594 224.162 196.905C224.162 196.905 223.127 195.638 221.628 196.28C221.628 196.28 222.129 196.731 221.11 197.584C220.75 197.889 220.427 198.236 220.147 198.616C219.769 199.13 219.569 199.753 219.579 200.391V200.391C219.579 200.391 218.375 204.146 222.027 209.07C222.027 209.07 222.346 210.709 222.628 210.893L223.328 208.618C223.328 208.618 221.633 208.172 221.008 206.878C221.008 206.878 223.226 208.648 223.446 208.284C223.491 208.209 223.762 207.063 223.762 207.063C223.762 207.063 220.812 206.261 219.917 204.245C219.917 204.245 222.277 206.71 223.869 206.627L224.175 204.871C224.175 204.871 221.027 204.189 219.909 201.93C219.909 201.93 222.464 204.422 224.218 204.496L224.285 202.727C224.285 202.727 221.225 201.989 220.298 200.091C220.298 200.091 223.542 202.673 224.261 202.307C224.261 202.307 224.226 200.682 223.993 200.254C223.993 200.254 221.81 199.682 221.376 198.533C221.376 198.533 223.727 200.03 223.931 199.805C223.931 199.805 223.317 197.699 222.44 196.795C222.44 196.795 223.835 198.036 224.258 199.693C224.258 199.693 224.864 198.664 224.722 197.648C224.722 197.648 225.591 198.626 224.4 200.206C224.4 200.206 224.813 201.869 224.703 202.128C224.703 202.128 226.098 200.733 226.462 199.485C226.462 199.485 226.731 201.07 224.701 202.596L224.674 204.376C224.674 204.376 226.615 202.628 227.023 201.537C227.023 201.537 227.023 203.197 224.628 204.823L224.36 206.549C224.36 206.549 226.149 205.17 226.865 204.055C226.865 204.055 226.543 205.595 224.261 207.039L223.936 208.169C223.936 208.169 225.224 207.14 225.567 206.811C225.91 206.483 226.028 206.544 226.028 206.544C225.498 207.436 224.729 208.163 223.808 208.645C223.808 208.645 223.001 210.936 223.135 211Z" opacity=".1"/><path fill="#4285F4" d="M135.522 0.316294C135.522 0.316294 137.053 13.211 145.752 10.0996C145.752 10.0996 147.39 10.113 147.851 8.55193C147.851 8.55193 147.181 8.64816 147.176 7.32233C147.17 6.85069 147.107 6.38144 146.991 5.92433C146.836 5.30591 146.483 4.75484 145.985 4.35526V4.35526C145.985 4.35526 143.851 1.03534 137.707 0.709231C137.707 0.709231 136.238 -0.0926808 135.916 0.00889476L137.227 1.99496C137.227 1.99496 138.651 0.979208 140.051 1.3267C140.051 1.3267 137.268 1.89873 137.41 2.29969C137.437 2.38255 138.15 3.32079 138.15 3.32079C138.15 3.32079 140.657 1.55658 142.802 2.15802C142.802 2.15802 139.394 2.39325 138.439 3.66829L139.584 5.02619C139.584 5.02619 142.121 3.0428 144.591 3.63354C144.591 3.63354 141.035 4.00776 139.858 5.30419L141.193 6.48567C141.193 6.48567 143.703 4.5985 145.752 5.10638C145.752 5.10638 141.687 5.95106 141.51 6.73426C141.51 6.73426 142.789 7.74467 143.261 7.8516C143.261 7.8516 145.095 6.53913 146.259 6.94009C146.259 6.94009 143.604 7.79011 143.644 8.0895C143.644 8.0895 145.663 8.96091 146.921 8.86468C146.921 8.86468 145.073 9.13198 143.524 8.41026C143.524 8.41026 143.931 9.53026 144.808 10.0729C144.808 10.0729 143.499 10.113 143.036 8.20176C143.036 8.20176 141.491 7.45866 141.36 7.21006C141.36 7.21006 141.547 9.1694 142.279 10.2466C142.279 10.2466 140.89 9.44473 140.998 6.90801L139.657 5.75059C139.657 5.75059 139.767 8.3568 140.346 9.36721C140.346 9.36721 139.059 8.3167 139.338 5.43249L138.187 4.11468C138.187 4.11468 138.11 6.36538 138.512 7.62706C138.512 7.62706 137.528 6.39746 137.871 3.72442L137.203 2.75411C137.203 2.75411 137.179 4.39803 137.203 4.87383C137.227 5.34963 137.112 5.39507 137.112 5.39507C136.76 4.41565 136.687 3.35785 136.903 2.33979C136.903 2.33979 135.656 0.252141 135.522 0.316294Z" opacity=".1"/><path fill="#4285F4" d="M200.538 181.754C200.538 181.754 187.983 178.279 187.581 187.485C187.581 187.485 186.948 188.993 188.221 190.009C188.221 190.009 188.385 189.356 189.618 189.851C190.058 190.024 190.518 190.146 190.986 190.212C191.62 190.303 192.266 190.184 192.826 189.875V189.875C192.826 189.875 196.714 189.164 199.352 183.636C199.352 183.636 200.653 182.586 200.693 182.249L198.352 182.706C198.352 182.706 198.754 184.406 197.902 185.566C197.902 185.566 198.438 182.781 198.001 182.759C197.912 182.759 196.77 183.056 196.77 183.056C196.77 183.056 197.457 186.012 196.086 187.763C196.086 187.763 197.159 184.529 196.336 183.166L194.636 183.724C194.636 183.724 195.515 186.814 194.03 188.867C194.03 188.867 195.032 185.448 194.271 183.871L192.678 184.644C192.678 184.644 193.483 187.675 192.23 189.375C192.23 189.375 192.986 185.307 192.324 184.844C192.324 184.844 190.903 185.646 190.627 186.036C190.627 186.036 191.163 188.226 190.337 189.148C190.337 189.148 190.552 186.376 190.259 186.301C190.259 186.301 188.683 187.833 188.296 189.03C188.296 189.03 188.739 187.221 190.007 186.069C190.007 186.069 188.811 186.02 187.977 186.622C187.977 186.622 188.433 185.4 190.391 185.702C190.391 185.702 191.667 184.556 191.949 184.532C191.949 184.532 190.072 183.96 188.779 184.227C188.779 184.227 190.061 183.254 192.364 184.312L193.952 183.51C193.952 183.51 191.49 182.626 190.334 182.778C190.334 182.778 191.796 181.976 194.357 183.337L196.014 182.773C196.014 182.773 193.954 181.85 192.63 181.744C192.63 181.744 194.145 181.303 196.497 182.631L197.65 182.382C197.65 182.382 196.132 181.736 195.679 181.581C195.225 181.425 195.228 181.313 195.228 181.313C196.267 181.361 197.272 181.694 198.132 182.276C198.132 182.276 200.546 181.901 200.538 181.754Z" opacity=".1"/><defs><linearGradient id="paint0_linear" x1="142.762" x2="142.762" y1="160.175" y2="62.072" gradientUnits="userSpaceOnUse"><stop stop-color="gray" stop-opacity=".25"/><stop offset=".54" stop-color="gray" stop-opacity=".12"/><stop offset="1" stop-color="gray" stop-opacity=".1"/></linearGradient></defs></svg>