<?xml version="1.0" encoding="UTF-8" standalone="no"?>
<svg width="60px" height="60px" viewBox="0 0 60 60" version="1.1" xmlns="http://www.w3.org/2000/svg" xmlns:xlink="http://www.w3.org/1999/xlink" xmlns:sketch="http://www.bohemiancoding.com/sketch/ns">
    <!-- Generator: Sketch 3.3.3 (12081) - http://www.bohemiancoding.com/sketch -->
    <title>Shoplove</title>
    <desc>Created with Sketch.</desc>
    <defs>
        <path id="path-1" d="M3,0 L42,0 L45,44 L0,44 L3,0 L3,0 Z"></path>
        <path id="path-3" d="M0.655,5.441 C0.655,2.082 3.002,0.2 5.897,0.2 C7.292,0.2 8.561,0.746 9.5,1.635 C10.439,0.746 11.708,0.2 13.104,0.2 C15.998,0.2 18.345,2.082 18.345,5.441 C18.345,8.801 10.173,15.866 9.5,15.8 C8.78,15.866 0.655,8.801 0.655,5.441 L0.655,5.441 Z"></path>
    </defs>
    <g id="colored" stroke="none" stroke-width="1" fill="none" fill-rule="evenodd" sketch:type="MSPage">
        <g id="Love_sliced" sketch:type="MSLayerGroup" transform="translate(0.000000, -480.000000)"></g>
        <g id="Imported-Layers" sketch:type="MSLayerGroup" transform="translate(0.000000, -479.000000)">
            <g id="Group-455" transform="translate(7.000000, 492.000000)">
                <mask id="mask-2" sketch:name="Clip 454" fill="white">
                    <use xlink:href="#path-1"></use>
                </mask>
                <g id="Clip-454"></g>
                <path d="M0,0 L45,0 L45,44 L0,44 L0,0 Z" id="Fill-453" fill="#EBEBEB" sketch:type="MSShapeGroup" mask="url(#mask-2)"></path>
            </g>
            <path d="M52.02,537 C52.013,536.999 52.007,536.999 52,537 L7,537 C6.723,537 6.458,536.885 6.269,536.683 C6.08,536.48 5.983,536.208 6.002,535.932 L9.002,491.932 C9.038,491.407 9.474,491 10,491 L49,491 C49.526,491 49.962,491.407 49.998,491.932 L52.984,535.734 C53.007,535.818 53.02,535.908 53.02,536 C53.02,536.552 52.572,537 52.02,537 L52.02,537 Z M8.07,535 L50.93,535 L48.066,493 L10.934,493 L8.07,535 L8.07,535 Z" id="Fill-456" fill="#314E55" sketch:type="MSShapeGroup"></path>
            <path d="M36,493 L34,493 L34,492 C34,488.14 30.86,485 27,485 C23.14,485 20,488.14 20,492 L20,493 L18,493 L18,492 C18,487.038 22.038,483 27,483 C31.962,483 36,487.038 36,492 L36,493" id="Fill-457" fill="#314E55" sketch:type="MSShapeGroup"></path>
            <path d="M41,493 L39,493 L39,492 C39,488.14 35.86,485 32,485 C28.14,485 25,488.14 25,492 L25,493 L23,493 L23,492 C23,487.038 27.038,483 32,483 C36.962,483 41,487.038 41,492 L41,493" id="Fill-458" fill="#314E55" sketch:type="MSShapeGroup"></path>
            <g id="Group-461" transform="translate(20.000000, 506.000000)">
                <mask id="mask-4" sketch:name="Clip 460" fill="white">
                    <use xlink:href="#path-3"></use>
                </mask>
                <g id="Clip-460"></g>
                <path d="M0.655,0.2 L18.345,0.2 L18.345,15.866 L0.655,15.866 L0.655,0.2 Z" id="Fill-459" fill="#73C9C9" sketch:type="MSShapeGroup" mask="url(#mask-4)"></path>
            </g>
            <path d="M29.51,522.8 L29.489,522.8 C29.465,522.8 29.44,522.799 29.414,522.796 C29.41,522.796 29.406,522.795 29.402,522.795 C28.019,522.629 24.225,518.741 24.061,518.572 C21.137,515.563 19.655,513.164 19.655,511.441 C19.655,507.767 22.222,505.2 25.897,505.2 C27.2,505.2 28.452,505.602 29.5,506.344 C30.548,505.602 31.8,505.2 33.104,505.2 C36.778,505.2 39.345,507.767 39.345,511.441 C39.345,515.095 31.392,522.562 29.591,522.795 C29.582,522.796 29.573,522.797 29.563,522.798 C29.544,522.799 29.527,522.8 29.51,522.8 L29.51,522.8 Z M25.897,507.2 C23.32,507.2 21.655,508.865 21.655,511.441 C21.655,513.923 27.846,519.66 29.493,520.705 C31.147,519.64 37.345,513.876 37.345,511.441 C37.345,508.865 35.68,507.2 33.104,507.2 C32.014,507.2 30.978,507.612 30.187,508.361 C29.802,508.727 29.198,508.727 28.812,508.361 C28.022,507.612 26.986,507.2 25.897,507.2 L25.897,507.2 Z" id="Fill-462" fill="#314E55" sketch:type="MSShapeGroup"></path>
        </g>
    </g>
</svg>