<svg fill="none" height="17" viewBox="0 0 17 17" width="17" xmlns="http://www.w3.org/2000/svg"><path d="m8.5 0c-4.68839 0-8.5 3.81161-8.5 8.5 0 4.6884 3.81161 8.5 8.5 8.5 4.6884 0 8.5-3.8116 8.5-8.5 0-4.68839-3.8116-8.5-8.5-8.5zm0 .548819c4.3839 0 7.9512 3.567321 7.9512 7.951181 0 1.01063-.1908 1.9811-.5388 2.8713l-2.2053-3.37662-3.139 4.90922-3.98897-6.40173v-1.56615h4.04917l-.98716-1.64645.98716-1.64646h-4.59464v.27441 3.01516 1.56614l-4.08937 6.49548c-.88012-1.2784-1.395471-2.8278-1.395471-4.4943 0-4.38386 3.567321-7.951181 7.951181-7.951181zm-2.19528 6.549011 5.40458 8.67397c-.4886.2176-1.0006.3849-1.5327.4987l-2.69392-1.3219.81319-1.8974-2.18189-1.362.79311-1.5896-1.4691-1.62972zm.27441-4.9059h3.07874l-.6559 1.09764.65925 1.09763h-3.07874v-2.19527zm-4.28346 11.27417 2.84114-4.51433 1.11437 1.23823-.85 1.7 2.20532 1.3787-.83327 1.9443 2.4563 1.2047c-.24095.0234-.48189.0335-.72953.0335-2.5065 0-4.74528-1.1679-6.20433-2.9851zm9.91223 2.0648-1.3185-2.1116 2.821-4.41399 1.9376 2.96829c-.7395 1.5193-1.951 2.7675-3.4401 3.5573z" fill="#4a4a4a"/></svg>