<svg fill="none" height="18" viewBox="0 0 17 18" width="17" xmlns="http://www.w3.org/2000/svg"><g fill="#4a4a4a"><path d="m2.17712 2.1471c.356.19468.64696.48586.84165.84165l.21466.39256c.0372.06801.10882.11052.1864.11052s.1492-.0423.18639-.11052l.21488-.39256c.19469-.356.48586-.64697.84165-.84165l.39256-.21467c.06822-.0374.11073-.10881.11073-.18639 0-.07779-.04229-.1492-.11073-.1864l-.39256-.21466c-.35579-.19469-.64696-.48565-.84165-.841651l-.21488-.392771c-.07438-.1364493-.2984-.1362367-.37279 0l-.21466.392558c-.19469.355789-.48565.646964-.84165.841654l-.39256.21466c-.06822.03719-.11073.10882-.11073.1864 0 .07757.04229.1492.11073.18639zm.20382-.42933c.42763-.23379.77704-.58342 1.01062-1.010617l.02827-.051647.02848.051647c.23379.427417.5832.777037 1.01062 1.010617l.05143.02806-.05143.02826c-.42742.23358-.77683.58321-1.01062 1.01062l-.02848.05165-.02827-.05165c-.23358-.4272-.58299-.77682-1.01062-1.01062l-.05143-.02826z"/><path d="m16.8807 1.95538-.4937-.27014c-.457-.24994-.8308-.6238-1.081-1.080541l-.2701-.493939c-.0744-.1364495-.2984-.1364495-.3728 0l-.2702.493726c-.2501.456954-.624.830814-1.0809 1.080754l-.4937.27014c-.0683.03741-.1108.10882-.1108.18639 0 .07758.0423.14921.1108.1864l.4937.27014c.4569.24994.8308.6238 1.0809 1.08054l.2702.49394c.0372.06822.1088.11073.1864.11073s.1492-.04251.1864-.11073l.2701-.49373c.2502-.45695.624-.83081 1.081-1.08075l.4937-.27014c.0682-.03741.1107-.10882.1107-.1864 0-.07757-.0425-.1492-.1107-.18639zm-.6978.27013c-.5285.28906-.9608.72136-1.2499 1.24973l-.0835.15281-.0838-.15281c-.2888-.52837-.7213-.96067-1.2499-1.24973l-.1528-.08374.1528-.08374c.5286-.28905.9609-.72135 1.2499-1.24972l.0838-.152815.0837.152815c.2889.52837.7214.96067 1.25 1.24972l.1528.08374z"/><path d="m16.094 12.5198c0-.6314-.5127-1.1449-1.1431-1.1449-.6302 0-1.1428.5137-1.1428 1.1449 0 .6315.5126 1.1452 1.1428 1.1452s1.1431-.5137 1.1431-1.1452zm-1.8608 0c0-.397.322-.7198.7177-.7198.3958 0 .718.323.718.7198 0 .397-.3222.7201-.718.7201-.3957 0-.7177-.3231-.7177-.7201z"/><path d="m9.0278 0c-.63039 0-1.14303.513705-1.14303 1.14516 0 .63145.51264 1.14515 1.14303 1.14515.63017 0 1.1428-.5137 1.1428-1.14515 0-.631455-.51263-1.14516-1.1428-1.14516zm0 1.86523c-.39575 0-.71796-.32305-.71796-.72007 0-.397026.32221-.720084.71796-.720084.39574 0 .71774.323058.71774.720084 0 .39702-.32179.72007-.71774.72007z"/><path d="m12.8774 7.78798c0 .63145.5127 1.14515 1.1431 1.14515.6301 0 1.1428-.5137 1.1428-1.14515s-.5127-1.14516-1.1428-1.14516c-.6304 0-1.1431.51371-1.1431 1.14516zm1.8608 0c0 .39702-.322.72008-.7177.72008-.3958 0-.718-.32306-.718-.72008s.3222-.72008.718-.72008c.3957 0 .7177.32306.7177.72008z"/><path d="m5.71617 3.92093c-.04995-.05016-.122-.07205-.19108-.05845-.0695.01361-.12773.061-.15515.12625l-5.3534092 12.71957c-.0333685.0797-.01530286.1717.0459081.2327.0403821.0406.0947921.0621.1500521.0621.028055 0 .05611-.0056.08289-.0168l12.690219-5.3653c.065-.0274.1122-.0855.1258-.155.0134-.0693-.0083-.1409-.058-.1908zm3.09306 9.00437-4.74321-4.74319.71392-1.69627 5.72326 5.72326zm-2.11645.8948-3.51857-3.5188.71392-1.69603 4.49879 4.49863zm-2.11624.8948-2.29414-2.2944.71391-1.6962 3.27415 3.2743zm-2.47225-1.8714 2.04972 2.0497-3.54301 1.498zm8.82141-.813-5.96766-5.96761.68076-1.61763 6.8911 6.90704z"/><path d="m9.83272 5.91552c.03805.02763.08183.04081.1254.04081.06548 0 .12988-.03018.17148-.08693.067-.0916 1.6383-2.28308 1.2062-5.683693-.0147-.1164709-.1197-.1978728-.2376-.18405783-.1165.01487763-.199.12114683-.1841.23761783.41 3.224843-1.11198 5.357873-1.1275 5.379123-.06928.0948-.04867.22784.04612.29713z"/><path d="m16.9789 6.23418c.0435-.10903-.0096-.23273-.1186-.27609-3.1926-1.27437-5.6905.67503-5.7955.75855-.0918.07333-.1067.20702-.0334.29862.0419.05271.1037.07991.1662.07991.0466 0 .0931-.01509.1324-.04633.0234-.01913 2.4083-1.87969 5.3724-.69606.109.04314.2327-.00935.2765-.1186z"/><path d="m7.04806 4.35765c.01594.00362.03188.00532.04782.00532.09671 0 .18427-.06632.20701-.16472.02041-.0882.48119-2.17214-.9426-3.432492-.08778-.077576-.22189-.069712-.30011.018066-.07779.087991-.0695.222106.01828.300106 1.23251 1.09117.81445 2.99997.8102 3.0191-.02636.11435.04527.22827.1594.25462z"/><path d="m13.132 9.77723c-.112.03443-.1751.15345-.1407.26567.0343.112.1531.1751.2657.1409.023-.0072 2.3486-.70115 3.3575.7203.0414.0582.1069.0895.1734.0895.0425 0 .0854-.0128.1229-.0393.0956-.068.1181-.2007.0501-.2965-1.1849-1.66909-3.7215-.91351-3.8289-.88057z"/></g></svg>