<svg fill="none" height="13" viewBox="0 0 17 13" width="17" xmlns="http://www.w3.org/2000/svg"><g fill="#4a4a4a"><path d="m5.54193 9.27655h-.10936v-1.90179c0-.15694-.12783-.28406-.28406-.28406h-2.49548c-.15695 0-.28406.12783-.28406.28406v1.90179h-.12641c-.15695 0-.28406.12783-.28406.28407 0 .15623.12782.28406.28406.28406h.41047 2.49548.39413c.15695 0 .28407-.12783.28407-.28406 0-.15624-.12783-.28407-.28478-.28407zm-.67819-1.33154h-.67891v-.28548h.67891zm-1.24703-.28619v.28548h-.67891v-.28548zm-.67891.85432h.67891v.7627h-.67891zm1.24703.76341v-.7627h.67891v.7627z"/><path d="m11.4838 9.84468h.4104 2.4955.3942c.1569 0 .284-.12783.284-.28406 0-.15624-.1278-.28407-.284-.28407h-.1094v-1.90179c0-.15694-.1278-.28406-.2841-.28406h-2.4955c-.1569 0-.284.12783-.284.28406v1.90179h-.1271c-.157 0-.2841.12783-.2841.28407 0 .15623.1271.28406.2841.28406zm1.9422-.56813v-.7627h.6789v.7627zm.6789-1.33154h-.6789v-.28548h.6789zm-1.2477-.28619v.28548h-.6789v-.28548zm-.6789.85432h.6789v.7627h-.6789z"/><path d="m.284068 6.11638h.938112v5.71962c0 .1569.12783.284.28406.284h4.75449.97433 2.53028.97436 4.7545c.1569 0 .284-.1278.284-.284v-5.71962h.9381c.0895 0 .174-.04261.2273-.11433.0532-.07173.0703-.16405.0447-.24998l-1.2229-4.16292c-.0355-.12144-.1463-.20453-.2727-.20453h-5.84738l-.91539-1.273303c-.10652-.1484226-.35507-.1484226-.4616 0l-.91539 1.273303h-5.84599c-.1264 0-.23719.08309-.2727.20453l-1.2228809 4.16292c-.0248554.08522-.00852187.17825.0447397.24998.0539722.07243.1384802.11433.2279592.11433zm1.506952 0h4.18635v5.43482h-4.18635zm5.72952 5.43552v-3.6857h1.96216v3.6857zm2.53026 0v-3.97047c0-.15694-.12781-.28406-.28404-.28406h-2.53028c-.15695 0-.28406.12783-.28406.28406v3.97047h-.40621v-6.55401h3.91079v6.55401zm5.1607 0h-4.1863v-5.43481h4.1863zm.071-9.59844 1.056 3.5948h-.8436-4.4705v-.55037h.6655c.0049-.00071.0099 0 .0142 0 .1576 0 .284-.12783.284-.28406 0-.0909-.0433-.17186-.1093-.2237l-1.823-2.53525h5.2267zm-6.78124-1.189512 2.63534 3.664392h-.3927c-.0014 0-.0021-.00071-.0035-.00071s-.0022.00071-.0036.00071h-4.47181c-.00142 0-.00213-.00071-.00355-.00071s-.00213.00071-.00355.00071h-.3913zm-6.78126 1.189512h5.22674l-1.86558 2.59348c-.06178.08664-.07102.20026-.0213.29542.04829.09516.14558.15482.2521.15482h.66541v.55037h-4.47042-.843659z"/></g></svg>