<svg fill="none" height="18" viewBox="0 0 17 18" width="17" xmlns="http://www.w3.org/2000/svg"><g fill="#4a4a4a"><path d="m16.9929 13.9792c-.0363-.2542-.3994-9.11372-.3994-9.11372 0-.18154-.1816-.36309-.3631-.36309h-.581v-4.139294c0-.217858-.1452-.363096-.3631-.363096h-4.9018c-.1089 0-.1815.0363096-.2541.108929-.0726.072619-.109.181548-.109.254167l.0727 4.175604h-.98039c-.10893 0-.18155.03631-.25417.10893s-.10893.18155-.10893.29047c0 0 .07262.87143.07262 1.08929.14524 1.96072-.21786 2.39643-.25417 2.46905-.7625.50834-3.44941 1.88806-3.73989 2.03336-.10892.0726-.21785.1815-.21785.3268v1.2708c-.18155.0726-1.59762.581-1.70655.581s-.21786 0-.3631 0c-.10893 0-.25417 0-.36309 0-.7262 0-2.17858 0-2.17858 1.2708 0 .7625.762501 1.5613 2.39643 1.5613h.14524c.68988-.0363 1.41607.0726 2.10596.2905v1.1619c0 .1815.10893.3268.29047.3631.10893.0363 2.03334.0726 2.14227.0726 1.05298 0 1.77917-.4357 1.96072-.5446.3994-.1453.94405-.2179 1.67021-.2179.8351 0 1.634.1089 2.0697.1815.4357.0727.8351.109 1.1982.109 1.3798 0 1.8881-.3631 2.0696-.5084.9078-.7261.9804-1.8517.9441-2.469zm-12.34527 1.0893c-.61727-.1816-1.27084-.2542-1.92441-.2542-.07262 0-.32679 0-.32679 0-1.23452 0-1.670238-.5083-1.670238-.8351 0-.3631.254167-.5447 1.452388-.5447h.72619c.18154 0 .50833-.1089 1.19821-.363 0 0 .39941-.1453.50834-.1816v2.1786zm10.27557-14.342308v3.812508h-4.0666l-.0727-3.812508zm.6536 15.104808c-.0363.0363-.0363.0363-.0726.0726 0 0-.3268.2905-1.5613.2905-.3268 0-.6536-.0363-1.0893-.109-.4357-.0726-1.3072-.1815-2.1786-.1815-.8351 0-1.48867.1089-1.9607.2905-.03631 0-.03631.0363-.07262.0363 0 0-.7625.5083-1.81548.4357-.03631 0-1.19821-.0363-1.48869-.0363v-5.5554c.25417-.1452 2.79584-1.45236 3.59465-1.96069.29048-.14524.79881-.7262.61726-3.15894 0-.21786-.03631-.3994-.03631-.61726v-.07262h6.35419s.3631 8.46011.3994 8.78691c.0363.5447-.0363 1.3072-.6899 1.7792z"/><path d="m11.0018 7.87919c-.109-.18155-.3268-.21786-.5084-.10893-.1815.10893-.2178.32678-.1089.50833l.2179.32679c.0726.10893.1815.14524.2904.14524.0727 0 .1453-.03631.2179-.07262.1816-.10893.2179-.32679.1089-.50834z"/><path d="m10.2029 10.3845c.0726 0 .1452-.0363.2179-.0726.1815-.1089.2178-.32678.1089-.50833l-.2179-.29047c-.1089-.18155-.32675-.21786-.5083-.10893s-.21786.32678-.10893.50833l.21786.3268c.07262.1089.18157.1452.29047.1452z"/><path d="m8.56916 10.3846c-.10893-.1816-.32679-.2179-.50833-.109-.18155.109-.21786.3268-.10893.5084l.21786.3267c.07261.109.18154.1453.29047.1453.07262 0 .14524-.0363.21786-.0726.18155-.109.21786-.3268.10893-.5084z"/><path d="m12.1273 9.65836c-.109-.18155-.3268-.21786-.5084-.10893-.1815.10893-.2178.32679-.1089.50837l.2179.3268c.0726.1089.1815.1452.2904.1452.0727 0 .1453-.0363.2179-.0726.1815-.109.2179-.3268.1089-.50836z"/><path d="m11.9819 2.32383c.0726.10893.1815.14524.2905.14524.0726 0 .1452-.03631.2178-.07262.1816-.10892.2179-.32678.109-.50833l-.1453-.21786c-.1089-.18155-.3268-.21786-.5083-.10893-.1816.10893-.2179.32679-.1089.50834z"/><path d="m11.4736 3.4857c.0726.10893.1815.14524.2905.14524.0726 0 .1452-.03631.2178-.07262.1816-.10893.2179-.32679.109-.50834l-.1453-.21785c-.1089-.18155-.3268-.21786-.5083-.10893-.1816.10893-.2179.32678-.1089.50833z"/><path d="m12.5994 3.37679.1452.21786c.0726.10893.1815.14524.2905.14524.0726 0 .1452-.03631.2178-.07262.1816-.10893.2179-.32679.109-.50834l-.1453-.21785c-.1089-.18155-.3268-.21786-.5083-.10893-.1816.14523-.2179.36309-.1089.54464z"/><path d="m10.4207 11.1833c-.1089-.1815-.3268-.2178-.50831-.1089-.18155.1089-.21786.3268-.10893.5083l.21784.3268c.0726.1089.1816.1453.2905.1453.0726 0 .1452-.0364.2179-.0727.1815-.1089.2178-.3268.1089-.5083z"/><path d="m12.0184 11.5102c-.1089-.1816-.3268-.2179-.5084-.109-.1815.109-.2178.3268-.1089.5084l.2179.3268c.0726.1089.1815.1452.2905.1452.0726 0 .1452-.0363.2178-.0726.1816-.109.2179-.3268.1089-.5084z"/></g></svg>