<svg fill="none" height="18" viewBox="0 0 15 18" width="15" xmlns="http://www.w3.org/2000/svg"><g fill="#4a4a4a"><path d="m8.58028 3.33594c-.86014 0-1.55245.6768-1.55245 1.51767 0 .84088.69231 1.51768 1.55245 1.51768s1.55242-.6768 1.55242-1.51768c0-.82036-.69228-1.51767-1.55242-1.51767zm0 2.4611c-.52448 0-.94406-.41019-.94406-.92292 0-.51272.41958-.94342.94406-.94342.52447 0 .96503.41019.96503.94342-.02097.51273-.44056.92292-.96503.92292z"/><path d="m2.39161 15.621c.44056-.2666.73426-.7384.73426-1.2921 0-.8409-.6923-1.5177-1.55244-1.5177-.860143 0-1.5524509.6768-1.5524509 1.5177 0 .5537.2937059 1.0255.7342659 1.2921-.44056.2666-.7342659.7383-.7342659 1.292l-.0209791.7589c0 .082.0209791.1641.0839162.2051.0629368.0615.1258738.082.2097898.082h2.517484c.16783 0 .29371-.123.29371-.2871v-.7589c.02097-.5537-.27273-1.0254-.71329-1.292zm-1.783218-1.2921c0-.5127.419578-.9434.944058-.9434.52447 0 .96503.4307.96503.9434s-.41958.9434-.96503.9434c-.5035 0-.944058-.4307-.944058-.9434zm1.909088 3.0559h-1.909088v-.4718c0-.5127.419578-.9229.944058-.9229.52447 0 .96503.4102.96503.9229z"/><path d="m14.979 9.32463c-.021-.08204-.0839-.14357-.1678-.16408l-4.95109-2.21498c-.04196-.02051-.08392-.02051-.12588-.02051h-3.60839l-1.8042-1.76379 1.04896-1.04597c.04195-.06153.08391-.12305.08391-.18458h.02098c.02098 0 .06294.02051.08392.02051.04196 0 .10489-.02051.14685-.04102l1.78322-.98444c.14685-.08204.18881-.24611.12587-.38967l-1.13287-2.379064c-.04195-.082037-.10489-.1230553-.16783-.1435645-.08391-.02050912-.16783-.02050914-.23077.0205092l-1.90909.9844393c-.14685.08204-.20979.24611-.12587.38967l1.09091 2.07143-.86014-.84088c-.12588-.12305-.31469-.12305-.41958 0l-2.3077 2.27652c-.12587.12305-.12587.30764 0 .41018l3.77623 3.69165h-1.25874c-.1049 0-.20979.06153-.27273.16407-.04196.10255-.04196.2256.04196.30764l1.13286 1.3946v2.0714c-.56643.2256-.96503.7794-.96503 1.4152 0 .5537.29371 1.0254.73426 1.2921-.44055.2666-.73426.7383-.73426 1.292l-.02098.7589c0 .082.02098.164.08392.2051.06293.0615.12587.082.20979.082h2.51748c.16783 0 .29371-.1231.29371-.2871v-.7794h.83916l-.02098.7384c0 .082.02098.164.08391.205.06294.0616.12588.0821.20979.0821h2.51744c.1679 0 .2938-.1231.2938-.2871v-.7589c0-.5537-.2938-1.0254-.7343-1.2921.4405-.2666.7343-.7383.7343-1.292 0-.6358-.3986-1.1896-.9861-1.4152v-2.0714l.9231-1.128 2.8741 1.2716c.042.0205.084.0205.1259.0205.1049 0 .2098-.0615.2727-.1641l.7133-1.31258c.063-.04102.063-.12306.042-.20509zm-10.27973-7.93705 1.36363-.697306.9021 1.886846-1.25874.69731zm-.12588 12.94132c0-.2872.14686-.5538.35665-.7384.16783-.123.37762-.2051.58741-.2051h.02098c.52447 0 .94405.4307.94405.9435 0 .5127-.41958.9229-.94405.9434h-.02098c-.23077 0-.41958-.0821-.58741-.2051-.23077-.1641-.35665-.4307-.35665-.7383zm1.90909 3.0558h-1.90909v-.4717c0-.2871.14686-.5537.35665-.7383.16783-.1231.37762-.2051.58741-.2051h.02098c.2937 0 .56643.1436.75524.3692.12588.164.18881.3486.18881.5742zm3.94402-.4717v.4717h-1.90905v-.4512-.0205c0-.2051.06294-.4102.18881-.5742.16783-.2051.44056-.3487.73427-.3692h.02097c.2098 0 .41959.082.5874.1846.2308.1846.3776.4512.3776.7588zm0-2.5841c0 .3076-.1468.5742-.3776.7383-.16781.123-.35663.1846-.5874.1846-.50349-.0205-.92307-.4307-.92307-.9434 0-.5128.41958-.923.92307-.923h.02098c.20979 0 .41958.0821.58742.1846.2098.1846.3566.4717.3566.7589zm-.90206-3.7737c-.04196.0615-.06294.123-.06294.1846v2.0714c-.83916.0205-1.53146.6973-1.53146 1.5177 0 .5537.2937 1.0254.73426 1.292-.27273.1641-.50349.4307-.60839.7179h-1.06993c-.12587-.3077-.33566-.5538-.62937-.7179.44056-.2666.73427-.7383.73427-1.292 0-.8409-.69231-1.5177-1.55245-1.5177v-2.0714c0-.0616-.02098-.1231-.06294-.1846l-.81818-1.00497h5.68529zm4.32166-.2051-2.5804-1.14853-.5455-.2256-.7552-.32815c-.04196-.0205-.08391-.0205-.12587-.0205-.06294 0-.1049.02051-.16783.04101-.08392.06153-.14686.14357-.14686.24611h-3.46154l-3.90209-3.83521 1.88811-1.84582.6923.6768-1.04895 1.02546c-.12587.12305-.12587.30764 0 .41018l2.09791 2.05092c.06293.06152.12587.08203.20979.08203h3.67133l4.5944 2.05092z"/><path d="m14.2661 15.621c.4406-.2666.7343-.7384.7343-1.2921 0-.8409-.6923-1.5177-1.5525-1.5177-.8601 0-1.5524.6768-1.5524 1.5177 0 .5537.2937 1.0255.7343 1.2921-.4406.2666-.7343.7383-.7343 1.292l-.021.7589c0 .082.021.1641.0839.2051.063.0615.1259.082.2098.082h2.5175c.1678 0 .2937-.123.2937-.2871v-.7589c.021-.5537-.2727-1.0254-.7133-1.292zm-1.7832-1.2921c0-.5127.4196-.9434.965-.9434.5245 0 .9441.4307.9441.9434s-.4196.9434-.9441.9434c-.5454 0-.965-.4307-.965-.9434zm1.9091 3.0559h-1.9091v-.4718c0-.5127.4196-.9229.965-.9229.5245 0 .9441.4102.9441.9229z"/><path d="m11.0767 1.63368-.5454 1.14852-.54546-.24611.54546-1.14852z"/><path d="m12.6502 3.27445-1.2378.55375-.2518-.53324 1.2378-.55375z"/><path d="m11.5306 4.82932-.1673.5718 1.2303.34417.1674-.57181z"/><path d="m6.08369 1.32607-.81818.38967-.14686-.26662.81818-.38967z"/><path d="m6.29367 1.79781-.79721.41018-.14685-.26662.81818-.41018z"/></g></svg>