<svg fill="none" height="20" viewBox="0 0 17 20" width="17" xmlns="http://www.w3.org/2000/svg"><g fill="#4a4a4a"><path d="m16.876 3.16472c-.2864-1.56284-1.5101-2.706068-3.2734-3.057997-1.1557-.230765-2.3536-.0826222-3.5616.440333-1.06281.460084-2.12173.451413-3.23653-.025534-.62148-.265933-1.2668-.4290108-1.97355-.4983848-1.70015-.1666902-3.38464.5790808-4.191591 1.8567228-.414077.65592-.616899 1.40145-.63737402 2.34619-.03396438 1.54622.37433002 2.85445 1.24800502 3.99961.11177.14669.2062.30471.30617.47164l.09129.15176c.17946.29315.26088.59931.24931.93607-.01565.45667.11972 3.40557.26401 4.45297.16115 1.1711.45719 2.1759.90451 3.0719.28473.5705.71783 1.2883 1.54863 1.7809.00988.0058.02024.0111.03084.0154.17632.0727.35024.1091.51838.1091.2245 0 .43888-.0648.63496-.1934.66941-.4399 1.15166-1.6462 1.43349-3.5858.20451-1.407.22763-2.7128.22787-2.7299 0-.5815.47286-1.0541 1.05675-1.0623.5839.0082 1.05675.4811 1.05675 1.0662.00892.54.12984 5.3056 1.66138 6.3118.1961.1289.4105.1934.635.1934.1681 0 .342-.0364.5183-.1091.0032-.0012.0048-.0039.0077-.0053.0029-.0012.0061-.001.009-.0024 1.036-.5242 2.0626-2.9843 2.2999-4.1015.3199-1.5065.4488-3.1428.4052-5.14934l-.0037-.09949c-.005-.12478-.0103-.25365.0265-.33434l.0326-.07106c.1804-.39577.3671-.80479.6224-1.15648 1.0645-1.46625 1.4308-3.15555 1.0888-5.02167zm-1.4785 4.73839c-.2838.39096-.4808.82238-.6711 1.23958l-.0323.07082c-.0848.18548-.0769.38132-.0699.55427l.0032.09033c.0428 1.96849-.0827 3.56959-.3946 5.03899-.2228 1.0496-1.1885 3.3259-2.0384 3.7667-.2642.107-.4858.0932-.6956-.0443-1.1175-.734-1.4215-4.5202-1.4444-5.913 0-.8387-.67539-1.5221-1.51317-1.5435-.00362-.0003-.00651-.002-.01012-.002-.00506 0-.01012.0008-.01518.0008-.00505 0-.01011-.0008-.01517-.0008-.00362 0-.00651.002-.01012.002-.83803.0214-1.51322.7048-1.51322 1.5397-.02288 1.3969-.32688 5.1831-1.44433 5.9168-.20788.1368-.42732.1525-.68868.0479-.71277-.4285-1.09481-1.0649-1.34846-1.5727-.42347-.8482-.7041-1.8042-.85802-2.9224-.14044-1.0196-.27389-3.957-.25967-4.37104.01469-.42804-.09298-.83297-.31989-1.20392l-.08889-.14766c-.10237-.17127-.20836-.34832-.33675-.5167-.80479-1.05482-1.180807-2.26429-1.149252-3.69681.018548-.85345.197523-1.52069.563182-2.09953.71181-1.12757 2.21323-1.783253 3.73705-1.634629.65688.064797 1.25571.21583 1.83118.462012 1.24368.532107 2.42689.540057 3.61731.025052 1.1322-.490196 2.2034-.624367 3.276-.410223 1.5624.311943 2.6444 1.310878 2.894 2.672348.3218 1.75603-.007 3.27768-1.0047 4.65191z"/><path d="m13.0009 1.64015c-.1299-.02649-.2573.05854-.2833.1891-.026.13055.0585.25726.1891.28327 1.0365.20692 1.7538.86742 1.9186 1.76639.2161 1.17888-.0043 2.19998-.6737 3.12207-.0783.10768-.0545.25823.0534.33628.0427.03107.0923.046.1412.046.0747 0 .1481-.03444.1951-.09948.7405-1.01989.9956-2.19468.7578-3.49183-.2018-1.10035-1.0608-1.90489-2.2982-2.1518z"/><path d="m10.8899 4.89787h-1.20443v-1.20441c0-.13297-.10792-.24088-.24088-.24088h-1.88683c-.13297 0-.24089.10791-.24089.24088v1.20441h-1.20441c-.13296 0-.24088.10791-.24088.24088v1.88683c0 .13297.10792.24088.24088.24088h1.20441v1.20441c0 .13297.10792.24089.24089.24089h1.88683c.13296 0 .24088-.10792.24088-.24089v-1.20441h1.20443c.1329 0 .2409-.10791.2409-.24088v-1.88683c0-.13297-.108-.24088-.2409-.24088zm-.2409 1.88683h-1.20441c-.13297 0-.24089.10791-.24089.24088v1.20441h-1.40506v-1.20441c0-.13297-.10792-.24088-.24088-.24088h-1.20441v-1.40507h1.20441c.13296 0 .24088-.10791.24088-.24088v-1.20441h1.40506v1.20441c0 .13297.10792.24088.24089.24088h1.20441z"/></g></svg>