<svg fill="none" height="16" viewBox="0 0 17 16" width="17" xmlns="http://www.w3.org/2000/svg"><path d="m8.51255 15.6454c-.11503-.0005-.22517-.0466-.30627-.1282l-6.69231-6.69881c-.47997-.47969-.860717-1.04924-1.12049-1.67613-.259773-.62688-.39348-1.29881-.39348-1.97738 0-.67858.133707-1.35051.39348-1.97739s.64052-1.19644 1.12049-1.67612c.79171-.785062 1.81426-1.295607 2.91752-1.4566785s2.2291.0358187 3.21221.5617605c.05598.029908.10473.071721.14282.122496s.06459.109279.07763.171397c.01305.062117.01232.126335-.00212.188145-.01445.06181-.04226.1197-.08149.1696l-1.92667 2.48708 2.28507 1.90495c.0472.03968.0854.08895.11208.14453.02669.05559.04123.11622.04267.17786s-.01026.12288-.03432.17965c-.02406.05676-.05993.10776-.10522.1496l-2.03094 1.85499 1.87455 1.74856-.33234-1.43795c-.01627-.07176-.01404-.14648.00648-.21715s.05865-.13496.11082-.18686l2.85638-2.86503-2.34376-1.45098c-.0935-.05777-.16162-.14884-.19064-.25485-.02903-.10601-.01679-.21907.03424-.31642l1.30328-2.484905c.04345-.083437.11281-.150514.19766-.191147 1.09812-.51457048 2.34222-.626532 3.51462-.316287s2.1982 1.022929 2.8981 2.013309 1.0291 2.19536.9301 3.40403c-.0989 1.20867-.6199 2.34401-1.4716 3.20732l-6.69228 6.69881c-.0811.0816-.19124.1277-.30627.1282zm-3.319-14.770465c-1.14826-.000912-2.25018.452815-3.06487 1.262005-.39958.39921-.71656.87326-.93283 1.39505-.216274.52179-.32759 1.08109-.32759 1.64592s.111316 1.12413.32759 1.64592c.21627.52179.53325.99584.93283 1.39505l6.38387 6.37732 6.38385-6.38601c.7074-.70883 1.1451-1.64237 1.2375-2.63949.0925-.99711-.1661-1.99522-.731-2.82204s-1.4008-1.43045-2.3634-1.70671c-.9625-.276258-1.9913-.207799-2.9087.19356l-1.04481 1.99618 2.46751 1.52483c.056.0343.1036.08085.139.13617s.0579.11795.0656.18318c.0077.06524.0006.13138-.0209.19345s-.0569.11845-.1033.1649l-3.07791 3.08659.59734 2.58919c.02057.0905.01162.1852-.02554.2702-.03716.0851-.10057.156-.18096.2024-.08038.0463-.1735.0658-.26572.0554-.09223-.0104-.1787-.0501-.24676-.1131l-3.25818-3.04102c-.0441-.04068-.07929-.09005-.10336-.14501-.02407-.05495-.0365-.1143-.0365-.17429 0-.06.01243-.11934.0365-.17429.02407-.05496.05926-.10433.10336-.14501l2.03311-1.83545-2.23295-1.85282c-.08635-.07206-.14139-.17479-.15354-.2866-.01216-.11181.01953-.22398.08838-.3129l1.84196-2.38934c-.4967-.195762-1.0257-.296698-1.55958-.297579z" fill="#4a4a4a"/></svg>