<svg fill="none" height="16" viewBox="0 0 17 16" width="17" xmlns="http://www.w3.org/2000/svg"><path d="m11.2118 3.77434c-.3747 0-.7488.03636-1.1137.10771-.77197-.8605-1.78937-1.47337-2.90271-1.75235.25855-.2615.45268-.56888.45268-.97151 0-.752269-.55399-1.15819-1.07524-1.15819-.34029 0-.58637.101134-.78483.330764-.15672-.179929-.39206-.330764-.78517-.330764-.52125 0-1.07524.405921-1.07524 1.15819 0 .40246.19413.71001.45268.97151-2.5583.63728-4.38027 2.94465-4.38027 5.61535 0 3.19145 2.5964 5.78785 5.788 5.78785.37475 0 .74881-.0364 1.11403-.1076 1.09862 1.2246 2.66325 1.9252 4.30997 1.9252 3.1914 0 5.788-2.5964 5.788-5.78799 0-3.1916-2.5967-5.78817-5.7882-5.78817zm-1.51508.2007c-.21924.05923-.43536.13179-.64663.21682-.78518-.72197-1.77331-1.15698-2.82846-1.25101.1252-.1162.27067-.22859.42151-.34497.07342-.05662.14893-.11516.22287-.17438 1.07438.21646 2.06667.76248 2.83071 1.55354zm-3.90872-.69633c1.07386 0 2.09472.37925 2.90344 1.07264-1.99376.96406-3.26762 2.97999-3.26762 5.21099 0 .92046.21993 1.82736.63676 2.64026-.09109.0053-.18218.0083-.27275.0083-2.46254 0-4.46617-2.0035-4.46617-4.4662 0-2.46271 2.00363-4.46599 4.46634-4.46599zm-.785-2.921623c.34462 0 .49684.142869.63053.373191.03204.055069.09074.088838.15447.088838s.12261-.033769.15447-.088838c.13716-.236383.28436-.373191.63053-.373191.2776 0 .71798.217507.71798.800933 0 .38202-.25283.66481-.63278.97237-.07585.0613-.15585.12313-.23309.1827-.22703.17508-.46099.35553-.63711.56386-.17681-.20885-.41059-.38913-.63745-.56403-.07707-.05958-.15707-.12123-.23275-.18253-.37977-.30738-.63278-.59035-.63278-.97237 0-.583426.44039-.800933.71798-.800933zm-4.645743 7.387793c0-2.58965 1.825603-4.81529 4.352563-5.32338.07377.05922.14928.11776.22253.17421.15083.11637.2963.22876.42185.34531-2.45717.2201-4.389621 2.29023-4.389621 4.80368 0 2.6596 2.163811 4.8234 4.823421 4.8234.19188 0 .38653-.0114.57892-.0344.00122-.0002.00226-.0004.00347-.0004.34981-.0421.69529-.1229 1.02675-.2402.00225-.0008.00433-.0017.00658-.0026.00034-.0001.00069-.0003.00104-.0005 1.91842-.6823 3.20684-2.50773 3.20684-4.54547 0-.87332-.2338-1.7198-.67642-2.46323.20312-.06061.41092-.10668.62102-.1375.4336.79383.6627 1.69035.6627 2.6009 0 2.1794-1.29515 4.1406-3.29982 4.9968-.00034.0001-.00069.0003-.00103.0005-.31674.1352-.64906.2405-.98796.3131-.37285.08-.75712.1203-1.14191.1203-2.99471 0-5.430923-2.436-5.430923-5.43052zm9.232263-2.34444c.43498.70326.66448 1.5106.66448 2.34426 0 1.84171-1.13707 3.4962-2.8437 4.1617-.43502-.7036-.66447-1.5109-.66447-2.34406 0-1.84188 1.13706-3.49622 2.84369-4.1619zm1.34958-.29595c.0911-.00554.1823-.00832.2727-.00832 2.4627 0 4.466 2.00346 4.466 4.46617 0 2.46256-2.0033 4.46596-4.466 4.46596-1.074 0-2.09487-.379-2.90325-1.0726 1.99355-.9642 3.26715-2.97999 3.26715-5.21082.0001-.92025-.2198-1.82717-.6366-2.64039zm.2727 9.88861c-1.47889 0-2.88714-.6018-3.90922-1.6609.22011-.0596.43658-.1322.64733-.2168.89168.8199 2.04536 1.2702 3.26189 1.2702 2.6595 0 4.8234-2.1636 4.8234-4.82326 0-2.65961-2.1638-4.82342-4.8234-4.82342-.1922 0-.3872.0116-.5801.03446h-.0002c-.0002 0-.0005 0-.0009.00017-.3505.04208-.69628.12295-1.02809.24037-.00225.00069-.00416.00173-.00641.00242-.00034.00017-.00086.00017-.00103.00035-1.91843.6823-3.20685 2.50791-3.20685 4.54565 0 .87296.23362 1.71946.67642 2.46306-.2033.0606-.41111.1067-.621.1377-.43345-.7937-.66274-1.69-.66274-2.60076 0-2.17992 1.29552-4.14146 3.30071-4.99712h.00034c.31864-.13611.65096-.24158.98775-.3131.3727-.07983.757-.12035 1.1421-.12035 2.9946 0 5.4308 2.43621 5.4308 5.43074 0 2.99449-2.4362 5.43059-5.4308 5.43059z" fill="#4a4a4a"/></svg>