<svg fill="none" height="19" viewBox="0 0 10 19" width="10" xmlns="http://www.w3.org/2000/svg"><path d="m8.19163 14.7378c1.29501-.9061 1.98497-2.4406 1.76933-3.9813-.27108-1.927-1.77504-3.38389-3.70239-3.62671 0 0 0 0-.46016-1.81082-.16498-.64895-.50315-.92529-1.07536-1.26629.52799-.42744.85745-1.04262.85745-1.75838 0-1.14703-.77123-2.2943-2.33235-2.2943-1.36606 0-2.295572.875479-2.550249 2.40206l-.668125 3.98444c-.1013741.517.075285.85895.241757 1.05459.274555.32424.690735.4672 1.014237.53257l-.17194 1.02371c-.02435.14463.04547.28903.17567.3647l.65172.37883-1.146666 7.1746c-.016647.1039.014659.209.085472.2885s.173924.1253.283004.1253h1.39613v1.3115c0 .1983.16672.3592.3727.3592.20573 0 .3727-.1609.3727-.3592v-1.3115h2.13531l-.36152 1.2124c-.0569.1906.05715.3896.25518.4442.03453.0096.06882.0141.10286.0141.162 0 .31108-.1025.35804-.2601l.42066-1.4106h2.1609c.11455 0 .22263-.0506.29319-.1375.07082-.0869.09616-.2002.06883-.3072zm-6.38756-9.85945-.39953 2.38602c-.20201-.04502-.4296-.12883-.556069-.27754-.095411-.11279-.123488-.26293-.087212-.45738l.672601-4.01269c.1369-.8204.56302-1.79813 1.81454-1.79813 1.11561 0 1.58695.78424 1.58695 1.57591 0 .6499-.34834 1.14128-.94864 1.43511-.02832-.00551-.0564-.01222-.08497-.01677-.12175-.01963-.24027-.02897-.35506-.02897-.8423 0-1.47837.50143-1.62273 1.1238-.0092.02251-.01566.04622-.01988.07064zm5.60191 9.78835.49519 1.9444h-6.30382l1.03411-6.4693 2.1711 1.2619c.06013.035.12671.0515.19206.0515.12622 0 .24946-.0618.31928-.1738.10634-.17.04944-.3908-.12672-.4933l-3.29739-1.91573.65048-3.87931c0-.00024 0-.00048 0-.00048.04821-.28616.38215-.59028.90616-.59028.07553 0 .15355.00623.23232.01892.76974.1238 1.29773.68367 1.39563 1.06896.52277 2.05747.52277 2.05747.52277 2.05747.03851.15206.17492.26246.33692.27323 1.7005.10992 3.0524 1.3568 3.28795 3.03212.18908 1.3501-.46041 2.6944-1.65404 3.425-.13492.0826-.20026.2392-.162.3887z" fill="#4a4a4a"/></svg>