<svg fill="none" height="17" viewBox="0 0 17 17" width="17" xmlns="http://www.w3.org/2000/svg"><g fill="#4a4a4a"><path d="m5.64525.853842c-.0736-.104304-.23398-.337731-.35641-.371-.09979-.026976-.28458.128942-.36727.191345-.3393.256805-.68447.610363-.85358 1.015533-.11013.26382-.14257.46613-.12065.74631.01105.14136-.11939.27587-.2755.39492-.0032-.04082-.00463-.08164-.00908-.12264-.02157-.19854-.21171-.34223-.4022-.23289-.4701.26975-.67984.74973-.96621 1.179-.06487-.09891-.16056-.16797-.32059-.16797-.32165 0-.80778.1829-.8117.57925-.00677.67547.40683 1.3405.73294 1.90338.33644.58069.67307 1.50379.68037 2.2956-.11743-.15951-.23914-.31543-.3719-.46433-.14773-.16581-.37761-.05521-.44675.11905-.01355.03399-.02442.06708-.03654.10053-.03172-.07086-.06593-.14027-.09391-.21293-.06326-.15178-.25001-.26058-.39489-.16347-.06184-.15466-.11815-.31201-.1889-.46289-.119034-.25357-.422155-.46884-.598752-.6841-.220079-.26831-.596083.11582-.3779649.38143.3724409.45373.5859259.94.8936799 1.42897.068607.10899.231657.16132.349807.11114.08429.18272.17981.35698.3156.528.11886.14944.41895.07391.44675-.11905.0139-.09603.03136-.18649.05096-.27533.13704.18397.26641.37388.39597.56468.13097.19297.41574.16707.48862-.06438.22596-.71844-.00213-1.54748-.18693-2.25154-.13009-.49508-.3687-.93946-.62299-1.37844-.206-.35535-.36068-.72977-.48204-1.12181-.09052-.29259.1554-.28306.21955-.01385.04722.198.309.26076.44675.11905.31346-.32226.49754-.79559.78694-1.14627.00178.01888.00213.03741.00409.05629.02638.24242.26713.346.45638.19081.37529-.30788.65364-.36075.84592-.82077.06077-.14549 0-.52117.01907-.63716.05203-.31687.46261-.65622.721-.90709.26106.59202.59002 1.14052.98688 1.65395.37387.48321.89101.94701.41271 1.5437-.10995.13704-.24645.36885-.23202.55767.03707.48538.31186.75999.68073 1.05168.32184.25447.59448.47171.84058.80908.47241.64777.40416 2.02225-.74257 1.49569-.18283-.08398-.39649.01403-.4022.23289-.01194.46919.18284.75495.55564 1.01967.10923.07769.39667.00036.21811.07229-.12848.0518-.26552.09226-.37582.17912-.19567.1543-.22008.35144-.08037.55444.19353.2813.77464.1608.39008.5596-.35159.3647-.23594.8731-.21776 1.3463.03332.8645-1.7077.5231-2.16105.6445-1.14031.3054-1.56282 1.504-1.55872 2.5923.00124.348.53585.348.5346 0-.00356-.8999.31542-1.9639 1.34898-2.0947.61836-.0782 1.1658.0419 1.7601-.2084.28316-.1192.53923-.391.58076-.706.03777-.2871-.11637-1.0533.1741-1.2371.0932-.059.19067-.1595.22507-.2678.07716-.2428.10888-.5552-.09106-.7569-.12136-.1225-.23666-.1344-.28922-.1304.03492-.0108.10264-.0372.21312-.0964.21812-.11672.2837-.41542.19692-.62745-.15736-.38485-.63084-.1712-.81438-.47063.43552.06204.88976-.05089 1.17042-.4406.51126-.70927.16003-1.57608-.35996-2.18626-.30936-.36308-.68786-.60532-1.04159-.92004-.35266-.31363.23772-1.0202.27015-1.40073.03404-.39978-.26409-.79739-.49486-1.08693z"/><path d="m10.379 5.73207c-.38739.48214-.86229.87328-1.17343 1.40865-.12956.22264-.38902.63194-.27158.90763.12634.29709.74844.38125.85839.64507-.34713.16527-.86499-.00108-1.07313.39906-.15022.28845.2698.62187.45923.79181-.18622-.16706-.47526.23581-.52605.42211-.1292.4737.25625.4533.2673.8542.01515.5591-.21259.9643.14007 1.4638.34535.4892.87033.3978 1.3746.3345 1.0062-.126 1.9216.3151 2.2258 1.2985.1637.5292.2386 1.3602.0249 1.9224-.0499.1315-.0638.4512.0202.5638.0826.1106.2974.0431.3656-.0968.422-.8635.3014-2.0862-.044-2.9561-.448-1.1285-1.7845-1.3725-2.8642-1.2371-1.16189.1457-.62693-1.125-.75737-1.6993-.02388-.1043-.12278-.242-.21705-.2985-.23683-.1426-.0237-.0432.20066-.1185.27781-.0935.36673-.35877.30917-.62259-.02601-.11905-.15521-.22372-.23861-.29853.00535.00486.6112-.25105.7089-.31543.0608-.03992.0953-.09244.1115-.14836.0391-.04245.0647-.09999.0654-.17445.0022-.23036-.0347-.40894-.2318-.55659-.13258-.09945-.25447-.17821-.40701-.24295-.41467-.17606-.07734-.49959.08999-.7875.26872-.46218.71172-.85134 1.10272-1.20598.2062-.18703.6175-.46703.6045-.80368-.0161-.41453.4617-1.37449.3245-1.75772-.0752-.21004.135-1.20202.6347-.7794.2775.23468.4505.66035.5663.99287.1462.41973-.8097 1.61456-.5756 2.01757.2303.3969 1.1726.38611 1.0887.96572-.0975.67474-.2459 1.16192.4344 1.54874.6489.36884-.0472 1.19663.0314 1.66959.1042.62849.7167.74359.7766 1.46189.0281.3381-.3247.7307-.1705 1.0528.1623.3397-.0296.8101.1851 1.1203.2573.3717.6779.437.8513.9069.1634.4428.3159.8183.6313 1.1744.2301.2598.6068-.123.378-.3815-.417-.471-.4327-1.1286-.8593-1.5775-.2573-.2708-.6371-.159-.5282-.8013.0211-.1243.0282-.3068-.0408-.4214-.2181-.3616.1691-.9339.0576-1.391-.1454-.5962-.8506-1.03766-.6474-1.65288.1598-.48412.2185-.88857-.0464-1.34517-.0737-.12732-.2286-.20915-.3491-.2809-.4385-.26184-.2136-.767-.1627-1.11984.0521-.35949-.0596-.63356-.3195-.87346-.1375-.12714-.3271-.16185-.502-.19098-.459-.07643.3388-1.26047.3577-1.61888.0338-.64813-.5061-1.58507-1.135-1.86634.3552-.32208.8725-.4958 1.3458-.4307.3972.05467.5024.89216.6487 1.21245.1063.23271.4007.396.6044.51739.4708.28072-.4507 1.61744-.3359 2.02818.0469.16779.2126.27317.3502.35607.0966.04083.1926.08273.2883.12571.2094.09441-.1748.56019-.2534.66647-.3994.54131.1158 1.00924.3008 1.50864.1196.3228.6364.18307.5155-.14351-.1978-.53447-.5454-.86249-.1634-1.34193.1795-.22498.2873-.47998.208-.77114-.0695-.255-.3267-.38412-.545-.4762-.1787-.07535.4621-1.84008.327-2.06937-.2983-.50587-.8334-.46038-.9877-1.18871-.0829-.39114-.2693-.62978-.5879-.8553-.0488-.03453-.1016-.06114-.1561-.08416.4223-.544182 1.1987-.845766 1.5142.04496.0524.148.1514.32946.2878.41524.3426.21544.5576.17876.6345.67061.0537.34294.5687.19674.5156-.14351-.0676-.43215-.1266-.68859-.5462-.8535-.34-.13344-.4193-.417041-.5749-.708734-.098-.183792-.3177-.308418-.4929-.397077-.7508-.379992-1.5894.242958-1.9379.905471-.5617.0678-1.1722.42423-1.4613.75495-.065.07463-.0795.15897-.0631.23558-.4499.21527-.6969.98532-.6317 1.40002 0-.00018.3046.8098-.9092 2.32042z"/></g></svg>