<svg fill="none" height="20" viewBox="0 0 17 20" width="17" xmlns="http://www.w3.org/2000/svg"><g fill="#4a4a4a"><path d="m9.36782 4.02064c0-.09086-.06815-.15901-.15901-.15901s-.15901.06815-.15901.15901c.04544.86318.22716 1.70365.5906 2.5214.34073.81775.8178 1.54464 1.4084 2.18067.0227.02272.0681.04543.1135.04543.0455 0 .0682-.02271.1136-.04543.0682-.06815.0682-.15901 0-.22715-.5679-.61332-1.0222-1.31749-1.3402-2.08981-.34073-.72689-.52245-1.56736-.56788-2.38511z"/><path d="m9.23136 3.29372c-.04543-.02271-.09086-.04543-.13629-.04543s-.09086.04543-.11357.06815c-.40888.70417-2.29425 3.47544-2.70313 3.95246-.04543.04543-.04543.09086-.02271.15901.06814.22715.09086.27258.18172.47702l.04543.11358c.04543.13629.09086.20443.13629.31801.02272.04543.06815.09086.13629.09086.11358 0 .36345.04543.68146.09086 0 .02272-.02271.04543-.02271.06815l.06814.99947-.7496-.18172h-.02272c-.09086-.04543-.159-.06815-.22715-.09086-.15901 0-.2953 0-.4543 0-.06815 0-.1363.06815-.15901.13629 0 .06815.02271.11358.06814.15901l.22716.15901-.22716.159c-.04543.02272-.06814.06815-.06814.11361 0 .0454 0 .0908.02271.1135l.20444.2953-.22715.6588-.15901-1.11306.02272-.02272c.04543-.04543.04543-.11357.04543-.159l-.15901-.40888c0-.02271-.02272-.04543-.04543-.04543.04543 0 .09086-.02272.13629-.04543.54517-.22715.77232-.95404.49974-1.59007-.13629-.31802-.34073-.56789-.61332-.70418-.2953-.159-.59059-.18172-.86318-.06814-.22715.09086-.40887.2953-.52245.54516-.13629.31802-.11358.70418.02271 1.06762.18173.40888.49974.70418.86319.79504-.06815 0-.13629.06815-.13629.13629l-.06815.43159c0 .06815.02271.11361.06815.15901l.02271.0227.04543 1.1358-.34073-.6133.15901-.318c.02271-.0455.02271-.0909 0-.1363-.02272-.0455-.04543-.0682-.09086-.0909l-.27259-.11358.18173-.18172c.04543-.04543.04543-.11358.02271-.18172-.02271-.06815-.09086-.11358-.15901-.11358-.02271 0-.06814 0-.11357 0s-.09086 0-.11358 0l-1.59007-.06814-1.40835-1.97624c-.04543-.06814-.15901-.09086-.22715-.04543-.340733.24987-.704178.49974-1.0221923.77232-.0681459.04543-.068146.15901-.0227154.22716l1.6354977 2.04433c0 .0455.02272.0682.09087.1136l.04543.0227s.02271 0 .02271.0228c.09086.0454.22716.1135.40888.2044.02271 0 .04543.0227.06814.0227h.02272l1.40835-.0227c.04543 1.1812.13629 2.3624.20444 3.4754l-.8859 4.3614-1.24934.4543c-.09086.0227-.11358.1136-.09086.2044.02271.0682.09086.1136.159.1136h.04543l1.34021-.477c.04543-.0227.09086-.0682.09086-.1136l.90861-4.4749c0-.0227 0-.0227 0-.0455-.09086-1.1811-.15901-2.4078-.22715-3.6344 0-.0909-.06815-.1363-.15901-.159l-1.52193-.0227c-.20443-.0909-.31801-.159-.38616-.1817l-1.612783-1.99899c.249868-.20444.499737-.38616.772323-.56789l1.36292 1.90809c.02271.04543.06814.06814.11357.06814l1.56736.06815-.13629.13629c-.04543.04543-.04543.09091-.04543.13631s.04543.0908.09086.1136l.31801.1363-.11357.2271c-.02272.0454-.02272.0909 0 .1363l.70417 1.2493c.04543.0682.11358.0909.18172.0682.06815-.0227.11358-.0909.11358-.159l-.02272-1.86268c0-.04543-.02271-.09086-.06814-.11357l.04543-.20444.13629-.02272.06815.20444c-.04543.04543-.04543.09086-.04543.13629l.24986 1.83998c0 .0681.06815.1363.1363.1363.06814 0 .13629-.0455.159-.1136l.47702-1.3629c.02272-.0455 0-.1136-.02271-.1363l-.15901-.2045.2953-.18169c.04543-.02272.06815-.06815.06815-.13629 0-.04543 0-.06815-.02272-.09087.02272.02272.04543.02272.06815.02272l.97676.22715c.04543.02272.09086 0 .13629-.02271.04543-.02272.06814-.09086.04543-.13629l-.09086-1.20392.97676.15901c0 .02272-.02272.04543-.02272.06815l.02272 1.49924v.1363c-.1363.1135-.45431.3634-.5906.477l-1.1812-.3635c-.04543-.0227-.11358 0-.15901.0228-.04543.0454-.06814.0908-.04543.1362.15901 1.2948.2953 2.4533.40888 3.5209v.0454c.09086.2726.22715.6588.36344 1.0677.31802.795.34074 1.4765.36345 2.0898 0 .318.02272.5906.06815.8859 0 .0454.02271.0908.06814.1136l1.31749.954c.02272.0227.06815.0227.09086.0227.04543 0 .09086-.0227.13629-.0681.04543-.0682.04543-.1818-.04543-.2272l-1.27205-.9086c-.02272-.2499-.04544-.4997-.04544-.7723-.02271-.6361-.02271-1.3402-.36344-2.1807-.13629-.4089-.27258-.7723-.36345-1.0449-.09086-.9995-.22715-2.0671-.38616-3.271l1.02219.318c.04543.0227.11358 0 .15901-.0227.36345-.2953.56788-.4543.68146-.5679.02271 0 .04543-.0227.04543-.0227v-.0227c.11358-.1136.09086-.1363.04543-.1817l-.02271-1.61283c1.113.20444 2.1125.40888 2.4987.49974h.0454c.0227 0 .0682 0 .0909-.02272.0454-.02271.0681-.06814.0681-.11357.0909-1.09034-.1136-2.2261-.5224-3.22558-.4316-1.09033-1.0904-1.99894-1.93084-2.70312zm-6.88274 7.29158v.0682zm2.18067-2.18063c-.11357-.27259-.11357-.56789-.02271-.81775.06814-.18173.18172-.2953.34073-.36345.06814-.02272.15901-.04543.22715-.04543.11358 0 .22715.02272.36345.09086.20443.11358.38616.31802.47702.54517.20444.49974.06814 1.02219-.31802 1.1812-.38616.18172-.86318-.09087-1.06762-.5906zm6.86001.54516c-.5679-.13629-1.6582-.34073-2.52138-.49973l-1.27206-.22716c-.31801-.04543-.56788-.09086-.72689-.11357-.02271-.06815-.06814-.13629-.09086-.22716l-.04543-.11357c-.06815-.15901-.09086-.22716-.13629-.38616.47702-.61332 2.04438-2.88485 2.56683-3.77074.7496.65874 1.31748 1.47649 1.70368 2.40782.3861.93133.5678 1.9308.5224 2.93027z"/><path d="m6.68703 16.2642v-.0227l-.70418-1.9081c-.02271-.0682-.09086-.1136-.159-.1136l-.27259.0227c-.06814 0-.13629.0454-.13629.1136-.06814.318-.70417 3.1574-1.09033 4.6339-.02272.0909.02271.1817.11357.2044h.04543c.06815 0 .1363-.0454.15901-.1135.36345-1.363.93133-3.9071 1.06762-4.5204h.02272l.65874 1.7718c.04543.2726.11358.795.15901 1.2721.02271.2726.06814.5679.09086.795 0 .0909.09086.1363.18172.1363s.15901-.0909.13629-.1817c-.02271-.2499-.06814-.5225-.09086-.7951-.06815-.4997-.13629-1.0222-.18172-1.2947z"/><path d="m16.8412 5.83781h-.477v-.47702c0-.09086-.0681-.15901-.159-.15901s-.159.06815-.159.15901v.47702h-.477c-.0909 0-.159.06815-.159.15901s.0681.15901.159.15901h.477v.47702c0 .09086.0681.159.159.159s.159-.06814.159-.159v-.47702h.477c.0909 0 .159-.06815.159-.15901s-.0681-.15901-.159-.15901z"/><path d="m11.1395.954043h.477v.477017c0 .09087.0681.15901.159.15901s.159-.06814.159-.15901v-.477017h.477c.0909 0 .159-.068146.159-.159007s-.0454-.159007-.1363-.159007h-.477v-.477022c0-.0908611-.0681-.159007-.159-.159007-.0908 0-.1817.0681459-.1817.159007v.477022h-.477c-.0909 0-.159.068146-.159.159007s.0681.159007.159.159007z"/><path d="m10.5259 3.54361c.0227 0 .0455.02271.0682.02271.0681 0 .1135-.02271.1363-.09086l.2498-.52245c.0455-.06815 0-.18172-.0681-.20444-.0682-.04543-.1817 0-.2045.06815l-.2498.52245c-.0455.09086-.0227.18172.0681.20444z"/><path d="m11.1846 1.7718-.1136.24987c-.0454.06814 0 .18172.0682.20443.0227 0 .0454.02272.0681.02272.0682 0 .1136-.02272.1363-.09086l.1136-.24987c.0454-.06815 0-.18172-.0682-.20444-.0681-.04543-.1817 0-.2044.06815z"/><path d="m14.524 2.68042c-.0682-.06815-.159-.06815-.2272-.02272l-2.7258 2.33968c-.0682.06814-.0682.159-.0227.22715.0227.04543.0681.04543.1135.04543.0455 0 .0682-.02271.1136-.04543l2.7259-2.33968c.0681-.04543.0681-.13629.0227-.20443z"/><path d="m12.8884 6.542-.5679.11358c-.0908.02271-.1363.11357-.1135.18172.0227.06815.0908.13629.159.13629h.0227l.5679-.11358c.0908-.02271.1363-.11357.1135-.18172-.0227-.09086-.0908-.15901-.1817-.13629z"/><path d="m14.2971 6.24671-.5679.11358c-.0908.02271-.1363.11358-.1135.18172.0227.06815.0908.13629.159.13629h.0227l.5679-.11357c.0908-.02272.1362-.11358.1135-.18173-.0227-.09086-.0908-.159-.1817-.13629z"/><path d="m16.2503 9.0407-3.8389-1.09033c-.0909-.02272-.1817.02271-.2044.11358-.0228.09086.0227.18172.1135.20443l3.8389 1.09034h.0455c.0681 0 .1362-.04543.159-.11358 0-.09086-.0455-.18172-.1136-.20444z"/></g></svg>