<svg fill="none" height="11" viewBox="0 0 23 11" width="23" xmlns="http://www.w3.org/2000/svg"><path d="m10.1463 7.95959c.1595-.0595.3094-.152.4379-.27957.4875-.48171.4869-1.26636-.0005-1.74859l-2.95957-2.92739.94816-.3227c.66292-.22578 1.0435-.70073 1.04298-1.30144-.00027-.681764-.56076-1.236219-1.25047-1.236479-.00315-.00026-3.8499-.14368047-3.85227-.14342065-1.20634 0-2.33915.46455765-3.1917 1.30766965-1.761062 1.7421-1.761062 4.57647-.00027 6.31857l3.04515 3.01236c.48721.482 1.28068.4817 1.76763.0002.12685-.1254.22009-.2715.28103-.4274l.06698.0663c.48721.482 1.28041.4817 1.76736 0 .1371-.1356.23507-.29567.29469-.46638.48038.28708 1.1152.22708 1.5294-.18265.4617-.45598.4856-1.18348.0735-1.66908zm-1.31294 1.14762-3.67366-3.63436c-.14551-.14394-.38216-.1442-.52714 0-.14603.14394-.14629.377-.00026.52146l3.09006 3.05704c.1962.19409.19672.51029 0 .70489-.19646.19383-.5161.19383-.7123-.00052l-3.09033-3.05652c-.14577-.14446-.38162-.1442-.52739 0-.14577.14446-.14577.37778 0 .52172l2.21412 2.1908c.19673.19461.19699.51081.00027.70518-.19647.1941-.51611.1941-.71283-.0005l-3.04436-3.01266c-1.470046-1.45421-1.470571-3.82013 0-5.27461.7102-.70255 1.65468-1.089681 2.65931-1.09124l3.87433.14316c.27001.009614.48643.22994.48617.49911.00078.3466-.29365.51912-.53949.60331l-1.29249.43987-.36954-.36557c-.14551-.14394-.38137-.1442-.52688 0-.14577.14421-.1455.37752 0 .52198l.51978.51367c-.00052.00052 0 .00052 0 .00052l3.39557 3.35895c.1972.19409.1969.51107.0005.70489-.19648.19435-.51613.19461-.71285 0l-2.94403-2.91206c-.1455-.1442-.38162-.1442-.52713 0s-.14577.37804-.00026.52172l3.6734 3.6341c.19646.19409.19698.51029 0 .70489-.19699.19461-.51663.19487-.71257.00078zm9.62684-9.0386172c-.001-.0002598-3.8249.0748282-3.8249.0748282-.3339-.00026-.6477.129131-.8836.362449-.2358.233318-.3666.54406-.3664.87403-.0002.60097.379 1.07514 1.0611 1.30768l.9708.27515-3 2.96844c-.4872.48197-.488 1.26662-.0005 1.74885.1284.12679.2784.21903.4378.27931-.4121.48534-.3884 1.21284.073 1.66934.4137.40943 1.048.46973 1.5286.18291.0602.16967.1574.33022.2947.46582.487.482 1.2802.4817 1.7671 0l.0678-.0665c.0607.1559.1539.3017.2802.4277.4875.4822 1.2807.4814 1.7679-.0005l3.0452-3.01212c1.7613-1.74236 1.7613-4.57647.0002-6.31857-.8073-.798422-1.9507-1.2388172-3.219-1.2388172zm2.6914 7.0356672-3.0449 3.01214c-.1965.1946-.5161.1946-.7123.0005-.1962-.19437-.1967-.51083-.0003-.70518l2.2147-2.19054c.1458-.14446.146-.3783.0002-.5225-.1455-.1442-.3816-.14368-.5274.00078l-3.0903 3.0573c-.1964.19331-.5161.19331-.7123-.00104-.1967-.1946-.197-.50976-.0005-.70411l3.0903-3.05704c.1455-.1442.1466-.37778.0008-.52172-.1463-.14394-.3821-.14394-.5284 0l-3.6732 3.63488c-.1964.19305-.5158.19383-.712-.00026-.1967-.1946-.197-.51158-.0008-.70489l3.6737-3.63436c.1457-.1442.1462-.37804.0005-.52198-.1455-.14394-.3819-.14368-.5279.00052l-2.9449 2.91102c-.1962.19409-.5158.19461-.7125 0-.1962-.19382-.1965-.50976.0005-.70489l3.2928-3.25814.753.21357c.1983.05612.4043-.05716.4615-.25307.0567-.19564-.0572-.40038-.2558-.45624l-2.5256-.71528c-.2461-.08471-.539-.25697-.5387-.60383-.0003-.27489.2258-.49833.5108-.49885l3.8197-.075088c1.0687.001039 2.0235.364008 2.6901 1.023168 1.4697 1.45422 1.4695 3.82066-.0008 5.27513z" fill="#4a4a4a"/></svg>