<svg fill="none" height="20" viewBox="0 0 17 20" width="17" xmlns="http://www.w3.org/2000/svg"><g fill="#4a4a4a"><path d="m4.23991 18.2064c-.29766 0-.45187-.168-.5644-.2904-.09674-.1053-.14017-.1483-.24107-.1483-.10047 0-.14368.0428-.24019.1483-.11231.1226-.26608.2904-.56375.2904-.29744 0-.45143-.168-.56352-.2904-.09652-.1053-.13973-.1483-.24019-.1483-.10047 0-.14346.0428-.2402.1483-.11231.1226-.26607.2904-.56352.2904-.297444 0-.451431-.168-.563741-.2904-.096516-.1055-.13951-.1483-.239974-.1483-.121084 0-.219355-.0981-.219355-.2194s.098271-.2193.219355-.2193c.297445 0 .451213.168.563523.2904.096516.1053.139728.1483.240192.1483.10047 0 .14346-.0428.24019-.1483.11231-.1226.26608-.2904.56353-.2904.29744 0 .45143.168.56352.2904.09652.1053.13973.1483.24019.1483.10047 0 .14368-.0428.2402-.1483.11231-.1226.26607-.2904.56374-.2904.29766 0 .45187.1678.56418.2902.09674.1055.14017.1485.24107.1485s.14412-.0428.24107-.1483c.11253-.1224.26674-.2904.5644-.2904.12109 0 .21936.098.21936.2193s-.09827.2194-.21936.2194c-.1009 0-.14411.0428-.24107.1483-.11231.1224-.2663.2904-.56418.2904z"/><path d="m15.2077 18.2064c-.2977 0-.4519-.168-.5644-.2904-.0965-.1053-.14-.1483-.2409-.1483-.1004 0-.1437.0428-.2404.1483-.1125.1226-.2663.2904-.5637.2904-.2975 0-.4515-.168-.5636-.2904-.0965-.1053-.1397-.1483-.2401-.1483-.1214 0-.2194-.0981-.2194-.2194s.098-.2193.2194-.2193c.2974 0 .4514.168.5635.2904.0965.1053.1397.1483.2402.1483.1004 0 .1436-.0428.2404-.1483.1125-.1226.2663-.2904.5637-.2904.2975 0 .4517.1678.564.2902.0969.1055.1404.1485.2413.1485s.1441-.0428.2408-.1483c.1126-.1224.2668-.2904.5644-.2904.1213 0 .2194.098.2194.2193s-.0981.2194-.2194.2194c-.1009 0-.1441.0428-.2413.1485-.1123.1224-.2663.2902-.5639.2902z"/><path d="m9.50455 19.0838c-.29767 0-.45187-.168-.5644-.2904-.09652-.1053-.13995-.1483-.24085-.1483-.10047 0-.14368.0428-.24042.1483-.11231.1226-.26629.2904-.56374.2904-.29744 0-.45143-.168-.56352-.2904-.09652-.1053-.13973-.1483-.24019-.1483-.12109 0-.21936-.098-.21936-.2193s.09827-.2194.21936-.2194c.29744 0 .45143.168.56352.2904.09651.1053.13973.1483.24019.1483.10047 0 .14368-.0427.24041-.1483.11231-.1226.2663-.2904.56375-.2904.29744 0 .45165.1678.56396.2902.09695.1055.14039.1485.24129.1485s.14411-.0427.24085-.1483c.11253-.1224.2667-.2904.5644-.2904.1213 0 .2194.0981.2194.2194s-.0981.2193-.2194.2193c-.1009 0-.1441.0428-.2413.1485-.1123.1224-.26629.2902-.56395.2902z"/><path d="m14.9157 5.26448c-.1004 0-.1912-.06954-.214-.17176-.1207-.54334-.3578-.91405-.7044-1.10204-.5447-.29569-1.1915-.05856-1.1979-.05615-.1134.04211-.24-.01492-.2825-.12832-.0424-.11341.0149-.23976.1283-.28253.0342-.01273.8425-.3082 1.5611.08138.4633.25116.7739.7197.9237 1.39268.0262.11823-.0484.23537-.1667.26169-.0158.00329-.0318.00505-.0476.00505z"/><path d="m13.6002 6.58061c-.0202 0-.0404-.00286-.0603-.00856-.1165-.03334-.1841-.15464-.151-.27112.3721-1.30165-.8925-1.68728-.9465-1.70307-.116-.034-.1831-.15531-.1496-.27156.0334-.11604.1542-.18338.2705-.15004.0178.00504.4378.12766.8009.46042.3457.31697.7039.884.4466 1.78489-.0275.0963-.1152.15904-.2106.15904z"/><path d="m12.2836 3.50945c-.0441 0-.0889-.01338-.1275-.04102-.0983-.07041-.1213-.20707-.0507-.30556.4219-.59094 1.532-1.50083 2.713-.71312.1009.06712.1281.20334.0608.30424-.0674.10047-.2034.12811-.3043.06076-1.1224-.74822-2.0729.54795-2.113.60323-.0428.05966-.1099.09147-.1783.09147z"/><path d="m11.626 3.50959c-.1208 0-.2189-.09783-.2193-.21869-.0011-.13491-.054-1.31679-1.53549-1.31679-.1213 0-.21935-.09827-.21935-.21935 0-.12109.09805-.21936.21935-.21936 1.95159 0 1.97419 1.73729 1.97419 1.75484 0 .12108-.098.21935-.2194.21935z"/><path d="m10.9681 3.94839c-.0801 0-.1573-.04387-.1959-.11999-.0377-.07217-.385-.68395-1.25843-.33429-.11143.04474-.2402-.00966-.28516-.12218-.04497-.11253.00987-.2402.1224-.28517 1.01579-.40602 1.63019.17834 1.81319.54422.0542.10836.0103.2402-.0981.29438-.0315.01557-.0651.02303-.098.02303z"/><path d="m16.2324 15.3548h-1.9952c-.881-2.1594-2.9701-3.6155-5.28561-3.687-.16715-.8364-.73944-4.91768 3.24031-7.7603.0985-.07041.1215-.20751.0509-.306-.0702-.09849-.2073-.12108-.306-.05111-2.60814 1.86298-3.36008 4.24013-3.51363 5.98795-.53479-2.58159-1.8292-6.56682-4.83239-7.76801-.11275-.04431-.23997.00987-.28516.12218-.04497.11253.00965.24019.12218.28516 3.85406 1.54141 4.7589 8.30673 4.88942 9.50113-2.20276.1748-4.16028 1.6035-5.00568 3.676h-1.55654c-.12108 0-.21936.098-.21936.2193s.09828.2194.21936.2194h1.70175 10.63525 2.1404c.1213 0 .2194-.0981.2194-.2194s-.0981-.2193-.2194-.2193zm-12.44815 0c.87501-1.9598 2.8413-3.2553 4.9901-3.2553 2.14885 0 4.11515 1.2955 4.99035 3.2553z"/><path d="m1.09695 1.75487c-.07458 0-.14719-.03794-.188209-.10638-.062297-.10398-.028736-.23866.075238-.30096 1.209301-.725624 2.177971-.01798 2.218771.01272.09696.07261.11648.21015.04387.3071-.07216.09652-.20904.1167-.30621.04453-.03203-.02325-.78047-.55804-1.73049.01207-.03554.02083-.07459.03092-.11297.03092z"/><path d="m1.66319 3.6786c-.01031 0-.02084-.00066-.03137-.0022-.11999-.01711-.20334-.1281-.18623-.24809.15223-1.06804 1.04281-1.38522 1.49249-1.40387.12284-.00439.2233.08906.22834.21014.00505.12065-.08839.22265-.20904.22835-.03817.00197-.93906.05879-1.07747 1.02746-.01536.10924-.10924.18821-.21672.18821z"/><path d="m3.29056 4.60643c-.07458 0-.14719-.03795-.18821-.10638-.60103-1.0018-.08226-1.77458.27573-2.04307.0974-.07283.23471-.05287.3071.04387.0726.09651.0533.23339-.04278.30644-.07348.05659-.69886.57558-.16385 1.46704.06229.10397.02873.23866-.07524.30096-.03532.02105-.07436.03114-.11275.03114z"/><path d="m3.72873 1.53545c-.09827 0-.18755-.06647-.21256-.16606-.09432-.377066-.04474-1.147221.81776-1.36284675.11735-.02917415.23668.04189645.26608.15968975.02939.117574-.04212.236684-.15969.266078-.646.161445-.51549.762699-.49838.830699.0294.11757-.04211.23668-.15969.26608-.01799.00438-.03575.00636-.05352.00636z"/><path d="m4.38723 1.97419c-.01185 0-.02413-.00087-.03642-.00307-.11932-.01996-.20027-.13293-.1803-.25247.0046-.02742.11757-.67299.6381-.986444.32442-.195225.72255-.216503 1.1832-.063174.11494.038387.17702.162542.13863.277484-.03817.114724-.1621.177454-.27748.138634-.3332-.111214-.60871-.103537-.8182.02281-.34351.20685-.43081.67803-.43147.68263-.01777.10749-.11077.1836-.21606.1836z"/><path d="m3.29048 8.7742c-.96757 0-1.75484-.78726-1.75484-1.75483 0-.96758.78727-1.75484 1.75484-1.75484.96758 0 1.75484.78726 1.75484 1.75484 0 .96757-.78726 1.75483-1.75484 1.75483zm0-3.07096c-.72584 0-1.31613.59028-1.31613 1.31613 0 .72584.59029 1.31612 1.31613 1.31612.72585 0 1.31613-.59028 1.31613-1.31612 0-.72585-.59028-1.31613-1.31613-1.31613z"/><path d="m14.6966 8.00647c-.1801 0-.3387.0884-.4387.22264-.1001-.13424-.2587-.22264-.4387-.22264-.0606 0-.1097.04914-.1097.10968s.0491.10967.1097.10967c.1814 0 .329.14763.329.32904 0 .06054.0491.10967.1097.10967.0605 0 .1096-.04913.1096-.10967 0-.18141.1477-.32904.3291-.32904.0605 0 .1096-.04913.1096-.10967s-.0491-.10968-.1096-.10968z"/><path d="m16.8904 5.81287c-.1801 0-.3387.0884-.4387.22264-.1-.13424-.2586-.22264-.4387-.22264-.0605 0-.1097.04913-.1097.10967 0 .06055.0492.10968.1097.10968.1814 0 .329.14763.329.32903 0 .06055.0492.10968.1097.10968s.1097-.04913.1097-.10968c0-.1814.1476-.32903.329-.32903.0606 0 .1097-.04913.1097-.10968 0-.06054-.0491-.10967-.1097-.10967z"/></g></svg>