<svg fill="none" height="18" viewBox="0 0 17 18" width="17" xmlns="http://www.w3.org/2000/svg"><g fill="#4a4a4a"><path d="m8.55216 10.2447-.79586-.79567c.26629-.30616.41316-.69267.41316-1.10222 0-.44982-.17532-.8728-.49351-1.19098-.31798-.31799-.74076-.49311-1.19038-.49311-.22341 0-.44081.04328-.64659.12864-.07734.03185-.13345.10038-.14968.18233-.01643.08215.00942.16691.06853.22602l.7602.76019-.42018.41997-.75999-.76019c-.05911-.05911-.14386-.08556-.22581-.06853-.08196.01623-.15048.07233-.18254.14947-.26248.63216-.11942 1.35349.36427 1.83738.31818.31818.74116.4933 1.19099.4933.31998 0 .62534-.08996.88983-.25527l.86178.86157-.3801.4725c-.15468-.0794-.3264-.1242-.50172-.1242-.33341 0-.64518.148-.85537.4063l-1.089 1.3373-.20758.2548c-.3835.4715-.31197 1.167.15909 1.5505.19616.1597.44302.2476.69548.2476.33321 0 .64498-.148.85537-.4063l1.29638-1.5921c.32359-.3978.31999-.9536.02845-1.3487l.35525-.4416.90026.9c-.16551.2647-.25567.5701-.25567.8899 0 .45.17532.873.4935 1.1909.31778.318.74038.4929 1.19018.4931h.0002c.2232 0 .4408-.0434.6468-.1288.0771-.0321.1332-.1006.1495-.1825.0164-.082-.0094-.1667-.0686-.2258l-.7602-.76.42-.42.7602.76c.0589.0593.1435.0849.2258.0685.0822-.0162.1507-.0723.1826-.1497.2624-.6321.1192-1.3532-.3645-1.8369-.3182-.3182-.7412-.4935-1.191-.4935-.4095 0-.7961.1466-1.10201.4129l-.91108-.9111 1.86099-2.314.0728.0561.6001-.78003c.1096-.14226.0827-.34643-.0595-.45583l-.0393-.03006c-.1423-.1096-.3465-.08295-.4559.05931l-.6001.78003.085.06532zm-2.90413-1.06095c-.24044-.24064-.36106-.56484-.34584-.89124l.61854.61854c.09758.09758.25607.09798.35425 0l.77422-.77402c.04689-.04689.07334-.11061.07334-.17713 0-.06632-.02645-.13004-.07334-.17712l-.61793-.61794c.3314-.01402.6544.1092.89043.34523.22361.22362.34664.52096.34664.83694s-.12303.61333-.34664.83694c-.22341.22341-.52075.34643-.83693.34643-.31619 0-.61333-.12322-.83674-.34663zm.03025 4.96275c-.25707-.2092-.29614-.5887-.08695-.846l.0549-.0675.94613.7427-.06852.0842c-.20237.2489-.5957.2903-.84556.0866zm2.14194-1.6787-.91148 1.1194-.94613-.7427.92509-1.1361c.11461-.1409.28473-.2216.46666-.2216.13946 0 .2707.0467.3791.1348.25727.2094.29614.5889.08676.8462zm3.10128-.8678c.3162 0 .6133.1232.8369.3466.2405.2405.3613.5647.3459.8911l-.6186-.6184c-.0977-.0978-.2562-.0978-.3542 0l-.774.774c-.0469.0469-.0734.1108-.0734.1772 0 .0665.0265.13.0734.1771l.6179.6177c-.018.001-.0363.0014-.0543.0014-.0002 0-.0002 0-.0002 0-.316 0-.6129-.123-.8361-.3464-.22344-.2234-.34666-.5208-.34666-.8369 0-.316.12322-.6134.34666-.837.2234-.2232.5207-.3464.8367-.3464z"/><path d="m16.896 5.99871-8.24953-5.9515234c-.08776-.0629155-.20538-.0629155-.29314 0l-8.249339 5.9515234c-.0651196.04709-.103991.12262-.103991.20317v2.1213c0 .06652.0266489.13043.0737353.17752.0468857.04669.1104027.07294.1767247.07294h.001002l1.551848-.00642v8.46438c0 .1382.11221.2504.25046.2504h12.89243c.1383 0 .2505-.1122.2505-.2504v-8.46438l1.5518.00642h.001c.0664 0 .1297-.02625.1768-.07294.0471-.04688.0737-.111.0737-.17752v-2.1213c0-.08035-.0387-.15588-.104-.20317zm-.3969 2.073-1.5519-.00641c-.0002 0-.0006 0-.001 0-.0661 0-.1296.02625-.1767.07294-.0471.04688-.0737.111-.0737.17752v8.46534h-12.39157v-8.46534c0-.06652-.02665-.13044-.07374-.17752-.04688-.04669-.1104-.07294-.17672-.07294-.0004 0-.0008 0-.001 0l-1.551851.00641v-1.74159l7.999081-5.770994 7.9991 5.770994z"/></g></svg>