<svg fill="none" height="17" viewBox="0 0 17 17" width="17" xmlns="http://www.w3.org/2000/svg"><path d="m16.0559 11.9883c.0423.1285.1625.2146.2971.2146h.0084c.1376 0 .2571-.0322.2933-.1654 1.9611-7.21792-5.0586-11.714338-5.3557-11.714338-.0004 0-.0006 0-.0006 0-.0044 0-.0121-.072667-.0133-.073381-.0011-.000535-.0018-.03303-.0033-.033566-.2021-.1299789-.4349-.216215-.6747-.216215-.4201 0-.80966.200682-1.04177.55009l-9.355101 14.04841c-.1853272.2782-.2512095.6096-.1853272.9374.0657037.3274.2549592.6076.5327712.7925.206396.1375.445647.21.692207.21.42029 0 .80952-.2091 1.0418-.5581l2.77241-4.1638 1.23605.8227c.1673.1116.36191.1705.56241.1705.34138 0 .65775-.1692.84594-.4528l.08695-.1301c.31049-.4664.18372-1.0984-.28263-1.4091l-1.23623-.8227 3.72352-5.59303c4.4559 2.86668 6.0404 7.53843 6.0558 7.58633zm-4.4084-10.06093c.1203-.18086.1816-.38262.1985-.5858 1.6967 1.31158 5.1917 4.65532 4.4167 9.48883-.7121-1.57546-2.4825-4.73549-5.9178-6.94656zm-4.48107 9.41083c.1789.1196.22782.3624.10856.5417l-.08677.1303c-.11499.173-.36745.2248-.54188.1087l-1.23605-.823.23996-.3607.27995-.4201zm-1.58796-1.42979-.87093 1.30139v.0009l-2.94078 4.4236c-.18389.2767-.58472.3606-.864678.1739-.138906-.0925-.232641-.2339-.265314-.3975-.032852-.1639.00125-.3304.093913-.4695l9.354919-14.053128c.1162-.174972.3116-.279063.5217-.279063.1228 0 .2423.036423.3458.104805.2866.191041.3648.580266.1741.867356z" fill="#4a4a4a"/></svg>