<svg fill="none" height="17" viewBox="0 0 13 17" width="13" xmlns="http://www.w3.org/2000/svg"><g fill="#4a4a4a"><path d="m3.47401 4.99522c.14389 0 .24667-.10278.24667-.24667v-.22612c0-.1439-.12334-.24667-.24667-.24667-.04112 0-.08223.02055-.10279.04111l-.14389.10278-.18501-.10278c-.02055-.02056-.06167-.02056-.10278-.02056-.14389 0-.24667.10278-.24667.24668v.22611c0 .16445.16445.28779.30834.24668l.22612-.06167.18501.06167c.02056-.02055.04111-.02056.06167-.02056z"/><path d="m3.20698 5.92019c.10218 0 .18501-.08283.18501-.18501 0-.10217-.08283-.18501-.18501-.18501-.10217 0-.18501.08284-.18501.18501 0 .10218.08284.18501.18501.18501z"/><path d="m3.20698 6.66018c.10218 0 .18501-.08284.18501-.18501 0-.10218-.08283-.18501-.18501-.18501-.10217 0-.18501.08283-.18501.18501 0 .10217.08284.18501.18501.18501z"/><path d="m3.20698 7.40028c.10218 0 .18501-.08283.18501-.185 0-.10218-.08283-.18501-.18501-.18501-.10217 0-.18501.08283-.18501.18501 0 .10217.08284.185.18501.185z"/><path d="m1.80915 5.6735c0-.34946-.28779-.63725-.63724-.63725-.34946 0-.637242.28779-.637242.63725 0 .34945.287782.63724.637242.63724.34945 0 .63724-.28779.63724-.63724zm-.842806 0c0-.12334.102786-.22612.226116-.22612.12334 0 .22612.10278.22612.22612s-.10278.22612-.22612.22612c-.12333 0-.226116-.12334-.226116-.22612z"/><path d="m3.20681 3.63846c.86336 0 1.56226-.69891 1.56226-1.56227s-.6989-1.562274-1.56226-1.562274c-.86337 0-1.56228.698914-1.56228 1.562274s.69891 1.56227 1.56228 1.56227zm0-2.692862c.63724 0 1.15114.513902 1.15114 1.151152 0 .63724-.5139 1.15115-1.15114 1.15115-.63725 0-1.15115-.51391-1.15115-1.15115 0-.63725.5139-1.151152 1.15115-1.151152z"/><path d="m5.69384 2.67231c.12334 0 .20557-.08223.20557-.20556 0-1.33616.6578-2.055626 1.87061-2.055626 1.19226 0 1.87062.740026 1.87062 2.055626 0 .12333.08223.20556.20556.20556.12334 0 .2056-.08223.2056-.20556 0-1.54172-.84284-2.46675-2.28178-2.46675-1.41838 0-2.28174.92503-2.28174 2.46675 0 .10278.08223.20556.20556.20556z"/><path d="m12.7037 16.2395-3.94675-8.57194.47279-1.33616c.04112-.10278-.02055-.22612-.12334-.26723-.10278-.04112-.22611.02055-.26722.12334l-.49335 1.41837c-.02056.04112-.02056.10279 0 .1439l3.96737 8.59252c-.0206.1439-.1234.2878-.2467.2878s-.2261-.1234-.2261-.2673c0-.3905-.2878-.6783-.6373-.6783-.3083 0-.555.2878-.555.6783 0 .1645-.0822.2673-.1439.2673-.0616 0-.1439-.1234-.1439-.2673 0-.3905-.2261-.6783-.53443-.6783-.30834 0-.55501.2878-.55501.6783 0 .1439-.08223.2673-.1439.2673s-.12334-.1234-.12334-.2673c0-.3905-.22611-.6783-.55501-.6783-.30834 0-.55502.2878-.55502.6783 0 .1645-.08223.2673-.1439.2673s-.12333-.1234-.12333-.2673c0-.3905-.24668-.6783-.55502-.6783s-.55502.2878-.55502.6783c0 .1645-.08222.2673-.14389.2673s-.1439-.1234-.1439-.2673c0-.3905-.22611-.6783-.55501-.6783-.30834 0-.55502.3083-.55502.6783 0 .1439-.08223.2673-.1439.2673s-.12333-.1234-.12333-.2673c0-.0205 0-.0616 0-.0616-.04111-.3289-.30835-.6167-.59614-.6167-.3289 0-.59612.2672-.63723.5961v.0822c0 .1439-.10279.2673-.22612.2673-.10278 0-.20557-.1439-.22612-.2878l3.39177-7.00969c.28779-.04111.43168-.185.51391-.30834.30834-.43168.10278-1.11004.08222-1.19227l-.92503-2.85731c-.02055-.06167-.06167-.24668-.20556-.43168h3.82346v4.97461c0 .12333.08222.20556.20557.20556.1233 0 .2056-.08223.2056-.20556v-5.09795c0-.14389-.1028-.28779-.32895-.28779h-4.29625c-.06166 0-.10278 0-.12333.02056-.20557-.08222-.43168-.12334-.69891-.12334h-.71947c-.12334 0-.20557.08223-.20557.20556v2.87788c0 .08222-.04111.45224-.6578.45224-.61668 0-.65779-.39058-.65779-.4728l-.02056-2.87787c0-.12334-.08222-.20557-.20556-.20557h-1.21282c-.390566.02056-1.13059.28779-1.13059 1.06893v5.11853c0 .1644.14389.6167.760577.6167.164449 0 .308343-.0206.411123-.0617v5.3035c-.02056.0617-.02055.1233-.02055.2056 0 .0616.02055.1027.06167.1439.04111.0616.10277.0822.16444.0822h1.41839c.08222.2672.28778.5139.59613.5139.34945 0 .63724-.3084.63724-.6784v-.0205c.02056-.1439.10278-.2467.22611-.2467.06167 0 .18502.1028.18502.2467v.0205c0 .3906.22611.6784.53445.6784.30835 0 .55502-.3084.55502-.6784 0-.1644.08223-.2672.1439-.2672s.14389.1233.14389.2672c0 .3906.22612.6784.55502.6784.30834 0 .55501-.3084.55501-.6784 0-.1439.08223-.2672.1439-.2672s.1439.1233.1439.2672c0 .3906.22611.6784.53445.6784.30835 0 .55502-.3084.55502-.6784 0-.1439.08223-.2672.1439-.2672s.14389.1233.14389.2672c0 .3906.24668.6784.55502.6784s.55501-.3084.55501-.6784c0-.1439.08223-.2672.1439-.2672s.12334.1233.12334.2672c0 .3906.22613.6784.55503.6784.3083 0 .555-.3084.555-.6784 0-.1439.0822-.2672.1439-.2672.1233 0 .2261.1233.2261.2672 0 .3906.2878.6784.6373.6784.3494 0 .6578-.3495.6578-.74-.0206.0411-.0206.0205-.0412-.0206zm-11.14143-.1028c.10279-.2878.49335-.3289.6578-.3289.14389 0 .49335.0206.61669.2672l-.04111.0823c0-.0206-1.23338-.0206-1.23338-.0206zm4.52237-6.78354-1.00726 2.07614v-2.07614zm-1.80895-2.22007v-2.67231h.51391c.22612 0 .43168.04112.59613.12334.02055.02056.04111.02056.06167.02056.3289.18501.37001.47279.39057.47279v.02056l.92503 2.85731c.04111.1439.14389.59613-.02056.82225-.06167.10278-.16445.1439-.3289.1439h-.02055-2.09674c-.10278-.18501-.26723-.61669-.02056-.96615h1.23338.37001c.12334 0 .20556-.08222.20556-.20556s-.08222-.20556-.20556-.20556h-.37001-1.3156c-.02056 0-.02056 0-.04112 0 .08223-.12334.12334-.28779.12334-.41113zm-3.535665 3.30951c-.308343 0-.349458-.1644-.349458-.2055v-5.11851c0-.59613.719473-.65781.740023-.65781h.9867l.02056 2.67231c0 .30835.22612.86337 1.06892.86337.28779 0 .51391-.06168.67835-.16446-.37001.63725.10279 1.39783.12334 1.43894.04112.06167.10278.10278.16445.10278h.49335v2.91898l-1.35671 2.7957v-3.4535c0-.1233-.08222-.2056-.20556-.2056s-.20556.0823-.20556.2056v3.9262c-.18501-.1027-.41113-.1644-.67836-.1644s-.49335.0617-.6578.1644v-7.42075c0-.12334-.08222-.20557-.20556-.20557s-.20556.08223-.20556.20557v2.19955c-.02056 0-.12334.1027-.411125.1027z"/><path d="m7.72878.534424c-.86336 0-1.56228.698916-1.56228 1.562276s.69892 1.56227 1.56228 1.56227 1.56227-.69891 1.56227-1.56227-.69891-1.562276-1.56227-1.562276zm0 2.692866c-.63724 0-1.15115-.51391-1.15115-1.15115s.51391-1.151149 1.15115-1.151149 1.15114.513909 1.15114 1.151149-.5139 1.15115-1.15114 1.15115z"/></g></svg>