<svg fill="none" height="17" viewBox="0 0 17 17" width="17" xmlns="http://www.w3.org/2000/svg"><g fill="#4a4a4a"><path d="m2.65625 13.4418c-.14683 0-.26563.1189-.26563.2656v1.4609c0 .1467.11388.2999.25447.3419l.81944.2907c.0703.021.09598.0315.12167.0315.02567 0 .05136-.0105.12165-.0315l.81892-.2907c.1406-.042.25447-.1952.25447-.3419v-1.4609c0-.1467-.1188-.2656-.26562-.2656zm1.59374 1.6029-.66379.2357-.66433-.2357v-1.0717h1.32812z"/><path d="m16.9828 15.7575-1.2648-3.3562c.3859-.4783.6179-1.0861.6179-1.7485 0-1.54053-1.2486-2.78915-2.7891-2.78915-1.5404 0-2.789 1.24862-2.789 2.78915 0 .6624.232 1.2702.6179 1.7485l-1.2649 3.3562c-.0385.1021-.0106.2174.0703.2906.0811.0734.1984.0893.2961.0411l1.1594-.5741.3784 1.1943c.0343.1088.1345.1835.2486.1855h.0045c.1124 0 .2127-.0707.2504-.1769l1.0283-2.9018 1.0284 2.9018c.0376.1062.138.1769.2503.1769h.0046c.1141-.002.2142-.0767.2486-.1855l.3783-1.1943 1.1594.5741c.0978.0482.2155.0323.2961-.0411.081-.0732.1089-.1885.0703-.2906zm-3.436-7.3626c1.245 0 2.2578 1.01295 2.2578 2.2579 0 1.2449-1.0128 2.2577-2.2578 2.2577-1.2449 0-2.2578-1.0128-2.2578-2.2577 0-1.24495 1.0129-2.2579 2.2578-2.2579zm-1.2645 7.3993-.2328-.7347c-.0234-.0739-.0779-.134-.1492-.1643-.0333-.0142-.0687-.0212-.104-.0212-.0405 0-.0808.0092-.1179.0276l-.8328.4124.9415-2.4984c.3774.3075.8376.5154 1.3412.5914zm3.133-.8926c-.0695-.0345-.1503-.0368-.2219-.0064-.0714.0303-.1258.0904-.1492.1643l-.2328.7347-.846-2.3872c.5036-.076.9638-.2839 1.3412-.5914l.9415 2.4984z"/><path d="m12.6653 11.0724-.1196.7328c-.0164.1004.026.2013.1091.2599.0458.0322.0994.0485.1531.0485.0441 0 .0883-.011.1285-.0332l.6105-.3373.6105.3373c.0893.0493.1986.0434.2816-.0153.0831-.0586.1255-.1595.109-.26l-.1198-.7327.5041-.5163c.0696-.0713.0934-.1755.0618-.2699-.0317-.0944-.1134-.1633-.2118-.1784l-.6859-.1046-.3091-.65864c-.0437-.09326-.1374-.15279-.2404-.15279s-.1966.05953-.2405.15266l-.3092.65877-.6857.1048c-.0984.0149-.1801.0838-.2118.1782-.0316.0944-.0078.1986.0618.2698zm.5522-.5656c.0875-.0134.1627-.0694.2003-.1495l.129-.2748.1289.2746c.0376.0802.1127.1363.2004.1498l.3149.048-.2367.2424c-.0589.0605-.0856.1453-.072.2286l.0532.325-.2601-.1437c-.0801-.0444-.1769-.0444-.257 0l-.2602.1437.053-.3252c.0137-.0833-.0131-.1679-.0719-.2283l-.2366-.2425z"/><path d="m10.2092 10.9635-1.24793 1.7842-.51401-.8439-.02101-.0345-.02594-.031c-.04072-.0485-.04384-.1441-.01051-.2019l1.4123-1.1785.19456.2149.04664.0515.0585.0379.0981.0635c-.0004-.0087-.0005-.0175-.001-.0262.0001.0002.0001.0002.0001.0002-.0022-.0489-.0056-.0974-.0056-.1468 0-.0875.0044-.1737.011-.2594.0008-.0089.0013-.0177.002-.0264.0009-.0097.0024-.0193.0033-.029.0074-.0793.0168-.1581.0296-.2358.0001-.0002.0001-.0004.0001-.0007-.2012-.23032-.34638-.47948-.44715-.68958.70715-.83021 1.20075-1.95736 1.47225-2.96772.0691-.25732.1146-.52256.1382-.78928.1153-.15837.1913-.34837.1913-.51114 0-.26816.1509-.67288.3353-.89954l.4855-.59662c.1844-.22664.2195-.62125.0782-.87696l-.5263-.95179c-.1414-.25571-.4825-.54448-.7581-.64168l-3.13267-1.1055582c-.13566-.0478655-.31361-.0717318-.4922-.0717318-.18405.00006641-.36887.0254202-.5083.0759419l-3.2395 1.1740981c-.27469.09954-.6123.39176-.75031.64934l-.44408.82943c-.13801.25759-.08807.64343.11088.85745l.66861.71931c.19896.214.36172.61594.36172.89317 0 .16971.08678.34422.2183.47256.09272 1.27339.61153 2.7316 1.38635 3.69973-.15629.33826-.43449.79557-.88143 1.10347l-.06966.045c-.19364.1218-.41581.2162-.67262.2611 0 0-3.569584.5586-3.7437666 3.2177 0 0-.084827.2322.0955846 1.8895.060576.5572.590004 1.0071 1.165092 1.0071h5.33505l-.15408-.1129c-.14851-.1085-.26562-.2548-.34876-.4184h-4.83221c-.308428 0-.606086-.2491-.636952-.5333-.13074-1.201-.115307-1.6025-.107524-1.6967l.008951-.0245.004928-.076c.056033-.856.563797-1.4572 1.164307-1.8738l.17731.3156c.15537.2766.44837.4367.74823.4367.11491 0 .23087-.0235.34047-.0729l.39752-.1795c.39701-.1794.58053-.6557.40907-1.0616l-.10908-.2584c.10195-.0224.16381-.0331.16797-.0337l.00479-.0008.00467-.0008c.19974-.0349.38261-.092.55032-.1655l1.4324 2.0481c.07807.1685.20181.2553.33318.2553.10507 0 .21519-.0555.31064-.1692l.27289-.4479.18443.326-.41971 2.549c-.04889.2353.05797.5089.25616.6538l.63008.4616c.06018.0468.14928.0804.2428.0804.07925 0 .16173-.0241.23242-.0845l.62476-.4575c.19857-.1456.30207-.4288.24331-.6624l-.52347-2.5288.17342-.3166.26004.4269c.09546.1137.20557.1692.31064.1692.13138 0 .25512-.0868.33318-.2553l1.05305-1.5058c-.0741-.2293-.1236-.4695-.1466-.7172zm-6.91178.8407c.06032.1428-.00168.3091-.13826.3707l-.39752.1795c-.14203.0642-.3284 0-.407-.1397l-.18559-.3304c.34992-.1844.7005-.316.99063-.4064zm4.70874-.5396c-.04864.0548-.08496.1181-.11285.185h-.64589c-.02789-.0669-.0642-.1302-.11284-.185l-1.49426-1.2469c.04967-.0795.09428-.15758.13423-.23319.53462.47459 1.20725.73539 1.87856.73539.57171 0 1.14214-.1884 1.62501-.59337.04215-.03527.08287-.07315.12386-.11063.03385.06264.07004.12646.1105.1917zm.93059-1.74506c-.36602.30686-.80985.46912-1.28364.46912-.66172 0-1.30567-.30803-1.76676-.84499-.66951-.77969-1.18208-2.05859-1.32708-3.23126.5123.11913 1.71229.35758 3.11291.35758.0332 0 .06692-.00013.10039-.00039 1.75924-.01446 2.63603-.15363 3.04533-.25545-.0184.09767-.0405.19514-.0665.29228-.3673 1.36704-1.04567 2.56824-1.81465 3.21311zm-1.37106-5.19368c-.24927-.17276-.61594-.52956-.65563-1.14953l.67639-.30628.65108.30272c-.00077.26984-.09648.74707-.67184 1.15309zm.01324.61594c.2987-.16316.52333-.3448.69298-.53125h2.95639c-.1021.24617-.1655.51011-.1655.73333-.0004.06731-.0871.22884-.1829.29779-.1016.04085-.789.27761-3.11162.29669-.03216.00025-.06432.00038-.0961.00038-1.76547 0-3.22031-.40006-3.23444-.40401-.0581-.01629-.12048-.09871-.12374-.13599 0-.24546-.07599-.53066-.19792-.78819h2.75858c.33086.37509.70427.53125.70427.53125zm-4.43741-1.71728c-.04448-.04779-.06251-.18735-.03164-.24494l.44396-.8293c.07678-.14318.3105-.34544.46315-.40076l3.2395-1.174112c.05876-.021329.17575-.044093.32737-.04416.14591 0 .25861.021463.3153.041437l3.13274 1.105625c.1537.05421.3909.25493.4699.39773l.5262.9518c.0367.06627.0224.22587-.0253.28461l-.4613.56686h-2.92307c.24657-.57185.10843-1.0649.10843-1.0649l-1.13732-.52885-1.20271.54454c-.04047.41958.02853.76608.1502 1.04921h-2.78685zm3.03795 9.52318-1.31139-1.8749.17082-.1106.05849-.0379.04669-.0515.19455-.2149 1.4123 1.1785c.03334.0578.03021.1534-.0105.2019l-.02594.031-.02102.0345zm2.05431 3.0733c.00596.0245-.01569.0845-.04216.104l-.55109.4036-.55122-.4037c-.03217-.0235-.05512-.0921-.04967-.1171l.43371-2.6317h.21258l.54422 2.6292zm-.3306-3.1761h-.63981l-.19235-.3399.07614-.1249c.04981-.0593.0865-.1274.11257-.1993h.62127c.02607.0719.06277.14.11257.1993l.08652.142z"/></g></svg>