<svg fill="none" height="12" viewBox="0 0 21 12" width="21" xmlns="http://www.w3.org/2000/svg"><g fill="#4a4a4a"><path d="m20.7898 4.3972-1.6275-2.666c-.1109-.19181-.2687-.35137-.4581-.46328-.1895-.1119-.4042-.17236-.6234-.17554h-3.5427v-.108601c0-.129192-.0251-.257118-.0739-.376476-.0487-.119358-.1202-.227809-.2103-.319161s-.197-.163817-.3148-.2132562c-.1177-.0494395-.2438-.0748858-.3712-.0748858h-9.3682c-.25731 0-.50409.103647-.68604.288142-.18194.184494-.28416.434723-.28416.695637v7.757381h-.53761v1.63754h2.15672c.03714.4422.23663.8542.55902 1.1545.32238.3002.74416.4668 1.18189.4668s.85951-.1666 1.18189-.4668c.32238-.3003.52188-.7123.55902-1.1545h6.48907c.0371.4422.2366.8542.559 1.1545.3224.3002.7442.4668 1.1819.4668s.8595-.1666 1.1819-.4668c.3224-.3003.5219-.7123.559-1.1545h2.6985v-5.19576c.0033-.2766-.0694-.54866-.21-.78574zm-17.0101-3.407033c-.00058-.11432.04309-.224311.12162-.306334.07854-.082024.18567-.129533.29838-.13232h9.3703c.1141 0 .2236.04599.3044.127855.0807.081864.1261.192896.1261.30867v7.753122h-6.56468c-.25795-.14165-.54666-.21582-.84-.21582s-.58206.07417-.84001.21582h-1.98661zm11.3401 8.296113c-.1133.16567-.1972.35016-.2478.54513h-6.59197c-.05063-.19497-.13449-.37946-.2478-.54513zm-7.14007-.08092-.0126-.0149zm-.0609-.07665-.0147-.01704zm-.0693-.07666v-.01065zm-.23521-.20442h-.0105zm-.0819-.05537h-.0105zm-1.86691 0h-.0105zm-.0819.05537h-.0105zm-.2352.20229v.01065zm-2.14831.23636h1.94671c-.11331.16567-.19718.35016-.2478.54513h-1.70101zm2.07901-.17035-.0147.01704zm-.063.07666-.0126.0149zm-.336.73677v.02981zm-.0168.10004v.0341zm-.0105.1065v.0319c0 .0107-.0021-.0212-.0021-.0319zm1.73881 1.3351c-.23332-.0042-.46021-.0781-.6522-.2126-.192-.1345-.34053-.3235-.42696-.5433-.08644-.2198-.10692-.4606-.05887-.6921.04804-.23157.16247-.44356.32892-.6094s.3775-.27812.60666-.32276.46622-.01965.68142.07184c.2152.0915.39895.24541.52819.44242s.19821.4283.19825.665c-.00333.3211-.13206.6279-.358.853s-.53066.3502-.84741.3479zm1.71151-1.54164v.02981zm.0168.10004v.0341zm.0105.1065v.0319c0 .0107 0-.0212 0-.0319zm6.51007-.21293v.02981zm-.0168.10013v.034zm-.0105.1064v.032c0 .0106.0084-.0149.0105-.0256zm.3633-.92414.0126-.0149zm.0609-.07665.0147-.01704zm.0693-.07666v-.01065zm1.26 2.41255c-.2337-.0037-.4611-.0775-.6535-.2121-.1924-.1345-.3412-.3237-.4278-.5439-.0865-.2201-.1069-.4612-.0586-.6931.0483-.23187.1632-.44405.3302-.60983.167-.16579.3786-.27777.6083-.32186.2296-.04408.467-.0183.6822.07412.2152.09241.3986.24731.5272.44521.1285.1979.1965.42996.1953.66696-.0033.3215-.1324.6286-.3588.8537-.2263.2252-.5316.3501-.8487.3472zm-1.0206-2.61484h.0105zm.0819-.05537h.0105zm1.8669 0h.0105zm.0819.05537h.0105zm.2352.20229v.01065zm.0651.07027.0147.01703zm.063.07666.0126.0149zm.3297.73038v.02981zm.0168.10004v.0341zm.0105.1065v.0319c0 .0107.0063-.0212.0042-.0319zm2.1903-.30237h-2.2344c-.0506-.19496-.1345-.37945-.2478-.54512h2.4864zm-3.0807-1.09237c-.258-.14165-.5467-.21582-.84-.21582-.2934 0-.5821.07417-.84.21582h-1.1886v-7.09727h3.5217c.1334.0021.2639.03907.3791.10734.1151.06826.211.16551.2782.28234l1.6065 2.666c.0873.14642.1331.31441.1323.4855v3.55609z"/><path d="m2.69222 1.64392h-2.69222v.54512h2.69222z"/><path d="m2.69221 2.73621h-2.154612v.54512h2.154612z"/><path d="m2.69206 3.82666h-1.61491v.54512h1.61491z"/><path d="m16.153 5.46619h-1.0773v.54512h1.0773z"/><path d="m15.0757 2.18896v2.72989h4.7754l-1.7913-2.72989zm.5376 2.18476v-1.6375h2.1567l1.0773 1.6375z"/></g></svg>