<svg fill="none" height="16" viewBox="0 0 17 16" width="17" xmlns="http://www.w3.org/2000/svg"><path d="m16.9912 3.39648c0-.50269-.4089-.91159-.9116-.91159h-4.7499v-1.22596c0-.694132-.5648-1.25893-1.259-1.25893h-3.14107c-.69414 0-1.25893.564798-1.25893 1.25893v1.22596h-4.749583c-.502877 0-.91195682.40871-.91195682.91068l-.00915987 4.33628c-.0001832.1407.08005729.26912.20646369.33049.193457.0938.392592.18045.592644.26637v5.90039c0 .5025.408892.9116.911592.9116h13.5786c.5027 0 .9116-.4089.9116-.9116v-5.98869c.205-.09471.4069-.19273.6036-.29642.1206-.06357.1959-.18869.1955-.32481zm-10.58771-2.13755c0-.290182.23614-.52614.52614-.52614h3.14107c.2853 0 .5262.240905.5262.52614v1.22596h-4.19341zm9.06481 12.97017c0 .0953-.0836.1788-.1788.1788h-13.57862c-.09691 0-.1788-.0819-.1788-.1788v-5.60966c1.59492.58569 3.37688.93706 5.32006 1.04478v.50838c0 .3686.29989.6685.66849.6685h1.95929c.36841 0 .66808-.3001.66808-.6685v-.51388c1.9685-.11962 3.7508-.49078 5.3201-1.10633v5.67671zm-7.88337-4.1208v-1.21571h1.83051v1.21571zm2.56327-1.1864v-.09306c0-.36896-.29968-.66886-.66809-.66886h-1.95948c-.3686 0-.66849.30008-.66849.66886v.10094c-2.2951-.13153-4.35259-.60986-6.118617-1.42876l.00861-4.10454c0-.09691.082073-.1788.179168-.1788h15.158499c.0969 0 .1788.08171.1788.17935l.0084 3.99939c-1.7237.86835-3.7815 1.37856-6.1188 1.52548z" fill="#4a4a4a"/></svg>