<svg fill="none" height="16" viewBox="0 0 17 16" width="17" xmlns="http://www.w3.org/2000/svg"><path d="m8.075 0v.427249 2.383251l-3.91133 3.93202-.12617.12684v.18024 1.709h-2.3375-.425v.42725 5.34065h-1.275v.8545h17v-.8545h-1.275v-5.34065-.42725h-.425-2.3375v-1.709-.18024l-.1262-.12684-3.9113-3.93202v-.03338h2.3375.425v-.42725-.42725-.24033l-.1992-.12016-2.33752-1.4953724-.09961-.0667576h-.12617-.425zm.85.934607 1.5473.988013h-1.5473zm-.425 2.656953 3.6125 3.63161v7.30333h-1.0625v-3.6317-.4272h-.425-4.25-.425v.4272 3.6317h-1.0625v-7.30333zm0 2.38992c-1.05121 0-1.9125.86585-1.9125 1.92262 0 1.05678.86129 1.92262 1.9125 1.92262s1.9125-.86584 1.9125-1.92262c0-1.05677-.86129-1.92262-1.9125-1.92262zm0 .8545c.59184 0 1.0625.47316 1.0625 1.06812 0 .59497-.47066 1.06812-1.0625 1.06812s-1.0625-.47315-1.0625-1.06812c0-.59496.47066-1.06812 1.0625-1.06812zm-6.375 2.77712h1.9125v4.9134h-1.9125zm10.8375 0h1.9125v4.9134h-1.9125zm-6.1625 1.709h3.4v3.2044h-3.4z" fill="#4a4a4a"/></svg>