<svg fill="none" height="15" viewBox="0 0 17 15" width="17" xmlns="http://www.w3.org/2000/svg"><g fill="#4a4a4a"><path d="m7.6484 4.3694c-.63584 0-1.15279-.51696-1.15279-1.15242 0-.65396.50092-.92494.94231-1.16367.42383-.22842.78964-.42631.78964-.90071 0-.508554-.41371-.92227-.92189-.92227-.06373 0-.11526-.051715-.11526-.115261 0-.0635454.05172-.115069.11526-.115069.63527 0 1.15261.517145 1.15261 1.1526 0 .6118-.48395.87304-.91045 1.10375-.4223.22843-.82151.44387-.82151.96044 0 .50799.41333.9217.92208.9217.06355 0 .11526.05172.11526.11526 0 .06355-.05171.11565-.11526.11565z"/><path d="m9.80548 4.35872c-.49233 0-.89288-.40036-.89288-.8927 0-.50703.38337-.71408.72152-.89708.30914-.16698.57648-.31105.57648-.64958 0-.36525-.29711-.66217-.66216-.66217-.06374 0-.11526-.05172-.11526-.11527 0-.06335.05171-.11506.11526-.11506.49236 0 .89246.40035.89246.8925 0 .47593-.37.6763-.69686.85281-.32231.17404-.60054.32441-.60054.69404 0 .36525.29731.6618.66217.6618.06374 0 .11526.05171.11526.11564 0 .06355-.05209.11507-.11545.11507z"/><path d="m7.63437 7.20955c-.38738-.05801-.73469.04103-.978.2788-.04541.04427-.04656.11736-.00229.16297.04447.0456.11736.04637.16297.00171.19102-.18625.46867-.26277.78316-.21582.32555.04885.64901.22346.91063.49195.02233.02271.05248.03435.08244.03435.02901 0 .0582-.01088.08053-.03263.04542-.04446.04637-.11717.00229-.16278-.29674-.30437-.66675-.50264-1.04173-.55855z"/><path d="m6.25891 7.80301c-.06221.06087-.06336.16048-.00306.22288.06069.06183.16068.06336.22251.00249.06183-.06012.06336-.15992.00305-.22175-.06068-.06259-.16048-.06373-.2225-.00362z"/><path d="m4.60553 12.3746c-.09503 0-.17194.0766-.17194.1722 0 .0944.07691.1715.17194.1715s.17194-.0771.17194-.1715c.00038-.0955-.07691-.1722-.17194-.1722z"/><path d="m3.59811 8.98357c-.01145 0-.0229-.00191-.03454-.00591-.65206-.20438-1.21691-.6389-1.76344-1.06005-.15572-.12004-.30323-.2332-.45284-.34178-.05152-.0374-.06278-.10915-.02557-.16106.03702-.05171.10953-.06335.16106-.02576.15228.1103.30761.22995.45818.34578.53031.40837 1.07894.83087 1.6915 1.02303.06087.01909.09446.08359.07557.14465-.01527.04904-.06088.0811-.10992.0811z"/><path d="m3.28225 8.29109c-.00477 0-.00954 0-.01451-.00076-.06259-.00821-.10781-.06565-.0998-.12881.03588-.29159-.03282-.57153-.18911-.76713-.03988-.04981-.03149-.12251.01832-.16201.04981-.04027.12251-.03168.16201.01793.19789.24751.28224.58127.23778.93926-.00821.05859-.05744.10152-.11469.10152z"/><path d="m4.24183 8.34452c-.01984 0-.04026-.00534-.05858-.01622-.05477-.03263-.07328-.10324-.04065-.15763.08912-.15018.11965-.34101.0916-.56733-.00821-.06335.03645-.12079.0998-.12881.06374-.00725.1208.03702.12862.09961.03492.27842-.00611.51849-.12194.71351-.02137.03664-.05935.05687-.09885.05687z"/><path d="m1.91373 8.93626c-.20438 0-.41315-.0477-.60264-.14064-.05725-.02843-.08072-.09789-.05267-.15495s.09771-.08053.15438-.05229c.27785.13664.60149.15553.86694.04981.05896-.02385.12594.00515.14941.0645.02367.05897-.00515.12576-.0643.14961-.14103.05591-.29483.08396-.45112.08396z"/><path d="m16.8269 9.26797h-2.2882c.1206-.16736.2345-.34216.3404-.52326l.8811-1.51021c.0374-.06412.0294-.14465-.0189-.20094-.0487-.05592-.1279-.07443-.1962-.04618l-.179.07347.3992-.69901c.3773.15457.8208.01145 1.0317-.35017.2307-.39597.0967-.90548-.2989-1.13657-.2631-.15343-.5765-.14427-.8247-.00573-.0012-.28471-.1477-.56161-.4107-.71503-.1918-.11164-.4156-.14217-.6303-.08587-.2143.05629-.3941.19311-.5059.38528-.2107.36085-.1174.81674.2019 1.0694l-.3887.64004-.0099-.11221c-.0061-.07499-.0605-.1372-.1344-.154-.0744-.01603-.149.0168-.1872.08168l-.5206.89212c-.2429.41696-.7137.71675-1.2913.82419-.8456.15686-1.7942-.12499-2.60423-.77438-.00993-.00764-.02042-.01432-.03168-.01985-.58432-.46371-1.35545-.68469-2.13613-.54462-.13339.02423-.26335.05877-.3891.10152-.03053-.32269-.3372-.40361-.54405-.45723-.05954-.01565-.11565-.03053-.16297-.04809-.11507-.04351-.14827-.11583-.20228-.25227-.04313-.10916-.09179-.23338-.21392-.33796-.16239-.13892-.3578-.16373-.5305-.18548-.15056-.01985-.29292-.0376-.41028-.12328-.03702-.02672-.07538-.05725-.1145-.08797-.24025-.18854-.56924-.44845-.92571-.19789-.28223.19751-.36238.52879-.23987.98525-.23968.12175-.32479.33166-.3246.5305-.19197.00611-.37173.06145-.54748.11698-.22213.06965-.43185.13587-.65111.09179-.06832-.01355-.14045-.03111-.21487-.04924-.4536-.1082-1.075321-.25743-1.40908.31601-.26487.45494-.1637306.96617.299601 1.52071-.273076.34102-.240826.70493-.091407.9885h-.122894c-.095605 0-.1728901.07747-.1728901.17289v1.03774c0 1.5653 1.1007001 2.8773 2.5683601 3.2053-.09198.1174-.14732.2651-.14732.4254 0 .3814.3101.6917.69156.6917h10.71845c.3817 0 .6918-.3103.6918-.6917 0-.1603-.0552-.3078-.1472-.4254 1.4675-.328 2.568-1.64 2.568-3.2053v-1.03774c-.0002-.0958-.0777-.17289-.1731-.17289zm-2.2453-3.71849c.0163-.0269.021-.0582.0134-.08835-.0076-.02977-.0275-.05553-.0536-.07118-.2859-.16659-.3826-.53527-.216-.82037.0809-.13911.2106-.23777.3658-.27842.1549-.04064.3166-.01889.4549.06221.2859.1664.3832.53489.2162.82076-.032.05476-.013.12518.0418.15762.0552.03206.1256.01317.1576-.04179.1662-.28567.5349-.38261.8208-.21545.2855.16679.3826.53489.216.82095-.1672.28548-.5355.38223-.8213.21525-.0267-.01527-.0582-.01927-.0876-.01164-.0296.00821-.0552.02767-.0704.054l-.5992 1.04994-.0987.04046-.0838-.66924c-.0066-.05324-.0376-.10056-.0841-.12785-.0464-.02748-.1031-.03092-.1529-.0105l-.6158.25285-.0118-.13778zm-7.49666 1.14688c1.17493-.21067 2.37276.56028 2.66778 1.71803.02347.09255.11736.14808.21029.12461.09239-.02347.14829-.11736.12479-.21029-.0532-.20858-.13261-.40437-.23031-.58737.65991.30685 1.35561.41333 2.00121.29311.6767-.12575 1.2333-.48642 1.527-.98983l.246-.42154.0284.32995c.0046.05457.0355.104.0827.13262.0467.02863.1045.0334.1551.01222l.6242-.2561.0836.66905c.0065.05343.0378.10037.0843.12824.0464.02709.1035.03053.1529.01011l.361-.14789-.624 1.06902c-.1431.24598-.3019.4786-.4736.69767h-8.92621c-.00038-.00229-.00114-.0042-.00114-.0063-.1416-1.20127.71369-2.35234 1.90599-2.56531zm-3.61677-.76942c.05954-.02042.09141-.08453.07232-.14464-.13129-.40685-.09121-.67783.12271-.82705.20037-.14045.38795-.01584.65034.19063.0416.03283.08225.06469.12118.09294.16544.12079.35303.14464.51752.16544.16087.02023.2996.03798.40952.13225.07824.06717.11316.15476.14942.2475.05591.14141.11965.30189.33548.38319.05877.02175.12346.03912.18643.05553.26106.06774.37555.11621.37441.29082 0 .01145.00363.02137.00611.03149-.32613.14789-.61638.36047-.8574.61885-.24006-.47669-.71713-.3931-1.06768-.33051-.09312.0166-.18091.03225-.25876.03797-.18797.01412-.28224-.06698-.44444-.22231-.12996-.12366-.27689-.26392-.5118-.33128-.02653-.00706-.05172-.01164-.07767-.01641-.00687-.12614.0353-.29235.27231-.37441zm-3.025393 1.0049c.189684-.32612.531076-.27212 1.029713-.15285.07824.0187.15495.03664.22689.05172.30666.06087.58127-.02558.82305-.10172.23739-.0748.44253-.13854.65606-.07804.15209.04293.25667.14274.36677.24865.16832.16029.35914.34177.70874.31677.0958-.00668.19694-.02481.29483-.04255.4078-.07233.59825-.07843.70931.16678.01775.03836.04771.0666.0832.08358-.37975.52135-.5784 1.17417-.50856 1.8434h-4.063686c-.000954-.00114-.001527-.00248-.002672-.00362-.120031-.13492-.35723-.4889.028243-.85835.067744-.06507.07137-.17251.007824-.24216-.443676-.48165-.561799-.88506-.359712-1.23161zm13.444423 7.52286h-10.71844c-.19083 0-.34578-.155-.34578-.3458 0-.1906.15495-.3458.34578-.3458.01183 0 .02347-.0007.03473-.0036.04561.0025.09141.0036.13778.0036h10.37363c.0462 0 .0922-.0011.138-.0036.0114.0029.023.0036.0347.0036.1906 0 .3458.1552.3458.3458-.0002.1906-.1556.3458-.3462.3458zm2.767-3.9765c0 1.6205-1.3188 2.9389-2.9393 2.9389h-10.37382c-.72324 0-1.3858-.2627-1.89798-.6974h2.29566c.09504 0 .1727-.0773.1727-.1727 0-.096-.07766-.1733-.1727-.1733h-2.64106c-.176134-.208-.323263-.4404-.436424-.6916h1.808864c.0956 0 .17289-.0771.17289-.1729 0-.0954-.07729-.1728-.17289-.1728h-1.939772c-.067554-.2205-.109536-.4525-.123085-.6918h.967307c.09561 0 .17289-.0773.17289-.1727s-.07728-.1729-.17289-.1729h-.972459v-.68506h4.490189.35742 8.56306.4585 2.3827z"/><path d="m4.46842 6.36872c-.04008 0-.079-.02099-.10019-.0582-.07137-.12556-.13892-.25418-.20495-.38089-.0582-.11145-.11583-.22136-.17537-.32689-.0311-.05591-.01145-.12595.0437-.15724.05553-.03092.12595-.01164.15705.04408.06011.10743.11889.21964.17843.3328.06564.12423.13129.25037.20189.37384.0313.05514.01203.12556-.0435.15705-.01832.01049-.03779.01545-.05706.01545z"/><path d="m5.00718 6.58415c-.02061 0-.0416-.00535-.06088-.01718-.05362-.03359-.07041-.10476-.03702-.15858.09599-.15457.12977-.3286.09294-.47707-.01527-.06183.02251-.12442.08415-.13969.06164-.01545.12404.0229.13931.08435.0519.21125.00935.44387-.1208.65359-.02156.03549-.05954.05458-.0977.05458z"/></g></svg>