<svg fill="none" height="19" viewBox="0 0 17 19" width="17" xmlns="http://www.w3.org/2000/svg"><g fill="#4a4a4a"><path d="m10.2138 4.18434c1.1563-.00021 2.0921-.93688 2.0921-2.09175 0-1.155508-.9358-2.09259-2.0921-2.09259-1.15639 0-2.09201.937082-2.09222 2.09259.00021 1.15508.93583 2.09154 2.09222 2.09175zm-1.03588-3.12759c.26591-.265701.62995-.429099 1.03588-.429099.4058 0 .7699.163398 1.0358.429099.2655.26592.4285.63017.4287 1.03584-.0002.40525-.1632.76929-.4287 1.03499-.2659.26571-.6302.4289-1.0361.42911-.40584-.00021-.76988-.1634-1.03579-.42911-.2655-.26591-.42848-.62995-.42869-1.03499.00042-.40567.16361-.76971.4289-1.03584z"/><path d="m7.03769 14.6044c-1.15676.0004-2.09217.9385-2.09238 2.0936 0 1.1551.93583 2.092 2.09238 2.0922 1.15655-.0002 2.09196-.9371 2.09196-2.0922-.00021-1.1551-.9352-2.0932-2.09196-2.0936zm1.03562 3.129c-.26591.2655-.62974.4289-1.03562.4289s-.77013-.1634-1.03604-.4291c-.2655-.2659-.42848-.6302-.42869-1.0352 0-.4053.1634-.7699.4289-1.036.26591-.266.63016-.4296 1.03583-.4298.40567.0002.76971.1636 1.03562.4296.2655.2661.42848.6309.42869 1.0362-.00021.405-.16319.7693-.42869 1.0354z"/><path d="m15.9995 5.81732-2.0779-.14959c-.1735-.01235-.4785-.07741-.6408-.13641l-1.6642-.60506c-.2539-.09205-.6613-.19582-.9276-.23599l-2.50519-.37722c-.18871-.02866-.45902-.04645-.70527-.04645-.0977 0-.18662.00293-.26382.00837l-3.46673.24918c-.56635.04017-1.00256.51697-.99273 1.08521l.05419 3.09494c.00962.55798.45316.99545 1.00968.99545.03452 0 .06925-.00188.10461-.00523l.01381-.00167c.52806-.05942.95695-.50066 1.00005-1.03144l.14541-1.80177 1.2735.07489-.43078 2.57463c-.01401.0841-.11402.26319-.17825.31926l-1.46473 1.27978c-.01757.0098-.06569.0255-.11067.0255l-.0113-.0004-2.57441-.8228c-.10503-.0335-.21445-.0505-.32575-.0505-.434129 0-.830177.2503-1.009266.6375l-.1550302.3354c-.2408088.5212-.0144359 1.1446.5044222 1.3896l3.340564 1.5792c.17093.0809.37366.1234.58602.1234.2747 0 .53978-.0703.74627-.1977l2.89515-1.7877 2.01515 2.3223c.0676.0776.1613.2906.1735.3929l.3213 2.7572c.0638.5444.5427.9706 1.0905.9706h.4184c.5768 0 1.0461-.4693 1.0461-1.0461v-3.2813c0-.3519-.1408-.8202-.335-1.1135l-1.9256-2.9106c-.0393-.0601-.0776-.2406-.0661-.3118l.427-2.54759 1.4241.27512c.2643.05084.6806.0908.9484.0908h2.2474c.5768 0 1.0461-.46927 1.0461-1.04608-.0002-.56259-.4396-1.03437-1.0005-1.07433zm-.0458 1.49276h-2.2474c-.2301 0-.6034-.03578-.8293-.07929l-1.6451-.31801c-.0264-.00503-.0527-.00754-.0787-.00754-.1954 0-.3678.14039-.4013.34082l-.4642 2.76964c-.0381.227.0347.5699.1617.7617l1.9259 2.9104c.127.1921.2309.5373.2309.7675v3.2809c0 .2301-.1883.4184-.4184.4184h-.4184c-.2302 0-.4402-.187-.467-.4155l-.3214-2.7575c-.0267-.2286-.1719-.5577-.3228-.7314l-2.09048-2.4093c-.0931-.1071-.23641-.1647-.37889-.1647-.08829 0-.17637.0222-.25148.0686l-2.99305 1.8483c-.1111.0686-.26571.1042-.41655.1042-.11486 0-.22784-.0208-.3178-.0632l-3.340779-1.5794c-.208171-.0983-.299389-.3496-.202731-.5586l.15503-.3354c.077201-.1671.25796-.2732.43956-.2732.0454 0 .0908.0067.13474.0207l2.58132.8249c.05921.0191.12616.0281.19541.0281.18683 0 .39186-.0655.51823-.176l1.47037-1.2848c.17323-.1517.34605-.4611.38392-.6881l.4768-2.85079c.03787-.227-.11904-.42387-.34876-.43747l-1.74843-.10293-.02469-.00084c-.21947 0-.40881.17239-.4268.39354l-.16131 1.99655c-.01862.2293-.22114.4358-.45002.45882l-.00126.0002-.04163.00231c-.21005 0-.37826-.16278-.38203-.3789l-.05398-3.09452c-.00397-.23014.18056-.43183.41007-.44835l3.46609-.24918c.06402-.0044.13913-.0067.21926-.0067.20734 0 .44773.01444.61175.03934l2.50492.37742c.2275.03431.5907.12658.807.20504l1.6637.60484c.2163.07888.5812.1565.8107.17281l2.0786.14959c.2295.01632.4173.21822.4173.44836s-.1882.41864-.4186.41864z"/></g></svg>