<svg fill="none" height="17" viewBox="0 0 17 17" width="17" xmlns="http://www.w3.org/2000/svg"><path d="m14.2461 3.7229 2.193-1.44501c.578-.374.731-1.13901.357-1.717012-.374-.5780042-1.139-.731005-1.717-.357003l-3.689 2.431015c-.204-.068-.425-.102-.646-.102-.578 0-1.08803.255-1.46203.64601-.255 0-.52701-.017-.78201-.017s-.527 0-.782.017c-.35701-.39101-.88401-.64601-1.46201-.64601-.22101 0-.44201.034-.64601.102l-3.68903-2.431015c-.578-.374002-1.343006-.2210012-1.717008.357003-.374003.561002-.2210021 1.343012.357002 1.717012l2.193016 1.44501c-1.70001.374-2.75402.93501-2.75402 1.56401v.91801 1.56401 3.84207c0 2.958 2.43102 5.389 5.38904 5.389h6.20506c2.975 0 5.389-2.431 5.389-5.406v-3.82507-1.56401-.91801c.017-.629-1.037-1.19001-2.737-1.56401zm1.224-2.92402c.238-.170001.578-.085001.731.153001.17.237999.102.578009-.153.731009l-3.417 2.24401c-.102-.357-.306-.663-.561-.901zm-4.726 2.43102c.697 0 1.258.561 1.258 1.25801 0 .697-.561 1.25801-1.258 1.25801s-1.25803-.56101-1.25803-1.25801c-.017-.69701.56103-1.25801 1.25803-1.25801zm-4.48805 0c.697 0 1.25801.561 1.25801 1.25801 0 .697-.56101 1.25801-1.25801 1.25801-.69701 0-1.25801-.56101-1.25801-1.25801 0-.69701.561-1.25801 1.25801-1.25801zm-5.304043-1.54701c-.255002-.153-.323002-.49301-.153001-.731009.153001-.255002.493004-.323002.731004-.153001l3.40003 2.24402c-.25501.238-.45901.544-.56101.901zm2.040013 2.70302c.204-.051.39101-.085.59501-.119l.714.476c.119.96901.95201 1.71701 1.95502 1.71701 1.088 0 1.97201-.88401 1.97201-1.97201 0-.221-.034-.42501-.102-.62901h.374.37401c-.068.204-.10201.40801-.10201.62901 0 1.088.88401 1.97201 1.97204 1.97201 1.003 0 1.836-.748 1.955-1.73401l.714-.476c.204.034.408.085.595.119.391.085 1.955.493 2.261.901-.306.39101-1.87.81601-2.261.90101-1.768.391-3.706.527-5.50804.527-1.80201 0-3.74002-.136-5.50804-.527-.391-.085-1.95501-.493-2.261015-.90101.306005-.391 1.870015-.799 2.261015-.884zm13.29408 7.20809c0 2.584-2.108 4.692-4.692 4.692h-6.20506c-2.58402 0-4.692035-2.108-4.692035-4.692v-2.97506c1.309005.748 4.301035 1.27501 7.786055 1.27501 3.48504 0 6.47704-.52701 7.78604-1.27501zm0-3.82507c-.187.357-1.87.79901-2.278.90101-1.768.374-3.706.51-5.50804.51-1.80201 0-3.74002-.136-5.50804-.527-.408-.085-2.091013-.52701-2.295015-.95201v-1.47901c2.278015 1.07101 6.596045 1.19001 7.803055 1.19001 1.19001 0 5.52504-.119 7.78604-1.17301z" fill="#4a4a4a"/></svg>