<svg fill="none" height="16" viewBox="0 0 17 16" width="17" xmlns="http://www.w3.org/2000/svg"><g fill="#4a4a4a"><path d="m12.9795 10.0647c-.0103-.0403-.0321-.07643-.0626-.10352-.0325-.03889-.0784-.06279-.1278-.06645-.0221-.00766-.0466-.01277-.0638-.00766h-8.40915c-.0651 0-.12283.02555-.16459.07411-.03383.03512-.05655.08012-.0651.12902v.0051c-.00492.0128-.00492.0256-.00492.0384 0 .0294.00492.0549.01229.0856.04667.2389.11177.4753.20021.7168l.00492.0051v.0179c.00737.0077.00737.0205.01228.0269.19725.5752.5038 1.1032.90138 1.5526s.87805.8109 1.41278 1.063l.00614.0051c.0995.0435.19408.0856.28743.1316 1.01118.417 2.13638.4215 3.15063.0128.5616-.2026 1.0778-.5219 1.5172-.9383.4394-.4165.7929-.9215 1.039-1.4844h.0049c.0467-.1099.0946-.2262.1363-.3424.0172-.0563.0332-.1176.059-.1725.0049-.0064.0049-.0141.0049-.0192.0651-.1942.1118-.3974.1486-.6006 0-.0051 0-.0127.0049-.0179.0036-.0371.0019-.0745-.0049-.1111zm-.6559.7475-.1241.3054c-.2194.5045-.5355.957-.929 1.3299s-.8561.6582-1.35933.8385h-.0086c-.95195.3616-1.88916.3616-2.81286-.0128-.08971-.0345-.17784-.0733-.26409-.1163-.15552-.0772-.3072-.1625-.45448-.2555-.74488-.4779-1.31309-1.2032-1.61279-2.0585v-.0103c-.00512-.0172-.01086-.0343-.0172-.0511v-.0128c-.04741-.1277-.08882-.2578-.12406-.3897h7.84281c-.0245.0856-.0466.17-.0712.2492-.0122.0301-.0241.0603-.0356.0907-.0121.0325-.0219.0658-.0295.0997z"/><path d="m6.84299 1.77051c-.02554-.01825-.05466-.03035-.08526-.03543-.03059-.00508-.06189-.00302-.09162.00604-.05241.01218-.10377.02884-.15354.04983-1.10058.32456-2.07832.93534-2.94306 1.83618-1.30202 1.35446-1.97883 2.97214-2.03165 4.85049-.34948.09529-.665891.29154-.912643.56606-.41763.42806-.625217.94684-.625217 1.56022 0 .6133.206358 1.1334.625217 1.5691v-.0051c.405343.4331.906503.6478 1.496103.6478.19407 0 .37586-.0255.5466-.0677.25426.3999.5552.7718.90159 1.1359 1.36589 1.412 3.00816 2.1161 4.92803 2.1161 1.92476 0 3.56826-.7092 4.92676-2.1237v.0076c.3366-.3501.6265-.7194.8808-1.1027.1817.0486.3697.0741.5699.0741.5884 0 1.0908-.2159 1.5072-.6427.4139-.4357.6178-.9583.6178-1.5691 0-.6121-.2039-1.1347-.6228-1.55765h.005c-.2703-.28112-.5774-.47406-.9102-.5699-.0541-1.89751-.7395-3.52797-2.0464-4.88882-.2232-.23864-.463-.45987-.7174-.66189-.4318-.34964-.9038-.64195-1.4052-.87018-.0276-.01466-.0581-.02272-.0891-.02361-.031-.00088-.0618.00544-.0902.0185-.0295.00959-.0564.0261-.0788.04826s-.0395.04936-.0502.07952c-.0139.02967-.0218.06196-.0232.09491-.0015.03296.0035.06588.0146.09676.0249.05863.0695.10585.1253.13289.4606.20956.8955.47917 1.307.81012.2309.184.4532.391.6718.61717v.00639c1.2542 1.30462 1.8904 2.87758 1.9076 4.71632-.0031.05695.0116.11342.0418.161.0168.02322.0366.04387.059.06133l.0356.01789c.0076-.00011.0152.00164.0221.00511l.0074.00767h.0049l.0073.00511h.0099l.0073.00767c.3243.06133.6068.22106.8513.47661.3255.33223.4864.73342.4864 1.20752 0 .4702-.1609.8817-.4864 1.219-.1519.1619-.3339.2899-.535.376s-.417.1286-.6344.1249c-.2051 0-.3992-.0345-.5773-.1035-.0422-.0191-.0891-.0236-.1339-.0128-.0074 0-.0074 0-.0123.0077-.0074 0-.0172 0-.0245.0051-.005 0-.005 0-.0123.0051-.0062.0077-.0185.0077-.0234.0128l-.0073.0077c-.005.0051-.005.0051-.0123.0051l-.0111.0089c-.0307.0179-.0479.0473-.0651.0818-.2638.4151-.5676.8013-.9065 1.1526-1.2652 1.3174-2.7969 1.978-4.59269 1.978-1.7958 0-3.3263-.6606-4.59761-1.978h.00491c-.35247-.3636-.66589-.7659-.93475-1.1999-.03227-.0502-.08057-.0868-.13635-.1035l-.01105-.0051c-.01843-.0077-.03071-.0077-.0479-.0077-.02828.0005-.0562.0066-.0823.0179l-.01106.0077c-.17196.0562-.35867.0856-.55888.0856-.45326 0-.84264-.1674-1.160771-.5047-.156717-.158-.280795-.3476-.364643-.5572s-.125702-.4348-.123001-.6618c0-.4703.164595-.8766.487644-1.21266v-.00511c.234611-.25045.512211-.40378.824201-.46512h.02334c.04554-.0114.08771-.03421.12283-.06644.02932-.03379.05187-.07332.06633-.11628.00396-.01888.00561-.0382.00492-.0575v-.01278c.01842-1.83107.65469-3.39253 1.90144-4.69715v.00639c.80701-.83823 1.72088-1.41452 2.73916-1.7148.00492-.00638.01106-.00638.0172-.00638.03485-.01917.0727-.03172.11178-.03706.06091-.01549.11372-.05486.1474-.10989.01841-.02613.03067-.05639.03579-.08835s.00296-.06472-.00631-.09565c-.01563-.06335-.05326-.11844-.10564-.15461z"/><path d="m11.5768 6.98009c-.0719-.04473-.1517-.07391-.2346-.08576-.083-.01186-.1674-.00616-.2482.01676-.0818.01968-.1588.05703-.2258.10964-.0671.05261-.1228.1193-.1635.19575-.044.07433-.0724.15748-.0834.244-.011.08653-.0044.1745.0195.25817.0248.0995.0705.19203.1339.27089.0444.05551.0991.10114.1609.13417.0729.04391.1535.07198.2372.08252.0836.01054.1684.00334.2492-.02119.1236-.02844.2354-.09688.3194-.1955.0245-.02939.0454-.06772.0712-.1035.084-.15723.1069-.34199.0639-.51623-.0221-.08265-.06-.15979-.1115-.22677s-.1156-.12241-.1882-.16295zm-5.21795.91106c.08617-.15552.10958-.34023.06511-.51367-.01913-.08425-.05532-.16328-.10616-.23181s-.11515-.12498-.18864-.16558c-.07217-.04622-.15284-.07624-.23681-.08812-.08398-.01188-.16942-.00537-.25084.01912-.0811.02165-.15701.06053-.22297.11418-.06595.05366-.12052.12094-.16026.1976-.04379.07465-.07209.158-.08309.2447s-.00446.17483.01921.25875c.04478.17209.1523.31924.29972.41017.07215.04401.15222.07217.23525.08271.08303.01055.16726.00328.24748-.02138.12283-.03833.23092-.10478.31199-.20317zm6.55805 2.07002c-.033-.03473-.0754-.05796-.1216-.06644-.0229-.00837-.0473-.01099-.0713-.00767h-8.40785c-.0651 0-.12283.02555-.16459.07411-.03383.03512-.05655.08013-.0651.12903v.0051c-.00492.0128-.00492.0256-.00492.0384 0 .0294.00492.0549.01229.0856.04667.2389.11177.4753.20021.7168l.00492.0051v.0179c.00737.0077.00737.0205.01228.0269.19725.5752.5038 1.1032.90138 1.5526s.87805.8109 1.41278 1.063c1.12392.5469 2.27486.5942 3.4454.1482.5617-.2026 1.0778-.5219 1.5172-.9383.4394-.4165.7929-.9215 1.039-1.4844h.0049c.0467-.1099.0946-.2261.1363-.3424.0922-.2645.1622-.5265.2175-.7961v-.0076c.0033-.0346.0017-.0695-.005-.1035-.0096-.0446-.0319-.08507-.0638-.11633zm-.7174 1.15643c-.2194.5045-.5355.957-.929 1.3299-.3935.3728-.8561.6582-1.35933.8385h-.0086c-.49363.2009-1.02198.2931-1.55162.2707-.52965-.0224-1.04905-.159-1.52533-.4011-.47588-.2225-.90401-.5421-1.25909-.9398s-.62989-.8654-.80818-1.3755v-.0102c-.00512-.0173-.01086-.0343-.0172-.0511v-.0128c-.04741-.1278-.08882-.2578-.12406-.3897h7.83551c-.0339.1471-.077.2918-.129.4331zm-2.53031-10.621012-.00737-.005111c-.1168-.112436-.2468-.209038-.38692-.287502-.16651-.089906-.34558-.1519995-.53064-.1840022-.18751-.02862472-.37817-.02646886-.56503.006389h-.00614c-.18794.0353565-.36764.1077882-.52941.2133912-.15821.102403-.30101.228563-.42377.374392l-.00737.006389c-.13025.151138-.23379.325038-.30585.513666v.00639c-.0788.19384-.11691.40295-.11178.61334v.0115c-.00614.15462.01228.30667.04176.4664.04177.20189.0995.39739.18794.5865.0651.14184.1474.27728.24198.40506.09458.12906.19898.25045.32305.36161l.00614.00512c.07738.0805.16459.15333.26409.22105.08229.06006.17073.115.26531.16484.00615 0 .00615 0 .01229.00639.17073.0805.35253.14055.54046.17761.1474.02428.30094.03706.45939.03706h.01229c.18793-.00639.37832-.04345.56011-.09712 0-.00639 0-.00639.00614-.00639.12528-.03224.24773-.07541.36604-.12905h.0049c.1253-.06134.242-.12778.3599-.20189v.00639c.1179-.0805.2359-.15334.3575-.23256.0517-.03521.088-.09036.1007-.15334.0093-.03084.0116-.06353.0067-.09547-.0049-.03193-.0169-.06225-.035-.08853-.0338-.05484-.0866-.09415-.1474-.10989-.0297-.00925-.0612-.01129-.0918-.00598-.0307.00532-.0598.01785-.085.03665-.118.07922-.2359.15333-.3489.22617h-.0061c-.0973.05991-.1974.11491-.29974.16483-.00615 0-.00615 0-.00615.00639-.10012.04076-.20174.07742-.30462.10989h-.01228c-.14863.04345-.2948.07411-.44834.0805-.12529 0-.2469-.0115-.36604-.03066-.14704-.03191-.29064-.07899-.42869-.14056h.00492c-.07126-.04154-.14169-.08457-.21128-.12906-.0762-.05135-.14701-.11088-.21127-.17761-.00614 0-.00614 0-.00614-.00639-.18994-.1735-.34592-.38349-.45939-.61845-.07156-.14962-.12321-.30867-.15354-.47278-.02348-.12063-.03296-.24375-.02825-.36673v-.0115c-.00464-.14727.02177-.29381.07738-.42933l.00614-.00639c.05159-.14056.12283-.26323.21619-.373118.09294-.11292.20237-.209939.32427-.287503h.00615c.11039-.074961.23467-.125019.36481-.146945h-.00737c.13757-.024278.27269-.024278.41886-.007667h.00614c.13023.021309.25607.065375.37218.130334l.00491.005112c.0995.054945.19531.122667.28129.208279h-.00491c.07758.080923.143.173538.19407.274728.05462.1166.08278.24468.0823.37439v.00639c.00491.13931-.0274.27731-.09335.39867-.06571.12669-.15926.23543-.27303.31737-.11378.08194-.24455.13475-.38167.15413-.00491-.00639-.00491-.00639-.01105 0-.07484.01278-.15118.01278-.22602 0h-.00368c-.0496-.0073-.09644-.02818-.13572-.06052-.03929-.03233-.0696-.07495-.08784-.12348-.01191-.03011-.02945-.05748-.05158-.0805-.02214-.02303-.04844-.04127-.07739-.05367-.0279-.01266-.058-.0192-.08844-.0192s-.06054.00654-.08844.0192c-.02905.01221-.05545.03039-.07761.05344s-.03963.0505-.05136.08073c-.02325.06072-.02325.12839 0 .18911.04738.12493.12537.23478.22622.31862s.22105.13875.34863.15928c.13328.0243.26961.0243.40289 0h-.01228c.21127-.02939.40535-.10989.581-.23895.1781-.12778.31936-.2875.42008-.47789.10524-.19624.15824-.4181.15354-.64273v-.00511c0-.21467-.0479-.41017-.13634-.594174-.07167-.14739-.16491-.282313-.27637-.399948z"/></g></svg>