<svg fill="none" height="16" viewBox="0 0 17 16" width="17" xmlns="http://www.w3.org/2000/svg"><path d="m11.3333 3.77778c.3736 0 .7388-.11078 1.0494-.31834.3107-.20755.5528-.50255.6957-.8477.143-.34515.1804-.72495.1075-1.09135-.0729-.36641-.2528-.702981-.5169-.967146-.2642-.264166-.6008-.444065-.9672-.5169487-.3664-.0728832-.7462-.03547688-1.0913.1074887-.3452.142965-.64017.385069-.84772.695696-.20755.31063-.31833.67582-.31833 1.04941 0 .50096.199.98141.55324 1.33565.35421.35423.83471.55324 1.33561.55324zm0-2.833335c.1868 0 .3694.055391.5247.159165.1554.10378.2764.25128.3479.42386.0715.17257.0902.36247.0537.54567-.0364.18321-.1264.35149-.2584.48357-.1321.13209-.3004.22204-.4836.25848s-.3731.01774-.5457-.05375c-.1726-.07148-.3201-.19253-.4238-.34784-.1038-.15532-.1592-.33792-.1592-.52471.0003-.25039.0999-.49045.2769-.66751.1771-.17705.4171-.276647.6675-.276935zm-7.55552 4.722225c0-.37359-.11078-.73879-.31834-1.04941-.20755-.31063-.50255-.55273-.8477-.6957-.34515-.14296-.72495-.18037-1.09135-.10749-.36641.07289-.702981.25279-.967147.51695-.264165.26417-.444064.60073-.5169477.96714-.0728832.36641-.03547688.7462.1074887 1.09135.142965.34515.385069.64016.695695.84771.310631.20755.675821.31834 1.049411.31834.50096 0 .98141-.19901 1.33565-.55325.35423-.35423.55324-.83468.55324-1.33564zm-1.88889.94444c-.18679 0-.36939-.05539-.52471-.15917-.15531-.10377-.27636-.25127-.34784-.42385-.071486-.17257-.090189-.36247-.053748-.54567.036442-.18321.126388-.35149.258478-.48358.13208-.13208.30036-.22203.48357-.25847.1832-.03644.3731-.01774.54567.05374.17258.07149.32008.19254.42386.34785.10377.15531.15916.33791.15916.52471-.00028.25039-.09988.49045-.27693.6675-.17706.17706-.41712.27665-.66751.27694zm13.22221-2.83333c-.3736 0-.7388.11078-1.0494.31833-.3106.20756-.5527.50256-.6957.84771s-.1804.72494-.1075 1.09135.2528.70298.517.96714c.2641.26417.6007.44407.9671.51695.3664.07289.7462.03548 1.0914-.10749.3451-.14296.6401-.38507.8477-.69569.2075-.31063.3183-.67583.3183-1.04941 0-.50097-.199-.98141-.5532-1.33565-.3543-.35423-.8347-.55324-1.3357-.55324zm0 2.83333c-.1868 0-.3694-.05539-.5247-.15917-.1553-.10377-.2764-.25127-.3478-.42385-.0715-.17257-.0902-.36247-.0538-.54567.0365-.18321.1264-.35149.2585-.48358.1321-.13208.3004-.22203.4836-.25847s.3731-.01774.5456.05374c.1726.07149.3201.19254.4239.34785s.1592.33791.1592.52471c-.0003.25039-.0999.49045-.277.6675-.177.17706-.4171.27665-.6675.27694zm-9.44443-2.83333c.37358 0 .73878-.11078 1.04941-.31834.31062-.20755.55273-.50255.69569-.8477.14297-.34515.18038-.72495.10749-1.09135-.07288-.36641-.25278-.702981-.51695-.967146-.26416-.264166-.60073-.444065-.96714-.5169487-.36641-.0728832-.7462-.03547688-1.09135.1074887-.34515.142965-.64015.385069-.84771.695696-.20755.31063-.31833.67582-.31833 1.04941 0 .50096.19901.98141.55324 1.33565.35424.35423.83468.55324 1.33565.55324zm0-2.833335c.18679 0 .36939.055391.5247.159165.15532.10378.27637.25128.34785.42386.07148.17257.09019.36247.05374.54567-.03644.18321-.12639.35149-.25847.48357-.13208.13209-.30037.22204-.48357.25848s-.3731.01774-.54568-.05375c-.17257-.07148-.32007-.19253-.42385-.34784-.10378-.15532-.15917-.33792-.15917-.52471.00029-.25039.09989-.49045.27694-.66751.17706-.17705.41711-.276647.66751-.276935zm2.83333 4.722225c.57324.00259 1.13231.17841 1.6039.50436.4715.32596.8335.78685 1.0385 1.32219.2254.59702.645 1.1009 1.1914 1.43065.4756.28514.856.70488 1.0931 1.20613.2371.5013.3203 1.0617.239 1.6102-.0861.5758-.3465 1.1115-.7461 1.5349-.3996.4235-.9192.7144-1.4891.8338-.1876.038-.3785.0574-.57.0578-.4131.0001-.8207-.0939-1.19206-.2749-.36466-.1754-.76413-.2665-1.1688-.2665s-.80414.0911-1.1688.2665c-.37134.181-.77905.275-1.19215.2749-.19157-.0004-.38263-.0198-.57038-.0579-.56986-.1194-1.08948-.4104-1.48902-.834-.39954-.4235-.65983-.9592-.74586-1.535-.0812-.5485.00203-1.1088.23917-1.61.23714-.50123.61754-.92089 1.09313-1.20597.54647-.32976.96618-.83368 1.1917-1.43076.205-.53531.56702-.99615 1.03857-1.32208.47154-.32593 1.03059-.50172 1.6038-.50432zm0-.94445c-.76535.00022-1.51251.23333-2.1422.66836s-1.11208 1.05138-1.38308 1.76715c-.1522.40014-.43383.73791-.8001.95955-.63157.38196-1.13678.94132-1.4527 1.60838-.31592.66704-.42857 1.41234-.32392 2.14294.12899.9002.5783 1.7236 1.26546 2.3192.68716.5957 1.56607.9235 2.47543.9233.55541 0 1.10356-.1262 1.60312-.3689.23652-.1136.49552-.1725.75787-.1725s.52135.059.75786.1725c.49952.2427 1.04766.3689 1.60296.3689.9093.0002 1.7881-.3276 2.4752-.9231.6872-.5955 1.1365-1.4188 1.2656-2.3188.1048-.7307-.0078-1.476-.3237-2.14319-.3158-.66715-.821-1.2266-1.4526-1.60865-.3662-.22162-.6477-.55933-.7999-.95941-.2709-.71582-.7533-1.33223-1.383-1.7673-.6297-.43508-1.37691-.66821-2.1423-.66843z" fill="#4a4a4a"/></svg>