<svg fill="none" height="21" viewBox="0 0 15 21" width="15" xmlns="http://www.w3.org/2000/svg"><path d="m.521708 17.1313v1.7608c0 .8997.769632 1.6291 1.719002 1.6291h1.35486c.53352 0 1.01091-.2315 1.3263-.5941.2403.6247.87181 1.0729 1.61338 1.0729h1.35511c.54731 0 1.0343-.2443 1.34944-.6232.21149.0917.44563.1442.69282.1442h3.39518c.9235 0 1.6722-.7096 1.6722-1.5848v-10.98371c0-1.0479-.6778-1.94787-1.6397-2.3282 1.0084-.61157 1.6375-1.73787 1.4622-2.9869-.1918-1.3671-1.3704-2.460961-2.8161-2.6170608-1.9438-.2097662-3.59729 1.2317608-3.59729 3.0326308 0 1.07986.59631 2.02836 1.49151 2.57133-.96192.38033-1.63973 1.2803-1.63973 2.3282v.76859c-.31464-.15353-.67016-.24196-1.04784-.24196-.54436 0-1.04415.1813-1.43833.48206-.16421-.6692-.65121-1.22103-1.29725-1.50079.72877-.46644 1.21379-1.24974 1.23324-2.13967.03102-1.42216-1.18203-2.64529-2.68166-2.70036-1.58999-.05833-2.903485 1.15056-2.903485 2.64483 0 .9128.489947 1.71896 1.233725 2.19496-.800652.3465-1.35928922 1.11067-1.35928922 1.9978v7.17805c-.00049241.2737.23315622.4953.52170722.4953zm3.979892 1.7608c0 .4736-.40648.8591-.90628.8591h-1.35511c-.49979 0-.90627-.3852-.90627-.8591v-1.7608h3.16766zm4.71974-15.83914c0-1.25883 1.08086-2.282932 2.40886-2.282932s2.4089 1.024102 2.4089 2.282932-1.0809 2.28316-2.4089 2.28316-2.40886-1.02433-2.40886-2.28316zm-.14846 4.89953c0-.966.82946-1.7521 1.84872-1.7521h1.4167c1.0193 0 1.8487.7861 1.8487 1.7521v10.98391c0 .4492-.3855.8148-.8597.8148h-1.2911v-5.2983h-.8125v5.2983h-1.29132c-.1268 0-.24621-.0278-.35478-.0747.01994-.0989.03126-.2009.03126-.3052v-5.3235c.14206-.0359.27674-.0954.39664-.1766l2.0831-1.4077c.2728-.1843.4538-.4594.5094-.7742.0557-.3148-.0209-.6307-.2154-.8892-.1945-.2588-.4848-.4301-.8172-.483-.3326-.053-.6654.0196-.9382.2041l-1.2446.841c.08076-.2219.12655-.459.12655-.7066 0-.475-.16323-.91345-.43677-1.27185v-1.43126zm-1.86032 1.29663c.81838 0 1.48461.63093 1.48461 1.40678 0 .5873-.38211 1.091-.92277 1.3015-.02881-.0012-.05737-.0037-.08618-.0037h-.95133c-.02881 0-.05737.0025-.08617.0037-.54067-.2105-.92253-.7142-.92253-1.3015 0-.77585.66598-1.40678 1.48437-1.40678zm-1.07075 3.64188c.17949-.1095.38531-.1673.59533-.1673h.95133c.21001 0 .41559.0578.59483.1673.01526.0093.03176.0156.04801.0228l.89003-.496 1.87806-1.2691c.0965-.0651.2142-.0899.3324-.0717.1181.0187.2208.0794.2893.1706.1428.1897.0962.4541-.1039.5894l-2.08318 1.4077c-.04801.0327-.0975.0504-.14477.0611l-.59434.385c-.00024.0094-.00221.0182-.00172.0276l.00345 5.6532c0 .4736-.40649.8589-.90628.8589h-.27132v-2.472h-.81247v2.4715h-.27107c-.4998 0-.90628-.3852-.90628-.8589v-5.5589l-1.26894-.9271-1.55158-1.0486c-.09627-.0651-.16003-.1624-.17973-.2744s.00714-.2237.07583-.315c.06845-.0912.17136-.1516.28929-.1703s.23611.0068.33238.0716l1.19704.809zm-5.204263-7.62558c0-1.03483.888553-1.87693 1.980463-1.87693 1.09192 0 1.98023.84187 1.98023 1.87693 0 1.03483-.88831 1.87693-1.98023 1.87693-1.09191 0-1.980463-.84186-1.980463-1.87693zm-.125564 4.193c0-.7868.675337-1.42683 1.505537-1.42683h1.20099c.8302 0 1.50578.64003 1.50578 1.42683v.53853c-.06992.20785-.10833.42935-.10833.65895s.03841.451.10833.6589v.0352l-1.22609-.8285c-.27329-.1844-.60665-.2572-.93854-.2042-.33237.0527-.6224.2242-.8169.483-.40279.5353-.27083 1.2815.29397 1.6634l2.08313 1.408c.12015.0809.25458.1404.39664.1764v2.3135h-4.004517z" fill="#4a4a4a"/></svg>