<svg fill="none" height="17" viewBox="0 0 17 17" width="17" xmlns="http://www.w3.org/2000/svg"><g fill="#4a4a4a"><path d="m15.5833 0h-14.16663c-.781153 0-1.41667.635517-1.41667 1.41667v9.06663c0 .7812.635517 1.4167 1.41667 1.4167h4.09133l-.01672.3414-1.4416 1.4416c-.05326.053-.08301.1252-.08301.2003v2.8334c0 .1045.05751.2006.1496.2499.0918.0493.204.0439.2907-.0142l.69303-.4618.69275.4618c.04732.0317.10228.0476.15725.0476.0459 0 .0918-.0111.13373-.0334.09209-.0493.1496-.1454.1496-.2499v-2.4327l.6426-.6426.33575.5145c.07339.1119.21477.1575.3383.1099l.95002-.3626.95002.3623c.03286.0128.06715.0188.10086.0188.0935 0 .1836-.0465.23744-.1287l.33578-.5145.6426.6429v2.4327c0 .1045.0575.2006.1496.2499.0918.0493.204.0439.2907-.0142l.693-.4618.6927.4618c.0474.0317.1023.0476.1573.0476.0459 0 .0918-.0111.1337-.0334.0921-.0493.1496-.1454.1496-.2499v-2.8334c0-.0751-.0297-.1473-.083-.2003l-1.4416-1.4416-.0167-.3414h4.0913c.7812 0 1.4167-.6355 1.4167-1.4167v-9.06663c0-.781153-.6355-1.41667-1.4167-1.41667zm.85 1.41667v.82733c-.8667-.12495-1.5523-.81062-1.6773-1.677333h.8273c.4687 0 .85.381366.85.850003zm-4.3126 9.17233-.6369-.7919.0499-1.01518c.0062-.13289-.0805-.25245-.2089-.2873l-.9812-.26577-.55528-.85142c-.0731-.11163-.21392-.15725-.3383-.10993l-.95002.36267-.95002-.36239c-.1241-.04845-.26548-.00198-.3383.10994l-.55533.85141-.98118.2652c-.12835.03485-.21534.15442-.20882.2873l.04987 1.01547-.63694.7919c-.0833.1037-.0833.2516 0 .3553l.3128.389h-2.37546c-.13119-1.1798-1.06987-2.11873-2.249953-2.24992v-6.26676c1.180083-.13119 2.118763-1.07015 2.249953-2.249953h11.36678c.1312 1.179803 1.0698 2.118763 2.2499 2.249953v6.26676c-1.1801.13119-2.1187 1.07012-2.2499 2.24992h-2.3755l.3128-.389c.0833-.1037.0833-.2516 0-.3553zm-10.70403-10.022333h.82733c-.12495.866713-.81062 1.552383-1.677333 1.677333v-.82733c0-.468637.381366-.850003.850003-.850003zm-.850003 9.916633v-.8273c.866713.12495 1.552383.8106 1.677333 1.6773h-.82733c-.468637 0-.850003-.3813-.850003-.85zm5.183013 3.483c-.05326.053-.08301.1253-.08301.2004v2.0204l-.40942-.2728c-.0476-.0318-.10257-.0476-.15725-.0476s-.10965.0158-.15725.0476l-.40942.2728v-2.1865l1.02539-1.0254c.00368.0032.00906.004.01275.0071.02975.0244.0629.0451.102.0558.00056.0003.00085.0006.0017.0009l.78851.2133zm3.68872-.3113-.83753-.3196c-.0323-.0125-.06659-.0187-.10087-.0187s-.06857.0062-.10087.0187l-.83753.3196-.40148-.6157-.08812-.1349c-.03825-.0584-.09633-.1003-.1632-.1187l-.8653-.2343.0085-.1731c0-.0003 0-.0003 0-.0006l.03542-.7217c.0034-.0691-.0187-.1374-.06234-.1915l-.56156-.6978.56156-.6982c.04335-.0541.06545-.12237.06234-.1915l-.04392-.89533.8653-.23404c.06687-.01813.12495-.06035.1632-.11871l.4896-.75055.83753.3196c.06489.02493.13714.02493.20202 0l.83753-.3196.4896.75055c.03825.05836.09632.1003.16322.11871l.8653.23432-.0439.89505c-.0034.06913.0187.1374.0623.1915l.5613.6982-.5616.6981c-.0433.0541-.0654.1224-.0623.1915l.0354.7214v.0003l.0085.1734-.8653.234c-.0669.0181-.12495.0604-.1632.1187l-.08812.1349zm3.0283 2.5321-.4094-.2728c-.0476-.0318-.1026-.0476-.1573-.0476s-.1097.0158-.1573.0476l-.4094.2728v-2.0204c0-.0751-.0297-.1474-.083-.2004l-.714-.714.7883-.2133c.0399-.0108.0736-.032.1039-.057.0037-.0028.0091-.0036.0125-.0068l1.0257 1.0254zm3.1166-4.8538h-.8273c.125-.8667.8106-1.55235 1.6773-1.6773v.8273c0 .4687-.3813.85-.85.85z"/><path d="m10.4833 10.7667c0-1.09371-.88998-1.98337-1.98337-1.98337-1.09338 0-1.98333.88966-1.98333 1.98337 0 1.0936.88995 1.9833 1.98333 1.9833 1.09339 0 1.98337-.8897 1.98337-1.9833zm-1.98337 1.4166c-.78115 0-1.41666-.6355-1.41666-1.4166 0-.78119.63551-1.41671 1.41666-1.41671s1.41667.63552 1.41667 1.41671c0 .7811-.63552 1.4166-1.41667 1.4166z"/><path d="m13.0333 5.66669h-8.7833v.56666h8.7833z"/><path d="m5.38343 3.40002h6.23337c.1566 0 .2833-.12693.2833-.28333v-1.41667c0-.1564-.1267-.28333-.2833-.28333h-6.23337c-.15668 0-.28333.12693-.28333.28333v1.41667c0 .1564.12665.28333.28333.28333zm.28333-1.41667h5.66664v.85h-5.66664z"/><path d="m7.93353 4.53333h-1.98333v.56666h1.98333z"/><path d="m11.0502 4.53333h-1.98331v.56666h1.98331z"/><path d="m3.11673 7.08331h-.56666v.56667h-.56667v.56667h.56667v.56666h.56666v-.56666h.56667v-.56667h-.56667z"/><path d="m13.8836 8.78331h.5666v-.56666h.5667v-.56667h-.5667v-.56667h-.5666v.56667h-.5667v.56667h.5667z"/></g></svg>