<svg fill="none" height="11" viewBox="0 0 17 11" width="17" xmlns="http://www.w3.org/2000/svg"><g fill="#4a4a4a"><path d="m12.547 5.70489c-.0179-.14306-.0358-.30402-.0894-.44709-.2683-.89417-1.2876-2.30697-3.45155-2.68253-.76899-.57227-2.03873-1.32338-3.66613-1.60952-.28614-.053651-.57227.07153-.73323.3219-.16095.25037-.16095.55439 0 .78688.30402.44709.44709.80476.41133 1.03725-.82265.33979-1.53799.78687-2.09238 1.21608-.42921-.75111-1.1982-1.32338-2.128145-1.60952-.232486-.07154-.50074 0-.661692.19672-.1609518.19672-.1788353.46497-.0536504.67957.3755544.67958.5722734 1.46646.5722734 2.25333 0 .78688-.196719 1.55587-.5722734 2.23545-.1251849.2146-.1073014.48285.0536504.66169.160952.19672.411322.26825.661692.19672.929945-.28614 1.681055-.8763 2.128145-1.62741.55439.42921 1.26973.8763 2.09238 1.21609.03576.23248-.08942.59015-.41133 1.03724-.16095.23249-.16095.53646 0 .78686.14307.2146.37556.3398.60804.3398.03577 0 .08942 0 .12519-.0179 1.6274-.2861 2.89714-1.05511 3.66613-1.6095 2.16395-.37555 3.18325-1.78835 3.45155-2.66465.0715-.2146.1073-.41132.1073-.59016 0-.01788 0-.01788 0-.03576-.0179 0-.0179-.03577-.0179-.07154zm-7.49322-4.11322c.01789-.01788.05365-.08941.14307-.08941h.03577c1.03724.17883 1.91354.57227 2.611.98359-.78688 0-1.57376.17884-2.2891.42921-.03577-.32191-.19672-.69746-.50074-1.14455-.05365-.07153-.01788-.14307 0-.17884zm.17884 8.58413c-.1073.0179-.16095-.0537-.17884-.0894-.01788-.0358-.05365-.10734 0-.17887.30402-.44709.46497-.80476.50074-1.14455.73323.25037 1.50222.41132 2.2891.42921-.69746.41132-1.57376.80476-2.611.98361zm5.31138-3.89863c.0716 0 .161.01788.2325.01788.4113 0 .8584-.07153 1.1625-.14307-.0179.03577-.0179.08942-.0358.12519-.2504.82264-1.4128 2.37851-4.02382 2.37851-1.9493 0-3.86284-1.05513-4.90009-1.94931-.05365-.03576-.1073-.07153-.17884-.07153-.01788 0-.03576 0-.05365 0-.08941.01788-.16095.07153-.19672.16095-.3219.76899-1.01936 1.35915-1.931421 1.64529-.035767 0-.05365-.01789-.071534-.01789v-.05365c.429206-.76899.643805-1.64528.643805-2.50369 0-.8763-.232483-1.75259-.643805-2.52159 0 0-.017883-.03576 0-.05365.017884-.01788.035767-.03576.053651-.01788.912064.28614 1.627404.87629 1.949304 1.6274.03577.07154.10731.14307.19672.16096.08942.01788.17884 0 .23249-.05366 1.03725-.89417 2.95079-1.9493 4.90009-1.9493 2.61102 0 3.77342 1.55587 4.04172 2.37851.0179.05365.0357.1073.0357.16095-.3219.07154-.9299.19672-1.377.14307-.1431 0-.2861.08942-.304.25037.0179.14307.1252.26825.2682.28614z"/><path d="m9.88252 5.16835c.30618 0 .55438-.24821.55438-.55439s-.2482-.55439-.55438-.55439c-.30619 0-.5544.24821-.5544.55439s.24821.55439.5544.55439z"/><path d="m16.714 0c-.143 0-.2682.125185-.2682.268253v6.938827c0 .60804-.5008 1.10878-1.1088 1.10878s-1.1088-.50074-1.1088-1.10878v-.67958h.3935c.0894 0 .1788-.05365.2324-.12519.0537-.07153.0537-.17883.0179-.26825l-.6795-1.53798c-.0537-.12519-.1789-.17884-.3041-.16096-.1252.03577-.2146.16096-.2146.28614v2.5037c0 .91206.7511 1.66317 1.6632 1.66317s1.6632-.75111 1.6632-1.66317v-6.956707c-.0179-.143068-.1431-.268253-.2862-.268253z"/></g></svg>