<svg fill="none" height="22" viewBox="0 0 17 22" width="17" xmlns="http://www.w3.org/2000/svg"><g fill="#4a4a4a"><g clip-rule="evenodd" fill-rule="evenodd"><path d="m5.78399 7.9688c-1.86781 0-3.41318 1.43948-3.51539 3.3508l-.54506.4123c-.800704.6028-1.271392 1.5487-1.271392 2.5524v2.6702c0 1.1942.971832 2.1706 2.163742 2.1706h11.76631c1.1919 0 2.1651-.9764 2.1651-2.1706v-2.6702c0-1.0037-.4721-1.9496-1.2727-2.5524l-.5465-.4137c-.0659-1.0996-.5667-1.93763-1.2078-2.48468-.6858-.58528-1.5377-.86919-2.3048-.86472h-.2366v.70835h.2366c.5847-.00804 1.2955.22755 1.8441.69592.5294.45994.9483 1.15773.967 2.13743l.0071.1716.8163.6157c.6229.4689.9906 1.2042.9906 1.9865v2.6702c0 .8128-.6492 1.4623-1.4568 1.4623h-11.76641c-.80764 0-1.45541-.6495-1.45541-1.4623v-2.6702c0-.7823.36628-1.5176.98919-1.9865l.82039-.617v-.177c0-1.56548 1.25651-2.82649 2.81392-2.82649h.23659v-.70834z"/><path d="m2.27636 11.3943-.22411.6723.95178.3182c.30473.102.62369.1536.94492.1536h9.10185c.3212 0 .6401-.0516.9449-.1536l.9518-.3182-.2241-.6723-.9518.3195c-.2323.0779-.476.1162-.7208.1162h-9.10185c-.2448 0-.48712-.0383-.71938-.1162z"/><path d="m.452148 15.5918c0 1.1943.971832 2.1707 2.163742 2.1707h11.76631c1.1919 0 2.1651-.9764 2.1651-2.1707h-.7083c0 .8129-.6491 1.4624-1.4568 1.4624h-11.76631c-.80764 0-1.45541-.6495-1.45541-1.4624z"/><path d="m2.26123 18.8026v1.8165c-.00007.4416.36451.808.80651.808h.90617c.44207 0 .80665-.3664.80658-.808v-1.8165h-.70833v1.8165c0 .0603-.04038.0996-.09825.0996h-.90617c-.05809 0-.09825-.0396-.09818-.0996v-1.8165z"/><path d="m12.2183 18.8026v1.8165c-.0001.4416.3645.808.8065.808h.9062c.442 0 .8066-.3664.8065-.808v-1.8165h-.7083v1.8165c.0001.0603-.0404.0996-.0982.0996h-.9062c-.058 0-.0982-.0396-.0982-.0996v-1.8165z"/></g><path d="m3.52015 13.6479c-.69197 0-1.25892.5693-1.25892 1.2618 0 .6923.56695 1.2631 1.25892 1.2631s1.26034-.5708 1.26034-1.2631c0-.6925-.56837-1.2618-1.26034-1.2618zm0 .7084c.30777 0 .55201.2422.55201.5534 0 .311-.24424.5548-.55201.5548s-.55059-.2437-.55059-.5548.24282-.5534.55059-.5534z"/><path d="m13.4772 13.6479c-.692 0-1.2589.5693-1.2589 1.2618 0 .6923.5669 1.2631 1.2589 1.2631s1.259-.5708 1.259-1.2631c0-.6925-.567-1.2618-1.259-1.2618zm0 .7084c.3078 0 .5506.2422.5506.5534 0 .311-.2428.5548-.5506.5548-.3077 0-.5506-.2437-.5506-.5548s.2429-.5534.5506-.5534z"/><g clip-rule="evenodd" fill-rule="evenodd"><path d="m6.23597 13.648c-.05376 0-.1068.0124-.1551.036-.04829.0236-.09058.0579-.12364.1003-.03307.0424-.05605.0918-.0672.1444s-.01019.107.00283.1592l.45241 1.8165c.01912.0766.06326.1446.12542.1932s.13878.0751.2177.0752h3.62051c.0791.0002.1561-.0262.2185-.0748.0624-.0487.1068-.1168.126-.1936l.4524-1.8165c.013-.0523.014-.1069.0027-.1596-.0112-.0527-.0343-.1021-.0675-.1445s-.0757-.0768-.1242-.1003c-.0484-.0235-.1016-.0357-.1555-.0355zm.45376.7083h3.61917l-.2767 1.1082h-3.06714z"/><path d="m1.25892 10.2404c-.69197 0-1.25892.5707-1.25892 1.2631v.4538c0 .4416.364508.8093.806579.8093h.727671v-.7083h-.727671c-.058084 0-.098246-.0413-.098246-.101v-.4537c0-.3111.242888-.5548.550587-.5548h1.35724v-.7084z"/><path d="m14.3818 10.2404v.7084h1.3572c.3078 0 .552.2436.552.5548v.4538c0 .0602-.0404.1009-.0982.1009h-.6696v.7083h.6696c.442 0 .8065-.3677.8065-.8093v-.4538c0-.6924-.5683-1.2631-1.2603-1.2631z"/></g><path d="m8.22344 2.09866c-.51241.13011-.86686.62642-.76925 1.14691.12395.55747.60605.81354.99612.82885h.0248c.1967-.01338.34871.10955.37492.24903.02621.14001-.05879.28274-.24764.33064-.18898.04819-.37726-.0509-.43442-.18824l-.65301.27263c.20343.4884.7492.73184 1.26175.60173.51248-.13011.86686-.62642.76918-1.14691-.11567-.527-.52586-.79689-.99613-.82886h-.02337c-.19741.01339-.35013-.10946-.37626-.24894-.02621-.14028.05879-.28269.24763-.33064.18898-.04819.37711.0509.43442.18824l.65294-.27256c-.20336-.48847-.74927-.73178-1.26168-.6018z"/><path d="m8.14502 1.59387v1.06244h.70833v-1.06244z"/><path d="m8.14502 4.78113v1.06251h.70833v-1.06251z"/><path d="m8.49927 0c-.95299 0-1.90627.363794-2.63132 1.08882-1.45024 1.4502-1.45024 3.81117 0 5.26136 1.45018 1.45009 3.81247 1.45009 5.26265 0 1.4502-1.45019 1.4502-3.81116 0-5.26136-.7251-.725026-1.67834-1.08882-2.63133-1.08882zm0 .704259c.77024 0 1.54073.295637 2.13053.885391 1.1795 1.17945 1.1795 3.08025 0 4.25962-1.17945 1.17946-3.08161 1.17946-4.26105 0-1.17952-1.17937-1.17952-3.08017 0-4.25962.58975-.589754 1.36028-.885391 2.13052-.885391z"/><path clip-rule="evenodd" d="m8.14502 7.96875v2.12505h.70833v-2.12505z" fill-rule="evenodd"/></g></svg>