<svg fill="none" height="12" viewBox="0 0 17 12" width="17" xmlns="http://www.w3.org/2000/svg"><path d="m15.8164 5.18929h-.0692v-2.77296c0-1.33227-1.0839-2.41633-2.4162-2.41633h-9.6624c-1.33226 0-2.41615 1.08406-2.41615 2.41633v2.77296h-.06907c-.652443 0-1.18338.52199-1.18338 1.1637v5.45751h3.22087v-.447c0-.3455.28113-.6267.62686-.6267h9.30457c.3457 0 .6266.2812.6266.6267v.447h3.2211v-5.45751c-.0002-.64171-.5311-1.1637-1.1836-1.1637zm-14.02711-2.77296c0-1.03629.84303-1.879488 1.87931-1.879488h9.6624c1.0363 0 1.8793.843198 1.8793 1.879488v2.77296h-.5368v-.08893c0-1.13489-.9234-2.05825-2.0582-2.05825h-1.7888c-1.13489 0-2.05826.92336-2.05826 2.05825v.08893h-.53684v-.08893c0-1.13489-.92355-2.05825-2.05825-2.05825h-1.78858c-1.13489 0-2.05843.92336-2.05843 2.05825v.08893h-.53685zm12.34741 2.77296h-4.83162v-.08893c0-.83891.68251-1.52141 1.52142-1.52141h1.7888c.8389 0 1.5214.68232 1.5214 1.52141zm-6.44214 0h-4.83158v-.08893c0-.83891.68233-1.52141 1.52141-1.52141h1.78858c.8389 0 1.52141.68232 1.52141 1.52141v.08893zm-6.51118.53685h.06907 1.07369 5.90526.53684 5.90526 1.0737.0692c.3565 0 .6466.28112.6466.62685v2.41525h-15.926337v-2.41525c0-.34573.290253-.62685.646717-.62685zm13.12862 5.54756c-.0458-.5998-.5486-1.0737-1.1599-1.0737h-9.30455c-.61147 0-1.11431.4739-1.16012 1.0737h-2.150767v-1.96862h15.926337v1.96862z" fill="#4a4a4a"/></svg>