<svg fill="none" height="17" viewBox="0 0 17 17" width="17" xmlns="http://www.w3.org/2000/svg"><g fill="#4a4a4a"><path d="m16.8767 15.9183c-.3556-.7978-.7878-1.7556-1.4884-2.3265.9864-.7832 1.5876-1.9812 1.5876-3.2732 0-2.30819-1.8861-4.18579-4.2045-4.18579-1.352 0-2.5839.6326-3.37513 1.7018-.73962-.64431-1.70454-1.03785-2.76201-1.03785-2.31804 0-4.20408 1.8776-4.20408 4.18614 0 .8428.25375 1.638.69563 2.3051l-.05083.0387c-.3956.2988-1.32164.9984-1.04533 1.8589.07662.2395.27082.3975.54675.4462.0586.0101.12156.0152.18775.0152.02769 0 .05955-.0055.08895-.0074-.26589.4702-.40149.9272-.4104.9578-.04855.1675.04817.3419.21601.3901.02958.0089.05936.0125.08856.0125.1375 0 .2638-.0897.30419-.2276.08307-.2847.39409-1.0884.83521-1.4259.37-.1748.6996-.4024.86554-.616.00152-.0019.00152-.0039.00304-.0058.25848.1288.53119.2353.81927.3099.02674.0069.05367.01.08003.01.14071 0 .26929-.0941.30628-.2357.04399-.169-.05747-.3412-.22701-.3847-1.57198-.4071-2.67022-1.8222-2.67022-3.4415 0-1.96031 1.60156-3.55541 3.57066-3.55541s3.57104 1.5951 3.57104 3.55541c0 1.4034-.83274 2.6792-2.12139 3.2497-.16006.0708-.23193.2574-.16082.4164.07112.1597.25849.2309.41817.1601.12289-.0542.24142-.1161.35711-.1815.6941.4102 1.35863 1.2108 1.79903 2.1867.0529.1169.1685.1859.2892.1859.0434 0 .0874-.0089.1297-.0276.1597-.0712.2308-.2578.1589-.4168-.4419-.9781-1.09824-1.8064-1.80941-2.3117.28181-.2257.53271-.4846.74571-.7712.4904.426 1.0707.7348 1.7009.8977.0268.007.0533.01.0797.01.1411 0 .2696-.094.3062-.236.044-.1686-.0574-.3409-.2266-.3843-.5678-.1467-1.0842-.4385-1.516-.8358.3097-.5882.483-1.251.483-1.9414 0-1.0254-.3738-1.96467-.99051-2.6932.66811-.95627 1.74171-1.52617 2.92321-1.52617 1.9691 0 3.5707 1.59472 3.5707 3.55507 0 1.4038-.8324 2.6794-2.1207 3.2496-.16.0709-.2319.257-.1608.4164.0525.1177.1682.1874.2896.1874.0431 0 .0867-.0089.1286-.0274.1208-.0535.2363-.1141.3504-.1777.6723.4364 1.1127 1.4093 1.4683 2.2073l.0967.2154c.0525.1169.1682.1862.2888.1862.0435 0 .0875-.0088.1298-.0275.1593-.0712.2308-.2578.1593-.4168zm-13.36345-2.1314c.2052.2268.43714.4296.68937.6083-.23744.2419-.87275.565-1.32316.6159-.16253.0178-.23592-.0081-.24635-.0173-.13996-.4361.53594-.9465.82496-1.1648z"/><path d="m13.3457 10.2599c-.7691.5492-1.4512.0671-1.5284.0089-.1722-.1331-.4197-.1025-.5538.0678-.1352.1711-.1056.4187.0664.5533.2437.1907.7097.4141 1.2604.4141.38 0 .8009-.1065 1.2168-.4035.1779-.1269.2181-.3734.0908-.5503-.1272-.1769-.3749-.2172-.5522-.0903z"/><path d="m11.971 8.90348c0-.25455-.2086-.46171-.4648-.46171-.2557 0-.4637.20716-.4637.46171 0 .2553.2082.46246.4637.46246.2562 0 .4648-.20735.4648-.46246z"/><path d="m13.6447 8.44177c-.256 0-.464.20716-.464.46171 0 .2553.2082.46246.464.46246.2559 0 .4645-.20735.4645-.46246 0-.25455-.2086-.46171-.4645-.46171z"/><path d="m1.90742 11.8115-.63853-.5863c-.12896-.118-.32923-.1099-.447759.0181-.118529.1277-.110374.3275.018206.4455l.638543.5867c.06106.0557.13825.0833.21486.0833.08516 0 .17031-.0344.2327-.1014.11872-.1279.11056-.3275-.01802-.4459z"/><path d="m1.37102 12.8126c-.33302-.0774-.99166-.1501-1.019348-.1535-.172578-.0174-.3303639.1059-.34970783.2793-.01934387.173.10639183.3289.28010683.3478.006638.0008.64859.072.945199.1405.02408.0059.04817.0085.07225.0085.14375 0 .27404-.0984.30818-.2441.03963-.1694-.06638-.339-.23668-.3785z"/><path d="m1.12111 14.0543c-.136351.0605-.260759.1332-.381564.204-.120425.07-.234023.1365-.34819.1845-.161578.067-.237437.2519-.169923.4128.051205.1206.168596.1931.292245.1931.041153 0 .082686-.0077.122322-.0247.153423-.0638.291106-.1443.42405-.2221.11075-.0642.21487-.1254.31974-.1718.1593-.0708.23118-.2574.16006-.4164-.07111-.159-.25886-.2309-.41874-.1594z"/><path d="m8.76153 10.8852c-.12744-.1772-.37493-.2176-.55225-.0907-.76939.5499-1.45117.0671-1.52836.0089-.1722-.1324-.4193-.1025-.55376.0678-.13522.1711-.10526.4194.06675.5537.24332.1907.7089.4137 1.2602.4137.38005 0 .80088-.1063 1.21639-.4035.1777-.1269.21847-.3734.09103-.5499z"/><path d="m6.36953 9.90049c.2564 0 .46425-.20696.46425-.46227 0-.2553-.20785-.46227-.46425-.46227s-.46426.20697-.46426.46227c0 .25531.20786.46227.46426.46227z"/><path d="m8.97207 9.43815c0-.25493-.20823-.46171-.4633-.46171-.2564 0-.46482.20696-.46482.46171 0 .25474.20861.46208.46482.46208.25507 0 .4633-.20734.4633-.46208z"/><path d="m10.0843.00227796c-.53781 0-1.05896.21357404-1.42972.58501504-.0512.051552-.09994.105559-.14622.162965-.45628-.564998-1.18794-.8501405-1.92054-.7185216-.61939.1136796-1.10678.4524516-1.44909 1.0091436-.47999.7848-.51773 1.54279-.11303 2.25206.21184.37333.47886.7274.84127 1.11564.64821.68529 1.41344 1.33432 2.42653 2.05549.06846.04173.14033.06269.21449.06269.12478 0 .20785-.05929.249-.08932.8993-.63921 1.60611-1.22895 2.22401-1.85588.3466-.35256.74-.78556 1.0279-1.32488.1329-.25153.2681-.55725.2596-.91472-.0197-.77045-.3285-1.40702-.9175-1.891385-.3507-.288919-.8-.44829704-1.2667-.44829704zm1.5506 2.35516204c.0051.21169-.0867.41639-.1863.60447-.2492.46699-.6051.85788-.9201 1.17796-.56157.56991-1.20352 1.11017-2.02241 1.70028-.89342-.64582-1.58829-1.24103-2.17657-1.86249-.32638-.3501-.56552-.6664-.75308-.99573-.29073-.50967-.25773-1.02199.10297-1.6121.24711-.40241.58184-.636944 1.02201-.717766.08325-.015107.16821-.02285.25109-.02285.51602 0 .97269.28401 1.23232.779706.01252.02436.0256.04947.04589.0863.05709.10216.1612.159.28485.16183.11815-.00302.22454-.07119.27632-.17675.09046-.18374.18926-.32612.31196-.44811.25299-.253795.61047-.399388.98045-.399388.3194 0 .6253.108015.8627.303838.4478.36823.6731.83296.6879 1.4208z"/><path d="m10.2622 1.15009c-.1667-.05646-.34519.0355-.4.20036-.0548.16561.03566.34368.2016.39825.1978.06496.2655.23907.2883.3367.0485.20847-.0133.44074-.1548.5784-.1248.1218-.1271.32122-.0044.44585.0619.06307.1442.09479.2263.09479.08 0 .1597-.02983.2215-.09007.2977-.29024.4267-.75025.3285-1.17173-.0903-.38579-.3478-.6749-.707-.79255z"/><path d="m9.61132 3.32164c-.05993.06005-.09179.142-.09179.22396 0 .08195.03186.1641.09179.22094.05993.05967.1392.09441.22492.09441.08269 0 .16476-.03474.22186-.09441.06-.05684.0948-.13899.0948-.22094 0-.08479-.0348-.16712-.0948-.22396-.11755-.11652-.32977-.11652-.44678 0z"/></g></svg>