<svg fill="none" height="18" viewBox="0 0 17 18" width="17" xmlns="http://www.w3.org/2000/svg"><path d="m10.355 4.2067c-3.66411 0-6.64499 2.98088-6.64499 6.6448 0 3.6641 2.98088 6.645 6.64499 6.645 3.6641 0 6.645-2.9809 6.645-6.645 0-3.66392-2.9809-6.6448-6.645-6.6448zm5.8212 6.2431h-1.9245c-.0708-2.07171-.6811-3.85591-1.6063-4.9708 1.9682.84228 3.3776 2.73622 3.5308 4.9708zm-5.8212 6.1969c-1.61056 0-2.97837-2.4315-3.09354-5.3935h6.18714c-.1152 2.962-1.483 5.3935-3.0936 5.3935zm-3.09354-6.1969c.11517-2.96183 1.48301-5.39333 3.09354-5.39333 1.6105 0 2.9784 2.4315 3.0936 5.39333zm.80318-4.9708c-.9252 1.11489-1.53548 2.89909-1.60632 4.9708h-1.92447c.15315-2.23458 1.56258-4.12852 3.53079-4.9708zm-3.53079 5.7742h1.92447c.07084 2.0718.68112 3.8561 1.60632 4.971-1.96821-.8423-3.37764-2.7364-3.53079-4.971zm8.11155 4.971c.9252-1.1149 1.5355-2.8992 1.6063-4.971h1.9245c-.1532 2.2346-1.5626 4.1287-3.5308 4.971zm-8.55934-10.76854.00039-.60771h1.60578c.22186 0 .40174-.17988.40174-.40174v-4.04447c0-.221859-.17988-.40174-.40174-.40174h-5.29049c-.221859 0-.40174.179881-.40174.40174v4.04447c0 .22186.179881.40174.40174.40174h1.54105l1.52987.94864c.06473.04021.1381.06042.21166.06042.06708 0 .13437-.01687.19518-.05061.1275-.07082.20636-.20499.20656-.35074zm-.8027-1.00984-.00019.28796-1.01436-.62889c-.06356-.03963-.13692-.06042-.21166-.06042h-1.25367v-3.24099h4.48701v3.24099h-1.60539c-.22166 0-.40154.17969-.40174.40135z" fill="#4a4a4a"/></svg>