<svg xmlns="http://www.w3.org/2000/svg" width="18" height="18" viewBox="0 0 640 640" shape-rendering="geometricPrecision" text-rendering="geometricPrecision" image-rendering="optimizeQuality" fill-rule="evenodd" clip-rule="evenodd"><g fill="#4a4a4a"><path d="M335.39 25.087L417.23 216.7l207.569 18.626c9.153.791 15.933 8.858 15.141 18.012a16.51 16.51 0 0 1-5.622 11.09l.012.013-157.029 137.104 46.442 203.235c2.055 8.976-3.555 17.929-12.532 19.984-4.595 1.051-9.177.083-12.839-2.303L320 515.83 141.084 622.804c-7.901 4.724-18.13 2.15-22.854-5.752a16.612 16.612 0 0 1-1.937-12.26l-.012-.012 46.441-203.235L5.693 264.441c-6.921-6.059-7.63-16.583-1.57-23.504a16.568 16.568 0 0 1 11.645-5.658L222.794 216.7l81.887-191.719c3.602-8.48 13.394-12.425 21.85-8.81a16.612 16.612 0 0 1 8.86 8.917zm55.064 213.818L320 73.938l-70.442 164.967-.023-.012c-2.339 5.469-7.536 9.508-13.878 10.063l-178.68 16.028L191.46 382.399c4.937 3.85 7.488 10.358 6 16.866l-39.981 174.9 153.687-91.879c5.138-3.212 11.835-3.496 17.386-.177l153.994 92.056-39.97-174.9h.013c-1.311-5.775.496-12.07 5.267-16.252l135.191-118.029L405.29 249.04c-6.295-.2-12.2-3.969-14.834-10.134z" fill-rule="nonzero"/></g></svg>