<svg fill="none" height="15" viewBox="0 0 17 15" width="17" xmlns="http://www.w3.org/2000/svg"><g fill="#4a4a4a"><path d="m4.17844 12.0431c-.74499 0-1.54636-.4095-2.26091-1.1569-1.273814-1.3316-2.021916-3.37635-1.9057064-5.20908.1130974-1.78361 1.1074564-3.73013 2.4739564-4.843466.75156-.61287 1.54082-.8968236 2.22045-.8010195 1.04485.1473375 2.33769 1.2610155 2.37573 2.4231155.01245.37526-.11102.7488-.13558.8197-.13108.37595-.35209.71282-.64054.98087.48767.45377.77647 1.10123.77647 1.78396 0 .68308-.28915 1.33261-.77681 1.78846.26527.24591.47487.55061.60837.88956.1169.29744.17985.63777.16809.90997-.05119 1.21713-1.65772 2.39203-2.86548 2.41443-.01245.0004-.02524.0004-.03804.0004zm.25801-11.320814c-.44858 0-.97499.229999-1.50347.660594-1.01753.82904-2.096964 2.49264-2.214212 4.33921-.102721 1.61898.584852 3.49771 1.710642 4.67471.58831.6153 1.22505.9546 1.77393.9376.94179-.0176 2.13882-.9746 2.17098-1.73588.00588-.138-.02248-.37353-.11966-.62117-.13835-.3514-.39291-.65091-.71663-.84321-.10722-.06364-.17294-.17916-.17328-.30367-.00035-.12486.06537-.24072.17224-.30471.51637-.30885.83699-.87814.83699-1.48548 0-.61564-.31232-1.16833-.83561-1.47857-.10756-.06363-.17327-.17915-.17362-.30401s.06502-.24037.17224-.3047c.34517-.20649.60803-.52987.74049-.91066.0045-.01315.10514-.30436.09684-.56307-.02559-.77439-1.01718-1.639736-1.76701-1.745225-.05534-.007955-.11241-.011759-.17086-.011759z"/><path d="m12.8214 12.0283c-.0128 0-.0256 0-.038-.0004-1.2078-.0225-2.81432-1.1974-2.8655-2.41445-.01176-.27254.05153-.61287.1684-.90997.1332-.33895.3428-.64365.6081-.88956-.4877-.45585-.77685-1.10503-.77685-1.78811 0-.68239.28875-1.33019.77685-1.78397-.2881-.26839-.5098-.60526-.6409-.98156-.0246-.07055-.14805-.44408-.1356-.81935.03804-1.16175 1.3309-2.275431 2.3761-2.4231146.6796-.0944207 1.4685.1884956 2.2201.8006736 1.3665 1.113681 2.3608 3.060201 2.4739 4.843811.1162 1.83273-.6319 3.87748-1.9057 5.2091-.7145.7474-1.5159 1.1569-2.2609 1.1569zm-.258-11.320833c-.0581 0-.1152.003804-.1705.011759-.7502.105834-1.7418.971184-1.7674 1.745224-.0083.25871.0924.54993.0969.56238.1328.38148.3956.70487.7405.91169.1072.06399.1726.1795.1722.30436-.0003.12486-.0661.24003-.1733.30367-.5233.31093-.8359.86397-.8359 1.47926 0 .60699.3206 1.17628.837 1.48513.1068.06433.1726.17985.1722.30471-.0003.12486-.0661.24003-.1733.30367-.324.19264-.5783.49181-.7163.84321-.0975.24764-.1255.4894-.12.62117.0322.7612 1.2292 1.7183 2.171 1.7359.0087.0003.017.0003.0256.0003.5492 0 1.169-.3323 1.7483-.9379 1.1258-1.17702 1.8134-3.05575 1.7107-4.67473-.1173-1.84691-1.1967-3.51017-2.2142-4.33955-.5285-.430254-1.0549-.660253-1.5035-.660253z"/><path d="m8.50016 14.1657c-.19576 0-.35416-.1584-.35416-.3542v-6.01385c0-.19576.1584-.35417.35416-.35417s.35416.15841.35416.35417v6.01385c0 .1958-.1584.3542-.35416.3542z"/><path d="m8.50005 8.15181c-.09027 0-.1802-.03424-.24937-.10272l-1.77186-1.75733c-.13903-.13766-.13973-.36212-.00207-.50081.138-.13904.36212-.13938.50081-.00208l1.77186 1.75733c.13903.13766.13972.36212.00207.50081-.06917.06987-.16048.1048-.25144.1048z"/><path d="m8.50016 8.15182c-.09062 0-.18123-.03459-.2504-.10376-.13835-.13835-.13835-.36247 0-.50081l1.77184-1.77186c.1384-.13835.3625-.13835.5008 0 .1384.13835.1384.36246 0 .50081l-1.77183 1.77186c-.06918.06917-.15979.10376-.25041.10376z"/></g></svg>