<svg fill="none" height="17" viewBox="0 0 17 17" width="17" xmlns="http://www.w3.org/2000/svg"><g fill="#4a4a4a"><path d="m2.69504 5.60205c-1.48581 0-2.69504 1.20843-2.69504 2.69464v4.41631c0 1.4856 1.20883 2.6951 2.69504 2.6951 1.48541 0 2.69444-1.2089 2.69444-2.6951v-4.41631c-.0002-1.48621-1.20863-2.69464-2.69444-2.69464zm0 .97256c.94909 0 1.72168.77279 1.72168 1.72188v1.72171h-3.443761v-1.72171c0-.94929.772391-1.72188 1.722081-1.72188zm0 7.86009c-.94949 0-1.722081-.773-1.722081-1.7221v-1.7217h3.443761v1.7217c0 .9497-.77219 1.7221-1.72168 1.7221z"/><path d="m9.88869 10.7128c-1.48581 0-2.69484 1.2082-2.69484 2.6948 0 1.4854 1.20882 2.6944 2.69484 2.6944h4.41651c1.4858 0 2.6947-1.2088 2.6947-2.6944 0-1.4858-1.2083-2.6948-2.6947-2.6948zm-1.72208 2.6948c0-.9495.77299-1.7217 1.72208-1.7217h1.72171v3.4434h-1.72171c-.94969 0-1.72208-.7726-1.72208-1.7217zm7.85969 0c0 .9491-.7722 1.7217-1.7217 1.7217h-1.7217v-3.4434h1.7217c.9497 0 1.7217.7722 1.7217 1.7217z"/><path d="m8.67039 8.51213c.72004 0 1.39651-.28039 1.90541-.78923l1.561-1.56143h.0004c0-.0002 0-.0002 0-.0002l1.5614-1.56123c1.0504-1.05058 1.0504-2.76002 0-3.810802-.5092-.508843-1.1857-.789238-1.9054-.789238-.7198 0-1.3965.280194-1.90536.789238l-3.12286 3.122852c-1.05057 1.05058-1.05057 2.76023 0 3.81081.50885.50864 1.18577.78883 1.90541.78923zm1.90541-7.03514c.3251-.32512.7571-.504031 1.2174-.504031.4595 0 .8922.178911 1.2175.504031.6715.6715.6715 1.764 0 2.4351l-1.2175 1.21745-2.43546-2.4351zm-3.12306 3.12285 1.21765-1.21745 2.43531 2.4351-1.21726 1.21746c-.32552.32512-.75795.50423-1.21745.50423h-.0006c-.45951 0-.89173-.17911-1.21725-.50423-.67131-.67151-.67131-1.7636-.0004-2.43511z"/></g></svg>