<svg fill="none" height="14" viewBox="0 0 17 14" width="17" xmlns="http://www.w3.org/2000/svg"><path d="m16.8502 2.70942c-.0091-.01171-.2284-.28786-.5211-.58064-.2873-.2873-.6083-.55326-.6215-.5644l-.4424-.36588v-1.1985l-.7111.0177555c-.0639.0015111-1.5806.0440111-3.1299.5056555-1.48279.441622-2.77101 1.200769-2.9242 1.292759-.15338-.09199-1.4416-.850948-2.92419-1.292759-1.54927-.4616444-3.06604-.5041444-3.12989-.5056555l-.71116-.0177555v1.19869l-.44238.36588c-.01322.01114-.334336.2771-.621447.5644-.292777.29259-.512077.56893-.521144.58064l-.149789.18908v9.23081l2.18809.193c.01303.0014 1.34073.1425 3.38319.8459.10105.0347.20192.0708.3026.108 0 0 1.241.4804 2.62612.4804s2.6261-.4804 2.6261-.4804c.1005-.0372.2014-.0734.3024-.108 2.0427-.7034 3.3704-.8445 3.3749-.8449l2.1966-.194v-9.23081zm-8.00321-.29221s1.29691-.78823 2.77531-1.22872c1.4787-.44049 2.949-.476946 2.949-.476946v9.020386s-1.5323.12996-3.9897.97597c-.65606.2257-1.23689.4745-1.73518.7167zm-6.41845-1.705854s1.47032.036455 2.94894.476944c1.47843.44049 2.77534 1.22872 2.77534 1.22872l.00038 9.00738c-.49829-.2422-1.07912-.4909-1.73513-.7167-2.45745-.846-3.98971-.97596-3.98971-.97596v-9.020384zm4.17426 12.106444c-.26463-.1099-.5338-.2121-.80561-.3056-2.14899-.7399-3.52618-.8785-3.53978-.8799l-1.563432-.138v-8.3544s.200033-.25292.467502-.52039c.26746-.26747.57328-.52039.57328-.52039v7.63281l.00113.63527.63315.0559c.01455.0013 1.49317.1386 3.82349.9408.54306.1868 1.07724.4061 1.58875.6513-.50188.3102-.9214.6109-1.17772.8028zm1.8972.3887c-.8024 0-1.18074-.0659-1.18074-.0659s.578-.3887 1.18074-.7399c.60293.3512 1.18093.7399 1.18093.7399s-.37853.0659-1.18093.0659zm7.806-1.7124-1.5634.1381c-.0136.0013-1.3908.1399-3.5398.8798-.2716.0935-.5408.1957-.8056.3056l-.0006.0002c-.2563-.1919-.67581-.4926-1.17769-.8028.51151-.2451 1.04569-.4644 1.58879-.6513 2.3303-.8022 3.8089-.9397 3.8234-.9408l.6332-.0559.0011-.63526v-7.63262s.3058.25292.5733.52039.4675.52039.4675.52039v8.3542z" fill="#4a4a4a"/></svg>