<svg fill="none" height="17" viewBox="0 0 17 17" width="17" xmlns="http://www.w3.org/2000/svg"><g fill="#4a4a4a"><path d="m10.8642 6.9148.5153-.51529c.1677-.16773.1677-.43935 0-.60708-.1674-.16774-.4394-.16774-.6071 0l-.5151.51528c-.1679.16736-.1679.43936 0 .60709.0839.08387.1936.12599.3035.12599.1096-.00019.2197-.04212.3034-.12599z"/><path d="m8.5 0c-4.68671 0-8.5 3.81329-8.5 8.5 0 4.6871 3.81329 8.5 8.5 8.5 4.6871 0 8.5-3.8129 8.5-8.5 0-4.68671-3.8129-8.5-8.5-8.5zm0 16.1417c-1.90646 0-3.65066-.7036-4.99044-1.8625l2.0315-2.0316c.16773-.1678.16773-.4394 0-.6071-.16774-.1678-.43936-.1678-.60709 0l-2.04246 2.0424c-1.26064-1.3628-2.032632-3.1841-2.032632-5.1829 0-4.21354 3.427582-7.641122 7.641122-7.641122 1.9988 0 3.8201.771992 5.1829 2.032632l-.5066.5066c-.1679.16773-.1679.43973 0 .60709.0837.08387.1936.12599.3034.12599.1097 0 .2197-.04212.3033-.12561l.4959-.49584c1.1592 1.33979 1.8624 3.08399 1.8624 4.99045.0004 4.21331-3.4278 7.64151-7.6413 7.64151z"/><path d="m12.7935 7.55554h-9.95991c-.42613 0-.77255.34661-.77255.77275v1.71721c0 .4261.34642.7725.77255.7725h9.95991c.4261 0 .7726-.3464.7726-.7725v-1.71721c-.0002-.42595-.3466-.77275-.7726-.77275zm-7.12658 2.40437h-2.74738v-1.54568h2.74738zm7.04068 0h-6.1818v-1.54568h6.182v1.54568z"/><path d="m14.4245 7.89893c-.2375 0-.4294.19228-.4294.42934v1.88873c0 .2374.1921.4293.4294.4293.2368 0 .4289-.1921.4289-.4293v-1.88873c.0002-.23706-.1921-.42934-.4289-.42934z"/><path d="m14.4243 7.55562c.2369 0 .429-.19229.429-.42916 0-.9214 0-2.46386-3.1501-2.66068-1.497-.09388-1.8776-.67434-1.95901-.85-.08576-.18644-.07027-.37306.04325-.52455.14261-.18983.10389-.459-.08594-.60104-.02153-.01663-.04477-.02985-.06819-.04156-.00756-.00397-.0153-.00642-.02304-.00963-.01663-.00699-.03325-.01304-.05044-.01795-.00888-.00245-.01775-.00434-.02663-.00642-.01719-.00359-.034-.00604-.05119-.00755-.0085-.00076-.01681-.0017-.02512-.00227-.00435 0-.00831-.00076-.01266-.00076-.00755 0-.01492.00227-.02266.00246-.01946.00113-.03873.00302-.05818.00661-.01171.00227-.02267.00491-.03381.00831-.01851.00491-.03646.01171-.05421.01908-.01058.00472-.02135.00907-.03155.01435-.01832.00964-.03551.02135-.05251.03381-.00812.00605-.01662.01134-.02437.01795-.02436.02021-.04646.04288-.06649.06913-.30297.40404-.3536.92745-.13562 1.39948.35587.77161 1.33467 1.26291 2.68487 1.34697 2.3449.14657 2.3449.95181 2.3449 1.80408.0003.23705.1923.42934.4297.42934z"/></g></svg>