<svg fill="none" height="17" viewBox="0 0 17 17" width="17" xmlns="http://www.w3.org/2000/svg"><g fill="#4a4a4a"><path d="m16.7875 5.09183h-1.0834c-.0794-.19098-.1808-.3726-.3073-.54515-.0427-.05811-.0781-.12057-.1139-.18283l-.0362-.06246c-.0596-.10148-.0867-.20731-.0828-.32332.0062-.18884-.0473-1.40781-.1047-1.84069-.065-.4912-.1846-.9133-.3657-1.290776-.1187-.247363-.3-.559265-.6526-.7769528-.0088-.005603-.0181-.0103759-.0277-.0145263-.1961-.084253-.3885-.0715943-.556.0367309-.6487.4200192-.7107 2.3090742-.7165 2.6867542 0 .17526-.1331.31756-.2979.32102-.1647-.00346-.2978-.14579-.2978-.32434-.0059-.37436-.0679-2.263415-.7166-2.6834342-.1676-.1083252-.36-.1211914-.5559-.0367309-.0028.0012062-.0045.0036575-.0072.0049675-.0026.0012062-.0053.0009727-.0079.0022956-.4833.254419-.87986 1.344932-.96391 1.756652-.12741.62463-.17877 1.30198-.16155 2.13206l.00145.04254c.00114.02967.00301.07491-.00114.08799l-.01286.02926c-.07191.16414-.13987.31916-.23398.45405-.11769.16873-.21278.34486-.28875.52689h-1.51125c-.07939-.19098-.1808-.3726-.30726-.54515-.04275-.05811-.07813-.12057-.11393-.18283l-.03621-.06246c-.05956-.10148-.08654-.20731-.0827-.32352.00612-.18926-.04762-1.40865-.10479-1.84049-.06496-.491-.18449-.9133-.36565-1.290776-.11871-.24757-.30028-.559472-.65265-.7769528-.00882-.005603-.01806-.0103759-.02771-.0145263-.19621-.084253-.38847-.0715943-.55594.0367309-.64871.4200192-.71076 2.3090742-.71657 2.6867542 0 .17526-.13308.31756-.29784.32102-.16467-.00346-.29784-.14579-.29784-.32434-.00592-.37436-.06786-2.263415-.71657-2.6834342-.16757-.1083252-.36004-.1211914-.55594-.0367309-.00279.0012062-.00445.0036704-.00716.0049675-.00256.0012062-.00536.0009727-.00789.0022956-.48331.254419-.87988 1.344932-.96392 1.756652-.12742.62463-.17878 1.30198-.16156 2.13206l.00145.04254c.00115.02988.00301.07512-.00103.08799l-.01328.03029c-.07191.16374-.13977.31855-.23367.45302-.11769.16873-.21277.34486-.28875.52689h-.9655c-.1173523 0-.2125.09505-.2125.2125 0 .11746.0951477.2125.2125.2125h.82917c-.086198.37319-.09507.76909-.02161 1.18618.12109.68731.63657 1.18951 1.37897 1.3439.4802.09982.97638.03632 1.47505-.18843.38474-.17369.76886-.16996 1.17414.01059.25608.11413.52212.18407.81296.21395.06651.00664.13281.01017.19891.01017.64352-.00021 1.25487-.31709 1.56366-.82572.17349-.28597.25836-.60866.26697-1.0156.00542-.26022-.01871-.50421-.07061-.73504h1.24022c-.0862.37319-.09507.76909-.02161 1.18618.12109.68731.63657 1.18951 1.37898 1.3439.48.09982.9764.03632 1.475-.18843.3848-.17369.7689-.16996 1.1742.01059.2561.11413.5221.18407.8129.21395.0666.00664.1329.01017.1989.01017.6436-.00021 1.2549-.31709 1.5637-.82572.1735-.28597.2584-.60866.267-1.0156.0054-.26022-.0187-.50421-.0706-.73504h.9487c.1174 0 .2125-.09504.2125-.2125 0-.11745-.0951-.2125-.2125-.2125zm-14.97212-.28368c.11766-.16892.19725-.35008.27424-.52544l.01328-.0303c.04347-.09919.03964-.19693.03652-.27558l-.00114-.03466c-.0166-.7977.03206-1.44516.15305-2.03805.09374-.45996.46767-1.307577.73851-1.461076.07463-.029909.1161-.015616.14894.005745.33836.218934.50926 1.496221.52254 2.329821 0 .40312.31399.73051.70428.74411.0044.00028.00813.00255.01259.00255.00205 0 .00393-.00061.00597-.00063.00204.00002.00393.00063.00597.00063.00446 0 .00817-.00227.01256-.00255.3903-.01359.70431-.34091.70431-.74079.01297-.83672.18376-2.114.52254-2.333141.03206-.021167.0717-.035693.1437-.008715.19694.125756.34075.303393.47844.590396.16145.33639.26853.71677.32757 1.16252.05458.41296.10677 1.6033.10127 1.77097-.00654.19611.04088.38205.14101.55263l.03424.05893c.04192.07305.08519.14838.13956.22246.06923.09448.12897.19259.18136.29385h-1.75436v-.06474c0-.41816-.34023-.75849-.75848-.75849h-.54744c-.41826 0-.75849.34033-.75849.75849v.06474h-1.75111c.04968-.09618.10401-.19115.16857-.28368zm3.22195.21894v.5547c0 .18386-.14962.33348-.33348.33348h-.54744c-.18386 0-.33349-.14962-.33349-.33348v-.5547c0-.18387.14963-.33349.33349-.33349h.54744c.18386 0 .33348.14962.33348.33349zm2.42839 1.21585c-.00695.32913-.07221.58458-.20534.80414-.25296.4167-.81005.66863-1.35593.61301-.24539-.02511-.46889-.08363-.68336-.17909-.51507-.22951-1.02702-.23263-1.52164-.01016-.42095.18967-.81815.24238-1.21399.15979-.5657-.11746-.95708-.49183-1.04683-1.00149-.07045-.40004-.05568-.76809.04045-1.11231h1.91884v.06496c0 .41815.34023.75848.75849.75848h.54744c.41825 0 .75848-.34033.75848-.75848v-.06496h1.91892c.06108.22502.08996.46565.08447.72611zm2.36832-1.43479c.11797-.16913.19766-.35091.27466-.52668l.0127-.02885c.0436-.0994.0396-.20129.0367-.27579l-.0012-.03466c-.0166-.7977.0321-1.44516.1531-2.03805.0937-.45995.4677-1.307551.7385-1.461063.0747-.029909.1162-.015629.1489.005732.3384.218934.5093 1.496221.5226 2.329821 0 .40312.314.73051.7043.74411.0044.00028.0081.00255.0126.00255.002 0 .0039-.00061.0059-.00063.0021.00002.0039.00063.006.00063.0044 0 .0082-.00227.0126-.00255.3902-.01359.7043-.34091.7043-.74079.0129-.83672.1837-2.114.5225-2.333141.0322-.021167.0716-.035693.1437-.008715.197.125756.3408.303393.4784.590396.1615.33639.2686.71677.3276 1.16252.0548.414.1068 1.60371.1012 1.77118-.0065.19611.0411.38184.1411.55242l.0342.05893c.0419.07305.0852.14838.1396.22246.0692.09448.129.19259.1813.29385h-1.7459v-.06474c0-.41816-.3402-.75849-.7585-.75849h-.5474c-.4183 0-.7585.34033-.7585.75849v.06474h-1.75953c.04967-.09618.10401-.19115.16857-.28368zm3.23036.21894v.5547c0 .18386-.1496.33348-.3335.33348h-.5474c-.1839 0-.3335-.14962-.3335-.33348v-.5547c0-.18387.1496-.33349.3335-.33349h.5474c.1839 0 .3335.14962.3335.33349zm2.42 1.21585c-.007.32913-.0722.58458-.2054.80414-.2529.4167-.81.66863-1.3559.61301-.2454-.02511-.4689-.08363-.6834-.17909-.515-.22951-1.027-.23263-1.5216-.01016-.4209.18967-.8182.24238-1.214.15979-.56568-.11746-.95706-.49183-1.04681-1.00149-.07046-.40004-.05568-.76809.04045-1.11231h1.92726v.06496c0 .41815.3402.75848.7585.75848h.5474c.4183 0 .7585-.34033.7585-.75848v-.06496h1.9105c.0611.22502.09.46565.0845.72611z"/><path d="m16.7875 11.5085h-.8226c.0808-.3627.0868-.7472.0149-1.1515-.1212-.68189-.6367-1.18014-1.3792-1.33288-.4795-.09836-.9752-.0359-1.4741.18656-.385.17183-.7695.16851-1.1753-.01058-.256-.11289-.5219-.1822-.8126-.21167-.7128-.07139-1.42139.25255-1.76183.80829-.1738.28368-.25878.60388-.26749 1.00768-.00522.2487.01629.4827.06425.7041h-1.22726c.08077-.3627.0868-.7472.01491-1.1515-.1212-.68189-.63678-1.18014-1.37928-1.33288-.47937-.09836-.97524-.0359-1.47401.18656-.38506.17183-.76959.16851-1.17539-.01058-.25598-.11289-.52181-.1822-.81255-.21167-.71283-.07139-1.4214.25255-1.76184.80829-.1738.28368-.25878.60388-.26749 1.00768-.00521.2487.01629.4827.06425.7041h-.94237c-.1173523 0-.2125.0951-.2125.2125 0 .1175.0951477.2125.2125.2125h1.07386c.08065.1975.1859.3844.31735.562.04265.0577.07792.1195.11362.1812l.03652.0622c.05914.0998.08602.204.08228.3184-.00622.1871.04742 1.3951.1047 1.8241.06495.4868.18469.9056.36606 1.2799.11891.2455.30059.5549.65306.7706.00872.0054.01796.0099.0275.0141.19683.0838.38972.0705.55761-.0384.64663-.4198.70847-2.2883.71428-2.6619 0-.1724.13302-.3133.29779-.3166.16487.0033.29789.1442.29789.3199.00581.3703.06765 2.2388.71429 2.6586.09514.0618.19828.093.30567.093.08208 0 .16664-.0183.25193-.0546.00508-.0021.01007-.0046.01494-.0071.48352-.2521.88051-1.3335.96455-1.7417.12752-.619.17888-1.2906.16166-2.1132l-.00145-.0421c-.00114-.0293-.00291-.0732.00083-.0857l.01328-.0301c.0718-.1621.13956-.3152.23325-.4482.12253-.174.22005-.3561.29742-.5444h1.49363c.08065.1975.1859.3844.31735.562.04264.0577.07792.1195.11362.1812l.03652.0622c.05914.0998.08602.204.08218.3184-.00612.1878.04762 1.3962.1048 1.8241.06491.4868.18471.9054.36591 1.2801.1191.2455.3008.5547.6532.7704.0087.0054.018.0099.0275.0141.1968.0838.3898.0705.5576-.0384.6466-.4198.7085-2.2883.7143-2.6619 0-.1724.133-.3133.2978-.3166.1649.0033.2979.1442.2979.3199.0058.3703.0676 2.2388.7143 2.6586.0951.0618.1982.093.3056.093.0821 0 .1667-.0183.252-.0546.0051-.0021.01-.0046.0149-.0071.4835-.2521.8805-1.3335.9646-1.7417.1275-.619.1788-1.2906.1616-2.1132l-.0014-.0423c-.0012-.0291-.0029-.0733.0007-.0855l.0138-.0309c.0717-.1619.1393-.3148.2328-.4474.1226-.174.2201-.3561.2974-.5444h.9575c.1174 0 .2125-.095.2125-.2125 0-.1174-.0951-.2125-.2125-.2125zm-15.27188-.6949c.00695-.3254.07201-.578.20492-.7948.25287-.413.81047-.66265 1.35646-.60745.2457.02491.46941.08301.68388.17764.51465.22703 1.02618.23056 1.52018.00975.42147-.18801.81908-.23968 1.21524-.15833.56559.11642.95687.48684 1.04652.99089.06872.3869.05581.7434-.03427 1.0772h-1.93354v-.0605c0-.4184-.34023-.7587-.75848-.7587h-.54744c-.41825 0-.75848.3403-.75848.7587v.0605h-1.91656c-.05663-.2159-.08374-.4462-.07843-.6949zm3.63439.6344v.5463c0 .1839-.14962.3335-.33348.3335h-.54744c-.18386 0-.33348-.1496-.33348-.3335v-.5463c0-.1841.14962-.3337.33348-.3337h.54744c.18386 0 .33348.1496.33348.3337zm2.01657.785c-.11797.1675-.19756.3474-.27454.5213l-.01308.0295c-.04399.0991-.03995.2008-.03704.2749l.00114.0343c.0166.79-.03196 1.4314-.15294 2.0185-.0937.4551-.46723 1.2947-.73784 1.4468-.07668.0303-.11808.0148-.15149-.007-.33711-.219-.50749-1.4819-.52077-2.3056 0-.4001-.31283-.7271-.70255-.7412-.00478-.0002-.00955-.0004-.01432-.0004-.00363 0-.00737 0-.01162 0-.00685.0004-.00976.0002-.01463.0004-.38973.0141-.70256.3411-.70256.7379-.01297.8268-.18314 2.0895-.52077 2.3089-.03258.0211-.07305.0367-.1461.0091-.19683-.1243-.34054-.3003-.47812-.5842-.16135-.3332-.26832-.7097-.32726-1.1511-.05478-.4096-.10677-1.5879-.10116-1.7537.00643-.1953-.0412-.38-.14164-.5491l-.03434-.059c-.04182-.0722-.08508-.1467-.13956-.2203-.07349-.0994-.13709-.2025-.19158-.3095h1.7568v.0608c0 .4182.34023.7585.75848.7585h.54744c.41825 0 .75848-.3403.75848-.7585v-.0608h1.7694c-.05181.1017-.10914.202-.17783.2995zm2.3677-1.4194c.00695-.3254.07201-.578.20492-.7948.25287-.413.8106-.66265 1.3565-.60745.2457.02491.4694.08301.6838.17764.5147.22703 1.0262.23056 1.5202.00975.4216-.18801.8191-.23968 1.2153-.15833.5655.11642.9568.48684 1.0465.99089.0687.3869.0558.7434-.0343 1.0772h-1.9251v-.0605c0-.4184-.3403-.7587-.7585-.7587h-.5474c-.4183 0-.7585.3403-.7585.7587v.0605h-1.92499c-.05663-.2159-.08374-.4462-.07843-.6949zm3.64282.6344v.5463c0 .1839-.1496.3335-.3335.3335h-.5474c-.1839 0-.3335-.1496-.3335-.3335v-.5463c0-.1841.1496-.3337.3335-.3337h.5474c.1839 0 .3335.1496.3335.3337zm2.0081.785c-.1176.1671-.1971.3466-.274.52l-.0138.031c-.0438.0992-.0397.2006-.0368.2747l.0011.0343c.0166.79-.0319 1.4314-.1529 2.0185-.0937.4551-.4673 1.2947-.7379 1.4468-.0765.0303-.118.0148-.1514-.007-.3372-.219-.5075-1.4819-.5208-2.3056 0-.4001-.3129-.7271-.7026-.7412-.0047-.0002-.0095-.0004-.0143-.0004-.0035 0-.0076 0-.0116 0-.0033.0004-.0098.0002-.0146.0004-.3898.0141-.7026.3411-.7026.7379-.013.8268-.1831 2.0895-.5208 2.3089-.0327.0211-.073.0367-.1461.0091-.1968-.1243-.3405-.3001-.4782-.5842-.1612-.3332-.2682-.7097-.3272-1.1511-.0545-.4088-.1067-1.5875-.1012-1.7537.0065-.1951-.0411-.38-.1415-.5491l-.0344-.059c-.0418-.0722-.0851-.1467-.13955-.2203-.07349-.0994-.13709-.2025-.19158-.3095h1.76523v.0608c0 .4182.3402.7585.7585.7585h.5474c.4182 0 .7585-.3403.7585-.7585v-.0608h1.761c-.0518.1017-.1092.202-.1779.2995z"/></g></svg>