<svg fill="none" height="17" viewBox="0 0 9 17" width="9" xmlns="http://www.w3.org/2000/svg"><g fill="#4a4a4a"><path d="m1.96897 7.9575c.02535-.14441-.07455-.28147-.22314-.3061s-.28962.07246-.31496.21687l-1.42694116 8.09153c-.02534104.1444.07455696.2815.22314616.3061.14859.0246.264965.0503.290306-.0942l1.451599-8.21417z"/><path d="m4.93169 3.98383c-.27004-.17407-.58714-.22773-.88323-.17343-.30056.05513-.57962.22188-.76588.48713-.18626.26524-.24425.57887-.18745.8714.05104.26288.19514.50882.42238.68735.04091-.0614.08026-.1277.11754-.19928.08463-.16246.15825-.35005.21541-.56653l-.00099-.00024.00016-.00062-.00012-.00002c.00076-.00292.00161-.00581.00247-.00867.06021-.21902.20538-.39496.39236-.5028.18601-.10729.4133-.14679.63914-.09388.00793.00161.01573.00356.0234.00582.22412.05894.40414.1996.51466.38062.11041.18077.15104.40166.09659.62113-.00267.01244-.00622.02459-.01062.03633-.11694.43392-.27662.80014-.46302 1.10915-.15772.26146-.33392.48174-.51934.66731.28131.8981.33516 2.06304.26689 3.2344-.10129 1.7379-.47103 3.503-.76116 4.4123l-.00227.0083h.00012l-.00077.0023-.30936 1.1221c-.02253.0819-.00891.1648.03131.2324.04032.0677.10747.1206.19179.1425.08434.0219.16956.0087.2391-.0304.06974-.0392.12418-.1044.14671-.1864l.31073-1.127.9997-4.435.26691.0561-.26698-.0569c.03229-.1433.17802-.234.32547-.2026.11758.025.20076.1202.21324.2304l.86784 5.548c.02449.0759.07679.1363.14282.1734.06955.0391.15476.0523.2391.0304.08432-.0219.15147-.0748.19179-.1426.04022-.0676.05384-.1504.03131-.2323h-.00033c-.00201-.0072-.00365-.0145-.00501-.0218-.3111-1.6912-.29781-3.3467-.28537-4.8965.02411-3.00408.04492-5.59756-2.40938-7.17105l.14947-.22102-.1505.22174c-.00573-.00368-.01127-.00753-.01662-.01155zm-.9836-.69431c.43188-.07922.89452-.00046 1.28825.25456.00437.00247.0087.00508.01298.00783l-.00033.00047.00357.00233-.00035.00049c2.69813 1.73252 2.67634 4.45701 2.65103 7.6126-.0122 1.5203-.02522 3.1441.27812 4.7963.05483.2175.0163.437-.09133.6179-.11034.1854-.29333.33-.52276.3895-.22944.0596-.46234.023-.65335-.0843-.18602-.1046-.332-.2763-.396-.4914-.00503-.0145-.00887-.0296-.01131-.0453l.27021-.0399-.27012.0394-.65043-4.1581-.68295 3.0297c-.00138.0076-.0031.0153-.0052.0229l-.00035-.0001-.31284 1.1347c-.06131.223-.20999.4008-.40081.5081-.19102.1073-.42393.1439-.65336.0844-.22942-.0596-.41242-.2041-.52276-.3896-.11045-.1856-.14814-.412-.08683-.635l.30941-1.1222c.00173-.0077.00377-.0154.00623-.0231l.26096.079-.26051-.0789c.28134-.8782.64144-2.5961.74027-4.2918.06846-1.17472.01168-2.33208-.28455-3.17407-.045-.10057-.02255-.22196.06487-.30073l.00042.00044c.19644-.17708.38343-.39583.54644-.66604.16286-.26995.30283-.59169.40612-.97501.00129-.00765.00292-.01531.00492-.02297l.00014.00003c.02138-.0818.00679-.16417-.03413-.23117-.03966-.06497-.10464-.11568-.18586-.13738l-.00611-.00144.00003-.00013c-.08419-.0208-.16895-.00659-.23789.03316-.06695.03862-.11918.10188-.14146.18096l-.00149.00598-.00112-.00028c-.06837.2589-.1558.48206-.25595.67432-.09894.18994-.21079.35177-.32957.48965-.00425.00567-.00874.01122-.0135.01663-.09815.11145-.2707.12447-.38538.02908l.00047-.00053c-.02094-.01741-.03926-.03225-.05345-.04301-.0136-.01031-.03048-.02228-.05161-.03633-.3972-.26345-.64698-.65868-.7297-1.08466-.08263-.42552.00179-.88176.27286-1.26779.27107-.38602.67774-.62878 1.11606-.70917z"/><path d="m2.15483 7.16564c-.08601-.00051-.16413.0323-.22114.08598-.05811.05473-.09476.13066-.0961.21475-.00135.08408.03255.16083.08843.21687.05562.05577.13217.09118.21669.09331v-.00095h.00023l.00641.00103c.0248.0006 2.1853.05311 2.83667-2.39744l.00096-.00727c.02148-.08189.0069-.16435-.03406-.23142-.04062-.0665-.10771-.11806-.19163-.13888h-.00003zm-.60123-.2938c.15723-.14808.37209-.23812.60751-.23539v-.00101h.00013l.0064.00103c.01358.00034 1.26719.03215 1.68398-1.54596l-.00099-.00025c.0586-.22334.20524-.40273.39487-.51211.18905-.10905.42076-.14807.65024-.0912l.00006.00001c.2298.05698.41433.19945.5269.38375.1122.18375.15234.40893.09383.63196l-.00102-.00025-.00004.00028c-.73977 2.80174-3.23175 2.80521-3.37253 2.80323v.00093h-.00023l-.00299-.00096-.00318-.00007v-.00006c-.23692-.00437-.44929-.10071-.60128-.25313-.15307-.1535-.24591-.36387-.24218-.59458.00372-.23071.10302-.43787.26052-.58622zm3.20763-1.87022c-.08428-.02089-.16914-.0067-.23814.0331-.06845.03948-.12151.10472-.14291.18629h-.00107c-.50859 1.92631-2.10318 1.94582-2.21787 1.94476v.00093h-.00013l-.00302-.00098-.00326-.00005v-.00003"/><path d="m2.19273 0c.50637 0 .96485.19951 1.2967.52203.33186.322521.53714.76809.53714 1.26023 0 .49213-.20529.93771-.53714 1.26024-.33185.32252-.79032.52203-1.2967.52203-.50637 0-.96485-.19951-1.296706-.52203-.331855-.32253-.537137-.76811-.537137-1.26024 0-.49214.205284-.937709.537137-1.26023.331856-.322522.790336-.52203 1.296706-.52203zm.91021.897651c-.23291-.226361-.55475-.36639-.91021-.36639-.35547 0-.6773.140031-.91021.36639-.23292.226359-.376998.539129-.376998.884609 0 .34547.144088.65825.376998.88462.23291.22636.55474.36639.91021.36639.35548 0 .6773-.14004.91021-.36639.23291-.22637.37699-.53915.37699-.88462 0-.34548-.14408-.65825-.37699-.884609z"/></g></svg>