<svg fill="none" height="17" viewBox="0 0 15 17" width="15" xmlns="http://www.w3.org/2000/svg"><g fill="#4a4a4a"><path d="m12.2617 4.72804c1.0458 1.10783 1.6215 2.55765 1.6215 4.08226 0 3.281-2.669 5.95-5.94999 5.95-1.52517 0-2.97555-.5763-4.08423-1.6229l-.38902.4119c1.14495 1.0809 2.62423 1.6969 4.18992 1.7643v1.1198h-2.26666v.5666h5.09998v-.5666h-2.26665v-1.1138c3.46235-.1491 6.23335-3.0113 6.23335-6.50958 0-1.66968-.6307-3.25748-1.776-4.47127z"/><path d="m.228348 11.5858-.22694961 2.2692c-.00793331.0796.01813331.159.07196641.2185.0535502.0592.1297662.0932.2099492.0932h1.699996c.08018 0 .1564-.034.20995-.0932.05383-.0592.0799-.1386.07197-.2185l-.22695-2.2695c-.03684-.368-.28787-.6616-.62164-.7706v-.6633c.00964-.0034.01814-.0085.02749-.0122.01586-.0062.03088-.0133.0459-.0204.03173-.0147.06205-.0312.09123-.0496.01388-.0088.02777-.017.04108-.0263.03372-.0238.06517-.05019.09492-.07852.00623-.00595.01332-.01077.01927-.017.03485-.03513.06601-.07338.09435-.11418.00793-.01133.01416-.02352.02153-.03542.01927-.03088.03683-.06261.05213-.09605.00709-.01558.0136-.03116.01984-.04731.01275-.03315.02323-.06715.03173-.10229.00368-.01558.00822-.0306.01133-.04646.00964-.05044.01587-.10229.01587-.15584s-.00623-.1054-.01587-.15611c-.00283-.01587-.00736-.03089-.01133-.04647-.0085-.03485-.01898-.06913-.03173-.102-.00624-.01615-.01247-.03173-.01984-.04732-.0153-.03315-.03286-.06488-.05213-.09576-.00737-.0119-.0136-.02409-.02153-.03542-.02834-.0408-.0595-.07905-.09435-.11418-.00595-.00624-.01304-.01105-.01927-.017-.02975-.02834-.0612-.05469-.09492-.07849-.01331-.00935-.0272-.01756-.04108-.02635-.02918-.01841-.0595-.03485-.09123-.04958-.0153-.00708-.03032-.01417-.04619-.02068-.00906-.00369-.01756-.00879-.0272-.01219v-4.17773l.47969.17368 1.07524.3893.39922.99846c-.53522.85482-.82082 1.83571-.82082 2.85118 0 1.88843.97948 3.54983 2.4548 4.51093.00283.002.00453.0054.00765.0074.09605.0623.19493.121.29551.1771.05894.0331.11929.0634.17964.0943.06261.032.12608.0623.1904.0918.12891.0598.26066.1139.39496.1635.02975.011.05865.0235.08868.034.00227.0008.00482.0006.00709.0011.55335.193 1.14579.3032 1.76459.3032.99705 0 1.92836-.2774 2.73021-.7517.0048-.0025.0099-.0034.0144-.0062.0383-.0227.0757-.0479.1137-.0717.0957-.0604.1895-.1233.2813-.1896.0286-.0206.0578-.0399.0861-.0612.0037-.0028.0057-.007.0091-.0102.119-.0898.2337-.1838.3448-.283.004-.0031.0091-.0045.0128-.0077.0153-.0136.028-.0291.043-.043.1108-.102.2171-.208.3193-.3188.0247-.0266.0491-.0532.0731-.0802.1015-.1144.1975-.2334.2888-.3564.0181-.0244.0368-.0482.0544-.0725.0946-.1318.1827-.2678.2654-.408.0102-.0173.0213-.0337.0312-.051.087-.1513.1666-.3069.2389-.467.0034-.0073.0073-.0147.0107-.0221.2216-.4969.3718-1.03214.433-1.59427.0008-.00793.0028-.01558.0036-.02323.0187-.18643.0295-.37457.0295-.56553 0-.16009-.011-.31252-.0227-.45305-.0002-.00227-.0017-.00425-.0019-.00652-.1151-1.32656-.7223-2.57039-1.7102-3.48499l-.1142-.78455 1.7062-.97494c.0941-.05355.1493-.1564.1422-.26464-.007-.10795-.0753-.20258-.1756-.24366l-6.23334-2.5499943c-.08585-.0351333-.1836-.02578325-.26151.0246499l-5.666654 3.6833244c-.001134.00085-.001984.00198-.0034.00283-.0017.00114-.0034.0017-.0051.00284-.018984.01331-.035984.0289-.051.04618-.001134.00113-.0017.00283-.002834.00397-.014733.01756-.026916.03654-.037116.05694-.003683.00737-.005667.01502-.0085.02267-.00595.01502-.011333.03032-.01445.04618-.001983.00935-.00255.01899-.0034.02862-.000567.00907-.003117.01813-.003117.02748v4.58546c-.328949.1173-.566665.42896-.566665.79786s.237716.68057.566665.79787v.667c-.333765.109-.584798.4026-.621631.7709zm1.441882 2.0142h-1.073833l.195782-1.9578c.017567-.176.164333-.3088.341131-.3088.1768 0 .32357.1328.34113.3088zm4.55712-10.32462c.00226-.00056.00425-.00085.00651-.00141.14677-.03825.29297-.07084.43804-.09719.14733-.02663.29353-.04731.43888-.06148.28163-.02777.544-.0476.78908-.06063.0425-.00227.08132-.00312.12268-.0051.07792-.0034.15668-.00737.23092-.00964.05355-.00141.10313-.0017.1547-.00255.0578-.00113.11786-.00255.1734-.00283.06431-.00028.1241.00085.1853.0017.03853.00057.07933.00028.11673.00113.0629.00142.12155.00425.18133.00652.03202.00142.0663.00198.09747.00368.07423.00369.14422.0085.21335.0136.01331.00085.02805.0017.04108.00255.07622.00595.14847.01304.21817.0204.00453.00057.00963.00085.01416.00142.58565.06403.94235.1751 1.13705.25585.0017.00057.0037.00142.0051.00198l.187 1.28463c-.0108-.00425-.0238-.00821-.0346-.01218-.0388-.01473-.0816-.0289-.123-.04335-.0626-.02182-.1258-.04335-.1943-.0646-.0468-.01445-.0961-.02805-.1457-.04193-.0719-.0204-.1462-.03995-.2244-.05894-.0538-.01303-.109-.02521-.1657-.0374-.083-.01785-.16888-.03428-.25813-.04986-.06007-.01049-.12042-.02069-.18332-.03004-.09548-.01416-.19578-.02606-.29806-.0374-.06517-.00708-.12892-.01445-.19692-.0204-.11163-.00963-.22921-.0153-.34821-.02068-.06687-.00312-.13119-.00737-.20032-.00878-.13572-.00312-.27908-.00114-.42415.00198-.06091.00113-.11843 0-.18105.00255-.21136.00822-.43095.0221-.66158.04477-.2057.0204-.40403.0493-.59726.08386-.06404.01134-.12439.02635-.187.03939-.02607.00538-.05185.01076-.07764.01615-.00538.00085-.01076-.00029-.01615.00085-.01955.00425-.03881.0102-.05836.01473-.07452.01672-.14932.03315-.22185.05185-.0578.01473-.11305.03117-.16972.04703-.03003.0085-.06007.01729-.0901.02635-.08925.02635-.17793.05299-.26378.08189-.05213.01756-.10342.03513-.15442.05326-.0187.00652-.03683.01417-.05553.02097-.09407.03457-.18615.06998-.27568.10682-.0493.02011-.0986.03995-.14649.06091-.01331.00567-.02606.01218-.0391.01813-.0901.03995-.17708.08047-.26208.12184-.05071.02465-.10171.04873-.15045.07395-.00396.00198-.00821.00368-.01218.00566-.00085.00057-.00142.00142-.00227.00199-.08528.0442-.16603.0884-.24593.13345-.04562.02578-.09265.051-.13657.07678-.08556.05043-.16518.10058-.24395.15073-.03258.02069-.06715.04137-.09831.06205-.00624.00425-.01389.0085-.02012.01275l-.3519-.87946c.0323-.02295.06432-.04278.09662-.06517.91091-.63268 1.80483-1.06731 2.66871-1.29313zm2.14199 3.32831c.31875.1513.59925-.12892.86955-.39978.18303-.1836.45871-.46467.60973-.42897.16688.03542.39558.44455.34458.8177-.0808.59018-.9376 1.02991-1.49378 1.1815-.16093.04391-.29013.06091-.41536.07763-.22128.02947-.45022.0595-.77378.22752-.28135.14591-.43379.29041-.54485.39609-.1071.10172-.13855.12892-.22128.14252-.2295.0374-.45617-.13402-.67604-.30005-.24366-.18416-.52019-.39298-.82194-.23998-.31819.16093-.31649.55476-.31535.87125 0 .05326.00028.12013-.0017.17963-.13345-.10455-.32498-.32697-.4199-.60605-.2057-.60576.1462-1.27415.25896-1.46454.11164-.18842.21562-.29835.30714-.39554.13741-.14535.27936-.2958.29835-.57998.0187-.28078-.09294-.49328-.22242-.6613.01275-.00566.02493-.01161.03768-.01728.37485-.16717.76302-.3026 1.16025-.40347.00538-.00141.01105-.00226.01643-.00368.01219.02918.02409.05922.03627.08982.10143.25528.22808.5729.59075.6817.34793.1054.6494-.06659.86955-.19182.06233-.03542.15101-.08585.20286-.10342.02607.07735.02465.26379.0238.36919-.00198.29381-.00481.62644.2805.76131zm-2.58002 6.48661c-.05752-.0286-.11532-.0564-.17142-.087.06177-.0487.13005-.098.19748-.1465.32612-.2354.73185-.5284.7021-.9871-.02097-.3253-.24792-.5159-.41367-.6551-.05695-.0478-.14308-.1204-.15441-.1419.01303-.1014.39865-.372.81741-.3202.18842.0233.2856.1043.47062.2706.19323.1737.4335.3899.87833.5624.2703.1049.47911.1391.61738.1618.01983.0034.04137.0068.06148.0105-.06771.2284-.53975.81-1.21606.99-.15215.0405-.2873.0515-.4182.062-.25613.0207-.52105.0422-.81628.2714-.07508.0584-.13572.1173-.187.1754-.07763-.0306-.15328-.0643-.22865-.0989-.04675-.0218-.09293-.0444-.13911-.0674zm4.81608-.3057c-.0929-.1658-.1485-.3675-.1096-.5386.0504-.2239.1014-.2763.2909-.4721.1168-.1201.2766-.285.4848-.5479.0351-.0442.0963-.0893.1615-.1374.2145-.1584.5386-.3978.4644-.996-.0547-.44139-.2151-.60968-.3437-.74483-.0935-.09832-.1609-.16915-.2065-.40517-.0706-.36607.0983-.81968.3014-1.07808.1213-.15413.2287-.21193.2839-.21448h.0088c.1683 0 .4723.24225.7914.78738.0085.11503.0172.23006.0172.34595 0 1.00441-.319 1.97853-.8961 2.78803-.0071.0099-.0148.0192-.0219.0289-.0881.1215-.1819.2394-.2813.353-.0136.0156-.0281.0306-.0417.0459-.096.1065-.1969.2094-.3026.308-.0102.0096-.0206.0187-.0308.028-.123.055-.2267.1278-.314.2224-.0286.0312-.0546.0644-.0799.1012-.015.011-.0297.0227-.045.0337-.0436.0312-.087.0623-.1312.0921zm1.9003-5.49638c-.1839-.13401-.3853-.21533-.5998-.204-.2474.0119-.4902.16094-.7024.43067-.283.36011-.5202.97438-.4122 1.53509.0768.39922.2295.55959.3524.68879.0998.10483.1601.16829.1918.42413.0335.2692-.0575.3363-.2388.4703-.0878.0646-.187.138-.2686.2412-.191.2408-.3335.3876-.4479.5057-.2117.2182-.3514.3624-.43695.7412-.07451.329.01927.6743.17535.9495-.65673.3357-1.39821.5292-2.18531.5292-.391 0-.76925-.0518-1.13333-.1402.119-.0609.23687-.0717.4063-.0856.14818-.0119.31648-.0255.51793-.0793.71513-.1899 1.31637-.7475 1.54048-1.1999.14082-.2842.11334-.4826.06545-.5984-.09973-.242-.3247-.2788-.50518-.3086-.12892-.0212-.28928-.0476-.50462-.1312-.34793-.1348-.52898-.2978-.70408-.455-.20003-.1799-.40658-.3658-.78029-.412-.59755-.0736-1.38408.287-1.44925.8135-.03882.3165.18728.5066.35247.6451.12891.1083.20768.1797.21249.2579.00964.1462-.24423.3295-.46834.4913-.12609.0909-.25217.1853-.36239.2884-1.21124-.8758-2.00429-2.2967-2.00429-3.90263 0-.94492.27313-1.8581.79021-2.64378.03655-.02635.0765-.05355.11532-.08046.04987-.03457.09832-.06857.15187-.1037.05326-.03485.1122-.06999.16915-.10512.05553-.03428.10908-.06828.16773-.10228.03768-.02182.07962-.04307.119-.06489.11616.1309.18643.23319.17793.36238-.0051.07509-.02663.10314-.14506.22865-.10087.10682-.23885.25302-.38279.49584-.18445.31138-.58366 1.12341-.3077 1.93544.14592.42982.48762.84858.81317.99563.09378.0425.17623.05752.24565.05752.06913 0 .12551-.01502.1683-.03259.30033-.12466.2992-.47203.29806-.77859-.00028-.0901-.00085-.24055.01445-.32867.06234.03655.15045.10313.21477.15158.27086.20457.64231.48479 1.11066.40687.25727-.04278.38987-.16887.5185-.29042.09633-.09151.20542-.19493.41565-.30401.23573-.1224.38335-.14167.58735-.16887.13685-.01813.29211-.03882.49016-.09265.64827-.1768 1.77938-.72335 1.90628-1.65183.0785-.57601-.2488-1.33449-.78881-1.44896-.45079-.0952-.82648.28078-1.12823.58338-.05327.05355-.12099.12127-.1819.1768-.00085-.0459-.00029-.09378 0-.13345.00226-.31081.00538-.69785-.30685-.87833-.28022-.1615-.56157-.00142-.76727.11588-.18756.10654-.3179.17539-.42641.14167-.09039-.0272-.13883-.12637-.2261-.34538.15215-.02522.30486-.04958.46523-.06545 2.13859-.21052 3.37334.30345 3.80514.53465.0235.01275.0473.02125.0725.02663.0049.00113.0097.00085.0145.00142.0164.00255.0326.00566.051.00538.5375.53862.9333 1.19368 1.1676 1.90456zm-5.6757-6.686363 5.5584 2.273743-1.0019.57262-.0572-.34227c-.0048-.02833-.0195-.0527-.0323-.07763-.0065-.01275-.0082-.02777-.0164-.03939-.0252-.03541-.0581-.06516-.0972-.08613-.7613-.40715-2.26553-.53493-4.12816-.35105-1.32061.13033-2.70242.72023-4.1069 1.75355-.00538.00396-.0102.00793-.0153.0119l-.57035-.20655-.59755-.21647zm-5.69669 8.464843c.15612 0 .28333.12722.28333.28333 0 .15612-.12721.28334-.28333.28334-.156114 0-.283331-.12722-.283331-.28334 0-.15611.127217-.28333.283331-.28333z"/></g></svg>