<svg fill="none" height="19" viewBox="0 0 17 19" width="17" xmlns="http://www.w3.org/2000/svg"><path d="m5.67985 8.06645c.04493.13476.1902.2075.32599.16299.13497-.04492.20792-.19081.163-.32599l-.50197-1.50568v-.82939l1.91822-.95901c.08716-.04368.14239-.13291.14239-.23038v-.09849l.65754.32887c.03627.01813.07583.0272.11519.0272.03935 0 .07892-.00907.11539-.0272l.65733-.32887v.09829c0 .09767.05543.18669.14219.23037l1.91838.95901v.82939l-.5021 1.50569c-.0447.13497.0282.28086.163.32599.027.00886.0548.01318.0816.01318.1075 0 .2087-.06841.2446-.17618l.5151-1.54545c.0089-.02617.013-.05378.013-.0816v-1.0303c0-.09768-.0554-.1867-.1422-.23038l-1.91842-.95901v-.29528l.48792-.9759c.0017-.0033.0023-.0068.0042-.0101.002-.00474.0033-.00948.0047-.01443.0109-.02905.0183-.05955.0183-.09066v-1.54525c0-.03998-.0092-.07933-.0272-.11519-.0241-.04801-.60001-1.17269-1.776-1.17269s-1.75193 1.12468-1.77583 1.17269c-.01793.03586-.0272.07521-.0272.11519v1.54545c0 .03112.00742.06162.01834.09067.00185.00495.00309.00969.00515.01442.00144.0033.00206.0068.00371.0101l.48795.9759v.29529l-1.91822.95901c-.08716.04368-.14238.1327-.14238.23037v1.0303c0 .02762.00432.05523.01318.0816zm2.82015-3.97553-.83825-.41913-.29034-.58067h2.2576l-.29055.58067zm0-3.575768c.73687 0 1.17784.654658 1.28788.839698v1.22091h-2.57576v-1.22071c.11066-.18627.55142-.839898 1.28788-.839898zm-1.72761 6.257238c-.10056.10056-.10056.26355 0 .36431l1.0303 1.03031c.05028.05028.11622.07541.18216.07541s.13188-.02513.18216-.07541c.10055-.10056.10055-.26355 0-.36432l-1.03031-1.0303c-.10055-.10056-.26375-.10056-.36431 0zm3.09091 0-1.03031 1.0303c-.10055.10056-.10055.26355 0 .36432.05008.05028.11602.07541.18216.07541.06615 0 .13209-.02513.18216-.07541l1.03029-1.03031c.1006-.10055.1006-.26355 0-.36431-.1005-.10077-.26375-.10056-.3643 0zm4.8185 8.16701h-11.84847c-.14218 0-.25757.1156-.25757.2576 0 .1419.11539.2575.25757.2575h11.84847c.142 0 .2576-.1156.2576-.2575 0-.142-.1156-.2576-.2576-.2576zm1.0303-3.6061h-10.77612l-1.5059-.5019c-.05295-.0178-.11003-.0178-.16299 0l-1.50486.5017c-.861951-.0123-1.246872-.4107-1.246872-1.2876 0-.73692.654652-1.17789.839692-1.28792h1.37175l.95488.95488c.04822.04822.11375.07542.18216.07542h.51495c.03997 0 .07933-.00927.11519-.0272l.9759-.48795h3.48448l.97591.48795c.03585.01772.07523.0272.11523.0272h2.5543l3.0695.51142c.0544.0089.1086.0008.1578-.0235l1.0303-.51512c.1269-.06388.1791-.21842.1154-.34556-.0639-.12714-.2184-.17845-.3456-.11519l-.9553.47765-3.0082-.50135c-.0138-.00227-.0285-.0035-.0425-.0035h-2.515l-.97586-.48795c-.03586-.01772-.07521-.0272-.11519-.0272h-3.60606c-.03997 0-.07933.00927-.11519.0272l-.9759.48795h-.34783l-.95489-.95489c-.04821-.04822-.11374-.07542-.18215-.07542h-1.54525c-.03998 0-.07933.00928-.11519.0272-.04801.02391-1.17269.59985-1.17269 1.77588 0 .6847.211624 1.1807.618594 1.4774-.370085.2267-.618594.6334-.618594 1.0983v5.1515c0 .142.115394.2576.257576.2576s.257576-.1156.257576-.2576v-5.1515c0-.4261.346593-.7727.772728-.7727h3.60544.00062.00062 10.81754c.4262 0 .7727.3466.7727.7727v5.1515c0 .142.1156.2576.2576.2576s.2576-.1156.2576-.2576v-5.1515c0-.7099-.578-1.2879-1.2879-1.2879z" fill="#4a4a4a"/></svg>