<svg fill="none" height="17" viewBox="0 0 17 17" width="17" xmlns="http://www.w3.org/2000/svg"><g fill="#4a4a4a"><path d="m.285932 7.4134c-.05432 0-.109142-.01557-.15778-.0477-.13170599-.08753-.1678089-.26542-.0805615-.3973.3867615-.58423 1.2141095-1.91052 2.4099895-4.22855 1.1277-2.170759 2.83102-3.078323 4.92379-2.62613.19204.0405.34196.132879.48688.222247.19003.117148.354.21823.62677.21823.15812 0 .28631.128362.28631.286678 0 .158317-.12819.286675-.28631.286675-.4349 0-.70767-.168356-.92696-.303411-.11282-.069452-.2101-.129532-.30603-.149782-1.84055-.397467-3.28665.385753-4.29617 2.329243-1.20793 2.34146-2.047972 3.68749-2.440918 4.28143-.055157.08318-.146248.12837-.23901.12837z"/><path d="m.286479 7.41347c-.107304 0-.2100948-.06075-.2590684-.16434-.0673573-.14309-.0063512-.31396.1367204-.38157.734247-.34709 2.502919-1.79237 4.304859-3.30257.8118-.67361 1.56293-.87376 2.29751-.61386.42638.1456 1.04145.22626 1.72856.22626.15812 0 .28632.12837.28632.28668 0 .15832-.1282.28668-.28632.28668-.75915 0-1.42186-.08937-1.91659-.25823-.53936-.19078-1.09193-.02778-1.74311.51278-2.17566 1.82349-3.67574 3.02543-4.426869 3.38073-.039445.01857-.081063.02744-.122012.02744z"/><path d="m6.98848 5.08275c-.38075 0-.69263-.1123-.93064-.33421-.33595-.31362-.51162-.82907-.53669-1.57615-.00518-.15815.11851-.29069.27662-.29605.15979.00101.29049.11883.29567.27698.01939.57871.13873.97417.35467 1.17566.1399.13037.33261.19012.59051.17974.14173-.00703.27929-.00904.40966-.01105.22347-.00334.41634-.00619.58265-.0338-.00217-.00017.16731-.11079.178-1.00313.00184-.15714.12954-.28333.28615-.28333.00117 0 .00217 0 .00334.00017.15811.00184.28481.13171.2828.28986-.00785.67394-.08942 1.4605-.65301 1.56125-.21211.03531-.43524.03866-.67141.04217-.12435.00184-.25539.00368-.39361.01054-.02507.00085-.04998.00135-.07471.00135z"/><path d="m4.99744 4.77601c-.38058 0-.84456-.09857-.98061-.61737-.04028-.15296.05115-.30977.20408-.34993.15193-.04151.30938.05121.34949.20434.02407.09104.06518.24333.74929.16702.18753-.01992.2838-.04536.2696-.37321-.00686-.15815.11566-.29186.27361-.29872.15443-.00887.29149.11581.29834.27396.03159.72832-.40665.92831-.77988.96781-.09861.01104-.235.0261-.38392.0261z"/><path d="m8.49498 15.0306c-.00051 0-.00117 0-.00168 0-3.3087-.0201-5.60922-3.0389-6.83787-8.97242-.03209-.15497.06736-.30676.22213-.33889.15661-.0313.30654.06744.33846.22241 1.1663 5.6323 3.27946 8.4974 6.28063 8.5158.15811.001.28547.1299.28464.2882-.00101.1577-.12904.2849-.28631.2849z"/><path d="m16.7142 7.41352c-.0929 0-.1838-.04502-.239-.12836-.3874-.58541-1.2214-1.92023-2.4506-4.2811-1.0008-1.94517-2.4426-2.728386-4.28511-2.329914-.09695.020417-.19389.079995-.30621.148946-.22095.135725-.49607.304588-.93799.304588-.15811 0-.28631-.128365-.28631-.286681 0-.158317.1282-.286678.28631-.286678.28047 0 .44627-.10192.63882-.219905.1444-.088697.29349-.180241.48571-.220908 2.09628-.452862 3.79578.454702 4.91288 2.626802 1.2168 2.33644 2.0385 3.65201 2.4199 4.22821.0872.13188.0511.30978-.0806.39714-.0484.03229-.1036.04786-.1578.04786z"/><path d="m16.7136 7.41347c-.0405 0-.0816-.00871-.1207-.02695-.7347-.34274-2.1267-1.4528-4.4382-3.38157-.6368-.5357-1.2024-.70406-1.7286-.51394-.51112.17053-1.17634.25973-1.93081.25973-.15811 0-.28631-.12836-.28631-.28668 0-.15831.1282-.28668.28631-.28668.87615 0 1.43173-.124 1.74331-.2281.719-.25856 1.4889-.05255 2.2834.61603 2.1642 1.80576 3.641 2.98829 4.3129 3.30174.1431.06678.2053.23731.1384.38074-.0485.10442-.1518.16568-.2597.16568z"/><path d="m10.0135 5.08291c-.02412 0-.04885-.0005-.07359-.0015-.14407-.00686-.27712-.0087-.40214-.01054-.237-.00352-.46064-.0067-.66421-.04184-.58048-.10376-.6572-.94087-.66455-1.56159-.00201-.15815.12468-.28802.2828-.28986.00117-.00016.00234-.00016.00334-.00016.15661 0 .28431.12618.28615.28333.01069.88915.18886 1.00279.19054 1.00362.15844.02728.35132.03013.57462.03331.13071.002.26977.00401.41785.01104.25139.01021.44759-.0492.58729-.17957.216-.2015.3353-.59712.3547-1.17583.0054-.15832.1404-.27714.2959-.27698.1577.00536.2818.1379.2764.29605-.0251.74707-.2006 1.26269-.5369 1.57615-.238.22208-.5498.33437-.9282.33437z"/><path d="m11.9959 4.77545c-.1474 0-.2814-.0149-.379-.02578-.3805-.04016-.8257-.24199-.7779-.97383.01-.15815.1474-.27346.3042-.26744.1578.01038.2771.14677.2667.30459-.0197.30576.0626.34492.2688.36684.6806.07598.7241-.07447.7528-.17388.0438-.15196.2039-.23881.3543-.19547.1521.04418.2394.20317.1953.35513-.1481.51227-.6091.60984-.9852.60984z"/><path d="m8.4953 15.0305c-.15728 0-.28531-.1271-.28631-.2848-.00084-.1583.12652-.2872.28464-.2882 3.01057-.0184 5.12387-2.8835 6.28047-8.51532.0321-.15514.1832-.25588.3379-.22291.1551.0318.2548.18342.223.33839-1.2188 5.93374-3.5196 8.95284-6.83803 8.97284-.0005 0-.00117 0-.00167 0z"/><path d="m2.5082 8.56981c-.03192 0-.06452-.00535-.09627-.01673-.68879-.24652-1.435066-.63428-2.281799-1.18604-.13254173-.08619-.1699808-.26376-.0837364-.39647.0862444-.13238.2637464-.17053.3959554-.08384.80879.52683 1.51596.89535 2.16213 1.12646.14892.05322.22647.2174.17332.36634-.04178.11715-.1521.19028-.2696.19028z"/><path d="m14.4919 8.5698c-.1177 0-.2276-.07296-.2694-.19028-.0535-.14894.0241-.31295.1731-.36634.6459-.23111 1.3532-.59963 2.1622-1.12663.1323-.08585.3098-.04836.3961.08401.0862.13271.0485.31028-.0839.39663-.8471.5516-1.5935.93953-2.2818 1.18588-.0318.01138-.0642.01673-.0963.01673z"/><path d="m8.495 10.4058c-.81598 0-1.47986-.66439-1.47986-1.48141 0-.80314.67775-1.48176 1.47986-1.48176.82132 0 1.48921.66473 1.48921 1.48176 0 .81702-.66789 1.48141-1.48921 1.48141zm0-2.38981c-.4919 0-.90724.41587-.90724.9084 0 .50072.40698.9084.90724.9084.50543 0 .91693-.40768.91693-.9084 0-.49253-.41986-.9084-.91693-.9084z"/><path d="m8.4953 12.1256c-.15812 0-.28632-.1282-.28632-.2865v-1.7101c0-.15828.1282-.28647.28632-.28647.15811 0 .28631.12819.28631.28647v1.7101c0 .1583-.1282.2865-.28631.2865z"/><path d="m8.49535 16.7014c-.61791 0-1.12084-.5034-1.12084-1.1219 0-.6186.50293-1.122 1.12084-1.122.61776 0 1.12051.5034 1.12051 1.122 0 .6292-.49206 1.1219-1.12051 1.1219zm0-1.6709c-.29717 0-.54822.2514-.54822.549 0 .3025.24587.5489.54822.5489.30737 0 .54822-.2413.54822-.5489 0-.3026-.24603-.549-.54822-.549z"/></g></svg>