<svg fill="none" height="17" viewBox="0 0 17 17" width="17" xmlns="http://www.w3.org/2000/svg"><g fill="#4a4a4a"><path d="m5.5411 8.0731c.33969.14391.69256.21214 1.04032.21214 1.04478 0 2.04067-.6156 2.47453-1.63827.57818-1.36321-.05761-2.94133-1.41721-3.51825-1.36044-.57733-2.93665.06314-3.51484 1.42613-.28016.66003-.28697 1.38979-.01934 2.05407.26762.6647.77779 1.18465 1.43654 1.46418zm-.38347-2.84886c-.08057.23595-.12669.46723-.14646.69l-.67534-.28655c-.00233-.23807.0321-.47636.10586-.70722zm3.68234.28186c.01063.257-.02083.51867-.10224.77482l-.7136-.3027c.09098-.25848.14412-.50889.16984-.74612zm-1.20739.3061-.78098-.33139.29419-.6934.63537.26953c-.01466.23766-.0593.4921-.14858.75526zm-2.18352.74974.40856.17345-.23042.54355c-.07058-.19047-.14158-.43683-.17814-.717zm.7999.33926.44257.1877c-.24764.18387-.4938.3095-.68851.39176zm.16623-.39134.27039-.6375.77949.33076c-.11819.22277-.2621.41324-.41812.57479zm.89662-2.11379.27188-.6409c.06568.17197.15624.46701.19003.83667zm-.39155-.16602-.42599-.18069c.26146-.21044.51335-.34818.68298-.42492zm-.16602.39155-.2942.6934-.74229-.31481c.1269-.24637.27655-.45766.43683-.63282zm-.46021 1.08474-.27039.6375-.59839-.25381c.00787-.22383.04528-.45978.12351-.69978zm-1.79515.74379c-.04422-.10969-.07674-.22193-.10331-.33501l.6071.25763c.02274.40112.11542.75271.21193 1.01927-.31524-.24211-.56331-.56309-.71572-.94189zm1.76411 1.38425c.25827-.11627.57415-.29398.87643-.55544l.60476.25657c-.43917.26295-.96146.37412-1.48119.29887zm1.87338-.59434-.67363-.2857c.14603-.16899.28016-.36307.39389-.58499l.71487.30334c-.11628.21554-.26401.40558-.43513.56735zm.62835-2.22774-.55183-.23403c-.00892-.34075-.06504-.63984-.12988-.8709.33395.29589.5682.68213.68171 1.10493zm-2.16714-1.67058c.05718 0 .11457.00404.17197.0085-.21087.11394-.46489.28123-.71615.51208l-.55438-.2351c.33394-.18536.71232-.28548 1.09856-.28548zm-1.50563.57458.64855.27506c-.15263.18345-.29548.39559-.41813.64069l-.71402-.30292c.12733-.23595.29164-.44193.4836-.61283z"/><path d="m.128364 10.5927 6.207246 2.6813c.05421.0234.10948.0419.16517.0579l.53653 3.4872c.01615.105.10671.1802.2098.1802.01084 0 .02168-.0008.03252-.0025l9.54017-1.4674c.0557-.0085.1058-.0389.139-.0842.0334-.0455.0474-.1022.0387-.1581l-1.867-12.13754c-.0179-.11606-.1278-.19514-.2424-.17771l-3.2527.50039c-.1244-.3348-.3784-.6207-.7312-.77312l-6.20729-2.6815635c-.10735-.0467653-.23297.0031886-.27931.1107485l-4.4001972 10.185095c-.02231978.0516-.02317008.1103-.0025508.1628.0210444.0521.0616453.0942.113512.1165zm14.614136-7.1685 1.8024 11.7173-9.11987 1.4027-.48678-3.1645c.14688-.0072.29356-.034.43428-.0899.3365-.1335.60072-.3899.7442-.7221l.15709-.3637.15752.0875c.2655.1476.531.2953.80011.4464.10246.1816.20364.364.3044.5461l.30419.548c.03146.0566.08715.0957.15092.1063.01174.0019.02314.003.03484.003.0523 0 .1031-.0193.1424-.0548l.0162-.0143c.0132-.0117.0244-.0219.0355-.0327l.0942-.0944c.0684-.0685.1367-.1373.2062-.2045.0773-.075.1099-.1711.0939-.2785l-.0523-.3588c-.0178-.1256-.0359-.2512-.0548-.3764.304-.3025.5167-.5153.7737-.7725l.185-.1847 1.4888 2.2455c.0353.0532.0925.0876.156.094.0632.0049.1265-.0159.1716-.0612l.4156-.4156c.0531-.0531.0741-.1301.0556-.203l-.8041-3.1448c.318-.31626.5695-.56794.8564-.85491l.3034-.30334c.1169-.11691.1917-.24445.2283-.39006.058-.23085 0-.47807-.1548-.66131-.1547-.18323-.3869-.28229-.6256-.26295-.1947.01531-.3675.09757-.514.24425l-1.1606 1.16233c-.328-.07759-1.1073-.26359-2.0143-.50485l1.7424-4.03309c.0834-.1928.1165-.39432.1084-.59116zm-2.2183 6.7119.7877 3.0814-.146.146-1.4888-2.2456c-.0353-.0531-.0925-.0875-.1556-.0939-.063-.0053-.1263.0159-.1716.0608l-.369.369c-.2659.2661-.4844.4847-.8059.8044-.0795.0788-.1111.1753-.0943.2869.021.1395.041.2789.0612.4188l.0448.3089c-.0369.0361-.0735.0727-.1103.1092l-.16834-.3037c-.10437-.1886-.20853-.3769-.31439-.5638-.04166-.0744-.10671-.1211-.15348-.1473-.26698-.1496-.5344-.2984-.80202-.4472l-.19472-.1084.06229-.1444c.11202.0232.25338.0604.39219.0967.20151.053.39198.1029.53461.1242.01722.0025.03422.0038.0508.0038.08354 0 .15879-.0314.2198-.0929l1.13766-1.1389c.0109-.0109.0211-.0223.0338-.0374l.014-.0164c.0406-.0461.0591-.1076.0511-.1684-.0081-.0608-.0421-.1152-.0931-.149l-1.35667-.89957.2079-.48126c.99947.26678 1.85467.46893 2.14627.5378.0787.01913.1941.01892.2983-.08588l1.2018-1.20356c.0759-.0761.152-.1133.2466-.12074.1018-.00659.1996.03337.2674.1133.0679.08035.0923.18366.0672.28335-.0176.06994-.0546.13116-.1165.19301l-.3035.30355c-.2974.2976-.5567.55694-.8911.88961-.0887.08758-.1193.19279-.0901.31759zm-3.2056-.35012 1.0792.71572-.95569.9572c-.11798-.0221-.27932-.0646-.4362-.1059-.11627-.0306-.22723-.0593-.32842-.0826zm-4.59512-9.293755 6.01192 2.597175c.4706.20343.6883.75186.4849 1.2227l-3.49384 8.087c-.09842.2279-.27996.4039-.51081.4955-.23106.0918-.48381.0878-.71168-.0108l-6.011899-2.597z"/><path d="m2.72639 8.32544 4.52774 1.95606c.02742.0119.05611.0174.08417.0174.08227 0 .16049-.048.19514-.1284.04655-.1077-.00297-.23293-.11075-.27927l-4.52773-1.95607c-.10756-.04634-.23298.00319-.27932.11075-.04655.10777.00298.23298.11075.27953z"/><path d="m6.69035 11.5197c.08227 0 .16049-.048.19514-.1284.04656-.1077-.00297-.2329-.11075-.2793l-4.52773-1.95604c-.10756-.04656-.23298.00318-.27932.11074-.04655.10778.00298.23298.11075.27932l4.52774 1.95608c.02742.0121.05611.0176.08417.0176z"/></g></svg>