<svg fill="none" height="15" viewBox="0 0 17 15" width="17" xmlns="http://www.w3.org/2000/svg"><g fill="#4a4a4a"><path d="m8.45018 3.42857c.86665 0 1.58882-.77922 1.58882-1.71428 0-.935069-.72217-1.71429-1.58882-1.71429s-1.58885.779221-1.58885 1.71429c0 .93506.7222 1.71428 1.58885 1.71428zm0-2.649349c.50555 0 .86665.389609.86665.935069 0 .54545-.3611.93506-.86665.93506-.50554 0-.86665-.38961-.86665-.93506 0-.54546.36111-.935069.86665-.935069z"/><path d="m13.3606 2.18183c0-.62338-.5055-1.16883-1.0833-1.16883s-1.0833.54545-1.0833 1.16883c0 1.01299-.4333 1.87013-1.22775 2.41559-.21666-.54546-.79442-.93507-1.44441-.93507-.64998 0-1.22775.38961-1.51663.93507-.79443-.54546-1.22775-1.4026-1.22775-2.41559 0-.62338-.50555-1.16883-1.08331-1.16883-.57777 0-1.08331.54545-1.08331 1.16883 0 2.18182 1.22775 4.20779 3.03326 4.98701v7.40256h.72221v-8.72723c.07222-.62338.3611-1.4026 1.15553-1.4026s1.08331.77922 1.08331 1.4026v8.72723h.72225v-7.40256c1.8055-.77922 3.0332-2.80519 3.0332-4.98701zm-8.95533 0c0-.23376.14444-.38961.3611-.38961s.3611.15585.3611.38961c0 1.32468.64999 2.49351 1.66108 3.19481 0 .15584-.07222.31168-.07222.46753v.46753c-1.3722-.7013-2.31106-2.33766-2.31106-4.12987zm5.84983 3.19481c1.0111-.62338 1.6611-1.87013 1.6611-3.19481 0-.23376.1444-.38961.3611-.38961s.3611.15585.3611.38961c0 1.79221-1.0111 3.50649-2.311 4.12987v-.46753c0-.15585 0-.31169-.0723-.46753z"/><path d="m16.1774 7.94803c-.5778 0-1.0111.46753-1.0111 1.01298v.07793c0 .70129-.2889 1.32466-.7222 1.79216-.2167-.4675-.65-.7792-1.1555-.8571.6499-.23376 1.0833-.85714 1.0833-1.63636 0-.93507-.7222-1.71429-1.5889-1.71429-.8666 0-1.5888.77922-1.5888 1.71429 0 .77922.4333 1.4026 1.0833 1.63636-.7945.1558-1.3722.8571-1.3722 1.7143v2.8831h.7222v-2.8831c0-.5455.4333-1.013.9388-1.013h.2889c.5056 0 .9389.4675.9389 1.013v2.8831h.7222v-1.2467c1.4444-.7793 2.4555-2.4936 2.4555-4.28576.1444-.62338-.2889-1.09091-.7944-1.09091zm-4.1888.38961c0-.46753.3611-.93507.8666-.93507.5056 0 .8667.38961.8667.93507 0 .54545-.3611.93506-.8667.93506-.5055 0-.8666-.46753-.8666-.93506zm2.6721 4.12986v-.7792c.7945-.6234 1.2278-1.5585 1.2278-2.57144v-.07792c0-.15585.1444-.31169.2889-.31169.1444 0 .2889.15584.2889.31169-.0723 1.32466-.7222 2.72726-1.8056 3.42856z"/><path d="m4.62212 9.89608c.64998-.15585 1.15553-.77922 1.15553-1.55844 0-.93507-.72221-1.71429-1.58886-1.71429-.86664 0-1.58885.77922-1.58885 1.71429 0 .77922.43332 1.4026 1.08331 1.63636-.43332.0779-.79443.3896-1.08331.7792-.3611-.4675-.57776-1.01297-.57776-1.71426 0-.62338-.43333-1.09091-1.01109-1.09091-.577767 0-1.01109.46753-1.01109 1.09091 0 1.79216.938868 3.42856 2.31106 4.20776v1.3247h.7222v-2.8831c0-.1559 0-.2338.07223-.3896.21666-.3896.57776-.6234.93886-.6234h.28889c.50554 0 .93886.4675.93886 1.013v2.8831h.72221v-2.8831c0-.8572-.57777-1.6364-1.37219-1.79222zm-3.827694-.93507c0-.15584.144442-.31168.288884-.31168.14444 0 .28888.15584.28888.31168 0 .93507.43332 1.87009 1.08331 2.49349v.1559.6233c-1.01109-.7013-1.661074-1.948-1.661074-3.27269zm2.527724-.62337c0-.46753.3611-.93507.86664-.93507.50555 0 .86665.38961.86665.93507 0 .54545-.3611.93506-.86665.93506-.50554 0-.86664-.46753-.86664-.93506z"/></g></svg>