<svg fill="none" height="18" viewBox="0 0 17 18" width="17" xmlns="http://www.w3.org/2000/svg"><g fill="#4a4a4a"><path d="m14.1314 8.49923h-3.825c-.2656 0-.47808.16037-.61089.37418-.02656.08019-.05313.1871-.07969.26728v.02672l-.02656.05346v.02673c-.02656.05345-.02656.21381-.02656.29399 0 .21382.02656.42764.07968.64141v.0268.0267l.02657.0267.02656.1069c.26562.6949.87659 1.3364 1.91249 1.5502.3453.0535 1.1688.1604 1.8594 0 .3719-.1069.6906-.294.85-.6414.1859-.4544.239-.9889.1859-1.49676-.0265-.50782-.1859-.96218-.3719-1.28291zm-7.43745-.53454c.05312 0 .69062-.05345 1.0625.66818.02656.05345.07968.13364.10625.18709.2125-.05345.425-.05345.6375-.05345s.425.02672.6375.05345c.02656-.05345.05312-.13364.07968-.18709.2125-.42763.58438-.66818 1.08902-.66818h3.7188v-.02673h.3453.6375l-3.5859-2.67271c-.1594-.08019-.2922-.13364-.3985-.16037-.239-.02673-.425.02673-.6109.10691-.1859.10691-.3453.26727-.47813.48109-.07969.13364-.15937.32073-.18594.48109l-.53125-.08018c.02657-.24055.13282-.48109.23907-.69491.18593-.26727.39843-.50782.69065-.66818.2656-.16036.6109-.21382.9562-.16036.186.02673.3985.10691.611.21382v.02672l4.2234 3.12708v.02673.24055.93545.26727h-.2656-.6641c.0266.10691.0531.21382.0531.34745.0532.56129 0 1.17599-.239 1.73729-.2391.5345-.6907.8018-1.2219.9622-.7969.187-1.7.0801-2.0984 0-1.2485-.2406-1.99223-1.0157-2.31098-1.8709-.23906-.0535-.45156-.0802-.69062-.0802-.23907 0-.47813.0267-.71719.0802-.31875.8552-1.0625 1.6303-2.31094 1.8709-.37187.0801-1.30156.187-2.09844 0-.50468-.1604-.98281-.4277-1.22187-.9622-.2125-.5613-.29219-1.176-.23906-1.73729.02656-.13363.02656-.24054.05312-.34745h-.66406-.26563v-.26727-.93545-.26728h.02657l4.22343-3.12708v-.02672c.2125-.10691.425-.18709.61094-.21382.34531-.05346.69063 0 .95625.16036.29219.16036.50469.40091.69063.66818.10625.21382.2125.45436.23906.69491l-.53125.08018c-.02656-.16036-.10625-.34745-.18594-.48109-.13281-.21382-.29219-.37418-.47812-.48109-.15938-.08018-.37188-.13364-.61094-.10691-.10625.02673-.23906.08018-.39844.16037l-3.58594 2.67271h.61094.37188v.02673zm8.71245.50782h-.664c.0531.13363.1062.26727.1594.4009h.5046zm-5.76402 1.76399c.02657.0535.05313.1069.05313.1336zm-1.14218-.93545c-.18594 0-.34532.02673-.53125.05345.02656.16037.02656.294 0 .42764 0 .08018 0 .13363-.02657.21382.18594-.02673.37188-.05346.55782-.05346.18593 0 .34531.02673.53125.05346-.02657-.08019-.02657-.13364-.02657-.21382 0-.13364 0-.26727 0-.40091-.15937-.05345-.34531-.08018-.50468-.08018zm-6.40157-.42764c.02657-.13363.07969-.26727.13282-.4009h-.66407v.4009zm4.59532-.37418h-3.85157c-.425.74837-.50468 1.97777-.18593 2.77967.39843.8552 1.93906.775 2.70937.6414 1.03594-.2138 1.64688-.8553 1.9125-1.5502l.02656-.0534c.18594-.61474.2125-1.81747-.61093-1.81747z"/><path d="m7.14512 9.32776c0 .10691 0 .18709-.02657.294-.07968.69494-.39843 1.25614-.92968 1.60364-.50469.3474-1.16875.5078-2.01875.5078-.18594 0-.37188-.0267-.55782-.0534l.05313-.5613c.18594.0267.37187.0534.53125.0534.71719.0268 1.275-.1336 1.7-.4009.37187-.2672.61094-.6682.69062-1.22942 0-.08019 0-.16037 0-.21382z"/><path d="m10.3594 9.32776c.0265.05345.0265.13363.0265.21382.0532.56122.2922.96222.6907 1.22942.3984.2673.9828.4277 1.7.4009.1593 0 .3453-.0267.5312-.0534l.0531.5613c-.1859.0267-.3718.0534-.5578.0534-.85 0-1.5406-.1604-2.0453-.5078-.5047-.3475-.84999-.9087-.92968-1.60364 0-.10691 0-.18709 0-.294z"/></g></svg>