<svg fill="none" height="19" viewBox="0 0 17 19" width="17" xmlns="http://www.w3.org/2000/svg"><g fill="#4a4a4a"><path d="m12.0663 3.05615c-.1337-.84148-.5596-1.60897-1.2028-2.167743-.6433-.558773-1.46275-.8731206-2.31467-.88786384-.85192-.01474326-1.68181.27105984-2.344.80724184-.66219.536185-1.11435 1.288475-1.27713 2.124825l-4.684211.95645c-.072061.01455-.136395.05475-.1810552.11314-.04466.0584-.06661092.13101-.06177631.20437l.91061651 13.72203c.005092.077.039306.1492.095686.2018.05638.0527.1307.0819.20785.0818h14.26629c.0761.0002.1495-.028.2058-.0793.0562-.0513.0911-.1218.0978-.1976l1.2141-13.72206c.0067-.07556-.0152-.15088-.0614-.2111-.0461-.06023-.1131-.101-.1878-.11429zm-3.57869-2.449251c.60085-.002404 1.1889.173574 1.68969.505641.5007.33207.8917.80529 1.1233 1.35972s.2934 1.16512.1777 1.75472c-.1158.58961-.4039 1.1316-.8279 1.55732s-.96486.71602-1.554.83413-1.20007.05871-1.75542-.17067c-.55536-.22938-1.03014-.61842-1.36421-1.11785-.33407-.49942-.51241-1.08676-.51241-1.68762 0-.0774.00577-.15329.01153-.22917.00516-.05828.01093-.11778.02004-.18425.09837-.72446.45539-1.38891 1.00522-1.87079.54982-.481873 1.25536-.748673 1.98646-.751181zm6.71549 16.998201h-13.70417l-.874196-13.17361 4.232546-.86509v.07589c-.00166.50891.10369 1.01248.30921 1.47804.20552.46557.50662.88272.88377 1.22441.37715.34168.82192.60027 1.30545.75896.48353.1587.99503.21398 1.5013.16223.04128-.00424.08105-.01305.12142-.01851.07953-.01093.15936-.02064.23737-.03643.04735-.00971.09288-.02428.13962-.03581.06921-.0173.13902-.03248.20671-.05343.0513-.01608.10017-.03703.15177-.05494.06071-.02215.12142-.04188.18213-.06708.05129-.02155.09986-.04796.14997-.07194.0555-.02671.1126-.0513.1666-.08074.0486-.02641.0944-.05737.1418-.0859.0525-.03035.1062-.06071.1569-.09562.0507-.0349.0911-.06677.1345-.10016s.098-.07012.1445-.10837c.0464-.03824.0843-.07618.1265-.11443s.089-.07771.1309-.11929c.0418-.04159.0767-.08378.115-.12567.0382-.04188.0816-.0862.1193-.13173.0376-.04553.0683-.09106.1023-.13568s.0734-.0938.1071-.14327c.0337-.04948.0607-.09623.089-.14449.0282-.04826.0643-.10138.0935-.1542.0291-.05281.05-.10199.0749-.15177s.0547-.10775.0786-.1636c.024-.05585.0401-.10655.0608-.15997.0206-.05342.0446-.11413.0634-.17302.017-.05403.0303-.10988.0437-.16512.0161-.06071.034-.12142.0467-.18212.0119-.05525.0186-.11231.0277-.16877.01-.06344.0221-.12627.0303-.19093.0061-.05646.007-.11443.0103-.1715.0034-.05706.0104-.11807.011-.17848l4.2495.7549z"/><path d="m8.48782 7.89183c-.95911-.00663-1.88808-.3358-2.63739-.93452s-1.27536-1.43216-1.49347-2.36616c-.01766-.0773-.06487-.14461-.13152-.18755s-.14746-.0581-.22514-.04223l-2.47505.50509c-.07212.01455-.1365.05479-.18116.11325-.04467.05846-.06659.13115-.06167.20455l.16057 2.42406.60708-.04006-.14327-2.15999 1.93354-.3946c.29989 1.00169.91315 1.88079 1.74968 2.50811.83653.62733 1.85221.96981 2.8978.97713 1.03366.00045 2.04028-.33014 2.87238-.94334.8322-.6132 1.446-1.47677 1.7517-2.46419l1.9494.34634-.2149 2.42831.6046.05342.2392-2.70423c.0067-.07562-.0152-.15101-.0613-.2113s-.1132-.1011-.1879-.1144l-2.4939-.44286c-.0758-.01388-.154.00175-.2186.04368s-.1107.107-.1289.18185c-.2268.91906-.7551 1.73561-1.5004 2.31923s-1.66474.90063-2.61138.90041z"/><path d="m8.80337 1.21399h-.60708v.60708h.60708z"/><path d="m7.54868 1.38748-.52573.30356.30356.52573.52573-.30355z"/><path d="m6.54867 2.16518-.30355.52574.52573.30356.30356-.52574z"/><path d="m10.2289 4.29018-.30361.52574.52571.30356.3036-.52574z"/><path d="m6.67837 3.33875h-.60708v.60707h.60708z"/><path d="m10.9279 3.33875h-.6071v.60707h.6071z"/><path d="m6.77089 4.29013-.52577.3035.30349.52577.52577-.30349z"/><path d="m10.451 2.16519-.52571.30356.30361.52573.5257-.30355z"/><path d="m9.45095 1.38756-.30349.52577.52577.30349.3035-.52577z"/><path d="m8.49981 4.55286c.13449.00053.26532-.04377.37182-.1259s.18259-.19741.21626-.32762c.03366-.1302.02298-.26792-.03036-.39137-.05335-.12346-.14631-.22562-.2642-.29035l.01002-.9865-.60708-.00607-.01001 1.00471c-.11178.06926-.19805.17294-.24583.29544s-.0545.25721-.01914.38386.11088.23839.21521.31843c.10433.08003.23183.12403.36331.12537z"/><path d="m14.3275 9.71912-4.5531-.91062c-.0441-.009-.08966-.00808-.13337.00269-.0437.01078-.08447.03114-.11933.05962-.03487.02847-.06297.06434-.08226.10502-.01929.04067-.02929.08512-.02928.13014v7.58843c0 .0805.03198.1578.0889.2147.05693.0569.13413.0889.21464.0889h3.946c.076.0003.1493-.0279.2055-.0791.0562-.0511.0912-.1215.098-.1971l.6071-6.6779c.0067-.07455-.0144-.14894-.0592-.20889s-.1102-.10122-.1836-.11589zm-.9449 6.67178h-3.3654v-6.91461l3.9227.78311z"/><path d="m7.22486 8.8085-4.55308.91062c-.0734.01467-.13879.05594-.18361.11589s-.06591.13434-.05922.20889l.60708 6.6779c.00684.0756.04181.146.09801.1971.0562.0512.12954.0794.20553.0791h3.946c.08051 0 .15771-.032.21464-.0889.05692-.0569.0889-.1342.0889-.2147v-7.58843c.00001-.04502-.00999-.08947-.02928-.13014-.0193-.04068-.04739-.07655-.08226-.10502-.03487-.02848-.07563-.04884-.11934-.05962-.0437-.01077-.08926-.01169-.13337-.00269zm-.24283 7.5824h-3.36533l-.5573-6.1315 3.92263-.78311z"/></g></svg>