<?xml version="1.0" encoding="UTF-8" standalone="no"?>
<svg width="60px" height="60px" viewBox="0 0 60 60" version="1.1" xmlns="http://www.w3.org/2000/svg" xmlns:xlink="http://www.w3.org/1999/xlink" xmlns:sketch="http://www.bohemiancoding.com/sketch/ns">
    <!-- Generator: Sketch 3.3.3 (12081) - http://www.bohemiancoding.com/sketch -->
    <title>ManWC</title>
    <desc>Created with Sketch.</desc>
    <defs>
        <path id="path-1" d="M8.554,4 L0.46,4 L5.751,20 L7.042,36 L19.651,36 L20.641,20 L25.63,4 L17.627,4 L17.627,0 L8.554,0 L8.554,4 L8.554,4 Z"></path>
        <path id="path-3" d="M7,16 C10.866,16 14,12.418 14,8 C14,3.582 10.866,0 7,0 C3.134,0 0,3.582 0,8 C0,12.418 3.134,16 7,16 L7,16 Z"></path>
    </defs>
    <g id="colored" stroke="none" stroke-width="1" fill="none" fill-rule="evenodd" sketch:type="MSPage">
        <g id="Care_sliced" sketch:type="MSLayerGroup" transform="translate(-360.000000, -240.000000)"></g>
        <g id="Imported-Layers" sketch:type="MSLayerGroup" transform="translate(-358.000000, -239.000000)">
            <g id="Group-300" transform="translate(378.000000, 260.000000)">
                <mask id="mask-2" sketch:name="Clip 299" fill="white">
                    <use xlink:href="#path-1"></use>
                </mask>
                <g id="Clip-299"></g>
                <path d="M0.46,0 L25.63,0 L25.63,36 L0.46,36 L0.46,0 Z" id="Fill-298" fill="#81A4E3" sketch:type="MSShapeGroup" mask="url(#mask-2)"></path>
            </g>
            <path d="M397.651,297 L385.042,297 C384.521,297 384.086,296.6 384.045,296.081 L382.764,280.2 L377.511,264.314 C377.41,264.009 377.461,263.674 377.649,263.415 C377.837,263.154 378.139,263 378.46,263 L385.554,263 L385.554,260 C385.554,259.448 386.002,259 386.554,259 L395.627,259 C396.179,259 396.627,259.448 396.627,260 L396.627,263 L403.63,263 C403.948,263 404.248,263.151 404.436,263.407 C404.625,263.664 404.68,263.994 404.585,264.298 L399.631,280.182 L398.649,296.062 C398.616,296.589 398.179,297 397.651,297 L397.651,297 Z M385.964,295 L396.711,295 L397.643,279.938 C397.647,279.858 397.662,279.779 397.686,279.702 L402.271,265 L395.627,265 C395.075,265 394.627,264.552 394.627,264 L394.627,261 L387.554,261 L387.554,264 C387.554,264.552 387.106,265 386.554,265 L379.844,265 L384.7,279.686 C384.726,279.762 384.741,279.84 384.748,279.92 L385.964,295 L385.964,295 Z" id="Fill-301" fill="#314E55" sketch:type="MSShapeGroup"></path>
            <path d="M390,279 L392,279 L392,296 L390,296 L390,279 Z" id="Fill-302" fill="#314E55" sketch:type="MSShapeGroup"></path>
            <g id="Group-305" transform="translate(384.000000, 241.000000)">
                <mask id="mask-4" sketch:name="Clip 304" fill="white">
                    <use xlink:href="#path-3"></use>
                </mask>
                <g id="Clip-304"></g>
                <path d="M0,0 L14,0 L14,16 L0,16 L0,0 Z" id="Fill-303" fill="#81A4E3" sketch:type="MSShapeGroup" mask="url(#mask-4)"></path>
            </g>
            <path d="M391,258 C386.589,258 383,253.963 383,249 C383,244.038 386.589,240 391,240 C395.411,240 399,244.038 399,249 C399,253.963 395.411,258 391,258 L391,258 Z M391,242 C387.691,242 385,245.14 385,249 C385,252.86 387.691,256 391,256 C394.309,256 397,252.86 397,249 C397,245.14 394.309,242 391,242 L391,242 Z" id="Fill-306" fill="#314E55" sketch:type="MSShapeGroup"></path>
        </g>
    </g>
</svg>