<svg xmlns="http://www.w3.org/2000/svg" xmlns:xlink="http://www.w3.org/1999/xlink" width="181" height="149" version="1.1" viewBox="0 0 181 149"><title>Artboard</title><desc>Created with Sketch.</desc><defs><rect id="path-1" width="172.967" height="143" x="3" y="3" rx="10"/><mask id="mask-2" width="172.967" height="143" x="0" y="0" fill="#fff" maskContentUnits="userSpaceOnUse" maskUnits="objectBoundingBox"><use xlink:href="#path-1"/></mask><rect id="path-3" width="22" height="23" x="0" y="3" rx="3"/><mask id="mask-4" width="22" height="23" x="0" y="0" fill="#fff" maskContentUnits="userSpaceOnUse" maskUnits="objectBoundingBox"><use xlink:href="#path-3"/></mask><rect id="path-5" width="22" height="23" x="0" y="3" rx="3"/><mask id="mask-6" width="22" height="23" x="0" y="0" fill="#fff" maskContentUnits="userSpaceOnUse" maskUnits="objectBoundingBox"><use xlink:href="#path-5"/></mask><rect id="path-7" width="22" height="23" x="0" y="3" rx="3"/><mask id="mask-8" width="22" height="23" x="0" y="0" fill="#fff" maskContentUnits="userSpaceOnUse" maskUnits="objectBoundingBox"><use xlink:href="#path-7"/></mask></defs><g id="Page-1" fill="none" fill-rule="evenodd" stroke="none" stroke-width="1"><g id="Artboard"><use id="Rectangle" fill="#FFF" stroke="#D0D0D0" stroke-width="2" mask="url(#mask-2)" xlink:href="#path-1"/><g id="Group" transform="translate(22.000000, 16.000000)"><rect id="Rectangle-2" width="107" height="4.372" x="30" y="9" fill="#C7C7C7" rx="2.186"/><rect id="Rectangle-2" width="74.986" height="4.372" x="30" y="17" fill="#C7C7C7" rx="2.186"/><use id="Rectangle-4" fill="#FFF" stroke="#345875" stroke-width="4" mask="url(#mask-4)" xlink:href="#path-3"/><rect id="Rectangle-3" width="14" height="13" x="11" y="0" fill="#FFF"/><path id="Line" stroke="#DE6464" stroke-linecap="square" stroke-width="2" d="M13.5,6.5 L17.5,10.5"/><path id="Line" stroke="#DE6464" stroke-linecap="square" stroke-width="2" d="M17.5,10.5 L23.5,3.5"/></g><g id="Group" transform="translate(22.000000, 56.000000)"><rect id="Rectangle-2" width="107" height="4.372" x="30" y="9" fill="#C7C7C7" rx="2.186"/><rect id="Rectangle-2" width="74.986" height="4.372" x="30" y="17" fill="#C7C7C7" rx="2.186"/><use id="Rectangle-4" fill="#FFF" stroke="#345875" stroke-width="4" mask="url(#mask-6)" xlink:href="#path-5"/><rect id="Rectangle-3" width="14" height="13" x="11" y="0" fill="#FFF"/><path id="Line" stroke="#DE6464" stroke-linecap="square" stroke-width="2" d="M13.5,6.5 L17.5,10.5"/><path id="Line" stroke="#DE6464" stroke-linecap="square" stroke-width="2" d="M17.5,10.5 L23.5,3.5"/></g><g id="Group" transform="translate(22.000000, 96.000000)"><rect id="Rectangle-2" width="107" height="4.372" x="30" y="9" fill="#C7C7C7" rx="2.186"/><rect id="Rectangle-2" width="74.986" height="4.372" x="30" y="17" fill="#C7C7C7" rx="2.186"/><use id="Rectangle-4" fill="#FFF" stroke="#345875" stroke-width="4" mask="url(#mask-8)" xlink:href="#path-7"/><rect id="Rectangle-3" width="14" height="13" x="11" y="0" fill="#FFF"/><path id="Line" stroke="#DE6464" stroke-linecap="square" stroke-width="2" d="M13.5,6.5 L17.5,10.5"/><path id="Line" stroke="#DE6464" stroke-linecap="square" stroke-width="2" d="M17.5,10.5 L23.5,3.5"/></g></g></g></svg>