<svg fill="none" height="21" viewBox="0 0 19 21" width="19" xmlns="http://www.w3.org/2000/svg"><path d="m18.705 7.62632-5.0111-6.985267c-.2796-.397895-.7528-.641053-1.2259-.641053h-5.93598c-.47316 0-.94631.243158-1.22591.641053l-5.011155 6.985267c-.3441141.48631-.3871283 1.10526-.129043 1.63579.258085.53052.774256.86209 1.354948.86209h.15055v9.3063c0 .8621.68823 1.5695 1.52701 1.5695h12.60318c.8388 0 1.527-.7074 1.527-1.5695v-9.3063h.1505c.5807 0 1.0969-.33157 1.355-.86209.2581-.53053.2151-1.14948-.1291-1.63579zm-7.4629 12.17998h-3.48418v-5.9463h3.48418zm4.9036-.3758c0 .199-.1505.3537-.3441.3537h-3.3981v-5.9684c0-.6411-.4947-1.1495-1.1184-1.1495h-3.57019c-.62371 0-1.11837.5084-1.11837 1.1495v5.9905h-3.39812c-.19357 0-.34412-.1547-.34412-.3537v-9.3284h13.3129v9.3063zm1.656-10.69892c-.0215.06631-.129.19895-.3226.19895h-15.95824c-.19356 0-.27959-.13264-.32261-.19895-.0215-.06632-.08602-.22105.02151-.37579l5.03267-7.00737c.06452-.08842.17205-.15474.27959-.15474h5.93598c.1075 0 .2151.06632.2796.15474l5.0111 6.98526c.1291.17685.0646.33158.043.3979z" fill="#5a6f84"/></svg>