<svg fill="none" height="21" viewBox="0 0 24 21" width="24" xmlns="http://www.w3.org/2000/svg"><path d="m13.5594 21c-.0002 0-.0002 0 0 0h-1.3653c-.524-.0003-.9636-.393-1.0228-.9135l-.8404-7.7241c-.54856-.2802-.93193-.827-.99807-1.4471l-.50683-3.84043c-.01011-.08637-.01478-.16782-.01452-.24926.00129-1.15891.94596-2.1028 2.10622-2.1028h1.149c-.9317-.34031-1.5988-1.23569-1.5988-2.28359.0015-1.33737 1.0904-2.4254729 2.4273-2.4254729 1.3389 0 2.428 1.0891429 2.428 2.4275429 0 1.04712-.6663 1.94147-1.5975 2.28126h1.1457c.0791 0 .1582.00441.2368.01349 1.1548.13046 1.9882 1.17681 1.8577 2.33209l-.5136 3.85827c-.0716.6228-.4663 1.1688-1.0276 1.4406l-.842 7.7174c-.0597.5226-.4993.9153-1.0233.9156zm-2.6399-15.58309c-.78 0-1.4134.63263-1.41418 1.41051-.00026.05473.00285.10843.00908.16212l.5071 3.84376c.0472.4415.3413.8171.7509.9659.1242.0452.2119.1572.2264.2887l.862 7.922c.0189.1681.1623.2963.3333.2963h1.3648c.171 0 .3147-.1282.3338-.2981l.864-7.9204c.0148-.1344.1061-.248.234-.2913.4189-.1411.7221-.5162.7727-.9551l.5136-3.85773c.0866-.76828-.4724-1.47017-1.2474-1.55784-.0529-.00597-.1058-.00882-.1585-.00882zm1.9757-4.7088c-.9548 0-1.7324.77685-1.7335 1.73163 0 .95608.7777 1.73474 1.7337 1.73551.9564 0 1.734-.77788 1.734-1.7337-.0003-.95582-.7782-1.73344-1.7342-1.73344zm7.5949 20.28959c-.0003 0-.0016 0-.0018 0h-1.0087c-.4317 0-.7927-.323-.8407-.7509l-.6002-3.9976c-.4041-.2244-.6767-.6295-.7283-1.099l-.3717-2.8047c-.0078-.0659-.0112-.1274-.0112-.1888-.0005-.4361.1689-.8461.4773-1.1551.3081-.3086.7182-.479 1.1545-.4796h.4375c-.5174-.3327-.8611-.91349-.8611-1.57284.0021-1.02793.8391-1.86391 1.8662-1.86391 1.029 0 1.866.83728 1.866 1.86599 0 .65856-.3426 1.23826-.8593 1.57056h.4402c.0607 0 .1216.0036.1818.0104.4339.049.8225.2638 1.0943.6051.2719.3413.3945.7678.3453 1.2015l-.378 2.8282c-.0542.4711-.346.8866-.7636 1.1047l-.6002 3.9875c-.0467.4155-.4077.7385-.8383.7385zm-1.9303-9.7815c-.2508.0002-.4866.098-.6638.2757-.1774.1774-.2747.4134-.2744.6642 0 .0348.0018.0693.0055.103l.3722 2.8076c.0314.2874.214.5231.4775.6225.1175.0443.2018.1489.2207.2731l.6295 4.1939c.0102.0895.0747.1471.1518.1471h1.0113c.077 0 .1416-.0578.1502-.1344l.6311-4.1905c.0192-.1287.1089-.2355.2321-.277.2711-.0916.4677-.3349.5003-.62l.378-2.8277c.0275-.2425-.0431-.4877-.1995-.684-.1564-.1964-.3797-.3196-.6293-.3478-.0342-.0039-.0692-.0057-.104-.0057zm1.4421-3.43659c-.645 0-1.1713.52499-1.1724 1.17033 0 .64612.5261 1.17296 1.1727 1.17396.6459 0 1.1716-.52603 1.1716-1.1724 0-.64638-.5257-1.17189-1.1719-1.17189zm-15.08477 13.20639c-.00026 0-.00285 0-.00311 0h-.93118c-.52602 0-.96619-.393-1.02507-.9135l-.3359-3.7533h-1.53268c-.05603-.001-.106088-.0062-.15537-.0158-.442245-.0908-.726526-.5211-.636521-.9602l.526543-2.196c-.54885-.1338-.9034234-.6648-.80849-1.2203l1.327768-5.63172c.19065-.81913.85155-1.43049 1.68364-1.55655.05629-.00804.30555-.01245.61915-.01504-.94648-.33227-1.62684-1.23492-1.62684-2.29371 0-1.33996 1.09018-2.42988 2.43014-2.42988 1.3397 0 2.42988 1.09018 2.42988 2.42988 0 1.05827-.67984 1.96066-1.6258 2.29345.54807.00389.60176.01193.62329.01504.83391.12632 1.49507.73768 1.68494 1.5581l1.32103 5.67653c.07133.5468-.28454 1.0521-.80771 1.1787l.52784 2.1819c.01322.0614.01815.1128.01919.1642.00441.4508-.35691.8191-.80512.8232h-1.54928l-.32604 3.7424c-.06044.5299-.50061.9226-1.0243.9226zm-.00207-.6941h.00207c.17093 0 .31437-.1281.33383-.298l.35275-4.0495c.01583-.1792.16601-.317.34576-.317h1.86417c.06225-.0005.11516-.0544.11439-.1201l-.63108-2.6202c-.02931-.1211.00856-.2488.09935-.3341.09078-.0856.22047-.1157.33953-.0791.04331.013.08922.0171.13513.0111.20543-.0269.35069-.2158.32371-.4209l-1.30858-5.61044c-.12554-.54211-.56208-.94571-1.11196-1.02897-.05551-.00415-.5281-.00985-1.29795-.00985-.78955 0-1.2899.00596-1.35967.01141-.5351.08118-.97138.4853-1.09744 1.02689l-1.323881 5.61166c-.030347.1829.107125.3774.311261.4125.03475.0046.04876.0054.06251.0054.0319 0 .06355-.0047.09389-.014.1188-.0363.24823-.006.33901.0794.09079.0853.12866.2124.09961.3335l-.626668 2.612c-.005966.0306.009597.0625.019713.0778.010115.0156.033715.0426.075735.0511.00597.0013.01583.0023.0249.0023h1.8442c.17949 0 .32968.1373.3455.3162l.36313 4.0612c.01842.1616.16186.2897.33279.2897zm-.46585-19.597797c-.95712 0-1.73604.778657-1.73604 1.735777 0 .95738.77892 1.73604 1.73604 1.73604.95711 0 1.73578-.77866 1.73578-1.73604.00026-.95712-.77841-1.735777-1.73578-1.735777z" fill="#5a6f84"/></svg>