<svg fill="none" height="21" viewBox="0 0 20 21" width="20" xmlns="http://www.w3.org/2000/svg"><g fill="#5a6f84"><path d="m18.725 6.43125c.2625 0 .4375-.175.4375-.4375v-2.3625c0-.2625-.175-.4375-.4375-.4375h-1.1375v-1.05c0-1.18125-.9625-2.14375-2.1437-2.14375-7.9188 0-8.31255 0-13.30005 0-1.18125 0-2.14375.9625-2.14375 2.14375v16.71245c0 1.1813.9625 2.1438 2.14375 2.1438h13.30005c1.1812 0 2.1437-.9625 2.1437-2.1438v-1.0062h1.1375c.2625 0 .4375-.175.4375-.4375v-2.3625c0-.2625-.175-.4375-.4375-.4375h-1.1375v-.5688h1.1375c.2625 0 .4375-.1749.4375-.4375v-2.3624c0-.2625-.175-.4375-.4375-.4375h-1.1375v-.5688h1.1375c.2625 0 .4375-.175.4375-.4375v-2.3625c0-.2625-.175-.4375-.4375-.4375h-1.1375v-.56875zm-.4375-2.3625v1.4875h-.7v-1.4875zm-17.4125 14.78745v-16.71245c0-.7.56875-1.26875 1.26875-1.26875h.91875v19.25h-.91875c-.7 0-1.26875-.5688-1.26875-1.2688zm3.0625 1.2688v-19.25h1.35625v19.25zm12.775-1.2688c0 .7-.5687 1.2688-1.2687 1.2688h-9.27505v-19.25h9.27505c.7 0 1.2687.56875 1.2687 1.26875zm1.575-3.4125v1.4875h-.7v-1.4875zm0-3.8062v1.4875h-.7v-1.4875zm0-3.80625v1.4875h-.7v-1.4875z"/><path d="m14.6996 3.19376h-6.47499c-.2625 0-.4375.175-.4375.4375v4.24375c0 .2625.175.4375.4375.4375h6.51879c.2625 0 .4375-.175.4375-.4375v-4.24375c-.0438-.2625-.2188-.4375-.4813-.4375zm-.4375 4.24375h-5.59999v-3.36875h5.64379v3.36875z"/></g></svg>