<svg fill="none" height="21" viewBox="0 0 21 21" width="21" xmlns="http://www.w3.org/2000/svg"><path d="m20.6677 17.7558-4.1506-4.1496-.3927-.3934c-.4431-.4481-1.169-.4481-1.612 0l-.1717.1718-1.0228-1.0238-.0004-.0003c2.4652-2.95894 2.3117-7.3795-.4623-10.15573-2.93689-2.939692-7.71592-2.939692-10.6525 0-2.936933 2.93968-2.936933 7.72284 0 10.66253.21925.2195.44898.4221.68711.6087.01434.0112.02833.0224.04266.0336 2.77364 2.1413 6.7082 2.0814 9.41683-.1796l1.0228 1.0238-.0875.0878-.0646.0644c-.4476.4435-.4476 1.1701 0 1.6135l.393.3931 4.1465 4.1549c.0975.0969.2087.1729.3269.2275.0339.0157.0685.029.1035.0413.0171.0063.035.0115.0525.0168.1059.0311.2154.0469.3248.0469.292 0 .5843-.111.8081-.3325l1.2924-1.2936c.4431-.448.4431-1.1701 0-1.6181zm-17.16455-6.1905c-2.21975-2.22185-2.21975-5.83704 0-8.05887 2.21974-2.22183 5.83155-2.22183 8.05125 0 2.1058 2.10773 2.2135 5.46917.3242 7.70567l-.677.6776c-2.23441 1.8915-5.5927 1.7833-7.69845-.3244z" fill="#5a6f84"/></svg>